<?xml version="1.0" encoding="UTF-8" standalone="no"?>
<!-- Created with Inkscape (http://www.inkscape.org/) -->
<svg xmlns:dc="http://purl.org/dc/elements/1.1/" xmlns:cc="http://web.resource.org/cc/" xmlns:rdf="http://www.w3.org/1999/02/22-rdf-syntax-ns#" xmlns:svg="http://www.w3.org/2000/svg" xmlns="http://www.w3.org/2000/svg" xmlns:sodipodi="http://sodipodi.sourceforge.net/DTD/sodipodi-0.dtd" xmlns:inkscape="http://www.inkscape.org/namespaces/inkscape" id="svg2236" sodipodi:version="0.32" inkscape:version="0.46dev+devel" width="650.15002" height="383.10999" version="1.0" sodipodi:docname="Asterisk Logo.svg" inkscape:output_extension="org.inkscape.output.svg.inkscape">
  <metadata id="metadata2241">
    <rdf:RDF>
      <cc:Work rdf:about="">
        <dc:format>image/svg+xml</dc:format>
        <dc:type rdf:resource="http://purl.org/dc/dcmitype/StillImage"/>
      </cc:Work>
    </rdf:RDF>
  </metadata>
  <defs id="defs2239"/>
  <sodipodi:namedview inkscape:window-height="934" inkscape:window-width="1280" inkscape:pageshadow="2" inkscape:pageopacity="0.0" guidetolerance="10.0" gridtolerance="10.0" objecttolerance="10.0" borderopacity="1.0" bordercolor="#666666" pagecolor="#ffffff" id="base" inkscape:zoom="4.1933333" inkscape:cx="122.44693" inkscape:cy="233.03951" inkscape:window-x="1280" inkscape:window-y="28" inkscape:current-layer="svg2236" width="650.15px" height="383.11px" showguides="true" inkscape:guide-bbox="true"/>
  <path style="font-weight:bold;fill:#8a8a8e;fill-opacity:1" d="M 167.73013,357.27349 C 162.02809,355.85898 155.92638,352.51181 151.66093,348.45855 C 149.55182,346.45436 146.93947,343.09629 145.85571,340.99618 C 144.77195,338.89606 143.6224,334.95856 143.30115,332.24618 L 142.71708,327.31457 L 152.60637,327.31813 L 162.49566,327.32168 L 164.99566,332.56813 C 166.974,336.71983 168.42669,338.28406 171.95755,340.06457 C 175.18628,341.69272 178.17315,342.31457 182.76474,342.31457 C 191.92077,342.31457 197.54513,340.63871 200.60888,336.99766 C 202.65625,334.5645 203.07955,333.21891 202.64331,330.53066 C 202.34034,328.66366 201.50818,326.42813 200.79406,325.56282 C 200.07995,324.69752 197.6301,323.16237 195.34996,322.15139 C 193.06982,321.14041 185.33307,318.98034 178.15718,317.35124 C 170.98128,315.72213 163.39685,313.67661 161.30288,312.80563 C 154.76547,310.08642 150.36698,306.4128 147.63199,301.38772 C 145.53293,297.53106 144.99566,295.18776 144.99566,289.8894 C 144.99566,285.30408 145.58907,282.08124 146.90408,279.52473 C 147.95371,277.48414 150.09121,274.62658 151.65408,273.17459 C 153.21695,271.7226 156.45587,269.55161 158.85168,268.35018 C 164.31354,265.6112 174.77182,263.35463 182.10918,263.33193 C 185.19661,263.32238 190.11369,263.76801 193.03602,264.32222 C 195.95835,264.87643 200.63227,266.39411 203.42251,267.69484 C 206.21275,268.99558 210.02639,271.57963 211.89726,273.43719 C 215.63171,277.14505 219.97055,285.52776 219.9859,289.06457 L 219.99567,291.31457 L 209.74567,291.31187 L 199.49567,291.30917 L 197.49567,287.56187 C 196.25093,285.22967 193.98515,283.06267 191.49567,281.82348 C 188.65733,280.41063 185.60797,279.85579 180.99567,279.91297 C 177.42067,279.95729 172.80917,280.7174 170.7479,281.6021 C 168.68663,282.4868 166.49201,284.32585 165.87098,285.68887 C 165.24995,287.05189 165.02501,289.29539 165.37113,290.67443 C 165.71725,292.05348 167.35891,294.1491 169.01927,295.33138 C 170.67962,296.51366 176.86606,298.61415 182.76689,299.99914 C 201.22423,304.33129 209.65185,307.17281 214.18582,310.5926 C 216.55624,312.3805 219.50817,315.84471 220.74567,318.29084 C 222.40339,321.5676 222.99567,324.47803 222.99567,329.34714 C 222.99567,334.57554 222.42127,337.08854 220.24567,341.37839 C 218.59618,344.63084 215.80781,348.0706 213.27798,349.97376 C 210.95825,351.71888 206.45825,354.16798 203.27798,355.41622 C 198.50296,357.2904 195.23104,357.73121 184.49567,357.94668 C 177.34567,358.0902 169.80117,357.78726 167.73013,357.27349 z" id="path2325"/>
  <path style="font-weight:bold;fill:#8a8a8e;fill-opacity:1" d="M 316.1875 263.5 C 309.9342 263.51227 303.54708 264.80592 298.25 267.28125 C 294.80781 268.88979 289.49808 272.57249 286.46875 275.4375 C 283.17267 278.5548 279.75866 283.07462 277.96875 286.71875 C 276.32368 290.06795 274.27925 296.18749 273.40625 300.3125 C 272.30622 305.51008 271.98023 310.18849 272.40625 315.53125 C 272.74435 319.77146 273.9234 326.07688 275 329.5625 C 276.0766 333.04811 278.666 338.36075 280.75 341.34375 C 282.834 344.32674 286.7591 348.4736 289.5 350.5625 C 292.24089 352.65139 297.2 355.22548 300.5 356.3125 C 305.32316 357.90127 308.76901 358.25941 318.03125 358.0625 L 329.53125 357.8125 L 336.25 354.53125 C 339.93264 352.71797 344.95044 349.20584 347.40625 346.75 C 351.97035 342.18591 357 333.07428 357 329.375 L 357 327.3125 L 347.75 327.34375 L 338.5 327.375 L 335.5 332.53125 C 333.47323 336.00684 331.21988 338.34102 328.53125 339.71875 C 323.69873 342.19506 313.58608 342.99106 308.5 341.3125 C 306.47342 340.64367 303.25398 338.73971 301.34375 337.0625 C 299.43352 335.3853 296.97298 332.24595 295.875 330.09375 C 294.77704 327.94156 293.63376 323.96237 293.3125 321.25 L 292.71875 316.3125 L 325.84375 316.3125 L 359 316.3125 L 359 309.53125 C 359 305.7968 358.32042 300.14979 357.5 297 C 356.67958 293.8502 354.83211 288.97004 353.40625 286.15625 C 351.98039 283.34246 348.84213 278.91665 346.40625 276.3125 C 343.97038 273.70835 339.3741 270.22966 336.21875 268.5625 C 333.0634 266.89534 327.79553 264.95352 324.5 264.28125 C 321.82721 263.73602 319.02991 263.49442 316.1875 263.5 z M 316.25 279.625 C 317.71264 279.61596 319.08235 279.81178 320.59375 280.21875 C 322.84519 280.82499 326.20905 282.34471 328.0625 283.59375 C 329.91596 284.84279 332.67672 287.87912 334.1875 290.34375 C 335.69826 292.80838 337.22962 296.72499 337.59375 299.0625 L 338.25 303.3125 L 315.625 303.3125 L 293 303.3125 L 293 300.5 C 293 298.95799 294.17569 295.3146 295.625 292.40625 C 297.19619 289.25327 299.87021 285.98252 302.21875 284.28125 C 304.38507 282.71197 308.46264 280.88778 311.3125 280.25 C 313.22564 279.82186 314.78736 279.63404 316.25 279.625 z " id="path2323"/>
  <path style="font-weight:bold;fill:#8a8a8e;fill-opacity:1" d="M 476.67566,356.40305 C 473.47465,355.34959 469.12356,353.34144 467.00657,351.94048 C 462.59596,349.02168 458.69168,344.24691 456.63849,339.26074 C 455.85801,337.36535 454.90453,333.90207 454.51965,331.56457 L 453.81987,327.31457 L 464.29648,327.31457 L 474.77309,327.31457 L 475.39478,330.62849 C 475.74412,332.49061 477.43571,335.27945 479.25607,336.99438 C 481.03785,338.67297 484.02532,340.5567 485.89489,341.18046 C 490.18387,342.61143 500.29984,342.63545 505.3734,341.22672 C 507.50614,340.63454 510.31864,339.08251 511.6234,337.77775 C 513.29998,336.10117 513.99567,334.27397 513.99567,331.54712 C 513.99567,328.64065 513.31722,327.04151 511.24567,325.06528 C 509.73317,323.62237 507.26036,321.97515 505.75053,321.40479 C 504.2407,320.83443 496.8157,318.95854 489.25053,317.23616 C 481.68536,315.51378 473.14509,312.99977 470.27216,311.64947 C 467.39923,310.29918 463.48088,307.36281 461.56472,305.12421 C 457.43097,300.29485 455.40413,292.74492 456.42099,285.96398 C 456.80519,283.402 458.52245,279.25956 460.30283,276.60012 C 462.71821,272.99212 465.07842,271.03083 469.99567,268.54553 C 474.66235,266.18687 478.98538,264.93162 485.32289,264.09506 C 492.00737,263.2127 496.06852,263.20947 502.05319,264.08174 C 506.56153,264.73884 512.35652,266.40892 515.54416,267.96975 C 518.61751,269.47462 522.44861,272.20535 524.05773,274.03803 C 527.54492,278.00972 530.48743,283.59068 531.45309,288.06457 L 532.15458,291.31457 L 521.18353,291.31457 L 510.21249,291.31457 L 509.62434,288.97119 C 509.30085,287.68233 507.86489,285.45652 506.43331,284.02494 C 504.76344,282.35507 501.82963,281.0067 498.24863,280.26328 C 494.10165,279.40237 491.24629,279.38979 487.1406,280.21433 C 484.10117,280.82474 480.57516,282.30044 479.30502,283.49368 C 476.25706,286.35709 476.22936,291.26797 479.24567,294.01529 C 480.48317,295.14244 482.4848,296.5742 483.69374,297.197 C 484.90268,297.81979 492.10268,299.71401 499.69374,301.40638 C 507.2848,303.09874 516.08203,305.63136 519.24315,307.03442 C 522.54746,308.50104 526.66527,311.40221 528.9302,313.85937 C 531.20011,316.32193 533.36693,319.97294 534.04282,322.47393 C 534.688,324.86128 534.97977,329.11965 534.6912,331.93697 C 534.40262,334.75428 533.24689,338.86198 532.1229,341.06518 C 530.99891,343.26838 528.04891,346.85821 525.56733,349.04258 C 523.08576,351.22694 518.45444,354.05134 515.27552,355.31902 C 510.4723,357.23443 507.21456,357.68256 495.99567,357.97115 C 484.73894,358.26071 481.52857,358.00015 476.67566,356.40305 z" id="path2319"/>
  <path style="font-weight:bold;fill:#8a8a8e;fill-opacity:1" d="M 249.63884,356.20755 C 247.51759,355.70919 244.43726,354.51689 242.79367,353.558 C 241.15008,352.59911 238.83565,350.01457 237.6505,347.81457 L 235.49567,343.81457 L 235.18137,312.56457 L 234.86706,281.31457 L 227.43137,281.31457 L 219.99567,281.31457 L 219.99567,273.81457 L 219.99567,266.31457 L 227.49567,266.31457 L 234.99567,266.31457 L 234.99567,252.81457 L 234.99567,239.31457 L 244.96664,239.31457 L 254.93762,239.31457 L 255.21664,252.56457 L 255.49567,265.81457 L 264.24567,266.1035 L 272.99567,266.39244 L 272.99567,273.8535 L 272.99567,281.31457 L 263.91215,281.31457 L 254.82863,281.31457 L 255.16215,308.78807 L 255.49567,336.26157 L 257.77592,338.53807 C 259.68352,340.44254 261.11347,340.81143 266.52592,340.79536 L 272.99567,340.77616 L 272.99567,348.40944 L 272.99567,356.04272 L 268.3561,356.67865 C 262.20569,357.52165 254.39552,357.32508 249.63884,356.20755 z" id="path2317"/>
  <path style="font-weight:bold;fill:#8a8a8e;fill-opacity:1" d="M 94.46875 231.65625 C 92.838885 231.68117 89.899932 231.77945 84.5 231.78125 L 72.75 231.8125 L 50.875 288.8125 C 38.841523 320.1625 28.095787 348.18881 27 351.09375 L 25 356.375 L 36.6875 356.09375 L 48.40625 355.8125 L 54.09375 339.8125 L 59.78125 323.8125 L 84.28125 323.5625 L 108.78125 323.28125 L 112.9375 335.0625 C 115.22928 341.53448 117.85835 348.94999 118.78125 351.5625 L 120.46875 356.3125 L 132.34375 356.3125 C 145.1154 356.22819 144.86246 357.25399 143.75 354.5625 C 142.61989 351.82829 97.925109 235.16747 96.9375 233.1875 C 96.244676 231.79852 97.185192 231.61471 94.46875 231.65625 z M 84.40625 254.59375 C 84.586045 254.41395 86.184756 258.42692 87.96875 263.53125 C 89.752741 268.63559 93.850252 280.34999 97.0625 289.5625 L 102.90625 306.3125 L 84.5 306.3125 L 66.125 306.3125 L 68.96875 298.0625 C 75.065308 280.32667 84.095819 254.90417 84.40625 254.59375 z " id="path2315"/>
  <path style="font-weight:bold;fill:#8a8a8e;fill-opacity:1" d="M 367.99567,311.31457 L 367.99567,266.31457 L 377.49567,266.31457 L 386.99567,266.31457 L 386.99567,273.92758 L 386.99567,281.5406 L 390.24567,276.67758 C 392.03317,274.00293 395.67487,270.35819 398.33833,268.57816 C 401.0018,266.79814 404.96288,264.86194 407.14073,264.27551 C 409.31858,263.68908 413.21438,263.34546 415.79806,263.51192 L 420.49567,263.81457 L 420.78127,273.51412 L 421.06688,283.21367 L 414.21372,283.08659 C 408.93882,282.98878 406.27595,283.48457 402.65093,285.23941 C 400.06063,286.49335 396.7954,289.02165 395.39486,290.85785 C 393.99432,292.69406 391.90215,296.58549 390.74559,299.50549 C 388.8501,304.2911 388.60011,307.3535 388.21021,330.56457 L 387.77767,356.31457 L 377.88667,356.31457 L 367.99567,356.31457 L 367.99567,311.31457 z" id="path2311"/>
  <path style="font-weight:bold;fill:#8a8a8e;fill-opacity:1" d="M 425.99567,311.31457 L 425.99567,266.31457 L 436.49567,266.31457 L 446.99567,266.31457 L 446.99567,311.31457 L 446.99567,356.31457 L 436.49567,356.31457 L 425.99567,356.31457 L 425.99567,311.31457 z" id="path2309"/>
  <path style="font-weight:bold;fill:#8a8a8e;fill-opacity:1" d="M 541.2381,294.06457 L 541.49567,231.81457 L 551.49567,231.81457 L 561.49567,231.81457 L 561.75881,266.72024 L 562.02194,301.62591 L 579.09803,283.97024 L 596.17412,266.31457 L 608.8349,266.36646 L 621.49567,266.41834 L 604.56519,282.83799 L 587.63471,299.25764 L 606.31519,327.28319 C 616.58945,342.69724 624.99567,355.53505 624.99567,355.81165 C 624.99567,356.08826 627.48941,356.31457 612.73788,356.31457 L 600.48009,356.31457 L 587.48788,335.67304 C 580.34216,324.3202 574.17424,314.5327 573.78138,313.92304 C 573.33208,313.22579 571.01345,314.84229 567.53138,318.28041 L 561.99567,323.74625 L 561.99567,340.03041 L 561.99567,356.31457 L 551.4881,356.31457 L 540.98053,356.31457 L 541.2381,294.06457 z" id="path2307" sodipodi:nodetypes="cccccccccccccscccsccccccc"/>
  <path style="font-weight:bold;fill:#f68f1e;fill-opacity:1" d="M 262 25 C 245.99437 24.94241 234.50036 26.596579 221.59375 30.8125 C 217.24933 32.23159 210.3021 34.959499 206.15625 36.875 C 202.0104 38.79051 194.32223 43.211252 189.0625 46.71875 C 183.80277 50.22624 175.80328 56.32871 171.28125 60.25 C 166.75923 64.17128 159.85873 71.071733 155.9375 75.59375 C 152.01626 80.11577 146.497 87.29232 143.6875 91.53125 C 140.87801 95.77017 138.41887 99.075123 138.21875 98.875 C 137.39096 98.04721 145.07975 83.217898 150.4375 75.3125 L 156.1875 66.8125 L 150 72.8125 C 146.60103 76.1125 140.55271 83.159386 136.53125 88.46875 C 132.50977 93.77811 127.15582 101.87811 124.65625 106.46875 C 122.15667 111.05939 118.62185 119.0875 116.8125 124.3125 L 113.53125 133.8125 L 113.53125 150.8125 L 113.53125 167.8125 L 116.25 175.8125 C 117.7371 180.2125 120.64218 186.72951 122.71875 190.28125 C 124.79533 193.83299 129.61289 200.00898 133.40625 204.03125 C 137.19962 208.05352 143.27463 213.33827 146.90625 215.75 C 157.74112 222.94534 168.71241 227.25624 182.5 229.71875 C 186.9 230.5046 196.0706 231.16941 202.875 231.21875 C 209.67942 231.26811 219.97082 230.60814 225.75 229.75 C 231.5292 228.89187 241.52844 226.66621 247.96875 224.8125 C 254.40907 222.95878 264.31804 219.40688 270 216.90625 L 280.34375 212.375 L 286.90625 214.34375 C 294.36764 216.60209 328.34012 224.30647 328.8125 223.84375 C 328.98251 223.67722 325.11754 215.50915 320.21875 205.6875 L 311.3125 187.8125 L 319.21875 178.3125 C 323.58172 173.0875 329.66767 165.0254 332.71875 160.40625 C 335.76983 155.7871 340.41746 147.4621 343.0625 141.90625 C 345.70753 136.3504 348.79855 128.4375 349.9375 124.3125 C 351.07644 120.1875 352.4778 112.85501 353.03125 108 C 353.7258 101.90722 353.71036 96.486104 352.96875 90.5 C 352.37779 85.73001 350.83113 78.743447 349.53125 75 C 348.23138 71.25656 345.19435 64.731211 342.8125 60.5 C 337.35826 50.81087 325.75281 38.99994 317.34375 34.5625 C 313.96676 32.78048 310.91615 31.3125 310.53125 31.3125 C 310.14635 31.3125 312.10159 33.12681 314.90625 35.34375 C 320.53402 39.79225 327.47643 48.161131 330.90625 54.625 L 333.15625 58.8125 L 330.90625 55.8125 C 329.67545 54.1625 325.26555 49.388101 321.09375 45.21875 C 315.30912 39.43751 311.48237 36.642878 305 33.4375 C 299.47239 30.70423 293.00306 28.51993 286.5 27.15625 C 279.11155 25.60689 272.71326 25.03854 262 25 z M 261.5 36.0625 C 272.45722 36.07973 277.17969 36.560579 283.28125 38.1875 C 287.569 39.33078 294.09399 41.686451 297.78125 43.4375 C 302.52878 45.69209 306.71574 48.84001 312.09375 54.21875 C 317.92545 60.05126 320.63885 63.785378 323.84375 70.3125 C 326.13924 74.9875 328.69446 81.962498 329.5 85.8125 C 330.30554 89.6625 330.95921 96.254635 330.96875 100.46875 C 330.99878 113.72194 327.30234 128.65725 320.46875 142.8125 C 318.61011 146.6625 315.16553 152.73749 312.8125 156.3125 C 310.45947 159.8875 305.02276 166.4477 300.75 170.90625 C 296.47724 175.36479 293 179.30099 293 179.625 C 293 179.949 296.6 185.70974 301 192.4375 C 305.4 199.16526 309 205.0478 309 205.5 C 309 205.95219 308.7663 206.31249 308.46875 206.3125 C 308.17121 206.3125 301.48253 203.83749 293.625 200.8125 C 285.76747 197.7875 278.18275 195.31249 276.78125 195.3125 C 275.37976 195.3125 271.83095 196.38245 268.875 197.6875 C 259.11754 201.99541 240.92232 207.36689 231.125 208.84375 C 225.82117 209.64325 217.9 210.25132 213.5 210.1875 C 197.61589 209.95709 185.67368 207.20701 172 200.625 C 163.98971 196.76914 161.15437 194.70341 153.90625 187.4375 C 147.35143 180.86661 144.431 177.0315 141.65625 171.3125 C 139.65487 167.1875 137.33326 161.1218 136.5 157.84375 C 134.3523 149.39475 134.55596 135.32474 136.96875 125.71875 C 138.06149 121.36828 141.22831 113.21654 144 107.59375 C 146.77168 101.97095 151.70472 93.831702 154.96875 89.5 C 158.23279 85.1683 164.96259 77.767026 169.90625 73.0625 C 179.50862 63.92461 191.15144 55.695091 202.5 50.03125 C 212.32198 45.12928 225.37648 40.690199 237.3125 38.1875 C 244.968 36.58232 250.9805 36.045949 261.5 36.0625 z " id="path2303"/>
  <path style="font-weight:bold;fill:#f68f1e;fill-opacity:1" d="M 219.8284,163.27996 L 220.23782,144.24534 L 204.00777,154.33765 C 195.08124,159.88841 187.6466,164.29149 187.48635,164.12226 C 186.65136,163.2405 173.99847,141.71986 173.99718,141.17924 C 173.99635,140.82981 181.41826,136.32981 190.49032,131.17924 C 199.56238,126.02867 206.98497,121.58957 206.98497,121.31457 C 206.98497,121.03957 199.56238,116.60047 190.49032,111.4499 C 181.41826,106.29933 173.99635,101.79933 173.99718,101.4499 C 173.99846,100.91376 186.64615,79.395253 187.47615,78.517083 C 187.63079,78.353463 194.41098,82.558873 202.54322,87.862453 C 210.67547,93.166023 217.98474,97.756893 218.78605,98.064383 C 220.03935,98.545313 220.18539,95.946363 219.83098,79.469013 L 219.41899,60.314573 L 233.35593,60.314573 L 247.29287,60.314573 L 246.58295,79.847323 L 245.87303,99.380073 L 252.68435,95.000153 C 256.43058,92.591203 263.32067,88.159633 267.99567,85.152213 C 272.67067,82.144803 277.02894,79.367533 277.68072,78.980513 C 278.45417,78.521233 281.30724,82.347853 285.89515,89.997943 C 289.76131,96.444553 292.82804,101.79295 292.7101,101.88328 C 292.59216,101.97361 285.97067,105.75709 277.99567,110.29102 C 270.02067,114.82495 262.42774,119.20673 261.1225,120.02831 L 258.74933,121.52209 L 274.6225,130.4943 C 283.35274,135.42903 291.0478,139.78192 291.72263,140.16741 C 292.58651,140.66088 290.8682,144.33891 285.91606,152.59634 C 279.96355,162.52182 278.61682,164.18219 277.15382,163.39921 C 276.20303,162.89036 269.36599,158.70435 261.96039,154.09696 C 254.5548,149.48957 247.9009,145.35719 247.17397,144.91389 C 246.08678,144.25092 245.97955,147.49757 246.56961,163.21124 L 247.28695,182.31457 L 233.35297,182.31457 L 219.41899,182.31457 L 219.8284,163.27996 z" id="path2299"/>
  <path style="font-weight:bold;fill:#ffffff;fill-opacity:1" d="M 137.99566,100.81457 C 137.99566,100.53957 137.77066,100.31457 137.49566,100.31457 C 137.22066,100.31457 136.99566,100.53957 136.99566,100.81457 C 136.99566,101.08957 137.22066,101.31457 137.49566,101.31457 C 137.77066,101.31457 137.99566,101.08957 137.99566,100.81457 z" id="path2279"/>
  <path transform="matrix(0.8378433,0,0,1.0237963,166.49612,-94.224758)" style="font-size:14px;font-style:normal;font-weight:bold;fill:#8a8a8e;fill-opacity:1;stroke:none;stroke-width:1px;stroke-linecap:butt;stroke-linejoin:miter;stroke-opacity:1;font-family:'Arial Black'" d="M 520.66504,340.23956 L 530.07813,340.23956 L 530.07813,342.71417 L 526.91992,342.71417 L 526.91992,350.26104 L 523.82324,350.26104 L 523.82324,342.71417 L 520.66504,342.71417 L 520.66504,340.23956 z M 531.45215,340.23956 L 535.52637,340.23956 L 537.09863,346.33721 L 538.66406,340.23956 L 542.72461,340.23956 L 542.72461,350.26104 L 540.19531,350.26104 L 540.19531,342.61846 L 538.2334,350.26104 L 535.94336,350.26104 L 533.98828,342.61846 L 533.98828,350.26104 L 531.45215,350.26104 L 531.45215,340.23956 z" id="flowRoot2289"/>
  <path style="fill:#f68f1e;fill-opacity:1;fill-rule:evenodd;stroke:#f68f1e;stroke-width:1px;stroke-linecap:butt;stroke-linejoin:miter;stroke-opacity:1" d="M 116.28481,174.20566 C 112.75561,164.77788 111.50448,158.65517 111.4585,149.58342 C 111.44666,140.6521 113.01175,137.00498 117.15103,125.01466 L 116.28481,174.20566 z" id="path2329" sodipodi:nodetypes="ccc"/>
  <path style="opacity:1;fill:#f68f1e;fill-opacity:1;fill-rule:evenodd;stroke:none;stroke-width:202;stroke-linecap:round;stroke-linejoin:round;stroke-miterlimit:4;stroke-dasharray:none;stroke-opacity:0.5532646" d="M 113.24616,162.29055 C 111.86873,155.81315 111.61611,147.14317 112.64098,141.52062 C 112.75509,140.8946 112.98975,139.81328 113.16244,139.1177 L 113.47641,137.853 L 113.49802,144.23973 C 113.50991,147.75242 113.50991,153.4945 113.49802,156.9999 L 113.47641,163.37334 L 113.24616,162.29055 z" id="path2339"/>
</svg>