<?xml version="1.0" encoding="UTF-8" standalone="no"?>
<!-- Created with Inkscape (http://www.inkscape.org/) -->
<svg xmlns:dc="http://purl.org/dc/elements/1.1/" xmlns:cc="http://web.resource.org/cc/" xmlns:rdf="http://www.w3.org/1999/02/22-rdf-syntax-ns#" xmlns:svg="http://www.w3.org/2000/svg" xmlns="http://www.w3.org/2000/svg" xmlns:xlink="http://www.w3.org/1999/xlink" xmlns:sodipodi="http://sodipodi.sourceforge.net/DTD/sodipodi-0.dtd" xmlns:inkscape="http://www.inkscape.org/namespaces/inkscape" width="480" height="120" id="svg2" sodipodi:version="0.32" inkscape:version="0.45" version="1.0" sodipodi:docname="centos_full.svg" sodipodi:docbase="/home/nicu/Desktop/centos" inkscape:output_extension="org.inkscape.output.svg.inkscape" sodipodi:modified="true">
  <defs id="defs4">
    <filter inkscape:collect="always" id="filter5604">
      <feGaussianBlur inkscape:collect="always" stdDeviation="1.3299247" id="feGaussianBlur5606"/>
    </filter>
    <filter inkscape:collect="always" id="filter6616">
      <feGaussianBlur inkscape:collect="always" stdDeviation="2.1917567" id="feGaussianBlur6618"/>
    </filter>
    <filter inkscape:collect="always" id="filter8783">
      <feGaussianBlur inkscape:collect="always" stdDeviation="1.4034901" id="feGaussianBlur8785"/>
    </filter>
    <filter id="filter6465" inkscape:collect="always">
      <feGaussianBlur id="feGaussianBlur6467" stdDeviation="2.4728125" inkscape:collect="always"/>
    </filter>
    <linearGradient id="linearGradient4348">
      <stop id="stop4350" offset="0" style="stop-color:#ffffff;stop-opacity:0.42662117;"/>
      <stop id="stop4352" offset="1" style="stop-color:#ffffff;stop-opacity:0;"/>
    </linearGradient>
    <linearGradient inkscape:collect="always" xlink:href="#linearGradient4348" id="linearGradient2454" gradientUnits="userSpaceOnUse" gradientTransform="translate(-217.00012,-217)" x1="91.292969" y1="21.437487" x2="154.29752" y2="93.06443"/>
    <linearGradient inkscape:collect="always" xlink:href="#linearGradient4348" id="linearGradient2456" gradientUnits="userSpaceOnUse" gradientTransform="translate(-217.00012,-217)" x1="19.91527" y1="97.233208" x2="91.320808" y2="159.13304"/>
    <linearGradient inkscape:collect="always" xlink:href="#linearGradient4348" id="linearGradient2458" gradientUnits="userSpaceOnUse" gradientTransform="translate(-217.00012,-217)" x1="88.662895" y1="156.82332" x2="154.89615" y2="228.45026"/>
    <linearGradient inkscape:collect="always" xlink:href="#linearGradient4348" id="linearGradient2460" gradientUnits="userSpaceOnUse" gradientTransform="translate(-217.00012,-217)" x1="157.80753" y1="93.264984" x2="230.11945" y2="157.81766"/>
    <linearGradient inkscape:collect="always" xlink:href="#linearGradient4348" id="linearGradient2462" gradientUnits="userSpaceOnUse" gradientTransform="translate(-217.00012,-217)" x1="39.53125" y1="39.28125" x2="109.71287" y2="109.30125"/>
    <linearGradient inkscape:collect="always" xlink:href="#linearGradient4348" id="linearGradient2464" gradientUnits="userSpaceOnUse" gradientTransform="translate(-217.00012,-217)" x1="39.53125" y1="137.53125" x2="113.46875" y2="211.46875"/>
    <linearGradient inkscape:collect="always" xlink:href="#linearGradient4348" id="linearGradient2466" gradientUnits="userSpaceOnUse" gradientTransform="translate(-217.00012,-217)" x1="137.96875" y1="137.53125" x2="209.72679" y2="211.46875"/>
    <linearGradient inkscape:collect="always" xlink:href="#linearGradient4348" id="linearGradient2468" gradientUnits="userSpaceOnUse" gradientTransform="translate(-217.00012,-217)" x1="141.94803" y1="42.870628" x2="204.4211" y2="113"/>
    <radialGradient inkscape:collect="always" xlink:href="#linearGradient4348" id="radialGradient2470" gradientUnits="userSpaceOnUse" gradientTransform="matrix(0.7091967,5.2476561e-3,-3.1729646e-3,0.4288265,-180.21742,-146.44042)" cx="125.12608" cy="124.68383" fx="125.12608" fy="124.68383" r="117.84375"/>
  </defs>
  <sodipodi:namedview id="base" pagecolor="#ffffff" bordercolor="#666666" borderopacity="1.0" gridtolerance="10000" guidetolerance="10" objecttolerance="10" inkscape:pageopacity="0.0" inkscape:pageshadow="2" inkscape:zoom="1" inkscape:cx="240" inkscape:cy="60" inkscape:document-units="px" inkscape:current-layer="layer1" showguides="true" inkscape:guide-bbox="true" width="480px" height="120px" inkscape:window-width="1152" inkscape:window-height="791" inkscape:window-x="0" inkscape:window-y="24"/>
  <metadata id="metadata7">
    <rdf:RDF>
      <cc:Work rdf:about="">
        <dc:format>image/svg+xml</dc:format>
        <dc:type rdf:resource="http://purl.org/dc/dcmitype/StillImage"/>
      </cc:Work>
    </rdf:RDF>
  </metadata>
  <g inkscape:label="Layer 1" inkscape:groupmode="layer" id="layer1">
    <path style="fill:#000000;fill-opacity:0.61325965;filter:url(#filter8783)" d="M 54.551998,14.62199 L 54.020748,15.18449 L 41.895749,27.27824 L 21.20825,27.27824 L 20.427,27.27824 L 20.427,28.05949 L 20.427,48.74699 L 8.239501,60.96574 L 7.677001,61.49699 L 8.239501,62.05949 L 20.427,74.21574 L 20.427,94.84074 L 20.427,95.62199 L 21.20825,95.62199 L 41.739499,95.62199 L 53.958248,107.80949 L 54.489498,108.37199 L 55.051998,107.80949 L 67.239498,95.62199 L 88.083251,95.62199 L 88.864501,95.62199 L 88.864501,94.84074 L 88.864501,74.05949 L 100.89574,62.05949 L 101.45824,61.49699 L 100.89574,60.96574 L 88.864501,48.93449 L 88.864501,27.96574 L 88.864501,27.18449 L 88.083251,27.18449 L 67.145748,27.18449 L 55.114498,15.18449 L 54.551998,14.62199 z M 364.86448,23.68449 C 357.00708,23.7458 354.92925,24.18038 350.83323,26.02824 C 339.43557,31.17007 334.02873,42.70302 334.86448,60.05949 C 335.25771,68.22557 335.8206,70.84209 338.36448,76.27824 C 341.82438,83.67187 346.08096,87.46228 353.95823,90.18449 C 357.56644,91.4314 362.18375,91.97419 369.33323,91.99699 C 390.31286,92.06388 399.88642,84.27673 402.45823,65.05949 C 403.54173,56.96324 402.42111,45.16715 400.05198,39.49699 C 397.93291,34.42534 391.93158,28.56599 386.30198,26.05949 C 381.74358,24.02993 379.48512,23.71229 368.61448,23.68449 C 367.23272,23.68095 365.98697,23.67573 364.86448,23.68449 z M 157.64574,24.15324 C 139.17725,24.15324 133.73329,25.2586 127.73949,30.21574 C 122.6677,34.41035 119.49949,41.02901 118.08324,50.37199 C 116.73697,59.25348 117.41736,67.23941 120.20824,74.77824 C 122.50996,80.9958 130.07756,88.33711 135.73949,89.84074 C 137.80014,90.38798 147.23721,90.87773 156.70824,90.93449 L 173.92699,91.02824 L 173.92699,85.52824 L 173.92699,80.05949 L 161.39574,80.05949 C 146.78249,80.05949 141.19365,78.88909 137.61449,75.15324 C 134.33943,71.73482 132.55331,62.9086 133.42699,54.27824 C 134.32809,45.37704 136.51986,40.60494 140.86449,37.90324 C 144.1381,35.86754 145.97599,35.58478 159.20824,35.27824 L 173.92699,34.93449 L 173.92699,29.55949 L 173.92699,24.15324 L 157.64574,24.15324 z M 301.86448,24.15324 L 301.98948,41.93449 L 292.23948,42.12199 L 292.58323,47.05949 L 292.92698,51.99699 L 301.48948,51.96574 L 301.70823,68.05949 C 302.82505,93.73284 306.71541,90.94676 328.77073,91.02824 L 328.55198,81.27824 L 323.05198,81.24699 C 315.04336,80.78194 314.26221,79.38921 313.86448,64.52824 L 313.55198,52.18449 L 328.17698,51.59074 L 328.48948,46.90324 L 328.77073,42.21574 L 314.20823,41.62199 L 313.61448,24.15324 L 307.73948,24.15324 L 301.86448,24.15324 z M 449.64572,24.15324 C 423.72789,24.15324 419.26438,24.98602 414.98948,30.59074 C 410.61472,36.32635 409.69255,47.4846 413.05198,54.09074 C 416.74768,61.35811 421.83765,63.09788 441.80197,63.93449 C 455.97953,64.52859 457.79458,64.81388 459.11447,66.59074 C 460.94603,70.17556 460.03961,74.33534 458.95822,78.02824 L 454.95822,79.05949 C 441.21843,80.53771 427.30408,79.20033 413.52073,79.55949 L 413.52073,91.15324 L 438.73947,90.84074 C 463.19273,90.5382 464.04644,90.46111 467.70822,88.18449 C 473.53845,84.55972 475.69771,79.36832 475.27072,69.96574 C 474.85511,60.81363 473.12941,57.7655 466.42697,54.34074 C 462.47773,52.32277 460.58946,52.09073 447.83322,52.09074 C 434.07773,52.09074 428.84015,51.24645 427.27073,48.77824 C 426.85618,48.12628 426.52913,45.95355 426.52073,43.93449 C 426.50911,41.14686 427.14839,39.75557 429.14573,38.18449 C 431.61115,36.2452 433.02773,36.12196 452.08322,36.12199 L 472.42697,36.12199 L 472.42697,24.15324 L 449.64572,24.15324 z M 367.39573,34.34074 C 372.45494,34.13681 378.37908,35.64956 380.95823,37.93449 C 386.45741,42.80636 388.87716,56.3977 386.14573,67.05949 C 384.2409,74.49477 380.94572,78.58715 375.64573,80.05949 C 360.29369,84.3243 350.64573,75.67191 350.64573,57.65324 C 350.64573,43.99347 355.71962,35.99648 365.30198,34.55949 C 365.9768,34.45829 366.67299,34.36987 367.39573,34.34074 z M 260.48949,42.05949 C 258.57899,42.06304 256.43668,42.08002 254.05199,42.15324 L 236.83324,42.12199 L 236.83324,66.55949 L 236.83324,91.02824 L 243.80199,91.02824 L 250.77074,91.02824 L 251.02074,71.84074 L 251.30199,52.62199 L 259.30199,52.90324 C 270.87789,53.32613 270.77072,53.14524 270.77073,74.15324 L 270.77073,91.02824 L 276.83323,91.02824 L 282.86448,91.02824 L 282.55198,71.12199 C 282.26825,52.77923 282.86533,51.79628 280.17698,48.43449 C 276.46433,43.79187 273.86301,42.03461 260.48949,42.05949 z M 209.83324,42.12199 C 202.72554,42.22561 198.49011,42.72529 195.58324,43.71574 C 177.4129,49.907 177.2731,83.17312 195.39574,89.52824 C 198.01633,90.44721 203.93375,90.96826 212.61449,90.99699 L 225.86449,91.02824 L 225.86449,86.02824 L 225.86449,81.05949 L 213.83324,81.05949 C 202.39748,81.05949 201.69478,80.92103 199.36449,78.59074 C 198.01683,77.24309 196.89573,75.21378 196.89574,74.09074 C 196.89574,72.12725 197.45793,72.05951 211.42699,72.05949 L 225.95824,72.05949 L 225.64574,66.80949 L 225.36449,61.59074 L 211.58324,61.43449 C 204.00207,61.35693 197.51689,61.05562 197.20824,60.74699 C 196.8996,60.43834 196.95358,59.0414 197.30199,57.65324 C 198.36729,53.4088 202.50798,52.09073 214.83324,52.09074 L 225.86449,52.09074 L 225.86449,47.09074 L 225.86449,42.12199 L 213.05199,42.12199 C 211.9147,42.12199 210.84863,42.10719 209.83324,42.12199 z M 57.739498,55.43449 L 57.739498,57.49699 L 57.739498,58.27824 L 58.520748,58.27824 L 60.676998,58.27824 L 57.989498,60.96574 L 57.458248,61.49699 L 57.989498,62.05949 L 60.426998,64.49699 L 58.520748,64.49699 L 57.739498,64.49699 L 57.739498,65.27824 L 57.739498,67.74699 L 55.051998,65.05949 L 54.489498,64.52824 L 53.958248,65.05949 L 51.520748,67.49699 L 51.520748,65.27824 L 51.520748,64.49699 L 50.739498,64.49699 L 48.676999,64.49699 L 51.083248,62.09074 L 51.645748,61.52824 L 51.083248,60.99699 L 48.364499,58.27824 L 50.708248,58.27824 L 51.489498,58.27824 L 51.489498,57.49699 L 51.489498,55.52824 L 54.020748,58.05949 L 54.551998,58.62199 L 55.114498,58.05949 L 57.739498,55.43449 z " id="path7674"/>
    <g transform="translate(-16.131709,-648.56181)" id="g7665">
      <path sodipodi:nodetypes="cssssssssccssssccssscccccssscccccccscccccsscccccsscccccccccccscccccccccccccccccccccccccccccccccccsssccccsssssssccc" id="path2439" d="M 367.08285,735.74301 C 359.20558,733.02083 354.95989,729.23253 351.49999,721.8389 C 348.95611,716.40277 348.38932,713.77783 347.99609,705.61175 C 347.16033,688.25528 352.56468,676.74325 363.96234,671.60142 C 368.6435,669.4896 370.67085,669.22116 381.72491,669.24944 C 392.59555,669.27725 394.87731,669.58151 399.43571,671.61107 C 405.06532,674.11758 411.06177,679.98206 413.18084,685.05371 C 415.54997,690.72387 416.65362,702.54155 415.57012,710.6378 C 412.99831,729.85505 403.44251,737.62516 382.46288,737.55827 C 375.3134,737.53548 370.69106,736.98992 367.08285,735.74301 z M 388.76949,725.61247 C 394.06948,724.14014 397.3709,720.05844 399.27573,712.62316 C 402.00715,701.96137 399.58484,688.36649 394.08566,683.49462 C 391.13805,680.88328 383.81193,679.30171 378.41333,680.11128 C 368.83096,681.54825 363.75619,689.54338 363.75619,703.20315 C 363.75619,721.22179 373.41745,729.87728 388.76949,725.61247 z M 148.87714,735.39126 C 143.21521,733.8876 135.64325,726.54618 133.34153,720.32862 C 130.55065,712.78978 129.84929,704.81748 131.19556,695.93599 C 132.61181,686.59299 135.78806,679.96557 140.85985,675.77096 C 146.85365,670.81379 152.3052,669.70905 170.77369,669.70905 L 187.06382,669.70905 L 187.06382,675.10794 L 187.06382,680.50682 L 172.33946,680.84794 C 159.1072,681.1545 157.24595,681.41862 153.97234,683.45432 C 149.62771,686.15604 147.46531,690.93903 146.56421,699.84023 C 145.69053,708.47056 147.45138,717.3055 150.72644,720.72392 C 154.30561,724.45978 159.91523,725.61172 174.52848,725.61172 L 187.06382,725.61172 L 187.06382,731.10216 L 187.06382,736.5926 L 169.84381,736.48943 C 160.37279,736.43268 150.93779,735.9385 148.87714,735.39126 z M 208.52646,735.10472 C 190.40382,728.74961 190.53037,695.46148 208.70071,689.27022 C 212.02284,688.13826 217.07556,687.67777 226.17388,687.67777 L 238.97344,687.67777 L 238.97344,692.66908 L 238.97344,697.66039 L 227.943,697.66039 C 215.61774,697.66039 211.48285,698.97104 210.41755,703.21548 C 210.06914,704.60367 210.0366,705.99199 210.34524,706.30064 C 210.65389,706.60928 217.10919,706.92527 224.69036,707.00283 L 238.47431,707.14388 L 238.77605,712.38475 L 239.07778,717.62563 L 224.55081,717.62563 C 210.58176,717.62563 210.02385,717.70404 210.02385,719.66753 C 210.02385,720.79058 211.12648,722.81206 212.47414,724.15971 C 214.80443,726.49001 215.51318,726.60999 226.94894,726.60999 L 238.97344,726.60999 L 238.97344,731.60129 L 238.97344,736.5926 L 225.74647,736.54879 C 217.06573,736.52003 211.14705,736.02369 208.52646,735.10472 z M 201.53862,695.87269 L 201.53862,695.87269 z M 249.95432,712.13519 L 249.95432,687.67777 L 267.17435,687.72572 C 286.25184,687.13998 289.04739,688.68105 293.29042,693.9869 C 295.97878,697.34866 295.39927,698.3546 295.683,716.69736 L 295.99075,736.5926 L 289.943,736.5926 L 283.89524,736.5926 L 283.89524,719.73274 C 283.89524,698.72472 283.99114,698.90227 272.41523,698.47938 L 264.42913,698.18764 L 264.15801,717.39013 L 263.88688,736.5926 L 256.92062,736.5926 L 249.95432,736.5926 L 249.95432,712.13519 z M 314.84136,713.63258 L 314.59763,697.52101 L 306.04256,697.55466 L 305.70022,692.61559 L 305.35787,687.67653 L 315.09714,687.51347 L 314.98806,669.70905 L 320.86541,669.70905 L 326.74276,669.70905 L 327.31963,687.17864 L 341.90017,687.76737 L 341.59773,692.46432 L 341.2953,697.16126 L 326.6596,697.7511 L 326.98962,710.08241 C 327.38734,724.94336 328.15679,726.34618 336.16541,726.81123 L 341.6784,726.85371 L 341.90382,736.5926 C 319.84851,736.51111 315.95818,739.30593 314.84136,713.63258 z M 426.64571,725.11259 C 440.42906,724.75344 454.33477,726.08951 468.07456,724.61129 L 472.06761,723.59917 C 473.14901,719.90628 474.05627,715.7346 472.22471,712.14978 C 470.90483,710.37292 469.1163,710.09929 454.93874,709.50519 C 434.97441,708.66857 429.88183,706.92428 426.18613,699.65691 C 422.82669,693.05078 423.74608,681.87512 428.12084,676.13951 C 432.39574,670.5348 436.84411,669.70905 462.76195,669.70905 L 485.54415,669.70905 L 485.54415,681.6882 L 465.2144,681.6882 C 446.15891,681.6882 444.7198,681.81788 442.25438,683.75717 C 440.25705,685.32828 439.62776,686.70955 439.63938,689.49718 C 439.64779,691.51625 439.99384,693.70163 440.40839,694.35359 C 441.9778,696.82178 447.18469,697.66039 460.94019,697.66039 C 473.69642,697.66039 475.58494,697.88851 479.53418,699.90648 C 486.23661,703.33125 487.96813,706.39065 488.38374,715.54276 C 488.81074,724.94536 486.66367,730.12202 480.83344,733.74679 C 477.17165,736.02338 476.30607,736.10279 451.85281,736.40533 L 426.64669,736.7172 L 426.64571,725.11259 z " style="fill:#b091bc;fill-opacity:1"/>
      <path transform="matrix(0.4687502,0,0,0.4687502,224.03329,410.57793)" id="path4606" d="M 320.875,555.78125 C 303.25392,555.70548 284.47743,566.74346 277.09375,581.75 C 289.48331,567.50676 308.78127,560.30751 327.59371,561.99145 C 347.66594,561.53201 370.26035,560.17253 386.6875,573.71875 C 390.6594,576.26007 396.23744,582.22053 398.03125,583.78125 C 388.24819,566.37581 368.72628,555.18608 348.81394,555.92411 C 339.50204,555.71896 330.18324,556.0857 320.875,555.78125 z M 212.21875,556.25 C 207.64761,558.09401 202.16756,555.6199 197.8125,557.09375 C 198.11012,559.64761 196.86037,564.37249 201.09375,562.8125 C 205.39487,561.64191 214.13986,565.13454 215.75,561.125 C 215.77339,558.79246 215.38189,555.54539 212.21875,556.25 z M 552.625,556.25 C 537.10183,557.58842 521.01733,556.40581 505.28127,556.82961 C 485.3163,557.87703 464.08432,554.7317 445.375,562.59375 C 441.04175,564.85377 436.36975,571.35277 435.75,574 C 447.59115,562.50197 465.34508,564.43948 480.5,563.125 C 504.81445,562.16879 529.75997,563.31121 553.71875,562.78125 C 554.77356,561.33651 554.99836,556.33666 552.625,556.25 z M -85.90625,556.28125 C -109.23625,558.1626 -133.38309,554.77309 -156.50035,559.68418 C -169.09336,562.37654 -179.85999,570.98873 -185.75,582.34375 C -174.94019,569.64154 -158.12296,563.58944 -141.625,563.59375 C -121.99998,562.15711 -102.31032,563.0711 -82.65625,562.84375 C -82.461883,560.44354 -81.975721,555.4567 -85.90625,556.28125 z M 224.21875,600.21875 C 231.82292,600.53125 239.42708,600.84375 247.03125,601.15625 C 247.92467,598.1795 247.39948,593.10061 243,594.625 C 236.74455,595.31047 230.34114,594.21849 224.03125,594.25 C 224.09375,596.23958 224.15625,598.22917 224.21875,600.21875 z M 24.84375,594.625 C 4.7159712,596.86659 -17.198944,591.93061 -36.21875,600.40625 C -42.868127,603.24431 -49.213729,611.32389 -51.28125,616.09375 C -41.647367,605.23998 -26.910256,601.4372 -12.84873,601.54596 C 0.78676249,600.79839 14.446923,601.28708 28.09375,601.1875 C 28.303744,598.75916 28.749564,593.86939 24.84375,594.625 z M 177.625,595.09375 C 177.18484,598.02151 177.8843,603.318 182.09375,601.25 C 184.83077,600.93985 190.48723,602.84 190.5625,598.21875 C 192.19886,593.22776 186.55214,595.12787 183.47008,594.97998 C 181.52172,595.0179 179.57336,595.05583 177.625,595.09375 z M 99.8125,595.09375 C 86.299895,595.57405 72.030041,594.76215 59,595.4375 C 57.743236,599.08964 60.431111,603.04592 64.375,601.5625 C 81.073359,601.38704 98.067223,600.68053 114.875,601.15625 C 126.25847,601.51111 139.40568,603.07977 147.1875,611.6875 C 142.65912,599.36251 128.67711,594.96754 116.65754,595.19922 C 111.0479,594.96267 105.42509,594.99156 99.8125,595.09375 z M 464.0625,612.65625 C 463.75108,617.13025 467.09227,620.45283 471.6019,620.24495 C 494.30081,625.26323 518.11079,619.23204 540.60144,625.07652 C 546.85161,627.1984 552.80174,630.27312 557.65625,634.8125 C 551.66015,620.53058 534.6072,616.09287 520.3125,616.4375 C 504.70895,616.46611 488.89577,616.85994 473.4375,614.9375 C 470.24331,614.68931 466.9839,612.80982 464.0625,612.65625 z M -23.5,635.84375 C -25.181954,637.86562 -27.226766,642.7512 -22.596291,641.57125 C -5.8904523,642.70079 10.864062,642.32296 27.59375,642.65625 C 28.229278,639.58281 26.8656,634.59872 22.8125,636.1875 C 7.5145391,637.07583 -8.2414598,635.90893 -23.5,635.84375 z M -157.46875,666.28125 C -154.29825,675.14622 -145.25229,679.64671 -136.375,680.25 C -118.69659,683.33545 -100.54786,681.54483 -82.65625,682 C -81.854642,679.03866 -82.846336,674.01368 -86.96875,675.6875 C -106.62544,675.82628 -127.0491,677.73447 -146.21875,672.1875 C -150.29174,671.191 -154.72831,668.53619 -157.46875,666.28125 z M 308.25,668.09375 C 313.70817,678.86103 325.55008,685.45564 337.53125,684.28125 C 349.08053,684.41708 362.02896,679.29483 366.375,667.75 C 356.06622,677.91485 340.02406,679.98357 326.34375,677.28125 C 319.36221,675.66846 312.66705,672.24862 307.71875,667.0625 L 308.17671,667.95147 L 308.25,668.09375 z M 526.8125,672.34375 C 516.45095,675.87845 504.92133,674.67566 494.0625,675.40625 C 474.72696,675.69405 455.39747,674.61736 436.0625,674.9375 C 435.34993,677.92103 435.97317,683.16478 440.375,681.125 C 468.60543,680.1393 497.49555,683.73378 525.40625,678.90625 C 526.81856,677.48297 527.37537,673.27953 526.8125,672.34375 z M 525.625,678.6875 C 525.58207,678.74516 525.72864,678.72001 525.625,678.6875 z M -25.8125,673.75 C -23.845247,680.90116 -16.798544,684.80863 -9.53125,684.09375 C 3.0094933,684.11289 15.548935,684.25305 28.09375,684.1875 C 28.830692,681.21677 27.972335,676.13169 23.78125,677.8125 C 8.9719109,677.97153 -6.387354,679.58095 -21,676.4375 C -22.899986,676.12946 -24.098183,673.99169 -25.8125,673.75 z M 225.21875,675.875 C 225.75669,681.35984 230.66325,684.86392 236,684.375 C 239.53877,684.28986 244.76309,685.54321 247.46875,684.125 C 248.14771,681.1679 246.79014,676.65869 242.9375,678.25 C 237.24507,679.20929 229.97738,678.01388 225.21875,675.875 z " style="fill:#ffffff;fill-opacity:0.67283953;filter:url(#filter5604)"/>
      <path transform="matrix(0.4687502,0,0,0.4687502,224.03329,410.57793)" id="path5608" d="M -84.875,565.84375 C -86.802802,570.2503 -96.688251,566.91187 -101.83982,568.18729 C -118.18925,569.15976 -135.01237,567.53597 -151.03125,571.15625 C -165.1798,575.72334 -169.81485,591.59446 -171.0348,604.8667 C -172.50513,618.90058 -172.05042,634.00648 -165.5,646.78125 C -169.3578,628.59856 -168.6207,608.64928 -160.875,591.59375 C -155.31887,580.43209 -142.67952,574.98479 -130.59375,575.28125 C -114.03575,574.41901 -97.446633,574.36372 -80.875,573.875 C -80.875,567.52083 -80.875,561.16667 -80.875,554.8125 C -88.006657,552.78859 -83.713974,561.7575 -84.875,565.84375 z M 214.28125,578.15625 C 221.59014,579.51415 216.10533,567.96119 217.47036,563.32078 C 220.03103,555.68308 211.86892,550.68089 213.70069,560.80914 C 213.89421,566.59151 214.08773,572.37388 214.28125,578.15625 z M 551.875,568.375 C 549.98122,572.81455 540.04042,569.20709 534.875,570.375 C 511.60658,570.85519 488.09406,569.3103 464.96875,571.53125 C 457.29525,572.63762 452.16868,580.52455 454.09375,588.15625 C 454.40806,591.27168 454.4859,595.32513 458,596.59375 C 456.20481,586.27364 465.44592,577.26001 475.375,577.15625 C 502.167,575.61134 529.04844,576.71956 555.875,576.375 C 555.875,569.1875 555.875,562 555.875,554.8125 C 548.44813,552.64447 553.23039,564.22286 551.875,568.375 z M 326.4375,566.59375 C 311.18066,566.17613 298.1365,577.57853 294.8125,592.15625 C 290.47715,609.20996 290.66605,629.06616 298.375,644.6875 C 294.56113,626.80685 294.69793,606.87092 303.375,590.46875 C 310.88454,575.70005 329.17713,570.17084 344.875,573.28125 C 348.35628,573.60893 352.89315,575.16867 355.46875,575.78125 C 348.36969,567.99227 336.37286,566.74213 326.4375,566.59375 z M 400,583.09375 C 405.5514,609.73138 405.86005,639.8859 391.71875,663.96875 C 380.79109,682.28434 358.33,688.86009 338.125,689.40625 C 320.84486,689.82566 302.53894,689.85759 286.9375,681.5625 C 305.05486,696.79448 330.259,696.4065 352.61931,694.89347 C 370.85714,693.73101 390.23489,685.36275 398.5,668.125 C 409.926,644.49472 409.39994,616.23031 403.34375,591.15625 C 402.57208,588.48423 401.14838,584.70816 400,583.09375 z M 244.15625,601.5 C 241.79391,605.67876 232.41373,602.65032 227.26171,603.96749 C 222.72508,605.6598 211.29827,600.89699 213.10266,608.52993 C 214.26069,624.35195 212.18553,640.80143 216.53125,656.15625 C 217.46695,658.7384 219.87582,661.01251 218.5,656.53125 C 217.30801,641.2932 217.45378,625.98667 216.875,610.71875 C 227.34252,610.26364 237.81269,609.86892 248.28125,609.4375 C 247.42165,604.51702 251.63147,594.9809 247.31366,593.18201 C 242.54437,591.48333 245.23995,598.98108 244.15625,601.5 z M 25.875,602.4375 C 23.98122,606.87705 14.040419,603.26959 8.875,604.4375 C -4.3139466,605.04411 -18.711728,602.80515 -30.90625,608.75 C -34.379299,610.71426 -36.19324,615.83308 -35.34375,619.21875 C -32.382124,619.46027 -28.937935,620.75717 -27.53125,617.40625 C -18.120364,609.39858 -4.4604429,611.15285 7.0624201,610.44685 C 14.666544,610.42473 22.270819,610.44395 29.875,610.4375 C 29.177366,605.04138 31.241842,596.88316 28.875,593.15625 C 23.309062,591.63765 26.881836,599.33528 25.875,602.4375 z M 176.40625,604.1875 C 172.99045,611.88262 186.31952,612.96126 183.26604,605.1881 C 183.52812,602.67888 178.02093,604.92675 176.40625,604.1875 z M 79.59375,644.5625 C 79.394494,658.87498 79.206263,673.18762 79,687.5 C 71.770833,687.5 64.541667,687.5 57.3125,687.5 C 54.551016,696.54273 64.603223,692.77178 70.15625,693.5 C 75.719109,692.75064 85.80379,696.58511 83.144223,687.50056 C 83.481578,662.16675 83.844415,636.83329 84.21875,611.5 C 94.475304,611.8085 106.00706,612.30425 115.59375,612.75 C 112.41928,604.72272 101.93217,607.09717 95.15625,606.1875 C 90.720962,607.60994 79.764209,602.16315 80.112916,608.62469 C 79.939861,620.60396 79.766805,632.58323 79.59375,644.5625 z M 146.21875,606.96875 C 146.98455,633.80095 146.95124,660.65946 147.53125,687.5 C 141.59375,687.5 135.65625,687.5 129.71875,687.5 C 126.95833,696.55208 137.03326,692.76882 142.59375,693.5 C 151.08967,695.67042 152.80654,691.16584 151.31409,683.5012 C 150.46559,660.04801 151.51016,636.48671 149.75,613.09375 C 149.3255,610.33922 147.91995,607.84332 146.125,605.75 L 146.2017,606.74705 L 146.21875,606.96875 z M 438.625,623.875 C 449.71974,634.2604 466.28849,633.51989 480.46549,635.08285 C 493.72192,635.78773 508.33164,636.42762 520.875,637.25 C 519.19893,629.65193 509.47257,631.88629 503.78594,630.67557 C 481.97763,628.78569 459.21109,630.65644 438.28125,623.5 L 438.625,623.875 z M 556.90625,629.5625 C 559.03766,645.63322 559.77777,665.44088 546.40625,677.0625 C 538.48741,685.01027 527.2028,686.40044 516.50117,686.38095 C 489.09201,687.18462 461.66651,687.19621 434.25,687.625 C 431.30299,696.63909 440.80246,693.05537 446.24912,693.57375 C 476.55553,692.75168 507.0794,693.86447 537.25,691.40625 C 551.26974,689.1836 561.83178,675.33342 561.8018,661.31595 C 562.06474,650.34376 562.69295,638.38048 556.78125,628.71875 L 556.90625,629.5625 z M 26.09375,644.90625 C 25.477911,649.74843 15.438639,645.70521 11.09375,647.03125 C -4.3097349,647.57029 -20.146841,645.91472 -35.3125,648.09375 C -37.091992,650.76127 -33.216832,655.58582 -31.5,656.90625 C -28.234998,651.66515 -20.51325,653.9437 -15.343912,653.10698 C -0.24054259,652.97625 14.86465,653.05268 29.96875,653.03125 C 29.606664,646.90671 29.252943,640.78168 28.90625,634.65625 C 22.412875,632.65435 27.081921,641.54028 26.09375,644.90625 z M -84.875,685.5 C -86.768803,689.94731 -96.709401,686.27162 -101.87473,687.41064 C -124.39918,686.89153 -147.23959,688.16233 -169.53125,684.65625 C -170.87202,684.53184 -175.7962,681.78065 -172.625,684.0625 C -165.64757,690.14921 -156.5693,692.51669 -147.44235,692.29545 C -125.27919,693.62473 -103.06502,693.24478 -80.875,693.5 C -80.875,687.02083 -80.875,680.54167 -80.875,674.0625 C -88.073263,672.01396 -83.671613,681.40371 -84.875,685.5 z M 25.875,685.5 C 23.981213,689.94388 14.040475,686.29836 8.8750828,687.45017 C -8.5723288,686.79434 -26.926516,688.9049 -43.65625,683.46875 C -46.380832,682.37931 -39.713417,686.96657 -38.59375,687.5625 C -25.979459,694.61765 -10.709042,692.56107 3.2811214,693.40278 C 12.14572,693.43931 21.010379,693.46685 29.875,693.5 C 29.1806,688.09023 31.237462,679.9292 28.875,676.1875 C 23.304928,674.67013 26.884312,682.39334 25.875,685.5 z M 245.46875,685.46875 C 245.06506,690.0406 236.09383,686.18237 232.37511,687.55689 C 222.78397,687.66623 211.80649,687.96445 203.03125,686.0625 C 210.37154,695.45806 223.86021,693.05842 234.43741,693.59815 C 239.42729,693.5956 244.41634,693.47573 249.40625,693.5 C 248.08399,688.42913 251.52975,678.51431 247.00007,676.70194 C 243.4247,675.89185 246.25113,683.35627 245.46875,685.46875 z " style="fill:#000000;fill-opacity:0.18823529;filter:url(#filter6616)"/>
    </g>
    <g id="g2433" transform="matrix(0.3775481,0,0,0.3776435,85.831879,92.890559)">
      <rect style="fill:#efa724;fill-opacity:1;stroke:none;stroke-width:1.00005233;stroke-miterlimit:4;stroke-opacity:1;display:inline" id="rect2261" width="77.945801" height="77.935524" x="136.84602" y="7.3963008" transform="matrix(-0.7071233,-0.7070903,0.7071233,-0.7070903,0,0)"/>
      <rect style="fill:#932279;fill-opacity:1;stroke:none;stroke-width:1.00005376;stroke-miterlimit:4;stroke-opacity:1;display:inline" id="rect2263" width="77.946228" height="77.935936" x="136.84239" y="-85.427086" transform="matrix(-0.7071253,-0.7070883,0.7071253,-0.7070883,0,0)"/>
      <path style="fill:url(#linearGradient2454);fill-opacity:1;stroke:none;stroke-width:1.00005233;stroke-miterlimit:4;stroke-opacity:1;display:inline" d="M -138.21887,-157.09375 C -122.66679,-141.54167 -107.1147,-125.98958 -91.56262,-110.4375 C -76.01054,-125.98958 -60.45845,-141.54167 -44.90637,-157.09375 C -60.45845,-172.64583 -76.01054,-188.19792 -91.56262,-203.75 C -107.1147,-188.19792 -122.66679,-172.64583 -138.21887,-157.09375 z " id="rect4397"/>
      <path style="fill:url(#linearGradient2456);fill-opacity:1;stroke:none;stroke-width:1.00005376;stroke-miterlimit:4;stroke-opacity:1;display:inline" d="M -203.84387,-91.46875 C -188.29179,-75.91667 -172.7397,-60.36458 -157.18762,-44.8125 C -141.63554,-60.36458 -126.08345,-75.91667 -110.53137,-91.46875 C -126.08345,-107.02083 -141.63554,-122.57292 -157.18762,-138.125 C -172.7397,-122.57292 -188.29179,-107.02083 -203.84387,-91.46875 z " id="rect4399"/>
      <rect style="fill:#9ccd2a;fill-opacity:1;stroke:none;stroke-width:1.00000048;stroke-miterlimit:4;stroke-opacity:1;display:inline" id="rect2267" width="77.737572" height="77.72776" x="-179.47266" y="-179.72078"/>
      <rect style="fill:#9ccd2a;fill-opacity:1;stroke:none;stroke-width:1.00005591;stroke-miterlimit:4;stroke-opacity:1;display:inline" id="rect2269" width="77.741867" height="77.731613" x="44.121849" y="-85.530853" transform="matrix(-0.7071298,-0.7070838,0.7071298,-0.7070838,0,0)"/>
      <path style="fill:url(#linearGradient2458);fill-opacity:1;stroke:none;stroke-width:1.00005591;stroke-miterlimit:4;stroke-opacity:1;display:inline" d="M -138.18762,-25.6875 C -122.68762,-10.1875 -107.18762,5.3125 -91.68762,20.8125 C -76.18762,5.3125 -60.68762,-10.1875 -45.18762,-25.6875 C -60.68762,-41.1875 -76.18762,-56.6875 -91.68762,-72.1875 C -107.18762,-56.6875 -122.68762,-41.1875 -138.18762,-25.6875 z " id="rect4403"/>
      <rect style="fill:#262577;fill-opacity:1;stroke:none;stroke-width:1;stroke-miterlimit:4;stroke-opacity:1;display:inline" id="rect2272" width="77.942711" height="77.932655" x="-179.47272" y="-81.470474"/>
      <rect style="fill:#262577;fill-opacity:1;stroke:none;stroke-width:1.00005233;stroke-miterlimit:4;stroke-opacity:1;display:inline" id="rect2274" width="77.946167" height="77.93573" x="44.021416" y="7.3940134" transform="matrix(-0.7071253,-0.7070883,0.7071253,-0.7070883,0,0)"/>
      <path style="fill:url(#linearGradient2460);fill-opacity:1;stroke:none;stroke-width:1.00005233;stroke-miterlimit:4;stroke-opacity:1;display:inline" d="M -72.59387,-91.46875 C -57.03137,-75.90625 -41.46887,-60.34375 -25.90637,-44.78125 C -10.35429,-60.33333 5.1978,-75.88542 20.74988,-91.4375 C 5.1978,-107 -10.35429,-122.5625 -25.90637,-138.125 C -41.46887,-122.57292 -57.03137,-107.02083 -72.59387,-91.46875 z " id="rect4407"/>
      <rect style="fill:#932279;fill-opacity:1;stroke:none;stroke-width:1.00000048;stroke-miterlimit:4;stroke-opacity:1;display:inline" id="rect2277" width="77.942741" height="77.932808" x="-81.018661" y="-179.9256"/>
      <rect style="fill:#efa724;fill-opacity:1;stroke:none;stroke-width:1;stroke-miterlimit:4;stroke-opacity:1;display:inline" id="rect2279" width="77.942711" height="77.932816" x="-81.018661" y="-81.470718"/>
      <path style="fill:url(#linearGradient2462);fill-opacity:1;stroke:none;stroke-width:1.00000048;stroke-miterlimit:4;stroke-opacity:1;display:inline" d="M -173.46887,-108 C -151.56262,-108 -129.65637,-108 -107.75012,-108 C -107.75012,-129.90625 -107.75012,-151.8125 -107.75012,-173.71875 C -129.65637,-173.71875 -151.56262,-173.71875 -173.46887,-173.71875 C -173.46887,-151.8125 -173.46887,-129.90625 -173.46887,-108 z " id="rect4401"/>
      <path style="fill:url(#linearGradient2464);fill-opacity:1;stroke:none;stroke-width:1;stroke-miterlimit:4;stroke-opacity:1;display:inline" d="M -173.46887,-9.53125 C -151.4897,-9.53125 -129.51054,-9.53125 -107.53137,-9.53125 C -107.53137,-31.51042 -107.53137,-53.48958 -107.53137,-75.46875 C -129.51054,-75.46875 -151.4897,-75.46875 -173.46887,-75.46875 C -173.46887,-53.48958 -173.46887,-31.51042 -173.46887,-9.53125 z " id="rect4405"/>
      <path style="fill:url(#linearGradient2466);fill-opacity:1;stroke:none;stroke-width:1;stroke-miterlimit:4;stroke-opacity:1;display:inline" d="M -75.03137,-9.53125 C -53.04179,-9.53125 -31.0522,-9.53125 -9.06262,-9.53125 C -9.06262,-31.51042 -9.06262,-53.48958 -9.06262,-75.46875 C -31.0522,-75.46875 -53.04179,-75.46875 -75.03137,-75.46875 C -75.03137,-53.48958 -75.03137,-31.51042 -75.03137,-9.53125 z " id="rect4411"/>
      <path style="fill:url(#linearGradient2468);fill-opacity:1;stroke:none;stroke-width:1.00000048;stroke-miterlimit:4;stroke-opacity:1;display:inline" d="M -75.03137,-108 C -53.04179,-108 -31.0522,-108 -9.06262,-108 C -9.06262,-129.97917 -9.06262,-151.95833 -9.06262,-173.9375 C -31.0522,-173.9375 -53.04179,-173.9375 -75.03137,-173.9375 C -75.03137,-151.95833 -75.03137,-129.97917 -75.03137,-108 z " id="rect4409"/>
      <path style="fill:url(#radialGradient2470);fill-opacity:1;stroke:none;stroke-width:1.00005233;stroke-miterlimit:4;stroke-opacity:1;display:inline" d="M -109.53137,-185.6875 C -105.16487,-185.52973 -97.67549,-187.49937 -95.62512,-182.78125 C -95.36888,-159.85113 -96.13349,-136.62065 -95.25012,-113.875 C -93.81329,-110.34807 -89.47048,-110.32732 -87.84387,-113.71875 C -85.9253,-119.84548 -87.71551,-127.19622 -87.09387,-133.75 C -87.09387,-151.13542 -87.09387,-168.52083 -87.09387,-185.90625 C -82.63287,-186.39973 -78.15654,-185.88827 -73.68762,-185.90625 C -79.62512,-191.84375 -85.56262,-197.78125 -91.50012,-203.71875 C -97.51054,-197.70833 -103.52095,-191.69792 -109.53137,-185.6875 z M -73.43762,-174.28125 C -77.28927,-174.21837 -73.83384,-168.15215 -75.00012,-165.9375 C -75.00012,-152.96875 -75.00012,-140 -75.00012,-127.03125 C -64.9897,-137.04167 -54.97929,-147.05208 -44.96887,-157.0625 C -50.868,-162.47827 -55.85761,-169.54632 -62.56262,-173.71875 C -66.20209,-173.25939 -69.80322,-174.43126 -73.43762,-174.28125 z M -32.34387,-161.625 C -27.62382,-159.696 -29.30504,-153.75716 -33.00012,-151.78125 C -47.28138,-138.1561 -61.09438,-123.67278 -75.12512,-109.75 C -75.82889,-106.03779 -71.19552,-109.55158 -70.03137,-110.5625 C -55.74899,-125.75037 -40.5342,-140.22685 -25.87512,-155.125 C -20.29065,-149.57409 -14.72189,-144.00742 -9.15637,-138.4375 C -9.15637,-150.27083 -9.15637,-162.10417 -9.15637,-173.9375 C -21.00012,-173.9375 -32.84387,-173.9375 -44.68762,-173.9375 C -40.57304,-169.83333 -36.45845,-165.72917 -32.34387,-161.625 z M -117.90637,-173.84375 C -125.28181,-173.74597 -128.41768,-165.09347 -133.90758,-161.31129 C -142.26495,-156.85173 -132.23069,-152.39217 -128.90148,-147.93261 C -121.84061,-140.87174 -114.77974,-133.81087 -107.71887,-126.75 C -107.88718,-142.23794 -107.38333,-158.39804 -107.96887,-173.46875 C -111.28637,-173.39921 -114.59191,-173.97098 -117.90637,-173.84375 z M -173.43762,-138.8125 C -168.01332,-144.23198 -162.59885,-149.66154 -157.21887,-155.125 C -141.2701,-139.41197 -125.70921,-122.86483 -109.40637,-107.78125 C -105.50589,-107.39489 -109.90045,-112.83814 -111.25012,-113.71875 C -126.29874,-127.62905 -140.42025,-142.80495 -155.18762,-157.125 C -149.61461,-162.59327 -144.12238,-168.14312 -138.59387,-173.65625 C -150.20845,-173.65625 -161.82304,-173.65625 -173.43762,-173.65625 C -173.43762,-162.04167 -173.43762,-150.42708 -173.43762,-138.8125 z M -55.84387,-108.09375 C -40.40793,-108.22031 -24.46679,-107.84167 -9.34387,-108.28125 C -9.34693,-114.47578 -6.94156,-122.26761 -13.78919,-126.03199 C -18.05297,-129.23891 -22.3199,-136.57778 -26.58186,-137.38628 C -36.33586,-127.6221 -46.08987,-117.85792 -55.84387,-108.09375 z M -173.28137,-121.9375 C -172.45011,-117.4216 -175.03807,-112.23543 -172.96887,-108.09375 C -157.75012,-108.09375 -142.53137,-108.09375 -127.31262,-108.09375 C -137.28137,-118.0625 -147.25012,-128.03125 -157.21887,-138 C -162.57304,-132.64583 -167.9272,-127.29167 -173.28137,-121.9375 z M -203.71887,-91.5 C -197.65637,-85.4375 -191.59387,-79.375 -185.53137,-73.3125 C -184.13422,-77.99869 -189.02795,-88.97575 -181.53137,-87.5625 C -158.92726,-87.83787 -135.99575,-87.01475 -113.59387,-87.96875 C -110.05284,-89.30124 -110.78546,-93.33897 -113.62512,-94.875 C -119.24857,-97.45109 -126.73166,-95.2229 -133.06262,-95.96875 C -150.51054,-95.96875 -167.95845,-95.96875 -185.40637,-95.96875 C -185.92856,-100.56473 -185.32831,-105.17889 -185.43762,-109.78125 C -191.53137,-103.6875 -197.62512,-97.59375 -203.71887,-91.5 z M 2.96863,-102.25 C 4.59546,-96.99772 -1.60101,-94.62858 -5.78137,-95.875 C -26.51488,-96.27681 -47.44225,-95.80178 -68.21887,-95.9375 C -71.24002,-94.53123 -73.80841,-90.29178 -69.90637,-88.34375 C -64.08929,-86.28697 -57.0006,-88.25096 -50.75012,-87.5625 C -32.88554,-87.5625 -15.02095,-87.5625 2.84363,-87.5625 C 3.36704,-82.93528 2.76402,-78.29006 2.87488,-73.65625 C 8.8228,-79.60417 14.77071,-85.55208 20.71863,-91.5 C 14.80196,-97.41667 8.8853,-103.33333 2.96863,-109.25 C 2.96863,-106.91667 2.96863,-104.58333 2.96863,-102.25 z M -75.09387,-75.3125 C -75.0277,-69.30999 -67.54176,-66.55632 -64.39352,-61.8934 C -52.3353,-49.83518 -40.27709,-37.77697 -28.21887,-25.71875 C -33.56169,-20.34286 -38.91965,-14.98205 -44.28137,-9.625 C -32.57304,-9.625 -20.8647,-9.625 -9.15637,-9.625 C -9.15637,-21.27083 -9.15637,-32.91667 -9.15637,-44.5625 C -14.72161,-38.9923 -20.29103,-33.42629 -25.87512,-27.875 C -41.96773,-43.73617 -57.73978,-60.20104 -74.03137,-75.6875 C -74.40843,-75.5877 -75.37561,-76.13085 -75.09387,-75.3125 z M -108.06262,-75.5 C -114.39851,-73.43105 -117.07595,-66.3588 -122.37205,-62.62808 C -133.38844,-51.75562 -144.3075,-40.50848 -155.25012,-29.71875 C -161.0179,-27.93915 -163.04684,-35.67974 -167.40637,-37.875 C -169.58703,-39.92717 -171.38313,-42.31747 -173.43762,-44.5 C -173.43762,-32.875 -173.43762,-21.25 -173.43762,-9.625 C -161.97929,-9.625 -150.52095,-9.625 -139.06262,-9.625 C -144.42478,-14.98162 -149.7817,-20.34346 -155.12512,-25.71875 C -139.23366,-41.65196 -123.22415,-57.53627 -107.40637,-73.5 C -107.39648,-74.124 -106.79466,-75.92579 -108.06262,-75.5 z M -173.43762,-61.21875 C -168.00012,-55.78125 -162.56262,-50.34375 -157.12512,-44.90625 C -146.93762,-55.09375 -136.75012,-65.28125 -126.56262,-75.46875 C -142.18762,-75.46875 -157.81262,-75.46875 -173.43762,-75.46875 C -173.43762,-70.71875 -173.43762,-65.96875 -173.43762,-61.21875 z M -25.93762,-44.96875 C -20.63143,-50.84906 -13.40557,-55.76821 -9.37512,-62.53125 C -10.21068,-66.64923 -7.58033,-71.6994 -9.43762,-75.34375 C -25.05878,-75.64142 -40.75651,-75.38094 -56.40637,-75.46875 C -46.25012,-65.30208 -36.09387,-55.13542 -25.93762,-44.96875 z M -91.84387,-72 C -98.48638,-68.43815 -94.37645,-59.46962 -95.50012,-53.40625 C -95.50012,-34.78125 -95.50012,-16.15625 -95.50012,2.46875 C -99.06672,3.5315 -114.062,-0.13393 -107.07552,5.29475 C -101.9358,10.42567 -96.79609,15.55658 -91.65637,20.6875 C -85.5522,14.58333 -79.44804,8.47917 -73.34387,2.375 C -77.76089,2.27804 -84.87391,4.09125 -87.09387,-0.4375 C -87.09387,-22.82292 -87.09387,-45.20833 -87.09387,-67.59375 C -88.60385,-68.86772 -89.97314,-71.54719 -91.84387,-72 z M -138.00012,-25.8125 C -132.39906,-20.58158 -127.56704,-13.75317 -121.09387,-9.8125 C -116.67991,-10.59601 -111.63465,-8.07738 -107.59387,-10 C -107.59387,-25.39583 -107.59387,-40.79167 -107.59387,-56.1875 C -117.72929,-46.0625 -127.8647,-35.9375 -138.00012,-25.8125 z M -75.00012,-9.8125 C -68.67903,-9.90061 -60.5616,-7.31308 -56.68702,-14.25797 C -54.23854,-18.54917 -44.4034,-22.84422 -46.66433,-27.13296 C -56.1096,-36.57823 -65.55486,-46.02349 -75.00012,-55.46875 C -75.00012,-40.25 -75.00012,-25.03125 -75.00012,-9.8125 z " id="rect4282"/>
      <path id="path5494" d="M -90.49987,-214.125 L -91.93737,-212.6875 L -123.84362,-180.78125 L -178.49987,-180.78125 L -180.53112,-180.78125 L -180.53112,-178.71875 L -180.53112,-124.09375 L -212.68737,-91.9375 L -214.15612,-90.5 L -212.68737,-89.0625 L -180.53112,-56.90625 L -180.53112,-2.59375 L -180.53112,-0.53125 L -178.49987,-0.53125 L -124.34362,-0.53125 L -92.12487,31.65625 L -90.65612,33.125 L -89.21862,31.65625 L -56.99987,-0.53125 L -2.09362,-0.53125 L -0.03112,-0.53125 L -0.03112,-2.59375 L -0.03112,-57.3125 L 31.71888,-89.0625 L 33.15638,-90.5 L 31.71888,-91.9375 L -0.03112,-123.6875 L -0.03112,-178.96875 L -0.03112,-181.03125 L -2.09362,-181.03125 L -57.40612,-181.03125 L -89.03112,-212.6875 L -90.49987,-214.125 z M -90.49987,-208.34375 L -63.18737,-181.03125 L -80.03112,-181.03125 L -82.09362,-181.03125 L -82.09362,-178.96875 L -82.09362,-112.3125 L -90.49987,-103.90625 L -98.62487,-112.03125 L -98.62487,-178.71875 L -98.62487,-180.78125 L -100.68737,-180.78125 L -118.06237,-180.78125 L -90.49987,-208.34375 z M -77.99987,-176.9375 L -59.09362,-176.9375 L -38.28112,-156.125 L -77.99987,-116.40625 L -77.99987,-176.9375 z M -53.31237,-176.9375 L -4.15612,-176.9375 L -4.15612,-127.8125 L -23.40612,-147.0625 L -24.87487,-148.5 L -26.31237,-147.0625 L -70.28112,-103.09375 L -77.99987,-103.09375 L -77.99987,-110.59375 L -33.93737,-154.6875 L -32.46862,-156.125 L -33.93737,-157.5625 L -53.31237,-176.9375 z M -176.43737,-176.65625 L -127.96862,-176.65625 L -147.06237,-157.5625 L -148.49987,-156.125 L -147.06237,-154.6875 L -102.71862,-110.34375 L -102.71862,-103.09375 L -110.87487,-103.09375 L -154.74987,-146.96875 L -156.21862,-148.4375 L -157.65612,-146.96875 L -176.43737,-128.1875 L -176.43737,-176.65625 z M -122.18737,-176.65625 L -102.71862,-176.65625 L -102.71862,-116.125 L -142.71862,-156.125 L -122.18737,-176.65625 z M -24.87487,-142.71875 L -4.15612,-122 L -4.15612,-103.09375 L -64.46862,-103.09375 L -24.87487,-142.71875 z M -156.21862,-142.625 L -116.68737,-103.09375 L -176.43737,-103.09375 L -176.43737,-122.40625 L -156.21862,-142.625 z M -180.53112,-118.3125 L -180.53112,-101.03125 L -180.53112,-98.96875 L -178.49987,-98.96875 L -112.56237,-98.96875 L -103.99987,-90.40625 L -111.84362,-82.5625 L -178.49987,-82.5625 L -180.53112,-82.5625 L -180.53112,-80.53125 L -180.53112,-62.6875 L -208.34362,-90.5 L -180.53112,-118.3125 z M -0.03112,-117.875 L 27.34388,-90.5 L -0.03112,-63.125 L -0.03112,-80.53125 L -0.03112,-82.5625 L -2.09362,-82.5625 L -69.12487,-82.5625 L -77.06237,-90.5 L -68.59362,-98.96875 L -2.09362,-98.96875 L -0.03112,-98.96875 L -0.03112,-101.03125 L -0.03112,-117.875 z M -82.09362,-106.5 L -82.09362,-101.03125 L -82.09362,-98.96875 L -80.03112,-98.96875 L -74.40612,-98.96875 L -81.43737,-91.9375 L -82.87487,-90.5 L -81.43737,-89.0625 L -74.93737,-82.5625 L -80.03112,-82.5625 L -82.09362,-82.5625 L -82.09362,-80.53125 L -82.09362,-73.96875 L -89.21862,-81.09375 L -90.65612,-82.53125 L -92.12487,-81.09375 L -98.49987,-74.71875 L -98.49987,-80.53125 L -98.49987,-82.5625 L -100.56237,-82.5625 L -106.06237,-82.5625 L -99.65612,-88.96875 L -98.18737,-90.40625 L -99.65612,-91.875 L -106.74987,-98.96875 L -100.68737,-98.96875 L -98.62487,-98.96875 L -98.62487,-101.03125 L -98.62487,-106.25 L -91.93737,-99.5625 L -90.49987,-98.125 L -89.03112,-99.5625 L -82.09362,-106.5 z M -176.43737,-78.46875 L -115.93737,-78.46875 L -156.12487,-38.28125 L -176.43737,-58.59375 L -176.43737,-78.46875 z M -110.15612,-78.46875 L -102.59362,-78.46875 L -102.59362,-70.625 L -147.06237,-26.15625 L -148.49987,-24.71875 L -147.06237,-23.25 L -128.43737,-4.625 L -176.43737,-4.625 L -176.43737,-52.8125 L -157.56237,-33.9375 L -156.12487,-32.5 L -154.68737,-33.9375 L -110.15612,-78.46875 z M -77.99987,-78.46875 L -70.84362,-78.46875 L -26.31237,-33.9375 L -24.87487,-32.5 L -23.40612,-33.9375 L -4.15612,-53.1875 L -4.15612,-4.625 L -52.90612,-4.625 L -34.28112,-23.25 L -32.84362,-24.71875 L -34.28112,-26.15625 L -77.99987,-69.875 L -77.99987,-78.46875 z M -65.03112,-78.46875 L -4.15612,-78.46875 L -4.15612,-59 L -24.87487,-38.28125 L -65.03112,-78.46875 z M -90.65612,-76.75 L -82.09362,-68.1875 L -82.09362,-2.59375 L -82.09362,-0.53125 L -80.03112,-0.53125 L -62.81237,-0.53125 L -90.65612,27.3125 L -118.53112,-0.53125 L -100.56237,-0.53125 L -98.49987,-0.53125 L -98.49987,-2.59375 L -98.49987,-68.90625 L -90.65612,-76.75 z M -102.59362,-64.8125 L -102.59362,-4.625 L -122.62487,-4.625 L -142.71862,-24.71875 L -102.59362,-64.8125 z M -77.99987,-64.09375 L -38.62487,-24.71875 L -58.71862,-4.625 L -77.99987,-4.625 L -77.99987,-64.09375 z " style="fill:#000000;fill-opacity:0.47058824;stroke:none;stroke-width:1.00005198;stroke-miterlimit:4;stroke-opacity:1;display:inline;filter:url(#filter6465)"/>
      <path style="fill:#ffffff;fill-opacity:1;stroke:none;stroke-width:1.00005198;stroke-miterlimit:4;stroke-opacity:1;display:inline" d="M -91.50012,-215.125 L -92.93762,-213.6875 L -124.84387,-181.78125 L -179.50012,-181.78125 L -181.53137,-181.78125 L -181.53137,-179.71875 L -181.53137,-125.09375 L -213.68762,-92.9375 L -215.15637,-91.5 L -213.68762,-90.0625 L -181.53137,-57.90625 L -181.53137,-3.59375 L -181.53137,-1.53125 L -179.50012,-1.53125 L -125.34387,-1.53125 L -93.12512,30.65625 L -91.65637,32.125 L -90.21887,30.65625 L -58.00012,-1.53125 L -3.09387,-1.53125 L -1.03137,-1.53125 L -1.03137,-3.59375 L -1.03137,-58.3125 L 30.71863,-90.0625 L 32.15613,-91.5 L 30.71863,-92.9375 L -1.03137,-124.6875 L -1.03137,-179.96875 L -1.03137,-182.03125 L -3.09387,-182.03125 L -58.40637,-182.03125 L -90.03137,-213.6875 L -91.50012,-215.125 z M -91.50012,-209.34375 L -64.18762,-182.03125 L -81.03137,-182.03125 L -83.09387,-182.03125 L -83.09387,-179.96875 L -83.09387,-113.3125 L -91.50012,-104.90625 L -99.62512,-113.03125 L -99.62512,-179.71875 L -99.62512,-181.78125 L -101.68762,-181.78125 L -119.06262,-181.78125 L -91.50012,-209.34375 z M -79.00012,-177.9375 L -60.09387,-177.9375 L -39.28137,-157.125 L -79.00012,-117.40625 L -79.00012,-177.9375 z M -54.31262,-177.9375 L -5.15637,-177.9375 L -5.15637,-128.8125 L -24.40637,-148.0625 L -25.87512,-149.5 L -27.31262,-148.0625 L -71.28137,-104.09375 L -79.00012,-104.09375 L -79.00012,-111.59375 L -34.93762,-155.6875 L -33.46887,-157.125 L -34.93762,-158.5625 L -54.31262,-177.9375 z M -177.43762,-177.65625 L -128.96887,-177.65625 L -148.06262,-158.5625 L -149.50012,-157.125 L -148.06262,-155.6875 L -103.71887,-111.34375 L -103.71887,-104.09375 L -111.87512,-104.09375 L -155.75012,-147.96875 L -157.21887,-149.4375 L -158.65637,-147.96875 L -177.43762,-129.1875 L -177.43762,-177.65625 z M -123.18762,-177.65625 L -103.71887,-177.65625 L -103.71887,-117.125 L -143.71887,-157.125 L -123.18762,-177.65625 z M -25.87512,-143.71875 L -5.15637,-123 L -5.15637,-104.09375 L -65.46887,-104.09375 L -25.87512,-143.71875 z M -157.21887,-143.625 L -117.68762,-104.09375 L -177.43762,-104.09375 L -177.43762,-123.40625 L -157.21887,-143.625 z M -181.53137,-119.3125 L -181.53137,-102.03125 L -181.53137,-99.96875 L -179.50012,-99.96875 L -113.56262,-99.96875 L -105.00012,-91.40625 L -112.84387,-83.5625 L -179.50012,-83.5625 L -181.53137,-83.5625 L -181.53137,-81.53125 L -181.53137,-63.6875 L -209.34387,-91.5 L -181.53137,-119.3125 z M -1.03137,-118.875 L 26.34363,-91.5 L -1.03137,-64.125 L -1.03137,-81.53125 L -1.03137,-83.5625 L -3.09387,-83.5625 L -70.12512,-83.5625 L -78.06262,-91.5 L -69.59387,-99.96875 L -3.09387,-99.96875 L -1.03137,-99.96875 L -1.03137,-102.03125 L -1.03137,-118.875 z M -83.09387,-107.5 L -83.09387,-102.03125 L -83.09387,-99.96875 L -81.03137,-99.96875 L -75.40637,-99.96875 L -82.43762,-92.9375 L -83.87512,-91.5 L -82.43762,-90.0625 L -75.93762,-83.5625 L -81.03137,-83.5625 L -83.09387,-83.5625 L -83.09387,-81.53125 L -83.09387,-74.96875 L -90.21887,-82.09375 L -91.65637,-83.53125 L -93.12512,-82.09375 L -99.50012,-75.71875 L -99.50012,-81.53125 L -99.50012,-83.5625 L -101.56262,-83.5625 L -107.06262,-83.5625 L -100.65637,-89.96875 L -99.18762,-91.40625 L -100.65637,-92.875 L -107.75012,-99.96875 L -101.68762,-99.96875 L -99.62512,-99.96875 L -99.62512,-102.03125 L -99.62512,-107.25 L -92.93762,-100.5625 L -91.50012,-99.125 L -90.03137,-100.5625 L -83.09387,-107.5 z M -177.43762,-79.46875 L -116.93762,-79.46875 L -157.12512,-39.28125 L -177.43762,-59.59375 L -177.43762,-79.46875 z M -111.15637,-79.46875 L -103.59387,-79.46875 L -103.59387,-71.625 L -148.06262,-27.15625 L -149.50012,-25.71875 L -148.06262,-24.25 L -129.43762,-5.625 L -177.43762,-5.625 L -177.43762,-53.8125 L -158.56262,-34.9375 L -157.12512,-33.5 L -155.68762,-34.9375 L -111.15637,-79.46875 z M -79.00012,-79.46875 L -71.84387,-79.46875 L -27.31262,-34.9375 L -25.87512,-33.5 L -24.40637,-34.9375 L -5.15637,-54.1875 L -5.15637,-5.625 L -53.90637,-5.625 L -35.28137,-24.25 L -33.84387,-25.71875 L -35.28137,-27.15625 L -79.00012,-70.875 L -79.00012,-79.46875 z M -66.03137,-79.46875 L -5.15637,-79.46875 L -5.15637,-60 L -25.87512,-39.28125 L -66.03137,-79.46875 z M -91.65637,-77.75 L -83.09387,-69.1875 L -83.09387,-3.59375 L -83.09387,-1.53125 L -81.03137,-1.53125 L -63.81262,-1.53125 L -91.65637,26.3125 L -119.53137,-1.53125 L -101.56262,-1.53125 L -99.50012,-1.53125 L -99.50012,-3.59375 L -99.50012,-69.90625 L -91.65637,-77.75 z M -103.59387,-65.8125 L -103.59387,-5.625 L -123.62512,-5.625 L -143.71887,-25.71875 L -103.59387,-65.8125 z M -79.00012,-65.09375 L -39.62512,-25.71875 L -59.71887,-5.625 L -79.00012,-5.625 L -79.00012,-65.09375 z " id="path2289"/>
    </g>
  </g>
</svg>