<?xml version="1.0" encoding="UTF-8" standalone="no"?>
<svg
   xmlns:dc="http://purl.org/dc/elements/1.1/"
   xmlns:cc="http://creativecommons.org/ns#"
   xmlns:rdf="http://www.w3.org/1999/02/22-rdf-syntax-ns#"
   xmlns:svg="http://www.w3.org/2000/svg"
   xmlns="http://www.w3.org/2000/svg"
   xmlns:sodipodi="http://sodipodi.sourceforge.net/DTD/sodipodi-0.dtd"
   xmlns:inkscape="http://www.inkscape.org/namespaces/inkscape"
   viewBox="0 0 370.00001 370.00001"
   version="1.1"
   id="svg28"
   sodipodi:docname="cryptpad.svg"
   width="370"
   height="370"
   inkscape:version="0.92.2 (5c3e80d, 2017-08-06)">
  <metadata
     id="metadata32">
    <rdf:RDF>
      <cc:Work
         rdf:about="">
        <dc:format>image/svg+xml</dc:format>
        <dc:type
           rdf:resource="http://purl.org/dc/dcmitype/StillImage" />
        <dc:title>CryptPad_logo_color</dc:title>
      </cc:Work>
    </rdf:RDF>
  </metadata>
  <sodipodi:namedview
     pagecolor="#ffffff"
     bordercolor="#666666"
     borderopacity="1"
     objecttolerance="10"
     gridtolerance="10"
     guidetolerance="10"
     inkscape:pageopacity="0"
     inkscape:pageshadow="2"
     inkscape:window-width="678"
     inkscape:window-height="480"
     id="namedview30"
     showgrid="false"
     inkscape:zoom="0.51993147"
     inkscape:cx="248.39848"
     inkscape:cy="149.82707"
     inkscape:window-x="0"
     inkscape:window-y="0"
     inkscape:window-maximized="0"
     inkscape:current-layer="svg2" />
  <defs
     id="defs4">
    <style
       id="style2">.cls-1{fill:#4591c4}.cls-2{fill:#999}</style>
  </defs>
  <title
     id="title6">CryptPad_logo_color</title>
  <g
     id="Layer_2"
     data-name="Layer 2"
     transform="translate(4,145.3)">
    <g
       id="svg2"
       transform="matrix(3.5720546,0,0,3.5720546,42.63684,-126.93979)">
      <g
         id="g4845"
         transform="translate(-0.55990184)">
        <path
           id="path4827"
           class="cls-1"
           d="M 39.2,0 9.9,5.4 A 6.3,6.3 0 1 0 3.2,16 v 42.2 c 0,4 1.8,8.3 5.3,12.7 A 65.5,65.5 0 0 0 21.6,83 128.2,128.2 0 0 0 39.2,93.5 128.1,128.1 0 0 0 56.7,83 65.4,65.4 0 0 0 69.8,70.9 c 3.5,-4.5 5.3,-8.8 5.3,-12.7 V 16 A 6.3,6.3 0 0 0 72,4.2 6.2,6.2 0 0 0 68.4,5.4 Z m -0.1,6.2 26.7,4.9 A 5.9,5.9 0 0 0 66,12.2 L 50.3,22.5 a 15.3,15.3 0 0 0 -22.6,0.1 l -15.5,-10 a 6.3,6.3 0 0 0 0.3,-1.4 z m 28.8,9 a 6.5,6.5 0 0 0 1.8,1.1 v 41 a 10.4,10.4 0 0 1 -0.1,1.7 21.5,21.5 0 0 1 -4.1,7.8 56.1,56.1 0 0 1 -11.3,10.4 110.6,110.6 0 0 1 -15,9 110.8,110.8 0 0 1 -15,-9 A 55.8,55.8 0 0 1 13,66.8 19.8,19.8 0 0 1 8.6,57.5 V 16.4 a 6.3,6.3 0 0 0 1.7,-1 l 19.8,12.7 a 10.1,10.1 0 0 1 9,-5.4 10,10 0 0 1 9,5.4 z"
           inkscape:connector-curvature="0"
           style="fill:#4591c4" />
        <g
           id="g4829">
          <path
             id="path4831"
             class="cls-2"
             d="m 23,54.8 a 4.65,4.65 0 1 0 0,9.3 4.65,4.65 0 0 0 0,-9.3 z"
             inkscape:connector-curvature="0"
             style="fill:#999999" />
          <path
             id="path4833"
             class="cls-2"
             d="m 24.3,28.5 a 14.9,14.9 0 0 0 4.2,15.4 l -7.3,14.8 a 2.8,2.8 0 0 0 2.3,3.8 h 11 V 57.3 H 27.7 L 34.1,44.5 A 2.7,2.7 0 0 0 33.3,41.2 9.7,9.7 0 0 1 29,31.6 Z"
             inkscape:connector-curvature="0"
             style="fill:#999999" />
        </g>
        <g
           id="g4835">
          <path
             id="path4837"
             class="cls-2"
             d="m 55.3,54.8 a 4.65,4.65 0 1 0 0,9.3 4.65,4.65 0 0 0 0,-9.3 z"
             inkscape:connector-curvature="0"
             style="fill:#999999" />
          <path
             id="path4839"
             class="cls-2"
             d="m 53.8,28.6 -4.7,3.1 a 10.2,10.2 0 0 1 0.1,1.2 10,10 0 0 1 -4.3,8.3 2.7,2.7 0 0 0 -0.8,3.3 l 6.3,12.8 h -6.8 v 5.2 h 11 a 2.8,2.8 0 0 0 2.3,-3.8 L 49.6,43.9 a 15.2,15.2 0 0 0 4.8,-11 15.3,15.3 0 0 0 -0.6,-4.3 z"
             inkscape:connector-curvature="0"
             style="fill:#999999" />
        </g>
        <path
           id="path4841"
           class="cls-1"
           d="M 43.2,33.3 A 4.2,4.2 0 1 1 39,29.1 4.2,4.2 0 0 1 43.2,33.3 Z"
           inkscape:connector-curvature="0"
           style="fill:#4591c4" />
        <path
           id="path4843"
           class="cls-1"
           d="M 45.3,88.4 A 6.3,6.3 0 1 1 39,82.1 6.3,6.3 0 0 1 45.3,88.4 Z"
           inkscape:connector-curvature="0"
           style="fill:#4591c4" />
      </g>
    </g>
  </g>
</svg>
