<?xml version="1.0" encoding="UTF-8" standalone="no"?>
<!-- Created with Inkscape (http://www.inkscape.org/) -->
<svg xmlns:dc="http://purl.org/dc/elements/1.1/" xmlns:cc="http://creativecommons.org/ns#" xmlns:rdf="http://www.w3.org/1999/02/22-rdf-syntax-ns#" xmlns:svg="http://www.w3.org/2000/svg" xmlns="http://www.w3.org/2000/svg" xmlns:xlink="http://www.w3.org/1999/xlink" xmlns:sodipodi="http://sodipodi.sourceforge.net/DTD/sodipodi-0.dtd" xmlns:inkscape="http://www.inkscape.org/namespaces/inkscape" width="1500" height="1115" id="svg14507" version="1.1" inkscape:version="0.48.2 r9819" sodipodi:docname="New document 12">
  <defs id="defs14509">
    <linearGradient inkscape:collect="always" xlink:href="#linearGradient10958-4" id="linearGradient14441" gradientUnits="userSpaceOnUse" gradientTransform="translate(-1834.4685,224.95153)" x1="2677.0659" y1="-1001.1581" x2="2677.0659" y2="-1126.5048"/>
    <linearGradient inkscape:collect="always" id="linearGradient10958-4">
      <stop style="stop-color:#646464;stop-opacity:1" offset="0" id="stop10960-1"/>
      <stop style="stop-color:#969696;stop-opacity:1" offset="1" id="stop10962-1"/>
    </linearGradient>
    <radialGradient inkscape:collect="always" xlink:href="#linearGradient12651" id="radialGradient14443" gradientUnits="userSpaceOnUse" gradientTransform="matrix(-7.2244231,7.2244502,-7.2148432,-7.214843,5889.8349,216.70132)" cx="245.80219" cy="466.2821" fx="245.80219" fy="466.2821" r="34.49239"/>
    <linearGradient id="linearGradient12651">
      <stop id="stop12653" offset="0" style="stop-color:#61a6ed;stop-opacity:1"/>
      <stop id="stop12657" offset="1" style="stop-color:#257edb;stop-opacity:1"/>
    </linearGradient>
  </defs>
  <sodipodi:namedview id="base" pagecolor="#ffffff" bordercolor="#666666" borderopacity="1.0" inkscape:pageopacity="0.0" inkscape:pageshadow="2" inkscape:zoom="0.35" inkscape:cx="1545" inkscape:cy="366.07139" inkscape:document-units="px" inkscape:current-layer="layer1" showgrid="false" fit-margin-top="0" fit-margin-left="0" fit-margin-right="0" fit-margin-bottom="0" inkscape:window-width="1680" inkscape:window-height="1026" inkscape:window-x="0" inkscape:window-y="24" inkscape:window-maximized="1"/>
  <metadata id="metadata14512">
    <rdf:RDF>
      <cc:Work rdf:about="">
        <dc:format>image/svg+xml</dc:format>
        <dc:type rdf:resource="http://purl.org/dc/dcmitype/StillImage"/>
        <dc:title/>
      </cc:Work>
    </rdf:RDF>
  </metadata>
  <g inkscape:label="Layer 1" inkscape:groupmode="layer" id="layer1" transform="translate(1170,216.56643)">
    <g id="g13562" transform="translate(-1172.219,1449.2669)">
      <path id="path4916-7" d="m 278.65647,-904.64231 c -10.2778,-0.045 -23.6656,0.4709 -35.25,11.5938 -4.6256,4.442 -6.3437,12.185 -6.3438,18.8125 l 0,70.9063 c 0,2.0698 0.7126,3.8054 2.125,5.2187 1.4145,1.3631 3.1251,2.0625 5.0938,2.0625 l 14.2188,0 c 1.9686,0 3.6372,-0.6994 5,-2.0625 1.4133,-1.4133 2.125,-3.149 2.125,-5.2187 l 0,-31.8126 48.625,0 c 1.9686,0 3.6049,-0.6681 4.9687,-2.0312 1.4124,-1.4134 2.125,-3.0938 2.125,-5.0625 l 0,-7.2187 c 0,-1.9181 -0.7126,-3.5551 -2.125,-4.9688 -1.3638,-1.4134 -3.0001,-2.1249 -4.9687,-2.125 l -48.625,0 0,-14.4688 c -0.3417,-11.6702 7.8265,-12.1874 12.6874,-12.1874 l 48.1876,0 c 1.9686,10e-5 3.6372,-0.6684 5,-2.0313 1.4133,-1.4134 2.125,-3.1249 2.125,-5.0937 l 0,-7.125 c 0,-1.9687 -0.7116,-3.649 -2.125,-5.0626 -1.3628,-1.4133 -3.0314,-2.1248 -5,-2.125 l -43.625,0 c -1.3272,0 -2.7505,0.01 -4.2188,0 z m 394.0312,0 c -1.3125,2e-4 -2.4039,0.4665 -3.3124,1.375 -0.8583,0.8583 -1.2814,1.9497 -1.2813,3.3126 l 0,23.25 c -8.1779,-2.5745 -15.4953,-3.8437 -21.9063,-3.8438 -12.4181,10e-5 -22.3173,3.7045 -29.6874,11.125 -7.3197,7.3702 -10.9688,17.993 -10.9688,31.875 0,13.8316 3.5265,24.4544 10.5938,31.875 7.1177,7.4206 15.9495,11.125 26.5,11.125 10.5503,0 19.8365,-2.8149 27.8124,-8.4688 l 0,2.3438 c 0,1.3125 0.4231,2.4351 1.2813,3.3438 0.8581,0.8581 1.9495,1.2812 3.3125,1.2812 l 14.5625,0 c 1.3629,0 2.4542,-0.4231 3.3125,-1.2812 0.9086,-0.9087 1.3749,-2.0313 1.375,-3.3438 l 0,-99.2812 c -10e-5,-1.3629 -0.4664,-2.4543 -1.375,-3.3126 -0.8583,-0.9085 -1.9496,-1.3748 -3.3125,-1.375 z m 297,0 c -1.9687,2e-4 -3.6803,0.7117 -5.0937,2.125 -1.4135,1.4136 -2.125,3.0939 -2.125,5.0626 l 0,94.2812 c 0,1.9687 0.7115,3.6491 2.125,5.0625 1.4134,1.363 3.125,2.0625 5.0937,2.0625 l 65.09383,0 c 11.257,0 20.7452,-2.8462 28.4688,-8.5 7.7738,-5.7043 11.6873,-14.0145 11.6874,-24.9688 -10e-5,-10.9541 -4.8703,-19.0504 -14.5624,-24.25 6.8147,-5.5527 10.2186,-12.0168 10.2187,-19.4374 -10e-5,-7.4711 -1.9809,-13.6106 -5.9687,-18.4063 -7.1684,-8.6825 -18.3128,-13.0311 -33.4063,-13.0313 z m 21.3438,20.5313 40.50003,0 c 3.1802,10e-5 5.7379,0.9568 7.6562,2.875 1.9182,1.9183 2.875,4.5987 2.875,8.0313 0,3.3822 -0.9568,6.0193 -2.875,7.9374 -1.9183,1.8679 -4.476,2.8126 -7.6562,2.8126 l -40.50003,0 z m -591.625,3.5625 c -7.7236,10e-5 -13.9857,0.9015 -18.7812,2.7188 -4.7452,1.7668 -9.6948,4.5145 -14.8438,8.25 l 0,-4.7813 c 0,-1.3629 -0.4231,-2.4543 -1.2812,-3.3125 -0.8582,-0.9086 -1.9809,-1.3749 -3.3438,-1.375 l -16.9688,0 c -1.3125,10e-5 -2.4038,0.4664 -3.3124,1.375 -0.8582,0.8582 -1.2813,1.9496 -1.2813,3.3125 l 0,73.6875 c 0,1.363 0.4231,2.4856 1.2813,3.3438 0.8581,0.8581 1.9495,1.2812 3.3124,1.2812 l 16.9688,0 c 1.3125,0 2.3918,-0.4231 3.25,-1.2812 0.9086,-0.8582 1.375,-1.9808 1.375,-3.3438 l 0,-48.375 c 6.209,-7.471 12.7164,-11.2187 19.5312,-11.2188 l 11.6563,0.4376 2.4375,0 c 1.3629,0 2.4855,-0.4231 3.3438,-1.2813 0.9085,-0.8581 1.3436,-1.9495 1.3437,-3.3125 l 0,-11.5312 c -1e-4,-1.3125 -0.4352,-2.3918 -1.3437,-3.25 -0.8583,-0.9086 -1.9809,-1.3437 -3.3438,-1.3438 z m 52.5625,0 c -13.8821,10e-5 -24.7381,3.7165 -32.5625,11.1875 -7.8245,7.4207 -11.7188,18.0867 -11.7188,31.9687 0,13.8317 3.8823,24.4112 11.6563,31.7813 7.7739,7.3701 18.6299,11.0625 32.5625,11.0625 27.6127,0.05 41.4062,-7.1684 41.4062,-21.6562 0,-1.363 -0.4351,-2.4544 -1.3437,-3.3126 -0.8583,-0.9086 -1.9809,-1.3749 -3.3437,-1.375 l -11.2813,0 c -3.6347,0.051 -6.6828,1.5963 -9.1563,4.625 -2.4735,3.0289 -7.0674,4.5313 -13.7812,4.5313 -6.7139,0 -11.6082,-1.4231 -14.6875,-4.25 -3.0289,-2.8269 -4.8077,-7.3221 -5.3125,-13.5313 l 57.0312,0 c 1.3629,10e-5 2.4543,-0.423 3.3126,-1.2812 0.9085,-0.9086 1.3749,-2.0745 1.375,-3.4375 l 0,-4.3125 c -10e-5,-13.5287 -3.8824,-23.9062 -11.6563,-31.125 -7.774,-7.2691 -18.618,-10.8749 -32.5,-10.875 z m 98.5,0 c -13.8821,10e-5 -24.7381,3.7165 -32.5625,11.1875 -7.8245,7.4207 -11.7188,18.0867 -11.7188,31.9687 0,13.8317 3.8823,24.4112 11.6563,31.7813 7.7739,7.3701 18.6299,11.0625 32.5625,11.0625 27.6127,0.05 41.4062,-7.1684 41.4062,-21.6562 0,-1.363 -0.4664,-2.4544 -1.375,-3.3126 -0.8582,-0.9086 -1.9496,-1.3749 -3.3124,-1.375 l -11.2813,0 c -3.6347,0.051 -6.6828,1.5963 -9.1563,4.625 -2.4735,3.0289 -7.0674,4.5313 -13.7812,4.5313 -6.7139,0 -11.6395,-1.4231 -14.7188,-4.25 -3.0288,-2.8269 -4.7764,-7.3221 -5.2812,-13.5313 l 57,0 c 1.3629,10e-5 2.4855,-0.423 3.3438,-1.2812 0.9085,-0.9086 1.3749,-2.0745 1.375,-3.4375 l 0,-4.3125 c -10e-5,-13.5287 -3.8824,-23.9062 -11.6563,-31.125 -7.774,-7.2691 -18.618,-10.8749 -32.5,-10.875 z m 200.77148,0 c -14.7402,10e-5 -26.0313,3.6059 -33.9062,10.875 -7.8749,7.2188 -11.8125,17.9401 -11.8125,32.125 0,14.1345 3.9376,24.8246 11.8125,32.0938 7.8749,7.2691 19.166,10.9062 33.9062,10.9062 14.7907,0 26.125,-3.6371 34,-10.9062 7.8749,-7.2692 11.8125,-17.9593 11.8126,-32.0938 -10e-5,-14.1849 -3.9377,-24.9062 -11.8126,-32.125 -7.875,-7.2691 -19.2093,-10.8749 -34,-10.875 z m 106.82222,0 c -4.9471,10e-5 -9.1851,0.9568 -12.7187,2.875 -3.4832,1.8679 -7.053,4.5602 -10.6875,8.0938 l 0,-4.7813 c 0,-1.3629 -0.4231,-2.4543 -1.2812,-3.3125 -0.8582,-0.9086 -1.9809,-1.3749 -3.3438,-1.375 l -16.9688,0 c -1.3125,10e-5 -2.4038,0.4664 -3.3124,1.375 -0.8582,0.8582 -1.29126,1.9496 -1.2813,3.3125 l 0.53835,73.6875 c 0.01,1.363 -0.11525,2.4856 0.74295,3.3438 0.8581,0.8581 1.9495,1.2812 3.3124,1.2812 l 16.9688,0 c 1.3125,0 2.3918,-0.4231 3.25,-1.2812 0.9086,-0.8582 1.375,-1.9808 1.375,-3.3438 l 0,-50.75 c 5.149,-7.2186 10.5216,-10.8124 16.125,-10.8125 8.7835,-0.05 13.1875,5.9785 13.1875,18.0937 l 0,43.4688 c -10e-5,1.3125 0.423,2.4351 1.2813,3.3438 0.9085,0.8581 2.0432,1.2812 3.4062,1.2812 l 16.875,0 c 1.3124,0 2.3917,-0.4231 3.25,-1.2812 0.9086,-0.8582 1.3749,-1.9808 1.375,-3.3438 l 0,-43.4688 c -10e-5,-2.1706 -0.1347,-4.3292 -0.4375,-6.5 5.7042,-7.7234 11.2115,-11.5936 16.5625,-11.5937 8.7835,-0.05 13.1875,5.9785 13.1875,18.0937 l 0,43.4688 c -10e-5,1.3125 0.423,2.4351 1.2813,3.3438 0.9085,0.8581 2.0431,1.2812 3.4062,1.2812 l 16.875,0 c 1.3628,0 2.4854,-0.4231 3.3438,-1.2812 0.858,-0.8582 1.2811,-1.9808 1.2812,-3.3438 l 0,-43.4688 c 0,-12.4181 -2.8704,-21.5937 -8.625,-27.5 -5.7044,-5.9565 -13.5122,-8.9061 -23.4062,-8.9062 -9.8438,-0.05 -19.4546,4.7886 -28.8438,14.5312 -6.0577,-9.6921 -14.9569,-14.5311 -26.7188,-14.5312 z m 271.12503,0 c -14.7402,10e-5 -26.0313,3.6059 -33.9062,10.875 -7.8749,7.2188 -11.8125,17.9401 -11.8125,32.125 0,14.1345 3.9376,24.8246 11.8125,32.0938 7.8749,7.2691 19.166,10.9062 33.9062,10.9062 14.7907,0 26.125,-3.6371 34,-10.9062 7.8749,-7.2692 11.8125,-17.9593 11.8126,-32.0938 -10e-5,-14.1849 -3.9377,-24.9062 -11.8126,-32.125 -7.875,-7.2691 -19.2093,-10.8749 -34,-10.875 z m 51.3438,1.5 c -1.1106,10e-5 -1.988,0.3559 -2.5938,1.0625 -1.4134,1.6155 -1.3028,3.4737 0.3126,5.5937 l 24.5937,34.75 -26.3437,34.9063 c -0.8077,0.9087 -1.2188,1.7428 -1.2188,2.5 0,0.7067 0.1106,1.3389 0.3125,1.8437 0.4038,1.5649 1.4832,2.3438 3.25,2.3438 l 16.125,0 c 4.6442,0 8.5697,-2.2452 11.75,-6.6875 l 14.625,-19.6875 14.5313,19.6875 c 3.2306,4.4423 7.1682,6.6875 11.8124,6.6875 l 16.125,0 c 1.7668,0 2.8461,-0.7789 3.25,-2.3438 0.2019,-0.4038 0.3125,-0.9927 0.3126,-1.75 -10e-5,-0.8076 -0.4112,-1.685 -1.2188,-2.5937 l -26.3438,-34.9063 24.5938,-34.75 c 1.6153,-2.12 1.7259,-3.9782 0.3125,-5.5937 -0.6059,-0.7066 -1.452,-1.0624 -2.5625,-1.0625 l -16.4375,0 c -4.8967,10e-5 -8.8342,2.2141 -11.8125,6.6562 l -12.5625,19.0938 -12.5937,-19.0938 c -2.9784,-4.4421 -6.916,-6.6561 -11.8126,-6.6562 z m -728.62503,15.6875 c 11.2066,10e-5 17.0576,5.9304 17.5625,17.8437 l -35.2187,0 c 0.6057,-11.9133 6.5,-17.8436 17.6562,-17.8437 z m 98.5,0 c 11.2066,10e-5 17.0576,5.9304 17.5625,17.8437 l -35.2187,0 c 0.6057,-11.9133 6.5,-17.8436 17.6562,-17.8437 z m 200.83398,0 c 6.7644,10e-5 11.714,2.0362 14.8438,6.125 3.1802,4.089 4.7812,10.6083 4.7812,19.5937 0,8.9856 -1.601,15.5482 -4.7812,19.6876 -3.1298,4.1394 -8.0794,6.2187 -14.8438,6.2187 -6.7139,0 -11.6202,-2.0793 -14.75,-6.2187 -3.1298,-4.1394 -4.7187,-10.702 -4.7187,-19.6876 0,-8.9854 1.5889,-15.5047 4.7187,-19.5937 3.1298,-4.0888 8.0361,-6.1249 14.75,-6.125 z m 377.94725,0 c 6.7644,10e-5 11.714,2.0362 14.8438,6.125 3.1802,4.089 4.7812,10.6083 4.7812,19.5937 0,8.9856 -1.601,15.5482 -4.7812,19.6876 -3.1298,4.1394 -8.0794,6.2187 -14.8438,6.2187 -6.7139,0 -11.6202,-2.0793 -14.75,-6.2187 -3.1298,-4.1394 -4.7187,-10.702 -4.7187,-19.6876 0,-8.9854 1.5889,-15.5047 4.7187,-19.5937 3.1298,-4.0888 8.0361,-6.1249 14.75,-6.125 z m -477.53123,1.125 c 4.4422,10e-5 9.9255,1.0121 16.4375,3.0313 l 0,39.5937 c -7.2692,4.5433 -13.6539,6.8125 -19.1563,6.8125 -5.4519,0 -9.5553,-1.9688 -12.2812,-5.9062 -2.726,-3.9375 -4.0938,-10.2116 -4.0938,-18.8438 0,-8.6321 1.4351,-14.8942 4.3126,-18.7812 2.8773,-3.9375 7.8149,-5.9062 14.7812,-5.9063 z m 339.375,19.6875 43.31253,0 c 3.8869,0 6.8677,1.1467 8.9375,3.4688 2.0696,2.3221 3.0937,5.5241 3.0938,9.5624 -10e-5,4.0385 -1.0242,7.2092 -3.0938,9.5313 -2.0698,2.3221 -5.0506,3.4688 -8.9375,3.4687 l -43.31253,0 z" style="font-size:155.07562256px;font-style:normal;font-variant:normal;font-weight:bold;font-stretch:normal;text-align:start;line-height:125%;letter-spacing:0px;word-spacing:0px;writing-mode:lr-tb;text-anchor:start;fill:url(#linearGradient14441);fill-opacity:1;stroke:none;font-family:PT Sans;-inkscape-font-specification:PT Sans Bold" inkscape:connector-curvature="0" sodipodi:nodetypes="cccscsscscscssccccscsssccsccsccccscscscssccccccccsscssccccccccccscscccccscccsssssscscccscccccccsscsccccscccccsccccsscsccccscccccsccccssssccccccscccsssssscsccsccsscccccsccssccsccccccssssccccccccscsscccsscccccccccccccccccccccccscsssccccscssscccccssscccscccccc"/>
      <path sodipodi:nodetypes="cccccsccccsccccczcccccccccccccccccczc" style="fill:url(#radialGradient14443);fill-opacity:1;stroke:none" d="m 540.34375,-1422.0805 c -12.29432,0.3444 -23.16875,4.1084 -30.1875,12.1562 -21.94041,25.1615 2.21091,48.5609 10.59375,80.375 11.19324,42.4518 -1.53635,87.6244 32.4375,117.3438 11.70123,10.2333 25.83068,12.9293 39.40625,14.1875 -17.84802,21.0296 -28.60932,50.1918 -22.75,80.1562 10.25567,52.4474 62.09821,87.3643 113.5,78.5938 29.32083,-5.0046 52.91321,-22.9697 65.75,-47.5 0.46733,-0.8094 1.56181,-0.8131 2.03125,0 12.83808,24.5246 36.43356,42.4961 65.75,47.5 51.4018,8.7705 103.02552,-26.1464 113.28125,-78.5938 5.85926,-29.9644 -4.68318,-59.1266 -22.53125,-80.1562 13.57556,-1.2582 27.48621,-3.9542 39.1875,-14.1875 33.97384,-29.7194 21.24426,-74.892 32.4375,-117.3438 8.38284,-31.8141 32.5029,-55.2135 10.5625,-80.375 -7.01869,-8.0478 -17.64318,-11.8117 -29.9375,-12.1562 -27.05023,-0.7631 -55.22868,10.0899 -83.78125,23.625 -28.55257,13.5351 -60.05514,36.7754 -79.875,61.6562 l 73.15625,42.5 -115.71875,67.1875 -10.125,127.4688 -2.625,-133.3438 -13.6875,-7.9375 -10.0625,126.3125 -2.625,-133.6875 -13.71875,-7.9687 -10.03125,126.7188 -2.6875,-134.0938 -13.625,-7.9062 -10.09375,127.0312 -2.65625,-134.4687 -13.59375,-7.875 -10.125,127.4062 -2.65625,-134.8437 70.0625,-40.6875 c -20.05589,-25.7166 -52.77139,-49.9356 -81.28125,-63.4688 -28.50986,-13.5332 -56.21174,-24.2288 -83.78125,-23.625 z" id="path13218" inkscape:connector-curvature="0"/>
    </g>
  </g>
</svg>