<?xml version="1.0" encoding="UTF-8"?>
<!-- Generator: Adobe Illustrator 12.0.0, SVG Export Plug-In . SVG Version: 6.00 Build 51448)  -->
<!DOCTYPE svg PUBLIC "-//W3C//DTD SVG 1.1//EN" "http://www.w3.org/Graphics/SVG/1.1/DTD/svg11.dtd" [
	<!ENTITY ns_svg "http://www.w3.org/2000/svg">
	<!ENTITY ns_xlink "http://www.w3.org/1999/xlink">
]>
<svg version="1.1" id="Layer_1" xmlns="http://www.w3.org/2000/svg" xmlns:xlink="http://www.w3.org/1999/xlink" width="2158.399" height="626.968" viewBox="0 0 2158.399 626.968" overflow="visible" enable-background="new 0 0 2158.399 626.968" xml:space="preserve">
<g>
	<path fill="#FF3300" d="M1793.546,499.044c-40.234-5.855-68.156-17.115-85.285-50.409c-17.136-33.295-20.514-78.406-10.128-135.335   c10.235-56.095,29.72-100.312,58.478-132.664c28.758-32.351,62.959-48.524,102.615-48.524c42.007,0,71.532,15.917,88.578,47.757   s20.199,77.184,9.465,136.028l-2.8,14.665c-0.671,3.255-1.438,6.354-2.293,9.299h-183.013c-3.901,26.89-2.354,47.16,4.646,60.814   c7.008,13.654,20.528,25.691,61.236,28.185c22.103-0.325,49.113-4.698,75.416-14.563l15.712,68.891   c-17.016,11.551-48.798,14.276-76.457,17.44C1837.876,501.975,1796.565,499.482,1793.546,499.044z"/>
	<path fill-rule="evenodd" clip-rule="evenodd" d="M15.714,539.963c32.692,12.271,66.479,16.043,90.576,14.101   c22.858-1.847,39.894-6.038,51.163-18.109c11.266-12.076,19.871-34.388,25.803-66.923l5.57-30.528   c-10.748,16.575-23.017,28.794-36.797,36.659c-13.789,7.868-29.922,11.803-48.405,11.803c-35.445,0-60.953-15.813-76.524-47.432   c-15.568-31.623-18.566-73.693-8.985-126.215C28.229,257.85,46.726,213.786,73.6,181.116   c26.877-32.669,58.043-49.004,93.491-49.004c18.481,0,33.429,4.422,44.837,13.268c11.408,8.853,19.573,22.33,24.503,40.44   l7.559-41.449H313.7l-58.358,319.94c-6.556,35.936-14.241,63.365-23.072,82.279c-8.825,18.909-20.871,34.776-36.148,47.596   c-13.042,10.715-28.597,18.865-46.659,24.432c-18.069,5.567-38.022,8.351-59.857,8.351c-28.75,0-72.593-6.556-89.606-18.111   L15.714,539.963z"/>
	<path fill="#FBFAFA" d="M1780.106,279.86h107.867c3.545-23.133,1.847-40.743-5.115-52.836   c-6.95-12.091-18.985-18.134-36.122-18.134c-15.964,0-29.637,6.096-41.018,18.295C1794.33,239.384,1785.791,256.94,1780.106,279.86   z"/>
	<path fill-rule="evenodd" clip-rule="evenodd" fill="#FCFCFC" d="M92.976,310.341c-5.856,32.125-5.191,56.801,2.003,74.017   c7.191,17.219,20.368,25.829,39.531,25.829c19.32,0,35.636-8.61,48.945-25.829c13.304-17.216,22.962-42.312,28.975-75.277   c5.708-31.28,4.87-55.478-2.511-72.592c-7.382-17.108-20.735-25.666-40.055-25.666c-18.654,0-34.697,8.713-48.124,26.14   C108.311,254.39,98.721,278.846,92.976,310.341z"/>
	<path fill-rule="evenodd" clip-rule="evenodd" d="M645.667,144.371l-62.491,342.595h-71.779l7.414-40.651   c-13.437,16.567-27.84,28.98-43.209,37.26c-15.372,8.278-31.71,12.424-49.017,12.424c-30.071,0-50.828-9.865-62.266-29.602   c-11.436-19.729-13.572-49.218-6.412-88.468l42.601-233.558h73.29l-37.774,207.087c-4.443,24.372-4.337,41.76,0.322,52.16   c4.658,10.402,14.547,15.599,29.673,15.599c17.145,0,31.982-6.462,44.506-19.383c12.53-12.925,20.823-30.52,24.885-52.795   l36.964-202.668H645.667z"/>
	<polygon fill-rule="evenodd" clip-rule="evenodd" points="684.663,486.965 747.155,144.371 820.442,144.371 757.957,486.965  "/>
	<g>
		<path d="M751.343,60.317c1.233-24.613,22.175-44.561,46.785-44.561c24.609,0,43.566,19.948,42.331,44.561    c-1.23,24.61-22.171,44.56-46.782,44.56C769.067,104.877,750.115,84.927,751.343,60.317z"/>
		<path d="M795.901,60.317"/>
	</g>
	<g>
		<path d="M1256.255,306.076c1.228-24.61,22.181-44.561,46.79-44.561c24.61,0,43.561,19.95,42.325,44.561    c-1.228,24.61-22.175,44.56-46.779,44.56C1273.978,350.635,1255.028,330.686,1256.255,306.076z"/>
		<path d="M1300.813,306.076"/>
	</g>
	<path fill-rule="evenodd" clip-rule="evenodd" fill="#FF3300" d="M1372.172,486.965l62.49-342.595h71.781l-7.41,40.635   c13.268-16.562,27.626-28.979,43.083-37.252c15.449-8.277,31.75-12.417,48.886-12.417c30.24,0,51.083,9.812,62.541,29.435   c11.459,19.627,13.591,49.167,6.389,88.624l-42.596,233.57h-73.291l37.774-207.1c4.479-24.58,4.366-42.128-0.359-52.634   c-4.726-10.508-14.563-15.763-29.52-15.763c-17.314,0-32.19,6.462-44.634,19.387c-12.44,12.923-20.689,30.522-24.758,52.793   l-37.087,203.316H1372.172z"/>
	<path fill-rule="evenodd" clip-rule="evenodd" fill="#FF3300" d="M2095.44,489.543c-6.772,0.216-14.868,0.594-24.307,1.131   c-9.438,0.534-15.427,0.806-17.947,0.806c-28.092,0-46.118-6.569-54.072-19.701c-7.955-13.139-8.404-39.045-1.358-77.72   l33.782-185.169h-36.195l11.767-64.52h36.195l17.065-93.555h72.77l-17.064,93.555h42.324l-11.767,64.52h-42.324l-34.574,189.571   c-1.652,9.027-1.134,14.955,1.542,17.794c2.669,2.835,8.959,4.257,18.873,4.257h17.888L2095.44,489.543z"/>
	<path d="M910.843,208.89H871.62l11.767-64.52h55.497c5.726-27.093,12.225-48.422,19.484-63.988   c8.83-18.915,20.876-34.783,36.152-47.596c13.037-10.723,28.593-18.867,46.655-24.434C1059.244,2.786,1079.196,0,1101.034,0   c28.747,0,72.589,6.559,89.607,18.114l-15.717,68.892c-32.692-12.269-66.478-16.046-90.572-14.099   c-22.859,1.845-39.895,6.035-51.165,18.113c-9.627,10.312-17.31,28.099-23.043,53.351h188.996l-62.485,342.595h-73.285   l50.719-278.075H997.854L946.65,482.601h-69.71l49.922-273.711H910.843z"/>
</g>
</svg>