<?xml version="1.0" encoding="UTF-8" standalone="no"?>
<svg
   xmlns:dc="http://purl.org/dc/elements/1.1/"
   xmlns:cc="http://creativecommons.org/ns#"
   xmlns:rdf="http://www.w3.org/1999/02/22-rdf-syntax-ns#"
   xmlns:svg="http://www.w3.org/2000/svg"
   xmlns="http://www.w3.org/2000/svg"
   xmlns:sodipodi="http://sodipodi.sourceforge.net/DTD/sodipodi-0.dtd"
   xmlns:inkscape="http://www.inkscape.org/namespaces/inkscape"
   width="1024"
   height="1024"
   viewBox="0 0 1024 1024"
   id="svg2"
   version="1.1"
   inkscape:version="0.48.5 r10040"
   sodipodi:docname="Logotype (Simple).svg">
  <metadata
     id="metadata12">
    <rdf:RDF>
      <cc:Work
         rdf:about="">
        <dc:format>image/svg+xml</dc:format>
        <dc:type
           rdf:resource="http://purl.org/dc/dcmitype/StillImage" />
        <dc:title></dc:title>
      </cc:Work>
    </rdf:RDF>
  </metadata>
  <defs
     id="defs10" />
  <sodipodi:namedview
     pagecolor="#ffffff"
     bordercolor="#666666"
     borderopacity="1"
     objecttolerance="10"
     gridtolerance="10"
     guidetolerance="10"
     inkscape:pageopacity="0"
     inkscape:pageshadow="2"
     inkscape:window-width="1366"
     inkscape:window-height="705"
     id="namedview8"
     showgrid="false"
     inkscape:zoom="0.359634"
     inkscape:cx="-362.58286"
     inkscape:cy="498.89987"
     inkscape:window-x="-8"
     inkscape:window-y="-8"
     inkscape:window-maximized="1"
     inkscape:current-layer="svg2" />
  <path
     d="m 968.15785,614.85736 c -14.00723,72.06167 -125.45423,150.926 -253.45124,166.21009 -66.74492,7.96408 -132.46061,15.28418 -202.53534,12.06996 -114.6007,-5.2507 -205.02858,-27.35405 -205.02858,-27.35405 0,11.15622 0.68798,21.77859 2.06393,31.713 14.89886,113.09824 112.14599,119.87344 204.26354,123.03249 92.97617,3.18119 175.76474,-22.92331 175.76474,-22.92331 l 3.81965,84.05456 c 0,0 -65.03322,34.9216 -180.88328,41.3448 -63.88292,3.5114 -143.20409,-1.6071 -235.59134,-26.06089 C 76.207591,943.90915 41.748128,730.3222 36.475465,513.60348 34.868345,449.25824 35.859032,388.58405 35.859032,337.83875 35.859032,116.23265 181.05551,51.276472 181.05551,51.276472 254.26741,17.653587 379.89228,3.5142546 510.4926,2.4465171 h 3.20873 c 130.60032,1.0677375 256.30774,15.2070699 329.51414,48.8299549 0,0 145.19095,64.956178 145.19095,286.562278 0,0 1.82181,163.5022 -20.24857,277.01861"
     id="path4"
     inkscape:connector-curvature="0"
     style="fill:#3088d4" />
  <path
     d="M 817.14319,355.03051 V 623.35857 H 710.83676 V 362.91749 c 0,-54.90067 -23.09956,-82.76655 -69.30419,-82.76655 -51.08651,0 -76.69033,33.05598 -76.69033,98.41944 V 521.12501 H 459.16326 V 378.57038 c 0,-65.36346 -25.60931,-98.41944 -76.69584,-98.41944 -46.20463,0 -69.3042,27.86588 -69.3042,82.76655 V 623.35857 H 206.85681 V 355.03051 c 0,-54.84014 13.96319,-98.41944 42.01071,-130.66086 28.92261,-32.24143 66.79995,-48.76942 113.81915,-48.76942 54.39983,0 95.59597,20.90904 122.83442,62.73262 l 26.4789,44.38837 26.48443,-44.38837 c 27.23294,-41.82358 68.42908,-62.73262 122.83442,-62.73262 47.01368,0 84.89103,16.52799 113.81915,48.76942 28.04199,32.24142 42.0052,75.82072 42.0052,130.66086"
     id="path6"
     inkscape:connector-curvature="0"
     style="fill:#ffffff" />
</svg>
