<?xml version="1.0" encoding="UTF-8" standalone="no"?>
<!-- Generator: Adobe Illustrator 19.0.0, SVG Export Plug-In . SVG Version: 6.00 Build 0)  -->

<svg
   xmlns:dc="http://purl.org/dc/elements/1.1/"
   xmlns:cc="http://creativecommons.org/ns#"
   xmlns:rdf="http://www.w3.org/1999/02/22-rdf-syntax-ns#"
   xmlns:svg="http://www.w3.org/2000/svg"
   xmlns="http://www.w3.org/2000/svg"
   xmlns:sodipodi="http://sodipodi.sourceforge.net/DTD/sodipodi-0.dtd"
   xmlns:inkscape="http://www.inkscape.org/namespaces/inkscape"
   version="1.1"
   id="Layer_1"
   x="0px"
   y="0px"
   viewBox="0 0 134.00002 134"
   enable-background="new 0 0 196.6 72"
   xml:space="preserve"
   inkscape:version="0.92.2 (5c3e80d, 2017-08-06)"
   sodipodi:docname="nextcloud.svg"
   width="134"
   height="134"
   inkscape:export-filename="nextcloud-logo-white-transparent.png"
   inkscape:export-xdpi="300.09631"
   inkscape:export-ydpi="300.09631"><metadata
     id="metadata20"><rdf:RDF><cc:Work
         rdf:about=""><dc:format>image/svg+xml</dc:format><dc:type
           rdf:resource="http://purl.org/dc/dcmitype/StillImage" /><dc:title /></cc:Work></rdf:RDF></metadata><defs
     id="defs18" /><sodipodi:namedview
     pagecolor="#ffffff"
     bordercolor="#666666"
     borderopacity="1"
     objecttolerance="10"
     gridtolerance="10"
     guidetolerance="10"
     inkscape:pageopacity="0"
     inkscape:pageshadow="2"
     inkscape:window-width="1366"
     inkscape:window-height="714"
     id="namedview16"
     showgrid="false"
     inkscape:zoom="0.99999999"
     inkscape:cx="23.021274"
     inkscape:cy="67.771999"
     inkscape:current-layer="Layer_1"
     fit-margin-top="10"
     fit-margin-left="10"
     fit-margin-right="10"
     fit-margin-bottom="10"
     inkscape:window-x="0"
     inkscape:window-y="0"
     inkscape:window-maximized="1"
     units="px"
     inkscape:snap-bbox="true"
     inkscape:bbox-paths="true"
     inkscape:bbox-nodes="true"
     inkscape:snap-bbox-edge-midpoints="true"
     inkscape:snap-bbox-midpoints="true"
     inkscape:snap-page="true" /><path
     style="color:#000000;font-style:normal;font-variant:normal;font-weight:normal;font-stretch:normal;font-size:medium;line-height:normal;font-family:sans-serif;text-indent:0;text-align:start;text-decoration:none;text-decoration-line:none;text-decoration-style:solid;text-decoration-color:#000000;letter-spacing:normal;word-spacing:normal;text-transform:none;writing-mode:lr-tb;direction:ltr;baseline-shift:baseline;text-anchor:start;white-space:normal;clip-rule:nonzero;display:inline;overflow:visible;visibility:visible;opacity:1;isolation:auto;mix-blend-mode:normal;color-interpolation:sRGB;color-interpolation-filters:linearRGB;solid-color:#000000;solid-opacity:1;fill:#0082c9;fill-opacity:1;fill-rule:nonzero;stroke:none;stroke-width:6.14711714;stroke-linecap:butt;stroke-linejoin:miter;stroke-miterlimit:10;stroke-dasharray:none;stroke-dashoffset:0;stroke-opacity:1;color-rendering:auto;image-rendering:auto;shape-rendering:auto;text-rendering:auto;enable-background:accumulate"
     d="m 67.095282,39.535534 c -13.079486,0 -24.165543,8.811568 -27.601447,20.749322 C 36.507676,53.952891 30.037,49.516173 22.583401,49.516173 c -10.250455,0 -18.6755865,8.373696 -18.6755865,18.559242 0,10.185536 8.4251315,18.561157 18.6755865,18.561157 7.453599,0 13.924275,-4.437532 16.910434,-10.770597 3.435904,11.93865 14.521961,20.751225 27.601447,20.751225 12.982763,0 24.012224,-8.679451 27.535999,-20.483442 3.041345,6.189297 9.431819,10.502814 16.779539,10.502814 10.25043,0 18.68137,-8.375621 18.68137,-18.561157 0,-10.185546 -8.43094,-18.559242 -18.68137,-18.559242 -7.34772,0 -13.738194,4.312703 -16.779539,10.5009 C 91.107506,48.213995 80.078045,39.535535 67.095282,39.535534 Z m 0,10.894923 c 9.873534,0 17.761249,7.833977 17.761248,17.644958 0,9.810982 -7.887714,17.648783 -17.761248,17.648783 -9.873479,0 -17.7574,-7.837801 -17.7574,-17.648783 0,-9.810981 7.883921,-17.644958 17.7574,-17.644958 z m -44.511881,9.98064 c 4.325801,0 7.717009,3.365888 7.717009,7.664318 0,4.298421 -3.391208,7.668144 -7.717009,7.668144 -4.325823,0 -7.713158,-3.369723 -7.713158,-7.668144 0,-4.29843 3.387335,-7.664318 7.713158,-7.664318 z m 88.827419,0 c 4.32583,0 7.717,3.365888 7.717,7.664318 0,4.298421 -3.3912,7.668144 -7.717,7.668144 -4.32579,0 -7.71124,-3.369723 -7.71124,-7.668144 0,-4.29843 3.38547,-7.664318 7.71124,-7.664318 z"
     id="XMLID_107_"
     inkscape:connector-curvature="0" /></svg>