<?xml version="1.0" encoding="UTF-8" standalone="no"?>
<!-- Created with Inkscape (http://www.inkscape.org/) -->
<svg
   xmlns:dc="http://purl.org/dc/elements/1.1/"
   xmlns:cc="http://web.resource.org/cc/"
   xmlns:rdf="http://www.w3.org/1999/02/22-rdf-syntax-ns#"
   xmlns:svg="http://www.w3.org/2000/svg"
   xmlns="http://www.w3.org/2000/svg"
   xmlns:sodipodi="http://sodipodi.sourceforge.net/DTD/sodipodi-0.dtd"
   xmlns:inkscape="http://www.inkscape.org/namespaces/inkscape"
   width="400"
   height="300"
   id="svg4578"
   sodipodi:version="0.32"
   inkscape:version="0.45+devel"
   version="1.0"
   sodipodi:docname="official-logo-geeko-color"
   inkscape:output_extension="org.inkscape.output.svg.inkscape">
  <defs
     id="defs4580" />
  <sodipodi:namedview
     id="base"
     pagecolor="#ffffff"
     bordercolor="#d6d6d6"
     borderopacity="1"
     gridtolerance="10000"
     guidetolerance="10"
     objecttolerance="10"
     inkscape:pageopacity="0.0"
     inkscape:pageshadow="2"
     inkscape:zoom="1"
     inkscape:cx="261.41802"
     inkscape:cy="128.23044"
     inkscape:document-units="px"
     inkscape:current-layer="layer1"
     width="400px"
     height="300px"
     borderlayer="true"
     inkscape:showpageshadow="false"
     inkscape:window-width="742"
     inkscape:window-height="654"
     inkscape:window-x="536"
     inkscape:window-y="445" />
  <metadata
     id="metadata4583">
    <rdf:RDF>
      <cc:Work
         rdf:about="">
        <dc:format>image/svg+xml</dc:format>
        <dc:type
           rdf:resource="http://purl.org/dc/dcmitype/StillImage" />
        <dc:title>openSUSE official logo</dc:title>
      </cc:Work>
    </rdf:RDF>
  </metadata>
  <g
     inkscape:label="Layer 1"
     inkscape:groupmode="layer"
     id="layer1">
    <g
       id="g4630"
       transform="translate(3.1482707,1.2467651)">
      <path
         style="fill:#73ba25;fill-opacity:1;fill-rule:nonzero;stroke:none;stroke-miterlimit:4"
         d="M 309.61748,124.88764 C 302.94399,124.64258 297.70555,119.01698 297.92844,112.33393 C 298.03122,109.09835 299.41431,106.10766 301.7647,103.89957 C 304.1246,101.69211 307.2069,100.54307 310.44249,100.66479 C 317.12552,100.89867 322.36542,106.5149 322.14092,113.20814 C 322.03976,116.43353 320.6756,119.42405 318.31567,121.6417 C 315.94476,123.83959 312.86245,124.9888 309.61731,124.88764 L 309.61748,124.88764 z M 312.42625,113.90996 C 315.39636,113.90996 317.80679,112.30318 317.80679,110.32978 C 317.80679,108.34602 315.39622,106.73842 312.42625,106.73842 C 309.45465,106.73842 307.05362,108.34602 307.05362,110.32978 C 307.05362,112.30318 309.45465,113.90996 312.42625,113.90996"
         id="path1977" />
      <path
         style="fill:#73ba25;fill-opacity:1;fill-rule:evenodd;stroke:none;stroke-miterlimit:4"
         d="M 172.32088,194.4927 L 172.75037,194.45238 L 172.82007,193.94381 C 172.71005,193.5445 172.45108,193.18566 172.05097,188.23553 C 171.71134,183.85446 171.02289,171.84009 177.07001,165.88222 C 179.41591,163.5571 182.99774,161.49113 185.82281,160.82284 C 197.40846,157.99855 212.44715,159.9545 225.29017,174.8041 C 231.91712,182.4777 235.17026,185.98045 236.79675,187.54724 L 237.35501,188.06595 L 238.03409,188.55515 C 238.56281,188.85443 260.10749,198.77391 260.10749,198.77391 L 260.54635,198.66388 L 260.55714,198.19566 C 260.41759,198.03593 246.90614,180.58146 249.30031,166.20182 C 251.19655,154.74572 260.31692,155.77363 272.92129,157.21023 C 277.0426,157.67925 281.73299,158.21814 286.58309,158.32816 C 300.12392,158.40803 314.71457,155.92336 323.70617,151.99113 C 329.52384,149.44675 333.23586,147.76977 335.56159,145.65409 C 336.39881,144.96564 336.83767,143.82835 337.2873,142.63054 L 337.5974,141.82269 C 337.97575,140.85432 338.52465,138.77897 338.76504,137.65103 C 338.87505,137.15248 338.92474,136.61296 338.57434,136.34399 L 337.32763,136.57343 C 333.3862,138.9387 323.51547,143.44934 314.27572,143.62908 C 302.8296,143.86787 279.75767,132.11248 277.3527,130.86499 L 277.12326,130.59602 C 276.54343,129.21833 273.08101,121.02536 272.35225,119.29964 C 288.95854,130.23639 302.72878,136.2843 313.27717,137.22233 C 325.01319,138.26978 334.16451,131.86367 338.07642,129.12845 C 338.84394,128.60974 339.42378,128.19042 339.66258,128.10118 L 339.91217,127.69186 C 339.26247,123.57054 333.12548,103.61202 328.49562,98.821612 C 327.20873,97.504413 326.18067,96.227542 324.10453,95.009578 C 307.32929,85.230301 267.50213,79.321959 265.63683,79.052989 L 265.31738,79.142853 L 265.19798,79.421981 C 265.19798,79.421981 265.04764,87.6848 265.02745,88.603473 C 260.95567,87.245945 231.38856,77.695462 203.66482,76.727889 C 180.165,75.899718 148.06115,74.781783 102.69544,102.66365 L 101.35807,103.50166 C 80.02265,116.81386 65.293242,133.2201 57.58947,152.30025 C 55.1745,158.29767 51.921514,171.84009 55.13417,184.58322 C 56.531233,190.16211 59.115934,195.75021 62.609305,200.76003 C 70.482966,212.07594 83.70513,219.59141 97.94536,220.85811 C 118.04343,222.65369 133.27204,213.62336 138.6904,196.71777 C 142.4124,185.05226 138.6904,167.93819 124.42,159.20635 C 112.81417,152.09099 100.32,153.71749 93.08509,158.49774 C 86.79838,162.66876 83.23611,169.1352 83.30581,176.2507 C 83.44537,188.85428 94.31306,195.5603 102.11701,195.57046 C 104.39162,195.57046 106.66703,195.1813 109.24173,194.34329 C 110.1504,194.06337 111.01795,193.7247 111.966,193.13548 L 112.25592,192.94639 L 112.44502,192.83636 L 112.37532,192.86652 C 114.16154,191.66872 115.23915,189.69339 115.23915,187.57756 C 115.23915,186.99851 115.14929,186.40993 114.98956,185.82088 C 114.07167,182.63761 110.91776,180.7018 107.64462,181.30023 L 107.20576,181.39009 L 106.60717,181.58935 L 105.73884,181.87928 C 103.94261,182.32814 102.58508,182.35848 102.30596,182.36768 C 101.38808,182.30798 96.8868,180.96141 96.8868,176.03143 L 96.8868,175.97174 C 96.8976,174.16535 97.62558,172.89785 98.0249,172.2094 C 99.41181,170.01386 103.244,167.85864 108.42277,168.3175 C 115.20945,168.89591 120.09909,172.37914 123.34207,178.94559 C 126.35627,185.0524 125.56795,192.55707 121.31627,198.06531 C 117.09491,203.52479 109.58103,205.83973 99.58153,204.75116 C 89.50232,203.64402 80.98054,197.84587 76.21031,188.81475 C 71.540093,179.99288 71.280336,169.52451 75.54202,161.48192 C 85.75079,142.22185 105.02006,142.42112 115.58861,144.24767 C 131.2359,146.95177 145.43643,159.47547 151.75331,176.13147 C 152.76121,178.78602 153.27977,180.89154 153.72863,182.80733 L 154.40771,185.69132 L 172.08003,194.32313 L 172.3204,194.49285 L 172.32088,194.4927 z M 297.93933,100.48827 C 294.60726,103.58153 292.70006,107.80289 292.54033,112.3537 C 292.23184,121.73367 299.59678,129.63749 308.97611,129.98727 C 313.5471,130.13683 317.87767,128.52971 321.20052,125.4163 C 324.52337,122.31286 326.43043,118.10168 326.59951,113.56086 C 326.91897,104.17075 319.55388,96.256922 310.15454,95.91808 C 305.60373,95.768531 301.26218,97.374857 297.93933,100.48827"
         id="path1979" />
      <path
         id="path2095"
         d="M 270.6588,195.86516 L 270.4614,195.86516 C 270.23324,195.86516 270.03545,195.66736 270.03545,195.43921 L 270.03545,192.38232 L 269.36613,193.40127 C 269.2902,193.50755 269.15314,193.55313 269.03166,193.55313 L 268.95534,193.55313 C 268.83386,193.55313 268.69681,193.50755 268.62088,193.40127 L 267.93638,192.38232 L 267.93638,195.43921 C 267.93638,195.66736 267.73858,195.86516 267.49524,195.86516 L 267.29782,195.86516 C 267.06966,195.86516 266.87187,195.66736 266.87187,195.43921 L 266.87187,191.78893 L 264.81836,191.78893 L 264.81836,195.43921 C 264.81836,195.66736 264.60538,195.86516 264.36243,195.86516 L 264.17981,195.86516 C 263.95164,195.86516 263.75384,195.66736 263.75384,195.43921 L 263.75384,191.78893 L 262.21781,191.78893 C 261.98966,191.78893 261.80705,191.63668 261.80705,191.39371 L 261.80705,191.18075 C 261.80705,190.93739 261.98966,190.78515 262.21781,190.78515 L 267.60192,190.78515 C 267.8149,190.78515 267.95157,190.86107 268.02789,190.98295 L 269.04684,192.51898 L 270.06581,190.98295 C 270.14174,190.87626 270.2636,190.78515 270.49177,190.78515 L 271.17627,190.78515 L 271.17627,195.46958 C 271.17627,195.69773 270.96329,195.89553 270.71994,195.89553"
         style="fill:#73ba25;fill-opacity:1;stroke:none" />
    </g>
  </g>
</svg>
