<?xml version="1.0" encoding="UTF-8" standalone="no"?>
<svg
   xmlns:dc="http://purl.org/dc/elements/1.1/"
   xmlns:cc="http://web.resource.org/cc/"
   xmlns:rdf="http://www.w3.org/1999/02/22-rdf-syntax-ns#"
   xmlns:svg="http://www.w3.org/2000/svg"
   xmlns="http://www.w3.org/2000/svg"
   xmlns:sodipodi="http://sodipodi.sourceforge.net/DTD/sodipodi-0.dtd"
   xmlns:inkscape="http://www.inkscape.org/namespaces/inkscape"
   viewBox="0 0 1024 300"
   id="svg2"
   sodipodi:version="0.32"
   inkscape:version="0.45.1"
   width="720.98688"
   height="179.37762"
   sodipodi:docname="pfs-logo-vector.svg"
   inkscape:output_extension="org.inkscape.output.svg.inkscape"
   sodipodi:docbase="D:\"
   version="1.0">
  <metadata
     id="metadata25">
    <rdf:RDF>
      <cc:Work
         rdf:about="">
        <dc:format>image/svg+xml</dc:format>
        <dc:type
           rdf:resource="http://purl.org/dc/dcmitype/StillImage" />
      </cc:Work>
    </rdf:RDF>
  </metadata>
  <defs
     id="defs23" />
  <sodipodi:namedview
     inkscape:window-height="1110"
     inkscape:window-width="1600"
     inkscape:pageshadow="2"
     inkscape:pageopacity="0.0"
     guidetolerance="10.0"
     gridtolerance="10.0"
     objecttolerance="10.0"
     borderopacity="1.0"
     bordercolor="#666666"
     pagecolor="#ffffff"
     id="base"
     inkscape:zoom="0.86852228"
     inkscape:cx="372.04724"
     inkscape:cy="526.18109"
     inkscape:window-x="0"
     inkscape:window-y="56"
     inkscape:current-layer="g2164" />
  <g
     id="g2164"
     transform="translate(-13,-597.21939)">
    <g
       id="g2174"
       transform="translate(15.405011,598.8698)">
      <path
         style="fill:#000000;stroke:none"
         id="path6"
         d="M 190.5,24.5 C 176.2,27.7 165.3,33.6 155.4,43.4 C 147.9,50.9 147,52.9 147,62.8 C 147,66.8 146.7,67.2 143.5,68.6 C 141.6,69.3 139.5,70 138.7,70 C 137,70 130.6,59.4 130.5,56.4 C 130.5,53.4 120.1,45.1 110.7,40.6 C 92.7,32.1 71.4,31.9 53.3,40.1 C 46.5,43.1 46,44.1 48.6,49.2 C 49.9,51.7 49.9,52.7 49,55.1 C 46.7,60.6 37.2,67.1 27.1,70.1 L 22.8,71.4 L 25.6,73.7 C 27.2,75 29.1,76.5 29.8,77.1 C 32,78.9 31.1,81.5 26.8,86.4 C 22.3,91.5 18.4,94 15,94 C 13.2,94 13,94.6 13,101.7 C 13,112.9 15.3,122.2 20.6,133 C 26.8,145.5 37.5,156.5 49.7,162.8 C 57.5,166.8 58.2,167 66.8,167 C 77.5,167 82,167.8 82,169.6 C 82,170.4 82.4,171 82.9,171 C 83.4,171 82.9,173.8 81.8,177.2 C 75.9,196.3 78.3,217.9 88.2,234.8 C 90,238 95.3,244.4 100.1,249.1 C 107.2,256.3 110.2,258.5 118.1,262.3 C 144.7,275.4 174.7,271.5 197.1,252.1 C 202.1,247.8 209.8,238.2 212.6,232.8 C 213.9,230.3 213.8,230 211.1,228.4 C 202.4,223.2 203.1,209.1 212.4,204.9 C 214.7,203.9 217.5,203 218.8,203 C 220.9,203 221,202.6 221,196.2 C 221,188.4 218.2,176.3 214.5,168.3 C 212.8,164.5 212.4,162.8 213.3,162.6 C 214,162.4 216.8,161.8 219.5,161.2 C 227.9,159.4 235.7,156.1 243.6,150.8 C 249.9,146.6 251,145.4 251,143 C 251,140.1 255.3,134 257.3,134 C 258,134 259.2,133.5 260,133 C 261.3,132.1 261,131.5 258.2,129.2 C 253.3,125.1 253.1,120.8 257.3,109 L 260.7,99.5 L 267.3,99.8 C 273.6,100.2 274,100.1 274,98 C 274,96.8 273.5,94.9 272.9,93.8 C 272.1,92.3 272.1,91.1 273.1,89.3 C 274.2,87.2 274.2,85.6 272.8,78.8 C 268.9,59.9 257.1,43.3 240.3,33.1 C 235.5,30.1 234.9,30 232.8,31.4 C 231.5,32.2 227.7,33.6 224.3,34.4 L 218.1,35.8 L 216.4,30.4 C 215.5,27.4 213.9,24.5 212.9,24 C 210.4,22.6 197.6,22.9 190.5,24.5 z M 221.4,53.8 C 230.6,58.1 238.2,65.6 242.8,74.9 C 246.4,82.2 246.5,82.6 246.5,94 C 246.5,105.4 246.4,105.8 242.8,113.1 C 238.2,122.4 230.6,129.9 221.3,134.3 C 214.9,137.3 213.8,137.5 203.5,137.5 C 190.8,137.4 185,135.6 176.5,129.2 C 165.9,121.1 160,110.1 159.2,96.4 C 158,76 170.1,58.4 189.8,51.9 C 194.2,50.4 197.6,50.1 205.1,50.3 C 213.3,50.6 215.7,51.1 221.4,53.8 z M 96.5,64.3 C 99.7,65.8 103.8,68.1 105.5,69.4 C 107.7,71.1 109.1,71.5 110.7,70.9 C 113.2,70 125.1,70.8 127.1,72.1 C 128.1,72.7 128.1,73.7 127.2,76.8 C 126.5,79 126,82.1 126,83.8 C 126,85.6 125,88 123.7,89.6 C 121.6,92.1 121.5,92.7 122.3,98.2 C 124.3,110.2 119.1,125.1 110,134 C 107.1,136.9 101.8,140.5 97.6,142.5 L 90.3,146 L 89,151.5 C 87.9,156.2 87.3,157 85.4,157 C 84.1,157 81.5,157.7 79.6,158.7 C 76.3,160.2 75.8,160.2 71.6,158.6 C 66.8,156.8 65.5,154.1 65.9,147.5 C 66,144.7 65.5,144.2 60.5,141.7 C 53.7,138.4 48.1,133.4 44,126.9 C 40.3,121.3 37,111.4 37,106.4 C 37,104.5 36.5,103 35.9,103 C 35.1,103 35.1,102.6 35.8,101.7 C 36.3,101.1 37.3,98.1 37.9,95.2 C 38.5,92.3 39.7,88.6 40.5,86.9 C 41.8,84.4 41.9,83.3 40.9,80.5 C 39.2,75.9 41,73.5 50.4,67.6 C 56,64.1 58.4,63.1 59.6,63.8 C 60.7,64.4 63.1,64.1 66.9,62.9 C 75.4,60 88.6,60.7 96.5,64.3 z M 163.9,154.9 C 185.7,161.7 199.8,184.4 196.1,206.7 C 195.2,212 195.2,214.5 196,216 C 196.7,217.2 196.8,219.9 196.5,222.5 C 195.8,226.7 195.6,226.9 191.8,227.5 C 188.8,228 186.2,229.7 181.9,233.6 C 165.4,248.7 142.6,250.9 124.1,239 C 120.5,236.8 118.1,236 114.7,236 C 108.6,236 104.3,232.4 102.9,226.2 C 102.1,222.6 102.3,221.4 103.8,219.2 C 105.4,216.8 105.5,216 104.4,212.5 C 102.7,207.1 102.7,193.7 104.4,187.4 C 108.4,172.4 120.1,160.1 135.5,154.8 C 142.5,152.4 156,152.4 163.9,154.9 z " />
      <path
         style="fill:#990000;fill-opacity:1;stroke:none"
         id="path8"
         d="M 205.5,58.5 C 205,58.7 203.3,59.1 201.8,59.4 C 197.8,60.3 196,62.7 196,67.2 C 196,70.3 195.6,71.3 194,71.7 C 192.4,72.1 192,73.1 192,76 C 192,78.9 192.4,79.9 194,80.3 C 195.9,80.8 196,81.7 196,103.4 L 196,126 L 204,126 L 212,126 L 212,103.4 C 212,81.7 212.1,80.8 214,80.3 C 215.6,79.9 216,78.9 216,75.9 C 216,72.1 215.9,72 212.4,72 C 209.3,72 208.9,71.7 209.2,69.7 C 209.4,68 210.3,67.4 212.8,67.2 C 215.9,66.9 216,66.7 216,62.4 L 216,58 L 211.3,58.1 C 208.6,58.1 206.1,58.3 205.5,58.5 z " />
      <path
         style="fill:#990000;fill-opacity:1;stroke:none"
         id="path10"
         d="M 84.6,77.5 C 81.2,79.8 81,79.8 81,78 C 81,76.2 80.3,76 72.5,76 L 64,76 L 64.2,107.2 L 64.5,138.5 L 72.8,138.8 L 81,139.1 L 81,133 L 81,126.9 L 84.1,129.2 C 86.3,130.9 88.5,131.5 92.2,131.5 C 96.4,131.5 97.5,131.1 99.5,128.8 C 102.7,125.1 103.2,120.6 102.8,99.2 L 102.5,80.8 L 99.2,77.9 C 95,74.1 89.8,74 84.6,77.5 z M 85.8,103.4 L 86,122.1 L 83.8,121.8 C 81.5,121.5 81.5,121.3 81.2,104.1 C 81,91.9 81.3,86.3 82.1,85.3 C 84.9,82 85.5,84.8 85.8,103.4 z " />
      <path
         style="fill:#000000;stroke:none"
         id="path12"
         d="M 345.5,31.4 C 336.2,33.2 328.5,36.2 321.3,40.9 C 306.6,50.4 301.7,62.9 301.6,91.5 C 301.6,109.3 302.8,115.9 308.1,126.8 C 313.6,138 317.6,141.5 356.8,168.2 C 369.4,176.9 375.5,182.8 377,187.7 C 377.7,189.8 378.4,196.3 378.7,202.3 C 379.5,218.5 376.4,225 367.7,225 C 358.2,225 357,221.8 357,197 L 357,178 L 329.9,178 L 302.7,178 L 303.3,197.7 C 304.1,230.6 308.6,241.3 326,252.3 C 338.8,260.4 353.9,263.6 374.8,262.7 C 390.1,262.1 397.1,260.5 407.5,255.4 C 421.1,248.8 428.3,241.4 431.5,230.7 C 435.4,217.7 435.8,190.7 432.4,174.1 C 428.1,153.2 420.9,144.9 389,123.9 C 357.7,103.4 356.9,102.5 356.2,87.9 C 355.7,77.9 357,73 360.7,70 C 363.9,67.5 369.1,67.4 372,69.8 C 374.8,72.1 375.9,77.8 376,91.2 L 376,102 L 403,102 L 430,102 L 430,94.1 C 430,82.2 428.2,66.8 425.9,59.3 C 424.2,54 422.8,51.7 418.6,47.4 C 412.4,41.3 402,35.7 391.1,32.8 C 381.2,30.2 355.9,29.4 345.5,31.4 z " />
      <path
         style="fill:#000000;stroke:none"
         id="path14"
         d="M 500,71.9 C 474.3,75.6 458.4,88.6 452.3,111 C 450.7,116.8 450.5,122.7 450.5,166.5 C 450.5,204.5 450.8,216.7 451.9,221 C 455.6,236 465,248 478,254.3 C 489.2,259.8 495.6,261.2 512,261.7 C 528.7,262.3 537.4,260.9 547.6,256.1 C 558.7,250.9 570,238.2 574.2,226.3 C 576.4,219.9 578.2,201.9 577.8,190.5 L 577.5,182.5 L 551.4,182.2 L 525.3,182 L 524.7,201.2 C 524.4,212.4 523.7,221.9 523,223.8 C 521.8,227 517.7,230 514.6,230 C 511.5,230 508.1,227.6 507,224.7 C 506.4,222.9 506,211.3 506,195.9 L 506,170 L 542.2,170 L 578.3,170 L 577.7,147.7 C 576.9,121.3 575.1,110.9 569.5,100.1 C 562.9,87.5 550.1,78 534.6,74 C 526.1,71.9 508.2,70.8 500,71.9 z M 519.2,107 C 520.7,109.1 521.2,112.1 521.7,124.8 L 522.3,140 L 514.1,140 L 505.9,140 L 506.2,124.1 C 506.5,110 506.7,108 508.4,106.1 C 511.1,103.1 516.6,103.6 519.2,107 z " />
      <path
         style="fill:#000000;stroke:none"
         id="path16"
         d="M 678,72.3 C 668.4,74.6 661,79.5 655.2,87.5 L 653.1,90.5 L 653,82.7 L 653,75 L 624.5,75 L 596,75 L 596,167 L 596,259 L 624,259 L 652,259 L 652,193.7 C 652.1,120.4 652.6,108.5 656,105.8 C 659.1,103.3 664.2,103.5 666.6,106.1 C 668.4,108.1 668.5,111.1 668.8,183.6 L 669,259 L 697,259 L 725,259 L 725,183.7 C 725,139.1 724.6,105.7 724,101.5 C 721.4,83.4 709.5,72.7 690.7,71.5 C 686.6,71.2 681.1,71.6 678,72.3 z " />
      <path
         style="fill:#990000;fill-opacity:1;stroke:none"
         id="path18"
         d="M 785.5,72.1 C 765.9,74.7 751.5,83 746,94.8 C 741.3,104.8 739.6,126.7 742.5,140.5 C 746.4,158.7 751.9,164 791,186.4 C 806.5,195.4 809.8,198.2 811,203.6 C 812.3,209 812.1,219.8 810.7,224 C 808.3,231 797.2,231.8 794,225.2 C 793.1,223.5 792.5,217.1 792.2,208.2 L 791.8,194 L 767.4,194 C 746.8,194 742.8,194.2 742.4,195.5 C 741.1,198.7 743.9,225.6 746.1,232.6 C 750.6,246.2 764.1,256.1 783.9,260.2 C 797.8,263.1 820.1,262.4 831.2,258.8 C 854.8,251 862.9,237.5 863,206 C 863,186.7 860.4,177.7 852.3,169.6 C 847.2,164.4 834.8,156.4 822,150 C 807.9,142.9 798.9,137 795.4,132.4 C 792.7,128.9 792.5,128.1 792.5,118.7 C 792.5,109.1 792.6,108.8 795.3,106.4 C 798.7,103.5 803.8,103.2 807.1,105.9 C 809.2,107.6 809.4,108.6 809.8,120.4 L 810.2,133 L 834.8,133 L 859.3,133 L 858.8,118.2 C 858.4,104.9 858,102.8 855.7,97.7 C 850.5,86.3 837.6,77.2 821.4,73.6 C 812.4,71.6 794.5,70.8 785.5,72.1 z " />
      <path
         style="fill:#000000;stroke:none"
         id="path20"
         d="M 926.7,72.1 C 907.1,74.6 890.9,85 884.2,99.2 C 877.9,112.5 877.5,116.7 877.5,167 C 877.5,216.8 877.9,220.5 883.6,232.7 C 887.4,240.7 897.6,250.8 906,254.8 C 916.4,259.7 923.2,261.1 938.5,261.7 C 967,262.8 982.6,256.4 995,238.8 C 1002.7,227.8 1004.2,222 1004.8,200.2 L 1005.2,182 L 978.7,182 L 952.2,182 L 951.8,202.4 C 951.5,221.2 951.3,223.1 949.4,225.6 C 945.5,230.9 938.5,231.2 935.3,226.3 C 933.7,223.9 933.5,220.7 933.5,197 L 933.5,170.5 L 969.3,170.2 L 1005,170 L 1005,151.1 C 1005,120.2 1002.1,106.1 993.1,93.9 C 980.6,76.9 955,68.5 926.7,72.1 z M 946.7,106.7 C 948.2,108.9 948.6,112.1 948.8,124.7 L 949.2,140 L 941.1,140 L 933,140 L 933.1,128.2 C 933.2,108 934.6,104 941.7,104 C 944.1,104 945.4,104.7 946.7,106.7 z " />
    </g>
  </g>
</svg>
