<?xml version="1.0" encoding="UTF-8" standalone="no"?>
<!-- Created with Inkscape (http://www.inkscape.org/) -->

<svg
   xmlns:dc="http://purl.org/dc/elements/1.1/"
   xmlns:cc="http://creativecommons.org/ns#"
   xmlns:rdf="http://www.w3.org/1999/02/22-rdf-syntax-ns#"
   xmlns:svg="http://www.w3.org/2000/svg"
   xmlns="http://www.w3.org/2000/svg"
   version="1.1"
   width="118.32655"
   height="146.10699"
   viewBox="0 0 118.32656 146.10699"
   id="Layer_1"
   xml:space="preserve"><metadata
     id="metadata3514"><rdf:RDF><cc:Work
         rdf:about=""><dc:format>image/svg+xml</dc:format><dc:type
           rdf:resource="http://purl.org/dc/dcmitype/StillImage" /><dc:title></dc:title></cc:Work></rdf:RDF></metadata><defs
     id="defs3512" /><g
     transform="matrix(1.2550927,0,0,1.2550927,-2.5509267,-2.550926)"
     id="g5374"
     style="fill:#56347c;fill-opacity:1"><path
       d="m 88.342066,56.730068 0,16.662869 c 0,0.510289 -0.341075,0.643984 -0.760689,0.296591 L 79.077314,66.649116 C 78.658103,66.302056 78.317029,65.609 78.317029,65.098711 l 0,-2.097683 -2.657657,-2.16078 c -2.850156,-2.317289 -5.132376,-7.0217 -5.132376,-10.464763 0,-3.442323 2.29778,-4.339449 5.132376,-2.002743 l 2.657657,2.160782 0,-2.097681 c 0,-0.510046 0.341074,-0.643737 0.760285,-0.296677 l 8.503862,7.040243 c 0.420546,0.346435 0.76089,1.040613 0.76089,1.550659 z M 75.81131,51.432227 c -1.50022,-1.236708 -2.716309,-0.761675 -2.716309,1.060197 0,1.822367 1.216089,4.301887 2.716309,5.538595 l 2.505719,2.035532 0,-6.599035 -2.505719,-2.035532 z"
       id="path5189-4"
       style="fill:#56347c;fill-opacity:1" /><g
       transform="matrix(0.46410314,0.9267926,-0.9267926,0.46410314,77.258376,-14.89278)"
       id="g3500"
       style="fill:#56347c;fill-opacity:1"><path
         d="M 97.976,37.8 C 97.972,37.779 97.968,37.758 97.963,37.737 97.947,37.669 97.927,37.602 97.901,37.538 97.898,37.53 97.896,37.522 97.893,37.515 97.863,37.446 97.826,37.38 97.786,37.317 97.775,37.299 97.762,37.283 97.75,37.266 97.715,37.216 97.676,37.169 97.634,37.125 97.623,37.113 97.613,37.101 97.601,37.089 97.548,37.037 97.49,36.989 97.428,36.946 97.413,36.935 97.396,36.927 97.38,36.917 97.349,36.898 97.32,36.877 97.288,36.86 L 96.743,36.576 71.837016,47.695585 25.252,24.269 l -0.666,0.33 c -0.006,0.003 -0.01,0.007 -0.016,0.01 -0.047,0.024 -0.09,0.055 -0.134,0.084 -0.029,0.019 -0.06,0.036 -0.087,0.057 -0.034,0.027 -0.063,0.059 -0.094,0.09 -0.031,0.03 -0.065,0.059 -0.093,0.092 -0.022,0.026 -0.039,0.056 -0.06,0.084 -0.031,0.043 -0.063,0.086 -0.088,0.132 -0.003,0.005 -0.007,0.01 -0.01,0.015 -0.015,0.028 -0.022,0.057 -0.035,0.085 -0.02,0.046 -0.041,0.09 -0.056,0.138 -0.013,0.041 -0.02,0.082 -0.029,0.123 -0.009,0.043 -0.019,0.085 -0.024,0.128 -0.005,0.043 -0.004,0.085 -0.005,0.127 -0.001,0.044 -0.003,0.087 0.001,0.13 0.002,0.023 0.005,0.046 0.009,0.069 -0.006,0.051 -0.015,0.1 -0.015,0.152 L 23.854,41.674 27.21708,40.107419 63.622,58.211 38.537615,69.347048 l -18.939,-9.469 L 2.6090632,51.38471 c -0.012,-0.006 -0.025,-0.009 -0.038,-0.014 -0.042,-0.02 -0.086,-0.035 -0.131,-0.05 -0.04,-0.014 -0.08,-0.028 -0.121,-0.038 -0.038,-0.009 -0.078,-0.014 -0.117,-0.019 -0.049,-0.007 -0.098,-0.014 -0.148,-0.015 -0.013,0 -0.024,-0.004 -0.037,-0.004 -0.025,0 -0.049,0.006 -0.074,0.007 -0.05,0.004 -0.099,0.007 -0.148,0.016 -0.04,0.007 -0.079,0.017 -0.118,0.027 -0.043,0.011 -0.085,0.024 -0.127,0.039 -0.039,0.015 -0.077,0.032 -0.114,0.051 -0.039,0.019 -0.077,0.039 -0.115,0.062 -0.035,0.022 -0.068,0.045 -0.1,0.07 -0.035,0.027 -0.07,0.054 -0.103,0.085 -0.031,0.029 -0.059,0.059 -0.087,0.09 -0.028,0.032 -0.056,0.064 -0.082,0.099 -0.028,0.038 -0.052,0.079 -0.076,0.12 -0.013,0.023 -0.03,0.042 -0.042,0.066 -0.006,0.012 -0.008,0.025 -0.014,0.037 -0.02,0.043 -0.036,0.089 -0.051,0.135 -0.013,0.039 -0.027,0.078 -0.036,0.117 -0.009,0.04 -0.014,0.081 -0.02,0.122 -0.007,0.048 -0.013,0.095 -0.014,0.142 0.001,0.014 -0.003,0.026 -0.003,0.039 l 0,19.531 c 0,0.026 0.006,0.051 0.008,0.077 0.003,0.048 0.006,0.096 0.014,0.143 0.007,0.042 0.017,0.082 0.028,0.122 0.011,0.042 0.023,0.083 0.038,0.123 0.015,0.04 0.033,0.079 0.052,0.117 0.019,0.038 0.038,0.076 0.061,0.112 0.022,0.035 0.046,0.069 0.071,0.102 0.027,0.035 0.054,0.069 0.084,0.102 0.028,0.031 0.059,0.059 0.09,0.087 0.032,0.029 0.064,0.056 0.1,0.082 0.038,0.027 0.077,0.051 0.118,0.075 0.023,0.014 0.043,0.031 0.068,0.043 L 37.945615,91.543048 c 0.007,0.004 0.015,0.004 0.022,0.008 0.017,0.008 0.032,0.017 0.049,0.025 0.01,0.004 0.02,0.007 0.03,0.011 0.056,0.022 0.113,0.041 0.171,0.055 0.012,0.003 0.024,0.006 0.036,0.009 0.016,0.003 0.032,0.005 0.048,0.008 0.077,0.014 0.154,0.024 0.232,0.024 0.001,0 0.002,0 0.003,0 l 0.001,0 10e-4,0 c 10e-4,0 0.002,0 0.003,0 0.078,0 0.156,-0.01 0.232,-0.024 0.016,-0.003 0.032,-0.005 0.048,-0.008 0.012,-0.003 0.024,-0.006 0.036,-0.009 0.058,-0.014 0.115,-0.033 0.17,-0.055 0.01,-0.004 0.021,-0.007 0.031,-0.011 0.017,-0.007 0.032,-0.017 0.049,-0.024 0.007,-0.003 0.015,-0.004 0.022,-0.008 L 61.746,81.642 l 9.462,5.221 c 0.018,0.01 0.037,0.017 0.056,0.026 0.019,0.01 0.038,0.02 0.058,0.029 0.008,0.003 0.016,0.007 0.024,0.01 0.031,0.013 0.063,0.023 0.095,0.033 0.019,0.006 0.038,0.013 0.058,0.019 0.021,0.006 0.043,0.011 0.064,0.015 0.015,0.003 0.029,0.006 0.044,0.008 0.007,0.001 0.015,0.003 0.022,0.004 0.014,0.002 0.028,0.006 0.042,0.008 0.059,0.008 0.117,0.013 0.176,0.013 l 0.001,0 0.001,0 c 10e-4,0 0.002,0 0.003,0 0.078,0 0.155,-0.01 0.232,-0.024 0.013,-0.002 0.026,-0.003 0.039,-0.006 0.01,-0.002 0.019,-0.006 0.029,-0.008 0.07,-0.017 0.14,-0.037 0.207,-0.065 0.007,-0.003 0.014,-0.007 0.021,-0.01 0.004,-0.002 0.008,-0.004 0.012,-0.006 0.006,-0.003 0.012,-0.003 0.018,-0.006 L 97.238,75.317 C 97.703,75.098 98,74.631 98,74.117 L 98,38.034 C 98,38.028 97.998,38.023 97.998,38.017 97.997,37.943 97.989,37.871 97.976,37.8 z m -60.762385,40.617048 -7.614,3.666 3.972,1.986 3.641,-1.986 0,6.29 -33.8715518,-16.935338 0,-9.829 8.6775518,4.241338 -7.2569997,3.35 3.972,1.986 7.2689997,-3.378 4.313,2.051 -7.487,3.456 3.972,1.986 7.503,-3.482 4.621,2.344 -7.381,3.407 3.972,1.986 7.395,-3.434 4.303,2.111 z M 65.228,76.939 39.861615,88.216048 l 0,-16.57 L 65.228,60.37 z M 3.3410632,58.52771 l 0,-3.31 33.8725518,16.603338 0,3.31 z"
         id="path3502"
         style="fill:#56347c;fill-opacity:1" /></g><polygon
       points="39.407,53.262 45.366,56.241 39.076,59.22 33.117,56.241 "
       transform="matrix(0.44775907,0.89415425,-0.89415425,0.44775907,70.46318,-16.30443)"
       id="polygon3506"
       style="fill:#56347c;fill-opacity:1" /><polygon
       points="22.855,50.613 29.145,47.634 35.103,50.613 28.814,53.593 "
       transform="matrix(0.44775907,0.89415425,-0.89415425,0.44775907,70.02568,-16.55443)"
       id="polygon3508"
       style="fill:#56347c;fill-opacity:1" /><g
       transform="matrix(0,-0.2492475,0.19547686,0.16114179,71.005984,62.192969)"
       id="Captions"
       style="fill:#56347c;fill-opacity:1" /><g
       transform="translate(122.10986,-55.111168)"
       id="Captions-7"
       style="fill:#56347c;fill-opacity:1" /><path
       d="m 45.058193,34.347585 c 2.124399,2.704098 4.295157,7.985437 4.295157,12.865587 0,4.87818 -2.170758,6.542025 -4.295157,5.703941 0,-1.998055 0,-16.795084 0,-18.569528 z"
       id="path4818-2-4-3"
       style="fill:#56347c;fill-opacity:1" /><g
       transform="translate(74.936297,109.72221)"
       id="Your_Icon"
       style="fill:#56347c;fill-opacity:1" /></g></svg>