<?xml version="1.0" encoding="UTF-8" standalone="no"?>
<!-- Created with Inkscape (http://www.inkscape.org/) -->

<svg
   xmlns:dc="http://purl.org/dc/elements/1.1/"
   xmlns:cc="http://creativecommons.org/ns#"
   xmlns:rdf="http://www.w3.org/1999/02/22-rdf-syntax-ns#"
   xmlns:svg="http://www.w3.org/2000/svg"
   xmlns="http://www.w3.org/2000/svg"
   xmlns:xlink="http://www.w3.org/1999/xlink"
   xmlns:sodipodi="http://sodipodi.sourceforge.net/DTD/sodipodi-0.dtd"
   xmlns:inkscape="http://www.inkscape.org/namespaces/inkscape"
   width="1030"
   height="1030"
   id="svg2"
   sodipodi:version="0.32"
   inkscape:version="0.47 r22583"
   version="1.0"
   sodipodi:docname="trisquel.svg"
   inkscape:output_extension="org.inkscape.output.svg.inkscape"
   inkscape:export-filename="/home/ru/Escritorio/dibujo2.png"
   inkscape:export-xdpi="90"
   inkscape:export-ydpi="90"
   style="display:inline">
  <defs
     id="defs4">
    <linearGradient
       id="linearGradient3328">
      <stop
         id="stop3330"
         offset="0"
         style="stop-color: rgb(25, 55, 127); stop-opacity: 1;" />
      <stop
         style="stop-color: rgb(51, 101, 162); stop-opacity: 1;"
         offset="0.5"
         id="stop3332" />
      <stop
         id="stop3334"
         offset="1"
         style="stop-color: rgb(93, 157, 203); stop-opacity: 1;" />
    </linearGradient>
    <linearGradient
       id="linearGradient3397">
      <stop
         style="stop-color: rgb(33, 92, 33); stop-opacity: 1;"
         offset="0"
         id="stop3399" />
      <stop
         style="stop-color: rgb(33, 92, 33); stop-opacity: 0;"
         offset="1"
         id="stop3401" />
    </linearGradient>
    <linearGradient
       id="linearGradient3349">
      <stop
         style="stop-color: rgb(19, 107, 6); stop-opacity: 1;"
         offset="0"
         id="stop3351" />
      <stop
         style="stop-color: rgb(0, 0, 0); stop-opacity: 0;"
         offset="1"
         id="stop3353" />
    </linearGradient>
    <linearGradient
       id="linearGradient3317">
      <stop
         style="stop-color: rgb(218, 255, 0); stop-opacity: 0.603922;"
         offset="0"
         id="stop3319" />
      <stop
         style="stop-color: rgb(255, 243, 0); stop-opacity: 0;"
         offset="1"
         id="stop3321" />
    </linearGradient>
    <linearGradient
       id="linearGradient3307">
      <stop
         style="stop-color: rgb(0, 149, 255); stop-opacity: 1;"
         offset="0"
         id="stop3309" />
      <stop
         style="stop-color: rgb(19, 62, 88); stop-opacity: 0;"
         offset="1"
         id="stop3311" />
    </linearGradient>
    <linearGradient
       id="linearGradient3297">
      <stop
         id="stop3299"
         offset="0"
         style="stop-color: rgb(0, 0, 0); stop-opacity: 0.431507;" />
      <stop
         id="stop3301"
         offset="1"
         style="stop-color: rgb(255, 243, 0); stop-opacity: 0;" />
    </linearGradient>
    <linearGradient
       inkscape:collect="always"
       id="linearGradient3263">
      <stop
         style="stop-color: rgb(255, 243, 0); stop-opacity: 1;"
         offset="0"
         id="stop3265" />
      <stop
         style="stop-color: rgb(255, 243, 0); stop-opacity: 0;"
         offset="1"
         id="stop3267" />
    </linearGradient>
    <linearGradient
       id="linearGradient3175">
      <stop
         style="stop-color: rgb(0, 69, 0); stop-opacity: 1;"
         offset="0"
         id="stop3177" />
      <stop
         id="stop3433"
         offset="0.5"
         style="stop-color: rgb(56, 127, 0); stop-opacity: 1;" />
      <stop
         style="stop-color: rgb(155, 199, 0); stop-opacity: 1;"
         offset="1"
         id="stop3179" />
    </linearGradient>
    <inkscape:perspective
       sodipodi:type="inkscape:persp3d"
       inkscape:vp_x="0 : 526.18109 : 1"
       inkscape:vp_y="0 : 1000 : 0"
       inkscape:vp_z="744.09448 : 526.18109 : 1"
       inkscape:persp3d-origin="372.04724 : 350.78739 : 1"
       id="perspective10" />
    <radialGradient
       inkscape:collect="always"
       xlink:href="#linearGradient3263"
       id="radialGradient3271"
       cx="184.9425"
       cy="407.18372"
       fx="184.9425"
       fy="407.18372"
       r="124.72867"
       gradientTransform="matrix(1,0,0,3.8046,0,-1141.99)"
       gradientUnits="userSpaceOnUse" />
    <radialGradient
       inkscape:collect="always"
       xlink:href="#linearGradient3297"
       id="radialGradient3295"
       gradientUnits="userSpaceOnUse"
       gradientTransform="matrix(1,0,0,3.8046,0,-1141.99)"
       cx="184.9425"
       cy="407.18372"
       fx="184.9425"
       fy="407.18372"
       r="124.72867" />
    <linearGradient
       inkscape:collect="always"
       xlink:href="#linearGradient3317"
       id="linearGradient3325"
       x1="666.64209"
       y1="414.10834"
       x2="757.67969"
       y2="414.10834"
       gradientUnits="userSpaceOnUse"
       spreadMethod="reflect" />
    <radialGradient
       inkscape:collect="always"
       xlink:href="#linearGradient3397"
       id="radialGradient3403"
       cx="855.17987"
       cy="564.88666"
       fx="855.17987"
       fy="564.88666"
       r="194.26131"
       gradientTransform="matrix(1,0,0,0.619926,0,214.699)"
       gradientUnits="userSpaceOnUse" />
    <inkscape:perspective
       id="perspective2420"
       inkscape:persp3d-origin="372.04724 : 350.78739 : 1"
       inkscape:vp_z="744.09448 : 526.18109 : 1"
       inkscape:vp_y="0 : 1000 : 0"
       inkscape:vp_x="0 : 526.18109 : 1"
       sodipodi:type="inkscape:persp3d" />
    <inkscape:perspective
       id="perspective2482"
       inkscape:persp3d-origin="372.04724 : 350.78739 : 1"
       inkscape:vp_z="744.09448 : 526.18109 : 1"
       inkscape:vp_y="0 : 1000 : 0"
       inkscape:vp_x="0 : 526.18109 : 1"
       sodipodi:type="inkscape:persp3d" />
    <inkscape:perspective
       id="perspective2535"
       inkscape:persp3d-origin="372.04724 : 350.78739 : 1"
       inkscape:vp_z="744.09448 : 526.18109 : 1"
       inkscape:vp_y="0 : 1000 : 0"
       inkscape:vp_x="0 : 526.18109 : 1"
       sodipodi:type="inkscape:persp3d" />
    <inkscape:perspective
       id="perspective3266"
       inkscape:persp3d-origin="372.04724 : 350.78739 : 1"
       inkscape:vp_z="744.09448 : 526.18109 : 1"
       inkscape:vp_y="0 : 1000 : 0"
       inkscape:vp_x="0 : 526.18109 : 1"
       sodipodi:type="inkscape:persp3d" />
    <inkscape:perspective
       id="perspective3317"
       inkscape:persp3d-origin="372.04724 : 350.78739 : 1"
       inkscape:vp_z="744.09448 : 526.18109 : 1"
       inkscape:vp_y="0 : 1000 : 0"
       inkscape:vp_x="0 : 526.18109 : 1"
       sodipodi:type="inkscape:persp3d" />
    <inkscape:perspective
       id="perspective2492"
       inkscape:persp3d-origin="372.04724 : 350.78739 : 1"
       inkscape:vp_z="744.09448 : 526.18109 : 1"
       inkscape:vp_y="0 : 1000 : 0"
       inkscape:vp_x="0 : 526.18109 : 1"
       sodipodi:type="inkscape:persp3d" />
    <inkscape:perspective
       id="perspective3203"
       inkscape:persp3d-origin="372.04724 : 350.78739 : 1"
       inkscape:vp_z="744.09448 : 526.18109 : 1"
       inkscape:vp_y="0 : 1000 : 0"
       inkscape:vp_x="0 : 526.18109 : 1"
       sodipodi:type="inkscape:persp3d" />
    <linearGradient
       inkscape:collect="always"
       xlink:href="#linearGradient3328"
       id="linearGradient3234"
       gradientUnits="userSpaceOnUse"
       x1="-9.0727692"
       y1="-863.40924"
       x2="1178.7058"
       y2="-863.40924" />
    <inkscape:perspective
       id="perspective2494"
       inkscape:persp3d-origin="372.04724 : 350.78739 : 1"
       inkscape:vp_z="744.09448 : 526.18109 : 1"
       inkscape:vp_y="0 : 1000 : 0"
       inkscape:vp_x="0 : 526.18109 : 1"
       sodipodi:type="inkscape:persp3d" />
    <inkscape:perspective
       id="perspective2466"
       inkscape:persp3d-origin="372.04724 : 350.78739 : 1"
       inkscape:vp_z="744.09448 : 526.18109 : 1"
       inkscape:vp_y="0 : 1000 : 0"
       inkscape:vp_x="0 : 526.18109 : 1"
       sodipodi:type="inkscape:persp3d" />
    <linearGradient
       gradientUnits="userSpaceOnUse"
       y2="15.465387"
       x2="21.795116"
       y1="50.395214"
       x1="29.854376"
       id="linearGradient8126"
       xlink:href="#linearGradient8112"
       inkscape:collect="always" />
    <linearGradient
       gradientUnits="userSpaceOnUse"
       y2="2.4395995"
       x2="25.368185"
       y1="43.542542"
       x1="33.111675"
       id="linearGradient8118"
       xlink:href="#linearGradient8112"
       inkscape:collect="always" />
    <linearGradient
       gradientTransform="matrix(1,0,0,0.148144,0,40.8891)"
       y2="40"
       x2="21.875"
       y1="48.000977"
       x1="21.875"
       gradientUnits="userSpaceOnUse"
       id="linearGradient19872"
       xlink:href="#linearGradient2804"
       inkscape:collect="always" />
    <radialGradient
       r="5"
       fy="44"
       fx="1"
       cy="44"
       cx="1"
       gradientTransform="matrix(2,0,0,0.8,21.2275,10.5291)"
       gradientUnits="userSpaceOnUse"
       id="radialGradient19870"
       xlink:href="#linearGradient2781"
       inkscape:collect="always" />
    <radialGradient
       r="5"
       fy="44"
       fx="1"
       cy="44"
       cx="1"
       gradientTransform="matrix(2,0,0,0.8,-25.2401,-80.9291)"
       gradientUnits="userSpaceOnUse"
       id="radialGradient19868"
       xlink:href="#linearGradient2781"
       inkscape:collect="always" />
    <radialGradient
       gradientUnits="userSpaceOnUse"
       gradientTransform="matrix(1,0,0,0.988712,-0.422072,11.2351)"
       r="20.928947"
       fy="23.145077"
       fx="73.570084"
       cy="23.145077"
       cx="73.570084"
       id="radialGradient19858"
       xlink:href="#linearGradient2781"
       inkscape:collect="always" />
    <linearGradient
       gradientTransform="translate(-0.860148,-1.86342)"
       gradientUnits="userSpaceOnUse"
       y2="52.45615"
       x2="77.480881"
       y1="16.647184"
       x1="77.297218"
       id="linearGradient15953"
       xlink:href="#linearGradient2782"
       inkscape:collect="always" />
    <linearGradient
       y2="15.676654"
       x2="8.1771841"
       y1="5.7791729"
       x1="8.1771841"
       gradientTransform="matrix(3.30877,0,0,3.35829,-5.96997,-6.33588)"
       gradientUnits="userSpaceOnUse"
       id="linearGradient8141"
       xlink:href="#linearGradient5106"
       inkscape:collect="always" />
    <linearGradient
       y2="40"
       x2="21.875"
       y1="48.000977"
       x1="21.875"
       gradientUnits="userSpaceOnUse"
       id="linearGradient2831"
       xlink:href="#linearGradient2804"
       inkscape:collect="always" />
    <radialGradient
       r="5"
       fy="44"
       fx="1"
       cy="44"
       cx="1"
       gradientTransform="matrix(2,0,0,0.8,36,8.8)"
       gradientUnits="userSpaceOnUse"
       id="radialGradient2829"
       xlink:href="#linearGradient2781"
       inkscape:collect="always" />
    <radialGradient
       r="5"
       fy="44"
       fx="1"
       cy="44"
       cx="1"
       gradientTransform="matrix(2,0,0,0.8,-13,-79.2)"
       gradientUnits="userSpaceOnUse"
       id="radialGradient2827"
       xlink:href="#linearGradient2781"
       inkscape:collect="always" />
    <linearGradient
       gradientUnits="userSpaceOnUse"
       y2="55.265625"
       x2="29.03125"
       y1="23.265625"
       x1="26.0625"
       id="linearGradient2788"
       xlink:href="#linearGradient2782"
       inkscape:collect="always" />
    <linearGradient
       y2="15.676654"
       x2="8.1771841"
       y1="5.7791729"
       x1="8.1771841"
       gradientTransform="matrix(3.13717,0,0,3.18412,-1.60668,-4.86106)"
       gradientUnits="userSpaceOnUse"
       id="linearGradient2780"
       xlink:href="#linearGradient5106"
       inkscape:collect="always" />
    <linearGradient
       id="linearGradient5106">
      <stop
         id="stop5108"
         offset="0"
         style="stop-color: rgb(114, 159, 207); stop-opacity: 1;" />
      <stop
         id="stop5110"
         offset="1"
         style="stop-color: rgb(56, 110, 166); stop-opacity: 1;" />
    </linearGradient>
    <linearGradient
       id="linearGradient2782"
       inkscape:collect="always">
      <stop
         id="stop2784"
         offset="0"
         style="stop-color: white; stop-opacity: 1;" />
      <stop
         id="stop2786"
         offset="1"
         style="stop-color: white; stop-opacity: 0;" />
    </linearGradient>
    <linearGradient
       id="linearGradient2781"
       inkscape:collect="always">
      <stop
         id="stop2783"
         offset="0"
         style="stop-color: black; stop-opacity: 1;" />
      <stop
         id="stop2785"
         offset="1"
         style="stop-color: black; stop-opacity: 0;" />
    </linearGradient>
    <linearGradient
       id="linearGradient2804">
      <stop
         id="stop2806"
         offset="0"
         style="stop-color: black; stop-opacity: 0;" />
      <stop
         style="stop-color: black; stop-opacity: 1;"
         offset="0.5"
         id="stop2812" />
      <stop
         id="stop2808"
         offset="1"
         style="stop-color: black; stop-opacity: 0;" />
    </linearGradient>
    <linearGradient
       id="linearGradient7100">
      <stop
         id="stop7102"
         offset="0"
         style="stop-color: rgb(0, 0, 0); stop-opacity: 1;" />
      <stop
         id="stop7104"
         offset="1"
         style="stop-color: rgb(255, 255, 255); stop-opacity: 1;" />
    </linearGradient>
    <linearGradient
       id="linearGradient7108">
      <stop
         id="stop7110"
         offset="0"
         style="stop-color: rgb(0, 0, 0); stop-opacity: 1;" />
      <stop
         id="stop7112"
         offset="1"
         style="stop-color: rgb(255, 255, 255); stop-opacity: 1;" />
    </linearGradient>
    <linearGradient
       id="linearGradient8112"
       inkscape:collect="always">
      <stop
         id="stop8114"
         offset="0"
         style="stop-color: rgb(255, 255, 255); stop-opacity: 1;" />
      <stop
         id="stop8116"
         offset="1"
         style="stop-color: rgb(255, 255, 255); stop-opacity: 0;" />
    </linearGradient>
    <inkscape:perspective
       id="perspective2671"
       inkscape:persp3d-origin="24 : 16 : 1"
       inkscape:vp_z="48 : 24 : 1"
       inkscape:vp_y="0 : 1000 : 0"
       inkscape:vp_x="0 : 24 : 1"
       sodipodi:type="inkscape:persp3d" />
    <linearGradient
       inkscape:collect="always"
       xlink:href="#linearGradient8112"
       id="linearGradient3531"
       gradientUnits="userSpaceOnUse"
       x1="33.111675"
       y1="43.542542"
       x2="25.368185"
       y2="2.4395995" />
    <linearGradient
       inkscape:collect="always"
       xlink:href="#linearGradient8112"
       id="linearGradient3533"
       gradientUnits="userSpaceOnUse"
       x1="29.854376"
       y1="50.395214"
       x2="21.795116"
       y2="15.465387" />
  </defs>
  <sodipodi:namedview
     id="base"
     pagecolor="#ffffff"
     bordercolor="#666666"
     borderopacity="1.0"
     inkscape:pageopacity="0.0"
     inkscape:pageshadow="2"
     inkscape:zoom="0.14028018"
     inkscape:cx="1761.5009"
     inkscape:cy="1018.1128"
     inkscape:document-units="px"
     inkscape:current-layer="svg2"
     showgrid="false"
     width="1024px"
     borderlayer="true"
     inkscape:window-width="1022"
     inkscape:window-height="747"
     inkscape:window-x="0"
     inkscape:window-y="19"
     showguides="true"
     inkscape:guide-bbox="true"
     inkscape:window-maximized="0" />
  <metadata
     id="metadata7">
    <rdf:RDF>
      <cc:Work
         rdf:about="">
        <dc:format>image/svg+xml</dc:format>
        <dc:type
           rdf:resource="http://purl.org/dc/dcmitype/StillImage" />
        <dc:title></dc:title>
      </cc:Work>
    </rdf:RDF>
  </metadata>
  <g
     inkscape:label="Layer 1"
     id="g2712"
     transform="matrix(23.617374,0,0,23.877594,-51.288611,-37.423005)">
    <path
       id="path12028"
       d="M 27.865252,43.710325 C 26.7523,43.559574 25.528128,43.260721 24.984834,43.007141 23.729072,42.421025 22.527464,41.588657 22.099265,41.008269 21.987069,40.856188 21.708587,40.584686 21.48041,40.40493 20.573319,39.6903 20.043433,38.937914 18.962163,36.829248 c -0.122848,-0.239579 -0.506672,-2.179445 -0.647948,-3.274782 -0.111637,-0.865575 -0.102664,-2.594916 0.01758,-3.386468 0.149209,-0.98217 0.453987,-2.273875 0.601636,-2.549743 0.124252,-0.232181 0.432997,-1.232238 0.528963,-1.713436 0.03626,-0.181798 0.117594,-0.394288 0.180747,-0.472201 0.06314,-0.07791 0.193466,-0.417897 0.289601,-0.75552 0.09614,-0.337624 0.320229,-0.908117 0.497998,-1.267764 0.39813,-0.805485 0.585236,-1.405639 0.586576,-1.881444 5.72e-4,-0.199774 0.07085,-0.603415 0.156193,-0.896979 0.208969,-0.718813 0.128414,-2.742869 -0.139637,-3.509021 -0.203585,-0.581868 -0.70075,-1.559055 -1.223132,-2.404076 -1.082337,-1.750835 -4.176002,-3.904982 -6.017066,-4.189741 -0.705743,-0.109157 -3.041579,0.01163 -4.0456496,0.209202 -0.8596218,0.169148 -1.6693288,0.545347 -2.0844308,0.968451 -1.064728,1.085229 -1.686977,1.818373 -1.932139,2.276456 -0.353639,0.660795 -0.572934,1.674412 -0.633109,2.926421 -0.068369,1.422819 -0.00892,1.720251 0.622093,3.111916 0.532527,1.174452 1.964614,2.360996 3.5401098,2.933118 0.735408,0.267055 1.0154246,0.316591 2.0776806,0.367548 1.464913,0.07027 2.089269,-0.03592 2.745892,-0.467019 0.255787,-0.167938 0.656323,-0.417662 0.890054,-0.554942 1.066912,-0.626613 1.624162,-1.808353 1.619623,-3.43469 -0.0028,-1.008064 -0.362054,-1.918894 -0.970856,-2.461533 -0.37857,-0.337431 -1.714223,-1.14108 -2.102339,-1.264958 -0.676183,-0.215821 -1.548497,-0.07892 -2.479336,0.389098 -0.453142,0.227836 -0.904412,0.524499 -1.002835,0.659251 -0.098411,0.134753 -0.3213076,0.62348 -0.4953056,1.086061 -0.17401,0.462582 -0.351272,0.841058 -0.393916,0.841058 -0.1691988,0 -0.1258128,-0.733634 0.076692,-1.297072 0.289692,-0.805976 0.580633,-1.225328 1.1544376,-1.663906 0.646855,-0.494424 1.281057,-0.738891 2.13839,-0.824292 1.114694,-0.111037 1.289276,-0.0798 2.253447,0.403159 1.121717,0.561869 1.460725,0.893284 2.014489,1.969346 0.661031,1.284493 0.742002,1.637979 0.595446,2.599448 -0.166559,1.092661 -0.541045,2.196775 -0.976968,2.880396 -0.397467,0.623316 -1.138468,1.191123 -2.469803,1.892539 -0.954847,0.503057 -1.280875,0.590881 -2.54989,0.686862 -1.3887396,0.105038 -2.1983176,0.01486 -3.2581804,-0.362922 -0.467474,-0.166631 -1.048888,-0.359869 -1.292021,-0.429414 -0.324078,-0.09271 -0.743342,-0.380392 -1.5711,-1.078071 -1.420669,-1.197412 -1.648937,-1.58457 -1.925052,-3.265031 -0.102416,-0.623305 -0.199605,-1.438669 -0.215978,-1.81192 -0.016374,-0.373251 -0.056261,-0.721519 -0.088657,-0.77393 -0.067758,-0.109626 0.089476,-2.008475 0.247269,-2.986115 0.130078,-0.805955 0.189578,-0.928503 1.119207,-2.305166 0.551709,-0.816991 0.914464,-1.240149 1.430032,-1.668144 1.667053,-1.3838699 2.756153,-1.9576709 4.6493404,-2.4495299 1.312647,-0.341033 1.316094,-0.341384 2.92764,-0.298571 1.704327,0.045279 2.611509,0.151723 3.224147,0.378307 4.142982,1.532264 5.77721,2.8737519 7.899863,6.4847629 0.678784,1.154732 1.32681,1.980197 2.498103,3.182101 0.861936,0.884467 1.137778,1.106289 1.688252,1.357648 0.887192,0.405115 1.925051,0.552633 3.916456,0.556667 1.896492,0.0038 2.614135,-0.139766 3.440892,-0.688564 0.262941,-0.174537 0.690033,-0.411069 0.949098,-0.525627 0.259065,-0.114558 0.556547,-0.285163 0.661083,-0.379121 0.104524,-0.09396 0.42379,-0.29356 0.709476,-0.443556 0.656025,-0.344449 1.42167,-1.111788 1.70127,-1.705038 0.336733,-0.714501 0.851858,-1.5632 1.137401,-1.873931 0.19465,-0.211812 0.284347,-0.441122 0.355382,-0.908554 0.05227,-0.343878 0.184168,-0.799976 0.293126,-1.013551 0.273812,-0.536709 0.366423,-1.670696 0.167807,-2.0547719 -0.08092,-0.156472 -0.208033,-0.607085 -0.282475,-1.001359 -0.26428,-1.399635 -1.648911,-3.032054 -3.237932,-3.817395 -0.576328,-0.284837 -0.820749,-0.345481 -1.721103,-0.427039 -1.871158,-0.169496 -3.240937,0.119258 -4.319905,0.910652 -1.019652,0.747887 -1.459893,1.116824 -1.459893,1.223432 0,0.111678 -0.469815,0.660474 -0.619492,0.723625 -0.207343,0.087491 -0.60823,0.753695 -0.60823,1.010791 0,0.152688 -0.08309,0.46544 -0.184636,0.695004 -0.387219,0.875382 -0.319331,1.5844019 0.292423,3.0536849 0.348021,0.835859 0.454625,1.030992 0.799707,1.463822 0.462636,0.580263 0.949006,0.849182 1.810527,1.001052 1.002484,0.176716 1.504409,0.163963 2.138936,-0.05435 1.254578,-0.431636 2.127986,-1.167898 2.579476,-2.174427 0.203116,-0.452821 0.228125,-0.622633 0.19504,-1.324403 -0.03327,-0.705395 -0.07787,-0.874807 -0.36061,-1.3693809 -0.17747,-0.310419 -0.487606,-0.743524 -0.689214,-0.962456 -0.201607,-0.218932 -0.351792,-0.442358 -0.333741,-0.496504 0.05236,-0.157084 1.002173,0.535564 1.302022,0.9495 0.459866,0.634827 0.607619,1.2723869 0.540226,2.3312079 -0.07399,1.162432 -0.391277,1.84193 -1.288705,2.759812 -0.6924,0.708178 -1.388012,1.04873 -2.548705,1.247767 -0.944703,0.161997 -2.14423,-0.05862 -2.901643,-0.533675 -0.918197,-0.575899 -1.49026,-1.166179 -2.011953,-2.076003 -0.428575,-0.747453 -0.50913,-0.978697 -0.70733,-2.030505 -0.236123,-1.2530869 -0.235655,-2.2758099 0.0012,-2.5562829 0.06579,-0.077913 0.16964,-0.386449 0.230778,-0.685635 0.06114,-0.299187 0.206576,-0.66042 0.323207,-0.802741 0.116631,-0.142321 0.348424,-0.545355 0.515112,-0.895632 0.245201,-0.515299 0.374669,-0.673404 0.678237,-0.82827 0.206342,-0.105273 0.375176,-0.233726 0.375176,-0.285453 0,-0.051727 0.145438,-0.163399 0.323181,-0.248163 0.177756,-0.084764 0.343924,-0.23342 0.369271,-0.33035 0.02719,-0.104005 0.272122,-0.275367 0.597605,-0.418114 0.303348,-0.133034 0.782825,-0.350242 1.065534,-0.482682 0.282695,-0.132442 1.068915,-0.378033 1.747139,-0.54576 1.172477,-0.289958 1.288887,-0.301648 2.366412,-0.237649 1.082076,0.064269 1.158417,0.082714 1.689357,0.408196 0.305831,0.187487 0.709567,0.39059 0.897181,0.451342 0.187613,0.060751 0.673373,0.348973 1.079475,0.640493 0.406102,0.291518 0.880443,0.615966 1.05409,0.720994 0.173646,0.105026 0.596005,0.478229 0.938589,0.829339 0.710972,0.728694 1.456979,2.087381 1.702441,3.100622 0.08009,0.330595 0.230414,0.89857 0.334053,1.262165 0.161226,0.5656749 0.180214,0.8314469 0.131496,1.8415809 -0.151706,3.146102 -1.22161,5.567566 -3.293556,7.45422 -0.259702,0.236482 -0.780771,0.736675 -1.157923,1.111537 -0.763188,0.758554 -1.673803,1.385104 -2.808551,1.932441 -0.415544,0.200429 -0.991651,0.488337 -1.280264,0.639797 -0.882082,0.462918 -2.231143,0.667017 -4.408861,0.667017 -2.130041,0 -2.366541,0.03229 -4.811777,0.656928 -0.874734,0.223454 -1.162007,0.344996 -1.666858,0.705255 -0.853783,0.609246 -1.838853,1.878368 -2.607841,3.359822 -0.121326,0.233738 -0.296559,0.509976 -0.389404,0.61386 -0.307743,0.344362 -0.545622,1.050579 -0.562113,1.668854 -0.04061,1.522775 0.02199,4.223809 0.105798,4.564192 0.129961,0.52783 0.372041,1.083044 0.617659,1.416601 0.318498,0.432516 0.85083,1.405096 0.975004,1.781347 0.06667,0.201978 0.290615,0.486616 0.560969,0.712969 0.247503,0.207223 0.571854,0.552596 0.720777,0.767493 0.323675,0.467057 1.494097,1.101649 2.195288,1.190266 0.245591,0.03104 0.533229,0.11023 0.639196,0.17598 0.105967,0.06575 0.424699,0.167593 0.708305,0.226311 0.614915,0.127318 2.007063,-0.04731 2.810307,-0.352512 0.493809,-0.187634 1.658821,-0.868541 2.279159,-1.332082 0.464938,-0.347422 1.098398,-1.246947 1.284607,-1.824145 0.08794,-0.272617 0.211856,-0.580662 0.275347,-0.684547 0.327083,-0.535104 0.403918,-1.623506 0.247673,-3.508243 -0.05986,-0.72207 -0.137141,-1.071344 -0.31344,-1.416601 -0.128687,-0.252032 -0.332311,-0.663088 -0.452492,-0.913457 -0.367893,-0.766429 -2.139157,-2.048525 -2.850402,-2.063216 -0.118387,-0.0024 -0.50026,-0.06373 -0.848619,-0.136195 -0.668913,-0.139143 -1.645348,-0.06897 -2.049434,0.147286 -0.496788,0.265876 -1.131276,0.741153 -1.537547,1.151733 -0.361013,0.364849 -0.487359,0.588679 -0.684441,1.212552 -0.226239,0.71615 -0.236279,0.827567 -0.156934,1.741309 0.09698,1.116812 0.287338,1.633487 0.818447,2.22136 0.423607,0.468885 0.784451,0.665839 1.740481,0.94999 0.694273,0.206351 1.350648,0.21983 1.959762,0.04024 0.357697,-0.10546 0.235955,0.108997 -0.164347,0.289507 -0.565443,0.25498 -1.90107,0.157481 -2.782593,-0.203122 -0.881743,-0.360696 -1.649691,-1.072512 -2.058433,-1.90798 -0.294309,-0.601567 -0.306872,-0.673645 -0.306872,-1.760529 0,-1.080888 0.01347,-1.159477 0.291474,-1.699921 0.160303,-0.311653 0.389494,-0.757768 0.509299,-0.991369 0.119804,-0.2336 0.4675,-0.665268 0.772642,-0.959261 0.450424,-0.43394 0.692257,-0.582077 1.285063,-0.787168 1.631861,-0.564563 3.617985,-0.418169 4.838386,0.356626 1.11602,0.708525 2.094406,1.532797 2.466616,2.078083 0.683739,1.001676 1.178017,2.185864 1.249949,2.994632 0.03466,0.389566 0.101532,1.08124 0.148624,1.537054 0.08071,0.781387 0.06696,0.902835 -0.240727,2.124902 -0.480506,1.90851 -0.743342,2.415861 -1.67669,3.236431 -0.421995,0.371016 -0.925455,0.755835 -1.118791,0.855156 -0.193349,0.09932 -0.490831,0.300449 -0.661083,0.446952 -0.461622,0.397213 -1.337604,0.865753 -1.618609,0.865753 -0.13597,0 -0.513279,0.101392 -0.838475,0.225315 -0.642382,0.244807 -1.834756,0.537131 -2.115787,0.518715 -0.09646,-0.0063 -0.55786,-0.0633 -1.025334,-0.12662 z"
       style="opacity:0.50211002;fill:none;stroke:#002568;stroke-width:1.5;stroke-linecap:butt;stroke-linejoin:round;stroke-miterlimit:4;stroke-opacity:1;stroke-dasharray:none;stroke-dashoffset:0;marker:none;visibility:visible;display:inline;overflow:visible" />
    <path
       id="path2243"
       d="M 27.865254,43.710325 C 26.752302,43.559574 25.52813,43.260721 24.984836,43.007141 23.729074,42.421025 22.527466,41.588657 22.099267,41.008269 21.987071,40.856188 21.708589,40.584686 21.480412,40.40493 20.573321,39.6903 20.043435,38.937914 18.962165,36.829248 18.839317,36.589669 18.455493,34.649803 18.314217,33.554466 18.20258,32.688891 18.211553,30.95955 18.3318,30.167998 c 0.149209,-0.98217 0.453987,-2.273875 0.601636,-2.549743 0.124252,-0.232181 0.432997,-1.232238 0.528963,-1.713436 0.03626,-0.181798 0.117594,-0.394288 0.180747,-0.472201 0.06314,-0.07791 0.193466,-0.417897 0.289601,-0.75552 0.09614,-0.337624 0.320229,-0.908117 0.497998,-1.267764 0.39813,-0.805485 0.585236,-1.405639 0.586576,-1.881444 5.72e-4,-0.199774 0.07085,-0.603415 0.156193,-0.896979 0.208969,-0.718813 0.128414,-2.742869 -0.139637,-3.509021 -0.203585,-0.581868 -0.70075,-1.559055 -1.223132,-2.404076 -1.082337,-1.750836 -4.176002,-3.904983 -6.017066,-4.189742 -0.705743,-0.109157 -3.041579,0.01163 -4.0456496,0.209202 -0.8596218,0.169148 -1.6693288,0.545347 -2.0844308,0.968451 -1.064728,1.085229 -1.686977,1.818373 -1.932139,2.276457 -0.353639,0.660795 -0.572934,1.674412 -0.633109,2.926421 -0.068369,1.422819 -0.00892,1.720251 0.622093,3.111916 0.532527,1.174452 1.964614,2.360996 3.5401098,2.933118 0.735408,0.267055 1.0154246,0.316591 2.0776806,0.367548 1.464913,0.07027 2.089269,-0.03592 2.745892,-0.467019 0.255787,-0.167938 0.656323,-0.417662 0.890054,-0.554942 1.066912,-0.626613 1.624162,-1.808353 1.619623,-3.43469 -0.0028,-1.008064 -0.362054,-1.918894 -0.970856,-2.461533 -0.37857,-0.337431 -1.714223,-1.14108 -2.102339,-1.264958 -0.676183,-0.215821 -1.548497,-0.07892 -2.479336,0.389098 -0.453142,0.227836 -0.904412,0.524499 -1.002835,0.659251 -0.098411,0.134753 -0.3213076,0.62348 -0.4953056,1.086061 -0.17401,0.462582 -0.351272,0.841058 -0.393916,0.841058 -0.1691988,0 -0.1258128,-0.733634 0.076692,-1.297072 0.289692,-0.805976 0.580633,-1.225328 1.1544376,-1.663906 0.646855,-0.494424 1.281057,-0.738891 2.13839,-0.824292 1.114694,-0.111037 1.289276,-0.0798 2.253447,0.403159 1.121717,0.561869 1.460725,0.893284 2.014489,1.969346 0.661031,1.284493 0.742002,1.637979 0.595446,2.599448 -0.166559,1.092661 -0.541045,2.196775 -0.976968,2.880396 -0.397467,0.623316 -1.138468,1.191123 -2.469803,1.892539 -0.954847,0.503057 -1.280875,0.590881 -2.54989,0.686862 -1.3887396,0.105038 -2.1983176,0.01486 -3.2581804,-0.362922 -0.467474,-0.166631 -1.048888,-0.359869 -1.292021,-0.429414 -0.324078,-0.09271 -0.743342,-0.380392 -1.5711,-1.078071 -1.420669,-1.197412 -1.648937,-1.58457 -1.925052,-3.265031 -0.102416,-0.623305 -0.199605,-1.438669 -0.215978,-1.81192 -0.016374,-0.373251 -0.056261,-0.721519 -0.088657,-0.77393 -0.067758,-0.109626 0.089476,-2.008475 0.247269,-2.986115 0.130078,-0.805956 0.189578,-0.928504 1.119207,-2.305167 0.551709,-0.816991 0.914464,-1.240149 1.430032,-1.668144 1.667053,-1.3838699 2.756153,-1.9576709 4.6493404,-2.4495299 1.312647,-0.341033 1.316094,-0.341384 2.92764,-0.298571 1.704327,0.045279 2.611509,0.151723 3.224147,0.378307 4.142982,1.532264 5.77721,2.8737519 7.899863,6.4847639 0.678784,1.154732 1.32681,1.980197 2.498103,3.182101 0.861936,0.884467 1.137778,1.106289 1.688252,1.357648 0.887192,0.405115 1.925051,0.552633 3.916456,0.556667 1.896492,0.0038 2.614135,-0.139766 3.440892,-0.688564 0.262941,-0.174537 0.690033,-0.411069 0.949098,-0.525627 0.259065,-0.114558 0.556548,-0.285163 0.661078,-0.379121 0.10453,-0.09396 0.42379,-0.29356 0.70948,-0.443556 0.65603,-0.344449 1.42167,-1.111788 1.70127,-1.705038 0.33673,-0.714501 0.85186,-1.5632 1.1374,-1.873932 0.19465,-0.211812 0.28435,-0.441122 0.35538,-0.908554 0.05227,-0.343878 0.18417,-0.799976 0.29313,-1.013551 0.27381,-0.536709 0.36642,-1.670696 0.16781,-2.0547719 -0.08092,-0.156472 -0.20804,-0.607085 -0.28248,-1.001359 -0.26428,-1.399635 -1.64891,-3.032054 -3.23793,-3.817395 -0.57633,-0.284837 -0.82075,-0.345481 -1.721103,-0.427039 -1.871158,-0.169496 -3.240937,0.119258 -4.319905,0.910652 -1.019652,0.747887 -1.459893,1.116824 -1.459893,1.223432 0,0.111678 -0.469815,0.660474 -0.619492,0.723625 -0.207343,0.087491 -0.60823,0.753695 -0.60823,1.010791 0,0.152688 -0.08309,0.46544 -0.184636,0.695004 -0.387219,0.875382 -0.319331,1.5844019 0.292423,3.0536849 0.348021,0.835859 0.454625,1.030992 0.799707,1.463822 0.462636,0.580264 0.949006,0.849183 1.810527,1.001053 1.002484,0.176716 1.504409,0.163963 2.138936,-0.05435 1.254578,-0.431636 2.127986,-1.167899 2.579476,-2.174428 0.203116,-0.452821 0.228125,-0.622633 0.19504,-1.324403 -0.03327,-0.705395 -0.07787,-0.874807 -0.36061,-1.3693809 -0.17747,-0.310419 -0.487606,-0.743524 -0.689214,-0.962456 -0.201607,-0.218932 -0.351792,-0.442358 -0.333741,-0.496504 0.05236,-0.157084 1.002173,0.535564 1.302022,0.9495 0.459863,0.634827 0.607623,1.2723869 0.540223,2.3312079 -0.07398,1.162432 -0.391274,1.84193 -1.288702,2.759813 -0.6924,0.708178 -1.388012,1.04873 -2.548705,1.247767 -0.944703,0.161997 -2.14423,-0.05862 -2.901643,-0.533675 -0.918197,-0.575899 -1.49026,-1.16618 -2.011953,-2.076004 -0.428575,-0.747453 -0.50913,-0.978697 -0.70733,-2.030505 -0.236123,-1.2530869 -0.235655,-2.2758099 0.0012,-2.5562829 0.06579,-0.077913 0.16964,-0.386449 0.230778,-0.685635 0.06114,-0.299187 0.206576,-0.66042 0.323207,-0.802741 0.116631,-0.142321 0.348424,-0.545355 0.515112,-0.895632 0.245201,-0.515299 0.374669,-0.673404 0.678237,-0.82827 0.206342,-0.105273 0.375176,-0.233726 0.375176,-0.285453 0,-0.051727 0.145438,-0.163399 0.323181,-0.248163 0.177756,-0.084764 0.343924,-0.23342 0.369271,-0.33035 0.02719,-0.104005 0.272122,-0.275367 0.597605,-0.418114 0.303348,-0.133034 0.782825,-0.350241 1.065534,-0.482682 0.282695,-0.132441 1.068915,-0.378033 1.747139,-0.54576 1.172477,-0.289958 1.288887,-0.301647 2.366412,-0.237648 1.082077,0.064268 1.158417,0.082714 1.689357,0.408195 0.30583,0.187488 0.70957,0.390591 0.89718,0.451342 0.18761,0.060752 0.67337,0.348973 1.07948,0.640493 0.4061,0.291518 0.88044,0.615966 1.05409,0.720994 0.17364,0.105026 0.596,0.478229 0.93858,0.829339 0.71098,0.728694 1.45698,2.087381 1.70245,3.100622 0.08008,0.330595 0.23041,0.89857 0.33405,1.262165 0.16122,0.5656749 0.18021,0.8314469 0.13149,1.8415809 -0.1517,3.146103 -1.22161,5.567567 -3.29355,7.454221 -0.2597,0.236482 -0.78077,0.736675 -1.15792,1.111537 -0.76319,0.758554 -1.67381,1.385104 -2.80856,1.932441 -0.415539,0.200429 -0.991646,0.488337 -1.280259,0.639797 -0.882082,0.462918 -2.231143,0.667017 -4.408861,0.667017 -2.130041,0 -2.366541,0.03229 -4.811777,0.656928 -0.874734,0.223454 -1.162007,0.344996 -1.666858,0.705255 -0.853783,0.609246 -1.838853,1.878368 -2.607841,3.359822 -0.121326,0.233738 -0.296559,0.509976 -0.389404,0.61386 -0.307743,0.344362 -0.545622,1.050579 -0.562113,1.668854 -0.04061,1.522775 0.02199,4.223809 0.105798,4.564192 0.129961,0.52783 0.372041,1.083044 0.617659,1.416601 0.318498,0.432516 0.85083,1.405096 0.975004,1.781347 0.06667,0.201978 0.290615,0.486616 0.560969,0.712969 0.247503,0.207223 0.571854,0.552596 0.720777,0.767493 0.323675,0.467057 1.494097,1.101649 2.195288,1.190266 0.245591,0.03104 0.533229,0.11023 0.639196,0.17598 0.105967,0.06575 0.424699,0.167593 0.708305,0.226311 0.614915,0.127318 2.007063,-0.04731 2.810307,-0.352512 0.493809,-0.187634 1.658821,-0.868541 2.279159,-1.332082 0.464938,-0.347422 1.098398,-1.246947 1.284607,-1.824145 0.08794,-0.272617 0.211856,-0.580662 0.275347,-0.684547 0.327083,-0.535104 0.403918,-1.623506 0.247673,-3.508243 -0.05986,-0.72207 -0.137141,-1.071344 -0.31344,-1.416601 -0.128687,-0.252032 -0.332311,-0.663088 -0.452492,-0.913457 -0.367893,-0.766429 -2.139157,-2.048525 -2.850402,-2.063216 -0.118387,-0.0024 -0.50026,-0.06373 -0.848619,-0.136195 -0.668913,-0.139143 -1.645348,-0.06897 -2.049434,0.147286 -0.496788,0.265876 -1.131276,0.741153 -1.537547,1.151733 -0.361013,0.364849 -0.487359,0.588679 -0.684441,1.212552 -0.226239,0.71615 -0.236279,0.827567 -0.156934,1.741309 0.09698,1.116812 0.287338,1.633487 0.818447,2.22136 0.423607,0.468885 0.784451,0.665839 1.740481,0.94999 0.694273,0.206351 1.350648,0.21983 1.959762,0.04024 0.357697,-0.10546 0.235955,0.108997 -0.164347,0.289507 -0.565443,0.25498 -1.90107,0.157481 -2.782593,-0.203122 -0.881743,-0.360696 -1.649691,-1.072512 -2.058433,-1.90798 -0.294309,-0.601567 -0.306872,-0.673645 -0.306872,-1.760529 0,-1.080888 0.01347,-1.159477 0.291474,-1.699921 0.160303,-0.311653 0.389494,-0.757768 0.509299,-0.991369 0.119804,-0.2336 0.4675,-0.665268 0.772642,-0.959261 0.450424,-0.43394 0.692257,-0.582077 1.285063,-0.787168 1.631861,-0.564563 3.617985,-0.418169 4.838386,0.356626 1.11602,0.708525 2.094406,1.532797 2.466616,2.078083 0.683739,1.001676 1.178017,2.185864 1.249949,2.994632 0.03466,0.389566 0.101532,1.08124 0.148624,1.537054 0.08071,0.781387 0.06696,0.902835 -0.240727,2.124902 -0.480506,1.90851 -0.743342,2.415861 -1.67669,3.236431 -0.421995,0.371016 -0.925455,0.755835 -1.118791,0.855156 -0.193349,0.09932 -0.490831,0.300449 -0.661083,0.446952 -0.461622,0.397213 -1.337604,0.865753 -1.618609,0.865753 -0.13597,0 -0.513279,0.101392 -0.838475,0.225315 -0.642382,0.244807 -1.834756,0.537131 -2.115787,0.518715 -0.09646,-0.0063 -0.55786,-0.0633 -1.025334,-0.12662 z"
       style="fill:#004db1;fill-opacity:1;fill-rule:nonzero;stroke:none;stroke-width:1;marker:none;visibility:visible;display:inline;overflow:visible" />
    <path
       id="path7116"
       d="m 20.15625,24.125 21.3125,-4.84375 c 0.02465,-0.02278 0.07241,-0.07432 0.09375,-0.09375 2.07194,-1.886654 3.12955,-4.291397 3.28125,-7.4375 0.04872,-1.010134 0.03622,-1.278075 -0.125,-1.84375 C 44.61511,9.542655 44.455081,8.9555947 44.375,8.625 44.12953,7.611759 43.398481,6.2599439 42.6875,5.53125 42.34492,5.18014 41.923641,4.8237759 41.75,4.71875 41.57635,4.613722 41.093599,4.2602679 40.6875,3.96875 40.28139,3.67723 39.812609,3.4045021 39.625,3.34375 39.43739,3.282999 39.024581,3.0937379 38.71875,2.90625 38.18781,2.580769 38.113329,2.5330179 37.03125,2.46875 c -1.077525,-0.063999 -1.202524,-0.039958 -2.375,0.25 -0.678224,0.167727 -1.467306,0.430059 -1.75,0.5625 C 32.623541,3.413691 32.147098,3.616966 31.84375,3.75 31.518267,3.892747 31.277193,4.0522448 31.25,4.15625 31.224653,4.25318 31.052757,4.4152359 30.875,4.5 c -0.177743,0.084764 -0.312499,0.1982732 -0.3125,0.25 0,0.051727 -0.168658,0.1759768 -0.375,0.28125 C 29.883932,5.186116 29.7452,5.3597009 29.5,5.875 29.333312,6.225277 29.11663,6.6076791 29,6.75 28.883369,6.892321 28.717388,7.263313 28.65625,7.5625 28.595112,7.861686 28.503293,8.172087 28.4375,8.25 c -0.236839,0.280473 -0.236123,1.309413 0,2.5625 0.1982,1.051808 0.258925,1.283797 0.6875,2.03125 0.521693,0.909824 1.113052,1.486601 2.03125,2.0625 0.757413,0.475051 1.961547,0.693247 2.90625,0.53125 1.160693,-0.199037 1.838849,-0.541822 2.53125,-1.25 0.897428,-0.917883 1.238521,-1.587568 1.3125,-2.75 0.0674,-1.058821 -0.102637,-1.7089234 -0.5625,-2.34375 -0.299849,-0.413936 -1.228891,-1.0945843 -1.28125,-0.9375 -0.01805,0.054146 0.110893,0.2810678 0.3125,0.5 0.201608,0.218932 0.510031,0.6583311 0.6875,0.96875 0.282735,0.494574 0.341733,0.638355 0.375,1.34375 0.03308,0.70177 0.01561,0.890929 -0.1875,1.34375 -0.45149,1.006529 -1.33917,1.724614 -2.59375,2.15625 -0.634527,0.21831 -1.122515,0.239216 -2.125,0.0625 -0.861521,-0.15187 -1.349864,-0.419736 -1.8125,-1 C 30.373668,13.09842 30.254271,12.898359 29.90625,12.0625 29.294496,10.593217 29.237781,9.9066318 29.625,9.03125 29.726545,8.801686 29.812499,8.4651882 29.8125,8.3125 c 0,-0.257096 0.386407,-0.9125089 0.59375,-1 0.149677,-0.063151 0.625001,-0.6070722 0.625,-0.71875 0,-0.106608 0.4491,-0.4708632 1.46875,-1.21875 1.078968,-0.791394 2.44134,-1.106996 4.3125,-0.9375 0.900353,0.081558 1.142422,0.1526628 1.71875,0.4375 1.58902,0.785341 2.985721,2.4128646 3.25,3.8125 0.07444,0.394274 0.200329,0.8435276 0.28125,1 0.19861,0.384076 0.08631,1.525791 -0.1875,2.0625 -0.10896,0.213575 -0.22898,0.687372 -0.28125,1.03125 -0.07103,0.467432 -0.180349,0.694438 -0.375,0.90625 -0.28554,0.310732 -0.788271,1.160499 -1.125,1.875 -0.2796,0.59325 -1.03147,1.34305 -1.6875,1.6875 -0.28569,0.149996 -0.614219,0.343541 -0.71875,0.4375 -0.10453,0.09396 -0.397187,0.260443 -0.65625,0.375 -0.259065,0.114558 -0.705808,0.356714 -0.96875,0.53125 -0.826757,0.548798 -1.541008,0.691343 -3.4375,0.6875 -1.991405,-0.004 -3.019058,-0.157384 -3.90625,-0.5625 -0.550474,-0.251359 -0.825564,-0.459283 -1.6875,-1.34375 -1.171293,-1.201904 -1.821215,-2.032768 -2.5,-3.1875 C 22.408597,10.576488 20.767982,9.251014 16.625,7.71875 16.012362,7.492166 15.110577,7.3890288 13.40625,7.34375 11.794704,7.300937 11.781397,7.2839672 10.46875,7.625 8.5755626,8.116859 7.5108031,8.7098801 5.84375,10.09375 5.328182,10.521745 4.9579588,10.933009 4.40625,11.75 c -0.929629,1.376663 -0.994922,1.506544 -1.125,2.3125 -0.157793,0.97764 -0.3177581,2.859123 -0.25,2.96875 0.032396,0.05241 0.077376,0.407998 0.09375,0.78125 0.016373,0.373251 0.1163341,1.189194 0.21875,1.8125 0.276115,1.680461 0.4855812,2.052588 1.90625,3.25 0.827758,0.697679 1.2696719,1.001043 1.59375,1.09375 0.243133,0.06955 0.8137761,0.270868 1.28125,0.4375 1.0598628,0.377782 1.8612603,0.448788 3.25,0.34375 1.269015,-0.09598 1.607653,-0.184444 2.5625,-0.6875 1.331335,-0.701416 2.071283,-1.251684 2.46875,-1.875 0.435923,-0.683621 0.802192,-1.782339 0.96875,-2.875 0.146556,-0.961469 0.06728,-1.340508 -0.59375,-2.625 -0.553764,-1.076062 -0.878283,-1.406881 -2,-1.96875 -0.964171,-0.482962 -1.135306,-0.486037 -2.25,-0.375 -0.857333,0.0854 -1.509395,0.318076 -2.15625,0.8125 -0.5738046,0.438578 -0.8665579,0.850274 -1.15625,1.65625 -0.2025048,0.563438 -0.2316991,1.312501 -0.0625,1.3125 0.042644,0 0.2009896,-0.381168 0.375,-0.84375 0.173998,-0.462581 0.4015895,-0.958997 0.5,-1.09375 0.09842,-0.134752 0.546858,-0.428414 1,-0.65625 0.930839,-0.46802 1.823817,-0.622071 2.5,-0.40625 0.388116,0.123878 1.71518,0.943818 2.09375,1.28125 0.608802,0.542639 0.965941,1.460686 0.96875,2.46875 0.0045,1.626337 -0.558088,2.810886 -1.625,3.4375 -0.233731,0.13728 -0.619213,0.363312 -0.875,0.53125 -0.656623,0.431101 -1.285087,0.539024 -2.75,0.46875 C 10.281494,23.261543 9.985408,23.235806 9.25,22.96875 7.6745042,22.396628 6.2512769,21.205702 5.71875,20.03125 c -0.631015,-1.391665 -0.6933689,-1.702182 -0.625,-3.125 0.060175,-1.252009 0.271361,-2.276705 0.625,-2.9375 0.245162,-0.458084 0.8727721,-1.164771 1.9375,-2.25 C 8.071352,11.295646 8.8903779,10.919148 9.75,10.75 c 1.004071,-0.197573 3.325507,-0.327907 4.03125,-0.21875 1.841064,0.284759 4.948913,2.436664 6.03125,4.1875 0.522382,0.845021 1.015166,1.824383 1.21875,2.40625 0.268051,0.766152 0.36522,2.781187 0.15625,3.5 -0.08534,0.293564 -0.155678,0.706477 -0.15625,0.90625 -0.0013,0.475805 -0.195619,1.069515 -0.59375,1.875 -0.09976,0.201826 -0.183113,0.462541 -0.28125,0.71875 z"
       style="opacity:0.797468;fill:url(#linearGradient3531);fill-opacity:1;fill-rule:nonzero;stroke:none;stroke-width:1;marker:none;visibility:visible;display:inline;overflow:visible" />
    <path
       id="path8099"
       d="m 20.15625,24.125 c -0.07674,0.200347 -0.176564,0.414343 -0.21875,0.5625 -0.09614,0.337623 -0.21811,0.672089 -0.28125,0.75 -0.06315,0.07791 -0.151241,0.286952 -0.1875,0.46875 -0.09597,0.481198 -0.406997,1.486568 -0.53125,1.71875 -0.147649,0.275868 -0.444541,1.549081 -0.59375,2.53125 -0.120247,0.791552 -0.142887,2.540675 -0.03125,3.40625 0.141276,1.095337 0.533401,3.041672 0.65625,3.28125 1.08127,2.108666 1.592909,2.84787 2.5,3.5625 0.228177,0.179756 0.512805,0.441668 0.625,0.59375 0.428199,0.580388 1.650487,1.413884 2.90625,2 0.543294,0.25358 1.762049,0.568001 2.875,0.71875 0.467474,0.06332 0.903539,0.11868 1,0.125 0.281031,0.01842 1.482619,-0.286443 2.125,-0.53125 0.325196,-0.123923 0.707779,-0.21875 0.84375,-0.21875 0.281005,0 1.163378,-0.477786 1.625,-0.875 0.170252,-0.146503 0.462901,-0.338178 0.65625,-0.4375 0.193336,-0.09932 0.703006,-0.472733 1.125,-0.84375 0.933348,-0.82057 1.175742,-1.341489 1.65625,-3.25 0.307691,-1.222067 0.33071,-1.343613 0.25,-2.125 C 37.109158,35.106686 37.034658,34.420814 37,34.03125 c -0.07193,-0.808768 -0.566261,-1.998325 -1.25,-3 -0.37221,-0.545286 -1.352732,-1.353976 -2.46875,-2.0625 -1.220401,-0.774795 -3.180638,-0.939563 -4.8125,-0.375 -0.592806,0.205091 -0.830826,0.347309 -1.28125,0.78125 -0.305142,0.293993 -0.661445,0.735149 -0.78125,0.96875 -0.119805,0.233601 -0.370947,0.688348 -0.53125,1 -0.278001,0.540444 -0.281251,0.606611 -0.28125,1.6875 0,1.086884 0.01819,1.148433 0.3125,1.75 0.408742,0.835468 1.180756,1.576806 2.0625,1.9375 0.881523,0.360603 2.215807,0.442479 2.78125,0.1875 0.400302,-0.18051 0.513947,-0.386709 0.15625,-0.28125 -0.609114,0.179588 -1.274477,0.143851 -1.96875,-0.0625 -0.95603,-0.284151 -1.295143,-0.468616 -1.71875,-0.9375 -0.531109,-0.587873 -0.71552,-1.10194 -0.8125,-2.21875 -0.07935,-0.913742 -0.06999,-1.03385 0.15625,-1.75 0.197082,-0.623873 0.295237,-0.8539 0.65625,-1.21875 0.406271,-0.41058 1.065713,-0.859123 1.5625,-1.125 0.404086,-0.216257 1.362337,-0.295393 2.03125,-0.15625 0.348359,0.07246 0.725362,0.122554 0.84375,0.125 0.711245,0.01469 2.507106,1.296071 2.875,2.0625 0.120181,0.250369 0.308812,0.654219 0.4375,0.90625 0.176299,0.345257 0.252636,0.715429 0.3125,1.4375 0.156245,1.884737 0.07708,2.964894 -0.25,3.5 -0.06349,0.103885 -0.19331,0.414885 -0.28125,0.6875 -0.186209,0.577198 -0.816314,1.465079 -1.28125,1.8125 -0.620338,0.463541 -1.78744,1.156118 -2.28125,1.34375 -0.803244,0.305204 -2.197585,0.471069 -2.8125,0.34375 -0.283606,-0.05872 -0.581532,-0.152998 -0.6875,-0.21875 -0.105967,-0.06575 -0.41066,-0.156461 -0.65625,-0.1875 -0.701191,-0.08862 -1.863824,-0.720443 -2.1875,-1.1875 -0.148923,-0.214897 -0.471248,-0.542775 -0.71875,-0.75 -0.270354,-0.226353 -0.495834,-0.516773 -0.5625,-0.71875 -0.124174,-0.376251 -0.650251,-1.348732 -0.96875,-1.78125 -0.245618,-0.333557 -0.495039,-0.87842 -0.625,-1.40625 -0.08381,-0.340383 -0.134366,-3.039725 -0.09375,-4.5625 0.01649,-0.618275 0.254756,-1.343139 0.5625,-1.6875 0.09285,-0.103884 0.253673,-0.360011 0.375,-0.59375 0.768988,-1.481454 1.771218,-2.765754 2.625,-3.375 0.504851,-0.360259 0.781516,-0.495296 1.65625,-0.71875 2.445236,-0.624641 2.682459,-0.656251 4.8125,-0.65625 2.177718,0 3.524169,-0.193333 4.40625,-0.65625 0.288613,-0.15146 0.865709,-0.424571 1.28125,-0.625 1.13475,-0.547337 2.049309,-1.178946 2.8125,-1.9375 0.346157,-0.344057 0.787225,-0.776833 1.0625,-1.03125 L 20.15625,24.125 z"
       style="opacity:0.36286902;fill:url(#linearGradient3533);fill-opacity:1;fill-rule:nonzero;stroke:none;stroke-width:1;marker:none;visibility:visible;display:inline;overflow:visible" />
  </g>
</svg>
