<?xml version="1.0" standalone="no"?>
<!DOCTYPE svg PUBLIC "-//W3C//DTD SVG 20010904//EN"
  "http://www.w3.org/TR/2001/REC-SVG-20010904/DTD/svg10.dtd">
<svg width="24" height="24">
  <circle cx="0" cy="0" r="1" fill="white"/>
  <circle cx="1" cy="0" r="1" fill="white"/>
  <circle cx="2" cy="0" r="1" fill="white"/>
  <circle cx="3" cy="0" r="1" fill="white"/>
  <circle cx="4" cy="0" r="1" fill="white"/>
  <circle cx="5" cy="0" r="1" fill="white"/>
  <circle cx="6" cy="0" r="1" fill="white"/>
  <circle cx="7" cy="0" r="1" fill="srgba(97.2717%,97.2717%,97.2717%,1)"/>
  <circle cx="8" cy="0" r="1" fill="srgba(87.2572%,87.2572%,87.2572%,1)"/>
  <circle cx="9" cy="0" r="1" fill="srgba(76.9574%,76.9574%,76.9574%,1)"/>
  <circle cx="10" cy="0" r="1" fill="srgba(70.4723%,70.4723%,70.4723%,1)"/>
  <circle cx="11" cy="0" r="1" fill="srgba(67.9744%,67.9744%,67.9744%,1)"/>
  <circle cx="12" cy="0" r="1" fill="srgba(67.4998%,67.4998%,67.4998%,1)"/>
  <circle cx="13" cy="0" r="1" fill="srgba(68.9509%,68.9509%,68.9509%,1)"/>
  <circle cx="14" cy="0" r="1" fill="srgba(74.9081%,74.9081%,74.9081%,1)"/>
  <circle cx="15" cy="0" r="1" fill="srgba(85.6474%,85.6474%,85.6474%,1)"/>
  <circle cx="16" cy="0" r="1" fill="srgba(96.759%,96.759%,96.759%,1)"/>
  <circle cx="17" cy="0" r="1" fill="white"/>
  <circle cx="18" cy="0" r="1" fill="white"/>
  <circle cx="19" cy="0" r="1" fill="white"/>
  <circle cx="20" cy="0" r="1" fill="white"/>
  <circle cx="21" cy="0" r="1" fill="white"/>
  <circle cx="22" cy="0" r="1" fill="white"/>
  <circle cx="23" cy="0" r="1" fill="white"/>
  <circle cx="0" cy="1" r="1" fill="white"/>
  <circle cx="1" cy="1" r="1" fill="white"/>
  <circle cx="2" cy="1" r="1" fill="white"/>
  <circle cx="3" cy="1" r="1" fill="white"/>
  <circle cx="4" cy="1" r="1" fill="white"/>
  <circle cx="5" cy="1" r="1" fill="srgba(97.4929%,97.4929%,97.4929%,1)"/>
  <circle cx="6" cy="1" r="1" fill="srgba(83.125%,83.125%,83.125%,1)"/>
  <circle cx="7" cy="1" r="1" fill="srgba(71.5145%,71.5145%,71.5145%,1)"/>
  <circle cx="8" cy="1" r="1" fill="srgba(70.9834%,70.9834%,70.9834%,1)"/>
  <circle cx="9" cy="1" r="1" fill="srgba(74.3969%,74.3969%,74.3969%,1)"/>
  <circle cx="10" cy="1" r="1" fill="srgba(84.889%,84.889%,84.889%,1)"/>
  <circle cx="11" cy="1" r="1" fill="srgba(89.1508%,89.1508%,89.1508%,1)"/>
  <circle cx="12" cy="1" r="1" fill="srgba(89.0929%,89.0929%,89.0929%,1)"/>
  <circle cx="13" cy="1" r="1" fill="srgba(85.7679%,85.7679%,85.7679%,1)"/>
  <circle cx="14" cy="1" r="1" fill="srgba(74.1512%,74.1512%,74.1512%,1)"/>
  <circle cx="15" cy="1" r="1" fill="srgba(67.512%,67.512%,67.512%,1)"/>
  <circle cx="16" cy="1" r="1" fill="srgba(66.8391%,66.8391%,66.8391%,1)"/>
  <circle cx="17" cy="1" r="1" fill="srgba(79.4812%,79.4812%,79.4812%,1)"/>
  <circle cx="18" cy="1" r="1" fill="srgba(96.6781%,96.6781%,96.6781%,1)"/>
  <circle cx="19" cy="1" r="1" fill="white"/>
  <circle cx="20" cy="1" r="1" fill="white"/>
  <circle cx="21" cy="1" r="1" fill="white"/>
  <circle cx="22" cy="1" r="1" fill="white"/>
  <circle cx="23" cy="1" r="1" fill="white"/>
  <circle cx="0" cy="2" r="1" fill="white"/>
  <circle cx="1" cy="2" r="1" fill="white"/>
  <circle cx="2" cy="2" r="1" fill="white"/>
  <circle cx="3" cy="2" r="1" fill="white"/>
  <circle cx="4" cy="2" r="1" fill="srgba(91.4778%,91.4778%,91.4778%,1)"/>
  <circle cx="5" cy="2" r="1" fill="srgba(72.2698%,72.2698%,72.2698%,1)"/>
  <circle cx="6" cy="2" r="1" fill="srgba(71.339%,71.339%,71.339%,1)"/>
  <circle cx="7" cy="2" r="1" fill="srgba(62.0783%,62.0783%,62.0783%,1)"/>
  <circle cx="8" cy="2" r="1" fill="srgba(41.4832%,41.4832%,41.4832%,1)"/>
  <circle cx="9" cy="2" r="1" fill="srgba(20.6531%,20.6531%,20.6531%,1)"/>
  <circle cx="10" cy="2" r="1" fill="srgba(63.3356%,63.3356%,63.3356%,1)"/>
  <circle cx="11" cy="2" r="1" fill="srgba(99.6384%,99.6384%,99.6384%,1)"/>
  <circle cx="12" cy="2" r="1" fill="srgba(99.6414%,99.6414%,99.6414%,1)"/>
  <circle cx="13" cy="2" r="1" fill="srgba(78.6191%,78.6191%,78.6191%,1)"/>
  <circle cx="14" cy="2" r="1" fill="srgba(23.2105%,23.2105%,23.2105%,1)"/>
  <circle cx="15" cy="2" r="1" fill="srgba(35.4086%,35.4086%,35.4086%,1)"/>
  <circle cx="16" cy="2" r="1" fill="srgba(55.8953%,55.8953%,55.8953%,1)"/>
  <circle cx="17" cy="2" r="1" fill="srgba(63.563%,63.563%,63.563%,1)"/>
  <circle cx="18" cy="2" r="1" fill="srgba(65.2262%,65.2262%,65.2262%,1)"/>
  <circle cx="19" cy="2" r="1" fill="srgba(88.4749%,88.4749%,88.4749%,1)"/>
  <circle cx="20" cy="2" r="1" fill="white"/>
  <circle cx="21" cy="2" r="1" fill="white"/>
  <circle cx="22" cy="2" r="1" fill="white"/>
  <circle cx="23" cy="2" r="1" fill="white"/>
  <circle cx="0" cy="3" r="1" fill="white"/>
  <circle cx="1" cy="3" r="1" fill="white"/>
  <circle cx="2" cy="3" r="1" fill="white"/>
  <circle cx="3" cy="3" r="1" fill="srgba(88.3055%,88.3055%,88.3055%,1)"/>
  <circle cx="4" cy="3" r="1" fill="srgba(70.4311%,70.4311%,70.4311%,1)"/>
  <circle cx="5" cy="3" r="1" fill="srgba(81.2497%,81.2497%,81.2497%,1)"/>
  <circle cx="6" cy="3" r="1" fill="srgba(42.7405%,42.7405%,42.7405%,1)"/>
  <circle cx="7" cy="3" r="1" fill="srgba(18.265%,18.265%,18.265%,1)"/>
  <circle cx="8" cy="3" r="1" fill="srgba(30.956%,30.956%,30.956%,1)"/>
  <circle cx="9" cy="3" r="1" fill="srgba(2.90684%,2.90684%,2.90684%,1)"/>
  <circle cx="10" cy="3" r="1" fill="srgba(48.3803%,48.3803%,48.3803%,1)"/>
  <circle cx="11" cy="3" r="1" fill="white"/>
  <circle cx="12" cy="3" r="1" fill="white"/>
  <circle cx="13" cy="3" r="1" fill="srgba(68.0888%,68.0888%,68.0888%,1)"/>
  <circle cx="14" cy="3" r="1" fill="srgba(3.54009%,3.54009%,3.54009%,1)"/>
  <circle cx="15" cy="3" r="1" fill="srgba(30.161%,30.161%,30.161%,1)"/>
  <circle cx="16" cy="3" r="1" fill="srgba(20.7065%,20.7065%,20.7065%,1)"/>
  <circle cx="17" cy="3" r="1" fill="srgba(30.4051%,30.4051%,30.4051%,1)"/>
  <circle cx="18" cy="3" r="1" fill="srgba(73.7209%,73.7209%,73.7209%,1)"/>
  <circle cx="19" cy="3" r="1" fill="srgba(62.565%,62.565%,62.565%,1)"/>
  <circle cx="20" cy="3" r="1" fill="srgba(83.5019%,83.5019%,83.5019%,1)"/>
  <circle cx="21" cy="3" r="1" fill="white"/>
  <circle cx="22" cy="3" r="1" fill="white"/>
  <circle cx="23" cy="3" r="1" fill="white"/>
  <circle cx="0" cy="4" r="1" fill="white"/>
  <circle cx="1" cy="4" r="1" fill="white"/>
  <circle cx="2" cy="4" r="1" fill="srgba(90.5394%,90.5394%,90.5394%,1)"/>
  <circle cx="3" cy="4" r="1" fill="srgba(70.3548%,70.3548%,70.3548%,1)"/>
  <circle cx="4" cy="4" r="1" fill="srgba(88.5863%,88.5863%,88.5863%,1)"/>
  <circle cx="5" cy="4" r="1" fill="srgba(74.0459%,74.0459%,74.0459%,1)"/>
  <circle cx="6" cy="4" r="1" fill="srgba(5.4612%,5.4612%,5.4612%,1)"/>
  <circle cx="7" cy="4" r="1" fill="srgba(49.662%,49.662%,49.662%,1)"/>
  <circle cx="8" cy="4" r="1" fill="srgba(83.0503%,83.0503%,83.0503%,1)"/>
  <circle cx="9" cy="4" r="1" fill="srgba(8.0415%,8.0415%,8.0415%,1)"/>
  <circle cx="10" cy="4" r="1" fill="srgba(48.333%,48.333%,48.333%,1)"/>
  <circle cx="11" cy="4" r="1" fill="white"/>
  <circle cx="12" cy="4" r="1" fill="white"/>
  <circle cx="13" cy="4" r="1" fill="srgba(68.1926%,68.1926%,68.1926%,1)"/>
  <circle cx="14" cy="4" r="1" fill="srgba(5.85794%,5.85794%,5.85794%,1)"/>
  <circle cx="15" cy="4" r="1" fill="srgba(76.1929%,76.1929%,76.1929%,1)"/>
  <circle cx="16" cy="4" r="1" fill="srgba(67.6265%,67.6265%,67.6265%,1)"/>
  <circle cx="17" cy="4" r="1" fill="srgba(4.19165%,4.19165%,4.19165%,1)"/>
  <circle cx="18" cy="4" r="1" fill="srgba(57.2915%,57.2915%,57.2915%,1)"/>
  <circle cx="19" cy="4" r="1" fill="srgba(89.1279%,89.1279%,89.1279%,1)"/>
  <circle cx="20" cy="4" r="1" fill="srgba(60.8011%,60.8011%,60.8011%,1)"/>
  <circle cx="21" cy="4" r="1" fill="srgba(85.8793%,85.8793%,85.8793%,1)"/>
  <circle cx="22" cy="4" r="1" fill="white"/>
  <circle cx="23" cy="4" r="1" fill="white"/>
  <circle cx="0" cy="5" r="1" fill="white"/>
  <circle cx="1" cy="5" r="1" fill="srgba(96.4584%,96.4584%,96.4584%,1)"/>
  <circle cx="2" cy="5" r="1" fill="srgba(71.7418%,71.7418%,71.7418%,1)"/>
  <circle cx="3" cy="5" r="1" fill="srgba(84.7807%,84.7807%,84.7807%,1)"/>
  <circle cx="4" cy="5" r="1" fill="srgba(97.9202%,97.9202%,97.9202%,1)"/>
  <circle cx="5" cy="5" r="1" fill="srgba(63.9185%,63.9185%,63.9185%,1)"/>
  <circle cx="6" cy="5" r="1" fill="srgba(4.29236%,4.29236%,4.29236%,1)"/>
  <circle cx="7" cy="5" r="1" fill="srgba(75.3933%,75.3933%,75.3933%,1)"/>
  <circle cx="8" cy="5" r="1" fill="srgba(85.4383%,85.4383%,85.4383%,1)"/>
  <circle cx="9" cy="5" r="1" fill="srgba(7.79736%,7.79736%,7.79736%,1)"/>
  <circle cx="10" cy="5" r="1" fill="srgba(48.4733%,48.4733%,48.4733%,1)"/>
  <circle cx="11" cy="5" r="1" fill="white"/>
  <circle cx="12" cy="5" r="1" fill="white"/>
  <circle cx="13" cy="5" r="1" fill="srgba(68.3742%,68.3742%,68.3742%,1)"/>
  <circle cx="14" cy="5" r="1" fill="srgba(5.77249%,5.77249%,5.77249%,1)"/>
  <circle cx="15" cy="5" r="1" fill="srgba(76.1471%,76.1471%,76.1471%,1)"/>
  <circle cx="16" cy="5" r="1" fill="srgba(90.2571%,90.2571%,90.2571%,1)"/>
  <circle cx="17" cy="5" r="1" fill="srgba(12.1599%,12.1599%,12.1599%,1)"/>
  <circle cx="18" cy="5" r="1" fill="srgba(43.2807%,43.2807%,43.2807%,1)"/>
  <circle cx="19" cy="5" r="1" fill="srgba(98.4665%,98.4665%,98.4665%,1)"/>
  <circle cx="20" cy="5" r="1" fill="srgba(84.2741%,84.2741%,84.2741%,1)"/>
  <circle cx="21" cy="5" r="1" fill="srgba(60.2365%,60.2365%,60.2365%,1)"/>
  <circle cx="22" cy="5" r="1" fill="srgba(94.229%,94.229%,94.229%,1)"/>
  <circle cx="23" cy="5" r="1" fill="white"/>
  <circle cx="0" cy="6" r="1" fill="white"/>
  <circle cx="1" cy="6" r="1" fill="srgba(80.5356%,80.5356%,80.5356%,1)"/>
  <circle cx="2" cy="6" r="1" fill="srgba(77.1008%,77.1008%,77.1008%,1)"/>
  <circle cx="3" cy="6" r="1" fill="srgba(94.4915%,94.4915%,94.4915%,1)"/>
  <circle cx="4" cy="6" r="1" fill="white"/>
  <circle cx="5" cy="6" r="1" fill="srgba(62.4475%,62.4475%,62.4475%,1)"/>
  <circle cx="6" cy="6" r="1" fill="srgba(4.67842%,4.67842%,4.67842%,1)"/>
  <circle cx="7" cy="6" r="1" fill="srgba(76.9131%,76.9131%,76.9131%,1)"/>
  <circle cx="8" cy="6" r="1" fill="srgba(85.3346%,85.3346%,85.3346%,1)"/>
  <circle cx="9" cy="6" r="1" fill="srgba(8.4184%,8.4184%,8.4184%,1)"/>
  <circle cx="10" cy="6" r="1" fill="srgba(50.3334%,50.3334%,50.3334%,1)"/>
  <circle cx="11" cy="6" r="1" fill="white"/>
  <circle cx="12" cy="6" r="1" fill="white"/>
  <circle cx="13" cy="6" r="1" fill="srgba(70.1579%,70.1579%,70.1579%,1)"/>
  <circle cx="14" cy="6" r="1" fill="srgba(7.42657%,7.42657%,7.42657%,1)"/>
  <circle cx="15" cy="6" r="1" fill="srgba(76.0708%,76.0708%,76.0708%,1)"/>
  <circle cx="16" cy="6" r="1" fill="srgba(91.0887%,91.0887%,91.0887%,1)"/>
  <circle cx="17" cy="6" r="1" fill="srgba(13.4112%,13.4112%,13.4112%,1)"/>
  <circle cx="18" cy="6" r="1" fill="srgba(41.7197%,41.7197%,41.7197%,1)"/>
  <circle cx="19" cy="6" r="1" fill="srgba(99.3759%,99.3759%,99.3759%,1)"/>
  <circle cx="20" cy="6" r="1" fill="srgba(96.5499%,96.5499%,96.5499%,1)"/>
  <circle cx="21" cy="6" r="1" fill="srgba(71.9921%,71.9921%,71.9921%,1)"/>
  <circle cx="22" cy="6" r="1" fill="srgba(70.4952%,70.4952%,70.4952%,1)"/>
  <circle cx="23" cy="6" r="1" fill="white"/>
  <circle cx="0" cy="7" r="1" fill="srgba(94.8989%,94.8989%,94.8989%,1)"/>
  <circle cx="1" cy="7" r="1" fill="srgba(71.0994%,71.0994%,71.0994%,1)"/>
  <circle cx="2" cy="7" r="1" fill="srgba(88.838%,88.838%,88.838%,1)"/>
  <circle cx="3" cy="7" r="1" fill="srgba(97.3831%,97.3831%,97.3831%,1)"/>
  <circle cx="4" cy="7" r="1" fill="white"/>
  <circle cx="5" cy="7" r="1" fill="srgba(62.5025%,62.5025%,62.5025%,1)"/>
  <circle cx="6" cy="7" r="1" fill="srgba(4.84321%,4.84321%,4.84321%,1)"/>
  <circle cx="7" cy="7" r="1" fill="srgba(77.3754%,77.3754%,77.3754%,1)"/>
  <circle cx="8" cy="7" r="1" fill="srgba(86.0777%,86.0777%,86.0777%,1)"/>
  <circle cx="9" cy="7" r="1" fill="srgba(11.5328%,11.5328%,11.5328%,1)"/>
  <circle cx="10" cy="7" r="1" fill="srgba(53.6919%,53.6919%,53.6919%,1)"/>
  <circle cx="11" cy="7" r="1" fill="white"/>
  <circle cx="12" cy="7" r="1" fill="white"/>
  <circle cx="13" cy="7" r="1" fill="srgba(72.8878%,72.8878%,72.8878%,1)"/>
  <circle cx="14" cy="7" r="1" fill="srgba(12.3873%,12.3873%,12.3873%,1)"/>
  <circle cx="15" cy="7" r="1" fill="srgba(76.5377%,76.5377%,76.5377%,1)"/>
  <circle cx="16" cy="7" r="1" fill="srgba(91.4321%,91.4321%,91.4321%,1)"/>
  <circle cx="17" cy="7" r="1" fill="srgba(13.64%,13.64%,13.64%,1)"/>
  <circle cx="18" cy="7" r="1" fill="srgba(41.7594%,41.7594%,41.7594%,1)"/>
  <circle cx="19" cy="7" r="1" fill="srgba(99.5789%,99.5789%,99.5789%,1)"/>
  <circle cx="20" cy="7" r="1" fill="srgba(98.1827%,98.1827%,98.1827%,1)"/>
  <circle cx="21" cy="7" r="1" fill="srgba(90.3578%,90.3578%,90.3578%,1)"/>
  <circle cx="22" cy="7" r="1" fill="srgba(58.8357%,58.8357%,58.8357%,1)"/>
  <circle cx="23" cy="7" r="1" fill="srgba(91.2932%,91.2932%,91.2932%,1)"/>
  <circle cx="0" cy="8" r="1" fill="srgba(82.8595%,82.8595%,82.8595%,1)"/>
  <circle cx="1" cy="8" r="1" fill="srgba(75.0561%,75.0561%,75.0561%,1)"/>
  <circle cx="2" cy="8" r="1" fill="srgba(94.1512%,94.1512%,94.1512%,1)"/>
  <circle cx="3" cy="8" r="1" fill="srgba(98.4741%,98.4741%,98.4741%,1)"/>
  <circle cx="4" cy="8" r="1" fill="white"/>
  <circle cx="5" cy="8" r="1" fill="srgba(63.2441%,63.2441%,63.2441%,1)"/>
  <circle cx="6" cy="8" r="1" fill="srgba(5.72061%,5.72061%,5.72061%,1)"/>
  <circle cx="7" cy="8" r="1" fill="srgba(77.4304%,77.4304%,77.4304%,1)"/>
  <circle cx="8" cy="8" r="1" fill="srgba(93.875%,93.875%,93.875%,1)"/>
  <circle cx="9" cy="8" r="1" fill="srgba(24.2115%,24.2115%,24.2115%,1)"/>
  <circle cx="10" cy="8" r="1" fill="srgba(29.3004%,29.3004%,29.3004%,1)"/>
  <circle cx="11" cy="8" r="1" fill="srgba(78.6664%,78.6664%,78.6664%,1)"/>
  <circle cx="12" cy="8" r="1" fill="srgba(83.3585%,83.3585%,83.3585%,1)"/>
  <circle cx="13" cy="8" r="1" fill="srgba(44.0604%,44.0604%,44.0604%,1)"/>
  <circle cx="14" cy="8" r="1" fill="srgba(20.0107%,20.0107%,20.0107%,1)"/>
  <circle cx="15" cy="8" r="1" fill="srgba(87.5105%,87.5105%,87.5105%,1)"/>
  <circle cx="16" cy="8" r="1" fill="srgba(91.0796%,91.0796%,91.0796%,1)"/>
  <circle cx="17" cy="8" r="1" fill="srgba(14.8013%,14.8013%,14.8013%,1)"/>
  <circle cx="18" cy="8" r="1" fill="srgba(42.565%,42.565%,42.565%,1)"/>
  <circle cx="19" cy="8" r="1" fill="white"/>
  <circle cx="20" cy="8" r="1" fill="srgba(98.6999%,98.6999%,98.6999%,1)"/>
  <circle cx="21" cy="8" r="1" fill="srgba(96.4935%,96.4935%,96.4935%,1)"/>
  <circle cx="22" cy="8" r="1" fill="srgba(68.0293%,68.0293%,68.0293%,1)"/>
  <circle cx="23" cy="8" r="1" fill="srgba(72.5887%,72.5887%,72.5887%,1)"/>
  <circle cx="0" cy="9" r="1" fill="srgba(72.7306%,72.7306%,72.7306%,1)"/>
  <circle cx="1" cy="9" r="1" fill="srgba(81.9562%,81.9562%,81.9562%,1)"/>
  <circle cx="2" cy="9" r="1" fill="srgba(96.2325%,96.2325%,96.2325%,1)"/>
  <circle cx="3" cy="9" r="1" fill="srgba(99.2432%,99.2432%,99.2432%,1)"/>
  <circle cx="4" cy="9" r="1" fill="srgba(95.9258%,95.9258%,95.9258%,1)"/>
  <circle cx="5" cy="9" r="1" fill="srgba(52.1386%,52.1386%,52.1386%,1)"/>
  <circle cx="6" cy="9" r="1" fill="srgba(16.1715%,16.1715%,16.1715%,1)"/>
  <circle cx="7" cy="9" r="1" fill="srgba(76.0967%,76.0967%,76.0967%,1)"/>
  <circle cx="8" cy="9" r="1" fill="white"/>
  <circle cx="9" cy="9" r="1" fill="srgba(76.7117%,76.7117%,76.7117%,1)"/>
  <circle cx="10" cy="9" r="1" fill="srgba(34.7951%,34.7951%,34.7951%,1)"/>
  <circle cx="11" cy="9" r="1" fill="srgba(36.3165%,36.3165%,36.3165%,1)"/>
  <circle cx="12" cy="9" r="1" fill="srgba(38.8724%,38.8724%,38.8724%,1)"/>
  <circle cx="13" cy="9" r="1" fill="srgba(34.5739%,34.5739%,34.5739%,1)"/>
  <circle cx="14" cy="9" r="1" fill="srgba(70.3258%,70.3258%,70.3258%,1)"/>
  <circle cx="15" cy="9" r="1" fill="white"/>
  <circle cx="16" cy="9" r="1" fill="srgba(86.9154%,86.9154%,86.9154%,1)"/>
  <circle cx="17" cy="9" r="1" fill="srgba(22.1546%,22.1546%,22.1546%,1)"/>
  <circle cx="18" cy="9" r="1" fill="srgba(35.6313%,35.6313%,35.6313%,1)"/>
  <circle cx="19" cy="9" r="1" fill="srgba(89.3034%,89.3034%,89.3034%,1)"/>
  <circle cx="20" cy="9" r="1" fill="srgba(99.4553%,99.4553%,99.4553%,1)"/>
  <circle cx="21" cy="9" r="1" fill="srgba(97.7844%,97.7844%,97.7844%,1)"/>
  <circle cx="22" cy="9" r="1" fill="srgba(80.1007%,80.1007%,80.1007%,1)"/>
  <circle cx="23" cy="9" r="1" fill="srgba(57.9965%,57.9965%,57.9965%,1)"/>
  <circle cx="0" cy="10" r="1" fill="srgba(67.5563%,67.5563%,67.5563%,1)"/>
  <circle cx="1" cy="10" r="1" fill="srgba(86.4851%,86.4851%,86.4851%,1)"/>
  <circle cx="2" cy="10" r="1" fill="srgba(97.5784%,97.5784%,97.5784%,1)"/>
  <circle cx="3" cy="10" r="1" fill="srgba(93.9345%,93.9345%,93.9345%,1)"/>
  <circle cx="4" cy="10" r="1" fill="srgba(55.378%,55.378%,55.378%,1)"/>
  <circle cx="5" cy="10" r="1" fill="srgba(18.4512%,18.4512%,18.4512%,1)"/>
  <circle cx="6" cy="10" r="1" fill="srgba(17.5219%,17.5219%,17.5219%,1)"/>
  <circle cx="7" cy="10" r="1" fill="srgba(73.6294%,73.6294%,73.6294%,1)"/>
  <circle cx="8" cy="10" r="1" fill="srgba(99.707%,99.707%,99.707%,1)"/>
  <circle cx="9" cy="10" r="1" fill="srgba(98.7854%,98.7854%,98.7854%,1)"/>
  <circle cx="10" cy="10" r="1" fill="srgba(96.0616%,96.0616%,96.0616%,1)"/>
  <circle cx="11" cy="10" r="1" fill="srgba(92.4025%,92.4025%,92.4025%,1)"/>
  <circle cx="12" cy="10" r="1" fill="srgba(93.0541%,93.0541%,93.0541%,1)"/>
  <circle cx="13" cy="10" r="1" fill="srgba(95.3811%,95.3811%,95.3811%,1)"/>
  <circle cx="14" cy="10" r="1" fill="srgba(98.4787%,98.4787%,98.4787%,1)"/>
  <circle cx="15" cy="10" r="1" fill="srgba(98.9639%,98.9639%,98.9639%,1)"/>
  <circle cx="16" cy="10" r="1" fill="srgba(84.184%,84.184%,84.184%,1)"/>
  <circle cx="17" cy="10" r="1" fill="srgba(23.5981%,23.5981%,23.5981%,1)"/>
  <circle cx="18" cy="10" r="1" fill="srgba(12.0516%,12.0516%,12.0516%,1)"/>
  <circle cx="19" cy="10" r="1" fill="srgba(41.3245%,41.3245%,41.3245%,1)"/>
  <circle cx="20" cy="10" r="1" fill="srgba(87.4586%,87.4586%,87.4586%,1)"/>
  <circle cx="21" cy="10" r="1" fill="srgba(98.8083%,98.8083%,98.8083%,1)"/>
  <circle cx="22" cy="10" r="1" fill="srgba(87.1931%,87.1931%,87.1931%,1)"/>
  <circle cx="23" cy="10" r="1" fill="srgba(51.9036%,51.9036%,51.9036%,1)"/>
  <circle cx="0" cy="11" r="1" fill="srgba(65.7893%,65.7893%,65.7893%,1)"/>
  <circle cx="1" cy="11" r="1" fill="srgba(88.5145%,88.5145%,88.5145%,1)"/>
  <circle cx="2" cy="11" r="1" fill="srgba(97.5509%,97.5509%,97.5509%,1)"/>
  <circle cx="3" cy="11" r="1" fill="srgba(66.4408%,66.4408%,66.4408%,1)"/>
  <circle cx="4" cy="11" r="1" fill="srgba(41.178%,41.178%,41.178%,1)"/>
  <circle cx="5" cy="11" r="1" fill="srgba(18.4283%,18.4283%,18.4283%,1)"/>
  <circle cx="6" cy="11" r="1" fill="srgba(17.8927%,17.8927%,17.8927%,1)"/>
  <circle cx="7" cy="11" r="1" fill="srgba(62.1149%,62.1149%,62.1149%,1)"/>
  <circle cx="8" cy="11" r="1" fill="srgba(52.4285%,52.4285%,52.4285%,1)"/>
  <circle cx="9" cy="11" r="1" fill="srgba(52.7535%,52.7535%,52.7535%,1)"/>
  <circle cx="10" cy="11" r="1" fill="srgba(40.4547%,40.4547%,40.4547%,1)"/>
  <circle cx="11" cy="11" r="1" fill="srgba(48.835%,48.835%,48.835%,1)"/>
  <circle cx="12" cy="11" r="1" fill="srgba(39.2203%,39.2203%,39.2203%,1)"/>
  <circle cx="13" cy="11" r="1" fill="srgba(42.5528%,42.5528%,42.5528%,1)"/>
  <circle cx="14" cy="11" r="1" fill="srgba(56.9299%,56.9299%,56.9299%,1)"/>
  <circle cx="15" cy="11" r="1" fill="srgba(52.7291%,52.7291%,52.7291%,1)"/>
  <circle cx="16" cy="11" r="1" fill="srgba(61.7319%,61.7319%,61.7319%,1)"/>
  <circle cx="17" cy="11" r="1" fill="srgba(24.683%,24.683%,24.683%,1)"/>
  <circle cx="18" cy="11" r="1" fill="srgba(11.8685%,11.8685%,11.8685%,1)"/>
  <circle cx="19" cy="11" r="1" fill="srgba(34.3694%,34.3694%,34.3694%,1)"/>
  <circle cx="20" cy="11" r="1" fill="srgba(58.7716%,58.7716%,58.7716%,1)"/>
  <circle cx="21" cy="11" r="1" fill="srgba(95.4345%,95.4345%,95.4345%,1)"/>
  <circle cx="22" cy="11" r="1" fill="srgba(90.2556%,90.2556%,90.2556%,1)"/>
  <circle cx="23" cy="11" r="1" fill="srgba(50.1244%,50.1244%,50.1244%,1)"/>
  <circle cx="0" cy="12" r="1" fill="srgba(64.7639%,64.7639%,64.7639%,1)"/>
  <circle cx="1" cy="12" r="1" fill="srgba(89.1203%,89.1203%,89.1203%,1)"/>
  <circle cx="2" cy="12" r="1" fill="srgba(88.3986%,88.3986%,88.3986%,1)"/>
  <circle cx="3" cy="12" r="1" fill="srgba(44.9302%,44.9302%,44.9302%,1)"/>
  <circle cx="4" cy="12" r="1" fill="srgba(36.936%,36.936%,36.936%,1)"/>
  <circle cx="5" cy="12" r="1" fill="srgba(10.0649%,10.0649%,10.0649%,1)"/>
  <circle cx="6" cy="12" r="1" fill="srgba(18.3856%,18.3856%,18.3856%,1)"/>
  <circle cx="7" cy="12" r="1" fill="srgba(55.5962%,55.5962%,55.5962%,1)"/>
  <circle cx="8" cy="12" r="1" fill="srgba(62.7543%,62.7543%,62.7543%,1)"/>
  <circle cx="9" cy="12" r="1" fill="srgba(84.535%,84.535%,84.535%,1)"/>
  <circle cx="10" cy="12" r="1" fill="srgba(47.2358%,47.2358%,47.2358%,1)"/>
  <circle cx="11" cy="12" r="1" fill="srgba(59.7574%,59.7574%,59.7574%,1)"/>
  <circle cx="12" cy="12" r="1" fill="srgba(17.8622%,17.8622%,17.8622%,1)"/>
  <circle cx="13" cy="12" r="1" fill="srgba(31.8395%,31.8395%,31.8395%,1)"/>
  <circle cx="14" cy="12" r="1" fill="srgba(88.011%,88.011%,88.011%,1)"/>
  <circle cx="15" cy="12" r="1" fill="srgba(61.4054%,61.4054%,61.4054%,1)"/>
  <circle cx="16" cy="12" r="1" fill="srgba(51.0231%,51.0231%,51.0231%,1)"/>
  <circle cx="17" cy="12" r="1" fill="srgba(25.3559%,25.3559%,25.3559%,1)"/>
  <circle cx="18" cy="12" r="1" fill="srgba(8.17884%,8.17884%,8.17884%,1)"/>
  <circle cx="19" cy="12" r="1" fill="srgba(26.714%,26.714%,26.714%,1)"/>
  <circle cx="20" cy="12" r="1" fill="srgba(45.1896%,45.1896%,45.1896%,1)"/>
  <circle cx="21" cy="12" r="1" fill="srgba(81.0788%,81.0788%,81.0788%,1)"/>
  <circle cx="22" cy="12" r="1" fill="srgba(91.0567%,91.0567%,91.0567%,1)"/>
  <circle cx="23" cy="12" r="1" fill="srgba(49.0486%,49.0486%,49.0486%,1)"/>
  <circle cx="0" cy="13" r="1" fill="srgba(64.0452%,64.0452%,64.0452%,1)"/>
  <circle cx="1" cy="13" r="1" fill="srgba(87.8859%,87.8859%,87.8859%,1)"/>
  <circle cx="2" cy="13" r="1" fill="srgba(73.2494%,73.2494%,73.2494%,1)"/>
  <circle cx="3" cy="13" r="1" fill="srgba(25.3788%,25.3788%,25.3788%,1)"/>
  <circle cx="4" cy="13" r="1" fill="srgba(14.8394%,14.8394%,14.8394%,1)"/>
  <circle cx="5" cy="13" r="1" fill="srgba(4.90578%,4.90578%,4.90578%,1)"/>
  <circle cx="6" cy="13" r="1" fill="srgba(18.6511%,18.6511%,18.6511%,1)"/>
  <circle cx="7" cy="13" r="1" fill="srgba(55.7687%,55.7687%,55.7687%,1)"/>
  <circle cx="8" cy="13" r="1" fill="srgba(64.6647%,64.6647%,64.6647%,1)"/>
  <circle cx="9" cy="13" r="1" fill="srgba(63.125%,63.125%,63.125%,1)"/>
  <circle cx="10" cy="13" r="1" fill="srgba(59.0753%,59.0753%,59.0753%,1)"/>
  <circle cx="11" cy="13" r="1" fill="srgba(67.0802%,67.0802%,67.0802%,1)"/>
  <circle cx="12" cy="13" r="1" fill="srgba(22.8122%,22.8122%,22.8122%,1)"/>
  <circle cx="13" cy="13" r="1" fill="srgba(35.0683%,35.0683%,35.0683%,1)"/>
  <circle cx="14" cy="13" r="1" fill="srgba(70.6386%,70.6386%,70.6386%,1)"/>
  <circle cx="15" cy="13" r="1" fill="srgba(23.1556%,23.1556%,23.1556%,1)"/>
  <circle cx="16" cy="13" r="1" fill="srgba(48.9006%,48.9006%,48.9006%,1)"/>
  <circle cx="17" cy="13" r="1" fill="srgba(25.5528%,25.5528%,25.5528%,1)"/>
  <circle cx="18" cy="13" r="1" fill="srgba(7.24651%,7.24651%,7.24651%,1)"/>
  <circle cx="19" cy="13" r="1" fill="srgba(8.78767%,8.78767%,8.78767%,1)"/>
  <circle cx="20" cy="13" r="1" fill="srgba(24.7135%,24.7135%,24.7135%,1)"/>
  <circle cx="21" cy="13" r="1" fill="srgba(62.6688%,62.6688%,62.6688%,1)"/>
  <circle cx="22" cy="13" r="1" fill="srgba(88.4199%,88.4199%,88.4199%,1)"/>
  <circle cx="23" cy="13" r="1" fill="srgba(48.3711%,48.3711%,48.3711%,1)"/>
  <circle cx="0" cy="14" r="1" fill="srgba(66.9123%,66.9123%,66.9123%,1)"/>
  <circle cx="1" cy="14" r="1" fill="srgba(82.9923%,82.9923%,82.9923%,1)"/>
  <circle cx="2" cy="14" r="1" fill="srgba(62.121%,62.121%,62.121%,1)"/>
  <circle cx="3" cy="14" r="1" fill="srgba(5.93271%,5.93271%,5.93271%,1)"/>
  <circle cx="4" cy="14" r="1" fill="srgba(3.73083%,3.73083%,3.73083%,1)"/>
  <circle cx="5" cy="14" r="1" fill="srgba(4.8188%,4.8188%,4.8188%,1)"/>
  <circle cx="6" cy="14" r="1" fill="srgba(18.6725%,18.6725%,18.6725%,1)"/>
  <circle cx="7" cy="14" r="1" fill="srgba(55.6207%,55.6207%,55.6207%,1)"/>
  <circle cx="8" cy="14" r="1" fill="srgba(67.7073%,67.7073%,67.7073%,1)"/>
  <circle cx="9" cy="14" r="1" fill="srgba(89.9947%,89.9947%,89.9947%,1)"/>
  <circle cx="10" cy="14" r="1" fill="srgba(57.908%,57.908%,57.908%,1)"/>
  <circle cx="11" cy="14" r="1" fill="srgba(67.8965%,67.8965%,67.8965%,1)"/>
  <circle cx="12" cy="14" r="1" fill="srgba(24.799%,24.799%,24.799%,1)"/>
  <circle cx="13" cy="14" r="1" fill="srgba(34.2229%,34.2229%,34.2229%,1)"/>
  <circle cx="14" cy="14" r="1" fill="srgba(93.1182%,93.1182%,93.1182%,1)"/>
  <circle cx="15" cy="14" r="1" fill="srgba(58.1842%,58.1842%,58.1842%,1)"/>
  <circle cx="16" cy="14" r="1" fill="srgba(49.9779%,49.9779%,49.9779%,1)"/>
  <circle cx="17" cy="14" r="1" fill="srgba(25.481%,25.481%,25.481%,1)"/>
  <circle cx="18" cy="14" r="1" fill="srgba(7.49981%,7.49981%,7.49981%,1)"/>
  <circle cx="19" cy="14" r="1" fill="srgba(3.16167%,3.16167%,3.16167%,1)"/>
  <circle cx="20" cy="14" r="1" fill="srgba(4.30915%,4.30915%,4.30915%,1)"/>
  <circle cx="21" cy="14" r="1" fill="srgba(47.216%,47.216%,47.216%,1)"/>
  <circle cx="22" cy="14" r="1" fill="srgba(80.7172%,80.7172%,80.7172%,1)"/>
  <circle cx="23" cy="14" r="1" fill="srgba(51.6136%,51.6136%,51.6136%,1)"/>
  <circle cx="0" cy="15" r="1" fill="srgba(76.495%,76.495%,76.495%,1)"/>
  <circle cx="1" cy="15" r="1" fill="srgba(73.3684%,73.3684%,73.3684%,1)"/>
  <circle cx="2" cy="15" r="1" fill="srgba(63.0365%,63.0365%,63.0365%,1)"/>
  <circle cx="3" cy="15" r="1" fill="srgba(4.25879%,4.25879%,4.25879%,1)"/>
  <circle cx="4" cy="15" r="1" fill="srgba(3.39818%,3.39818%,3.39818%,1)"/>
  <circle cx="5" cy="15" r="1" fill="srgba(4.87068%,4.87068%,4.87068%,1)"/>
  <circle cx="6" cy="15" r="1" fill="srgba(18.6709%,18.6709%,18.6709%,1)"/>
  <circle cx="7" cy="15" r="1" fill="srgba(55.7626%,55.7626%,55.7626%,1)"/>
  <circle cx="8" cy="15" r="1" fill="srgba(65.2964%,65.2964%,65.2964%,1)"/>
  <circle cx="9" cy="15" r="1" fill="srgba(52.7535%,52.7535%,52.7535%,1)"/>
  <circle cx="10" cy="15" r="1" fill="srgba(68.3543%,68.3543%,68.3543%,1)"/>
  <circle cx="11" cy="15" r="1" fill="srgba(72.5093%,72.5093%,72.5093%,1)"/>
  <circle cx="12" cy="15" r="1" fill="srgba(23.6011%,23.6011%,23.6011%,1)"/>
  <circle cx="13" cy="15" r="1" fill="srgba(35.2819%,35.2819%,35.2819%,1)"/>
  <circle cx="14" cy="15" r="1" fill="srgba(64.3549%,64.3549%,64.3549%,1)"/>
  <circle cx="15" cy="15" r="1" fill="srgba(11.31%,11.31%,11.31%,1)"/>
  <circle cx="16" cy="15" r="1" fill="srgba(48.368%,48.368%,48.368%,1)"/>
  <circle cx="17" cy="15" r="1" fill="srgba(25.5848%,25.5848%,25.5848%,1)"/>
  <circle cx="18" cy="15" r="1" fill="srgba(7.50286%,7.50286%,7.50286%,1)"/>
  <circle cx="19" cy="15" r="1" fill="srgba(3.24254%,3.24254%,3.24254%,1)"/>
  <circle cx="20" cy="15" r="1" fill="srgba(2.09354%,2.09354%,2.09354%,1)"/>
  <circle cx="21" cy="15" r="1" fill="srgba(48.481%,48.481%,48.481%,1)"/>
  <circle cx="22" cy="15" r="1" fill="srgba(66.7567%,66.7567%,66.7567%,1)"/>
  <circle cx="23" cy="15" r="1" fill="srgba(64.6876%,64.6876%,64.6876%,1)"/>
  <circle cx="0" cy="16" r="1" fill="srgba(91.368%,91.368%,91.368%,1)"/>
  <circle cx="1" cy="16" r="1" fill="srgba(63.7201%,63.7201%,63.7201%,1)"/>
  <circle cx="2" cy="16" r="1" fill="srgba(70.9575%,70.9575%,70.9575%,1)"/>
  <circle cx="3" cy="16" r="1" fill="srgba(9.56741%,9.56741%,9.56741%,1)"/>
  <circle cx="4" cy="16" r="1" fill="srgba(3.09148%,3.09148%,3.09148%,1)"/>
  <circle cx="5" cy="16" r="1" fill="srgba(4.86915%,4.86915%,4.86915%,1)"/>
  <circle cx="6" cy="16" r="1" fill="srgba(18.6664%,18.6664%,18.6664%,1)"/>
  <circle cx="7" cy="16" r="1" fill="srgba(55.6252%,55.6252%,55.6252%,1)"/>
  <circle cx="8" cy="16" r="1" fill="srgba(66.7155%,66.7155%,66.7155%,1)"/>
  <circle cx="9" cy="16" r="1" fill="srgba(76.1227%,76.1227%,76.1227%,1)"/>
  <circle cx="10" cy="16" r="1" fill="srgba(65.1453%,65.1453%,65.1453%,1)"/>
  <circle cx="11" cy="16" r="1" fill="srgba(72.5444%,72.5444%,72.5444%,1)"/>
  <circle cx="12" cy="16" r="1" fill="srgba(70.573%,70.573%,70.573%,1)"/>
  <circle cx="13" cy="16" r="1" fill="srgba(59.5529%,59.5529%,59.5529%,1)"/>
  <circle cx="14" cy="16" r="1" fill="srgba(82.9358%,82.9358%,82.9358%,1)"/>
  <circle cx="15" cy="16" r="1" fill="srgba(47.5212%,47.5212%,47.5212%,1)"/>
  <circle cx="16" cy="16" r="1" fill="srgba(50.3304%,50.3304%,50.3304%,1)"/>
  <circle cx="17" cy="16" r="1" fill="srgba(25.4566%,25.4566%,25.4566%,1)"/>
  <circle cx="18" cy="16" r="1" fill="srgba(7.50286%,7.50286%,7.50286%,1)"/>
  <circle cx="19" cy="16" r="1" fill="srgba(3.16014%,3.16014%,3.16014%,1)"/>
  <circle cx="20" cy="16" r="1" fill="srgba(4.60975%,4.60975%,4.60975%,1)"/>
  <circle cx="21" cy="16" r="1" fill="srgba(58.8373%,58.8373%,58.8373%,1)"/>
  <circle cx="22" cy="16" r="1" fill="srgba(52.3751%,52.3751%,52.3751%,1)"/>
  <circle cx="23" cy="16" r="1" fill="srgba(85.8213%,85.8213%,85.8213%,1)"/>
  <circle cx="0" cy="17" r="1" fill="white"/>
  <circle cx="1" cy="17" r="1" fill="srgba(70.0175%,70.0175%,70.0175%,1)"/>
  <circle cx="2" cy="17" r="1" fill="srgba(69.7673%,69.7673%,69.7673%,1)"/>
  <circle cx="3" cy="17" r="1" fill="srgba(29.3294%,29.3294%,29.3294%,1)"/>
  <circle cx="4" cy="17" r="1" fill="srgba(1.98672%,1.98672%,1.98672%,1)"/>
  <circle cx="5" cy="17" r="1" fill="srgba(4.88594%,4.88594%,4.88594%,1)"/>
  <circle cx="6" cy="17" r="1" fill="srgba(18.555%,18.555%,18.555%,1)"/>
  <circle cx="7" cy="17" r="1" fill="srgba(57.2869%,57.2869%,57.2869%,1)"/>
  <circle cx="8" cy="17" r="1" fill="srgba(46.7475%,46.7475%,46.7475%,1)"/>
  <circle cx="9" cy="17" r="1" fill="srgba(57.8897%,57.8897%,57.8897%,1)"/>
  <circle cx="10" cy="17" r="1" fill="srgba(29.9077%,29.9077%,29.9077%,1)"/>
  <circle cx="11" cy="17" r="1" fill="srgba(47.0756%,47.0756%,47.0756%,1)"/>
  <circle cx="12" cy="17" r="1" fill="srgba(63.4623%,63.4623%,63.4623%,1)"/>
  <circle cx="13" cy="17" r="1" fill="srgba(49.1234%,49.1234%,49.1234%,1)"/>
  <circle cx="14" cy="17" r="1" fill="srgba(62.0478%,62.0478%,62.0478%,1)"/>
  <circle cx="15" cy="17" r="1" fill="srgba(51.3191%,51.3191%,51.3191%,1)"/>
  <circle cx="16" cy="17" r="1" fill="srgba(53.5103%,53.5103%,53.5103%,1)"/>
  <circle cx="17" cy="17" r="1" fill="srgba(25.2857%,25.2857%,25.2857%,1)"/>
  <circle cx="18" cy="17" r="1" fill="srgba(7.51965%,7.51965%,7.51965%,1)"/>
  <circle cx="19" cy="17" r="1" fill="srgba(2.10269%,2.10269%,2.10269%,1)"/>
  <circle cx="20" cy="17" r="1" fill="srgba(19.2981%,19.2981%,19.2981%,1)"/>
  <circle cx="21" cy="17" r="1" fill="srgba(59.2798%,59.2798%,59.2798%,1)"/>
  <circle cx="22" cy="17" r="1" fill="srgba(58.8128%,58.8128%,58.8128%,1)"/>
  <circle cx="23" cy="17" r="1" fill="srgba(99.7452%,99.7452%,99.7452%,1)"/>
  <circle cx="0" cy="18" r="1" fill="white"/>
  <circle cx="1" cy="18" r="1" fill="srgba(92.2606%,92.2606%,92.2606%,1)"/>
  <circle cx="2" cy="18" r="1" fill="srgba(58.9548%,58.9548%,58.9548%,1)"/>
  <circle cx="3" cy="18" r="1" fill="srgba(61.3352%,61.3352%,61.3352%,1)"/>
  <circle cx="4" cy="18" r="1" fill="srgba(12.3415%,12.3415%,12.3415%,1)"/>
  <circle cx="5" cy="18" r="1" fill="srgba(3.32189%,3.32189%,3.32189%,1)"/>
  <circle cx="6" cy="18" r="1" fill="srgba(17.1847%,17.1847%,17.1847%,1)"/>
  <circle cx="7" cy="18" r="1" fill="srgba(70.7958%,70.7958%,70.7958%,1)"/>
  <circle cx="8" cy="18" r="1" fill="srgba(86.1097%,86.1097%,86.1097%,1)"/>
  <circle cx="9" cy="18" r="1" fill="srgba(82.8962%,82.8962%,82.8962%,1)"/>
  <circle cx="10" cy="18" r="1" fill="srgba(83.7552%,83.7552%,83.7552%,1)"/>
  <circle cx="11" cy="18" r="1" fill="srgba(83.9368%,83.9368%,83.9368%,1)"/>
  <circle cx="12" cy="18" r="1" fill="srgba(83.6637%,83.6637%,83.6637%,1)"/>
  <circle cx="13" cy="18" r="1" fill="srgba(83.7827%,83.7827%,83.7827%,1)"/>
  <circle cx="14" cy="18" r="1" fill="srgba(83.3082%,83.3082%,83.3082%,1)"/>
  <circle cx="15" cy="18" r="1" fill="srgba(84.4984%,84.4984%,84.4984%,1)"/>
  <circle cx="16" cy="18" r="1" fill="srgba(78.7854%,78.7854%,78.7854%,1)"/>
  <circle cx="17" cy="18" r="1" fill="srgba(23.8178%,23.8178%,23.8178%,1)"/>
  <circle cx="18" cy="18" r="1" fill="srgba(6.21347%,6.21347%,6.21347%,1)"/>
  <circle cx="19" cy="18" r="1" fill="srgba(8.03388%,8.03388%,8.03388%,1)"/>
  <circle cx="20" cy="18" r="1" fill="srgba(50.4448%,50.4448%,50.4448%,1)"/>
  <circle cx="21" cy="18" r="1" fill="srgba(47.277%,47.277%,47.277%,1)"/>
  <circle cx="22" cy="18" r="1" fill="srgba(87.9423%,87.9423%,87.9423%,1)"/>
  <circle cx="23" cy="18" r="1" fill="white"/>
  <circle cx="0" cy="19" r="1" fill="white"/>
  <circle cx="1" cy="19" r="1" fill="white"/>
  <circle cx="2" cy="19" r="1" fill="srgba(80.7675%,80.7675%,80.7675%,1)"/>
  <circle cx="3" cy="19" r="1" fill="srgba(57.232%,57.232%,57.232%,1)"/>
  <circle cx="4" cy="19" r="1" fill="srgba(61.2543%,61.2543%,61.2543%,1)"/>
  <circle cx="5" cy="19" r="1" fill="srgba(27.1229%,27.1229%,27.1229%,1)"/>
  <circle cx="6" cy="19" r="1" fill="srgba(25.4536%,25.4536%,25.4536%,1)"/>
  <circle cx="7" cy="19" r="1" fill="srgba(76.1593%,76.1593%,76.1593%,1)"/>
  <circle cx="8" cy="19" r="1" fill="white"/>
  <circle cx="9" cy="19" r="1" fill="srgba(99.7498%,99.7498%,99.7498%,1)"/>
  <circle cx="10" cy="19" r="1" fill="srgba(99.8764%,99.8764%,99.8764%,1)"/>
  <circle cx="11" cy="19" r="1" fill="srgba(98.5687%,98.5687%,98.5687%,1)"/>
  <circle cx="12" cy="19" r="1" fill="srgba(97.4029%,97.4029%,97.4029%,1)"/>
  <circle cx="13" cy="19" r="1" fill="srgba(99.498%,99.498%,99.498%,1)"/>
  <circle cx="14" cy="19" r="1" fill="white"/>
  <circle cx="15" cy="19" r="1" fill="white"/>
  <circle cx="16" cy="19" r="1" fill="srgba(87.0359%,87.0359%,87.0359%,1)"/>
  <circle cx="17" cy="19" r="1" fill="srgba(26.8376%,26.8376%,26.8376%,1)"/>
  <circle cx="18" cy="19" r="1" fill="srgba(25.8656%,25.8656%,25.8656%,1)"/>
  <circle cx="19" cy="19" r="1" fill="srgba(54.9645%,54.9645%,54.9645%,1)"/>
  <circle cx="20" cy="19" r="1" fill="srgba(47.2877%,47.2877%,47.2877%,1)"/>
  <circle cx="21" cy="19" r="1" fill="srgba(73.434%,73.434%,73.434%,1)"/>
  <circle cx="22" cy="19" r="1" fill="white"/>
  <circle cx="23" cy="19" r="1" fill="white"/>
  <circle cx="0" cy="20" r="1" fill="white"/>
  <circle cx="1" cy="20" r="1" fill="white"/>
  <circle cx="2" cy="20" r="1" fill="white"/>
  <circle cx="3" cy="20" r="1" fill="srgba(75.3292%,75.3292%,75.3292%,1)"/>
  <circle cx="4" cy="20" r="1" fill="srgba(55.8343%,55.8343%,55.8343%,1)"/>
  <circle cx="5" cy="20" r="1" fill="srgba(79.0997%,79.0997%,79.0997%,1)"/>
  <circle cx="6" cy="20" r="1" fill="srgba(85.3971%,85.3971%,85.3971%,1)"/>
  <circle cx="7" cy="20" r="1" fill="srgba(94.6517%,94.6517%,94.6517%,1)"/>
  <circle cx="8" cy="20" r="1" fill="srgba(98.9776%,98.9776%,98.9776%,1)"/>
  <circle cx="9" cy="20" r="1" fill="srgba(99.6262%,99.6262%,99.6262%,1)"/>
  <circle cx="10" cy="20" r="1" fill="srgba(82.8351%,82.8351%,82.8351%,1)"/>
  <circle cx="11" cy="20" r="1" fill="srgba(43.5859%,43.5859%,43.5859%,1)"/>
  <circle cx="12" cy="20" r="1" fill="srgba(40.0824%,40.0824%,40.0824%,1)"/>
  <circle cx="13" cy="20" r="1" fill="srgba(54.9813%,54.9813%,54.9813%,1)"/>
  <circle cx="14" cy="20" r="1" fill="srgba(83.6835%,83.6835%,83.6835%,1)"/>
  <circle cx="15" cy="20" r="1" fill="srgba(84.7196%,84.7196%,84.7196%,1)"/>
  <circle cx="16" cy="20" r="1" fill="srgba(70.5226%,70.5226%,70.5226%,1)"/>
  <circle cx="17" cy="20" r="1" fill="srgba(53.8415%,53.8415%,53.8415%,1)"/>
  <circle cx="18" cy="20" r="1" fill="srgba(74.1726%,74.1726%,74.1726%,1)"/>
  <circle cx="19" cy="20" r="1" fill="srgba(48.3742%,48.3742%,48.3742%,1)"/>
  <circle cx="20" cy="20" r="1" fill="srgba(67.7302%,67.7302%,67.7302%,1)"/>
  <circle cx="21" cy="20" r="1" fill="srgba(99.5254%,99.5254%,99.5254%,1)"/>
  <circle cx="22" cy="20" r="1" fill="white"/>
  <circle cx="23" cy="20" r="1" fill="white"/>
  <circle cx="0" cy="21" r="1" fill="white"/>
  <circle cx="1" cy="21" r="1" fill="white"/>
  <circle cx="2" cy="21" r="1" fill="white"/>
  <circle cx="3" cy="21" r="1" fill="srgba(99.8657%,99.8657%,99.8657%,1)"/>
  <circle cx="4" cy="21" r="1" fill="srgba(79.2935%,79.2935%,79.2935%,1)"/>
  <circle cx="5" cy="21" r="1" fill="srgba(52.1279%,52.1279%,52.1279%,1)"/>
  <circle cx="6" cy="21" r="1" fill="srgba(69.6437%,69.6437%,69.6437%,1)"/>
  <circle cx="7" cy="21" r="1" fill="srgba(90.9163%,90.9163%,90.9163%,1)"/>
  <circle cx="8" cy="21" r="1" fill="srgba(97.641%,97.641%,97.641%,1)"/>
  <circle cx="9" cy="21" r="1" fill="srgba(99.8688%,99.8688%,99.8688%,1)"/>
  <circle cx="10" cy="21" r="1" fill="srgba(75.6954%,75.6954%,75.6954%,1)"/>
  <circle cx="11" cy="21" r="1" fill="srgba(19.4583%,19.4583%,19.4583%,1)"/>
  <circle cx="12" cy="21" r="1" fill="srgba(12.2774%,12.2774%,12.2774%,1)"/>
  <circle cx="13" cy="21" r="1" fill="srgba(35.2346%,35.2346%,35.2346%,1)"/>
  <circle cx="14" cy="21" r="1" fill="srgba(67.599%,67.599%,67.599%,1)"/>
  <circle cx="15" cy="21" r="1" fill="srgba(66.511%,66.511%,66.511%,1)"/>
  <circle cx="16" cy="21" r="1" fill="srgba(66.041%,66.041%,66.041%,1)"/>
  <circle cx="17" cy="21" r="1" fill="srgba(62.5483%,62.5483%,62.5483%,1)"/>
  <circle cx="18" cy="21" r="1" fill="srgba(44.9989%,44.9989%,44.9989%,1)"/>
  <circle cx="19" cy="21" r="1" fill="srgba(73.4295%,73.4295%,73.4295%,1)"/>
  <circle cx="20" cy="21" r="1" fill="srgba(99.4232%,99.4232%,99.4232%,1)"/>
  <circle cx="21" cy="21" r="1" fill="white"/>
  <circle cx="22" cy="21" r="1" fill="white"/>
  <circle cx="23" cy="21" r="1" fill="white"/>
  <circle cx="0" cy="22" r="1" fill="white"/>
  <circle cx="1" cy="22" r="1" fill="white"/>
  <circle cx="2" cy="22" r="1" fill="white"/>
  <circle cx="3" cy="22" r="1" fill="white"/>
  <circle cx="4" cy="22" r="1" fill="white"/>
  <circle cx="5" cy="22" r="1" fill="srgba(91.1254%,91.1254%,91.1254%,1)"/>
  <circle cx="6" cy="22" r="1" fill="srgba(62.6322%,62.6322%,62.6322%,1)"/>
  <circle cx="7" cy="22" r="1" fill="srgba(50.6935%,50.6935%,50.6935%,1)"/>
  <circle cx="8" cy="22" r="1" fill="srgba(62.4796%,62.4796%,62.4796%,1)"/>
  <circle cx="9" cy="22" r="1" fill="srgba(77.3342%,77.3342%,77.3342%,1)"/>
  <circle cx="10" cy="22" r="1" fill="srgba(85.7923%,85.7923%,85.7923%,1)"/>
  <circle cx="11" cy="22" r="1" fill="srgba(80.2075%,80.2075%,80.2075%,1)"/>
  <circle cx="12" cy="22" r="1" fill="srgba(75.1385%,75.1385%,75.1385%,1)"/>
  <circle cx="13" cy="22" r="1" fill="srgba(81.6754%,81.6754%,81.6754%,1)"/>
  <circle cx="14" cy="22" r="1" fill="srgba(77.7188%,77.7188%,77.7188%,1)"/>
  <circle cx="15" cy="22" r="1" fill="srgba(61.3245%,61.3245%,61.3245%,1)"/>
  <circle cx="16" cy="22" r="1" fill="srgba(47.0405%,47.0405%,47.0405%,1)"/>
  <circle cx="17" cy="22" r="1" fill="srgba(57.0306%,57.0306%,57.0306%,1)"/>
  <circle cx="18" cy="22" r="1" fill="srgba(88.3833%,88.3833%,88.3833%,1)"/>
  <circle cx="19" cy="22" r="1" fill="white"/>
  <circle cx="20" cy="22" r="1" fill="white"/>
  <circle cx="21" cy="22" r="1" fill="white"/>
  <circle cx="22" cy="22" r="1" fill="white"/>
  <circle cx="23" cy="22" r="1" fill="white"/>
  <circle cx="0" cy="23" r="1" fill="white"/>
  <circle cx="1" cy="23" r="1" fill="white"/>
  <circle cx="2" cy="23" r="1" fill="white"/>
  <circle cx="3" cy="23" r="1" fill="white"/>
  <circle cx="4" cy="23" r="1" fill="white"/>
  <circle cx="5" cy="23" r="1" fill="white"/>
  <circle cx="6" cy="23" r="1" fill="srgba(99.5697%,99.5697%,99.5697%,1)"/>
  <circle cx="7" cy="23" r="1" fill="srgba(88.5542%,88.5542%,88.5542%,1)"/>
  <circle cx="8" cy="23" r="1" fill="srgba(66.4134%,66.4134%,66.4134%,1)"/>
  <circle cx="9" cy="23" r="1" fill="srgba(49.7505%,49.7505%,49.7505%,1)"/>
  <circle cx="10" cy="23" r="1" fill="srgba(42.8382%,42.8382%,42.8382%,1)"/>
  <circle cx="11" cy="23" r="1" fill="srgba(41.5412%,41.5412%,41.5412%,1)"/>
  <circle cx="12" cy="23" r="1" fill="srgba(41.2772%,41.2772%,41.2772%,1)"/>
  <circle cx="13" cy="23" r="1" fill="srgba(41.2085%,41.2085%,41.2085%,1)"/>
  <circle cx="14" cy="23" r="1" fill="srgba(46.6743%,46.6743%,46.6743%,1)"/>
  <circle cx="15" cy="23" r="1" fill="srgba(62.9419%,62.9419%,62.9419%,1)"/>
  <circle cx="16" cy="23" r="1" fill="srgba(86.2455%,86.2455%,86.2455%,1)"/>
  <circle cx="17" cy="23" r="1" fill="srgba(99.2355%,99.2355%,99.2355%,1)"/>
  <circle cx="18" cy="23" r="1" fill="white"/>
  <circle cx="19" cy="23" r="1" fill="white"/>
  <circle cx="20" cy="23" r="1" fill="white"/>
  <circle cx="21" cy="23" r="1" fill="white"/>
  <circle cx="22" cy="23" r="1" fill="white"/>
  <circle cx="23" cy="23" r="1" fill="white"/>
</svg>
