<svg height="62" viewBox="0 0 62 62" width="62" xmlns="http://www.w3.org/2000/svg"><g fill="none" fill-rule="evenodd"><path d="m31 7c13.254724 0 24 10.745276 24 24 0 13.255224-10.745276 24-24 24s-24-10.744776-24-24c0-13.254724 10.745276-24 24-24" fill="#198cff"/><path d="m1 31c0-16.568561 13.431439-30 30-30 16.568562 0 30 13.431439 30 30 0 16.569079-13.431438 30-30 30-16.568561 0-30-13.430921-30-30zm6 0c0 13.255224 10.745276 24 24 24s24-10.744776 24-24c0-13.254724-10.745276-24-24-24s-24 10.745276-24 24z" fill="#fff"/><path d="m0 31c0 17.121381 13.879153 31 31 31s31-13.878619 31-31c0-17.120847-13.879153-31-31-31s-31 13.879153-31 31zm1 0c0-16.566748 13.429595-30 30-30s30 13.433252 30 30c0 16.567078-13.429425 30-30 30s-30-13.432922-30-30zm7-.0021c0 12.701774 10.297556 22.997919 23 22.997919s23-10.296145 23-22.997919c0-12.701275-10.297556-22.9979-23-22.9979s-23 10.296625-23 22.997919zm-1 .0021c0-13.252988 10.743501-24 24-24 13.256498 0 24 10.747012 24 24 0 13.253305-10.743339 24-24 24s-24-10.746695-24-24z" fill="#000" fill-rule="nonzero" opacity=".5"/><path d="m41.31957 56.077732c9.129287-3.891161 15.527989-12.927117 15.527989-23.455517 0-14.081793-11.445273-25.4977835-25.564434-25.4977835-14.118654 0-25.5644336 11.4159905-25.5644336 25.4977835 0 14.040391 11.3784506 25.426594 25.4393956 25.494249-.04303.000505-.08505.0035-.128075.0035-14.817753 0-26.8299998-11.980959-26.8299998-26.76 0-14.77904 12.0122468-26.7599995 26.8299998-26.7599995 14.817754 0 26.83 11.9809595 26.83 26.7599995 0 11.142847-6.8295 20.691263-16.540442 24.717734zm-10.807637 2.342009c16.552713 0 29.971304-13.383021 29.971304-29.891221 0-1.539398-.117304-3.051481-.342092-4.52852.557062 2.278433.858847 4.656331.858847 7.105349 0 16.508716-13.41859 29.890706-29.971303 29.890706-15.009165 0-27.4407522-11.003061-29.6286951-25.362185 3.1976832 13.076893 15.0153651 22.785871 29.1119391 22.785871z" fill="#000" fill-opacity=".1"/><path d="m31 13c9.941 0 18 8.059 18 18 0 9.9415-8.059 18-18 18s-18-8.0585-18-18c0-9.941 8.059-18 18-18z" fill="#f2f2f2"/><g fill="#000"><path d="m31 13c-9.941 0-18 8.059-18 18 0 9.9415 8.059 18 18 18s18-8.0585 18-18c0-9.941-8.059-18-18-18zm0-1c10.493285 0 19 8.506715 19 19 0 10.493616-8.506547 19-19 19s-19-8.506384-19-19c0-10.493285 8.506715-19 19-19z" fill-opacity=".25" fill-rule="nonzero"/><path d="m39 31c0 4.418224-3.581724 8-8 8s-8-3.581776-8-8 3.581724-8 8-8 8 3.581776 8 8z" fill-opacity=".05"/><path d="m38 31c0-3.865958-3.134028-7-7-7s-7 3.134042-7 7 3.134028 7 7 7 7-3.134042 7-7zm1 0c0 4.418224-3.581724 8-8 8s-8-3.581776-8-8 3.581724-8 8-8 8 3.581776 8 8z" fill-opacity=".15" fill-rule="nonzero"/></g><path d="m39 31c0-4.418224-3.581724-8-8-8s-8 3.581776-8 8 3.581724 8 8 8 8-3.581776 8-8zm1 0c0 4.970526-4.029456 9-9 9s-9-4.029474-9-9 4.029456-9 9-9 9 4.029474 9 9z" fill="#fff" fill-rule="nonzero"/><path d="m27 27.357939v-8.357939h8v13.929434l-1.999125 1.856081 1.999125 1.856546v8.357939h-8v-13.928505l1.999625-1.85701z" fill="#fff"/><path d="m27 26.357939v-8.357939h8v13.929434l-1.999125 1.856081 1.999125 1.856546v8.357939h-8v-13.928505l1.999625-1.85701z" fill="#4d4d4d"/><path d="m28 27.21502v-7.21502h5.999625v12.357939l-1.49925 1.713306v1.007514l1.49925 1.909251v7.01199h-5.999625v-12.380348l1.499625-1.676696v-1.014201z" fill="#808080"/></g></svg>