<svg height="175.71428" viewBox="0 0 175.71428 175.71428" width="175.71428" xmlns="http://www.w3.org/2000/svg"><g fill-rule="evenodd"><circle cx="87.85714" cy="87.85714" fill="#6abf69" r="87.85714"/><circle cx="87.85714" cy="87.857115" fill="#fc0" r="63.801794" stroke-width=".726199"/><g fill="#6abf69" transform="matrix(.72619931 0 0 .72619931 18.142006 -606.65244)"><path d="m96.001953 49.576172a46.424883 46.424883 0 0 0 -44.576172 33.576172h89.123049a46.424883 46.424883 0 0 0 -44.546877-33.576172z" transform="matrix(1.3770324 0 0 1.3770324 -36.195113 824.16707)"/><path d="m95.887704 966.54188a12.142858 12.142858 0 0 0 -12.142578 12.14258 12.142858 12.142858 0 0 0 6.773438 10.875l-4.458985 9.82428c-2.79146 6.14736-5.17976 11.45896-5.30664 11.80266-.21745.589.651601.625 15.144531.625h15.37499l-2.32812-5.0898c-1.28046-2.7991-3.70333-8.10606-5.38477-11.79302l-2.41992-5.30662a12.142858 12.142858 0 0 0 6.89063-10.9375 12.142858 12.142858 0 0 0 -12.142576-12.14258z"/></g></g></svg>