<svg height="60.691mm" viewBox="0 0 60.690781 60.690781" width="60.691mm" xmlns="http://www.w3.org/2000/svg" xmlns:xlink="http://www.w3.org/1999/xlink"><linearGradient id="a" gradientUnits="userSpaceOnUse" x1="29.924079" x2="90.613836" y1="141.32217" y2="141.32217"><stop offset="0" stop-color="#e8fff9"/><stop offset="1" stop-color="#d0efe7"/></linearGradient><g transform="translate(-29.924 -110.98)"><rect fill="url(#a)" height="60.691" rx="6.0691" width="60.691" x="29.924" y="110.98"/><g transform="translate(-.000002 -.12709)"><path d="m48.724 141.32v-11.546c0-6.4144 5.1315-11.546 11.546-11.546 6.4144 0 11.546 5.1315 11.546 11.546v11.546" fill="none" stroke="#013e5b" stroke-width="5.349"/><rect fill="#00c7a0" height="34.398" rx="2.2639" width="34.399" x="43.07" y="132.95"/><g transform="matrix(.74137 0 0 .74137 63.212 37.568)"><path d="m15.564 150.04-17.725-17.723c-1.021-1.0206-2.6759-1.0206-3.6969 0l-17.643 17.641c-1.0207 1.0215-1.0207 2.6769 0 3.6984l17.726 17.724c1.0213 1.0207 2.6764 1.0207 3.6977 0l17.64-17.641c1.0213-1.0214 1.0213-2.6773 0-3.6987" fill="#fff" stroke-width=".35344"/><path d="m-4.0093 131.55c-.66898 0-1.3381.25528-1.8486.76555l-3.68 3.6807 4.6686 4.6679c1.085-.36616 2.3295-.12036 3.1941.74415.84125.84164 1.1278 2.0898.73794 3.2141l4.4994 4.4994c1.0893-.37464 2.3443-.13225 3.2141.73863 1.2151 1.2147 1.2151 3.1846 0 4.3993-2.4041 2.4074-6.3737-.23834-5.0772-3.3839l-4.1964-4.1957c-3.01.71281-5.2516-1.707-4.2475-4.2723l-.9257-.9257v21.469h7.407v-7.9054c-.042529-1.0205 1.5108-1.0205 1.4683 0v8.6385c.0007069.40638-.32879.73608-.73517.73586h-8.876c-.40666.00071-.73648-.32921-.73587-.73586v-23.515c-.0007069-.049.00385-.0982.013118-.14634l-2.218-2.218-12.154 12.151c-1.0207 1.0215-1.0207 2.6772 0 3.6987l17.726 17.724c1.0213 1.0207 2.6767 1.0207 3.698 0l17.64-17.641c1.0214-1.0214 1.0214-2.6773 0-3.6987l-17.724-17.723c-.51051-.51027-1.1797-.76555-1.8486-.76555zm-.4915 20.495c.13507 0 .2439.0514.32721.15462.08738.0993.17891.26638.27405.50049.095124.23018.14688.35272.15463.36862.00799-.016.057151-.13844.14842-.36862.095367-.22998.189-.39736.28027-.50049.091261-.10312.2041-.15462.33894-.15462.19051 0 .35696.0634.49979.19052.14286.1269.21468.2837.21468.4701 0 .0912-.02414.18447-.071794.27958-.043579.0954-.10487.19481-.18431.29821-.07552.099-.15699.2119-.24437.33894.08738-.012.21428-.0339.38105-.0656.17066-.0319.30596-.0477.40521-.0477.13073 0 .23769.0302.32099.0898.087387.0596.15085.14055.19053.24368.039687.099.059367.20832.059367.32721 0 .18663-.045421.34319-.13668.47009-.091265.12303-.23594.18501-.4342.18501-.063658 0-.18889-.016-.37553-.0477-.1864-.0318-.32336-.0521-.41073-.0601.20648.29363.34178.49261.40521.59574.063438.0993.095262.20832.095262.32721 0 .1905-.071857.34472-.21468.46388-.13872.11501-.3054.17257-.49979.17257-.13872 0-.25389-.0494-.34515-.14841-.087157-.10339-.17657-.2637-.26784-.48183-.087165-.22221-.13869-.3494-.15463-.38106-.015728.0317-.069578.15885-.16084.38106-.08738.222-.1728.38258-.2561.48183-.083277.0991-.19611.14841-.33894.14841-.20237 0-.3749-.0576-.51773-.17257-.14285-.11916-.214-.27338-.214-.46388 0-.0834.021101-.1704.06489-.26164.043568-.0954.089721-.17677.13737-.24436.051567-.0673.15081-.2066.29752-.41695-.099252.008-.2362.0283-.41073.0601-.17454.0318-.29347.0477-.35689.0477-.19849 0-.34762-.062-.44663-.18501-.095403-.1269-.14289-.28346-.14289-.47009 0-.19029.04753-.34708.14289-.47011.099019-.12703.24814-.19052.44663-.19052.099252 0 .21959.0144.36241.0421.14283.0278.27812.0512.40521.0711-.11112-.1588-.2223-.31916-.33342-.48183-.1111-.16268-.16637-.30786-.16637-.43489 0-.18641.073275-.34321.22021-.47011.1467-.12704.31713-.19051.51152-.19051zm0 5.4507c.13507 0 .2439.0516.32721.15462.08738.0992.17891.2657.27405.49979.095124.23021.14688.35342.15463.36931.00799-.016.057151-.1391.14842-.36931.095367-.22999.189-.39666.28027-.49979.091261-.10313.2041-.15462.33894-.15462.19051 0 .35696.0634.49979.19051.14286.12691.21468.28348.21468.47011 0 .0911-.02414.18419-.071794.27957-.043579.0951-.10487.19441-.18431.29753-.07552.0992-.15699.2126-.24437.33962.08738-.012.21428-.0339.38105-.0656.17066-.0318.30596-.0476.40521-.0476.13073 0 .23769.0295.32099.0891.087387.0596.15085.14123.19053.24436.039687.0993.059367.20805.059367.32721 0 .1864-.045421.34319-.13668.4701-.091265.12303-.23594.18431-.4342.18431-.063658 0-.18889-.016-.37553-.0477-.1864-.0318-.32336-.0513-.41073-.0593.20648.29363.34178.49192.40521.59504.063438.0993.095262.20889.095262.32791 0 .19029-.071857.34499-.21468.46388-.13872.11515-.3054.17257-.49979.17257-.13872 0-.25389-.0501-.34515-.1491-.087157-.10313-.17657-.26371-.26784-.48184-.087165-.22221-.13869-.34938-.15463-.38104-.015728.0318-.069578.15883-.16084.38104-.08738.22225-.1728.38259-.2561.48184-.083277.0991-.19611.1491-.33894.1491-.20237 0-.3749-.0573-.51773-.17257-.14285-.11889-.214-.27359-.214-.46388 0-.0832.021101-.17108.06489-.26232.043568-.0951.089721-.17678.13737-.24437.051567-.0673.15081-.20591.29752-.41626-.099252.008-.2362.0277-.41073.0593-.17454.0318-.29347.0477-.35689.0477-.19849 0-.34762-.0613-.44663-.18431-.095403-.1269-.14289-.2837-.14289-.4701 0-.19052.04753-.34707.14289-.4701.099019-.12704.24814-.19052.44663-.19052.099252 0 .21959.0136.36241.0414.14283.0275.27812.0518.40521.0717-.11112-.15878-.2223-.31984-.33342-.48253-.1111-.16267-.16637-.3073-.16637-.4342 0-.18663.073275-.34319.22021-.4701.1467-.12704.31713-.19052.51152-.19052z" fill="#3bdbbc" stroke-width="1.3358"/></g></g></g></svg>