<svg height="66.145828mm" viewBox="0 0 66.145829 66.145828" width="66.145828mm" xmlns="http://www.w3.org/2000/svg"><g transform="translate(-284.19859 -143.22636)"><path d="m307.68034 185.9545v23.41769h28.09639c1.45253 0 2.85175-.21498 4.17337-.60771z" fill="#e4e1da"/><path d="m284.19865 169.35655v25.44806c0 6.34532 4.01774 11.71556 9.65726 13.72267v-32.34427z" fill="#ffccd5"/><path d="m293.85591 144.07127c-4.11042 1.4629-7.35738 4.71331-8.817 8.82478l8.817 6.23218z" fill="#e4e1da"/><path d="m307.68034 143.22636v25.67388l42.13839 29.78578c.33954-1.23524.52554-2.53533.52554-3.88141v-14.59653c-7.94451-.01-13.92968-2.22965-18.17816-4.65346-2.12897-1.2146-3.82454-2.47963-5.11904-3.53519-1.29452-1.05556-2.23355-1.92599-2.64686-2.22828-2.62635-1.92088-5.22688-5.70092-7.27498-10.40247-2.04811-4.70154-3.49437-10.32095-3.49437-15.8812 0-.0945.004-.18722.005-.28112z" fill="#9ddf7b"/><path d="m285.41011 151.95864c-.77745 1.78537-1.2113 3.75727-1.2113 5.83531v12.76252l54.5009 38.52427c5.73862-1.15998 10.23116-5.67225 11.36515-11.42049z" fill="#fcab1a"/><path d="m285.03907 152.89605c-.54282 1.52976-.84026 3.17745-.84026 4.8979v11.5626l55.75352 39.40948c4.79699-1.42376 8.54226-5.23957 9.86862-10.07846z" fill="#ffd634"/><path d="m298.76635 143.22636c-2.13801 0-4.16312.46013-5.98876 1.28054v63.58475c1.82564.82041 3.85075 1.28054 5.98876 1.28054h9.99264v-66.14583z" opacity=".125"/><path d="m298.76635 143.22636c-1.72505 0-3.37708.29879-4.91028.84439v64.45705c1.5332.5456 3.18523.84439 4.91028.84439h8.91416v-66.14583z" fill="#fff"/><path d="m313.63568 143.22636c-.001.0939-.005.1866-.005.28112 0 5.56025 1.44624 11.17966 3.49435 15.8812 2.04811 4.70155 4.64865 8.48159 7.27498 10.40247.41331.30229 1.35236 1.17272 2.64687 2.22828 1.2945 1.05556 2.99009 2.32059 5.11905 3.53519 4.24849 2.42381 10.23363 4.64364 18.17815 4.65346v-2.02933c-7.56833-.01-13.17124-2.10299-17.17253-4.38578-2.00533-1.14406-3.60644-2.33724-4.84362-3.34605-1.23717-1.00882-2.06488-1.80905-2.72851-2.29443-2.08888-1.52778-4.66471-5.09743-6.61508-9.57461-1.95037-4.47719-3.32433-9.86442-3.32433-15.0704 0-.0946.003-.18731.005-.28112z" fill="#90c36c"/><path d="m314.65008 143.22636c-.001.0936-.005.18628-.005.2806 0 10.76622 5.63917 22.01594 10.35438 25.4646 2.15141 1.57352 9.81442 10.20181 25.34462 10.2216v-21.39921c0-8.07058-6.49698-14.56759-14.56753-14.56759z" fill="#f4efeb"/><path d="m328.62697 143.22636c.17761 6.88515 1.90274 11.65532 6.14069 15.63109 2.03107 1.90544 4.00314 3.55635 6.89671 4.67361 2.22774.86017 4.96366 1.39926 8.68006 1.60249v-2.33216c-3.47717-.20037-5.93056-.70565-7.84238-1.44384-2.5142-.97077-4.16789-2.34651-6.14276-4.19922-3.80173-3.56655-5.25102-7.44812-5.40638-13.93197z" fill="#90c36c"/><path d="m329.78969 143.22636c.16691 6.68485 1.75431 11.01018 5.77379 14.78101 3.53574 3.31702 6.48293 5.49459 14.78095 5.96036v-6.17378c0-8.07058-6.49698-14.56759-14.56753-14.56759z" fill="#9ddf7b"/><path d="m298.76635 143.22636c-.68098 0-1.34942.05-2.00504.13953v28.30008a11.786549 11.786586 0 0 1 4.08811-.74053 11.786549 11.786586 0 0 1 3.92584.68834v-28.38742z" fill="#3394e3"/><path d="m188.18164 158.51953c-.71161.0227-1.40808.23529-2.00781.61914-6.30554 4.02512-13.56655 6.16118-20.98047 6.17188-5.39252-.004-10.7339-1.13672-15.69336-3.32227-1.92529-.84786-4.22297-.00046-5.14453 1.89063-3.22348 6.61617-4.90874 13.87878-4.93164 21.23828v.0137c.004 26.91942 21.90396 48.82422 48.82422 48.82422 26.92274 0 48.83203-21.90726 48.83203-48.83008a1.9771946 1.9771946 0 0 0 0-.008c-.0113-7.37515-1.69649-14.65236-4.92383-21.28321-.92315-1.89373-3.23396-2.7342-5.16016-1.88086-4.9522 2.19689-10.28166 3.33921-15.67187 3.35743-7.38206-.0302-14.6123-2.16211-20.89063-6.16993-.33448-.21392-.74433-.20585-1.12304-.31054a1.9771946 1.9771946 0 0 0 -1.12891-.31055z" fill="#0078d9" transform="matrix(.26458333 0 0 .26458333 284.1986 143.22636)"/><path d="m188.24219 160.49609a1.9771915 1.9771977 0 0 0 -1.00196.31055c-6.62139 4.22672-14.25679 6.46873-22.05078 6.47852-5.66725-.004-11.2755-1.18892-16.48437-3.48438a1.9771915 1.9771977 0 0 0 -2.57422.94336c-3.09298 6.34828-4.71046 13.31337-4.73242 20.375a1.9771915 1.9771977 0 0 0 0 .008c0 25.85224 20.9994 46.85157 46.85156 46.85157s46.85156-20.99933 46.85156-46.85157a1.9771915 1.9771977 0 0 0 0-.004c-.0113-7.07615-1.62781-14.05732-4.72461-20.41993a1.9771915 1.9771977 0 0 0 -2.57812-.9414c-5.20596 2.30944-10.81444 3.50834-16.48438 3.52539-7.75774-.0302-15.35461-2.2713-21.94531-6.47852a1.9771915 1.9771977 0 0 0 -1.12695-.31054z" fill="#fff" transform="matrix(.26458333 0 0 .26458333 284.1986 143.22636)"/><path d="m334.02093 186.21392a11.590158 11.873178 0 0 1 -6.1164 1.79627 11.590158 11.873178 0 0 1 -4.57179-.96635 11.873141 11.873178 0 0 0 -1.03767 3.27784h23.41608a11.873141 11.873178 0 0 0 -1.02888-3.28921 11.590158 11.873178 0 0 1 -4.57336.97772 11.590158 11.873178 0 0 1 -6.08798-1.79627z" fill="#de1c25"/><path d="m322.19844 191.1485a11.873141 11.873178 0 0 0 -.0651 1.05885 11.873141 11.873178 0 0 0 11.87313 11.87318 11.873141 11.873178 0 0 0 11.87315-11.87318 11.873141 11.873178 0 0 0 -.0548-1.05885z" fill="#0078d9"/><g fill="#fff" transform="matrix(.25421626 0 0 .22728026 283.49854 147.75783)"><path d="m185.23437 221.18252v5.09766h-19.23828q.3125-2.89063 1.875-5.46875 1.5625-2.59766 6.17188-6.875 3.71094-3.45703 4.55078-4.6875 1.13281-1.69922 1.13281-3.35938 0-1.83594-.99609-2.8125-.97656-.99609-2.71485-.99609-1.71875 0-2.73437 1.03515-1.01563 1.03516-1.17188 3.4375l-5.46875-.54687q.48829-4.53125 3.06641-6.50391 2.57813-1.97265 6.44531-1.97265 4.23828 0 6.66016 2.28515 2.42187 2.28516 2.42187 5.6836 0 1.93359-.70312 3.6914-.68359 1.73828-2.1875 3.65235-.99609 1.26953-3.59375 3.65234-2.59766 2.38281-3.30078 3.16406-.6836.78125-1.11328 1.52344z"/><path d="m193.67187 210.83096q-2.1289-.89844-3.10546-2.46094-.95704-1.58203-.95704-3.45703 0-3.20313 2.22657-5.29297 2.24609-2.08984 6.36718-2.08984 4.08204 0 6.32813 2.08984 2.26562 2.08984 2.26562 5.29297 0 1.99219-1.03515 3.55469-1.03516 1.54297-2.91016 2.36328 2.38281.95703 3.61328 2.79297 1.25 1.83593 1.25 4.23828 0 3.96484-2.53906 6.44531-2.51953 2.48047-6.71875 2.48047-3.90625 0-6.50391-2.05078-3.0664-2.42188-3.0664-6.64063 0-2.32422 1.15234-4.25781 1.15235-1.95312 3.63281-3.00781zm1.13282-5.52735q0 1.64063.91797 2.5586.9375.91797 2.48046.91797 1.5625 0 2.5-.91797.9375-.9375.9375-2.57813 0-1.54297-.9375-2.46093-.91796-.9375-2.4414-.9375-1.58203 0-2.51953.9375-.9375.9375-.9375 2.48046zm-.50782 12.26563q0 2.26562 1.15235 3.53516 1.17187 1.26953 2.91015 1.26953 1.69922 0 2.8125-1.21094 1.11329-1.23047 1.11329-3.53516 0-2.01172-1.13282-3.22265-1.13281-1.23047-2.87109-1.23047-2.01172 0-3.00781 1.38672-.97657 1.38672-.97657 3.00781z"/><path d="m220.50781 197.53018q4.16016 0 6.50391 2.96875 2.79297 3.51562 2.79297 11.66015 0 8.125-2.8125 11.67969-2.32422 2.92969-6.48438 2.92969-4.17969 0-6.73828-3.20313-2.55859-3.22265-2.55859-11.46484 0-8.08594 2.8125-11.64063 2.32422-2.92968 6.48437-2.92968zm0 4.55078q-.99609 0-1.77734.64453-.78125.625-1.21094 2.26562-.56641 2.12891-.56641 7.16797 0 5.03907.50782 6.9336.50781 1.875 1.26953 2.5.78125.625 1.77734.625.9961 0 1.77735-.625.78125-.64453 1.21093-2.28516.56641-2.10937.56641-7.14844 0-5.03906-.50781-6.91406-.50782-1.89453-1.28907-2.51953-.76171-.64453-1.75781-.64453z"/></g><ellipse cx="300.84967" cy="182.71205" fill="#0179da" rx="11.786549" ry="11.786586"/><path d="m300.79849 175.39963c-.008.00053-.0161.003-.0243.004-.0212.002-.0419.006-.063.0103-.0303.006-.0602.0119-.0894.0212-.007.002-.0133.002-.0196.005-.0103.004-.0193.009-.0294.0134-.0302.0119-.0594.0252-.0879.0408-.0185.0101-.0359.0211-.0532.0326-.0212.014-.0414.0284-.061.0444-.0206.0168-.0398.0345-.0584.0532-.0153.0156-.0299.0316-.0439.0486-.0183.0219-.0346.0446-.0501.0682-.0109.0166-.0214.0331-.031.0506-.0153.0277-.0281.0564-.0398.0858-.004.0107-.0105.0199-.0145.031l-1.07434 3.10886c-.003.004-.004.008-.006.0124l-.80355 2.32595-.54364 1.57252v.00052l-2.08307 6.0296c-.12451.27422-.0786.60627.14364.83716.12531.13016.28552.20269.45115.22376 0 .00009.003.00052.003.00052.0441.005.088.007.13229.005.013-.00053.0254-.002.0382-.003.0318-.003.0632-.008.0946-.0155.0204-.005.0402-.0103.06-.0165.0241-.008.0475-.0161.0708-.0264.0262-.0112.0512-.0242.076-.0382.014-.008.0282-.0161.0419-.0253.0337-.0221.0647-.0475.0946-.0749.003-.003.007-.005.0109-.008l.0429-.0408v-.002l3.9672-3.81889 3.96717 3.81889c.004.004.008.007.0114.0114l.0325.031c.003.003.007.005.0109.008.0299.0274.061.0528.0946.0749.0138.009.0277.0171.0419.0253.0246.0141.0498.027.076.0382.0233.0102.0468.0186.0708.0264.0198.006.0396.0119.0599.0165.031.007.062.0122.0935.0155.0132.001.026.003.0393.003.0443.002.0883.0008.13229-.005 0-.0001.003-.00052.003-.00052.16563-.0211.32586-.0936.45114-.22376.22228-.23089.26818-.56294.14367-.83716l-3.43079-9.92859c0-.003-.003-.006-.004-.009l-1.0754-3.11196c-.004-.0123-.0115-.0227-.0165-.0346-.0109-.0272-.0228-.0538-.0367-.0796-.0103-.0188-.0214-.0366-.0331-.0543-.0154-.0231-.0313-.0453-.0491-.0667-.0148-.0178-.0303-.0344-.0465-.0506-.0172-.0174-.0352-.0339-.0543-.0496-.0209-.0172-.0426-.0327-.0651-.0475-.0169-.0111-.0337-.0217-.0517-.0315-.0281-.0155-.057-.0285-.0868-.0403-.0103-.004-.0193-.0103-.03-.0139-.007-.002-.013-.003-.0196-.005-.0291-.009-.0587-.0156-.0889-.0212-.0212-.004-.042-.008-.063-.0103-.0249-.002-.0501-.003-.0755-.003-.0169-.00003-.0343-.003-.0511-.002z" fill="#fff"/><path d="m349.81873 198.68602c-.0177.0642-.0353.12844-.0538.19224.0185-.0637.0383-.12667.0558-.19069z" opacity=".24"/><path d="m349.76497 198.87826c-.019.0659-.0374.13193-.0574.1974.0198-.0654.0383-.13156.0574-.1974z" opacity=".24"/><path d="m349.70761 199.07566c-.0519.17023-.10549.33943-.16328.50695.0577-.16744.11155-.33674.16328-.50695z" opacity=".24"/><path d="m298.06184 143.24445c-.0769.004-.15292.0102-.22944.015.0766-.005.15253-.0113.22944-.015z" opacity=".24"/><path d="m297.38179 143.29302c-.10417.01-.20759.0217-.3111.0336.10343-.0119.20701-.0238.3111-.0336z" opacity=".24"/><path d="m296.70689 143.37312c-.10895.0153-.21741.0314-.32557.0491.10811-.0177.21667-.0337.32557-.0491z" opacity=".24"/><path d="m296.04078 143.48268c-.11306.0212-.22588.0428-.33795.0667.11197-.0239.225-.0454.33795-.0667z" opacity=".24"/><path d="m295.40258 143.61807c-.12068.0283-.24175.056-.36121.0873.11951-.0314.24051-.0589.36121-.0873z" opacity=".24"/><path d="m285.03269 152.91466c-.064.1811-.12438.36393-.18137.54828.057-.18431.11739-.36719.18137-.54828z" opacity=".24"/><path d="m284.84201 153.49395c-.0542.17688-.10531.35513-.15296.53485.0477-.17965.0987-.35802.15296-.53485z" opacity=".24"/><path d="m284.66992 154.10218c-.0432.16646-.0835.33406-.12091.50281.0375-.16873.0776-.33636.12091-.50281z" opacity=".24"/><path d="m284.52472 154.71455c-.0333.15597-.0637.31296-.092.47077.0284-.1577.0586-.31491.092-.47077z" opacity=".24"/><path d="m284.40793 155.32175c-.0271.15961-.051.32024-.0729.48162.022-.16134.0457-.32205.0729-.48162z" opacity=".24"/><path d="m284.31803 155.92636c-.0206.16187-.0375.32483-.0527.48834.0153-.16351.0321-.32648.0527-.48834z" opacity=".24"/><path d="m284.25238 156.54596c-.013.15248-.0225.30611-.0305.45992.008-.15387.0175-.30739.0305-.45992z" opacity=".24"/><path d="m284.21209 157.1759c-.008.20504-.0135.41084-.0135.61805 0-.2071.005-.41315.0135-.61805z" opacity=".24"/><path d="m339.9501 208.76448.003.002c.13912-.0413.27763-.0849.41495-.13022-.1378.0454-.27744.0872-.41704.12867z" opacity=".24"/><path d="m344.8087 206.24577c-.2246.1773-.45423.3486-.68934.51263.23516-.16407.46469-.33529.68934-.51263z" opacity=".24"/><path d="m344.09454 206.77597c-.11618.0807-.23381.15932-.35242.23668.11864-.0774.23622-.15598.35242-.23668z" opacity=".24"/><path d="m343.66719 207.06071c-.2317.14907-.46794.29185-.7085.42788.24064-.13607.47672-.27877.7085-.42788z" opacity=".24"/><path d="m342.92718 207.50667c-.12909.0726-.25916.14316-.39068.21188.13149-.0687.26159-.13931.39068-.21188z" opacity=".24"/><path d="m342.50911 207.7325c-.24781.1288-.50003.25062-.75602.36535.25599-.11473.50821-.23655.75602-.36535z" opacity=".24"/><path d="m295.04137 208.89315c.11946.0313.24053.059.36121.0873-.1207-.0284-.2417-.056-.36121-.0873z" opacity=".24"/><path d="m295.70283 209.04922c.11207.0238.22489.0454.33795.0667-.11295-.0213-.22598-.0428-.33795-.0667z" opacity=".24"/><path d="m296.38132 209.17634c.10816.0177.21662.0338.32557.0491-.1089-.0153-.21746-.0313-.32557-.0491z" opacity=".24"/><path d="m297.07069 209.27194c.10351.0119.20693.0238.3111.0336-.10409-.01-.20767-.0216-.3111-.0336z" opacity=".24"/><path d="m297.8324 209.33912c.0765.005.15258.0113.22944.015-.0769-.004-.15287-.0102-.22944-.015z" opacity=".24"/></g></svg>