<svg height="66.145836mm" viewBox="0 0 66.145836 66.145836" width="66.145836mm" xmlns="http://www.w3.org/2000/svg" xmlns:xlink="http://www.w3.org/1999/xlink"><linearGradient id="a" gradientUnits="userSpaceOnUse" x1="-25.885184" x2="-25.885184" y1="207.600631" y2="154.054607"><stop offset="0" stop-color="#0cbd2a"/><stop offset="1" stop-color="#5bf675"/></linearGradient><g transform="translate(59.483067 -145.8456)"><rect fill="url(#a)" height="66.145836" rx="14.567832" width="66.145836" x="-59.483067" y="145.8456"/><path d="m-26.410149 157.29606a24.278298 20.222157 0 0 0 -24.278105 20.22202 24.278298 20.222157 0 0 0 11.79463 17.31574 27.365264 20.222157 0 0 1 -4.245218 5.94228 23.85735 20.222157 0 0 0 9.86038-3.87367 24.278298 20.222157 0 0 0 6.868313.83768 24.278298 20.222157 0 0 0 24.2781059-20.22203 24.278298 20.222157 0 0 0 -24.2781059-20.22202z" fill="#fff"/></g></svg>