<svg height="602" width="602" xmlns="http://www.w3.org/2000/svg" xmlns:xlink="http://www.w3.org/1999/xlink"><linearGradient id="a" gradientUnits="userSpaceOnUse" x1="318.56277" x2="322.14346" y1="13.4121" y2="601.56882"><stop offset="0" stop-color="#84fa6e"/><stop offset="1" stop-color="#16d223"/></linearGradient><g transform="translate(.000018 -.000105)"><path d="m138.6843 1.000239h324.63136c76.27702 0 137.68432 61.407066 137.68432 137.684071v324.63159c0 76.277-61.4073 137.68407-137.68432 137.68407h-324.63136c-76.277173 0-137.68431535-61.40707-137.68431535-137.68407v-324.63159c0-76.277005 61.40714235-137.684071 137.68431535-137.684071z" fill="url(#a)"/><path d="m137.95467 165.87431c-20.73194 0-37.40625 13.11688-37.40625 29.40625v200.46875c0 16.28938 16.67431 29.40625 37.40625 29.40625h216.53125c20.73194 0 37.40625-13.11687 37.40625-29.40625v-200.46875c0-16.28937-16.67431-29.40625-37.40625-29.40625zm367 31.71885v199.18787l18.09375-.00006v-11.06291-28.71875-28.75-28.71875-28.75-28.71875-28.75-7.17969-7.17968-1.3596zm-7.25-.0001-3.59375 1.875-14.46875 7.4375-14.46875 7.4375-14.46875 7.4375-14.46875 7.4375-14.46875 7.4375-14.46875 7.4375v11.1875 11.1875 11.21875 11.1875 11.1875 11.1875 11.21875 11.1875l14.46875 10.09375 14.46875 10.09375 14.46875 10.125 14.46875 10.09375 14.46875 10.09375 14.46875 10.09375 3.59375 2.53125zm-414.093751 20.375c-3.70213 0-6.6875 3.74733-6.6875 8.375v30.875c0 4.62766 2.98537 8.34375 6.6875 8.34375h1.3125 5.6875 2.6875v-8.34375-30.875-8.375h-2.6875-5.6875z" fill="#fff"/></g></svg>