<svg height="420" viewBox="0 0 420.00002 420.00001" width="420" xmlns="http://www.w3.org/2000/svg" xmlns:xlink="http://www.w3.org/1999/xlink"><filter id="a" color-interpolation-filters="sRGB"><feFlood flood-opacity=".498039" result="flood"/><feComposite in="flood" in2="SourceGraphic" operator="in" result="composite1"/><feGaussianBlur in="composite1" result="blur" stdDeviation="3"/><feOffset dx="0" dy="0" result="offset"/><feComposite in="SourceGraphic" in2="offset" operator="over" result="composite2"/></filter><linearGradient id="b" gradientUnits="userSpaceOnUse" x1="221.1066" x2="221.1066" y1="416.89981" y2="22.578199"><stop offset="0" stop-color="#f2f2f2"/><stop offset=".5963" stop-color="#f7f7f7"/><stop offset="1" stop-color="#fefefe"/></linearGradient><g filter="url(#a)" transform="translate(3.893388 .260988)"><path d="m418.2674 219.739c0-110.0205-87.1308-197.1608-197.1608-197.1608-110.0205 0-197.1608 87.1403-197.1608 197.1608 0 110.03 87.1403 197.1608 197.1608 197.1608s197.1608-87.1308 197.1608-197.1608z" fill="url(#b)" transform="translate(-14.999988 -9.999988)"/><g fill="#515151" transform="translate(-14.999988 -9.999988)"><path d="m241.0412 155.1653h.1996v6.9268h7.9149v-28.5147c0-2.0619-.399-3.9337-1.1877-5.606-.7886-1.6723-1.9099-3.0975-3.3636-4.2853-1.4538-1.1877-3.2116-2.0904-5.264-2.7365s-4.3423-.9597-6.8698-.9597c-2.3469 0-4.5133.3231-6.5087.9597-1.9954.6367-3.7151 1.5298-5.1879 2.6795s-2.632 2.499-3.4871 4.0573-1.3113 3.259-1.3588 5.0929h7.7724c.1805-.8931.5131-1.7103.9977-2.4324.4751-.7316 1.0927-1.3588 1.8339-1.8813s1.5963-.9217 2.5655-1.2067c.9691-.2756 2.0239-.4181 3.145-.4181 2.7841 0 4.9315.6271 6.4517 1.8718 1.5203 1.2448 2.2804 3.0786 2.2804 5.473v3.2115l-11.212.6462c-5.1594.3326-9.0931 1.5298-11.8107 3.5822-2.7175 2.0524-4.0762 4.9028-4.0762 8.5515 0 1.8624.342 3.5536 1.0357 5.0739.6841 1.5203 1.6533 2.8126 2.8885 3.8862 1.2352 1.0737 2.708 1.9003 4.4373 2.4894 1.7198.5891 3.6107.8837 5.682.8837 1.4063 0 2.7745-.171 4.1143-.5131 1.3398-.342 2.575-.8361 3.7152-1.4727 1.1307-.6366 2.1473-1.4158 3.0595-2.3184.9027-.9028 1.6438-1.9195 2.2329-3.0407zm-3.164-1.9289c-.9692.8361-2.1284 1.4918-3.4491 1.9573s-2.7556.7031-4.2853.7031c-2.3945 0-4.3138-.5226-5.7391-1.5868-1.4348-1.0547-2.1474-2.4799-2.1474-4.2662 0-1.8339.7222-3.2686 2.1664-4.3043 1.4442-1.0262 3.5916-1.6343 6.4517-1.8148l10.1003-.6936v3.2496c0 1.3777-.2756 2.6415-.8267 3.7912-.5415 1.1497-1.3017 2.1379-2.2708 2.9645z"/><path d="m295.8567 246.0873-13.73-3.4301c-16.723-4.2188-23.5833-9.6823-23.5833-18.9179 0-11.7062 10.908-19.8016 26.6619-19.8016 15.8489 0 26.4908 8.01 27.726 21.0369h17.8632c-.7031-21.645-19.0034-36.6957-45.2281-36.6957-26.8424 0-45.6748 14.9652-45.6748 36.5247 0 17.5117 10.6419 28.1631 34.0542 33.9686l16.2859 4.0477c16.7135 4.2188 23.9348 10.3854 23.9348 20.5903 0 11.7916-11.8867 20.4192-28.4291 20.4192-17.2457 0-29.8354-8.6276-31.2417-21.6544h-18.0438c1.3112 22.7946 20.1531 37.3132 47.8697 37.3132 29.7499 0 48.4018-14.6992 48.4113-38.2824 0-18.481-10.737-28.7808-36.8762-35.1185z"/><path d="m205.0487 162.1015v-28.3246c0-2.0714-.3231-3.9527-.9597-5.644s-1.5488-3.1356-2.7365-4.3232c-1.1877-1.1877-2.613-2.0999-4.2853-2.7556-1.6724-.6556-3.5251-.9786-5.5681-.9786-1.4822 0-2.8885.1805-4.2283.5511-1.3397.3706-2.575.9026-3.6962 1.6058s-2.1188 1.5583-2.9835 2.5465-1.5678 2.1094-2.0999 3.3636h-.1995c-.8361-2.6035-2.2614-4.5988-4.2662-5.9861-1.9954-1.3873-4.4564-2.0809-7.3639-2.0809-1.3492 0-2.6414.171-3.8672.5131-1.2162.342-2.3469.8361-3.3636 1.4918-1.0262.6556-1.9194 1.4348-2.6985 2.3564-.7792.9122-1.4158 1.9669-1.9003 3.1356h-.152v-7.0408h-7.9244v41.5606h7.8389v-25.4932c0-1.3492.6841-2.6035 1.1022-3.7437.4276-1.1497 1.0357-2.1379 1.8148-2.9835.7792-.8362 1.7103-1.4918 2.7935-1.9669 1.0927-.4751 2.2709-.7126 3.5441-.7126 1.2258 0 2.3279.1901 3.3161.5606.9787.3705 1.8243.8932 2.5085 1.5868.6936.6936 1.2162 1.5203 1.5868 2.4894s.5606 2.0524.5606 3.2496v27.0229h8.1525v-25.7972c0-1.3303.2186-2.556.6556-3.6772.4276-1.1212 1.0262-2.0904 1.7958-2.8885.7601-.8076 1.6818-1.4348 2.7365-1.8813 1.0642-.4466 2.2329-.6746 3.5062-.6746 2.6035 0 4.6083.7506 6.0051 2.2424 1.4062 1.4918 2.1094 3.6107 2.1094 6.3376v26.3388h8.2665z"/><path d="m164.7424 188.2788c-36.3441 0-59.1387 25.3411-59.1387 65.6475 0 40.3063 22.7946 65.5619 59.1387 65.5619s59.0532-25.2651 59.0532-65.5619c0-40.3064-22.7091-65.6475-59.0532-65.6475zm0 115.0089c-24.9041 0-40.4774-19.0984-40.4774-49.371 0-30.358 15.5733-49.4565 40.4774-49.4565 24.8185 0 40.4869 19.0984 40.4774 49.4565 0 30.2725-15.6589 49.371-40.4774 49.371z"/><path d="m269.4704 130.8789c.9692-1.2352 2.1379-2.1949 3.5062-2.8695 1.3588-.6746 2.8885-1.0167 4.5703-1.0167 1.4348 0 2.708.1901 3.8482.5891 1.1307.3896 2.1189.9312 2.9645 1.6248.8362.6936 1.5108 1.5107 2.0239 2.4514s.8742 1.9669 1.0737 3.0596h7.9149c-.1805-1.9858-.7126-3.8767-1.6058-5.663-.8931-1.7863-2.1093-3.3446-3.6391-4.6843-1.5298-1.3398-3.3541-2.404-5.492-3.1926-2.1284-.7886-4.5228-1.1877-7.1738-1.1877-2.936 0-5.606.5035-8.0005 1.5107-2.3944 1.0072-4.4373 2.442-6.1381 4.3043s-3.012 4.1047-3.9432 6.7177c-.9312 2.6225-1.3968 5.549-1.3778 8.7701 0 3.2971.4656 6.2521 1.3968 8.8841s2.2519 4.8649 3.9622 6.6987 3.7722 3.2496 6.1666 4.2283c2.404.9786 5.074 1.4727 8.0385 1.4727 2.499 0 4.7983-.3515 6.8887-1.0356s3.9052-1.6628 5.454-2.9266c1.5393-1.2637 2.7935-2.784 3.7627-4.5703s1.5677-3.7627 1.7958-5.9291h-7.9244c-.5131 2.4514-1.6153 4.3138-3.3256 5.587s-3.9147 1.9098-6.6227 1.9098c-1.6533 0-3.1735-.3325-4.5513-.9786s-2.5655-1.5868-3.5442-2.8125c-.9882-1.2258-1.7483-2.7175-2.2804-4.4943-.5416-1.7673-.8076-3.7817-.8076-6.0241 0-2.1664.2661-4.1332.8076-5.9101.5321-1.7674 1.2827-3.2781 2.2519-4.5133z"/></g></g></svg>