<svg height="36.000549" viewBox="0 0 36.000549 36.00055" width="36.000549" xmlns="http://www.w3.org/2000/svg" xmlns:xlink="http://www.w3.org/1999/xlink"><linearGradient id="a" gradientUnits="userSpaceOnUse" x1="14" x2="50" y1="32" y2="32"><stop offset="0" stop-color="#91dcf7"/><stop offset=".99967" stop-color="#3b81f4"/></linearGradient><linearGradient id="b" gradientUnits="userSpaceOnUse" x1="38.050251" x2="47.949749" y1="41.949749" y2="32.050251"><stop offset="0" stop-color="#3b81f4" stop-opacity="0"/><stop offset=".99967" stop-color="#3b81f4"/></linearGradient><linearGradient id="c" x1="34.5" x2="34.5" xlink:href="#b" y1="39" y2="20"/><linearGradient id="d" gradientUnits="userSpaceOnUse" x1="27.53553" x2="20.46447" y1="32.53553" y2="25.46447"><stop offset="0" stop-color="#a2ddf6" stop-opacity="0"/><stop offset=".99967" stop-color="#a2ddf6"/></linearGradient><linearGradient id="e" gradientUnits="userSpaceOnUse" x1="26.803301" x2="16.196699" y1="41.803299" y2="31.196699"><stop offset="0" stop-color="#8bd6f6" stop-opacity="0"/><stop offset=".99967" stop-color="#8fd9f7"/></linearGradient><linearGradient id="f" gradientUnits="userSpaceOnUse" x1="38.050251" x2="47.949749" xlink:href="#b" y1="41.949749" y2="32.050251"/><g transform="translate(-14.000001 -13.999725)"><path d="m43.97095 30.07507c.01147-.19128.02905-.38092.02905-.57507a9.49291 9.49291 0 0 0 -17.63867-4.88171 4.94387 4.94387 0 0 0 -2.36133-.61829 5 5 0 0 0 -5 5c0 .144.03046.27942.04236.42035a7.49635 7.49635 0 0 0 2.45764 14.57965h21.5a6.996 6.996 0 0 0 .97095-13.92493z" fill="url(#a)"/><circle cx="43" cy="37" fill="url(#f)" opacity=".25" r="7"/><circle cx="34.5" cy="29.5" fill="url(#c)" opacity=".25" r="9.5"/><circle cx="24" cy="29" fill="url(#d)" opacity=".5" r="5"/><circle cx="21.5" cy="36.5" fill="url(#e)" opacity=".25" r="7.5"/></g></svg>