<svg height="242.58052" width="242.58052" xmlns="http://www.w3.org/2000/svg"><path d="m151.04157 18.180301c-16.00563-.05759-27.49964 1.596579-40.40625 5.8125-4.34442 1.41909-11.291657 4.146999-15.437507 6.062498-4.14585 1.91551-11.83402 6.336252-17.09375 9.84375-5.25973 3.50749-13.25922 9.60996-17.78125 13.53125-4.52202 3.92128-11.42252 10.821733-15.34375 15.34375-3.92124 4.52202-9.4405 11.69857-12.25 15.937497-2.80949 4.23892-5.26863 7.54388-5.46875 7.34375-.82779-.82779 6.861-15.657099 12.21875-23.562497l5.75-8.5-6.1875 6c-3.39897 3.3-9.44729 10.346886-13.46875 15.65625-4.02148 5.309357-9.37543 13.409357-11.875 17.999997-2.49958 4.590644-6.0344004 12.618754-7.8437504 17.843754l-3.28125 9.50002v17 17l2.71875 8c1.4871 4.4 4.39218 10.91701 6.4687504 14.46875 2.07658 3.55174 6.89414 9.72773 10.6875 13.75 3.79337 4.02227 9.86838 9.30702 13.5 11.71875 10.83487 7.19534 21.80616 11.50624 35.59375 13.96875 4.4.78585 13.5706 1.45066 20.375 1.5 6.80442.0494 17.095827-.61061 22.875007-1.46875 5.7792-.85813 15.77844-3.08379 22.21875-4.9375 6.44032-1.85372 16.34929-5.40562 22.03125-7.90625l10.34375-4.53125 6.5625 1.96875c7.46139 2.25834 41.43387 9.96272 41.90625 9.5.17001-.16653-3.69496-8.3346-8.59375-18.15625l-8.90625-17.875 7.90625-9.5c4.36297-5.225 10.44892-13.2871 13.5-17.90625s7.69871-12.94415 10.34375-18.5c2.64503-5.55585 5.73605-13.46875 6.875-17.59377 1.13894-4.125 2.5403-11.45749 3.09375-16.3125.69455-6.092784.67911-11.513894-.0625-17.500004-.59096-4.769987-2.13762-11.75655-3.4375-15.499997-1.29987-3.74344-4.3369-10.268789-6.71875-14.5-5.45424-9.68913-17.05969-21.50006-25.46875-25.937498-3.37699-1.78202-6.4276-3.25-6.8125-3.25s1.57034 1.81431 4.375 4.031248c5.62777 4.4485 12.57018 12.817381 16 19.28125l2.25 4.1875-2.25-3c-1.2308-1.65-5.6407-6.424399-9.8125-10.59375-5.78463-5.78124-9.61138-8.575872-16.09375-11.781248-5.52761-2.73327-11.99694-4.91757-18.5-6.28125-7.38845-1.54936-13.78674-2.11771-24.5-2.15625zm-.5 11.062498c10.95722.01723 15.67969.498079 21.78125 2.125 4.28775 1.14328 10.81274 3.498951 14.5 5.25 4.74753 2.25459 8.93449 5.40251 14.3125 10.78125 5.8317 5.83251 8.5451 9.566628 11.75 16.09375 2.29549 4.675 4.85071 11.649998 5.65625 15.5.80554 3.849997 1.45921 10.442137 1.46875 14.656247.03 13.253194-3.66641 28.188524-10.5 42.343774-1.85864 3.85-5.30322 9.92499-7.65625 13.5-2.35303 3.575-7.78974 10.1352-12.0625 14.59375-4.27276 4.45854-7.75 8.39474-7.75 8.71875 0 .324 3.6 6.08474 8 12.8125s8 12.6103 8 13.0625c0 .45219-.2337.81249-.53125.8125-.29754 0-6.98622-2.47501-14.84375-5.5-7.85753-3.025-15.44225-5.50001-16.84375-5.5-1.40149 0-4.9503 1.06995-7.90625 2.375-9.75746 4.30791-27.95268 9.67939-37.75 11.15625-5.30383.7995-13.225 1.40757-17.625 1.34375-15.884117-.23041-27.826327-2.98049-41.500007-9.5625-8.01029-3.85586-10.84563-5.92159-18.09375-13.1875-6.55482-6.57089-9.47525-10.406-12.25-16.125-2.00138-4.125-4.32299-10.1907-5.15625-13.46875-2.1477-8.449-1.94404-22.51901.46875-32.125 1.09274-4.35049 4.25956-12.50223 7.03125-18.12502 2.77168-5.622804 7.70472-13.762044 10.96875-18.093754 3.26404-4.331697 9.99384-11.732971 14.9375-16.437497 9.60237-9.13789 21.24519-17.367409 32.59375-23.03125 9.821987-4.90197 22.876487-9.341051 34.812507-11.84375 7.6555-1.60518 13.668-2.141551 24.1875-2.125z" fill="#f68f1e"/><path d="m108.86997 156.46028.40942-19.03462-16.230057 10.09231c-8.92653 5.55076-16.36117 9.95384-16.52142 9.78461-.83499-.88176-13.48788-22.4024-13.48917-22.94302-.00083-.34943 7.42108-4.84943 16.49314-10s16.49465-9.58969 16.49465-9.86469-7.42259-4.7141-16.49465-9.86467c-9.07206-5.150574-16.49397-9.650574-16.49314-10.000004.001-.53614 12.64897-22.054644 13.47897-22.932814.15464-.16362 6.93483 4.04179 15.06707 9.34537 8.13225 5.303574 15.441527 9.894444 16.242837 10.201934 1.2533.48093 1.39934-2.11802 1.04493-18.595374l-.41199-19.15444h13.93694 13.93694l-.70992 19.53275-.70992 19.532754 6.81132-4.37992c3.74623-2.40895 10.63632-6.840524 15.31132-9.847944 4.675-3.00741 9.03327-5.78468 9.68505-6.1717.77345-.45928 3.62652 3.36734 8.21443 11.017434 3.86616 6.44661 6.93289 11.795 6.81495 11.88533-.11794.0903-6.73943 3.87381-14.71443 8.407744-7.975 4.53393-15.56793 8.91571-16.87317 9.73729l-2.37317 1.49378 15.87317 8.97223c8.73024 4.93473 16.4253 9.28762 17.10013 9.67311.86388.49347-.85443 4.1715-5.80657 12.42893-5.95251 9.92548-7.29924 11.58585-8.76224 10.80287-.95079-.50885-7.78783-4.69486-15.19343-9.30225-7.40559-4.60739-14.05949-8.73977-14.78642-9.18307-1.08719-.66297-1.19442 2.58368-.60436 18.29735l.71734 19.10333h-13.93398-13.93398z" fill="#f68f1e"/><path d="m27.037223 115.99487c0-.275-.225-.5-.5-.5s-.5.225-.5.5.225.5.5.5.5-.225.5-.5z" fill="#fff"/><g fill="#f68f1e" fill-rule="evenodd"><path d="m5.3263726 167.38597c-3.5292-9.42778-4.78033-15.55049-4.82631-24.62224-.0118-8.93132 1.55325-12.57844 5.69253-24.56876z" stroke="#f68f1e"/><path d="m2.2877226 155.47086c-1.37743-6.4774-1.63005-15.14738-.60518-20.76993.11411-.62602.34877-1.70734.52146-2.40292l.31397-1.2647.0216 6.38673c.0119 3.51269.0119 9.25477 0 12.76017l-.0216 6.37344z"/></g></svg>