<svg height="64" preserveAspectRatio="xMidYMid" viewBox="0 0 3.2768 3.2768" width="64" xmlns="http://www.w3.org/2000/svg"><g stroke-width=".015518" transform="matrix(.82482803 0 0 .82482803 -3.698318 .195772)"><path d="m8.4564517 1.7489746c0 1.0971167-.8892965 1.9863827-1.9864014 1.9863827-1.0970392 0-1.9863055-.889266-1.9863055-1.9863827 0-1.09704234.8892663-1.98632318 1.9863055-1.98632318 1.0971049 0 1.9864014.88928084 1.9864014 1.98632318z" fill="#ec1c24"/><path d="m6.2997676 1.3283018.4762749.4761023c.068748.068841.1803707.068841.2492881 0 .068763-.068823.06892-.1803536 0-.2491939l-.4763069-.4762888c-.3407988-.34087652-.8916081-.34637242-1.2396384-.0173225a.14798332.14798332 0 0 0 -.00939.0085c-.00149.00148-.00269.00314-.00425.0045-.00149.00148-.00313.00296-.00463.00432-.00298.00299-.00574.00616-.00838.00927-.329216.3481841-.3235513.8990105.017272 1.2398692l.476292.4761972c.068905.068793.1803685.068793.2492561 0 .068935-.068855.068935-.1805253.0001716-.2492236l-.4763067-.4762791c-.2079155-.2078388-.2093136-.545147-.0043271-.7547684.2095918-.2049991.5467135-.2035096.7546595.0043196zm.6147133-.63428302c-.068823.0688555-.068823.18036841.0001865.24920873l.4761204.47630669c.2077909.2078209.2091412.5450819.0041779.7547506-.2096538.2048451-.5466657.203477-.7545521-.0043793l-.476289-.4762416c-.068867-.068855-.1805251-.068855-.249318 0-.06895.068793-.06895.1806645 0 .2493036l.4761345.4763186c.3409064.3408616.8916559.3464019 1.2397489.017322.00321-.00296.00627-.00551.00947-.00853.00149-.00148.00298-.00299.00425-.0045.00149-.00148.00306-.00296.00448-.00447.00306-.00296.00567-.00595.00838-.00921.329225-.3480483.323714-.8986852-.017084-1.2397482l-.4763154-.47613701c-.0688377-.06895029-.1806028-.06895029-.2493807.00001477z" fill="#fff"/></g></svg>