<svg height="400.13965" width="400.13965" xmlns="http://www.w3.org/2000/svg"><path d="m129.54733 397.94079 156.72858.32557 64.69404-26.10258-55.10398-345.883422-200.917579-3.391014-33.062386 347.578936z" fill="#fff"/><path d="m169.141 1.831c-132.702 5.141-175.733 62.945-168.748 226.685 4.831 113.219 41.895 164.577 122.068 169.142 11.71.666 12.095.585 7.324-1.554-21.852-9.795-34.575-37.255-38.557-83.213-1.94-22.389-1.941-83.768-.001-102.236 3.608-34.36 17.083-45.612 59.164-49.403 9.431-.849 57.24-.705 66.015.199 38.186 3.935 55.734 15.824 58.626 39.721.494 4.083.383 7.104-.891 24.219-1.617 21.742-1.132 36.49 1.445 43.901 2.557 7.352 5.656 9.428 20.277 13.582 27.72 7.876 32.479 15.187 30.348 46.618-2.369 34.949-15.255 56.772-39.363 66.664l-4.132 1.696 5.029.112c22.341.498 47.848-6.596 64.013-17.805 29.341-20.346 43.415-53.969 47.534-113.557.696-10.072.696-87.385 0-100.586-4.82-91.393-27.399-130.899-86.082-150.613-31.3-10.516-87.147-15.777-144.069-13.572m41.406 38.76c39.502 3.382 56.741 14.15 57.339 35.817.667 24.124-16.213 35.713-55.972 38.426-8.331.569-53.677.602-60.937.045-38.345-2.941-55.43-14.384-55.461-37.145-.032-23.317 19.729-35.199 62.334-37.48 8.336-.446 46.392-.203 52.697.337" fill-rule="evenodd" transform="translate(.325649 .388835)"/></svg>