<svg height="20.372919mm" viewBox="0 0 20.372919 20.372919" width="20.372919mm" xmlns="http://www.w3.org/2000/svg"><path d="m-24.02319 36.114116c.690796 1.502078.837512 1.812298 1.367197 3.339806.30413.959655-.305054 2.381015-2.816667 1.172816-1.788727-.852643-3.082896-1.456742-2.017055-2.878102.519427-.6897 1.107498-1.332036 1.756372-1.918447.690512-.603074 1.118121-.983154 1.710153.283927zm-.595537 9.621076c1.31544-1.293642 3.143132.153607 1.866457 1.890117-2.572249 3.516414-7.062821 4.918682-11.086571 3.505755-4.02375-1.412926-6.737613-5.276235-6.736816-9.695605-.01014-2.647688.868112-4.857043 2.546198-6.847179 1.615274-1.807455 4.019953-3.25572 6.391604-3.286646 3.333827 0 4.823281 2.916296 3.649119 4.542536-1.311994 1.808229-2.837629 1.661204-3.972164.885736 0 0-1.560955-1.10717-2.021833-1.476525-.709838-.553137-1.490315-.553137-1.773734.332599-.496197 1.586795-.744296 2.583696-1.134535 4.170491-.181546.79837-.276611 1.615386-.283418 2.435775.0082 1.51024.673356 2.935318 1.809053 3.875545.784193.736566 1.626502 1.403216 2.518031 1.992907.717806.489722 1.553917.758527 2.412071.775467h.07064c.858154-.01694 1.694265-.285745 2.412071-.775467 1.15936-.697777 2.273069-1.474643 3.333827-2.325506zm-9.378967-1.828699c-.473108-.173307-1.544111-1.107992-1.22947-1.801223.126315-.381109 1.04038-.484589 1.323633-.484589 1.671192-.03449 1.733967 2.94455-.09416 2.285812zm2.939256 3.173961c-.213458-.191365-.604942-.574095-.960994-.893295-.0986-.107026-.117575-.256095-.04841-.380285.06917-.124189.213487-.200162.36816-.19381.62806-.03191 1.257631-.03191 1.88569 0 .145717.01072.271824.09507.324789.21724.05297.122171.0235.260728-.0759.356855-.355187.3192-.746671.70193-.924697.893295-.07724.06394-.179222.09839-.284322.09607-.1051.0023-.207079-.03214-.284323-.09607zm3.748394-3.173961c-1.828129.658738-1.765354-2.320305-.09416-2.285812.283253 0 1.16593.10348 1.323633.484589.31464.693231-.756362 1.627916-1.229471 1.801223z" fill="#25b135" transform="translate(41.634078 -31.301633)"/></svg>