<svg height="770.88623" width="770.88623" xmlns="http://www.w3.org/2000/svg"><g transform="translate(-.790119 -24.85621)"><path d="m55.39264 532.81707 286.97167-491.308955c96.40328-72.991663 403.61899 137.032925 376.36158 224.401685l-264.75263 505.47102c59.22395-106.02511-313.55653-331.48731-398.58062-238.56375z" fill="#e6e6e6" fill-rule="evenodd" stroke="#241c1c" stroke-width="3"/><g stroke="#000"><path d="m395.54691 28.063323-283.02131 480.539127" fill="#808080" stroke-opacity=".119497" stroke-width="1.646797"/><path d="m193.26809 521.672 273.62829-478.51026" fill="none" stroke-opacity=".069182" stroke-width="1.657783"/><g stroke-width="1.650723"><path d="m283.66518 559.54595 266.08858-481.823282" fill="#b3b3b3" stroke-opacity=".075472"/><path d="m442.34039 696.99151 259.3604-486.93612" fill="none" stroke-opacity=".213836"/></g></g><g fill-rule="evenodd"><path d="m393.66782 26.589965c-19.64834.192-36.82244 4.5488-50.17969 14.0606l-287.650388 491.548805c12.78728-13.4059 31.76749-19.932 54.652348-20.9707l285.37109-484.632805c-.73275-.0042-1.46728-.013-2.19336-.0059z" fill="#e6e6e6"/><path d="m395.86314 26.595875-285.37305 484.632795c23.70053-1.076 51.57709 3.7251 81.08008 12.8555l276.08399-483.718795c-25.63117-8.6186-50.14818-13.6453-71.79102-13.7695z" fill="#ececec"/><path d="m467.65416 40.363375-276.08399 483.720795c29.57345 9.1522 60.77051 22.6569 91.02735 38.9335l267.15429-485.292895c-27.23349-15.3782-55.27046-28.3405-82.09765-37.3614z" fill="#e6e6e6"/><path d="m549.75376 77.722668-267.15624 485.295002c47.65328 25.635 92.95914 58.1483 125.85154 91.4453l262.54485-485.375c-31.6082-32.5347-75.25565-65.3989-121.24015-91.365302z" fill="#e6e6e6"/><path d="m670.99391 169.08797-262.5469 485.375c13.9989 14.1711 25.7445 28.479 34.4707 42.457l260.3145-488.3418c-8.2409-12.7677-19.2291-26.0995-32.2383-39.4902z" fill="#ccc"/><path d="m703.23221 208.57817-260.3125 488.34373c14.5278 23.2712 20.6735 45.6196 14.8555 64.8692l260.8496-496.57623c4.4659-15.7747-1.7012-35.4253-15.3926-56.6367z" fill="#b3b3b3"/></g><ellipse cx="541.95758" cy="429.53775" rx="232.96017" ry="92.650627" stroke-width="1.651001" transform="matrix(.85942572 .51126062 -.48882326 .87238284 0 0)"/></g></svg>