<svg height="223.01208" width="223.01208" xmlns="http://www.w3.org/2000/svg" xmlns:xlink="http://www.w3.org/1999/xlink"><linearGradient id="a"><stop offset="0" stop-color="#fff"/><stop offset="1" stop-color="#fff" stop-opacity="0"/></linearGradient><radialGradient id="b" cx="838.203" cy="202.05379" gradientTransform="matrix(.22560237 .00158871 -.00124421 .17667741 -58.273195 -92.03)" gradientUnits="userSpaceOnUse" r="1000" xlink:href="#a"/><clipPath id="c"><rect height="223.01208" ry="13.697647" width="223.01207" x="16.493958" y="-175.50618"/></clipPath><g clip-path="url(#c)" transform="translate(-16.49395 175.50618)"><path d="m-964.91593-192.97479 73.30951-278.62259 1021.51963 417.731775z" fill="#a0522d"/><path d="m-963.61466 95.127875-1.30127-288.102665 1094.82914 139.109185z" fill="#ffa500"/><path d="m-887.79122 373.07686-75.82344-277.948985 1093.52787-148.99348z" fill="#f0e68c"/><path d="m-742.61295 621.93046-145.17827-248.8536 1017.70443-426.942465z" fill="#9acd32"/><path d="m-537.97345 824.72965-204.6395-202.79919 872.52616-675.796065z" fill="#228b22"/><path d="m-287.81858 967.65403-250.15487-142.92438 667.88666-878.595255z" fill="#3cb371"/><path d="m-9.19599 1040.9635-278.62259-73.30947 417.73179-1021.519635z" fill="#7fffd4"/><path d="m278.90669 1039.6622-288.10268 1.3013 139.1092-1094.829105z" fill="#008080"/><path d="m556.8557 963.83882-277.94901 75.82338-148.99348-1093.527805z" fill="#b0e0e6"/><path d="m805.7092 818.66051-248.8535 145.17831-426.94249-1017.704425z" fill="#87ceeb"/><path d="m1008.5085 614.02109-202.7993 204.63942-675.79599-872.526115z" fill="#4682b4"/><path d="m1151.4329 363.86618-142.9244 250.15491-878.59529-667.886695z" fill="#1e90ff"/><path d="m1224.7423 85.243635-73.3094 278.622545-1021.51969-417.731785z" fill="#6495ed"/><path d="m1223.441-202.85902 244.4737 5.86844-7.479 283.365984-235.6934-1.131769-1094.82909-139.10924z" fill="#191970"/><path d="m1147.6176-480.80801 75.8234 277.94899-1093.52779 148.993415z" fill="#0000cd"/><path d="m1002.4393-729.66161 145.1783 248.8536-1017.70439 426.942405z" fill="#483d8b"/><path d="m797.7998-932.46081 204.6395 202.7992-872.52609 675.796005z" fill="#9370db"/><path d="m547.645-1075.3852 250.1548 142.92439-667.88659 878.595205z" fill="#8b008b"/><path d="m269.02235-1148.6947 278.62265 73.3095-417.73179 1021.519595z" fill="#da70d6"/><path d="m-19.08024-1147.3933 288.10259-1.3014-139.10914 1094.829095z" fill="#c71585"/><path d="m-297.02929-1071.5701 277.94905-75.8232 148.99345 1093.527695z" fill="#db7093"/><path d="m-545.88285-926.39171 248.85356-145.17839 426.9425 1017.704495z" fill="#ffb6c1"/><path d="m-748.68207-721.7523 202.79922-204.63941 675.79606 872.526105z" fill="#b22222"/><path d="m-891.60642-471.59738 142.92435-250.15492 878.59528 667.886695z" fill="#ff6347"/><rect fill="url(#b)" height="256" ry="3.780343" width="256" y="-192"/></g><g transform="matrix(3.364306 0 0 3.364306 4.63551 6.789551)"><g fill="none" transform="matrix(.09628644 0 0 .09628644 -13.900612 -8.295713)"><path d="m290.22501 383.61826c20.26573-.36718 40.73803 7.19583 59.875 14.1875 16.78643 6.13291 31.49775 16.91475 46.90625 25.96875 10.4842 6.16049 30.96875 19.28125 30.96875 19.28125s-38.82581 37.01847-66.03125 43.375c-32.32466 7.55263-60.041 1.91037-89.21875-21.40625-16.83219-13.45099-39.0625-56.3125-39.0625-56.3125s30.15123-21.96471 47.90625-24.4375c2.88277-.40149 5.76115-.6038 8.65625-.65625z"/><path d="m662.31876 383.61826c3.62101-.0338 7.24028.15439 10.84375.65625 17.75502 2.47279 47.90625 24.4375 47.90625 24.4375s-22.23031 42.86151-39.0625 56.3125c-29.17775 23.31662-56.92534 28.95888-89.25 21.40625-27.20544-6.35653-66-43.375-66-43.375s20.48455-13.12076 30.96875-19.28125c15.4085-9.054 30.11982-19.83584 46.90625-25.96875 18.4535-6.74197 38.13407-14.00499 57.6875-14.1875z"/></g><path d="m169.96875 100.5c-14.66639.16945-30.93901 3.67114-41.0625 13.9375-22.89313 23.21621-29.64336 61.08236-28.21875 93.65625 1.91143 43.70495 20.52619 88.39789 48.6875 121.875 19.75254 23.48109 47.70677 47.2892 78.375 48.28125 22.51282.72824 41.91608-17.81666 59.6875-31.65625 14.782-11.51158 34.87713-24.90852 54.125-32.9375 19.40436-8.09426 38.18432-8.06391 38.53125-8.0625 0 0 .0595.00001.0625 0 .33473-.001 19.15169-.0344 38.5625 8.0625 19.24787 8.02898 39.31175 21.42592 54.09375 32.9375 17.77142 13.83959 37.20593 32.38449 59.71875 31.65625 30.66823-.99205 58.62246-24.80016 78.375-48.28125 28.16131-33.47711 46.77607-78.17005 48.6875-121.875 1.42461-32.57389-5.32562-70.44004-28.21875-93.65625-10.79839-10.95078-28.62313-14.18317-44-13.90625-26.27537.47319-48.88701 15.70649-74.25 26.46875-34.56835 14.66836-57.60153 32.85381-91.96875 43.34375-17.59464 5.37044-29.55939 4.21929-40.6875 4.4375-.22725-.006-.4596.004-.6875 0-11.12811-.21821-23.06161.93294-40.65625-4.4375-34.36722-10.48994-57.4004-28.67539-91.96875-43.34375-25.36299-10.76226-48.00588-25.99556-74.28125-26.46875-.96105-.0173-1.92849-.0426-2.90625-.0312zm23.03125 86.84375c20.26573-.36718 40.73803 7.19583 59.875 14.1875 16.78643 6.13291 31.49775 16.91475 46.90625 25.96875 10.4842 6.16049 30.96875 19.28125 30.96875 19.28125s-38.82581 37.01847-66.03125 43.375c-32.32466 7.55263-60.041 1.91037-89.21875-21.40625-16.83219-13.45099-39.0625-56.3125-39.0625-56.3125s30.15123-21.96471 47.90625-24.4375c2.88277-.40149 5.76115-.6038 8.65625-.65625zm372.09375 0c3.62101-.0338 7.24028.15439 10.84375.65625 17.75502 2.47279 47.90625 24.4375 47.90625 24.4375s-22.23031 42.86151-39.0625 56.3125c-29.17775 23.31662-56.92534 28.95888-89.25 21.40625-27.20544-6.35653-66-43.375-66-43.375s20.48455-13.12076 30.96875-19.28125c15.4085-9.054 30.11982-19.83584 46.90625-25.96875 18.4535-6.74197 38.13407-14.00499 57.6875-14.1875z" fill="none" stroke="#000" stroke-width="34.52383" transform="matrix(.09628644 0 0 .09628644 -4.53916152299 10.60286083064)"/><path d="m12.102284 20.301441c-1.480584-.02666-3.1790105.289339-4.2187498 1.34375-2.2042975 2.235407-2.8559206 5.863576-2.71875 9 .1840448 4.208194 1.975948 8.526608 4.6875004 11.75 1.9019014 2.260911 4.5783144 4.529479 7.5312494 4.625 2.167679.07012 4.038854-1.698685 5.75-3.03125 1.423307-1.108409 3.365441-2.414418 5.21875-3.1875 1.885814-.786641 3.71875-.75 3.71875-.75s1.832936-.03664 3.71875.75c1.853309.773082 3.764193 2.079091 5.1875 3.1875 1.711146 1.332565 3.582321 3.10137 5.75 3.03125 2.952935-.09552 5.660598-2.364089 7.5625-4.625 2.711552-3.223392 4.503455-7.541806 4.6875-11.75.13717-3.136424-.514452-6.764593-2.71875-9-1.039739-1.054411-2.769416-1.37041-4.25-1.34375-2.529962.04556-4.714138 1.49499-7.15625 2.53125-3.328463 1.412364-5.534652 3.177461-8.84375 4.1875-1.697948.518262-2.832701.375-3.9375.375s-2.270802.143262-3.96875-.375c-3.309098-1.010039-5.515287-2.775136-8.84375-4.1875-2.442112-1.03626-4.626288-2.485688-7.15625-2.53125zm1.9375 8.34375c1.951314-.03535 3.938619.701798 5.78125 1.375 1.616305.590516 3.01637 1.628222 4.5 2.5 1.009486.593172 3 1.84375 3 1.84375s-3.755485 3.575452-6.375 4.1875c-3.112427.727216-5.784328.182574-8.59375-2.0625-1.620711-1.295148-3.7499996-5.4375-3.7499996-5.4375s2.9154316-2.105654 4.6249996-2.34375c.277572-.03866.533741-.05745.8125-.0625zm36.03125 0c.278759.0051.566178.02384.84375.0625 1.709568.238096 4.625 2.34375 4.625 2.34375s-2.160539 4.142352-3.78125 5.4375c-2.809422 2.245074-5.481323 2.789716-8.59375 2.0625-2.619515-.612048-6.34375-4.1875-6.34375-4.1875s1.959264-1.250578 2.96875-1.84375c1.48363-.871778 2.914945-1.909484 4.53125-2.5 1.842631-.673202 3.798686-1.410354 5.75-1.375z" fill="#696969"/></g></svg>