<svg height="38.8759" viewBox="0 0 38.8759 38.8759" width="38.8759" xmlns="http://www.w3.org/2000/svg" xmlns:xlink="http://www.w3.org/1999/xlink"><clipPath id="a"><path d="m4.184002 9.040754h38.875896v26.986015h-38.875896z"/></clipPath><g clip-path="url(#a)" transform="translate(-4.184001 -3.095812)"><path d="m116.047 34.094c-.219.487-1.363 2.693-4.228 2.693-3.318 0-4.612-2.752-4.612-4.797 0-3.381 2.277-6.419 5.629-6.419 3.608 0 4.468 2.687 4.551 3.174h5.306c.318-1.984-1.256-8.05-9.653-8.05-6.142 0-11.056 4.906-11.056 11.463 0 5.365 3.353 9.502 9.567 9.502 7.745 0 9.836-6.075 10.092-7.566z"/><path d="m75.324 35.572c0-.31.082-.896.355-2.128.264-1.235 4.013-18.506 4.013-18.506h-4.98l-4.132 19.052c-.174.801-.249 1.591-.249 2.289 0 4.178 3.232 5.406 5.819 5.406.926 0 1.785-.154 2-.182.082-.418.863-4.005.901-4.162-.112.008-.661.049-1.298.049-1.851.001-2.429-.785-2.429-1.818z"/><path d="m128.173 14.897-5.695 26.367h5.012l1.385-6.407 3.084-2.455 4.264 8.862h5.58l-6.051-11.869 10.299-8.634h-6.947l-8.922 8.034 3.007-13.898z"/><path d="m47.949 33.114c.417-1.89 3.95-18.209 3.95-18.209h9.489c6.885 0 8.579 3.827 8.579 6.149 0 5.137-4.852 6.497-5.446 6.683.553.182 3.702 1.43 3.702 5.464 0 4.389-4.046 8.066-10.319 8.066 0 0-2.25 0-2.861 0-5.268.001-8.097-3.616-7.094-8.153zm14.857-.323c0-1.239-.798-2.811-4.341-2.811h-4.601l-1.378 6.377h5.209c3.371 0 5.111-1.519 5.111-3.566zm1.707-10.624c0-1.282-.976-2.385-3.366-2.385h-5.077l-1.151 5.323h5.29c2.849-.001 4.304-1.376 4.304-2.938z"/><path d="m143.766 33.114c.418-1.89 3.95-18.209 3.95-18.209h9.493c6.885 0 8.58 3.827 8.58 6.149 0 5.137-4.852 6.497-5.447 6.683.545.182 3.703 1.43 3.703 5.464 0 4.389-4.051 8.066-10.324 8.066 0 0-2.248 0-2.859 0-5.27.001-8.1-3.616-7.096-8.153zm14.857-.323c0-1.239-.799-2.811-4.34-2.811h-4.604l-1.377 6.377h5.211c3.37 0 5.11-1.519 5.11-3.566zm1.706-10.624c0-1.282-.972-2.385-3.368-2.385h-5.075l-1.149 5.323h5.291c2.847-.001 4.301-1.376 4.301-2.938z"/><path d="m200.223 20.773c-5.314 0-8.928 3.145-10.146 9.047-.524 2.537-2.451 11.455-2.451 11.455h4.977s1.834-8.48 2.414-11.145c.76-3.493 2.607-4.679 5.09-4.679.803 0 1.314.091 1.575.128.137-.703.831-3.856.997-4.629-.539-.069-1.39-.177-2.456-.177z"/><path d="m217.158 49.119 16.704-28.346h-5.376l-7.676 13.34-1.793-13.356s-2.736 0-5.752 0c-6.588 0-10.002 3.013-11.213 8.778-.607 2.877-2.537 11.74-2.537 11.74h4.979s1.827-8.418 2.554-11.815c.703-3.298 3.149-4.306 5.787-3.744l1.049-4.839c.777 4.596 3.153 19.279 3.153 19.279l-5.212 8.963z"/><path d="m89.701 32.531c1.096-.162 4.303-.657 4.74-.719-.082.342-.211.889-.306 1.293-.579 2.479-3.104 4.071-5.889 4.071-1.777 0-2.815-.956-2.815-2.092.001-.938.861-2.049 4.27-2.553zm-1.863-5.339c.123-.203 1.404-2.178 4.595-2.178 1.984 0 3.001.724 3.001 1.6 0 1.236-2 1.558-5.464 2.054-5.951.86-9.712 2.707-9.712 7.005 0 3.046 2.529 6.014 7.021 6.014 3.732 0 5.683-2.253 5.856-2.426.017.541.087 1.351.145 2.004h5.146c-.178-.889-.546-2.596.065-5.327.323-1.438 1.231-5.571 1.694-7.852.881-4.315-1.487-7.365-7.555-7.365-7.802 0-10.05 5.608-10.414 6.472h5.622z"/><path d="m180.303 35.122c-.182.401-1.393 2.091-4.1 2.091-3.898 0-4.785-3.305-4.695-4.211h15.184c.087-.371.43-1.723.43-3.111 0-4.803-3.256-9.195-9.823-9.195-6.005 0-10.823 5.05-10.823 11.047 0 5.802 3.484 9.918 9.645 9.918 7.613 0 9.664-5.963 9.861-6.538-1.357-.001-5.679-.001-5.679-.001zm-2.951-9.873c3.352 0 4.633 2.046 4.496 3.687-1.926 0-7.654 0-9.588 0 .248-1.042 1.847-3.687 5.092-3.687z"/><path d="m16.451 11.896c0-1.264-.774-2.864-4.027-2.864-1.335 0-5.009 0-5.009 0l-1.424 6.588h5.222c4.077 0 5.238-1.93 5.238-3.724z"/><path d="m29.944 11.896c0-1.264-.772-2.864-4.024-2.864-1.336 0-5.01 0-5.01 0l-1.423 6.587h5.219c4.079.001 5.238-1.929 5.238-3.723z"/><path d="m14.644 21.811c0-1.264-.774-2.868-4.027-2.868-1.335 0-5.009 0-5.009 0l-1.424 6.592h5.22c4.078 0 5.24-1.935 5.24-3.724z"/><path d="m28.137 21.811c0-1.264-.775-2.868-4.025-2.868-1.337 0-5.009 0-5.009 0l-1.426 6.592h5.222c4.079 0 5.238-1.935 5.238-3.724z"/><path d="m42.254 17.79c0-1.265-.775-2.868-4.025-2.868-1.337 0-5.009 0-5.009 0l-1.426 6.591h5.22c4.079 0 5.24-1.93 5.24-3.723z"/><path d="m40.308 28.113c0-1.265-.773-2.864-4.025-2.864-1.335 0-5.009 0-5.009 0l-1.424 6.588h5.22c4.078 0 5.238-1.935 5.238-3.724z"/><path d="m26.198 32.135c0-1.27-.772-2.873-4.022-2.873-1.338 0-5.012 0-5.012 0l-1.424 6.591h5.22c4.079.001 5.238-1.929 5.238-3.718z"/><path d="m0 0h240.5v53.5h-240.5z" fill="none"/></g></svg>