<svg height="300" width="300" xmlns="http://www.w3.org/2000/svg"><path d="m.00000125 150.00046v-150.00046h149.99999875 150v150.00046 149.99954h-150-149.99999875z" fill="#000200" stroke-width="1.452371"/><g fill="#0d0"><path d="m56.0419 119.5573h-17.0833v-13.8021h26.7187l13.8542 13.8021v14.0625l-6.9271 6.9271 6.9271 6.927v13.5938l-13.8542 13.8021h-26.7187v-13.8021h17.0833v-14.7396h-17.0833v-12.0312h17.0833zm-43.75-13.8021h23.0208v69.1146h-23.0208z"/><path d="m151.1981 161.0677-13.8021 13.8021h-15.4166v-12.9167h5.7291v-28.5937h-5.7291v-13.8021h15.4166l13.8021 13.8021zm-38.8541.8854h5.9895v12.9167h-15.4687l-13.8021-13.8021v-27.7083l13.8021-13.8021h15.4687v13.8021h-5.9895z"/><path d="m198.1247 133.3594h-9.7917v-6.04168l7.7084-7.76042h13.9583l11.1979 12.9167v14.3229h-23.0729zm-36.5104 41.5104v-55.3125h23.0208v55.3125z"/><path d="m264.6873 133.3594h-10.2083v-13.8021h19.427l13.8021 13.8021v46.9791l-13.8021 13.9063h-30.3645l-6.92712-6.9792v-5.1041h28.07292zm-3.6458 28.5937v6.0938l-6.875 6.8229h-12.5521l-13.8021-13.8021v-27.7083l13.8021-13.8021h9.2187v42.3958z"/></g></svg>