<svg height="235" viewBox="0 0 235 234.99999" width="235" xmlns="http://www.w3.org/2000/svg"><g transform="translate(-.5)"><g fill="#87c214"><path d="m47.7 97.8v119.5c0 9.7 7.9 17.7 17.7 17.7h8.3c9.7 0 17.7-8 17.7-17.7v-119.5z"/><path d="m91.3 40.2v-22.5c0-9.7-7.9-17.7-17.6-17.7h-8.3c-9.7 0-17.7 8-17.7 17.7v22.5z"/></g><g fill="#87c214"><path d="m188.3 137.2v-119.5c0-9.7-7.9-17.7-17.6-17.7h-8.3c-9.7 0-17.7 8-17.7 17.7v119.5z"/><path d="m144.7 194.8v22.5c0 9.7 8 17.7 17.7 17.7h8.3c9.7 0 17.7-8 17.7-17.7v-22.5z"/></g><g fill="#95d220"><g><path d="m40.7 144.2h-22.5c-9.7 0-17.7 7.9-17.7 17.7v8.3c0 9.7 7.9 17.7 17.7 17.7h22.5z"/><path d="m217.8 144.2h-119.5v43.7h119.5c9.7 0 17.7-8 17.7-17.7v-8.3c0-9.8-8-17.7-17.7-17.7z"/></g><g><path d="m137.7 47.2h-119.5c-9.7 0-17.7 7.9-17.7 17.7v8.3c0 9.7 7.9 17.7 17.7 17.7h119.5z"/><path d="m217.8 47.2h-22.5v43.7h22.5c9.7 0 17.7-7.9 17.7-17.7v-8.3c0-9.8-8-17.7-17.7-17.7z"/></g></g></g></svg>