<svg height="255.13901" preserveAspectRatio="xMidYMid" viewBox="0 0 255.13901 255.13901" width="255.13901" xmlns="http://www.w3.org/2000/svg"><g transform="translate(-.388574 -.388574)"><path d="m107.86045 118.64117 9.2282 9.17674-9.2282 9.17497h-64.959352v30.5714l-39.6150716-39.74637 39.6150716-39.079228v29.902488zm28.554-78.06797h78.92851v78.93028h-78.92851z" fill="#932279"/><path d="m137.275 107.86045-9.17497 9.2282-9.17497-9.2282v-64.959352h-30.573178l39.748148-39.6150716 39.07745 39.6150716h-29.90248zm-.86055 28.554h78.92851v78.93029h-78.92851z" fill="#efa724"/><path d="m148.05749 137.275-9.22997-9.17497 9.22997-9.17497h64.95758v-30.573178l39.61684 39.748148-39.61684 39.07745v-29.90248zm-107.48429-.86055h78.92851v78.93029h-78.92851z" fill="#262577"/><path d="m118.64117 148.05749 9.17497-9.22997 9.17674 9.22997v64.95935h30.5714l-39.74814 39.61507-39.075684-39.61507h29.900714zm-78.06797-107.48429h78.92851v78.93028h-78.92851z" fill="#9ccd2a"/><g fill="#fff"><path d="m37.753818 37.753818h84.567272v84.567272h-84.567272zm5.63699 78.930282h73.291522v-73.291518h-73.291522zm90.206042-78.930282h84.56727v84.567272h-84.56727zm5.63699 78.930282h73.29152v-73.291518h-73.29152zm-5.63699 16.91275h84.56727v84.56904h-84.56727zm5.63699 78.92851h73.29152v-73.29152h-73.29152zm-101.480022-78.92851h84.567272v84.56904h-84.567272zm5.63699 78.92851h73.291522v-73.29152h-73.291522z"/><path d="m60.188223 187.75773-59.7996486-59.79965 59.7978736-59.797872 59.799652 59.797872zm-51.825889-59.79965 51.825889 51.82589 51.824117-51.82589-51.825892-51.824113zm119.595746-7.97198-59.797872-59.797877 59.797872-59.7996486 59.79788 59.7996486zm-51.824113-59.797877 51.824113 51.824117 51.82589-51.824117-51.82589-51.825889zm119.595753 127.569507-59.79788-59.79965 59.79788-59.797872 59.79787 59.797872zm-51.82589-59.79965 51.82589 51.82589 51.82411-51.82589-51.82411-51.824113zm-15.94575 127.56951-59.797872-59.79787 59.797872-59.79788 59.79788 59.79788zm-51.824113-59.79787 51.824113 51.82411 51.82589-51.82411-51.82589-51.82412z"/></g></g></svg>