<svg height="364.86737" width="364.86737" xmlns="http://www.w3.org/2000/svg"><path d="m188.59 15.079c-33.205 3.623-55.45 22.388-65.038 54.861-3.527 11.944-4.038 16.981-4.038 39.805v18.384l-3.32.737c-27.368 6.077-47.682 27.41-53.086 55.749-.923 4.843-1.275 59.157-.423 65.425 3.93 28.942 24.061 51.568 52.133 58.595 5.666 1.418 8.503 1.714 18.056 1.884l9.312.166v34.293c0 18.861.068 34.293.151 34.293s17.8-15.449 39.371-34.332l39.22-34.332h25.372c15.333 0 26.699-.134 28.726-.339 29.953-3.03 54.834-25.48 60.647-54.721 1.466-7.374 1.549-9.672 1.408-39.191l-.132-27.692-.849-4.594c-5.081-27.471-25.837-49.118-52.92-55.192l-3.298-.739-.132-19.94c-.154-23.305-.452-26.239-3.848-37.901-11.51-39.521-43.833-59.963-87.312-55.219m16.754 32.211c22.059 1.903 34.872 12.46 38.858 32.019 1.074 5.269 1.338 11.751 1.237 30.327l-.095 17.49-45.749.082-45.749.082.008-18.382c.01-26.614.686-32.221 4.919-40.82 7.367-14.964 24.661-22.687 46.571-20.798m-1.436 127.96c19.258 3.516 25.147 29.006 9.395 40.664l-2.129 1.576v18.704 18.705h-11.498-11.498v-18.743-18.742l-1.339-.886c-20.312-13.442-6.985-45.67 17.069-41.278" fill-rule="evenodd" transform="translate(-17.231025 -14.403629)"/></svg>