<svg fill="#c4122e" height="72" width="72" xmlns="http://www.w3.org/2000/svg" xmlns:xlink="http://www.w3.org/1999/xlink"><path d="m23.521 42.24075h-3.157v12.511h3.157z" fill="#c4122e" stroke-width=".096737"/><use height="100%" transform="translate(32.9532)" width="100%" xlink:href="#a"/><path id="a" d="m16.0236 45.82575c-.127-.066-1.142-.668-2.652-.668-2.045 0-3.46 1.421-3.46 3.337 0 1.859 1.356 3.34 3.46 3.34 1.484 0 2.516-.589 2.652-.664v3.358c-.392.111-1.469.445-2.879.445-3.549 0-6.662-2.448-6.662-6.479 0-3.736 2.82-6.476 6.662-6.476 1.486 0 2.582.361 2.879.449z"/><path d="m58.9084 45.20465c-1.873 0-3.264 1.474-3.264 3.29 0 1.82 1.391 3.293 3.264 3.293 1.871 0 3.266-1.473 3.266-3.293 0-1.816-1.395-3.29-3.266-3.29m6.611 3.29c0 3.579-2.763 6.479-6.611 6.479s-6.607-2.9-6.607-6.479c0-3.573 2.759-6.476 6.607-6.476s6.611 2.903 6.611 6.476"/><path d="m35.4934 45.08455c-.047-.015-1.376-.382-2.468-.382-1.265 0-1.953.424-1.953 1.025 0 .762.928 1.028 1.447 1.192l.871.277c2.049.652 2.983 2.055 2.983 3.579 0 3.143-2.764 4.199-5.18 4.199-1.679 0-3.252-.309-3.407-.342v-2.879c.278.07 1.602.465 2.981.465 1.571 0 2.293-.459 2.293-1.168 0-.634-.625-1-1.408-1.246-.191-.064-.478-.154-.674-.218-1.758-.556-3.224-1.589-3.224-3.66 0-2.34 1.752-3.911 4.662-3.911 1.537 0 2.983.373 3.077.398z"/><g id="b" fill="#15495d" transform="translate(0 16.99585)"><path d="m3.135 11.7996c0-.862-.704-1.561-1.567-1.561s-1.568.699-1.568 1.561v3.284c0 .867.705 1.567 1.568 1.567s1.567-.7 1.567-1.567z"/><path d="m11.7443 7.4891c0-.862-.704-1.563-1.567-1.563-.864 0-1.568.701-1.568 1.563v7.595c0 .867.704 1.566 1.568 1.566.863 0 1.567-.699 1.567-1.566z"/><path d="m20.3537 1.5916c0-.862-.704-1.562-1.567-1.562-.864 0-1.568.7-1.568 1.562v16.613c0 .867.704 1.567 1.568 1.567.863 0 1.567-.7 1.567-1.567z"/><path d="m28.9631 7.4891c0-.862-.704-1.563-1.567-1.563-.864 0-1.568.701-1.568 1.563v7.595c0 .867.704 1.566 1.568 1.566.863 0 1.567-.699 1.567-1.566z"/><path d="m37.5627 11.7996c0-.862-.699-1.561-1.558-1.561-.863 0-1.567.699-1.567 1.561v3.284c0 .867.704 1.567 1.567 1.567.859 0 1.558-.7 1.558-1.567z"/></g><use height="100%" transform="translate(34.4317)" width="100%" xlink:href="#b"/><path d="m70.1936 53.10405v.196h-.558v1.451h-.229v-1.451h-.561v-.196z"/><path d="m70.3107 53.10405h.359l.493 1.351h.008l.477-1.351h.352v1.647h-.235v-1.35h-.008l-.5 1.35h-.217l-.488-1.35h-.011v1.35h-.23z"/></svg>