<svg height="372.48837" width="372.48837" xmlns="http://www.w3.org/2000/svg"><path d="m73.434 133.572c-35.211 3.12-58.919 27.793-60.091 62.536-1.186 35.154 19.775 61.431 54.255 68.016 1.928.368 15.353.769 31.504.941l28.144.299 2.694-1.429c1.761-.934 3.459-2.558 4.9-4.688 4.131-6.104 4.082-5.534 4.082-48.059v-38.134h-7.485-7.485l-.009 32.784c-.014 45.658-.41 49.339-5.57 51.681-6.456 2.931-44.78 1.24-56.58-2.497-57.849-18.322-53.522-99.54 6.039-113.353 9.244-2.144 14.705-2.224 136.36-1.999 130.067.24 122.001.029 133.251 3.487 41.171 12.655 54.504 62.145 25.84 95.915-12.442 14.659-27.69 19.606-60.439 19.609l-17.215.002v-11.677-11.677h-41.318-41.317v11.677 11.677h-28.35c-31.008 0-30.333-.077-30.333 3.456 0 3.3-4.879 3.13 90.149 3.13 92.371 0 96.364-.104 105.513-2.755 56.624-16.409 62.333-101.539 8.288-123.597-7.136-2.912-14.723-4.649-23.486-5.375-8.507-.705-243.366-.677-251.341.03m54.123 14.402c-9.303 3.712-6.228 17.894 3.88 17.894 5.803 0 9.554-4.085 9.124-9.935-.481-6.528-6.838-10.419-13.004-7.959m62.734 29.421-.171 28.892-1.403 2.695c-7.855 15.088-30.109 9.998-30.109-6.886 0-8.901 6.916-15.848 15.793-15.863l3.443-.005v-7.571-7.571l-4.64.329c-30.09 2.134-39.78 41.418-14.045 56.939 16.33 9.848 37.906 2.398 44.407-15.334 2.182-5.952 2.422-9.653 2.422-37.381v-27.136h-7.763-7.762zm113.51-8.281c-15.844 3.843-27.674 22.308-23.625 36.874l.416 1.497 23.256.299 23.256.3-2.051 2.688c-4.865 6.378-14.505 8.301-21.736 4.337l-3.57-1.957-4.963 4.938c-5.792 5.762-5.573 5.081-2.391 7.418 22.905 16.826 57.483-4.704 50.343-31.346l-.361-1.348h-23.317-23.317l1.081-1.855c4.832-8.284 18.449-10.663 25.341-4.426.842.763 1.532.273 6.153-4.369l5.204-5.228-1.958-1.563c-7.715-6.156-18.325-8.548-27.761-6.259m-224.291 3.073c-31.242 7.574-31.036 52.464.274 59.846 14.573 3.435 32.219-6.217 35.821-19.594.346-1.284.778-2.722.959-3.195.277-.722-.939-.861-7.518-.861-4.317 0-7.848.241-7.848.534 0 1.425-5.602 6.596-8.493 7.84-15.28 6.573-28.888-12.437-18.005-25.152 6.908-8.07 20.895-6.644 25.862 2.638.772 1.441 16.204 2.66 16.204 1.28 0-1.171-3.285-8.605-4.732-10.708-7.101-10.321-20.53-15.535-32.524-12.628m156.718-.063c-11.215 2.865-19.977 11.461-22.761 22.329-.958 3.738-1.148 36.033-.218 36.961.787.785 4.849 1.052 9.774.642l5.121-.427.003-16.264c.004-17.689.234-19.385 3.169-23.284 5.553-7.381 17.261-7.749 23.051-.725 3.616 4.388 3.906 6.058 4.173 24.063l.243 16.318h7.37 7.371l.445-10.629c.54-12.88.072-23.279-1.244-27.651-4.637-15.407-21.381-25.194-36.497-21.333" fill-rule="evenodd" transform="translate(-13.295194 -12.951452)"/></svg>