<svg width="72" height="72" viewBox="0 0 72 72" xmlns="http://www.w3.org/2000/svg"><title>cozy-lg</title><path d="M52.935 62.2h-33.87C8.55 62.2 0 53.583 0 42.99c0-5.05 1.93-9.82 5.437-13.432 3.073-3.16 7.052-5.126 11.358-5.638.508-4.338 2.458-8.348 5.597-11.443C25.976 8.942 30.71 7 35.724 7c5.013 0 9.75 1.942 13.332 5.476 3.126 3.08 5.07 7.07 5.592 11.385C64.36 24.74 72 32.984 72 42.994 72 53.583 63.444 62.2 52.934 62.2zM53 58.6h.146c8.412 0 15.254-6.934 15.254-15.456 0-8.52-6.842-15.453-15.254-15.453h-.153c-1.098 0-1.998-.884-2.023-2-.19-8.323-7.03-15.09-15.248-15.09-8.22 0-15.06 6.77-15.25 15.093-.024 1.095-.895 1.977-1.977 2.002-8.213.192-14.895 7.122-14.895 15.45 0 8.522 6.842 15.455 15.254 15.455h.124l.048-.003c.044 0 .088 0 .13.003H53zm-7.5-16.76c-1.2-.79-1.26-2.24-1.263-2.304-.01-.394-.33-.705-.72-.7-.392.01-.703.335-.696.726.004.052.024.733.347 1.536-4.28 4.082-11.008 4.088-15.297.025.33-.815.353-1.507.353-1.56.007-.39-.303-.714-.692-.724-.383-.013-.71.303-.723.694 0 .058-.058 1.515-1.263 2.305-.33.216-.42.658-.206.987.135.21.36.324.593.324.134 0 .268-.037.387-.115.31-.203.57-.435.787-.68 2.382 2.158 5.392 3.238 8.403 3.238 3.017 0 6.035-1.084 8.422-3.254.217.248.48.486.798.695.118.078.253.116.386.116.23 0 .457-.115.593-.324.214-.33.12-.774-.206-.988v.002z" fill="#3AB4F0" fill-rule="evenodd"/></svg>