<svg viewBox="0 0 224 192" xmlns="http://www.w3.org/2000/svg"><rect fill="#d7d5d0" height="23.47" rx="4.49" transform="matrix(.91844638 .3955455 -.3955455 .91844638 46 -2.23)" width="20.13" x="18.33" y="98.72"/><path d="m30.12 125.32a7.29 7.29 0 0 1 -2.89-.6l-8.42-3.63a7.3 7.3 0 0 1 -3.82-9.6l5.01-11.49a7.33 7.33 0 0 1 9.62-3.82l8.38 3.63a7.32 7.32 0 0 1 3.82 9.61l-5 11.49a7.33 7.33 0 0 1 -6.7 4.41zm-1.44-4a3.66 3.66 0 0 0 4.8-1.91l5-11.49a3.65 3.65 0 0 0 -1.91-4.8l-8.42-3.62a3.66 3.66 0 0 0 -4.8 1.91l-5 11.49a3.65 3.65 0 0 0 1.91 4.8z" fill="#2f4647"/><path d="m54.57 58.62s-25.13-6.44-26 19.52c0 0 20.62-1.93 23.19 16.52 0 0 4.08 4.29 2.79-7.94s.02-28.1.02-28.1z" fill="#d7d5d0"/><path d="m53.2 97.22a4 4 0 0 1 -2.75-1.3l-.4-.43-.05-.58c-1-6.91-4.77-11.47-11.26-13.66a27.28 27.28 0 0 0 -10-1.29l-2.06.19.07-2.07c.27-8.25 2.92-14.31 7.87-18 8.3-6.22 19.91-3.34 20.4-3.22l1.49.38-.12 1.54c0 .16-1.26 15.85 0 27.76.67 6.35.07 9.47-2 10.43a2.78 2.78 0 0 1 -1.19.25zm-22.67-20.95c5.28.09 18.84 1.65 22.45 15.11a35 35 0 0 0 -.23-4.47c-1.06-10.1-.41-22.41-.12-26.81-3.12-.49-10.5-1.1-15.82 2.9-3.64 2.73-5.74 7.19-6.28 13.27z" fill="#2f4647"/><path d="m31.16 78.09s-3.6 9.74-2.57 12.48 12.93 8.71 15.68 8.32 7.05-6.64 7.05-6.64-4.89-15.97-20.16-14.16z" fill="#d7d5d0"/><path d="m44.09 100.73c-4 0-15.92-6.06-17.22-9.51-1.18-3.14 1.67-11.32 2.57-13.76l.39-1 1.11-.13c16.59-2.03 22.06 15.22 22.13 15.39l.26.84-.5.73c-1.12 1.62-5 6.94-8.3 7.41a3.06 3.06 0 0 1 -.44.03zm-11.6-20.92c-1.57 4.52-2.58 9.08-2.18 10.12.9 1.87 11.43 7.35 13.71 7.15 1-.15 3.46-2.68 5.26-5.11-1.16-2.97-5.8-12.81-16.79-12.16z" fill="#2f4647"/><path d="m30.69 92.8-2.29 6.11s4.8 4.75 9.42 5.07l3.7-5.59s-8.72-3.39-10.83-5.59z" fill="#536666"/><path d="m38.13 104.61h-.36c-4.79-.33-9.6-5-9.8-5.24l-.28-.28 2.78-7.4.67.71c2 2.1 10.51 5.41 10.59 5.44l.71.27zm-9-5.86c1 1 4.78 4.16 8.39 4.59l3.08-4.66c-1.92-.77-7.23-3-9.63-4.84z" fill="#2f4647"/><path d="m14.45 157c-5-6.53-4.67-19.11 3.37-27.14a47.82 47.82 0 0 1 -8-4.94c-5.35 6.31-16.2 23.5-.35 36.68.02 0 10.4 2.46 4.98-4.6z" fill="#536666"/><path d="m12.85 163.25a16.73 16.73 0 0 1 -3.64-.46l-.28-.07-.22-.18c-5.22-4.34-8.12-9.54-8.63-15.33-.93-10.66 6.53-20.36 8.83-23.08l.77-.91.93.75a47.35 47.35 0 0 0 7.77 4.81l1.47.77-1.17 1.17c-7.63 7.63-7.85 19.58-3.26 25.54.67.86 2.69 3.5 1.41 5.47-.77 1.19-2.39 1.52-3.98 1.52zm-2.8-2.77c2.11.45 4.4.43 4.72-.07 0 0 .27-.62-1.29-2.66-5.07-6.59-5.18-18.92 2.36-27.55a47.05 47.05 0 0 1 -5.8-3.58c-2.68 3.38-8.29 11.59-7.53 20.38.49 5.08 2.98 9.61 7.54 13.48z" fill="#2f4647"/><path d="m6.84 131.16 6.21 3s1-1.61 1.63-2.47a44.68 44.68 0 0 1 -5.68-3.69c-.5.7-2.16 3.16-2.16 3.16z" opacity=".1"/><path d="m32.37 133.92a50.85 50.85 0 0 1 -6.54-1l1.91 16.45s-9.19 8.74-5.55 8.64 10.65-6.32 10.65-6.32z" fill="#536666"/><path d="m22.13 159.26a1.86 1.86 0 0 1 -1.88-1.1c-.24-.58-1-2.31 6.2-9.23l-2-17.56 1.69.39a49.23 49.23 0 0 0 6.36.94l1.09.09.52 19.47-.42.38c-.75.67-7.45 6.51-11.43 6.62zm5.1-24.78 1.77 15.38-.44.42a41 41 0 0 0 -5.67 6.41c2.44-.64 6.32-3.47 8.7-5.5l-.41-16.19c-.98-.07-2.44-.25-3.95-.52z" fill="#2f4647"/><path d="m8.59 122.08c5.17-2.36 17.57-5.74 25.93 10.63a1.8 1.8 0 0 1 -1.73 2.63 45.12 45.12 0 0 1 -24.58-10.23 1.8 1.8 0 0 1 .38-3.03z" fill="#d7d5d0"/><path d="m32.95 137.17h-.3a46.88 46.88 0 0 1 -25.6-10.63 3.63 3.63 0 0 1 .78-6.11 21.63 21.63 0 0 1 12.87-1.84c6.36 1.2 11.56 5.68 15.45 13.3a3.66 3.66 0 0 1 -.21 3.69 3.56 3.56 0 0 1 -2.99 1.59zm-24.36-15.09.76 1.66a43.52 43.52 0 0 0 23.59 9.77c-7.46-14.51-17.94-12.33-23.59-9.77z" fill="#2f4647"/><path d="m31.56 82.74c4.44.62 12.63 2 16.44 10.91l1.27-1.65s-4.22-12.86-16.79-12.18c-.13.42-.39 1.18-.92 2.92z" opacity=".1"/><path d="m39.15 100.83 1.42-2.15s-6.84-2.68-9.62-4.86l-.95 2.47s5.51 4.49 9.15 4.54z" opacity=".1"/><path d="m33.41 66.75s12.38 5.24 15.12-7c.01-.03-10.53-.75-15.12 7z" fill="#fff" opacity=".3"/><path d="m27.46 136.41 3.78.61.06 2.4h-3.51s-.3-2.72-.33-3.01z" opacity=".1"/><rect fill="#d7d5d0" height="23.47" rx="4.49" transform="matrix(-.91844638 .3955455 -.3955455 -.91844638 418.94 134.54)" width="20.13" x="185.53" y="98.72"/><path d="m193.87 125.32a7.33 7.33 0 0 1 -6.72-4.42l-5-11.49a7.31 7.31 0 0 1 3.85-9.6l8.42-3.62a7.32 7.32 0 0 1 9.58 3.81l5 11.49a7.31 7.31 0 0 1 -3.82 9.6l-8.42 3.63a7.31 7.31 0 0 1 -2.89.6zm3.46-26.08a3.66 3.66 0 0 0 -1.45.3l-8.42 3.63a3.65 3.65 0 0 0 -1.91 4.8l5 11.49a3.66 3.66 0 0 0 4.8 1.91l8.42-3.62a3.65 3.65 0 0 0 1.91-4.8l-5-11.49a3.63 3.63 0 0 0 -2-1.95 3.67 3.67 0 0 0 -1.35-.27z" fill="#2f4647"/><path d="m169.43 58.62s25.13-6.44 26 19.52c0 0-20.62-1.93-23.19 16.52 0 0-4.08 4.29-2.79-7.94s-.02-28.1-.02-28.1z" fill="#d7d5d0"/><path d="m170.8 97.22a2.78 2.78 0 0 1 -1.17-.26c-2.08-1-2.69-4.08-2-10.43 1.26-11.92 0-27.61 0-27.76l-.13-1.54 1.49-.38c.49-.12 12.1-3 20.4 3.22 4.95 3.71 7.6 9.77 7.87 18l.07 2.08-2.09-.15a27.47 27.47 0 0 0 -10 1.29c-6.47 2.15-10.24 6.71-11.24 13.62l-.08.58-.4.43a4 4 0 0 1 -2.72 1.3zm.57-37.12c.29 4.39.94 16.71-.12 26.81a34.86 34.86 0 0 0 -.23 4.47c3.61-13.47 17.18-15 22.45-15.12-.54-6.09-2.65-10.55-6.29-13.28-5.34-3.98-12.69-3.38-15.81-2.88z" fill="#2f4647"/><path d="m192.84 78.09s3.6 9.74 2.57 12.48-12.93 8.71-15.68 8.32-7.05-6.64-7.05-6.64 4.9-15.97 20.16-14.16z" fill="#d7d5d0"/><path d="m179.91 100.73a3 3 0 0 1 -.43 0c-3.28-.47-7.18-5.79-8.3-7.41l-.5-.73.26-.84c.05-.18 5.56-17.42 22.13-15.44l1.11.13.39 1c.9 2.43 3.75 10.62 2.57 13.76-1.31 3.47-13.2 9.53-17.23 9.53zm-5.18-8.73c1.8 2.44 4.23 5 5.27 5.12 2.26.18 12.8-5.28 13.71-7.17.38-1-.62-5.58-2.19-10.1-10.95-.68-15.64 9.15-16.79 12.15z" fill="#2f4647"/><path d="m193.31 92.8 2.29 6.11s-4.8 4.75-9.42 5.07l-3.7-5.59s8.72-3.39 10.83-5.59z" fill="#536666"/><path d="m185.87 104.61-4.31-6.52.71-.27c.09 0 8.61-3.34 10.6-5.44l.67-.71 2.78 7.4-.28.28c-.2.2-5 4.91-9.8 5.24zm-2.46-5.93 3.08 4.66c3.61-.43 7.35-3.63 8.39-4.59l-1.88-4.91c-2.36 1.85-7.67 4.06-9.59 4.84z" fill="#2f4647"/><path d="m209.55 157c5-6.53 4.67-19.11-3.37-27.14a47.82 47.82 0 0 0 8-4.94c5.35 6.31 16.2 23.5.35 36.68-.02 0-10.4 2.46-4.98-4.6z" fill="#536666"/><path d="m211.15 163.25c-1.58 0-3.2-.33-4-1.52-1.28-2 .74-4.61 1.41-5.47 4.58-6 4.37-17.91-3.27-25.54l-1.17-1.17 1.47-.77a47.33 47.33 0 0 0 7.77-4.81l.93-.75.77.91c2.31 2.72 9.76 12.41 8.83 23.08-.51 5.83-3.41 11-8.63 15.33l-.22.18-.28.07a16.73 16.73 0 0 1 -3.61.46zm-.62-5.5c-1.57 2-1.3 2.66-1.29 2.66.32.5 2.61.52 4.72.07 4.56-3.87 7.1-8.4 7.54-13.48.77-8.79-4.85-17-7.53-20.39a46.8 46.8 0 0 1 -5.8 3.58c7.54 8.63 7.43 21 2.36 27.55z" fill="#2f4647"/><path d="m217.16 131.16-6.21 3s-1-1.61-1.63-2.47a44.68 44.68 0 0 0 5.68-3.69c.5.7 2.16 3.16 2.16 3.16z" opacity=".1"/><path d="m191.63 133.92a50.85 50.85 0 0 0 6.54-1l-1.91 16.45s9.19 8.74 5.55 8.64-10.65-6.32-10.65-6.32z" fill="#536666"/><path d="m201.87 159.26h-.09c-4-.11-10.68-6-11.43-6.62l-.42-.38.52-19.47 1.09-.09a49.19 49.19 0 0 0 6.36-.94l1.69-.39-2 17.56c7.17 6.91 6.45 8.65 6.2 9.23a1.86 1.86 0 0 1 -1.92 1.1zm-9.47-8.08c2.4 2.06 6.34 4.92 8.71 5.53a40.64 40.64 0 0 0 -5.69-6.43l-.44-.42 1.79-15.38c-1.51.27-3 .45-3.94.55z" fill="#2f4647"/><path d="m215.41 122.08c-5.17-2.36-17.57-5.74-25.93 10.63a1.8 1.8 0 0 0 1.73 2.63 45.12 45.12 0 0 0 24.58-10.23 1.8 1.8 0 0 0 -.38-3.03z" fill="#d7d5d0"/><path d="m191.05 137.17a3.56 3.56 0 0 1 -3-1.6 3.66 3.66 0 0 1 -.21-3.69c3.9-7.62 9.1-12.1 15.45-13.3a21.63 21.63 0 0 1 12.87 1.84 3.63 3.63 0 0 1 .78 6.11 46.88 46.88 0 0 1 -25.59 10.63zm15.7-15.27c-5.12 0-11 2.54-15.65 11.64a43.46 43.46 0 0 0 23.49-9.82 19.25 19.25 0 0 0 -7.83-1.83z" fill="#2f4647"/><path d="m192.44 82.74c-4.44.62-12.63 2-16.44 10.91l-1.27-1.65s4.22-12.83 16.79-12.15c.13.39.4 1.15.92 2.89z" opacity=".1"/><path d="m184.85 100.83-1.42-2.15s6.83-2.65 9.62-4.86l.9 2.47s-5.45 4.49-9.1 4.54z" opacity=".1"/><path d="m190.59 66.75s-12.38 5.24-15.12-7c-.01-.03 10.53-.75 15.12 7z" fill="#fff" opacity=".3"/><path d="m196.54 136.41-3.78.61-.06 2.4h3.51s.3-2.72.33-3.01z" opacity=".1"/><path d="m61.46 61.48s-3.91-59.65 50.83-59.65 50 59.66 50 59.66-36.77-6.09-50 1.41c0 0-31.47-8.69-50.83-1.42z" fill="#d7d5d0"/><path d="m112.53 64.86-.73-.2c-.31-.09-31.13-8.44-49.69-1.46l-2.31.87-.16-2.46c-.08-1.18-1.7-29.09 15.17-47.09 9.03-9.64 21.64-14.52 37.48-14.52s28.38 4.88 37.28 14.51c16.66 18 14.66 45.94 14.56 47.12l-.16 2-2-.33c-.36-.06-36.29-5.89-48.82 1.2zm-31.79-8.12a135.5 135.5 0 0 1 31.32 4.21c12.35-6.27 40.58-2.73 48.5-1.58.12-6.59-.56-28.21-13.69-42.39-8.19-8.84-19.87-13.32-34.58-13.32s-26.5 4.49-34.81 13.34c-13.04 13.93-14.23 34.91-14.24 42a61.71 61.71 0 0 1 17.5-2.26z" fill="#2f4647"/><path d="m110.15 14.15c-42.55 0-37.81 44.11-37.81 44.11 18.58-.87 38.2 4.63 38.2 4.63 8.65-5 26.59-4.49 39.4-3.34l1.25-.81s5.81-44.59-41.04-44.59z" fill="#536666"/><path d="m110.73 64.21-.49-.14c-.2-.05-19.66-5.45-37.82-4.59h-.17l-1-.24-.11-.86c-.14-.84-2.14-20.85 9.86-34.16 6.74-7.49 16.54-11.29 29.14-11.29 14.48 0 25.53 4.21 32.84 12.5 11.86 13.46 9.55 32.66 9.45 33.47l-.07.56-2.08 1.35h-.42c-13.08-1.18-30.41-1.59-38.69 3.18zm-34.32-7.21c15.63 0 31.07 3.87 34 4.64 8.88-4.77 26.1-4.45 39.25-3.28l.41-.27c.28-3.19 1.14-19.61-8.92-31-6.82-7.74-17.25-11.66-31-11.66-11.88 0-21.07 3.53-27.32 10.48-9.69 10.72-9.59 26.73-9.36 31.09z" fill="#2f4647"/><path d="m160.53 55.57a90.7 90.7 0 0 0 -48.53.86 90.86 90.86 0 0 0 -48.71-.81c-.13 3.34-.07 5.58-.07 5.58 19.35-7.27 49.07 1.7 49.07 1.7 13.25-7.5 48.3-1.49 48.3-1.49s.03-2.47-.06-5.84z" opacity=".1"/><path d="m84.75 41a10.35 10.35 0 0 1 20.71 0" fill="#88c425"/><path d="m119.09 41a10.35 10.35 0 0 1 20.71 0" fill="#88c425"/><circle cx="100.22" cy="48.92" fill="#88c425" r="2.25"/><circle cx="108.39" cy="48.92" fill="#88c425" r="2.25"/><path d="m91.25 162.81-7.81 20.43a76.37 76.37 0 0 1 -3.18-31.7c.74-6.41 10.99 11.27 10.99 11.27z" fill="#233333"/><path d="m92.59 158.77a.67.67 0 0 1 0 .52 98.77 98.77 0 0 0 -9.1 23.95c-.14.62-1.13.41-1.3-.28a79.23 79.23 0 0 1 -.19-37.62c.15-.6 1-.87 1.24-.41q1.23 2.07 2.57 4.16.52-2.71 1.22-5.39c1-3.71-1-6.65-4.72-6.65h-33.01c-3.74 0-7.88 2.94-8.86 6.65a79.23 79.23 0 0 0 0 40.44c1 3.71 5.11 6.65 8.86 6.65h35.28a4.57 4.57 0 0 0 4.93-4.12 87.13 87.13 0 0 1 4.86-20 7.31 7.31 0 0 0 -1.78-7.9z" fill="#536666"/><g fill="#2f4647"><path d="m84.58 192h-35.28a10.85 10.85 0 0 1 -10-7.56 80.57 80.57 0 0 1 0-41.06 10.85 10.85 0 0 1 10-7.55h33.06a6.08 6.08 0 0 1 5 2.23 6.72 6.72 0 0 1 .93 5.94c-.46 1.75-.87 3.53-1.2 5.31l-.57 3-1.65-2.57c-.64-1-1.26-2-1.87-3a78.37 78.37 0 0 0 -.11 33.82 101.08 101.08 0 0 1 8.51-21.65l-1.4-4.17 3.43 3.12a8.53 8.53 0 0 1 2.1 9.17 86 86 0 0 0 -4.8 19.76c-.37 3.21-2.78 5.21-6.15 5.21zm-35.28-53.73a8.52 8.52 0 0 0 -7.68 5.73 78.13 78.13 0 0 0 0 39.82 8.52 8.52 0 0 0 7.68 5.74h35.28a3.38 3.38 0 0 0 3.72-3 88.33 88.33 0 0 1 4.93-20.32 6.27 6.27 0 0 0 -.29-5 96.71 96.71 0 0 0 -8.29 22.33 1.68 1.68 0 0 1 -1.65 1.25 2.09 2.09 0 0 1 -2-1.57 80.77 80.77 0 0 1 -.15-38.25 2.09 2.09 0 0 1 1.71-1.55 1.72 1.72 0 0 1 1.77.81l1 1.58q.29-1.25.62-2.49a4.36 4.36 0 0 0 -.5-3.83 3.66 3.66 0 0 0 -3-1.28z"/><path d="m39.99 143.07h40.28v1.22h-40.28z"/><path d="m39.99 150.39h40.28v1.22h-40.28z"/><path d="m37.55 158.92h42.72v1.22h-42.72z"/><path d="m37.55 167.46h42.72v1.22h-42.72z"/><path d="m38.77 175.99h42.72v1.22h-42.72z"/><path d="m39.99 183.31h42.72v1.22h-42.72z"/></g><path d="m80.88 145a13.87 13.87 0 0 1 -.61-5.7l-3.21-1.08h-17.89c1.15 4.88 6.26 26.29 20.3 37.67a79.55 79.55 0 0 1 1.41-30.89z" opacity=".1"/><path d="m132.75 162.81 7.81 20.43a76.37 76.37 0 0 0 3.18-31.7c-.74-6.41-10.99 11.27-10.99 11.27z" fill="#233333"/><path d="m131.41 158.77a.67.67 0 0 0 0 .52 98.77 98.77 0 0 1 9.1 23.95c.14.62 1.13.41 1.3-.28a79.23 79.23 0 0 0 .11-37.63c-.15-.6-1-.87-1.24-.41q-1.23 2.07-2.57 4.16-.52-2.71-1.22-5.39c-1-3.71 1-6.65 4.72-6.65h33.09c3.74 0 7.88 2.94 8.86 6.65a79.23 79.23 0 0 1 0 40.44c-1 3.71-5.11 6.65-8.86 6.65h-35.28a4.57 4.57 0 0 1 -4.93-4.12 87.13 87.13 0 0 0 -4.86-20 7.31 7.31 0 0 1 1.78-7.89z" fill="#536666"/><path d="m174.7 192h-35.28c-3.37 0-5.78-2-6.14-5.2a86 86 0 0 0 -4.79-19.8 8.53 8.53 0 0 1 2.1-9.17l3.43-3.12-1.38 4.18a101.15 101.15 0 0 1 8.51 21.65 78.37 78.37 0 0 0 -.11-33.82c-.61 1-1.23 2-1.87 3l-1.65 2.57-.57-3c-.34-1.77-.74-3.56-1.2-5.31a6.72 6.72 0 0 1 .93-5.94 6.08 6.08 0 0 1 5-2.23h33.02a10.85 10.85 0 0 1 10 7.56 80.57 80.57 0 0 1 0 41.06 10.85 10.85 0 0 1 -10 7.57zm-43.63-30.81a6.28 6.28 0 0 0 -.29 5 88.32 88.32 0 0 1 4.93 20.32 3.38 3.38 0 0 0 3.72 3h35.27a8.52 8.52 0 0 0 7.68-5.74 78.13 78.13 0 0 0 0-39.82 8.52 8.52 0 0 0 -7.68-5.74h-33.06a3.66 3.66 0 0 0 -3 1.28 4.37 4.37 0 0 0 -.5 3.83c.22.82.42 1.66.62 2.49l1-1.58a1.72 1.72 0 0 1 1.77-.81 2.09 2.09 0 0 1 1.71 1.55 80.76 80.76 0 0 1 -.11 38.21 2.08 2.08 0 0 1 -2 1.57 1.68 1.68 0 0 1 -1.65-1.32 96.72 96.72 0 0 0 -8.41-22.24z" fill="#2f4647"/><path d="m143.73 143.07h40.28v1.22h-40.28z" fill="#2f4647"/><path d="m143.73 150.39h40.28v1.22h-40.28z" fill="#2f4647"/><path d="m143.73 158.92h42.72v1.22h-42.72z" fill="#2f4647"/><path d="m143.73 167.46h42.72v1.22h-42.72z" fill="#2f4647"/><path d="m142.51 175.99h42.72v1.22h-42.72z" fill="#2f4647"/><path d="m141.29 183.31h42.72v1.22h-42.72z" fill="#2f4647"/><path d="m143.12 145a13.87 13.87 0 0 0 .61-5.7l3.21-1.08h17.89c-1.15 4.88-6.26 26.29-20.3 37.67a79.55 79.55 0 0 0 -1.41-30.89z" opacity=".1"/><circle cx="116.56" cy="48.92" fill="#88c425" r="2.25"/><path d="m90.08 39.08c.92-7.54 2.82-15.14 7.3-22.08-7.37 2.18-11 5.08-14.49 8.74-3.89 12.49-3.63 23.91-3.26 32.48 3.37.11 6.69.37 9.83.73a117.3 117.3 0 0 1 .62-19.87z" fill="#fff" opacity=".3"/><circle cx="124.74" cy="48.92" fill="#88c425" r="2.25"/><path d="m169.34 83.87a84.48 84.48 0 0 0 0-20.75c-28.43-10.55-57.34-1.82-57.34-1.82s-28.91-8.74-57.33 1.82a84.48 84.48 0 0 0 0 20.75c1.46 10.56-4.21 19.29-.65 31.3s16.93 45.5 58 55c41-9.46 54.42-43 58-55s-2.14-20.74-.68-31.3zm-56 20.27 4.59 25.43-6.52 1.68-6.52-1.68 4.88-25.45a9.82 9.82 0 1 1 3.58 0z" fill="#d7d5d0"/><path d="m112 172-.41-.09c-41.32-9.53-55.25-42.49-59.33-56.23-2.14-7.23-1.15-13.24-.18-19.06.7-4.23 1.36-8.23.77-12.52a85.52 85.52 0 0 1 0-21.26l.15-1.05 1-.38c26.9-10 53.76-3.19 58-2 4.21-1.18 31.07-8 58 2l1 .38.15 1.08a85.52 85.52 0 0 1 0 21.26c-.59 4.28.07 8.28.77 12.52 1 5.81 2 11.83-.18 19.06-4.07 13.73-18 46.7-59.33 56.23zm-55.65-107.54a83.19 83.19 0 0 0 .13 19.16c.67 4.83-.07 9.3-.79 13.61-.94 5.66-1.82 11 .08 17.42 3.88 13.07 17.1 44.39 56.23 53.6 39.12-9.22 52.35-40.53 56.23-53.6 1.91-6.42 1-11.76.08-17.42-.72-4.32-1.46-8.78-.79-13.61a83.19 83.19 0 0 0 .13-19.16c-27.2-9.64-54.84-1.49-55.12-1.41l-.53.16-.53-.16c-.28-.05-27.97-8.21-55.12 1.41zm55 68.68-8.65-2.22 4.88-25.48a11.64 11.64 0 1 1 7.8 0l4.62 25.48zm-4.4-4.91 4.4 1.13 4.42-1.14-4.28-23.72zm4.6-41.71a8 8 0 0 0 -1.5 15.81l1.46.28 1.46-.26a8 8 0 0 0 -1.42-15.82z" fill="#2f4647"/><path d="m76.76 149.25 20.81-24.32-3.42-5.55-12.66 6.86-8.7-11.69-15.1 5.54s7.64 20.52 19.07 29.16z" fill="#88c425"/><path d="m102.87 165.49 5.52-24.44-10.82-5.71-13.84 19.85s6.86 6.76 19.14 10.3z" fill="#88c425"/><path d="m147 149.45-20.81-24.32 3.42-5.55 12.66 6.86 8.7-11.69 15.27 5.6s-6.87 19.24-19.24 29.1z" fill="#88c425"/><path d="m121.09 165.56-5.56-24.56 10.82-5.71 14 20a67.18 67.18 0 0 1 -19.26 10.27z" fill="#88c425"/><path d="m112 162.1h-.14c-34.46-7.95-46.09-35.45-49.48-46.9-1.75-5.91-.93-10.88-.13-15.7.61-3.65 1.18-7.1.66-10.87a72.79 72.79 0 0 1 0-17.71l.05-.36.34-.13c22.88-8.5 46.43-2.24 48.7-1.6 2.27-.64 25.82-6.9 48.7 1.6l.34.13.05.36a72.79 72.79 0 0 1 0 17.71c-.52 3.76.05 7.21.66 10.87.8 4.81 1.62 9.79-.13 15.7-3.4 11.46-15 39-49.48 46.9zm-47.93-90.68a71.58 71.58 0 0 0 0 17c.55 3.95-.07 7.65-.66 11.23-.78 4.68-1.58 9.51.1 15.15 3.33 11.23 14.72 38.19 48.45 46 33.73-7.84 45.12-34.79 48.45-46 1.67-5.64.87-10.47.1-15.15-.59-3.58-1.21-7.29-.66-11.23a71.43 71.43 0 0 0 0-17c-23.46-8.56-47.51-1.47-47.75-1.4l-.18.05-.18-.05c-.16-.07-24.22-7.15-47.67 1.4z" fill="#2f4647"/><ellipse cx="112.2" cy="94.38" fill="#2f4647" rx="9.61" ry="9.6"/><path d="m110.95 98.36-6.08 31.3h13.67z" fill="#2f4647"/><path d="m131.53 85.4 25.63-6v17.34h-25.63z" fill="#88c425"/><path d="m92.47 85.4-25.63-6v17.34h25.63z" fill="#88c425"/><path d="m168.85 112c-.52.53-36.93 40.55-82.6 45.33 7.35 5.42 14.79 8.12 25.74 11 40.68-8.95 54.3-44.66 56.86-56.33z" opacity=".1"/></svg>