<svg height="486.42273" viewBox="0 0 486.42273 486.42273" width="486.42273" xmlns="http://www.w3.org/2000/svg"><ellipse cx="243.21136" cy="243.21136" fill="#ffcf00" rx="241.54266" ry="243.21136"/><path d="m144.96444 386.52482c-13.60945-4.49966-23.8682-18.08377-27.7018-36.68131-4.20207-20.38509-4.60379-50.829-1.19358-90.45414.80468-9.35 1.94808-27.35 2.5409-40 1.95029-41.61677 3.80776-51.37519 13.5545-71.21022 16.0455-32.65325 44.45232-55.364575 80.4758-64.340599 13.33602-3.322957 36.39178-3.786587 49.8734-1.002907 26.04208 5.377161 44.65877 15.299486 62.71524 33.425966 10.93416 10.97656 16.45749 18.49245 22.58158 30.72801 8.25259 16.48817 11.48173 29.40434 12.85034 51.39975 1.04836 16.84863 2.0876 23.36193 7.83054 49.07675 5.3603 24.00149 6.45199 33.06939 5.93466 49.29525-.49498 15.52504-2.97351 24.73678-9.58356 35.6184-17.71139 29.15689-63.99687 46.90083-139.7022 53.55604-6.6.5802-26.4 1.26073-44 1.51228-25.49503.36439-32.84886.17671-36.17582-.92327zm83.34857-119.15739c15.15113-7.36393 26.95218-27.54419 29.22626-49.97806 3.01664-29.75914-8.89209-57.43936-29.39901-68.33405-4.39768-2.33635-6.1444-2.65692-14.5-2.66114-8.9186-.005-9.88507.20399-15.792 3.4069-20.23824 10.97378-32.47647 41.3086-28.27045 70.07377 3.65055 24.96624 16.73431 43.8685 34.34849 49.62365 6.70597 2.19107 17.42042 1.25477 24.38671-2.13107zm97.32725-18.47583c9.05411-2.55227 18.67149-13.62341 23.45655-27.00223 9.06906-25.3567-.38096-57.62347-19.84895-67.77361-7.5349-3.92851-17.08207-3.83224-24.46301.24666-17.71442 9.78947-26.93566 37.28862-20.96706 62.52695 1.79094 7.57299 7.55599 18.54226 12.32295 23.4471 8.0727 8.3062 19.0693 11.49531 29.49952 8.55513z"/></svg>