<svg height="81.380943mm" viewBox="0 0 288.36 288.3588" width="81.380943mm" xmlns="http://www.w3.org/2000/svg"><g transform="translate(659.5 71.965395)"><circle cx="-515.32001" cy="72.213997" fill="#69ab90" r="144.17999"/><circle cx="-515.13" cy="72.402" fill="#4a856d" r="96.804001"/><circle cx="-515.32001" cy="72.213997" fill="#d9ccb5" r="85.490997"/><path d="m-514.62-60.244c-35.857-.21436-69.613 13.549-95.287 39.223-21.726 21.726-34.785 48.725-38.356 79.299-1.5095 12.924-1.1505 18.559 1.4496 22.765 2.5923 4.1928 7.7157 7.094 12.529 7.094 2.224 0 4.3673-.59088 6.8602-1.8932 2.6102-1.3636 4.1843-2.796 5.6179-5.1148 1.79-2.8953 2.048-4.0575 2.5639-11.494 1.0787-15.547 3.6425-26.467 9.0225-38.438 5.5317-12.308 11.942-21.608 21.432-31.099 15.367-15.367 34.084-25.098 55.841-29.031 7.7155-1.3947 24.814-1.5398 33.687-.28464 7.756 1.0971 10.134.7672 14.301-1.9925 5.8022-3.8431 8.1425-11.751 5.3024-17.917-3.0315-6.5811-7.1319-8.7184-19.484-10.163-5.1906-.60718-10.356-.9226-15.479-.95322zm109.93 74.51c-8.1977-.03762-14.914 6.5284-14.914 14.576 0 11.147 10.954 18.298 20.867 13.623 4.0006-1.8866 5.9627-3.8591 7.5023-7.5442 4.0457-9.6829-3.0709-20.608-13.456-20.655zm-14.971 113.33c-4.0751.0647-7.3332 2.0205-11.055 6.3482-9.1984 10.697-11.412 13.066-15.958 17.079-13.705 12.096-31.307 20.6-50.351 24.325-9.3447 1.8276-28.844 1.6379-38.299-.3729-19.891-4.2303-35.81-12.389-51.031-26.152-7.8199-7.071-10.345-8.4952-15.06-8.4952-8.2275 0-14.524 6.3846-14.559 14.764-.026 6.3329 1.7615 9.0449 11.94 18.107 19.95 17.762 46.738 29.723 73.456 32.798 7.3929.8508 22.091.86962 29.682.0398 24.156-2.6409 47.493-11.922 66.845-26.582 6.4568-4.8917 19.763-18.022 24.347-24.025 5.5848-7.3136 6.7915-11.417 5.1346-17.474-1.1034-4.0332-6.2363-8.7401-10.697-9.8103-1.5875-.38083-3.0371-.57098-4.3954-.54943z" fill="#e1eee9" fill-rule="evenodd"/><g fill="#fff"><path d="m-398.82 91.611c-2.2815-.10063-3.476 1.6445-4.709 6.2656-.72585 2.3218-.8127 3.4136-1.5879 5.7129l-1.1328 3.4004-2.2207-.7832-2.2207-.78125.48242 3.1484c1.2524 8.1662 2.7305 16.622 2.8926 16.553 1.7355-1.3997 8.0109-6.6523 15.238-12.561 0 0-1.199-.43109-2.5371-.91406l-2.3144-.90039 1.2168-3.7168c.66905-2.0444 1.5029-5.601 1.8535-7.9043.10026-.65807.14896-1.1589.19727-1.6621.13779-3.332-.88319-4.7139-3.3906-5.5059-.6561-.20727-1.2411-.32834-1.7676-.35157z"/><path d="m-444.37-21.129c-1.5821 1.6469-3.6508 1.2077-7.7315-1.2869-2.1272-1.1799-2.9434-1.9104-5.0908-3.04l-3.166-1.68-1.0672 2.099-1.0686 2.0976-1.8229-2.612c-4.7273-6.7756-9.491-13.916-9.326-13.978 2.222-.18409 10.389-.7113 19.697-1.4206 0 0-.57051 1.1392-1.206 2.4121l-1.0542 2.2486 3.4451 1.8511c1.8947 1.0183 4.9521 3.0176 6.795 4.4431.52659.4072.90738.73615 1.2895 1.0671 2.3985 2.3169 2.6128 4.0217 1.3441 6.3249-.33194.60269-.67188 1.0939-1.037 1.474z"/><path d="m-432.68-16.955c-.92625.11186-1.7636.61843-2.5957 1.4668-2.5338 2.583-1.7893 5.0501 3.1855 10.545 2.4906 2.751 6.0466 6.7358 7.9004 8.8555 3.7538 4.2926 5.5909 4.8261 8.1582 2.3672 2.8579-2.737 2.1581-5.0574-3.6914-12.246-6.6046-8.1165-10.178-11.324-12.957-10.988z"/><path d="m-400.77 75.155c-.1731-2.8106-.55381-8.1371-.84577-11.837-.58317-7.3893.33368-9.7981 3.9172-10.296 4.7082-.65411 6.1374 3.0921 6.5005 17.04.24112 9.2648-.62148 11.529-4.5568 11.95-3.5346.37895-4.6643-1.1658-5.0151-6.8574z"/></g><path d="m-453.01 64.994c-2.1109-.01867-4.3622 1.2952-7.7031 4.248-10.175 8.9932-21.922 15.327-34.545 18.627-8.938 2.3365-24.56 2.9354-33.938 1.3027-14.797-2.576-26.79-8.3704-39.924-19.289-4.784-3.9773-6.1342-4.7617-8.1875-4.7617-3.5186 0-6.0234 2.6331-6.0234 6.332 0 2.525.38568 3.1373 4.3926 6.9707 2.416 2.3114 6.445 5.638 8.9551 7.3945 2.51 1.7566 4.8076 3.4001 5.1055 3.6523.2983.25226.17832 1.9504-.26758 3.7715-1.4733 6.0171-4.278 10.442-7.6934 12.551-1.1265.76846-2.2641 1.2685-3.3203 1.3828-6.5363.70717-9.3955 4.3121-7.293 9.1953 1.6698 3.8781 6.6162 4.7935 12.031 2.9883.24651-.0848.49286-.16918.73829-.26368.23829-.0897.47741-.18505.71679-.28515.49332-.20988.98411-.43326 1.4707-.68164.0508-.0257.10153-.0481.15234-.0742 1.8138-.94212 3.5716-2.1505 5.2266-3.5957.14038-.12553.28085-.25756.42188-.39063.20456-.18578.40438-.38109.60547-.57422 1.7137-1.7335 3.4328-3.9476 4.8926-6.2402.20605-.3236.39292-.64933.58789-.97461.10747-.18366.22362-.36247.32813-.54688 1.5252-2.6914 2.7177-5.4344 3.1113-7.4023.2326-1.1632.67161-2.1152.97461-2.1152.3031-.00001 2.6227.7471 5.1543 1.6602 6.1439 2.2158 14.829 4.2505 20.553 4.8144l4.668.45899v11.014c0 10.802.033 11.054 1.7129 13.051.9421 1.1196 2.3872 2.1375 3.2109 2.2617 2.6996.407 4.527-.26757 6.2363-2.2988 1.6414-1.9513 1.6836-2.265 1.6836-13.004v-11.004l4.8105-.44727c6.0027-.55789 16.571-3.1406 22.189-5.4238 2.3449-.9528 4.4893-1.5925 4.7656-1.4219.2761.17065.68736 1.457.91406 2.8594.7511 4.6454 4.9402 12.24 8.8633 16.07 7.2261 7.0551 16.814 8.4874 19.682 2.9414 2.429-4.6972-.15457-8.474-6.5898-9.6348-2.868-.51734-6.1671-3.8642-8.0273-8.1445-1.5696-3.6119-2.9464-10.521-2.2266-11.172.3135-.28323 2.5308-1.9235 4.9277-3.6445 6.261-4.4955 12.034-10.285 12.537-12.574.49754-2.2654-1.0289-5.7049-3-6.7598-.99058-.53012-1.9214-.81378-2.8809-.82227z" fill="#2a4c3d"/></g></svg>