<svg height="774.02838" width="774.02838" xmlns="http://www.w3.org/2000/svg"><path d="m456.04831 657.01458c-41.36758-57.74979-75.50859-105.16849-75.86891-105.3749-.36033-.2064-33.69241 44.99877-74.07129 100.45595-42.72054 58.67326-73.86931 100.57089-74.5 100.20856-.59612-.34246-33.45214-23.38531-73.01338-51.20633s-72.355845-50.87052-72.876895-51.22111c-.52105-.3506 32.212885-48.65995 72.742065-107.35413 40.52919-58.69418 73.54879-106.81651 73.3769-106.93852-.1719-.12201-52.40004-17.49103-116.06254-38.59781-63.662499-21.10678-115.76091109-38.8476-115.77424909-39.42404-.01334-.57643 12.20394209-39.5887 27.14950909-86.69392l27.173758-85.64586 2.600492.85167c1.43027.46842 55.99311 18.42156 121.25076 39.89586 65.25765 21.47431 119.0882 39.04419 119.62344 39.04419.62158 0 1.20479-41.81733 1.61432-115.75.35264-63.662499.90878-120.587499 1.23586-126.499999l.5947-10.75h89.39071 89.3907l.034 9.75c.0742 21.308318 6.7414 250.358689 7.30379 250.921089.3308.33079 52.92763-17.16453 116.88185-38.8785s116.36142-39.43178 116.46043-39.3729c.47678.28351 53.31993 171.62439 53.31993 172.88694 0 1.55827 2.94242.53013-149 52.06372-47.575 16.13579-86.39911 29.74096-86.27579 30.23372.12331.49276 31.39831 46.53253 69.5 102.31061 38.10168 55.77807 69.27579 101.75674 69.27579 102.17483 0 .66181-145.02681 107.91049-145.92175 107.91049-.18723 0-34.18662-47.24983-75.5542-104.99961z"/></svg>