<svg enable-background="new 0 0 250 200" height="120" viewBox="0 0 120 120" width="120" xmlns="http://www.w3.org/2000/svg" xmlns:xlink="http://www.w3.org/1999/xlink"><clipPath id="a"><path d="m178.684 78.824c0 28.316-23.035 51.354-51.354 51.354-28.313 0-51.348-23.039-51.348-51.354 0-28.313 23.036-51.349 51.348-51.349 28.318 0 51.354 23.036 51.354 51.349z" height="100%" width="100%"/></clipPath><linearGradient id="b"><stop offset=".0056" stop-color="#6176b9"/><stop offset=".691" stop-color="#394a9f"/></linearGradient><linearGradient id="c" gradientTransform="matrix(1 0 0 -1 -1788 -2321)" gradientUnits="userSpaceOnUse" x1="1893.3184" x2="1901.8867" xlink:href="#b" y1="-2381.9795" y2="-2381.9795"/><linearGradient id="d" gradientTransform="matrix(1 0 0 -1 -1788 -2321)" gradientUnits="userSpaceOnUse" x1="1920.2734" x2="1928.0781" xlink:href="#b" y1="-2379.3711" y2="-2379.3711"/><circle cx="60.000999" cy="60.001007" fill="#de5833" r="51.150002"/><g transform="translate(-67.331001 -18.964996)"><g clip-path="url(#a)"><path d="m148.293 155.158c-1.801-8.285-12.262-27.039-16.23-34.969-3.965-7.932-7.938-19.11-6.129-26.322.328-1.312-3.436-11.308-2.354-12.015 8.416-5.489 10.632.599 14.002-1.862 1.734-1.273 4.09 1.047 4.689-1.06 2.158-7.567-3.006-20.76-8.771-26.526-1.885-1.879-4.771-3.06-8.03-3.687-1.254-1.713-3.275-3.36-6.138-4.879-3.188-1.697-10.121-3.938-13.717-4.535-2.492-.41-3.055.287-4.119.461.992.088 5.699 2.414 6.615 2.549-.916.619-3.607-.028-5.324.742-.865.392-1.512 1.877-1.506 2.58 4.91-.496 12.574-.016 17.1 2-3.602.41-9.08.867-11.436 2.105-6.848 3.608-9.873 12.035-8.07 22.133 1.804 10.075 9.738 46.85 12.262 59.129 2.525 12.264-5.408 20.189-10.455 22.354l5.408.363-1.801 3.967c6.484.719 13.695-1.439 13.695-1.439-1.438 3.965-11.176 5.412-11.176 5.412s4.691 1.438 12.258-1.447c7.578-2.883 12.263-4.688 12.263-4.688l3.604 9.373 6.854-6.847 2.885 7.211c.014-.001 5.424-1.808 3.621-10.103z" fill="#d5d7d8"/><path d="m150.471 153.477c-1.795-8.289-12.256-27.043-16.228-34.979-3.97-7.936-7.935-19.112-6.13-26.321.335-1.309.341-6.668 1.429-7.379 8.411-5.494 7.812-.184 11.187-2.645 1.74-1.271 3.133-2.806 3.738-4.912 2.164-7.572-3.006-20.76-8.773-26.529-1.879-1.879-4.768-3.062-8.023-3.686-1.252-1.718-3.271-3.361-6.13-4.882-5.391-2.862-12.074-4.006-18.266-2.883.99.09 3.256 2.138 4.168 2.273-1.381.936-5.053.815-5.029 2.896 4.916-.492 10.303.285 14.834 2.297-3.602.41-6.955 1.3-9.311 2.543-6.854 3.603-8.656 10.812-6.854 20.914 1.807 10.097 9.742 46.873 12.256 59.126 2.527 12.26-5.402 20.188-10.449 22.354l5.408.359-1.801 3.973c6.484.721 13.695-1.439 13.695-1.439-1.438 3.974-11.176 5.406-11.176 5.406s4.686 1.439 12.258-1.445c7.581-2.883 12.269-4.688 12.269-4.688l3.604 9.373 6.853-6.853 2.891 7.215c-.016.007 5.388-1.797 3.58-10.088z" fill="#fff"/><path d="m109.021 70.691c0-2.093 1.693-3.787 3.789-3.787 2.09 0 3.785 1.694 3.785 3.787 0 2.094-1.695 3.786-3.785 3.786-2.096.001-3.789-1.692-3.789-3.786z" fill="#2d4f8e"/><path d="m113.507 69.429c0-.545.441-.983.98-.983.543 0 .984.438.984.983 0 .543-.441.984-.984.984-.538.001-.98-.441-.98-.984z" fill="#fff"/><path d="m134.867 68.445c0-1.793 1.461-3.25 3.252-3.25 1.801 0 3.256 1.457 3.256 3.25 0 1.801-1.455 3.258-3.256 3.258-1.791 0-3.252-1.457-3.252-3.258z" fill="#2d4f8e"/><path d="m138.725 67.363c0-.463.379-.843.838-.843.479 0 .846.38.846.843 0 .469-.367.842-.846.842-.459 0-.838-.373-.838-.842z" fill="#fff"/><path d="m113.886 59.718s-2.854-1.291-5.629.453c-2.77 1.742-2.668 3.523-2.668 3.523s-1.473-3.283 2.453-4.892c3.93-1.609 5.844.916 5.844.916z" fill="url(#c)"/><path d="m140.078 59.458s-2.051-1.172-3.643-1.152c-3.271.043-4.162 1.488-4.162 1.488s.549-3.445 4.732-2.754c2.268.377 3.073 2.418 3.073 2.418z" fill="url(#d)"/></g><path d="m124.4 85.295c.379-2.291 6.299-6.625 10.491-6.887 4.201-.265 5.51-.205 9.01-1.043 3.51-.838 12.535-3.088 15.033-4.242 2.504-1.156 13.104.572 5.631 4.738-3.232 1.809-11.943 5.131-18.172 6.987-6.219 1.861-9.99-1.776-12.06 1.281-1.646 2.432-.334 5.762 7.099 6.453 10.037.93 19.66-4.521 20.719-1.625 1.064 2.895-8.625 6.508-14.525 6.623-5.893.111-17.771-3.896-19.555-5.137-1.786-1.238-4.165-4.13-3.671-7.148z" fill="#fdd20a"/></g><g transform="translate(-67.331001 -18.964996)"><path d="m128.943 115.592s-14.102-7.521-14.332-4.47c-.238 3.056 0 15.509 1.643 16.451 1.646.938 13.396-6.108 13.396-6.108z" fill="#65bc46"/><path d="m134.346 115.118s9.635-7.285 11.754-6.815c2.111.479 2.582 15.51.701 16.229-1.881.69-12.908-3.813-12.908-3.813z" fill="#65bc46"/><path d="m125.529 116.389c0 4.932-.709 7.049 1.41 7.519 2.109.473 6.104 0 7.518-.938 1.41-.938.232-7.279-.232-8.465-.477-1.174-8.696-.232-8.696 1.884z" fill="#43a244"/><path d="m126.426 115.292c0 4.933-.707 7.05 1.409 7.519 2.106.479 6.104 0 7.519-.938 1.41-.941.231-7.279-.236-8.466-.473-1.173-8.692-.227-8.692 1.885z" fill="#65bc46"/></g><circle cx="59.999999" cy="60" fill="none" r="57.5" stroke="#de5833" stroke-miterlimit="10" stroke-width="5"/></svg>