<svg height="71.791527mm" viewBox="0 0 71.791527 71.791527" width="71.791527mm" xmlns="http://www.w3.org/2000/svg" xmlns:xlink="http://www.w3.org/1999/xlink"><clipPath id="a"><path d="m0 1080h1440v-1080h-1440z"/></clipPath><clipPath id="b"><path d="m-1.01642 295.59h309.56642v-296.5949h-309.56642z"/></clipPath><clipPath id="c"><path d="m131.8 109.25h161.315v-103.7002h-161.315z"/></clipPath><clipPath id="d"><path d="m201.5 110.479h86.15v-52.6289h-86.15z"/></clipPath><clipPath id="e"><path d="m201.95 68.0498h7.7v-10.1499h-7.7z"/></clipPath><g clip-path="url(#a)" transform="matrix(.35277777 0 0 -.35277777 -181.640351 163.666743)"><g clip-path="url(#b)" transform="matrix(.6659698 .1784363 .1784363 -.6659698 482.14111 436.30856)"><g clip-path="url(#c)" opacity=".996078"><path d="m0 0 3 4.55h3.05l3.35 3.35-3.35-3.35h-3.05zm29.05 20.65c-.767.1-1.567.117-2.4.05-5.1-.4-12.167-3.85-21.2-10.35-13.467-9.7-28.384-18.083-44.75-25.15 13.81-4.705 25.802-3.622 35.975 3.25 2.121 1.431 4.162 3.115 6.125 5.05 2.037 1.994 3.987 4.261 5.85 6.8 6.3 8.6 13.1 15.383 20.4 20.35m-47.15-32.1 2.65 1.5zm7.25.9 2.1 8.15 4.85-2.1-4.85 2.1zm-44.95-59.55c8.029-6.498 20.279-10.181 36.75-11.05 14.699 2.916 29.532 9.499 44.5 19.75 1.2.833 2.4 1.667 3.6 2.5.533.4 1.067.8 1.6 1.2 14.967 10.933 27.75 23.6 38.35 38 1.833 2.5 3.767 4.933 5.8 7.3-19.167-10.233-25.333-9.717-18.5 1.55-5.6-.633-10.95-2.184-16.05-4.65v-8.95l-2.9 7.4-.45 1.05c-1.1-.4-2.167-.85-3.2-1.35-2-.967-3.9-2.067-5.7-3.3-3.267-2.267-6.117-5-8.55-8.2-.533-.733-1.067-1.483-1.6-2.25-3.567-5.4-7.6-9.667-12.1-12.8-.1-.034-.184-.083-.25-.15.066.067.15.116.25.15 4.5 3.133 8.533 7.4 12.1 12.8.533.767 1.067 1.517 1.6 2.25-1.3.267-2.45.9-3.45 1.9-1.4 1.4-2.1 3.083-2.1 5.05 0 1.933.7 3.6 2.1 5s3.066 2.1 5 2.1c1.967 0 3.633-.7 5-2.1 1.1-1.067 1.767-2.317 2-3.75 1.8 1.233 3.7 2.333 5.7 3.3-.433.633-.917 1.217-1.45 1.75-2.333 2.333-5.55 3.733-9.65 4.2-5.467.667-10.933-.567-16.4-3.7-5.4-3.167-9.2-7.283-11.4-12.35-2.2-5.1-2.133-9.683.2-13.75 1.4-2.467 3.417-4.3 6.05-5.5 1.533.766 3.016 1.65 4.45 2.65-1.173-1.261-2.365-2.47-3.575-3.625-16.08-15.512-35.006-22.12-56.775-19.825-.272-.847-.589-1.714-.95-2.6m152 73.45c1.333.667 2.833 1.767 4.5 3.3 7.467 6.733 6.25 12.033-3.65 15.9 0-.3.033-.6.1-.9.2-1.267.666-2.467 1.4-3.6 1-1.567 1.5-2.65 1.5-3.25 0-1.2-1.217-2.8-3.65-4.8-2.433-2.034-3.65-3.5-3.65-4.4 0-.333.117-.667.35-1 .167-.1.35-.2.55-.3.9-.467 1.75-.783 2.55-.95" fill="#fff" fill-rule="evenodd" transform="translate(187.6001 86.7002)"/></g><g clip-path="url(#d)" opacity=".996078"><path d="m0 0c-.233 1.434-.9 2.684-2 3.75-1.367 1.4-3.033 2.1-5 2.1-1.934 0-3.6-.7-5-2.1s-2.1-3.066-2.1-5c0-1.966.7-3.65 2.1-5.05 1-1 2.15-1.633 3.45-1.9 2.433 3.2 5.283 5.933 8.55 8.2m69.05 43.2c-.4.167-.8.317-1.2.45-.167.067-.333.134-.5.2-1.833.6-3.034.733-3.6.4-.533-.3-.583-1-.15-2.1 2.067-4.067.867-6.483-3.6-7.25-2.633-3.3-1.617-6.9 3.05-10.8 1.1-.967 2.5-1.133 4.2-.5.3.1.617.233.95.4-.8.167-1.65.483-2.55.95-.2.1-.383.2-.55.3-.233.333-.35.667-.35 1 0 .9 1.217 2.367 3.65 4.4 2.433 2 3.65 3.6 3.65 4.8 0 .6-.5 1.683-1.5 3.25-.734 1.133-1.2 2.334-1.4 3.6-.067.3-.1.6-.1.9" fill="#110f0d" fill-rule="evenodd" transform="translate(215.6001 66.0498)"/></g><g fill-rule="evenodd"><path d="m0 0c-1.731-1.786-2.923-3.437-3.575-4.95.652 1.513 1.844 3.164 3.575 4.95m69.525-91.5c.333.167.667.35 1 .55-.333-.2-.667-.383-1-.55m-22.2-40.8c.333-.233.717-.467 1.15-.7-.433.233-.817.467-1.15.7m-8.5 29.85c1.734-5.7 4.567-11.05 8.5-16.05l-15.15 4.85c2.433-7.133 7-13.033 13.7-17.7l1.45-.95-1.45.95c-11 7.167-16.7 14.233-17.1 21.2l11.95-3.75zm19.95-41.7c-3.233-7.666-7.466-12.8-12.7-15.4l3.25 4.3-4.6 9.35 6.65 1.6v2.25l2.9-3.95h-8.5l3.3-4.65.15-.2.85-1.15.85-1.1zm82.5 122.5c.734-7.932 5.051-15.807 12.95-23.625 7.148-2.45 14.948-3.675 23.4-3.675 16.4 0 30.4 4.634 42 13.9 9.366 7.536 14.95 16.311 16.75 26.325.434 2.388.65 4.846.65 7.375 0 7.767-1.966 13.8-5.9 18.1 1.284-5.837 1.675-11.762 1.175-17.775-.179-2.263-.487-4.538-.925-6.825-.667-3.1-1.733-5.5-3.2-7.2-1.333-1.467-3.017-2.5-5.05-3.1-1.433-.467-3.033-.7-4.8-.7-2.7 0-5.217.833-7.55 2.5-1.533 1.067-3 2.5-4.4 4.3-3.566 4.633-5.35 10.05-5.35 16.25 0 2.167.6 5.517 1.8 10.05.372 1.363.788 2.796 1.25 4.3h-8.775c-.575-2.789-1.401-5.339-2.475-7.65-2.8-5.767-6.467-8.95-11-9.55-.533-.067-1.05-.1-1.55-.1-2.833 0-5.333.583-7.5 1.75-1.767.934-3.317 2.217-4.65 3.85-2.565 3.153-3.94 6.953-4.125 11.4l-7.1-1.8c.95-3.495 1.425-7.362 1.425-11.6 0-7.467-1.617-13.65-4.85-18.55-2.533-3.8-5.733-6.267-9.6-7.4-.844-.248-1.71-.431-2.6-.55m-49.6 122.15c-13.159 10.652-31.225 14.035-54.2 10.15-29.226-6.181-55.443-20.565-78.65-43.15-22.954-21.458-28.604-46.449-16.95-74.975 7.954-9.753 19.721-18.978 35.3-27.675 3.5-1.8 6.85-3.416 10.05-4.85 1.243-.555 2.46-1.08 3.65-1.575 25.36-10.582 40.094-8.441 44.2 6.425-2.509-22.292-17.783-26.343-45.825-12.15-5.838-26.836 11.912-57.461 53.25-91.875.939.754 2.047 1.396 3.325 1.925-1.278-.529-2.386-1.171-3.325-1.925-.773-.632-1.432-1.341-1.975-2.125-1.367-1.9-2.05-4.283-2.05-7.15-.1-2.2.033-4.3.4-6.3.7-4.233 2.3-8.066 4.8-11.5 1.833-2.933 4.333-3.183 7.5-.75 1.634 1.233 3.3 3.1 5 5.6 2.198 3.323 3.899 6.44 5.1 9.35.361.886.678 1.753.95 2.6.528 1.615.879 3.165 1.05 4.65.017.202.034.402.05.6-.016-.198-.033-.398-.05-.6-.171-1.485-.522-3.035-1.05-4.65 21.77-2.295 40.695 4.314 56.775 19.825l-.875.975c-2.967-1.467-6.117-2.517-9.45-3.15l4.6 3.5c-7.867 6.267-11.017 12.317-9.45 18.15 1.376 5.077 5.201 9.911 11.475 14.5 2.087 1.527 4.446 3.027 7.075 4.5 5.333 2.967 11.717 3.917 19.15 2.85 4.667-1.133 8.317-3.7 10.95-7.7l4.85 2.4v-3.85c5.1 2.467 10.45 4.017 16.05 4.65-6.833-11.266-.667-11.783 18.5-1.55 4.833 5.667 10.25 10.95 16.25 15.85-9.767 6.467-11.2 10.617-4.3 12.45 2.734.633 3.3 2.817 1.7 6.55l.55 2.3c-15 5.9-28.683 7.35-41.05 4.35-.133-.033-.25-.05-.35-.05l-.55-.15c-6.333-1.633-12.333-4.383-18-8.25-7.3-4.967-14.1-11.75-20.4-20.35-1.863-2.539-3.812-4.806-5.85-6.8-1.962-1.935-4.004-3.618-6.125-5.05-10.173-6.872-22.165-7.955-35.975-3.25 16.367 7.067 31.284 15.45 44.75 25.15 9.034 6.5 16.1 9.95 21.2 10.35 2.834 3.633 7.517 6.65 14.05 9.05-13.9 1.067-28.167-3.25-42.8-12.95-.6-.4-1.217-.817-1.85-1.25-13.788-9.602-27.938-17.76-42.45-24.475-.052-.028-.102-.053-.15-.075.073.041.148.082.225.125 15.996 9.273 28.663 18.373 38 27.3-14.823 4.878-7.431 12.678 22.175 23.4-22.105 10.474-37.297 22.682-45.575 36.625-13.096-.362-23.604 2.596-31.525 8.875-34.389-15.227-50.781-15.651-49.175-1.275-1.839-1.441-3.389-2.808-4.65-4.1 4.744 7.988-.881 9.597-16.875 4.825 11.882 4.919 24.349 8.127 37.4 9.625.067 0 .15.017.25.05 3.8.434 7.267.434 10.4 0 .767-.1 1.5-.2 2.2-.3.4-.067.783-.117 1.15-.15 1.5-.2 3.017-.35 4.55-.45 1-.133 1.984-.233 2.95-.3 1.534-.1 3.05-.183 4.55-.25h.05c2.549-.133 5.049-.149 7.5-.05 2.667 0 5.217.133 7.65.4 5.067.5 9.733 1.417 14 2.75.595.203 1.179.412 1.75.625.827.3 1.627.608 2.4.925.333.133.683.283 1.05.45 3.733 1.667 7.05 3.733 9.95 6.2 2.5 2.1 4.683 4.533 6.55 7.3 2 2.967 3.617 6.267 4.85 9.9l1.5 5.6.75 2.85c.5 3.067.85 6.05 1.05 8.95.2 3.867.067 7.6-.4 11.2-.267 2.233-.666 4.433-1.2 6.6-1.133 4.567-2.833 8.95-5.1 13.15-1.533 2.767-3.267 5.45-5.2 8.05-.657.858-1.34 1.708-2.05 2.55" fill="#f68b25" transform="translate(70.5249 168.6499)"/><path d="m0 0 1.15 1.2c-.571-.214-1.155-.422-1.75-.625zm-55.775-1.225-.025.025h-.025l.025-.05zm118.175-51.75c-1.076.744-2.126 1.527-3.15 2.35l1-3.075c.706.239 1.423.48 2.15.725m-25.625-28.85c.609.365 1.218.731 1.825 1.1-.533.111-1.05.227-1.55.35zm5.85-63.375c1.21 1.156 2.402 2.364 3.575 3.625-1.433-1-2.917-1.883-4.45-2.65z" fill="#4f4945" transform="translate(146.8999 184.2251)"/><path d="m0 0c-6.7 4.667-11.267 10.567-13.7 17.7l15.15-4.85c-3.933 5-6.766 10.35-8.5 16.05l1.9-11.45-11.95 3.75c.4-6.967 6.1-14.033 17.1-21.2m-3.375-7.825c-41.338 34.414-59.088 65.039-53.25 91.875 28.042-14.193 43.316-10.142 45.825 12.15-4.106-14.866-18.84-17.007-44.2-6.425-1.19.495-2.407 1.02-3.65 1.575-5.666-14.9-3.55-30 6.35-45.3l-11.3 10.45c3.733-9.8 7.6-16.85 11.6-21.15 4-4.233 6.483-6.967 7.45-8.2s1.55-2 1.75-2.3 2.533-3.2 7-8.7 14.183-13.95 29.15-25.35c.433-.266.867-.516 1.3-.75.543.784 1.202 1.493 1.975 2.125m3.575-20.375c5.234 2.6 9.467 7.734 12.7 15.4l-7.85-8.95-.85 1.1-.85 1.15-.15.2-3.3 4.65h8.5l-2.9 3.95v-2.25l-6.65-1.6 4.6-9.35zm76 173.275v-.025c-2.567-3.951-3.85-8.967-3.85-15.05 0-13.133 5.8-24.367 17.4-33.7-11.6 9.333-17.4 20.567-17.4 33.7 0 6.083 1.283 11.099 3.85 15.05zm-117.425-9.625c-1.606-14.376 14.786-13.951 49.175 1.275-1.173.939-2.289 1.947-3.35 3.025-1.428 1.428-2.72 2.97-3.875 4.625l-15.175-7.325h-11.75c-5.808-.132-5.508 2.743.9 8.625l-.025.05-.025.075c-13.051-1.498-25.518-4.706-37.4-9.625 15.994 4.772 21.619 3.163 16.875-4.825 1.261 1.292 2.811 2.659 4.65 4.1 3.96 3.095 9.261 6.52 15.9 10.275-6.639-3.755-11.94-7.18-15.9-10.275m61.775 114.8c-3.3.767-6.616 1.383-9.95 1.85-35.666 4.533-71.166-11.967-106.5-49.5-24.318-29.247-27.018-55.489-8.1-78.725-11.654 28.526-6.004 53.518 16.95 74.975 23.207 22.586 49.424 36.969 78.65 43.15 22.975 3.885 41.041.502 54.2-10.15-2.455 2.924-5.221 5.758-8.3 8.5-1.6 1.334-3.267 2.633-5 3.9l-1.75.85-6.8 3.5zm98.55-91.4c-3.666-.166-7.233-.4-10.7-.7.3-1.966.683-3.95 1.15-5.95.067-.2.134-.4.2-.6.492-1.212.917-2.479 1.275-3.8l7.1 1.8c-.017.344-.025.694-.025 1.05 0 1.367.167 2.833.5 4.4.133 1.3.3 2.567.5 3.8m39.1-8.95c.18.923.396 1.873.65 2.85l-.1.05c.033.134.067.267.1.4.433 1.6.817 3.2 1.15 4.8-3.167.3-6.417.534-9.75.7v-3.1c-.17-1.998-.445-3.898-.825-5.7zm-118.725-22.05c8.278-13.943 23.47-26.151 45.575-36.625 1.82.655 3.72 1.322 5.7 2l-1 3.075c1.024-.822 2.074-1.606 3.15-2.35 1.058-.738 2.141-1.438 3.25-2.1 3.83-2.366 7.897-4.29 12.2-5.775-7.899 7.818-12.216 15.693-12.95 23.625-.91-.133-1.843-.2-2.8-.2-1.7 0-3.217.184-4.55.55-1.667.4-3.083 1.05-4.25 1.95-1.667 1.3-2.967 4.034-3.9 8.2-.4 3.033-.683 5.984-.85 8.85-.366 7.333.2 14.117 1.7 20.35l-.325.35c-1.66-1.351-3.068-2.91-4.225-4.675-5.945 1.971-11.503 5.188-16.675 9.65-7.616-3.431-15.757-5.173-24.425-5.225-.367-.167-.717-.316-1.05-.45-.773-.317-1.573-.625-2.4-.925l-1.15-1.2 13.75-13.275 3.6-3.5 1.55-1.45c-3.455-.473-6.763-.757-9.925-.85m23.4-60.025c-9.337-8.927-22.004-18.027-38-27.3 14.117 7.826 28.25 16.017 42.4 24.575l.275 1.45c-1.75.401-3.309.826-4.675 1.275m100.075 5.175c-.9.367-1.817.75-2.75 1.15l-.55-2.3c1.6-3.733 1.034-5.916-1.7-6.55-6.9-1.833-5.467-5.983 4.3-12.45-4.667 3.9-5.683 7.5-3.05 10.8 4.467.767 5.667 3.183 3.6 7.25-.433 1.1-.383 1.8.15 2.1m-51.05 6.15c-6.533-2.4-11.216-5.417-14.05-9.05.834.067 1.633.05 2.4-.05 5.667 3.867 11.667 6.617 18 8.25-2.1.4-4.217.683-6.35.85m-39.65-76.45c-2.633 1.2-4.65 3.033-6.05 5.5-2.333 4.067-2.4 8.65-.2 13.75 2.2 5.067 6 9.183 11.4 12.35 5.467 3.134 10.933 4.367 16.4 3.7 4.1-.466 7.317-1.867 9.65-4.2.533-.533 1.017-1.116 1.45-1.75 1.034.5 2.1.95 3.2 1.35l.45-1.05c.933.533 1.9 1.05 2.9 1.55v3.85l-4.85-2.4c-2.633 4-6.283 6.567-10.95 7.7-7.433 1.067-13.817.117-19.15-2.85-2.629-1.473-4.988-2.973-7.075-4.5-6.274-4.589-10.099-9.423-11.475-14.5-1.567-5.833 1.583-11.883 9.45-18.15l-4.6-3.5c3.333.634 6.483 1.683 9.45 3.15" fill="#e2671b" transform="translate(116.3999 37.2998)"/><path d="m0 0h11.75l15.175 7.325-.025.025c-1.5.067-3.017.15-4.55.25-.967.067-1.95.167-2.95.3-1.533.1-3.05.25-4.55.45-5.3-2.733-10.25-5.517-14.85-8.35m78.35-168.8c-16.472.869-28.722 4.552-36.75 11.05-1.202-2.91-2.902-6.027-5.1-9.35 13.827-3.93 27.776-4.496 41.85-1.7m-110.8 123.1c-3.2 1.433-6.55 3.05-10.05 4.85-17.8-34.433 1.833-73.817 58.9-118.15.767-.434 1.7-.917 2.8-1.45-.367 2-.5 4.1-.4 6.3 0 2.867.683 5.25 2.05 7.15-.433.233-.867.483-1.3.75-14.967 11.4-24.683 19.85-29.15 25.35s-6.8 8.4-7 8.7-.783 1.067-1.75 2.3-3.45 3.966-7.45 8.2c-4 4.3-7.867 11.35-11.6 21.15l11.3-10.45c-9.9 15.3-12.017 30.4-6.35 45.3m170.1-57.45c-1-.5-1.967-1.017-2.9-1.55l2.9-7.4z" fill="#cdccca" transform="translate(90.2002 174.3501)"/><path d="m0 0c-2.433-.267-4.983-.4-7.65-.4 3.334-2 5.383-3.383 6.15-4.15 1.267-1.266 1.95-2 2.05-2.2.567-.633.767-1.3.6-2 2.034 0 5.233-1.05 9.6-3.15 4.367-2.166 6.8-3.233 7.3-3.2 3.267-.1 7.7.067 13.3.5h.6l-3.6 3.5c-1.3-.067-2.75-.033-4.35.1-7.333.6-14.583 3.517-21.75 8.75zm14.85 100.35c.267.133.55.267.85.4 5.6 1.733 9.4 2.8 11.4 3.2 2.8.567 5.783.383 8.95-.55 1.6-.5 3.4-1.05 5.4-1.65.767-.033 4.017.784 9.75 2.45-1.866 1.167-3.783 2.217-5.75 3.15-3.766-1.333-7.616-1.483-11.55-.45-3.833 1.5-6.233 2.417-7.2 2.75-1.4.467-2.933.284-4.6-.55-4.433-2.3-7.133-3.633-8.1-4-1.867-.733-3.85-1.15-5.95-1.25zm66.05-33.8c-1.333-.1-2.683-.183-4.05-.25-6-.233-9.266-.483-9.8-.75-1.667-1.233-3.167-2.217-4.5-2.95-2.433-1.333-4.933-1.85-7.5-1.55-1 .1-4.1.634-9.3 1.6-1.333.267-2.5.5-3.5.7.534-2.166.934-4.367 1.2-6.6 3.067 1.967 5.834 2.617 8.3 1.95 2.633-.733 4.184-1.1 4.65-1.1 2-.066 4.2.7 6.6 2.3 1.9 1.333 4.05 1.884 6.45 1.65.967-.133 3.067-.7 6.3-1.7.467-.1 1.883-.083 4.25.05 1.534 1.134 2.983 2.3 4.35 3.5-1.133 1.134-2.283 2.183-3.45 3.15m-45.2-48.3c-1.866-2.767-4.05-5.2-6.55-7.3 1.1.067 2.517.133 4.25.2 4.867.6 8.3 1.9 10.3 3.9 2.634 2.7 4.5 4.4 5.6 5.1 1 .7 2.284 1.15 3.85 1.35 3.534.467 6.9 1.184 10.1 2.15 3.2 3.1 6.25 6.6 9.15 10.5-3.066-1.4-6.1-2.55-9.1-3.45-2.3-.7-4.45-1.217-6.45-1.55-1.566-.167-2.367-.267-2.4-.3-2.8-2.833-4.717-4.55-5.75-5.15-2.166-1.233-6.5-3.05-13-5.45m46.4-52.75c-1.733 2.567-2.6 5.3-2.6 8.2 0 1.967.383 3.533 1.15 4.7.467.767 1.034 1.267 1.7 1.5-.166 0-.25.083-.25.25-2.066.333-3.85 2.333-5.35 6-.9 2.267-1.517 4.55-1.85 6.85l.05.1c-.033.133-.067.267-.1.4-.033.167-.083.333-.15.5-.6 5.833-.9 9.784-.9 11.85-.033 1.767.25 3.533.85 5.3.367 1.134.833 2.25 1.4 3.35.833 1.434 1.734 3.083 2.7 4.95.2.767.034 4.117-.5 10.05-1.5-1.6-2.916-3.267-4.25-5 .567-3.966-.033-7.783-1.8-11.45-.633-1-1.2-1.883-1.7-2.65-.733-1.167-1.316-2.1-1.75-2.8-.267-.433-.466-.783-.6-1.05-.8-1.3-.933-2.833-.4-4.6 1.4-4.8 2.184-7.733 2.35-8.8.334-1.933.367-3.95.1-6.05.433-4.367.65-6.75.65-7.15 0-.433-.117-1.583-.35-3.45-.2-1.867-.3-3.417-.3-4.65 0-1.967.65-4.15 1.95-6.55 1.333-.366 2.85-.55 4.55-.55.957 0 1.89.067 2.8.2.89.119 1.756.302 2.6.55m38.85 85.75c-.133-1.333-.3-2.683-.5-4.05-.967-5.9-1.366-9.117-1.2-9.65.9-1.933 1.584-3.6 2.05-5 .833-2.667.85-5.233.05-7.7-.333-.967-1.467-3.9-3.4-8.8-.233-.6-.467-1.15-.7-1.65-.2-.5-.383-.95-.55-1.35-.067-.1-.116-.183-.15-.25h-.05c-2.7-5.633-4.333-9.417-4.9-11.35-.533-1.733-.8-4.233-.8-7.5 0-1.533.067-2.983.2-4.35 2.167-1.166 4.667-1.75 7.5-1.75.5 0 1.017.033 1.55.1-1.333 2.3-2 4.633-2 7 0 1.467.317 2.8.95 4 .3.633.6 1.234.9 1.8l.25-.25c-.233-.8.017-1.55.75-2.25.667-.7 1.3-1.05 1.9-1.05.667 0 1.25.334 1.75 1 .8.9 1.2 2.317 1.2 4.25 0 3.2-.433 5.617-1.3 7.25-.766 1.433-1.183 2.417-1.25 2.95h.05c-.033.034-.05.083-.05.15-.2.5-.383 1.017-.55 1.55-.733 2.633-.633 4.9.3 6.8 1.267 2.433 1.95 3.867 2.05 4.3.467 1.967.117 4.3-1.05 7-.9 2.1-1 4.3-.3 6.6.333.933 1.284 2.917 2.85 5.95.233.367.5 1.733.8 4.1-.8 1.733-1.667 3.383-2.6 4.95-1.3-.9-2.55-1.833-3.75-2.8m30.15-14.65c.767-3.267 1.317-6.45 1.65-9.55.2-2.4.267-4.633.2-6.7-.133-1.533-.183-2.316-.15-2.35 1.967-2.966 3.217-5.066 3.75-6.3.067-.166.117-.317.15-.45.767-2.3 1.584-6.767 2.45-13.4.167-2.066.25-3.3.25-3.7 0-4.767-.683-8.783-2.05-12.05-1.733-4.133-4.516-8.083-8.35-11.85 2.334-1.667 4.85-2.5 7.55-2.5 1.767 0 3.367.233 4.8.7 1.667 1.967 2.5 4.117 2.5 6.45 0 .1-.333.534-1 1.3-.633.734-.95 1.883-.95 3.45 0 2.2.45 4.267 1.35 6.2.633 1.4 1.417 2.584 2.35 3.55v.25c.033.433.167 1.833.4 4.2.4 4.9-.2 8.533-1.8 10.9-1 1.467-1.8 2.717-2.4 3.75-.7 1.067-1.167 1.917-1.4 2.55-.033.033-.066.083-.1.15-.466 1.1-.65 2.45-.55 4.05.233 3.534.2 6.983-.1 10.35-2.433 3.733-5.283 7.4-8.55 11" fill="#fff" transform="translate(132.2998 182.0498)"/><path d="m0 0c-.077-.043-.152-.084-.225-.125.048.022.098.047.15.075 14.512 6.715 28.662 14.873 42.45 24.475.633.433 1.25.85 1.85 1.25-.607-.369-1.216-.736-1.825-1.1-14.15-8.558-28.283-16.75-42.4-24.575" fill="#1a2a4c" transform="translate(141.2749 77.8252)"/><path d="m0 0c-4.4 2.067-9 3.533-13.8 4.4-2.433.4-4.917.65-7.45.75-6.4.233-13.167-.55-20.3-2.35-3-.767-6.067-1.7-9.2-2.8 3.333-.467 6.65-1.083 9.95-1.85l3.4-1.65c2.1.1 4.083.517 5.95 1.25.967.367 3.667 1.7 8.1 4 1.667.833 3.2 1.017 4.6.55.967-.333 3.367-1.25 7.2-2.75 3.933-1.033 7.783-.883 11.55.45m-8.3-30.85c2.267-4.2 3.966-8.583 5.1-13.15 1-.2 2.167-.433 3.5-.7 5.2-.967 8.3-1.5 9.3-1.6 2.566-.3 5.066.217 7.5 1.55 1.333.733 2.833 1.717 4.5 2.95.533.267 3.8.517 9.8.75 1.367.067 2.717.15 4.05.25-10.4 8.033-24.983 11.35-43.75 9.95m-7.25 10.6c.71-.842 1.393-1.692 2.05-2.55 10.7 4.867 21.9 7.217 33.6 7.05-4.467 5.133-9.25 9.333-14.35 12.6-5.733-1.666-8.983-2.483-9.75-2.45-2 .6-3.8 1.15-5.4 1.65-3.167.933-6.15 1.117-8.95.55-2-.4-5.8-1.467-11.4-3.2-.3-.133-.584-.267-.85-.4l1.75-.85c1.733-1.267 3.4-2.567 5-3.9 3.079-2.742 5.845-5.576 8.3-8.5m13.55-30.35c.467-3.6.6-7.333.4-11.2 14.733 2.8 26.783 7.583 36.15 14.35-2.367-.133-3.783-.15-4.25-.05-3.233 1-5.333 1.567-6.3 1.7-2.4.234-4.55-.317-6.45-1.65-2.4-1.6-4.6-2.366-6.6-2.3-.467 0-2.017.367-4.65 1.1-2.467.667-5.233.017-8.3-1.95m-.65-20.15-.75-2.85-1.5-5.6c-1.233-3.633-2.85-6.933-4.85-9.9 6.5 2.4 10.833 4.217 13 5.45 1.033.6 2.95 2.317 5.75 5.15.033.033.833.133 2.4.3 2 .333 4.15.85 6.45 1.55 3 .9 6.033 2.05 9.1 3.45 1.267 1.7 2.533 3.483 3.8 5.35-11.334-2.533-22.467-3.5-33.4-2.9m-23.6-31.85c8.667.052 16.809 1.794 24.425 5.225 6.982 3.144 13.524 7.702 19.625 13.675-3.2-.967-6.567-1.683-10.1-2.15-1.567-.2-2.85-.65-3.85-1.35-1.1-.7-2.967-2.4-5.6-5.1-2-2-5.433-3.3-10.3-3.9-1.733-.067-3.15-.133-4.25-.2-2.9-2.467-6.217-4.533-9.95-6.2m52.95-39.45c-1.3 2.4-1.95 4.583-1.95 6.55 0 1.233.1 2.783.3 4.65.233 1.867.35 3.017.35 3.45 0 .4-.217 2.783-.65 7.15.267 2.1.233 4.117-.1 6.05-.167 1.067-.95 4-2.35 8.8-.533 1.767-.4 3.3.4 4.6.133.267.333.617.6 1.05.433.7 1.017 1.633 1.75 2.8.5.767 1.067 1.65 1.7 2.65 1.767 3.667 2.367 7.484 1.8 11.45-2.867-3.933-5.183-8.167-6.95-12.7-.267-.766-.533-1.55-.8-2.35-.5-1.333-.917-2.7-1.25-4.1-.067-.233-.117-.467-.15-.7-1.5-6.233-2.067-13.017-1.7-20.35.167-2.867.45-5.817.85-8.85.933-4.166 2.233-6.9 3.9-8.2 1.167-.9 2.583-1.55 4.25-1.95m31.05 48.8c-.2-1.233-.367-2.5-.5-3.8-.334-1.567-.5-3.033-.5-4.4 0-.356.008-.706.025-1.05.184-4.447 1.559-8.247 4.125-11.4 1.333-1.633 2.883-2.916 4.65-3.85-.134 1.367-.2 2.817-.2 4.35 0 3.267.267 5.767.8 7.5.567 1.933 2.2 5.717 4.9 11.35h.05c.033.067.083.15.15.25.166.4.35.85.55 1.35.233.5.467 1.05.7 1.65 1.933 4.9 3.067 7.833 3.4 8.8.8 2.467.783 5.033-.05 7.7-.467 1.4-1.15 3.067-2.05 5-.167.533.233 3.75 1.2 9.65.2 1.367.367 2.717.5 4.05-9.2-8-15.117-20.383-17.75-37.15m-10.7-.7c-1.367 9.267-1.05 18.517.95 27.75-5.9-3.4-10.967-7.283-15.2-11.65.533-5.933.7-9.283.5-10.05-.967-1.867-1.867-3.517-2.7-4.95-.567-1.1-1.033-2.216-1.4-3.35-.6-1.767-.883-3.533-.85-5.3 0-2.066.3-6.017.9-11.85.067-.167.117-.333.15-.5.033-.133.067-.267.1-.4l-.05-.1c.333-2.3.95-4.583 1.85-6.85 1.5-3.667 3.283-5.667 5.35-6 0-.167.083-.25.25-.25-.667-.233-1.234-.733-1.7-1.5-.767-1.167-1.15-2.733-1.15-4.7 0-2.9.866-5.633 2.6-8.2 3.867 1.133 7.067 3.6 9.6 7.4 3.233 4.9 4.85 11.083 4.85 18.55 0 4.238-.475 8.105-1.425 11.6-.358 1.321-.783 2.588-1.275 3.8-.067.2-.133.4-.2.6-.467 2-.85 3.983-1.15 5.95m41.025-8.25c.38 1.802.655 3.701.825 5.7v3.1c-.233 13.667-2.583 25.383-7.05 35.15-.3-2.367-.567-3.733-.8-4.1-1.567-3.033-2.517-5.017-2.85-5.95-.7-2.3-.6-4.5.3-6.6 1.167-2.7 1.517-5.033 1.05-7-.1-.433-.783-1.867-2.05-4.3-.933-1.9-1.033-4.167-.3-6.8.167-.533.35-1.05.55-1.55 0-.067.017-.117.05-.15h-.05c.067-.533.483-1.517 1.25-2.95.867-1.633 1.3-4.05 1.3-7.25 0-1.933-.4-3.35-1.2-4.25-.5-.666-1.083-1-1.75-1-.6 0-1.233.35-1.9 1.05-.733.7-.983 1.45-.75 2.25l-.25.25c-.3-.567-.6-1.167-.9-1.8-.634-1.2-.95-2.533-.95-4 0-2.367.667-4.7 2-7 4.533.6 8.2 3.783 11 9.55 1.074 2.311 1.899 4.861 2.475 7.65m15.475-34.9c3.833 3.767 6.617 7.717 8.35 11.85 1.367 3.267 2.05 7.283 2.05 12.05 0 .4-.083 1.634-.25 3.7-.867 6.633-1.683 11.1-2.45 13.4-.033.133-.083.284-.15.45-.533 1.233-1.783 3.334-3.75 6.3-.033.034.017.817.15 2.35.067 2.067 0 4.3-.2 6.7-.333 3.1-.883 6.283-1.65 9.55-1.433 1.6-2.933 3.2-4.5 4.8.233-9.733-.6-19.116-2.5-28.15-.333-1.6-.717-3.2-1.15-4.8.033-.166.033-.317 0-.45.033.133.033.284 0 .45-.033-.133-.067-.267-.1-.4l.1-.05c-.254-.977-.47-1.927-.65-2.85-.462-1.504-.878-2.937-1.25-4.3-1.2-4.533-1.8-7.883-1.8-10.05 0-6.2 1.783-11.617 5.35-16.25 1.4-1.8 2.867-3.233 4.4-4.3m10.65 55.35c.3-3.367.333-6.816.1-10.35-.1-1.6.083-2.95.55-4.05.033-.067.067-.117.1-.15.233-.633.7-1.483 1.4-2.55.6-1.033 1.4-2.283 2.4-3.75 1.6-2.367 2.2-6 1.8-10.9-.233-2.367-.367-3.767-.4-4.2v-.25c-.933-.967-1.717-2.15-2.35-3.55-.9-1.933-1.35-4-1.35-6.2 0-1.567.317-2.717.95-3.45.667-.767 1-1.2 1-1.3 0-2.333-.833-4.483-2.5-6.45 2.033.6 3.717 1.633 5.05 3.1 1.467 1.7 2.533 4.1 3.2 7.2.437 2.287.745 4.562.925 6.825.5 6.013.109 11.938-1.175 17.775-.5 2.067-1.083 4.117-1.75 6.15-1.867 5.467-4.517 10.833-7.95 16.1" fill="#181615" transform="translate(177.75 289.3999)"/><path d="m0 0-13.75 13.275-.6.575c-4.267-1.333-8.933-2.25-14-2.75l2.25-2.25c7.167-5.233 14.417-8.15 21.75-8.75 1.6-.134 3.05-.167 4.35-.1m-43.5 10.75h-.05l.025-.025.025.025-.025-.025c1.155-1.655 2.447-3.197 3.875-4.625 1.061-1.079 2.177-2.087 3.35-3.025 7.921-6.28 18.429-9.238 31.525-8.875 3.162.093 6.47.376 9.925.85l-1.55 1.45h-.6c-5.6-.434-10.033-.6-13.3-.5-.5-.034-2.933 1.033-7.3 3.2-4.367 2.1-7.567 3.15-9.6 3.15.167.7-.033 1.366-.6 2-.1.2-.783.933-2.05 2.2-.767.766-2.817 2.15-6.15 4.15-2.451-.099-4.951-.083-7.5.05" fill="#110f0d" transform="translate(160.6499 170.9502)"/></g><path d="m0 0c2.267-4.2 3.966-8.583 5.1-13.15m1.2-6.6c.467-3.6.6-7.333.4-11.2m-1.05-8.95-.75-2.85m-1.5-5.6c-1.233-3.633-2.85-6.933-4.85-9.9-1.867-2.767-4.05-5.2-6.55-7.3m14.3 45.8c-.267 2.233-.667 4.434-1.2 6.6m-47.55 44c3.333-.467 6.65-1.083 9.95-1.85m11.95-6c1.733-1.267 3.4-2.566 5-3.9 3.078-2.742 5.845-5.576 8.3-8.5.71-.842 1.393-1.692 2.05-2.55m-3.6-95.65-13.75 13.275m0 0-.6.575m15.15 8.2c-2.9-2.467-6.217-4.533-9.95-6.2 8.667.052 16.809 1.794 24.425 5.225m-24.425-5.225c-.367-.167-.717-.316-1.05-.45-.773-.317-1.573-.625-2.4-.925-.572-.213-1.155-.422-1.75-.625-4.267-1.333-8.933-2.25-14-2.75m0 0c-2.433-.267-4.983-.4-7.65-.4m36-10.7 3.6-3.5m-74.05 6.9h11.75m15.15 7.35c-1.5.067-3.017.15-4.55.25-.967.067-1.95.167-2.95.3-1.533.1-3.05.25-4.55.45m-13.75.45c-.068-.038-.135-.079-.2-.125m.2.125c-.1-.033-.183-.05-.25-.05m.05-.075h-.025m.05-.025c.059.048.118.098.175.15 3.8.434 7.267.434 10.4 0 .767-.1 1.5-.2 2.2-.3.4-.067.783-.116 1.15-.15-5.3-2.733-10.25-5.517-14.85-8.35-5.808-.132-5.508 2.743.9 8.625zm-.05.025c-6.64-3.755-11.94-7.18-15.9-10.275-1.84-1.441-3.39-2.808-4.65-4.1-1.732-1.786-2.924-3.436-3.575-4.95m-13.3 9.775c11.882 4.919 24.349 8.127 37.4 9.625m-43.35-49.6c3.5-1.8 6.85-3.416 10.05-4.85m58.65-91.35c-6.7 4.667-11.267 10.567-13.7 17.7l15.15-4.85c-3.934 5-6.767 10.35-8.5 16.05m7.05-28.9 1.45-.95m-60.1 92.3c1.243-.555 2.459-1.08 3.65-1.575 25.36-10.582 40.094-8.441 44.2 6.425m3.8-119.6c-.367 2-.5 4.1-.4 6.3 0 2.867.683 5.25 2.05 7.15.543.784 1.201 1.493 1.975 2.125.939.754 2.047 1.396 3.325 1.925m10.35-24.15c2.198 3.323 3.898 6.44 5.1 9.35m0 0c.361.887.678 1.753.95 2.6m0 0c.528 1.615.878 3.165 1.05 4.65.017.202.034.402.05.6m141.4 165.6c-.254-.977-.47-1.927-.65-2.85m.65 3.3c-.033-.133-.067-.266-.1-.4m.1-.05c.033.133.033.284 0 .45.433 1.6.817 3.2 1.15 4.8m2.95-85c-.9.367-1.817.75-2.75 1.15m-41.1 84.7c-.2-1.233-.367-2.5-.5-3.8-.334-1.567-.5-3.033-.5-4.4 0-.356.008-.706.025-1.05m-70.275-19.45 1.55-1.45c-3.455-.473-6.763-.757-9.925-.85-13.096-.362-23.605 2.596-31.525 8.875-1.173.939-2.29 1.947-3.35 3.025-1.428 1.428-2.72 2.97-3.875 4.625l-.025.025h.05c2.549-.132 5.049-.149 7.5-.05m79.8-34.3c-1.667.4-3.083 1.05-4.25 1.95-1.667 1.3-2.967 4.034-3.9 8.2-.4 3.033-.683 5.984-.85 8.85-.367 7.333.2 14.117 1.7 20.35.033.233.083.467.15.7m-11.8-83.9c-.6-.4-1.217-.817-1.85-1.25-13.788-9.602-27.938-17.76-42.45-24.475-.053-.028-.102-.053-.15-.075m63.4 69.65c1.333-.366 2.85-.55 4.55-.55.956 0 1.89.067 2.8.2m62.8 40.2c-.462-1.504-.879-2.937-1.25-4.3-1.2-4.533-1.8-7.883-1.8-10.05 0-6.2 1.783-11.616 5.35-16.25 1.4-1.8 2.866-3.233 4.4-4.3 2.333-1.667 4.85-2.5 7.55-2.5 1.767 0 3.367.233 4.8.7 2.033.6 3.717 1.633 5.05 3.1 1.466 1.7 2.533 4.1 3.2 7.2.437 2.288.745 4.562.925 6.825.5 6.013.108 11.938-1.175 17.775m-67.125 1.5c.184-4.447 1.559-8.247 4.125-11.4 1.333-1.633 2.883-2.916 4.65-3.85 2.167-1.166 4.667-1.75 7.5-1.75.5 0 1.017.033 1.55.1 4.533.6 8.2 3.783 11 9.55 1.074 2.311 1.899 4.861 2.475 7.65.38 1.802.655 3.702.825 5.7v3.1m-54.85-49c.889.119 1.756.302 2.6.55 3.866 1.133 7.067 3.6 9.6 7.4 3.233 4.9 4.85 11.083 4.85 18.55 0 4.238-.475 8.105-1.425 11.6-.358 1.321-.783 2.588-1.275 3.8-.067.2-.134.4-.2.6-.467 2-.85 3.984-1.15 5.95m-10.55-88.05c.833.067 1.633.05 2.4-.05m-40.725 84.675c6.982 3.144 13.524 7.702 19.625 13.675 3.2 3.1 6.25 6.6 9.15 10.5 1.267 1.7 2.533 3.483 3.8 5.35-11.334-2.533-22.467-3.5-33.4-2.9.5 3.067.85 6.05 1.05 8.95 14.733 2.8 26.783 7.583 36.15 14.35 1.533 1.134 2.983 2.3 4.35 3.5-1.134 1.134-2.283 2.183-3.45 3.15-10.4 8.033-24.983 11.35-43.75 9.95-1.534 2.767-3.267 5.45-5.2 8.05 10.7 4.867 21.9 7.217 33.6 7.05-4.467 5.133-9.25 9.334-14.35 12.6-1.867 1.167-3.783 2.217-5.75 3.15-4.4 2.067-9 3.533-13.8 4.4-2.434.4-4.917.65-7.45.75-6.4.233-13.167-.55-20.3-2.35-3-.767-6.067-1.7-9.2-2.8-35.667 4.533-71.167-11.967-106.5-49.5-24.318-29.247-27.018-55.489-8.1-78.725 7.954-9.753 19.72-18.978 35.3-27.675-17.8-34.433 1.833-73.817 58.9-118.15.767-.433 1.7-.917 2.8-1.45.7-4.233 2.3-8.066 4.8-11.5 1.833-2.933 4.333-3.183 7.5-.75 1.633 1.233 3.3 3.1 5 5.6 13.827-3.929 27.776-4.496 41.85-1.7m66.1 110.05c-2.1.4-4.217.683-6.35.85-13.9 1.067-28.167-3.25-42.8-12.95-.533.111-1.05.228-1.55.35-1.751.401-3.309.826-4.675 1.275-14.823 4.878-7.431 12.678 22.175 23.4 1.82.655 3.72 1.322 5.7 2 .706.239 1.423.481 2.15.725 1.058-.738 2.141-1.438 3.25-2.1 3.83-2.366 7.897-4.29 12.2-5.775 7.148-2.45 14.948-3.675 23.4-3.675 16.4 0 30.4 4.634 42 13.9 9.366 7.536 14.949 16.311 16.75 26.325.433 2.388.65 4.846.65 7.375 0 7.767-1.967 13.8-5.9 18.1-.5 2.067-1.083 4.117-1.75 6.15-1.867 5.467-4.517 10.833-7.95 16.1-2.434 3.733-5.284 7.4-8.55 11-1.433 1.6-2.933 3.2-4.5 4.8.233-9.733-.6-19.116-2.5-28.15-3.167.3-6.417.534-9.75.7-.234 13.667-2.583 25.383-7.05 35.15-.8 1.733-1.667 3.383-2.6 4.95-1.3-.9-2.55-1.833-3.75-2.8-9.2-8-15.117-20.383-17.75-37.15-3.667-.166-7.234-.4-10.7-.7-1.367 9.267-1.05 18.517.95 27.75-5.9-3.4-10.967-7.283-15.2-11.65-1.5-1.6-2.917-3.267-4.25-5-2.867-3.933-5.183-8.167-6.95-12.7-.267-.766-.533-1.55-.8-2.35-.5-1.333-.917-2.7-1.25-4.1-.157-.119-.315-.235-.475-.35-1.66-1.351-3.068-2.91-4.225-4.675v-.025c-2.567-3.951-3.85-8.967-3.85-15.05 0-13.133 5.8-24.367 17.4-33.7 1.024-.822 2.074-1.606 3.15-2.35m4.95-23.85c-5.1-.4-12.167-3.85-21.2-10.35-13.467-9.7-28.384-18.083-44.75-25.15 13.81-4.704 25.802-3.621 35.975 3.25 2.121 1.432 4.162 3.115 6.125 5.05 2.037 1.995 3.987 4.261 5.85 6.8 6.3 8.6 13.1 15.383 20.4 20.35 5.667 3.867 11.667 6.617 18 8.25l.55.15c.1 0 .216.017.35.05 12.366 3 26.05 1.55 41.05-4.35m-55.3-42.1c-.433.634-.917 1.217-1.45 1.75-2.334 2.333-5.55 3.734-9.65 4.2-5.467.667-10.934-.566-16.4-3.7-5.4-3.167-9.2-7.283-11.4-12.35-2.2-5.1-2.134-9.683.2-13.75 1.4-2.467 3.416-4.3 6.05-5.5 1.533.767 3.016 1.65 4.45 2.65m-4.45-2.65c-2.967-1.467-6.117-2.516-9.45-3.15m14.15 5.95c4.5 3.133 8.533 7.4 12.1 12.8.533.767 1.066 1.517 1.6 2.25 2.433 3.2 5.283 5.933 8.55 8.2 1.8 1.233 3.7 2.333 5.7 3.3 1.033.5 2.1.95 3.2 1.35l.45-1.05 2.9-7.4m-59.3-56.7c14.699 2.916 29.532 9.499 44.5 19.75 1.2.833 2.4 1.667 3.6 2.5.533.4 1.067.8 1.6 1.2 14.967 10.933 27.75 23.6 38.35 38 1.833 2.5 3.767 4.933 5.8 7.3m0 0c4.833 5.667 10.25 10.95 16.25 15.85-4.667 3.9-5.683 7.5-3.05 10.8 4.467.767 5.666 3.183 3.6 7.25-.434 1.1-.383 1.8.15 2.1.566.333 1.767.2 3.6-.4.167-.066.333-.133.5-.2.4-.133.8-.283 1.2-.45m-6-19.1c1.1-.967 2.5-1.133 4.2-.5.3.1.617.233.95.4m.85 19.2c9.9-3.867 11.116-9.166 3.65-15.9-1.667-1.533-3.167-2.633-4.5-3.3" fill="none" stroke="#110f0d" stroke-linecap="square" stroke-miterlimit="5" stroke-width="2" transform="translate(169.4502 258.5498)"/><path d="m0 0c-3.233-7.667-7.466-12.8-12.7-15.4m3.15 8.7.85-1.15m1.3 9.95 2.9-3.95h-8.5l3.3-4.65m96 48.05c-.233 1.433-.9 2.683-2 3.75-1.366 1.4-3.033 2.1-5 2.1-1.933 0-3.6-.7-5-2.1s-2.1-3.067-2.1-5c0-1.967.7-3.65 2.1-5.05 1-1 2.15-1.633 3.45-1.9m-19.45 28.85 3 4.55h3.05l3.35 3.35m-27.5-19.35 2.65 1.5m4.6-.6 2.1 8.15 4.85-2.1m9.4-39.55c.067.067.15.117.25.15" fill="none" stroke="#110f0d" stroke-linecap="square" stroke-miterlimit="5" stroke-width="1.5" transform="translate(129.2998 24.5)"/><path d="m0 0c.334.167.667.35 1 .55m-23.2-41.35c.333-.233.717-.467 1.15-.7m.6-17.65.15-.2" fill="none" stroke="#110f0d" stroke-linecap="square" stroke-miterlimit="5" stroke-width=".1" transform="translate(140.0498 77.1499)"/><path d="m0 0 .025.025" fill="none" stroke="#110f0d" stroke-linecap="square" stroke-miterlimit="5" transform="translate(117.125 181.6748)"/><g clip-path="url(#e)" opacity=".498032"><path d="m0 0c.667.667 1 1.5 1 2.5 0 .7-.184 1.333-.55 1.9.167.1.333.233.5.4.5.5.75 1.1.75 1.8s-.25 1.283-.75 1.75c-.5.5-1.083.75-1.75.75s-1.25-.25-1.75-.75c-.5-.467-.75-1.05-.75-1.75 0-.267.033-.483.1-.65-.667-.134-1.267-.467-1.8-1-.667-.667-1-1.484-1-2.45 0-1 .333-1.833 1-2.5.7-.7 1.533-1.05 2.5-1.05.966 0 1.8.35 2.5 1.05" fill="#fff" fill-rule="evenodd" transform="translate(207.9502 58.9502)"/></g></g></g></svg>