<svg height="2048" viewBox="0 0 2048 2048" width="2048" xmlns="http://www.w3.org/2000/svg"><path d="m0 1024v-1024h1024 1024v1024 1024h-1024-1024z" fill="#fcfdfd"/><path d="m0 1024v-1024h1024 1024v1024 1024h-1024-1024zm210.63935 893.75c11.50909-18.0364 30.01908-39.7381 47.36065-55.5269 52.62346-47.9118 119.05613-78.6443 197.21497-91.234 34.91127-5.6235 15.30543-5.2598 326.78503-6.0625 158.125-.4075 289.3-.9929 291.5-1.301 2.2-.308 10.75-1.0546 19-1.6591 114.4129-8.3833 232.4561-44.099 334.372-101.169 49.9964-27.9966 98.7383-62.4574 142.628-100.8388 16.3596-14.3064 58.7618-56.6136 72.6215-72.4587 47.1413-53.8944 83.3169-106.8058 115.2035-168.5 113.4794-219.5592 120.6665-483.01596 19.3458-709.15875-85.6782-191.2297-242.4307-343.47991-436.1708-423.64304-202.8997-83.95306-434.12515-82.86307-636 2.99809-201.98697 85.90885-361.41145 248.81287-442.37067 452.02571-33.54712 84.20542-51.9788 169.20225-57.09218 263.27799-1.11311 20.47882-1.51014 1014.1331-.40686 1018.25.33163 1.2375.77844 2.25.9929 2.25s2.47173-3.2625 5.01616-7.25zm770.36065-443.8218c-73.88262-3.9348-145.50641-25.9701-216.13582-66.4951-42.54556-24.4113-78.93671-52.405-114.9008-88.3868-54.66046-54.6874-97.72908-120.3709-126.25248-192.5463-32.67692-82.6854-43.77821-170.9376-32.70823-260.02146 8.89546-71.58482 37.30177-148.34463 79.92665-215.97854 39.65632-62.92364 100.04135-123.88836 166.57068-168.16976 88.91439-59.18072 174.58154-88.24765 271.8245-92.23029 85.4042-3.49778 164.8252 13.95098 244.1755 53.64526 117.5268 58.79173 209.241 150.78131 266.9652 267.76705 34.5582 70.03659 52.372 141.75922 52.8638 212.842.1351 19.52448-.9112 28.00771-5.0039 40.57003-5.4278 16.66055-14.6298 31.33804-28.3241 45.17751-16.9208 17.1004-33.3798 26.0472-56.001 30.4411-6.487 1.26-58.9144 1.4568-388.1682 1.4569-209.36753.0001-381.38003.2733-382.25001.6072-.86999.3338-1.58179 1.2282-1.58179 1.9875 0 2.8438 19.54993 34.3326 33.46737 53.9055 25.10596 35.308 57.43774 68.7903 87.53263 90.6473 37.71221 27.3894 88.40234 49.8379 135 59.7858 19.80076 4.2272 29.36719 5.2273 55.2453 5.7757 28.8308.6109 44.2477-.4231 63.7547-4.2759 15.7821-3.117 76.0977-23.1466 84-27.8946 21.049-12.647 36.0882-17.056 58-17.0036 12.6054.03 15.7785.3876 24.2848 2.7355 21.6822 5.9849 37.2633 14.9729 52.4125 30.2343 14.6661 14.7748 25.4387 32.5823 30.7057 50.7576 5.3003 18.2902 5.4369 36.39.4393 58.2379-3.7742 16.5001-14.1577 34.5796-22.223 38.6942-2.139 1.0913-6.6409 4.1265-10.0042 6.745-8.3956 6.5364-25.1975 17.6383-36.6151 24.1935-59.1817 33.9785-136.1406 52.7613-233 56.8667-25.7229 1.0903-32.3553 1.0815-54-.071zm368.7954-658.43775c.5056-5.15021-16.1459-30.50457-38.4534-58.5512-13.7457-17.282-49.7112-53.25333-67.1099-67.12086-51.7769-41.26823-100.8736-64.67908-155.868-74.32274-35.9543-6.30485-84.5719-6.09134-121.01329.53146-65.45084 11.89494-125.57322 44.40933-180.23715 97.47289-28.68887 27.84896-48.68116 53.02521-69.70107 87.77443-3.25193 5.37594-6.55032 10.81787-7.32976 12.09318s-1.1308 3.06501-.78079 3.97711c.59112 1.54044 23.37741 1.64048 320.41716 1.40683l319.7808-.25155z" fill="#50c2c1"/></svg>