<svg height="1396.0782" viewBox="0 0 1396.0783 1396.0783" width="1396.0782" xmlns="http://www.w3.org/2000/svg"><path d="m711.78722 1350.6611c-80.63407-2.6964-155.64976-17.6191-225.33333-44.825-35.38816-13.8162-83.21863-39.2289-113.33333-60.2148l-12.66667-8.827-180.22693-.6666-180.22696915-.6667 38.03630015-77.3333c43.1756-87.7824 87.291899-178.29201 95.456799-195.84061l5.5091-11.84046-3.0735-8.15949c-19.7688-52.48135-30.4329-90.63533-38.056799-136.15948-6.7661-40.40173-8.0339-57.77317-7.9796-109.33333.055-51.85513 1.9028-74.68474 9.3287-115.23349 52.047399-284.20366 285.060299-501.434941 571.447849-532.744481 176.37306-19.28212 349.65786 32.39247 488.16926 145.575081 22.2628 18.19176 67.0091 62.61795 85.0108 84.4029 88.9292 107.61812 138.7511 229.34943 150.614 367.99999 3.1155 36.41355 1.5987 95.62081-3.4669 135.33333-13.9097 109.04413-56.9931 215.99283-122.4639 304.00004-29.0542 39.0554-74.3889 86.8872-109.694 115.7362-105.8861 86.5233-232.476 137.5724-365.71755 147.4807-26.32515 1.9576-50.47404 2.3485-81.33333 1.3165zm89.33333-151.2182c230.70725-24.3668 419.35375-189.3983 463.31335-405.31524 11.3468-55.73216 12.809-101.58004 5.2497-164.60308-1.0953-9.13169-2.1671-16.77873-2.3817-16.99342-.2148-.21471-118.8334 51.22441-263.5969 114.30913l-263.20649 114.6995-7.35565-3.20372c-4.0456-1.76204-121.56251-53.42289-261.14869-114.80189-139.58617-61.37901-253.9682-111.40507-254.18228-111.16902-.64637.71268-4.5711 37.7977-6.18361 58.42917-6.236 79.78777 15.19003 177.27836 55.5299 252.66666l7.13459 13.33333-5.84692 14.92187c-8.39742 21.431-26.02973 62.37951-46.70812 108.47291-9.87277 22.007-17.9505 40.4965-17.9505 41.0877s10.95-1.2082 24.33333-3.9988c13.38333-2.7907 52.87664-10.8663 87.7629-17.9459l63.42959-12.8721 16.32184 13.381c87.13288 71.4334 193.3368 113.073 310.15233 121.6022 21.46996 1.5676 71.4884.5181 95.33333-2.0003zm15.9843-538.84022c231.68265-101.03253 397.01585-173.52189 403.97365-177.11997l4.0383-2.08827-5.506-10.96672c-20.5268-40.88473-54.8189-87.75682-90.4438-123.62266-144.2273-145.20317-364.08596-196.04342-562.33129-130.0338-127.25268 42.37124-231.68339 128.32363-295.59554 243.29185-6.29912 11.33116-11.45294 21.23404-11.45294 22.00639 0 1.98832 65.42993 31.18819 263.99999 117.81715 53.9 23.51463 124.1 54.15491 156 68.08952s58.89293 25.36921 59.9843 25.41024c1.09138.0411 35.89138-14.71165 77.33333-32.78373z" fill="#ffa002" stroke-width="1.333333"/></svg>