<svg height="487.74286" viewBox="0 0 129.04864 129.04862" width="487.74286" xmlns="http://www.w3.org/2000/svg"><g fill="#07b"><path d="m0 0v-24.836l19.402 12.418z" transform="matrix(.93231393 0 0 -.93231393 21.406123 58.093374)"/><path d="m0 0v9.364c0 8.569 6.88 15.539 15.449 15.539 8.568 0 15.447-6.97 15.447-15.539v-9.364zm54.166 0h-9.676v10.364c0 16.064-12.978 29.132-29.042 29.132-16.063 0-29.042-13.068-29.042-29.132v-10.364h-8.926c-4.358 0-7.905-3.547-7.905-7.905v-5.472l26.736-17.11 7.333-4.694 12.179-7.795 12.18 7.795 7.333 4.694 26.736 17.111v5.471c0 4.358-3.547 7.905-7.906 7.905" transform="matrix(.93231393 0 0 -.93231393 49.771579 36.871396)"/><path d="m0 0v24.836l-19.403-12.418z" transform="matrix(.93231393 0 0 -.93231393 107.642482 81.248218)"/><path d="m0 0c-.963-.617-2.225-.925-3.486-.925-1.262 0-2.524.308-3.487.925l-16.026 10.257-26.735-17.111v-4.681c0-4.359 3.546-7.905 7.905-7.905h7.115l.004-27.491c0-1.499 1.76-2.306 2.896-1.329l33.506 28.82h33.164c4.36 0 7.907 3.546 7.907 7.905v4.681l-26.737 17.111z" transform="matrix(.93231393 0 0 -.93231393 67.774168 83.60822)"/></g></svg>