<svg height="192" viewBox="0 0 192 192" width="192" xmlns="http://www.w3.org/2000/svg" xmlns:xlink="http://www.w3.org/1999/xlink"><filter id="a" color-interpolation-filters="sRGB"><feFlood flood-opacity=".498039" result="flood"/><feComposite in="flood" in2="SourceGraphic" operator="in" result="composite1"/><feGaussianBlur in="composite1" result="blur" stdDeviation="4"/><feOffset dx="0" dy="4" result="offset"/><feComposite in="SourceGraphic" in2="offset" operator="over" result="composite2"/></filter><filter id="b" color-interpolation-filters="sRGB"><feFlood flood-opacity=".498039" result="flood"/><feComposite in="flood" in2="SourceGraphic" operator="in" result="composite1"/><feGaussianBlur in="composite1" result="blur" stdDeviation="4"/><feOffset dx="0" dy="4" result="offset"/><feComposite in="SourceGraphic" in2="offset" operator="over" result="composite2"/></filter><path d="m0-2h192v192h-192z" fill="none" stroke-width="8"/><path d="m160 67.52v-37.52h-37.52l-26.48-26.48-26.48 26.48h-37.52v37.52l-26.48 26.48 26.48 26.48v37.52h37.52l26.48 26.48 26.48-26.48h37.52v-37.52l26.48-26.48z" fill="#ffc107" filter="url(#a)" stroke-width="8"/><ellipse cx="96.040611" cy="93.956001" fill="#ffd740" rx="16.102007" ry="16.103439" stroke="#ffd740" stroke-linecap="round" stroke-linejoin="round" stroke-width="60.96912"/><g transform="translate(0 168)"><path d="m96-120.53035v-17.44985l-23.294871 23.26646 23.294871 23.266468v-17.449848c19.2765 0 34.94231 15.646698 34.94231 34.899704 0 5.874792-1.45593 11.458728-4.0766 16.28652l8.50263 8.492256c4.5425-7.154432 7.2214-15.646688 7.2214-24.778776 0-25.709454-20.8489-46.532934-46.58974-46.532934zm0 81.43263c-19.276507 0-34.942311-15.646696-34.942311-34.899696 0-5.874784 1.455934-11.458744 4.076602-16.286532l-8.502618-8.492262c-4.542509 7.15444-7.221415 15.646698-7.221415 24.778794 0 25.709448 20.848909 46.532928 46.589742 46.532928v17.449856l23.29487-23.266472-23.29487-23.266464z" fill="#448aff" filter="url(#b)" stroke-width="5.820166"/><path d="m0-170h192v192h-192z" fill="none" stroke-width="8"/></g></svg>