<svg enable-background="new 0 0 24 24" viewBox="0 0 24 24" xmlns="http://www.w3.org/2000/svg" xmlns:xlink="http://www.w3.org/1999/xlink"><linearGradient id="a" gradientUnits="userSpaceOnUse" x1="12" x2="12" y1="0" y2="24"><stop offset="0" stop-color="#124175"/><stop offset=".4747" stop-color="#0e3969"/><stop offset="1" stop-color="#082d57"/></linearGradient><path d="m21.9 24h-19.8c-1.1 0-2.1-1-2.1-2.1v-19.8c0-1.1 1-2.1 2.1-2.1h19.8c1.1 0 2.1 1 2.1 2.1v19.8c0 1.1-1 2.1-2.1 2.1z" fill="url(#a)"/><path d="m9.7 13.1h6.9c0-.9 0-1.6 0-2.4-2.4 0-4.7 0-6.9 0 0-1.1 0-2.1 0-3h7.5c0-.9 0-1.6 0-2.4-3.5 0-6.8 0-10.3 0v14h10.5c0-.9 0-1.6 0-2.4-2.6 0-5.1 0-7.7 0 0-1.3 0-2.5 0-3.8z" fill="#b1e0fd"/></svg>