<svg height="2531.7795" viewBox="0 0 137.13967 137.16473" width="2531.7795" xmlns="http://www.w3.org/2000/svg"><path d="m-.01237.000007h137.16473v137.16473h-137.16473z" fill="#3bcc64"/><path d="m98.825586 57.982734c-5.457-.191-6.996 4.39-7.459 8.12a26.999 26.999 0 0 1 5.231-.316c3.437004.12 6.587994.846 9.133994 1.979-.021-3.865-.865-9.574-6.905994-9.783z" fill="none"/><g fill="#4d4d4d" stroke-width=".820228"><path d="m31.666759 35.412322h10.434121a1.0810606 1.0810606 0 0 0 1.0786-1.077779c0-.0041-.126315-8.942127-.126315-11.424957v-.03035c0-2.039907.427339-3.818982 1.175387-5.311797l.355159-.668486a.21900089.21900089 0 0 0 -.118933.0648l-20.259633 20.089845a.22720317.22720317 0 0 0 -.07546.118934c.419136-.207518.992476-.492137 1.072858-.527407 1.76267-.797262 3.902645-1.232803 6.464216-1.232803z"/><path d="m112.79715 33.224774c-.82843-4.432512-3.46546-6.6176-5.84905-7.477199-2.56977-.929318-7.784778-1.892266-14.333476-2.66328-5.270785-.621733-11.465968-.570879-15.207848-.456867-.448665-3.075855-2.605864-5.885956-5.020616-6.858747-6.428947-2.586999-16.369291-1.961985-18.918559-1.247567-2.028424.567598-4.272568 1.728221-5.520135 3.517138-.837453 1.196713-1.380444 2.727258-1.384545 4.867233 0 1.210657.03363 4.062589.0648 6.597914.02953 2.541067.0648 4.815559.0648 4.831964a4.1134436 4.1134436 0 0 1 -4.109343 4.107702h-10.428383c-2.223638 0-3.923971.373204-5.222392.962948-1.300061.590564-2.221177 1.386185-2.920832 2.327807-1.391927 1.868479-1.633894 4.175781-1.628153 6.531476 0 0 .01969 1.923434.483115 5.64809.386327 2.880641 3.511396 23.010677 6.479801 29.132859 1.15078 2.380302 1.918514 3.375239 4.178242 4.425131 5.037841 2.1572 16.544 4.55719 21.938639 5.24454 5.382337.68899 8.761676 2.13587 10.774516-2.08584.0066-.0131.404372-1.04825.949004-2.578799 1.748726-5.295392 1.992334-9.996119 1.992334-13.395964 0-.346957.507721-.361721.507721 0 0 2.401627-.460148 10.89919 5.959777 13.176963 2.535325.89733 7.790526 1.699513 13.134311 2.32617 4.828683.55693 8.332694 2.45494 8.332694 14.847754 0 7.5379-1.58304 8.57057-9.859958 8.57057-6.710286 0-9.268577.17306-9.268577-5.15432 0-4.31029 4.261905-3.85753 7.419783-3.85753 1.411612 0 .386327-1.04825.386327-3.70824 0-2.646884 1.656861-4.174964.09023-4.212694-10.919696-.30184-17.346182-.0131-17.346182 13.646124 0 12.39775 4.744199 14.70013 20.245688 14.70013 12.151677 0 16.432447-.39699 21.451417-15.96656.9933-3.07339 3.39656-12.451874 4.84754-28.201893.91784-9.955928-.8678-40.012364-2.28269-47.597013zm-21.184844 33.219236c-1.501018-.05168-2.944619.04265-4.290613.259192.379765-3.059451 1.642096-6.817736 6.118081-6.660252 4.954994.171428 5.647266 4.85411 5.664491 8.024291-2.0883-.930139-4.674476-1.523984-7.491959-1.623231z"/></g></svg>