<svg xmlns="http://www.w3.org/2000/svg" xmlns:xlink="http://www.w3.org/1999/xlink" version="1" height="244" width="244" enable-background="new"><defs><linearGradient id="I"><stop offset="0" stop-color="#fff"/><stop offset="1" stop-color="#fff" stop-opacity="0"/></linearGradient><linearGradient id="H"><stop offset="0" stop-color="#a3a3a3"/><stop offset="1"/></linearGradient><linearGradient id="G"><stop offset="0" stop-color="#fff" stop-opacity=".277"/><stop offset="1" stop-color="#fff" stop-opacity="0"/></linearGradient><linearGradient id="F"><stop offset="0" stop-color="#fff"/><stop offset="1" stop-color="#fff" stop-opacity="0"/></linearGradient><linearGradient xlink:href="#a" id="b" gradientUnits="userSpaceOnUse" x1="170.343" y1="238" x2="88.373" y2="1.312"/><linearGradient id="a"><stop offset="0" stop-color="#f6f6f5"/><stop offset=".194" stop-color="#e7e7e7"/><stop offset="1" stop-color="#eeeeec"/></linearGradient><linearGradient id="B"><stop offset="0" stop-color="#9aa29a"/><stop offset="1" stop-color="#b5beb5"/></linearGradient><linearGradient id="A"><stop offset="0"/><stop offset="1" stop-opacity="0"/></linearGradient><linearGradient id="C"><stop offset="0" stop-color="#9497b3"/><stop offset="1" stop-color="#4c4059"/></linearGradient><linearGradient id="D"><stop offset="0" stop-color="#fffffd"/><stop offset="1" stop-color="#cbcbc9"/></linearGradient><linearGradient id="E"><stop offset="0" stop-color="#838383"/><stop offset="1"/></linearGradient><clipPath id="ae"><path d="M94.752 81.345l44.56 54.46c5.164-5.912 8.787-9.074 15.985-10.561 10.75-2.22 28.449-2.452 38.907 1.008 5.751 1.902 9.915 6.398 12.664 9.813l44.155-55.427-38.184-52.326-77.782-3.536z" fill="#e00000"/></clipPath><linearGradient id="l"><stop offset="0"/><stop offset="1" stop-opacity="0"/></linearGradient><filter id="ag"><feGaussianBlur stdDeviation="2.43"/></filter><linearGradient id="m"><stop offset="0" stop-color="#fff"/><stop offset="1" stop-color="#d3d7cf"/></linearGradient><linearGradient id="n"><stop offset="0" stop-color="#fff"/><stop offset="1" stop-color="#fff" stop-opacity="0"/></linearGradient><clipPath id="aj"><path d="M36 19c-.563 0-1 .437-1 1v217c0 .563.437 1 1 1h184c.563 0 1-.437 1-1V66c0-13.558-10.858-25.296-16.281-30.719C199.296 29.858 187.558 19 174 19z" fill="url(#b) #000"/></clipPath><filter id="ak"><feGaussianBlur stdDeviation="2.025"/></filter><linearGradient id="o"><stop offset="0" stop-color="#fff"/><stop offset="1" stop-color="#fff" stop-opacity="0"/></linearGradient><linearGradient id="p"><stop offset="0" stop-color="#fff"/><stop offset="1" stop-color="#fff" stop-opacity="0"/></linearGradient><linearGradient id="q"><stop offset="0" stop-color="#fff"/><stop offset="1" stop-color="#fff" stop-opacity="0"/></linearGradient><linearGradient id="r"><stop offset="0"/><stop offset="1" stop-opacity="0"/></linearGradient><filter id="aq" x="-.106" width="1.212" y="-.115" height="1.23"><feGaussianBlur stdDeviation="3.022"/></filter><mask maskUnits="userSpaceOnUse" id="ar"><path d="M36-31c-.563 0-1 .437-1 1v217c0 .563.437 1 1 1h184c.563 0 1-.437 1-1V16c0-13.558-12.858-23.296-18.281-28.719C197.296-18.142 187.558-31 174-31z" fill="#fff"/></mask><filter id="as" x="-.241" width="1.483" y="-.241" height="1.483"><feGaussianBlur stdDeviation="4.727"/></filter><linearGradient id="s"><stop offset="0"/><stop offset="1" stop-opacity="0"/></linearGradient><filter id="au"><feGaussianBlur stdDeviation=".272"/></filter><linearGradient id="t"><stop offset="0"/><stop offset="1" stop-opacity="0"/></linearGradient><filter id="aw" x="-.131" width="1.262" y="-.131" height="1.262"><feGaussianBlur stdDeviation="2.566"/></filter><linearGradient id="u"><stop offset="0" stop-color="#fff"/><stop offset="1" stop-color="#fff" stop-opacity="0"/></linearGradient><linearGradient id="v"><stop offset="0" stop-color="#fff"/><stop offset=".448" stop-color="#e6e6e6"/><stop offset=".813" stop-color="#cbcbcb"/><stop offset="1" stop-color="#dbdbdb"/></linearGradient><linearGradient id="w"><stop offset="0" stop-color="#fff"/><stop offset="1" stop-color="#fff" stop-opacity="0"/></linearGradient><filter id="aA"><feGaussianBlur stdDeviation=".307"/></filter><linearGradient id="x"><stop offset="0" stop-color="#fff"/><stop offset="1" stop-color="#fff" stop-opacity="0"/></linearGradient><filter id="aC" x="-.032" width="1.063" y="-.102" height="1.203"><feGaussianBlur stdDeviation=".359"/></filter><linearGradient id="y"><stop offset="0" stop-color="#fff"/><stop offset="1" stop-color="#fff" stop-opacity="0"/></linearGradient><linearGradient id="z"><stop offset="0"/><stop offset="1" stop-opacity="0"/></linearGradient><clipPath id="aE"><path d="M-322-132c-30.111 0-36.134 7.444-42.156 14.875L-422-40V93.844A4.155 4.155 0 0 0-417.844 98h191.688A4.155 4.155 0 0 0-222 93.844V-40l-57.844-77.125C-285.866-124.555-291.889-132-322-132z" enable-background="new"/></clipPath><filter id="aG"><feGaussianBlur stdDeviation="2.568"/></filter><clipPath id="aH"><path d="M-422 38c-30.111 0-36.134 7.444-42.156 14.875L-522 130v133.844a4.155 4.155 0 0 0 4.156 4.156h191.688a4.155 4.155 0 0 0 4.156-4.156V130l-57.844-77.125C-385.866 45.445-391.889 38-422 38z" enable-background="new"/></clipPath><filter height="1.399" y="-.2" width="1.172" x="-.086" id="aI"><feGaussianBlur stdDeviation="6.989"/></filter><filter height="3.786" y="-1.393" width="1.174" x="-.087" id="J"><feGaussianBlur stdDeviation="7.413"/></filter><filter height="2.107" y="-.554" width="1.069" x="-.035" id="K"><feGaussianBlur stdDeviation="2.946"/></filter><linearGradient id="c"><stop offset="0" stop-color="#dbded7"/><stop offset=".318" stop-color="#eeeeec"/><stop offset=".497" stop-color="#f3f3f2"/><stop offset=".767" stop-color="#d3d7cf"/><stop offset="1" stop-color="#babdb6"/></linearGradient><linearGradient id="d"><stop offset="0" stop-color="#fff"/><stop offset="1" stop-color="#babdb6"/></linearGradient><linearGradient id="e"><stop offset="0" stop-color="#fff"/><stop offset=".028" stop-color="#eeeeec" stop-opacity="0"/><stop offset=".978" stop-color="#d3d7cf" stop-opacity="0"/><stop offset="1" stop-color="#d3d7cf"/></linearGradient><linearGradient id="f"><stop offset="0" stop-color="#fff"/><stop offset="1" stop-color="#fff" stop-opacity="0"/></linearGradient><clipPath id="O"><path d="M-442 129.75v134.094a4.155 4.155 0 0 0 4.156 4.156h191.688a4.155 4.155 0 0 0 4.156-4.156V129.75l-57.844 71.375C-305.866 208.555-311.889 216-342 216c-30.111 0-36.134-7.444-42.156-14.875z" enable-background="new"/></clipPath><filter id="Q"><feGaussianBlur stdDeviation="1.436"/></filter><linearGradient id="g"><stop offset="0"/><stop offset="1" stop-opacity="0"/></linearGradient><clipPath id="R"><path d="M-472-100.25V33.844A4.155 4.155 0 0 0-467.844 38h191.688A4.155 4.155 0 0 0-272 33.844V-100.25l-57.844 71.375C-335.866-21.445-341.889-14-372-14c-30.111 0-36.134-7.444-42.156-14.875z" enable-background="new"/></clipPath><filter id="T"><feGaussianBlur stdDeviation="2.796"/></filter><linearGradient id="h"><stop offset="0" stop-color="#eeeeec"/><stop offset=".5" stop-color="#f4f4f3"/><stop offset="1" stop-color="#fbfbfa"/></linearGradient><linearGradient id="i"><stop offset="0" stop-color="#c8cdc3"/><stop offset=".106" stop-color="#eeeeec"/><stop offset="1" stop-color="#fbfbfa"/></linearGradient><linearGradient id="j"><stop offset="0" stop-color="#fff"/><stop offset="1" stop-color="#fff" stop-opacity="0"/></linearGradient><clipPath id="W"><path d="M-422 184c-30.111 0-36.134 7.444-42.156 14.875l-55.625 68.625a4.16 4.16 0 0 0 1.937.5h191.688c.7 0 1.36-.196 1.937-.5l-55.625-68.625C-385.866 191.445-391.889 184-422 184z" enable-background="new"/></clipPath><filter id="Y"><feGaussianBlur stdDeviation="1.398"/></filter><linearGradient id="k"><stop offset="0" stop-color="#fff"/><stop offset="1" stop-color="#fff" stop-opacity="0"/></linearGradient><clipPath id="Z"><path d="M-382 38c-30.111 0-36.134 7.444-42.156 14.875L-482 130v133.844a4.155 4.155 0 0 0 4.156 4.156h191.688a4.155 4.155 0 0 0 4.156-4.156V130l-57.844-77.125C-345.866 45.445-351.889 38-382 38z" enable-background="new"/></clipPath><filter id="ab"><feGaussianBlur stdDeviation="1.075"/></filter><clipPath id="ac"><path d="M-412 38c-30.111 0-36.134 7.444-42.156 14.875L-512 130v133.844a4.155 4.155 0 0 0 4.156 4.156h191.688a4.155 4.155 0 0 0 4.156-4.156V130l-57.844-77.125C-375.866 45.445-381.889 38-412 38z" enable-background="new"/></clipPath><filter id="ad"><feGaussianBlur stdDeviation=".537"/></filter><filter height="1.236" y="-.118" width="1.065" x="-.033" id="aN"><feGaussianBlur stdDeviation=".374"/></filter><filter height="1.331" y="-.165" width="1.091" x="-.046" id="aK"><feGaussianBlur stdDeviation=".523"/></filter><clipPath id="aU"><path d="M273.219 117.094c-32.509 0-58.875 26.398-58.875 58.906 0 32.508 26.366 58.875 58.875 58.875 32.508 0 58.906-26.367 58.906-58.875 0-32.508-26.398-58.906-58.906-58.906zm-.25 15.031c24.068 0 43.594 19.557 43.594 43.625s-19.526 43.594-43.594 43.594c-24.069 0-43.594-19.526-43.594-43.594s19.525-43.625 43.594-43.625z" fill="none" stroke="#000"/></clipPath><filter id="aV"><feGaussianBlur stdDeviation="1.178"/></filter><filter id="aZ"><feGaussianBlur stdDeviation=".96"/></filter><filter id="aX"><feGaussianBlur stdDeviation=".96"/></filter><filter id="bf"><feGaussianBlur stdDeviation="1.92"/></filter><filter height="1.092" y="-.046" width="1.235" x="-.117" id="bb"><feGaussianBlur stdDeviation=".185"/></filter><clipPath id="bj"><path d="M223.5 178.51a46.875 46.875 0 1 1-93.75 0 46.875 46.875 0 1 1 93.75 0z" opacity=".8" fill="none" stroke="#000" stroke-width="2.136"/></clipPath><filter id="bk"><feGaussianBlur stdDeviation="1.649"/></filter><linearGradient xlink:href="#c" id="L" gradientUnits="userSpaceOnUse" gradientTransform="translate(260)" x1="-112" y1="53" x2="-112" y2="201"/><linearGradient xlink:href="#d" id="M" gradientUnits="userSpaceOnUse" gradientTransform="translate(260)" x1="-182" y1="189" x2="-169" y2="321"/><linearGradient xlink:href="#e" id="N" gradientUnits="userSpaceOnUse" gradientTransform="translate(260)" x1="-212" y1="198.875" x2="-12" y2="198.875"/><linearGradient xlink:href="#f" id="P" gradientUnits="userSpaceOnUse" x1="-372.5" y1="164.823" x2="-372.5" y2="129.75"/><linearGradient xlink:href="#g" id="S" gradientUnits="userSpaceOnUse" x1="-324" y1="-17.507" x2="-324" y2="49.516"/><linearGradient xlink:href="#h" id="U" gradientUnits="userSpaceOnUse" gradientTransform="translate(260)" x1="-111" y1="262" x2="-111" y2="183.994"/><linearGradient xlink:href="#i" id="V" gradientUnits="userSpaceOnUse" gradientTransform="translate(260)" x1="-111" y1="268.149" x2="-111" y2="195.987"/><linearGradient xlink:href="#j" id="X" gradientUnits="userSpaceOnUse" x1="-445.5" y1="237.429" x2="-445.5" y2="256.751"/><linearGradient xlink:href="#k" id="aa" gradientUnits="userSpaceOnUse" x1="-393" y1="153" x2="-336" y2="242"/><linearGradient xlink:href="#l" id="af" gradientUnits="userSpaceOnUse" x1="84" y1="200.5" x2="-104.07" y2="-127.991"/><radialGradient xlink:href="#m" id="ah" gradientUnits="userSpaceOnUse" gradientTransform="matrix(25.3062 0 0 12.4602 2199.23 -911.49)" cx="-80.661" cy="88.983" fx="-80.661" fy="88.983" r="18"/><radialGradient xlink:href="#n" id="ai" gradientUnits="userSpaceOnUse" gradientTransform="matrix(3.59674 -.2853 .1769 2.23031 -355.116 -121.578)" cx="128.592" cy="116.47" fx="128.592" fy="116.47" r="92.902"/><radialGradient xlink:href="#o" id="al" gradientUnits="userSpaceOnUse" gradientTransform="matrix(0 2.74107 -1.87992 0 120.779 -78.803)" cx="36" cy="45.297" fx="36" fy="45.297" r="84.203"/><radialGradient xlink:href="#p" id="am" gradientUnits="userSpaceOnUse" gradientTransform="matrix(1.66303 0 0 .34037 -84.702 148.57)" cx="127.75" cy="261.273" fx="127.75" fy="261.273" r="92.25"/><radialGradient xlink:href="#q" id="an" gradientUnits="userSpaceOnUse" gradientTransform="matrix(0 1.0485 -3.87807 0 165.487 13.855)" cx="20.48" cy="31.231" fx="20.48" fy="31.231" r="93"/><radialGradient xlink:href="#p" id="ao" gradientUnits="userSpaceOnUse" gradientTransform="matrix(1.57088 0 0 1.11586 -53.057 .955)" cx="127.75" cy="236.25" fx="127.75" fy="236.25" r="92.25"/><radialGradient xlink:href="#r" id="ap" gradientUnits="userSpaceOnUse" gradientTransform="matrix(1.04422 0 0 .96082 -12.745 6.35)" cx="210.957" cy="38.58" fx="210.957" fy="38.58" r="34.234"/><radialGradient xlink:href="#s" id="at" gradientUnits="userSpaceOnUse" gradientTransform="matrix(1 0 0 .98931 0 .473)" cx="196.358" cy="44.213" fx="196.358" fy="44.213" r="23.763"/><linearGradient xlink:href="#t" id="av" gradientUnits="userSpaceOnUse" gradientTransform="translate(-1.5 2.521)" x1="190.979" y1="52.973" x2="196.448" y2="39.564"/><radialGradient xlink:href="#u" id="ax" gradientUnits="userSpaceOnUse" gradientTransform="translate(-85.751 -21.529) scale(1.44729)" cx="190.875" cy="49.25" fx="190.875" fy="49.25" r="23.5"/><radialGradient xlink:href="#v" id="ay" gradientUnits="userSpaceOnUse" gradientTransform="matrix(.5972 -.4509 1.70446 2.25746 -.54 29.158)" cx="192.25" cy="45.75" fx="192.25" fy="45.75" r="23.5"/><radialGradient xlink:href="#w" id="az" gradientUnits="userSpaceOnUse" gradientTransform="matrix(2.11516 0 0 2.92788 -207.435 -53.617)" cx="186.765" cy="27.786" fx="186.765" fy="27.786" r="8.971"/><radialGradient xlink:href="#x" id="aB" gradientUnits="userSpaceOnUse" gradientTransform="matrix(.99733 .073 -.11677 1.59551 5.2 -29.524)" cx="208.684" cy="39.762" fx="208.684" fy="39.762" r="13.625"/><linearGradient xlink:href="#y" id="aD" gradientUnits="userSpaceOnUse" x1="189.254" y1="23.662" x2="189.254" y2="43.888"/><linearGradient xlink:href="#z" id="aF" gradientUnits="userSpaceOnUse" x1="-393.5" y1="53.755" x2="-393.5" y2="-74.509"/><radialGradient xlink:href="#A" id="aJ" gradientUnits="userSpaceOnUse" gradientTransform="scale(1.90221 .5257)" cx="6.703" cy="73.616" fx="6.703" fy="73.616" r="7.228"/><linearGradient xlink:href="#B" id="aL" gradientUnits="userSpaceOnUse" gradientTransform="matrix(1.53747 0 0 .47726 4.996 7.023)" x1="8.916" y1="37.197" x2="9.886" y2="52.091"/><radialGradient xlink:href="#A" id="aM" gradientUnits="userSpaceOnUse" gradientTransform="scale(1.90221 .5257)" cx="6.703" cy="73.616" fx="6.703" fy="73.616" r="7.228"/><radialGradient xlink:href="#C" id="aO" gradientUnits="userSpaceOnUse" cx="8.747" cy="6.828" fx="8.747" fy="6.828" r="29.89"/><radialGradient xlink:href="#D" id="aP" gradientUnits="userSpaceOnUse" cx="11.902" cy="10.045" fx="11.902" fy="10.045" r="29.293"/><linearGradient xlink:href="#E" id="aQ" gradientUnits="userSpaceOnUse" x1="13.037" y1="8.312" x2="19.359" y2="17.323"/><linearGradient xlink:href="#E" id="aR" gradientUnits="userSpaceOnUse" x1="13.037" y1="-1.588" x2="19.359" y2="7.423"/><linearGradient xlink:href="#E" id="aS" gradientUnits="userSpaceOnUse" x1="17.987" y1="3.362" x2="24.309" y2="12.373"/><linearGradient xlink:href="#E" id="aT" gradientUnits="userSpaceOnUse" x1="8.088" y1="3.362" x2="14.409" y2="12.373"/><radialGradient xlink:href="#F" id="aW" gradientUnits="userSpaceOnUse" gradientTransform="translate(-41.112 -32.315) scale(1.23227)" cx="177" cy="139.125" fx="177" fy="139.125" r="49"/><radialGradient xlink:href="#F" id="aY" gradientUnits="userSpaceOnUse" gradientTransform="translate(-41.112 -32.315) scale(1.23227)" cx="177" cy="208" fx="177" fy="208" r="49"/><radialGradient xlink:href="#F" id="ba" gradientUnits="userSpaceOnUse" gradientTransform="translate(-41.112 -32.315) scale(1.23227)" cx="177" cy="139.125" fx="177" fy="139.125" r="49"/><radialGradient xlink:href="#F" id="bc" gradientUnits="userSpaceOnUse" gradientTransform="translate(-41.112 -32.315) scale(1.23227)" cx="179.115" cy="207.613" fx="179.115" fy="207.613" r="49"/><radialGradient xlink:href="#G" id="bd" gradientUnits="userSpaceOnUse" gradientTransform="translate(-41.112 -32.315) scale(1.23227)" cx="177" cy="209.872" fx="177" fy="209.872" r="49"/><radialGradient xlink:href="#F" id="be" gradientUnits="userSpaceOnUse" gradientTransform="translate(-41.112 -32.315) scale(1.23227)" cx="177" cy="139.125" fx="177" fy="139.125" r="49"/><radialGradient xlink:href="#H" id="bg" gradientUnits="userSpaceOnUse" gradientTransform="matrix(.0464 -.17225 .56978 .15349 -96.264 47.398)" cx="282.433" cy="169.768" fx="282.433" fy="169.768" r="12.836"/><radialGradient xlink:href="#I" id="bh" gradientUnits="userSpaceOnUse" gradientTransform="matrix(.76856 .40135 -.66725 1.27775 166.017 -120.273)" cx="167.75" cy="190.625" fx="167.75" fy="190.625" r="6.125"/><radialGradient xlink:href="#I" id="bi" gradientUnits="userSpaceOnUse" gradientTransform="matrix(.80066 -.33274 .90418 2.17571 -105.577 -161.306)" cx="151.727" cy="169.733" fx="151.727" fy="169.733" r="6.125"/></defs><g transform="matrix(.7852 0 0 .7852 -15.37 -13.66)" enable-background="new"><rect transform="matrix(1.01046 0 0 .50893 -3.569 130.374)" ry="5.6" rx="5.6" y="260.4" x="48.4" height="11.2" width="203.2" opacity=".3" stroke="#000" stroke-width="1.116" stroke-linecap="square" filter="url(#J)" enable-background="new"/><rect transform="matrix(.99692 0 0 .50893 -1.539 130.374)" ry="5.6" rx="5.6" y="260.4" x="48.4" height="11.2" width="203.2" opacity=".5" stroke="#000" stroke-width="1.123" stroke-linecap="square" filter="url(#K)"/><path d="M148 38c-30.111 0-36.134 7.444-42.156 14.875L48 130v133.844A4.155 4.155 0 0 0 52.156 268h191.688a4.155 4.155 0 0 0 4.156-4.156V130l-57.844-77.125C184.134 45.445 178.111 38 148 38z" fill="url(#L)"/><path d="M48 129.75v134.094A4.155 4.155 0 0 0 52.156 268h191.688a4.155 4.155 0 0 0 4.156-4.156V129.75l-57.844 71.375C184.134 208.555 178.111 216 148 216c-30.111 0-36.134-7.444-42.156-14.875z" fill="url(#M)" enable-background="new"/><path d="M48 129.75v134.094A4.155 4.155 0 0 0 52.156 268h191.688a4.155 4.155 0 0 0 4.156-4.156V129.75l-57.844 71.375C184.134 208.555 178.111 216 148 216c-30.111 0-36.134-7.444-42.156-14.875z" fill="url(#N)" enable-background="new"/><path transform="translate(490)" clip-path="url(#O)" d="M-442 129.75h200l-57.844 71.375C-305.866 208.555-311.889 216-342 216c-30.111 0-36.134-7.444-42.156-14.875z" fill="none" stroke="url(#P)" stroke-width="4" stroke-linecap="round" stroke-linejoin="round" filter="url(#Q)" enable-background="new"/><path transform="translate(520 230)" clip-path="url(#R)" d="M-371-46c-30.111 0-36.134 7.444-42.156 14.875L-469.781 37.5a4.16 4.16 0 0 0 1.937.5h191.688c.7 0 1.36-.196 1.937-.5l-54.625-68.625C-334.866-38.555-340.889-46-371-46z" opacity=".4" fill="url(#S)" filter="url(#T)" enable-background="new"/><path d="M148 184c-30.111 0-36.134 7.444-42.156 14.875L50.219 267.5a4.16 4.16 0 0 0 1.937.5h191.688c.7 0 1.36-.196 1.937-.5l-55.625-68.625C184.134 191.445 178.111 184 148 184z" fill="url(#U)" enable-background="new"/><path d="M148 184c-30.111 0-36.134 7.444-42.156 14.875L50.219 267.5a4.16 4.16 0 0 0 1.937.5h191.688c.7 0 1.36-.196 1.937-.5l-55.625-68.625C184.134 191.445 178.111 184 148 184z" fill="url(#V)" enable-background="new"/><path transform="translate(570)" clip-path="url(#W)" d="M-422 184c-30.111 0-36.134 7.444-42.156 14.875l-55.625 68.625a4.16 4.16 0 0 0 1.937.5h191.688c.7 0 1.36-.196 1.937-.5l-55.625-68.625C-385.866 191.445-391.889 184-422 184z" fill="none" stroke="url(#X)" stroke-width="4" stroke-linecap="round" stroke-linejoin="round" filter="url(#Y)" enable-background="new"/><path transform="matrix(1 0 0 .9978 530 .586)" clip-path="url(#Z)" d="M-382 38c-30.111 0-36.134 7.444-42.156 14.875L-482 130v133.844a4.155 4.155 0 0 0 4.156 4.156h191.688a4.155 4.155 0 0 0 4.156-4.156V130l-57.844-77.125C-345.866 45.445-351.889 38-382 38z" fill="none" stroke="url(#aa)" stroke-width="2" stroke-linecap="round" stroke-linejoin="round" filter="url(#ab)" enable-background="new"/><path transform="translate(560)" clip-path="url(#ac)" d="M-412 38c-30.111 0-36.134 7.444-42.156 14.875L-512 130v133.844a4.155 4.155 0 0 0 4.156 4.156h191.688a4.155 4.155 0 0 0 4.156-4.156V130l-57.844-77.125C-375.866 45.445-381.889 38-412 38z" fill="none" stroke="#777a74" stroke-width="1.274" stroke-linecap="round" stroke-linejoin="round" filter="url(#ad)" enable-background="new"/></g><g clip-path="url(#ae)" transform="translate(-80.162 7.203)"><path transform="matrix(.72926 -.13394 .13715 .7467 56.877 40.538)" d="M55.872 47.328c-.562 0-1 .437-1 1l-1.01 217c0 .562.437 1 1 1h186.021c.563 0 1-.438 1-1l-1.01-171c0-13.558-10.859-25.296-16.282-30.72-5.423-5.422-17.16-16.28-30.719-16.28z" opacity=".7" fill="url(#af)" filter="url(#ag)"/><g transform="matrix(.72926 -.13394 .13854 .75426 56.811 40.18)"><g transform="translate(19.872 27.828)"><path d="M36 19c-.563 0-1 .437-1 1v217c0 .563.437 1 1 1h184c.563 0 1-.437 1-1V66c0-13.558-10.858-25.296-16.281-30.719C199.296 29.858 187.558 19 174 19z" fill="url(#ah)"/><path d="M36.591 19.704a.98.98 0 0 0-.993.993v215.606a.98.98 0 0 0 .993.993H219.41a.98.98 0 0 0 .993-.993V66.402c0-13.47-10.788-25.133-16.176-30.522-5.389-5.388-17.051-16.176-30.522-16.176z" fill="none" stroke="url(#ai)" stroke-width=".994" stroke-linecap="round"/><path clip-path="url(#aj)" d="M36 19c-.563 0-1 .437-1 1v217c0 .563.437 1 1 1h184c.563 0 1-.437 1-1V66c0-13.558-10.858-25.296-16.281-30.719C199.296 29.858 187.558 19 174 19z" opacity=".072" fill="none" stroke="#000" stroke-width=".994" stroke-linecap="round" filter="url(#ak)"/><path d="M36.625 19.875c-.563 0-1 .437-1 1v217c0 .563.437 1 1 1v-217c0-.563.437-1 1-1h138c11.863 0 22.341 8.32 28.406 14.031-5.846-5.677-16.8-15.031-29.406-15.031z" fill="url(#al)"/><rect width="184.5" height="51.25" x="35.5" y="186.25" rx="1.016" ry="1.016" opacity=".56" fill="url(#am)"/></g><path d="M55.875 46.813c-.563 0-1 .437-1 1V136h186V93.812c0-13.557-10.858-25.295-16.281-30.718-5.423-5.423-17.161-16.282-30.719-16.282z" fill="url(#an)"/><rect ry="1.016" rx="1.016" y="263.828" x="55.372" height="1.5" width="184.5" fill="url(#ao)"/></g><path d="M162 24c-2.73 0-5.406.181-8.031.563A42.254 42.254 0 0 0 149 44.5c0 23.46 19.04 42.5 42.5 42.5 9.777 0 18.785-3.32 25.969-8.875C216.733 48.128 192.173 24 162 24z" transform="rotate(-10.41 373.72 -615.069) scale(.56387 .66949)" opacity=".169" fill="url(#ap)" filter="url(#aq)"/><path d="M174-31c13.558 0 22.308 11.846 27.73 17.27C207.155-8.309 221 2.441 221 16c0-13.558-20.111-8.603-26.191-8.603-.636 0-1.227-.518-1.15-1.15C196.166-14.458 187.557-31 174-31z" mask="url(#ar)" transform="matrix(.72926 -.13394 .13854 .75426 82.086 96.22)" opacity=".38" filter="url(#as)"/><path d="M172.595 20.722c24.826-.87 48.542 30.546 47.5 47 0-13.557-7.491-16.365-29.985-16.365-.635 0-1.15-.513-1.15-1.15 0-22.494-2.808-29.485-16.365-29.485z" opacity=".428" fill="url(#at)" filter="url(#au)" transform="matrix(.72926 -.13394 .13854 .75426 75.159 58.507)"/><path d="M171.448 22.448c13.558 0 25.308 10.846 30.731 16.27 5.423 5.423 16.27 17.173 16.27 30.73 0-13.557-6.992-16.365-29.485-16.365-.636 0-1.15-.513-1.15-1.15 0-22.494-2.808-29.485-16.366-29.485z" opacity=".277" fill="url(#av)" filter="url(#aw)" transform="matrix(.72926 -.13394 .13854 .75426 75.159 58.507)"/><path d="M173.125 19.75c13.558 0 25.308 10.846 30.73 16.27 5.424 5.422 16.27 17.172 16.27 30.73 0-13.558-6.991-16.365-29.484-16.365-.636 0-1.15-.513-1.15-1.15 0-22.494-2.808-29.485-16.366-29.485z" fill="url(#ax)" transform="matrix(.72926 -.13394 .13854 .75426 75.159 58.507)"/><path d="M174 19c13.558 0 25.308 10.846 30.73 16.27C210.155 40.691 221 52.441 221 66c0-13.558-6.991-16.365-29.484-16.365-.636 0-1.15-.513-1.15-1.15C190.365 25.99 187.557 19 174 19z" fill="url(#ay)" transform="matrix(.72926 -.13394 .13854 .75426 75.159 58.507)"/><path d="M174.125 19.03c15.48 1.035 16.02 13.644 16.263 26.517-.744-7.73 1.374-15.978-4.242-22.627 4.508 1.502 9.811 5.782 14.937 9.192-5.496-4.866-14.015-13-26.958-13.081z" fill="url(#az)" filter="url(#aA)" transform="matrix(.72926 -.13394 .13854 .75426 75.159 58.507)"/><path d="M219.375 57.625c-3.971-8.9-17.43-7.296-27.25-8 9.928-.239 24.598-2.984 27.25 8z" fill="url(#aB)" filter="url(#aC)" transform="matrix(.72926 -.13394 .13854 .75426 75.159 58.507)"/><path d="M174 19c13.558 0 25.308 10.846 30.73 16.27C210.155 40.691 221 52.441 221 66c0-13.558-6.991-16.365-29.484-16.365-.636 0-1.15-.513-1.15-1.15C190.365 25.99 187.557 19 174 19z" fill="url(#aD)" transform="matrix(.72926 -.13394 .13854 .75426 75.159 58.507)"/><path opacity=".135" fill="#888a85" d="M122.638 105.674l109.04-20.322 20.704 111.087-109.04 20.322zM118.638 80.675l44.383-8.272 3.362 18.037L122 98.71z"/><path transform="matrix(.7852 0 0 .7 425.832 108.944)" clip-path="url(#aE)" d="M-422-40.25V93.844A4.155 4.155 0 0 0-417.844 98h191.688A4.155 4.155 0 0 0-222 93.844V-40.25l-55.344 71.375C-283.366 38.555-289.389 46-319.5 46c-30.111 0-36.134-7.444-42.156-14.875z" opacity=".5" fill="url(#aF)" filter="url(#aG)" enable-background="new"/><path transform="matrix(.7852 0 0 .7852 504.351 -20.868)" clip-path="url(#aH)" d="M-422 184c-30.111 0-36.134 7.444-42.156 14.875l-55.625 68.625a4.16 4.16 0 0 0 1.937.5h191.688c.7 0 1.36-.196 1.937-.5l-55.625-68.625C-385.866 191.445-391.889 184-422 184z" opacity=".4" filter="url(#aI)" enable-background="new"/></g><path d="M26.5 38.7a13.75 3.8 0 0 1-13.75 3.8A13.75 3.8 0 0 1-1 38.7a13.75 3.8 0 0 1 13.75-3.8 13.75 3.8 0 0 1 13.75 3.8z" transform="matrix(2.8816 0 0 3.77037 125.442 68.203)" opacity=".933" fill="url(#aJ)" filter="url(#aK)"/><path d="M29.838 17.358l-7.068 8.216.62.612z" fill="url(#aL)" transform="matrix(5.60582 0 0 5.60582 -18.677 7.758)"/><path d="M148.26 104.817l-35.335 48.997 5.048 4.457z" fill="#fefefe"/><path transform="matrix(5.04523 0 0 5.60582 99.606 -3.454)" d="M26.5 38.7a13.75 3.8 0 0 1-13.75 3.8A13.75 3.8 0 0 1-1 38.7a13.75 3.8 0 0 1 13.75-3.8 13.75 3.8 0 0 1 13.75 3.8z" opacity=".313" fill="url(#aM)" filter="url(#aN)"/><path d="M31.16 16.91a14.91 14.91 0 0 1-14.91 14.911 14.91 14.91 0 0 1-14.91-14.91A14.91 14.91 0 0 1 16.25 2a14.91 14.91 0 0 1 14.91 14.91z" transform="matrix(3.94964 0 0 3.94964 98.879 96.627)" fill="url(#aO)"/><path d="M31.16 16.91a14.91 14.91 0 0 1-14.91 14.911 14.91 14.91 0 0 1-14.91-14.91A14.91 14.91 0 0 1 16.25 2a14.91 14.91 0 0 1 14.91 14.91z" transform="translate(115.281 113.707) scale(2.9242)" fill="url(#aP)"/><path d="M17.324 7.693a.619.619 0 0 1-.619.619.619.619 0 0 1-.618-.619.619.619 0 0 1 .618-.619.619.619 0 0 1 .62.62z" transform="matrix(6.66628 0 0 6.66628 51.143 78.581)" fill="url(#aQ)"/><path d="M17.324 7.693a.619.619 0 0 1-.619.619.619.619 0 0 1-.618-.619.619.619 0 0 1 .618-.619.619.619 0 0 1 .62.62z" transform="matrix(6.66628 0 0 6.66628 51.143 144.574)" fill="url(#aR)"/><path d="M17.324 7.693a.619.619 0 0 1-.619.619.619.619 0 0 1-.618-.619.619.619 0 0 1 .618-.619.619.619 0 0 1 .62.62z" transform="matrix(6.66628 0 0 6.66628 18.146 111.578)" fill="url(#aS)"/><path d="M17.324 7.693a.619.619 0 0 1-.619.619.619.619 0 0 1-.618-.619.619.619 0 0 1 .618-.619.619.619 0 0 1 .62.62z" transform="matrix(6.66628 0 0 6.66628 84.139 111.578)" fill="url(#aT)"/><path d="M273.219 117.094c-32.509 0-58.875 26.398-58.875 58.906 0 32.508 26.366 58.875 58.875 58.875 32.508 0 58.906-26.367 58.906-58.875 0-32.508-26.398-58.906-58.906-58.906zm-.25 15.031c24.068 0 43.594 19.557 43.594 43.625s-19.526 43.594-43.594 43.594c-24.069 0-43.594-19.526-43.594-43.594s19.525-43.625 43.594-43.625z" transform="matrix(1 0 0 1 -109.662 -12.58)" clip-path="url(#aU)" fill="none" stroke="#000" filter="url(#aV)"/><path d="M225 175a48 48 0 0 1-48 48 48 48 0 0 1-48-48 48 48 0 0 1 48-48 48 48 0 0 1 48 48z" transform="matrix(1.14286 0 0 1.14286 -39.448 -36.58)" fill="none" stroke="url(#aW)" stroke-width="2" filter="url(#aX)"/><path transform="matrix(.9796 0 0 .9796 -10.55 -8.008)" d="M225 175a48 48 0 0 1-48 48 48 48 0 0 1-48-48 48 48 0 0 1 48-48 48 48 0 0 1 48 48z" opacity=".375" fill="none" stroke="url(#aY)" stroke-width="2" filter="url(#aZ)"/><path transform="matrix(.98977 0 0 .98977 -12.351 -9.789)" d="M225 175a48 48 0 0 1-48 48 48 48 0 0 1-48-48 48 48 0 0 1 48-48 48 48 0 0 1 48 48z" opacity=".545" fill="none" stroke="url(#ba)" stroke-width="2.085"/><g transform="matrix(5.60582 0 0 5.60582 -18.677 9.008)" opacity=".456" filter="url(#bb)" stroke="#000" stroke-linecap="round"><path d="M33.393 27.653a1.088 1.088 0 0 1-1.088 1.088 1.088 1.088 0 0 1-1.088-1.088 1.088 1.088 0 0 1 1.088-1.088 1.088 1.088 0 0 1 1.088 1.088z" fill="#f3f3f3" stroke-width=".62576868" stroke-linejoin="round"/><path d="M31.823 26.548l-2.071-4.63" fill="none" stroke-width=".626"/><path d="M29.604 31.54l1.922-2.771" fill="none" stroke-width=".939"/></g><path d="M225 175a48 48 0 0 1-48 48 48 48 0 0 1-48-48 48 48 0 0 1 48-48 48 48 0 0 1 48 48z" transform="matrix(.95918 0 0 .95918 -6.938 -4.436)" opacity=".545" fill="none" stroke="url(#bc)" stroke-width="2.085"/><path transform="matrix(1.14286 0 0 1.14286 -39.448 -36.58)" d="M225 175a48 48 0 0 1-48 48 48 48 0 0 1-48-48 48 48 0 0 1 48-48 48 48 0 0 1 48 48z" opacity=".746" fill="none" stroke="url(#bd)" stroke-width="2" filter="url(#aX)"/><path transform="matrix(1.0869 0 0 1.0869 -29.543 -26.786)" d="M225 175a48 48 0 0 1-48 48 48 48 0 0 1-48-48 48 48 0 0 1 48-48 48 48 0 0 1 48 48z" fill="none" stroke="url(#be)" stroke-width="2" filter="url(#bf)"/><path style="-inkscape-font-specification:'Bitstream Vera Sans'" d="M11.849 21.592a.313.313 0 0 0-.218.44l1.996 4.51a1.389 1.389 0 0 0-.558 1.11c0 .298.097.575.257.802a.47.47 0 0 0-.04.044L11.38 31.28a.472.472 0 1 0 .78.53l1.907-2.776a.47.47 0 0 0 .028-.04c.118.033.245.056.374.056.77 0 1.393-.629 1.393-1.399a1.393 1.393 0 0 0-1.661-1.366l-2.007-4.504a.313.313 0 0 0-.156-.156.313.313 0 0 0-.19-.033zm2.62 5.279a.78.78 0 1 1 0 1.56.785.785 0 0 1-.786-.78c0-.431.354-.78.786-.78z" font-family="Bitstream Vera Sans" fill="url(#bg)" transform="matrix(5.60582 0 0 5.60582 81.323 7.758)"/><path d="M172.875 182.875l-10.25 15.5" transform="matrix(1 0 0 1 -14.162 -12.58)" opacity=".8" fill="none" stroke="url(#bh)"/><path transform="matrix(1 0 0 1 -14.162 -12.58)" d="M174.125 167.875l-10.875-24.75" opacity=".8" fill="none" stroke="url(#bi)"/><path d="M223.5 176.375a46.875 46.875 0 0 1-46.875 46.875 46.875 46.875 0 0 1-46.875-46.875 46.875 46.875 0 0 1 46.875-46.875 46.875 46.875 0 0 1 46.875 46.875z" transform="matrix(.95778 0 0 -.95778 -5.913 333.77)" clip-path="url(#bj)" opacity=".451" fill="none" stroke="#000" stroke-width="2.136" filter="url(#bk)"/></svg>