<svg height="47.504879" viewBox="0 0 47.50488 47.50488" width="47.504879" xmlns="http://www.w3.org/2000/svg" xmlns:xlink="http://www.w3.org/1999/xlink"><radialGradient id="a" cx="-98.23381" cy="3.469587" gradientTransform="matrix(0 1.9747624 -2.117225 .00000004 8.677247 1199.2987)" gradientUnits="userSpaceOnUse" r="22.671185"><stop offset="0" stop-color="#fff" stop-opacity=".098039"/><stop offset="1" stop-color="#fff" stop-opacity="0"/></radialGradient><filter id="b" color-interpolation-filters="sRGB" height="1.04831" width="1.047694" x="-.023847" y="-.024155"><feGaussianBlur stdDeviation=".45053152"/></filter><g transform="translate(-.24756 -1004.6886)"><path d="m2.6134624 1006.0595a1.250125 1.250125 0 0 0 -1.01172 2.0293l3.60351 4.6641c-.12699.3331-.20312.6915-.20312 1.0703v4 2.8652.1348c0 1.662 1.338 3 3 3h31.9999996c1.662 0 3-1.338 3-3v-4-2.8652-.1348c0-.3803-.0771-.74-.20508-1.0742l3.60156-4.6602a1.250125 1.250125 0 0 0 -1.04882-2.0273 1.250125 1.250125 0 0 0 -.92969.498l-3.43164 4.4414c-.31022-.1079-.63841-.1777-.98633-.1777h-31.9999996c-.34857 0-.67757.069-.98828.1777l-3.4336-4.4414a1.250125 1.250125 0 0 0 -.96679-.5zm5.38867 18.7637c-.20775 0-.40983.021-.60547.061-1.36951.2761-2.39453 1.4698-2.39453 2.9101v.029 19.7793.029.1914c0 1.662 1.338 3 3 3h31.9999996c1.662 0 3-1.338 3-3v-20-.029c0-1.4403-1.02502-2.634-2.39453-2.9101-.19565-.039-.39772-.061-.60547-.061h-31.9999996z" fill="#263238" fill-opacity=".4" fill-rule="evenodd" filter="url(#b)"/><g fill-rule="evenodd" transform="translate(0 -.289272)"><g transform="matrix(-1 0 0 1 47.999779 0)"><path d="m2.5889342 1006.8622 4.25 5.5" fill="#8ab000" stroke="#769616" stroke-linecap="round" stroke-width="2.5"/><path d="m2.6113281 1005.6094c-.4534623.012-.7616975.189-.9807462.4486 2.0269314 2.4089 2.368401 2.7916 5.1354735 6.2214 1.0195329 1.319 2.0816026.6373 1.0620696-.6817l-4.25-5.5c-.2289894-.3056-.5850813-.478-.9667969-.4883z" fill="#fff" fill-opacity=".298039"/><path d="m1.6220992 1006.0705c-.1238933.1479-.561176.8046-.02249 1.5562l4.25 5.5c1.0195329 1.319 1.1498748-.6123 1.1498748-.6123s-3.7344514-4.51-5.3773848-6.4439z" fill="#263238" fill-opacity=".2"/><path d="m2.3378905 1005.8443c-.438175 0-.959862.1416-.8242183.7986.103561.5016 4.6608262 6.0744 4.6608262 6.0744 1.0195329 1.319 2.4934721.6763 1.4739391-.6425l-4.234375-5.4727c-.2602394-.29-.6085188-.7436-1.076172-.7578z" fill="#8ab000"/></g><path d="m2.5889342 1006.8622 4.25 5.5" fill="#8ab000" stroke="#769616" stroke-linecap="round" stroke-width="2.5"/><path d="m2.6113281 1005.6094c-.4534623.012-.7616975.189-.9807462.4486 2.0269314 2.4089 2.368401 2.7916 5.1354735 6.2214 1.0195329 1.319 2.0816026.6373 1.0620696-.6817l-4.25-5.5c-.2289894-.3056-.5850813-.478-.9667969-.4883z" fill="#fff" fill-opacity=".298039"/><path d="m1.6220992 1006.0705c-.1238933.1479-.561176.8046-.02249 1.5562l4.25 5.5c1.0195329 1.319 1.1498748-.6123 1.1498748-.6123s-3.7344514-4.51-5.3773848-6.4439z" fill="#263238" fill-opacity=".2"/><path d="m2.3378905 1005.8443c-.438175 0-.959862.1416-.8242183.7986.103561.5016 4.6608262 6.0744 4.6608262 6.0744 1.0195329 1.319 2.4934721.6763 1.4739391-.6425l-4.234375-5.4727c-.2602394-.29-.6085188-.7436-1.076172-.7578z" fill="#8ab000"/></g><rect fill="#aeea00" height="13" rx="3" width="38" x="5" y="1010.072928"/><rect fill="#263238" fill-opacity=".2" height="10" rx="3" width="38" x="5" y="1013.072928"/><rect fill="#fff" fill-opacity=".298039" height="10" rx="3" width="38" x="5" y="1010.072928"/><rect fill="#aeea00" height="11" rx="3" ry="2.538462" width="38" x="5" y="1011.072928"/><rect fill="#1976d2" height="26" rx="3" width="38" x="5" y="1024.072928"/><rect fill="#263238" fill-opacity=".2" height="13" rx="3" width="38" x="5" y="1037.072928"/><rect fill="#fff" fill-opacity=".2" height="13" rx="3" width="38" x="5" y="1024.072928"/><rect fill="#1976d2" height="24" rx="3" ry="2.769231" width="38" x="5" y="1025.072928"/><g transform="translate(0 1013.072928)"><path d="m24 17.75c-2.880662 0-5.319789 1.984685-6.033203 4.650391h3.212891c.554316-.985347 1.59511-1.650391 2.820312-1.650391 1.812692 0 3.25 1.437308 3.25 3.25 0 1.812693-1.437308 3.25-3.25 3.25-1.307381 0-2.411251-.75269-2.929688-1.849609h-3.154296c.642247 2.765755 3.131894 4.849609 6.083984 4.849609 3.434013 0 6.25-2.815987 6.25-6.25 0-3.434012-2.815987-6.25-6.25-6.25z" fill="#0d47a1"/><circle cx="24" cy="24" fill="none" r="9.55" stroke="#0d47a1" stroke-linecap="round" stroke-width="1.9"/></g><ellipse cx="14.375" cy="1016.697945" fill="#263238" fill-opacity=".2" rx="3.375" ry="3.875"/><circle cx="14.375" cy="1017.197945" fill="#fff" r="3.375"/><ellipse cx="33.875" cy="1016.697945" fill="#263238" fill-opacity=".2" rx="3.375" ry="3.875"/><circle cx="33.875" cy="1017.197945" fill="#fff" r="3.375"/><path d="m2.6134624 1005.3094a1.250125 1.250125 0 0 0 -1.01172 2.0293l3.60351 4.6641c-.12699.3331-.20312.6915-.20312 1.0703v4 2.8652.1348c0 1.662 1.338 3 3 3h31.9999996c1.662 0 3-1.338 3-3v-4-2.8652-.1348c0-.3803-.0771-.74-.20508-1.0742l3.60156-4.6602a1.250125 1.250125 0 0 0 -1.04882-2.0273 1.250125 1.250125 0 0 0 -.92969.498l-3.43164 4.4414c-.31022-.1079-.63841-.1777-.98633-.1777h-31.9999996c-.34857 0-.67757.069-.98828.1777l-3.4336-4.4414a1.250125 1.250125 0 0 0 -.96679-.5zm5.38867 18.7637c-.20775 0-.40983.021-.60547.061-1.36951.2761-2.39453 1.4698-2.39453 2.9101v.029 19.7793.029.1914c0 1.662 1.338 3 3 3h31.9999996c1.662 0 3-1.338 3-3v-20-.029c0-1.4403-1.02502-2.634-2.39453-2.9101-.19565-.039-.39772-.061-.60547-.061h-31.9999996z" fill="url(#a)" fill-rule="evenodd"/></g></svg>