<svg height="256" preserveAspectRatio="xMidYMid" viewBox="0 0 256 256" width="256" xmlns="http://www.w3.org/2000/svg"><path d="m241.871 256.001c7.802 0 14.129-6.326 14.129-14.129v-227.743c0-7.804-6.327-14.129-14.129-14.129h-227.742c-7.805 0-14.129 6.325-14.129 14.129v227.743c0 7.803 6.324 14.129 14.129 14.129z" fill="#395185"/><path d="m176.635 256.001v-99.137h33.277l4.982-38.635h-38.259v-24.668c0-11.186 3.107-18.809 19.148-18.809l20.459-.009v-34.555c-3.54-.471-15.684-1.523-29.812-1.523-29.498 0-49.692 18.005-49.692 51.071v28.493h-33.362v38.635h33.362v99.137z" fill="#fff"/></svg>