<svg height="267" width="267" xmlns="http://www.w3.org/2000/svg" xmlns:xlink="http://www.w3.org/1999/xlink"><path d="m266.62575 133.50613c0-73.52485-59.60353-133.1303-133.12783-133.1303-73.49124 0-133.07153 59.5554-133.12367 133.03642v103.02105c.03955 16.68433 13.5712 30.19087 30.26602 30.19087h102.91165c73.49975-.02885 133.07383-59.61275 133.07383-133.11804" fill="#294172"/><path id="a" d="m77.126289 142.09756h47.844751v47.84478c0 26.41029-21.43445 47.84473-47.844751 47.84473-26.41031 0-47.844759-21.43444-47.844759-47.84473 0-26.41031 21.434449-47.84478 47.844759-47.84478z" fill="none" stroke="#3c6eb4" stroke-width="29.21"/><use transform="matrix(-1 0 0 -1 249.71151 284.2882)" xlink:href="#a"/><path id="b" d="m139.6074 127.52923v62.34618c0 34.50402-27.97537 62.48-62.48061 62.48-5.23494 0-8.95649-.59101-13.80235-1.8577-7.06595-1.84912-12.84046-7.64253-12.84286-14.38111 0-8.14513 5.91236-14.0699 14.75029-14.0699 4.20637 0 5.73267.80765 11.89492.80765 18.19161 0 32.94764-14.73519 32.97955-32.92679v-28.65657c0-2.56775-2.08663-4.64825-4.65867-4.64825l-21.66521-.00428c-8.07212 0-14.59401-6.43843-14.59401-14.53266-.00431-8.14456 6.5888-14.55657 14.74808-14.55657" fill="#fff"/><use transform="matrix(-1 0 0 -1 249.71152 284.28821)" xlink:href="#b"/><path d="m243.65456 243.58425s.00004-5.53139.00004-5.53139l-2.52853 5.79776s-2.46141-5.79776-2.46141-5.79776l.00047 5.53139h-1.4183v-8.73492h1.48704s2.43397 5.58051 2.43397 5.58051l2.39711-5.58051h1.50544v8.73492zm-10.33302-7.27184v7.27184h-1.48213v-7.27184h-2.48488v-1.46308h6.44946v1.46308" fill="#3c6eb4"/></svg>