<svg height="466.00003" viewBox="0 0 466.00003 466.00003" width="466.00003" xmlns="http://www.w3.org/2000/svg" xmlns:xlink="http://www.w3.org/1999/xlink"><radialGradient id="a" cx=".000003" cy="-17.959076" gradientTransform="matrix(-1.2231018 1.2231018 -1.7297272 -1.7297272 -31.0643 -31.064307)" gradientUnits="userSpaceOnUse" r="296.00043"><stop offset="0"/><stop offset="1" stop-opacity="0"/></radialGradient><clipPath id="b"><ellipse cx="744.13251" cy="-382.09381" rx="232" ry="232.00002" transform="matrix(.70710678 .70710678 .70710678 -.70710678 0 0)"/></clipPath><filter id="c" color-interpolation-filters="sRGB" height="1.12" width="1.12" x="-.06" y="-.06"><feGaussianBlur stdDeviation="7.2"/></filter><g transform="translate(-24 -564.36217)"><ellipse cx="257.25" cy="798.36218" fill="#455a64" rx="232" ry="232.00002"/><ellipse cx="256.75" cy="796.36218" fill="#546e7a" rx="232" ry="232.00002"/><g fill="#fff" fill-rule="evenodd" stroke="#90a4ae" stroke-width="8" transform="translate(1.250008 .000008)"><path d="m256 956.36223v55.99987m0-431.99991v56"/><path d="m95.999915 796.36214h-55.99987m431.999915 0h-56"/><path d="m142.86286 909.49929-39.59789 39.59788m305.47007-305.47006-39.59798 39.59798"/><path d="m369.13715 909.49929 39.59788 39.59789m-305.47005-305.47007 39.59797 39.59798"/><path d="m348.00003 955.71087 15.99995 27.71272m-215.99996-374.12289 16.00001 27.71282"/><path d="m415.34873 888.36217 27.71272 15.99995m-374.122899-215.99995 27.712825 16"/><path d="m415.34872 704.36211 27.71273-15.99995m-374.122895 215.99997 27.712817-16.00002"/><path d="m348.00002 637.01342 15.99996-27.71273m-215.99995 374.12291 15.99999-27.71283"/><path d="m78.2696 748.73944-30.90954-8.28219m417.27988 111.80978-30.90964-8.28219"/><path d="m208.37731 974.09256-8.2822 30.90954m111.80978-417.27989-8.28219 30.90964"/><path d="m303.62275 974.09254 8.28216 30.90956m-111.80983-417.27988 8.28224 30.90962"/><path d="m433.73039 748.73942 30.90956-8.28217m-417.279878 111.80982 30.909621-8.28221"/></g><g clip-path="url(#b)" transform="matrix(.70710678 .70710678 .70710678 -.70710678 -486.88248 1178.456)"><path d="m384 128-26.17578 26.17578-203.64844 203.64844 325.82422 322.17578 224-232z" fill="url(#a)" opacity=".5" transform="matrix(.70710678 .70710678 .70710678 -.70710678 -106.03867 796.36224)"/></g><path d="m256.75 564.36221a232 232.00002 0 0 0 -231.999992 232 232 232.00002 0 0 0 .04102 1.16992 232 232.00002 0 0 1 231.958972-231.16992 232 232.00002 0 0 1 231.95898 230.83008 232 232.00002 0 0 0 .041-.83008 232 232.00002 0 0 0 -232-232z" fill="#fff" opacity=".2"/></g><g transform="translate(-24 -23.999967)"><path d="m257.25 122.00001a144.00003 144.00005 0 0 0 -144 144 144.00003 144.00005 0 0 0 144 144 144.00003 144.00005 0 0 0 144-144 144.00003 144.00005 0 0 0 -20-72.96094v-51.03906h-51.41406a144.00003 144.00005 0 0 0 -72.58594-20z" filter="url(#c)" opacity=".3"/><path d="m305.25 127.99998h80v80h-80z" fill="#b0bec5"/><path d="m385.25 128.00001-80 80v-80z" fill="#fff" fill-rule="evenodd" opacity=".15"/><ellipse cx="257.25" cy="255.99998" fill="#cfd8dc" rx="144" ry="144.00003"/><ellipse cx="257.25" cy="255.99998" fill="#fff" rx="112" ry="112.00002"/><path d="m241.25 175.99999v48l12 12-12 12v88h32v-48l-12-12 12-12v-88z" fill="#4d4d4d"/></g></svg>