<svg height="79.120003" width="79.120003" xmlns="http://www.w3.org/2000/svg"><path d="m80.03 122.66c14.46-15.6 24.29-8.67 7.5 2.23-5.34 3.47-3.95 4.48-.36 3.93 5.07-.77 7.84.2 9.07 1.16 2.94 2.3 4.41.59 5.4-1.16 1.97-3.47 8.61.3 3.75 3.93-3.8 2.83-3.27 6.02.18 7.86 6.39 3.4 20.73 10.14 18.57 17.32-.88 2.93-2.47 5.69-6.07 1.96-6.75-6.97-11.24-12.92-26.79-15.35-10.04-1.58-20.13-4.21-29.82.71-4.56 2.42-10.3 3.98-11.52 1.12-1.59-3.73 6.53-6.8 14.38-7.55 5.1-.49 9.67-3.83 2.68-5.53-8.61-2.65 1.28-10.2 7.5-8.4 4.05 1.18 4.45-1.06 5.53-2.23z" fill="#fff" stroke="#356ace" stroke-width="1.5" transform="translate(-47.494627 -98.044484)"/></svg>