<svg enable-background="new" height="180" width="180" xmlns="http://www.w3.org/2000/svg" xmlns:xlink="http://www.w3.org/1999/xlink"><linearGradient id="a" gradientTransform="matrix(-1 0 0 1 -88.52614 88.64546)" gradientUnits="userSpaceOnUse" x1="371.67291" x2="364.05011" xlink:href="#q" y1="423.00491" y2="418.24069"/><linearGradient id="b" gradientUnits="userSpaceOnUse" x1="-386.88104" x2="-386.88104" xlink:href="#q" y1="481.1572" y2="557.00146"/><linearGradient id="c" gradientUnits="userSpaceOnUse" x1="-355.06613" x2="-333.14514" xlink:href="#q" y1="483.85989" y2="499.58569"/><filter id="d" y="-.2"><feBlend in2="BackgroundImage" mode="screen" result="result1"/><feBlend in="SourceGraphic" in2="BackgroundImage" mode="multiply" result="result2"/><feComposite in="result1" in2="BackgroundImage" k1="1" k2="0" k3="0" k4="0" operator="arithmetic" result="result4"/><feColorMatrix in="BackgroundImage" result="result5" values="-1 0 0 0 1 0 -1 0 0 1 0 0 -1 0 1 0 0 0 1 0"/><feComposite in="result5" in2="result2" k1="1" k2="0" k3="0" k4="0" operator="arithmetic"/><feComposite in2="result4" k1="0" k2="1" k3="1" k4="0" operator="arithmetic"/></filter><filter id="e" y="-.2"><feBlend in2="BackgroundImage" mode="screen"/></filter><filter id="f"><feBlend in2="BackgroundImage" mode="multiply"/></filter><filter id="g"><feGaussianBlur stdDeviation="4.5579024"/></filter><filter id="h" height="1.499084" width="1.75207" x="-.376035" y="-.249542"><feGaussianBlur stdDeviation="5.7314267"/></filter><radialGradient id="i" cx="0" cy="0" gradientTransform="matrix(87.891121 0 0 101.14053 195.47308 221.65711)" gradientUnits="userSpaceOnUse" r="1" spreadMethod="pad"><stop offset="0" stop-color="#fff"/><stop offset="1"/></radialGradient><mask id="j"><path d="m318.85776 244.04313h-173.87892v-159.11001h173.87892z" fill="url(#i)"/></mask><filter id="k" height="1.319337" width="1.163191" x="-.081596" y="-.159669"><feGaussianBlur stdDeviation="4.3903244"/><feBlend in2="BackgroundImage" mode="screen"/></filter><mask id="l"><path d="m-455.93146 477.17319c-2.47637.014-4.49859.59234-5.84375 1.9375-5.80553 5.80553 2.53464 24.29372 9.78125 36.90625-6.31208 10.96856-9.9375 23.69469-9.9375 37.25 0 41.29678 33.51571 74.8125 74.8125 74.8125 41.29678 0 74.8125-33.51573 74.8125-74.8125 0-13.64464-3.67302-26.45114-10.0625-37.46875 7.21799-12.60674 15.42893-30.91482 9.65625-36.6875-.12377-.12377-.23988-.23271-.375-.34375-.0111-.008-.02-.0235-.0312-.0312-6.18555-4.99727-23.8466 2.96203-36.15625 10-11.10694-6.53302-24.03459-10.28125-37.84375-10.28125-12.64114 0-24.55509 3.14471-35 8.6875 3.49306-2.22907 7.18916-4.14425 11.0625-5.71875-5.1159 1.82885-9.9392 4.23356-14.4375 7.15625-9.62924-5.47979-22.38954-11.45174-30.4375-11.40625z" fill="#fff"/></mask><linearGradient id="m"><stop offset=".3644" stop-color="#ff2f00"/><stop offset=".498" stop-color="#fff"/><stop offset=".55669999" stop-color="#ffb700"/><stop offset=".61930001" stop-color="#f80"/><stop offset=".73760003" stop-color="#f30"/><stop offset=".79149997" stop-color="#f10"/><stop offset=".94129997" stop-color="#7c0000"/><stop offset="1" stop-color="#eb0000"/><stop offset="1" stop-color="#ff2f00"/><stop offset="1" stop-color="#fff"/><stop offset="1" stop-color="#ffb700"/><stop offset="1" stop-color="#f10"/><stop offset="1" stop-color="#7c0000"/><stop offset="1" stop-color="#eb0000"/></linearGradient><radialGradient id="n" cx="252.873" cy="368.51321" gradientTransform="matrix(-1 0 0 1 -107.44504 88.64546)" gradientUnits="userSpaceOnUse" r="109.829" xlink:href="#m"/><linearGradient id="o"><stop offset="0" stop-color="#fff"/><stop offset=".50160003" stop-color="#787878"/><stop offset=".84500003" stop-color="#222"/><stop offset="1"/><stop offset="1" stop-color="#fff"/><stop offset="1"/></linearGradient><linearGradient id="p" gradientTransform="matrix(-1 0 0 1 -174.84154 88.64546)" gradientUnits="userSpaceOnUse" x1="236.89059" x2="285.29791" xlink:href="#o" y1="405.29391" y2="405.29391"/><linearGradient id="q"><stop offset=".083" stop-color="#fff"/><stop offset=".54299998" stop-color="#787878"/><stop offset=".85790002" stop-color="#222"/><stop offset="1"/><stop offset="1" stop-color="#fff"/><stop offset="1"/></linearGradient><linearGradient id="r" gradientUnits="userSpaceOnUse" x1="-424.60526" x2="-441.75815" xlink:href="#q" y1="480.54202" y2="499.60092"/><radialGradient id="s" cx="149.4883" cy="541.00592" gradientUnits="userSpaceOnUse" r="153.446"><stop offset="0"/><stop offset="1" stop-color="#fff"/><stop offset="1"/><stop offset="1" stop-color="#fff"/></radialGradient><radialGradient id="t" cx="128.2603" cy="436.34079" gradientUnits="userSpaceOnUse" r="126.6567"><stop offset="0" stop-color="#f00"/><stop offset=".1131" stop-color="#e20000"/><stop offset=".4558" stop-color="#8d0000"/><stop offset=".61189997" stop-color="#6b0000"/><stop offset=".95249999" stop-color="#f00"/><stop offset=".95249999" stop-color="#6b0000"/><stop offset=".9525" stop-color="#f00"/></radialGradient><linearGradient id="u" gradientUnits="userSpaceOnUse" x1="-460.97723" x2="-314.68433" xlink:href="#q" y1="552.54199" y2="552.54199"/><linearGradient id="v" gradientTransform="matrix(-1 0 0 -1 447.0667 876.9893)" gradientUnits="userSpaceOnUse" x1="760.79791" x2="907.0918" xlink:href="#q" y1="323.01859" y2="323.01859"/><radialGradient id="w" cx="-189.1338" cy="583.33398" gradientTransform="matrix(-1 0 0 -1 -36.5273 1049.0723)" gradientUnits="userSpaceOnUse" r="68.881798"><stop offset="0" stop-color="#f00"/><stop offset=".4772" stop-color="#ff7a00"/><stop offset=".83740002" stop-color="#ffd000"/><stop offset="1" stop-color="#fff200"/><stop offset="1" stop-color="#f00"/><stop offset="1" stop-color="#fff200"/></radialGradient><radialGradient id="x" cx="366.83109" cy="-320.26071" gradientTransform="matrix(-.4079 -.7171 .8246 -.0235 28.72296 623.0472)" gradientUnits="userSpaceOnUse" r="210.1494" xlink:href="#m"/><radialGradient id="y" cx="-414.15845" cy="457.15872" gradientUnits="userSpaceOnUse" r="109.8297" xlink:href="#m"/><linearGradient id="z" gradientUnits="userSpaceOnUse" x1="-361.50162" x2="-313.09546" xlink:href="#o" y1="493.93942" y2="493.93942"/><radialGradient id="A" cx="-366.50754" cy="495.27679" gradientUnits="userSpaceOnUse" r="53.5756"><stop offset="0" stop-color="#b00000"/><stop offset="1" stop-color="#ebbfbf"/><stop offset="1" stop-color="#b00000"/><stop offset="1" stop-color="#ebbfbf"/></radialGradient><radialGradient id="B" cx="-370.32153" cy="495.75439" gradientUnits="userSpaceOnUse" r="19.2059"><stop offset="0" stop-color="#b00000"/><stop offset="1" stop-color="#fff"/><stop offset="1" stop-color="#b00000"/><stop offset="1" stop-color="#fff"/></radialGradient><linearGradient id="C" gradientUnits="userSpaceOnUse" x1="-277.04364" x2="-346.69064" y1="455.43552" y2="531.53137"><stop offset=".1629" stop-color="#ff5900"/><stop offset=".1874" stop-color="#ff5000"/><stop offset=".29210001" stop-color="#ff2f00"/><stop offset="1" stop-color="#eb0000"/><stop offset="1" stop-color="#ff5900"/><stop offset="1" stop-color="#ff2f00"/><stop offset="1" stop-color="#eb0000"/></linearGradient><linearGradient id="D"><stop offset=".25839999" stop-color="#fff"/><stop offset=".37639999" stop-color="#afafaf"/><stop offset="1"/><stop offset="1" stop-color="#fff"/><stop offset="1" stop-color="#afafaf"/><stop offset="1"/></linearGradient><radialGradient id="E" cx="1770.7051" cy="245.728" gradientTransform="matrix(.1133 .1847 -.8524 .5229 -322.94644 32.1927)" gradientUnits="userSpaceOnUse" r="15.6038" xlink:href="#D"/><radialGradient id="F" cx="289.67581" cy="288.77151" gradientTransform="matrix(.1206 -.18 .6605 .4425 -670.17624 410.4799)" gradientUnits="userSpaceOnUse" r="15.6041" xlink:href="#D"/><radialGradient id="G" cx="214.69431" cy="446.043" gradientTransform="matrix(.6946 .6025 -.9942 1.1461 -134.10274 -121.548)" gradientUnits="userSpaceOnUse" r="15.6055" xlink:href="#D"/><radialGradient id="H" cx="180.8203" cy="448.8223" gradientTransform="matrix(.8176 .4207 -.6942 1.3491 -273.27764 -145.8827)" gradientUnits="userSpaceOnUse" r="10.7154" xlink:href="#D"/><linearGradient id="I" gradientTransform="matrix(0 1 -1 0 189.96906 153.5635)" gradientUnits="userSpaceOnUse" x1="334.90039" x2="444.50449" y1="517.11517" y2="617.79871"><stop offset=".01" stop-color="#34b3d1"/><stop offset=".1742" stop-color="#fff"/><stop offset=".33149999" stop-color="#fdbf6f"/><stop offset=".42699999" stop-color="#ffff7f"/><stop offset=".5" stop-color="#673920"/><stop offset=".65170002" stop-color="#b55004"/><stop offset="1" stop-color="#4e0901"/><stop offset="1" stop-color="#34b3d1"/><stop offset="1" stop-color="#fff"/><stop offset="1" stop-color="#fdbf6f"/><stop offset="1" stop-color="#ffff7f"/><stop offset="1" stop-color="#673920"/><stop offset="1" stop-color="#b55004"/><stop offset="1" stop-color="#4e0901"/></linearGradient><radialGradient id="J" cx="3.328975" cy=".078332" gradientTransform="matrix(.0000026 -120.92754 -118.99999 -.00000256 215.57752 544.23804)" gradientUnits="userSpaceOnUse" r="1" spreadMethod="pad"><stop offset="0" stop-color="#f00"/><stop offset=".61188102" stop-color="#6b0000"/><stop offset="1" stop-color="#f00"/></radialGradient><radialGradient id="K" cx="428.62701" cy="505.02151" gradientTransform="matrix(.5251 .8511 -1.1214 .6919 -14.76734 -208.9433)" gradientUnits="userSpaceOnUse" r="34.047199"><stop offset="0" stop-color="#fff"/><stop offset="1"/><stop offset="1" stop-color="#fff"/><stop offset="1"/></radialGradient><linearGradient id="L" gradientUnits="userSpaceOnUse" x1="-317.88593" x2="-324.08035" xlink:href="#q" y1="509.8623" y2="505.57391"/><g transform="translate(477.44504 -456.38631)"><path d="m-456.13104 476.64002c-2.47637.014-4.49859.62359-5.84375 1.96875-5.80552 5.80552 2.53464 24.26247 9.78125 36.875-6.31875 10.97281-9.9375 23.68698-9.9375 37.25 0 41.29678 33.51573 74.8125 74.8125 74.8125 41.29678 0 74.81249-33.51572 74.8125-74.8125 0-13.65576-3.69462-26.44506-10.09375-37.46875 7.21979-12.60715 15.46218-30.88156 9.6875-36.65625-5.759-5.759-23.95875 2.41969-36.5625 9.625-11.10785-6.5345-24.0329-10.3125-37.84375-10.3125-13.86068 0-26.8341 3.79676-37.96875 10.375-9.67255-5.54124-22.68266-11.70237-30.84375-11.65625z" filter="url(#g)"/><g mask="url(#l)"><path d="m-461.77604 479.11146c-8.609 8.609 13.938 45.116 17.8 48.978 3.862 3.86 13.973.013 22.581-8.597 8.609-8.609 12.458-18.719 8.596-22.581s-40.368-26.409-48.977-17.8z" fill="url(#n)"/><path d="m-414.66204 509.85646c-16.118-14.657-37.349-31.825-45.478-31.096 5.954-4.238 29.714 10.573 48.407 23.952-.43 2.157-1.433 4.607-2.929 7.144z" fill="url(#p)" filter="url(#e)"/><path d="m-461.10804 480.05946c-8.28 8.28 13.405 43.392 17.121 47.106 3.714 3.714 13.438.013 21.718-8.268s11.981-18.004 8.268-21.718c-3.715-3.715-38.827-25.401-47.107-17.12z" fill="url(#a)" filter="url(#e)"/><path d="m-461.10804 480.05946c-8.28 8.28 13.405 43.392 17.121 47.106 3.714 3.714 13.438.013 21.718-8.268s11.981-18.004 8.268-21.718c-3.715-3.715-38.827-25.401-47.107-17.12z" fill="url(#a)" filter="url(#e)"/><path d="m-461.10804 480.05946c-8.28 8.28 13.405 43.392 17.121 47.106 3.714 3.714 13.438.013 21.718-8.268s11.981-18.004 8.268-21.718c-3.715-3.715-38.827-25.401-47.107-17.12z" fill="url(#r)" filter="url(#e)"/><circle cx="150.326" cy="464.608" fill="url(#s)" r="74.813004" transform="translate(-537.44504 88.6455)"/><circle cx="150.088" cy="466.276" fill="url(#t)" r="71.237999" transform="translate(-537.44504 88.6455)"/><path d="m-455.07204 555.9465c0-39.017 31.629-70.646 70.646-70.646 35.169 0 64.332 25.7 69.742 59.345-4.042-36.699-35.146-65.251-72.922-65.251-40.521 0-73.371 32.851-73.371 73.372 0 37.776 28.551 68.881 65.25 72.922-33.644-5.41-59.345-34.572-59.345-69.742z" fill="url(#u)" filter="url(#e)"/><path d="m-319.63704 550.5655c0 39.018-31.629 70.646-70.646 70.646-35.169 0-64.331-25.699-69.742-59.344 4.043 36.699 35.146 65.25 72.922 65.25 40.522 0 73.372-32.85 73.372-73.372 0-37.776-28.551-68.88-65.25-72.922 33.643 5.411 59.344 34.574 59.344 69.742z" fill="url(#v)" filter="url(#e)" opacity=".63"/><path d="m-322.31404 535.7025c0 29.519-19.417-34.706-83.27-10.404-24.457 9.309-45.864 39.923-45.864 10.404s28.908-53.449 64.567-53.449 64.567 23.93 64.567 53.449z" fill="url(#b)" filter="url(#k)"/><g filter="url(#d)" transform="translate(-537.44504 88.6455)"><path d="m130.019 419.919c-.583 3.886 3.286 9.258 5.491 2.343s2.285-16.017 10.503-20.161c8.218-4.143 14.857-4.783 21.817-2.104 4.781 1.841 7.346 4.121 8.483 5.369-3.027-3.572-15.199-15.918-32.044-6.449-19.526 10.979-13.646-2.513-15.549 12.509-1.902 15.025 1.299 8.493 1.299 8.493zm46.294-14.553c.482.568.741.923.741.923s-.222-.355-.741-.923zm-.79 9.73c-19.188-3.446-42.767 8.591-59.279 28.939 6.613-11.488.193-29.824-.483-27.889-9.648 27.575-24.63 27.387-28.48 36.193-5.09 11.642-.54 25.504 10.157 31.132-5.315 28.211 21.354 47.366 37.752 47.366 16.555 0 2.899-23.115 2.899-47.451 0-24.334-2.382-54.322 37.434-68.29zm43.573 42.558c-4.765-21.443-10.96-29.545-10.96-29.545s10.483 20.49 7.625 39.074c-2.859 18.585-14.811 19.574-15.249 24.303s4.289 5.719 8.102 3.336c-.001 0 15.246-15.726 10.482-37.168zm-16.235-1.941c-32.402 13.818-37.363 17.432-47.65 28.115-12.39 12.865-11.615 35.711-5.091 45.117 6.524 9.41 21.176 9.494 32.723.189 16.729-13.477-8.095-40.541 20.018-73.421z" fill="url(#w)"/></g><path d="m-322.31404 535.7025c0 29.519-19.417-34.706-83.27-10.404-24.457 9.309-45.864 39.923-45.864 10.404s28.908-53.449 64.567-53.449 64.567 23.93 64.567 53.449z" fill="url(#b)" filter="url(#e)"/><path d="m-320.55652 557.0003c-3.97603.6272-8.98781-13.3111-13.84526-18.9079-9.22102-10.6247-33.06046-20.9166-15.83997-33.2858 16.98645-12.201 23.82891 9.5302 28.90389 29.2424 1.87669 7.2894 4.75737 22.3241.78134 22.9513z" fill-rule="evenodd" filter="url(#h)" opacity=".44"/><path d="m-382.90704 486.6415c4.976-4.976 34.505 4.824 45.828 11.168 4.583 2.566 5.491 9.636 2.04 15.768-3.45 6.133-11.332 10.601-14.537 6.439-19.793-25.691-35.884-30.822-33.331-33.375z" fill="url(#x)" opacity=".15"/><path d="m-312.69904 479.1115c8.609 8.609-13.938 45.116-17.801 48.978-3.861 3.86-13.972.013-22.581-8.597s-12.458-18.719-8.596-22.581 40.369-26.409 48.978-17.8z" fill="url(#y)"/><path d="m-313.40804 480.0595c8.28 8.28-13.406 43.392-17.12 47.106-3.715 3.714-13.438.013-21.719-8.268-8.281-8.28-11.981-18.004-8.268-21.718 3.715-3.715 38.827-25.401 47.107-17.12z" fill="url(#c)" filter="url(#e)"/><path d="m-313.40804 480.0595c8.28 8.28-13.406 43.392-17.12 47.106-3.715 3.714-13.438.013-21.719-8.268-8.281-8.28-11.981-18.004-8.268-21.718 3.715-3.715 38.827-25.401 47.107-17.12z" fill="url(#c)" filter="url(#e)"/><path d="m-358.57304 509.8565c16.118-14.657 37.348-31.825 45.478-31.096-5.955-4.238-29.714 10.573-48.406 23.952.429 2.157 1.432 4.607 2.928 7.144z" fill="url(#z)" filter="url(#e)"/><path d="m-330.50004 528.0895c-3.861 3.86-13.972.013-22.581-8.597s-12.458-18.719-8.596-22.581c.847-.846 3.262-2.591 6.606-4.708-4.957-1.985-9.123-2.102-11.355.132-4.56 4.56.651 17.162 11.639 28.149 10.987 10.986 23.59 16.197 28.149 11.639 2.057-2.058 2.119-5.756.564-10.201-1.988 3.116-3.617 5.358-4.426 6.167z" fill="url(#A)" filter="url(#f)"/><path d="m-362.99904 510.4265 2.673-.344c-1.617-2.901-2.591-5.664-2.805-7.997l-4.271-.821c.804 2.784 2.307 5.918 4.403 9.162z" fill="url(#B)"/><path d="m-329.81904 511.0025c-6.671 8.577-10.006 6.195-19.749 10.371 7.6 6.503 15.72 9.111 19.04 5.791.88-.881 2.773-3.531 5.037-7.168 1.504-3.1 3.095-6.304 4.727-9.471 8.099-15.724-3.846-6.219-9.055.477z" fill="url(#C)" filter="url(#f)" opacity=".53"/><path d="m-329.75904 491.0335c-8.412 5.161-16.139 7.867-17.256 6.044-1.119-1.823 4.795-7.483 13.207-12.644 8.412-5.16 16.139-7.866 17.256-6.044 1.118 1.823-4.795 7.484-13.207 12.644z" fill="url(#E)" filter="url(#e)"/><path d="m-442.35404 482.9025c6.52 4.367 10.839 9.347 9.648 11.124-1.19 1.777-7.439-.323-13.957-4.69-6.519-4.367-10.839-9.346-9.647-11.123 1.188-1.777 7.438.324 13.956 4.689z" fill="url(#F)" filter="url(#e)"/><path d="m-416.02104 529.7815c-9.812 11.312-23.322 15.661-30.178 9.714-6.855-5.946-4.458-19.936 5.354-31.246 9.811-11.312 23.321-15.661 30.177-9.715 6.855 5.946 4.457 19.936-5.353 31.247z" fill="url(#G)" filter="url(#e)"/><path d="m-426.97804 540.8545c-4.704 9.143-13.009 14.242-18.55 11.393-5.54-2.852-6.219-12.574-1.515-21.717 4.703-9.141 13.008-14.241 18.549-11.391s6.219 12.574 1.516 21.715z" fill="url(#H)" filter="url(#e)"/><path d="m-314.69004 553.4935c0-6.146-.77-12.109-2.214-17.805.046.926.069 1.857.069 2.793 0 30.396-24.641 55.037-55.036 55.037-30.396 0-55.038-24.641-55.038-55.037s24.642-55.037 55.038-55.037c.936 0 1.867.024 2.791.07-5.693-1.445-11.657-2.215-17.802-2.215-39.87 0-72.191 32.322-72.191 72.193 0 39.869 32.321 72.19 72.191 72.19 39.872.001 72.192-32.32 72.192-72.189z" fill="url(#I)" filter="url(#e)"/><path d="m234.24563 238.08777c-38.29842 0-69.34483-31.68624-69.34483-70.77143 0-29.83875 18.09599-55.36169 43.69792-65.76882-27.40343 9.7963-47.05799 36.41794-47.05799 67.72728 0 39.62804 31.47729 71.75116 70.30456 71.75116 25.17704 0 47.26093-13.50926 59.6775-33.81165-12.48855 18.63885-33.48174 30.87346-57.27716 30.87346" fill="url(#J)" mask="url(#j)" transform="translate(-619.6413 379.8728)"/><path d="m-341.25804 505.5565c-7.673 4.735-15.91 5.304-18.397 1.272s1.717-11.138 9.39-15.872c7.674-4.735 30.338-14.205 32.825-10.174 2.486 4.032-16.146 20.041-23.818 24.774z" fill="url(#K)" filter="url(#e)"/><path d="m-312.16104 481.0525c-1.493 8.675-6.471 17.226-14.515 23.457-9.342 7.238-20.683 9.694-30.521 7.581 1.386 1.968 3.045 3.948 4.95 5.854 8.28 8.28 18.004 11.982 21.719 8.268 3.472-3.473 22.648-34.382 18.367-45.16z" fill="url(#L)" filter="url(#e)"/></g></g></svg>