<svg height="369.65823" viewBox="0 0 369.65823 369.65824" width="369.65823" xmlns="http://www.w3.org/2000/svg"><g fill-rule="evenodd" transform="translate(-16.388699 91.118363)"><path d="m243.846-38.197158c-20.176 2.242-34.054 6.215-49.423 14.149-29.174 15.0599996-52.366 41.234-63.432 71.587-2.245 6.161-1.803 5.606-3.949 4.954-54.391996-16.519-110.509996 26.027-110.652996 83.891998-.194 78.171 93.554996 116.993 148.696996 61.577l3.739-3.758 2.799 2.273c74.456 60.471 186.627 23.084 210.294-70.092 18.673-73.513998-27.855-147.685998-101.918-162.470998-8.856-1.768-28.774-2.931-36.154-2.111m24.831 26.082c53.313 7.9379996 91.709 52.046 91.771 105.424.092 80.069998-83.244 131.497998-154.43 95.300998-7.473-3.8-19.219-11.942-22.413-15.535l-.818-.92 1.611-4.231c.886-2.327 1.842-5.096 2.125-6.154.767-2.873.834-2.863 4.701.706 36.779 33.943 93.241 32.959 128.611-2.242 46.595-46.372 32.473-125.019998-27.301-152.0429984-52.041-23.5279996-113.275 5.6520004-128.079 61.0330004-.531 1.984-1.054 3.696-1.162 3.805-.109.109-1.457-.925-2.996-2.296-2.269-2.023-4.334-3.668-7.943-6.326-.324-.239 3.615-11.028 5.667-15.522 19.232-42.1230004 65.635-67.703 110.656-61m-3.281 16.9729996c60.284 7.3840004 95.791 73.1690004 69.069 127.9659984-25.093 51.455-90.826 66.409-135.434 30.811-5.028-4.013-10.697-9.631-10.428-10.334 1.358-3.537 1.996-20.009 1.05-27.108-2.384-17.892-9.714-34.273998-21.21-47.403998l-1.6-1.827 1.357-5.324c9.344-36.648 40.114-63.2680004 77.569-67.1070004 3.846-.394 15.299-.204 19.627.327m-151.241 49.2260004c3.962.553 12.955 2.553 13.377 2.975.109.108-.233 1.905-.758 3.992-11.465 45.583998 2 93.983998 35.264 126.756998 4.053 3.993 4.188 3.295-1.731 8.972-49.954 47.908-133.153996 16.575-139.556996-52.557-4.902-52.919998 41.209-97.418998 93.404996-90.138998m40.147 17.076c1.547 1.251 4.002 3.371 5.455 4.711l2.641 2.438-.509 3.653c-3.284 23.589998 4.46 51.111998 19.786 70.315998 2.65 3.32 2.65 2.86-.002 10.838-2.187 6.579-2.046 6.466-4.602 3.654-16.403-18.042-25.734-38.566-28.239-62.106-1.07-10.063998-.137-26.320998 1.972-34.335998.471-1.789.166-1.861 3.498.832m14.901 15.189c12.2 16.230998 18.37 37.356998 16.583 56.775998-.633 6.866-.632 6.866-3.18 3.417-11.585-15.684-17.738-35.735-17.103-55.732998.301-9.47.109-9.238 3.7-4.46" fill="#de2c68"/><path d="m236.15 93.019842c-6.451 6.505-14.497 14.639998-17.879 18.077998l-6.15 6.252 18.073 18.075 18.072 18.076h16.636c9.15 0 16.636-.131 16.636-.291s-5.192-5.481-11.538-11.825c-6.346-6.343-11.538-11.664-11.538-11.824s10.644-.291 23.653-.291h23.654v-12.112-12.113l-23.641-.099-23.641-.099 3.141-3.269c1.727-1.797998 6.956-7.119998 11.618-11.826998l8.478-8.558h-16.922-16.922zm-171.534996 3.073c0 .157 3.071 3.359 6.823 7.114998l6.823 6.831h-14.13-14.131v7.116 7.115h14.086 14.086l-6.821 7.115-6.821 7.116 9.947.007 9.946.008 10.451-10.681 10.451996-10.68-10.640996-10.673-10.641-10.672998h-9.715c-5.342 0-9.714.128-9.714.284" fill="#fc3"/></g></svg>