<svg height="102" width="102" xmlns="http://www.w3.org/2000/svg" xmlns:xlink="http://www.w3.org/1999/xlink"><linearGradient id="a" gradientTransform="scale(1 .54545455)" gradientUnits="userSpaceOnUse" x1="44.948269" x2="54.103466" y1="0" y2="46.797421"><stop offset="0" stop-color="#fff" stop-opacity=".74375"/><stop offset="1" stop-color="#fff" stop-opacity="0"/></linearGradient><linearGradient id="b" gradientTransform="matrix(1 0 0 .5 0 48)" gradientUnits="userSpaceOnUse" x1="52.016712" x2="42.867535" y1="96" y2="41.837971"><stop offset="0" stop-opacity=".5"/><stop offset="1" stop-color="#818080" stop-opacity="0"/></linearGradient><filter id="c" height="1.24" width="1.06" x="-.03" y="-.12"><feGaussianBlur stdDeviation="1.2"/></filter><filter id="d" height="1.244" width="1.059755" x="-.029878" y="-.122"><feGaussianBlur stdDeviation="1.22"/></filter><g transform="translate(3.451013 -953.50795)"><path d="m16 0c-8.9908981.04308252-16 7.0521845-16 16v64c0 9.120146 7.0091019 16 16 16h16v-26h32l-.083984-23.931641-31.916016.167969v-20.236328h32v-26s-40 0-48 0z" fill="#ffc019" transform="translate(0 956.3622)"/><path d="m80 1052.3622c8.990898 0 16.086165-6.966 16-16 0 0 0-41.4991 0-64 .07767-9.01639-7.067354-16-16-16h-16v26h-32v22h32v22h-32v26z" fill="#1872a2"/></g><g fill="none" stroke="#000" stroke-width="4" transform="translate(3.451013 2.854239)"><path d="m64 0v26h-32v22m32 0v22h-32v26"/><rect height="96" rx="16" stroke-linecap="round" stroke-linejoin="round" width="96"/></g><rect fill="url(#a)" filter="url(#d)" height="24" rx="15.214664" ry="8.299442" transform="matrix(1.0296115 0 0 1.1963836 .549089 -1.858968)" width="98"/><rect fill="url(#b)" filter="url(#c)" height="24" opacity=".56746" rx="14.008356" ry="12" transform="matrix(.9768331 0 0 .91974646 5.335068 13.541083)" width="96" y="72"/></svg>