<svg height="509.22299" viewBox="0 0 509.22299 509.22299" width="509.22299" xmlns="http://www.w3.org/2000/svg" xmlns:xlink="http://www.w3.org/1999/xlink"><linearGradient id="a"><stop offset="0" stop-opacity="0"/><stop offset="1" stop-opacity=".27451"/></linearGradient><linearGradient id="b"><stop offset="0" stop-opacity="0"/><stop offset="1" stop-opacity=".156863"/></linearGradient><linearGradient id="c" gradientUnits="userSpaceOnUse" x1="144.64305" x2="256.02867" y1="425.18127" y2="425.18127"><stop offset="0" stop-opacity=".117647"/><stop offset="1" stop-opacity="0"/></linearGradient><linearGradient id="d" gradientTransform="matrix(-1 0 0 -1 653.49998 -96.8675)" gradientUnits="userSpaceOnUse" x1="590.55707" x2="590.55707" xlink:href="#b" y1="-353.30579" y2="-241.50403"/><linearGradient id="e" gradientUnits="userSpaceOnUse" x1="679.5" x2="728.72211" xlink:href="#a" y1="-678.01678" y2="-678.01678"/><linearGradient id="f" gradientUnits="userSpaceOnUse" x1="556.42899" x2="605.6511" xlink:href="#a" y1="436.39842" y2="436.39842"/><linearGradient id="g" gradientUnits="userSpaceOnUse" x1="-557.9863" x2="-508.76419" xlink:href="#a" y1="313.42639" y2="313.42639"/><radialGradient id="h" cx="394.39893" cy="-788.48102" gradientTransform="matrix(1.0636863 -.61411956 .63649124 1.1024351 474.95178 840.12928)" gradientUnits="userSpaceOnUse" r="182.29524" xlink:href="#b"/><radialGradient id="i" cx="394.39893" cy="-788.48102" gradientTransform="matrix(.61411956 1.0636863 -1.1024351 .63649124 -717.05831 -639.46343)" gradientUnits="userSpaceOnUse" r="182.29524" xlink:href="#b"/><g transform="translate(-364.13161 750.2836)"><path d="m728.7221-750.2836h113.9441c8.8917 0 30.6884 13.87983 30.6884 33.53407v331.05641h-144.6325z" fill="#da4639"/><path d="m364.13162-605.6511v-113.9441c0-8.8917 13.87983-30.6884 33.53407-30.6884h331.05641v144.6325z" fill="#4c8bf2"/><path d="m508.76412-241.06062h-113.9441c-8.8917 0-30.6884-13.87983-30.6884-33.53407v-331.05641h144.6325z" fill="#129e5a"/><path d="m873.35456-385.69312v113.9441c0 8.8917-13.8798 30.6884-33.534 30.6884h-331.05644v-144.6325z" fill="#ffcd41"/><path d="m364.13161-605.65109v-113.9441c0-8.8917 13.87983-30.6884 33.53407-30.6884h331.05641v144.6325z" fill="url(#i)" opacity=".305"/><path d="m679.5-750.28357h49.222092v144.5336h-49.222092z" fill="url(#e)" opacity=".305"/><path d="m556.42902 364.13162h49.222092v144.5336h-49.222092z" fill="url(#f)" opacity=".305" transform="rotate(-90)"/><path d="m-557.98621 241.15948h49.222092v144.5336h-49.222092z" fill="url(#g)" opacity=".305" transform="scale(-1)"/><path d="m508.76412-241.06062h-113.9441c-8.8917 0-30.6884-13.87983-30.6884-33.53407v-331.05641h144.6325z" fill="url(#h)" opacity=".305"/></g><path d="m144.63251 364.59048 144.73587 144.19312h-144.73587z" fill="url(#c)"/><path d="m144.73587 288.82563-144.73587-144.19312h144.73587z" fill="url(#d)"/></svg>