<svg height="40.999981" width="40.999981" xmlns="http://www.w3.org/2000/svg" xmlns:xlink="http://www.w3.org/1999/xlink"><linearGradient id="a"><stop offset="0"/><stop offset="1" stop-opacity="0"/></linearGradient><linearGradient id="b"><stop offset="0" stop-color="#fff"/><stop offset="1" stop-color="#fff" stop-opacity="0"/></linearGradient><linearGradient id="c" gradientTransform="matrix(.993546 0 0 .998054 1.654869 5.053485)" gradientUnits="userSpaceOnUse" x1="16" x2="32.927006" xlink:href="#b" y1="2" y2="31.587952"/><linearGradient id="d" gradientTransform="matrix(.457973 0 0 .6537999 17.741826 6.218517)" gradientUnits="userSpaceOnUse" x1="24.260687" x2="24.832115" xlink:href="#b" y1="2.533504" y2="22.012075"/><radialGradient id="e" cx="21.142859" cy="22.17857" gradientTransform="matrix(.999999 0 0 1.000342 1.499979 -8.326496)" gradientUnits="userSpaceOnUse" r="9"><stop offset="0" stop-color="#fef291"/><stop offset="1" stop-color="#edd400"/></radialGradient><linearGradient id="f" gradientTransform="matrix(.679906 0 0 .709362 9.183453 1.608314)" gradientUnits="userSpaceOnUse" x1="24.000008" x2="30.00001" y1="31.785711" y2="38.499996"><stop offset="0" stop-color="#729fcf"/><stop offset="1" stop-color="#396ea7"/></linearGradient><linearGradient id="g" gradientTransform="matrix(1.258493 0 0 1.260118 -4.703816 -.580131)" gradientUnits="userSpaceOnUse" x1="16" x2="38.465416" xlink:href="#b" y1="2" y2="42.405006"/><radialGradient id="h" cx="16.488304" cy="23.537582" gradientTransform="matrix(1.989063 0 0 1.76923 -15.780792 -17.611621)" gradientUnits="userSpaceOnUse" r="19"><stop offset="0" stop-color="#73d216"/><stop offset="1" stop-color="#4e9a06"/></radialGradient><radialGradient id="i" cx="23.991123" cy="44.514973" gradientTransform="matrix(.91085 0 0 .16778773 3.647677 36.030906)" gradientUnits="userSpaceOnUse" r="20.85965" xlink:href="#a"/><linearGradient id="j" gradientUnits="userSpaceOnUse" x1="18.071406" x2="18.071406" xlink:href="#a" y1="29.999169" y2="42.285941"/><linearGradient id="k" gradientUnits="userSpaceOnUse" x1="16.071406" x2="16.071406" xlink:href="#a" y1="29.999169" y2="42.285941"/><linearGradient id="l" gradientTransform="matrix(.993546 0 0 .998054 1.654869 5.053485)" gradientUnits="userSpaceOnUse" x1="17.725422" x2="27.055439" xlink:href="#b" y1="3.860764" y2="24.431168"/><g transform="translate(-5 -5.999998)"><ellipse cx="25.49999" cy="43.499981" fill="url(#i)" opacity=".2" rx="19.000011" ry="3.499998"/><path d="m25.499978 20.499993c-9.659998 0-18.5000007 5.114081-18.5000005 8.425151 0 1.540746 6.2829855.658209 6.5000005 2.009791l1.5625 10.559168c0 1.010151.531707 1.80127 1.21875 1.801269 6.262501 1.617995 12.413095 1.594266 18.40625 0 .687044 0 1.249999-.791119 1.25-1.801269l1.5625-10.559168c.288444-1.138625 6.500001-.469045 6.5-2.009791 0-3.31107-8.840002-8.42515-18.5-8.425151z" fill="url(#h)" stroke="#4e9a06"/><path d="m13.499978 29.999999c1.08167.07502 3.108027.873469 4 0-1.85465 1.181252-.873011 8.878321-1.785714 12.785714-.738072-4.262241-1.278983-11.284723-2.214286-12.785714z" fill="url(#k)" fill-rule="evenodd" opacity=".137778"/><path d="m37.499978 29.999999c-1.08167.07502-3.108027.873469-4 0 1.85465 1.181252.873011 8.878321 1.785714 12.785714.738072-4.262241 1.278983-11.284723 2.214286-12.785714z" fill="url(#j)" fill-rule="evenodd" opacity=".137778"/><path d="m25.499973 21.499989c-9.137834 0-17.9081888 5.449846-17.2857112 7.142358.085908.233583 5.9433632.279101 6.1486482 1.585243l1.692325 10.236417c0 .976188.0744 2.026293.7243 2.026292 6.077911 1.370063 11.872117 1.322258 17.411314 0 .649907 0 .753861-.764523.753862-1.74071l1.620897-10.450603c.272852-1.100344 5.937621-.861453 6.077218-1.942221.261896-2.027606-8.005019-6.856775-17.142853-6.856776z" fill="none" stroke="url(#g)" stroke-width="1.000001"/><ellipse cx="25.499969" cy="25.49999" fill-opacity=".059361" rx="5.499999" ry="3.999997" stroke="#fff" stroke-opacity=".423529"/><path d="m25.49997 6.4999989c-4.694677 0-8.499997 3.8093061-8.499997 8.5029121 0 2.999773 1.551932 5.639273 3.899709 7.153253 1.532664 1.747842.850142 1.176487 1.100292 3.319084 0 .567923.463522 1.031603 1.031245 1.031603 1.819981 1.396743 3.442269 1.249612 4.937499 0 .567726 0 1.03125-.463681 1.03125-1.031603.297753-2.097288-.132842-1.831066.961251-3.231317 2.425347-1.49836 4.038748-4.182417 4.038748-7.24102 0-4.693606-3.805321-8.5029121-8.499997-8.5029121z" fill="url(#e)" stroke="#c4a000"/><ellipse cx="28.243359" cy="14.452573" fill="url(#d)" rx="1.943015" ry="3.33521" transform="matrix(1 0 -.43693338 .89949387 0 0)"/><path d="m25.499975 7.4999966c-4.142363 0-7.500001 3.4862084-7.500001 7.7817104 0 2.745338 1.496903 4.745313 3.81643 6.546015 1.352348 1.599597.854299 1.381292.956399 3.055127 0 .519751.171905.679377.672841.679377 1.403466 1.273464 2.842636 1.240539 4.19131-.04152.500939 0 .547623-.232699.547623-.75245.174712-2.16848.27213-1.907786 1.237505-3.189268 2.140015-1.371271 3.577894-3.498106 3.577894-6.297284 0-4.295503-3.357639-7.7817104-7.500001-7.7817104z" fill="none" stroke="url(#c)"/><path d="m21.509155 22.868464c.314701.54856.317852 1.114589.489098 2.597918 0 .570506.455085 1.035939 1.019033 1.035939 1.80786 1.403093 3.427906 1.255294 4.913177 0 .563946 0 1.09046-.447577 1.09046-1.018082.194311-1.384115.270949-2.269972.475324-2.752504l-1.386487.806554h-5.235111z" fill="url(#f)" stroke="#3465a4"/><path d="m22.964268 24.500019.0537 1.009787.499938-.000815c1.816785 1.599209 2.931067.871375 4.000047-.0065l.388976-.000634.128761-1.001817z" fill="none" stroke="url(#l)"/></g></svg>