<svg height="93.393753" width="93.393753" xmlns="http://www.w3.org/2000/svg" xmlns:xlink="http://www.w3.org/1999/xlink"><clipPath id="a"><path d="m0 74.716h252.43v-74.716h-252.43z"/></clipPath><g clip-path="url(#a)" transform="matrix(1.25 0 0 -1.25 0 93.393744)"><path d="m58.862446 44.566563c0-11.644-9.631-21.082-21.511-21.082-11.881 0-21.512 9.438-21.512 21.082 0 11.643 9.63 21.081 21.512 21.081 11.88 0 21.51-9.438 21.51-21.08" fill="#fff"/><path d="m68.670446 12.670563c-3.147 7.126-3.689 13.163-3.773 15.535v19.515c0 14.909-12.331 26.995-27.543 26.995-15.215 0-27.5470004-12.086-27.5470004-26.995v-19.797c-.118-2.552-.736-8.405-3.76-15.252-4.066-9.2020004-.702-8.1050004 2.312-7.3480004 3.0130004.754 9.7420004 3.709 11.8450004.068 2.101-3.64 3.854-6.8 8.76-4.73999997 4.906 2.06299997 7.216 2.74899997 7.917 2.74899997h.953c.7 0 3.012-.687 7.917-2.74799997 4.906-2.06000003 6.66 1.09999997 8.761 4.73899997 2.102 3.64 8.83.686 11.844-.068 3.014-.757 6.376-1.854 2.312 7.3480004m-39.817 47.325c2.967 0 5.372-3.73 5.372-8.331 0-4.602-2.405-8.333-5.372-8.333s-5.373 3.73-5.373 8.333c0 4.602 2.406 8.33 5.373 8.33m8.502-33.302c-6.538 0-12.04 6.305-13.7 13.322 3.203-4.316 8.147-7.088 13.7-7.088 5.552 0 10.496 2.772 13.7 7.088-1.659-7.017-7.164-13.322-13.7-13.322m8.502 16.639c-2.969 0-5.373 3.73-5.373 8.333 0 4.602 2.404 8.33 5.373 8.33 2.968 0 5.372-3.728 5.372-8.33s-2.404-8.333-5.372-8.333" fill="#00baf2"/></g></svg>