<svg height="251.1875" width="251.1875" xmlns="http://www.w3.org/2000/svg"><path d="m115.03986 243.94337c-15.769481-2.03151-31.998702-16.94187-34.26618-34.43444-2.174671-14.62409.962744-31.69413 13.051455-41.34542 5.302266-3.61399 12.514875-7.66322 18.875285-7.18134.1905 6.47429-.19049 14.34359 0 20.81788-7.57578.84345-14.909032 9.45432-14.756408 17.33851.185705 10.26001 4.726478 19.68681 14.597668 22.75753 10.91859 3.67394 23.41726 2.62901 33.52469-3.47905 8.34971-6.50563 9.12218-18.61836 4.75506-27.83618-1.96442-5.07246-6.19899-8.79638-11.94647-8.78081v18.05778h-16.20641v-38.87566h49.07678v13.97989l-13.44239.12434c12.54392 7.15066 13.82967 22.58379 13.18688 33.29078.45188 18.39283-17.71936 33.38895-35.74198 35.39399-6.52041.48886-12.03738.51459-20.70798.1722z" fill="#666"/><path d="m79.977992 153.25958-.103031-20.40175h91.999999l-.0106 20.5-91.886388-.0983z" fill="#d8382d"/><g fill="#40bf4c"><path d="m115.04163 125.69117v-21.83334h-35.666669v-19.000003h35.666669v-24.5h21.33333v24.5h35.5v19.000003h-35.5l-.35168 21.78777-20.98165.0456z"/><g fill-rule="evenodd"><path d="m21.28125 7.0140773-21.28125 29.7499997h11.8125c.02423 3.288346.302477 6.52723.78125 9.6875l18.78125-2.84375c-.33592-2.234963-.538433-4.521222-.5625-6.84375h11.75zm11.5625 43.2812497-18.15625 5.46875c.923692 3.063035 2.046663 6.043138 3.375 8.90625l17.21875-7.96875c-.956041-2.062577-1.776322-4.198284-2.4375-6.40625zm5.6875 12.25-15.96875 10.28125c7.185274 11.141656 17.546116 20.047721 29.8125 25.406248l7.59375-17.406248c-8.831807-3.854386-16.273158-10.256561-21.4375-18.28125zm27.75 20.5-5.125 18.312503c2.899536.81072 5.86596 1.42143 8.90625 1.84375l2.625-18.812503c-2.184482-.307312-4.321319-.760497-6.40625-1.34375z"/><path d="m229.90625 7.0140773-21.28125 29.7499997h11.8125c-.024 2.322528-.22658 4.608787-.5625 6.84375l18.78125 2.84375c.47877-3.16027.75698-6.399154.78125-9.6875h11.75zm-11.5 43.2812497c-.66118 2.207966-1.48146 4.343673-2.4375 6.40625l17.21875 7.96875c1.32834-2.863112 2.45131-5.843215 3.375-8.90625zm-5.6875 12.25c-5.16434 8.024689-12.60569 14.426864-21.4375 18.28125l7.59375 17.406248c12.26638-5.358527 22.62723-14.264592 29.8125-25.406248zm-27.75 20.5c-2.08493.583253-4.22177 1.036438-6.40625 1.34375l2.625 18.812503c3.04029-.42232 6.00671-1.03303 8.90625-1.84375z"/></g></g></svg>