<svg height="473.11447" viewBox="0 0 125.17821 125.17821" width="473.11447" xmlns="http://www.w3.org/2000/svg"><path d="m27.709938 176.09625c-9.546573-.0272-22.3392727 6.79805-21.6317547 23.90397 1.105534 26.72889 25.4565947 29.20839 35.1916497 29.42301 1.068023 5.01357 12.521798 22.30563 21.001818 23.21667h37.15277c22.277629-1.66785 38.960699-75.75671 26.593209-76.03825-46.781582 2.47691-49.995145 2.13838-88.599757 0-2.495053-.0266-5.972321-.49474-9.707935-.5054zm2.491319 9.45886c1.351378 13.69267 3.555849 21.70359 8.018216 33.94345-11.382872-1.50473-21.069822-5.22443-22.851515-19.10984-.950962-7.4112 2.390428-15.16769 14.833299-14.83361z" fill="#609926" stroke="#428f29" transform="translate(-5.550253 -147.0164)"/><g fill="#fff" transform="translate(-5.550253 14.516942)"><rect height="34.762054" ry="5.482578" transform="matrix(.89944557 .4370328 -.4370328 .89944557 0 0)" width="34.762054" x="79.181107" y="1.152882"/><path d="m79.804948 38.304327 3.241146 1.609954v-23.713279h-3.262698z"/></g><g transform="translate(-5.550252 -4.537787)"><g fill="#609926"><circle cx="49.064713" cy="90.077766" r="3.474504" transform="matrix(.94090361 -.33867448 .33867448 .94090361 0 0)"/><circle cx="36.810425" cy="102.1049" r="3.474504" transform="matrix(.94090361 -.33867448 .33867448 .94090361 0 0)"/><circle cx="46.484283" cy="111.43928" r="3.474504" transform="matrix(.94090361 -.33867448 .33867448 .94090361 0 0)"/><path d="m97.333458 18.061695h2.672695v27.261492h-2.672695z" transform="matrix(.89860913 .43875007 -.43875007 .89860913 0 0)"/></g><path d="m76.558096 68.116343c12.97589 6.395378 13.012989 4.101862 4.890858 20.907244" fill="none" stroke="#609926" stroke-width="2.68"/></g></svg>