<svg height="242pt" width="242pt" xmlns="http://www.w3.org/2000/svg"><g fill="none" stroke="#000" stroke-linecap="round" stroke-linejoin="round" transform="matrix(1.0816242 0 0 1.0816242 575.43032 141.78106)"><path d="m-381.25674-127.44623v145.017804" opacity=".199095" stroke-width="6.574141"/><g stroke-width="6.66012"><path d="m-282.64454-81.040538-98.6122 98.612112" opacity=".199095"/><path d="m-242.03964 17.571574h-139.2171" opacity=".199095"/><path d="m-281.67794 117.15046-99.5788-99.578886" opacity=".199095"/><path d="m-382.22354 17.571574h-139.2171" opacity=".199095"/><path d="m-479.86894 116.18368 98.6122-98.612106" opacity=".199095"/><path d="m-479.86894-82.007328 98.6122 99.578902" opacity=".199095"/><path d="m-381.25674 17.571574v145.984596" opacity=".199095"/></g><path d="m-381.35404-127.30303c29.1008 23.05964 63.9051 37.187282 98.7095 46.262492 8.9199 38.062572 23.2027 66.318302 40.6049 98.612112-23.2029 31.71697-34.8044 63.80784-40.6049 98.612106-40.605 5.80072-69.6087 23.20285-98.6122 46.40571-29.0036-29.00356-52.2064-40.60499-98.6122-46.40571-2.5743-34.804266-14.3787-66.318276-40.6049-98.612106 25.5103-43.8313 31.9199-55.12274 40.6049-98.612112 40.605-13.69019 69.6086-23.202852 98.5149-46.262492z" opacity=".199095" stroke-width="6.574141"/><g stroke-width="6.66012"><path d="m-381.29664-92.553728c23.2427 17.313902 48.5688 28.915332 75.4491 34.716052" opacity=".199095"/><path d="m-381.00044-60.052286c17.1458 13.81603 34.5479 22.13684 51.9501 25.41745" opacity=".199095"/><path d="m-352.25324-11.431986-29.0035-17.40214" opacity=".199095"/><path d="m-381.25674-92.553728c-23.2029 17.313902-49.1457 25.999002-75.4491 34.716052" opacity=".199095"/><path d="m-381.55294-60.052286c-13.8554 11.35685-31.749 19.61674-51.9501 25.41745" opacity=".199095"/><path d="m-410.42664-11.411176 29.13-17.42295" opacity=".199095"/><path d="m-381.25674 127.78511c23.2028-20.83139 48.5421-31.855966 75.4092-34.804276" opacity=".199095"/><path d="m-381.25674 92.980834c17.4021-14.07989 29.0035-20.89534 52.2064-23.20284" opacity=".199095"/><path d="m-352.25324 46.575134-29.0035 17.40214" opacity=".199095"/><path d="m-381.25674 127.78511c-29.0036-25.44641-38.1585-29.003546-75.4093-34.804276" opacity=".199095"/><path d="m-381.25674 92.980834c-14.5178-17.40213-32.4968-23.20284-52.2064-23.20284" opacity=".199095"/><path d="m-410.26034 46.575134 29.0036 17.40214" opacity=".199095"/><path d="m-456.66604 92.980834c-5.8007-31.48203-15.1266-52.2064-34.8043-75.40926" opacity=".199095"/><path d="m-433.46314 69.777994c-2.5425-20.86339-11.6015-34.80428-23.2029-52.20642" opacity=".199095"/><path d="m-427.66244 17.571574 17.4021 29.00356" opacity=".199095"/><path d="m-305.84754 92.980834c5.8007-29.00356 17.4022-52.2064 34.8043-75.40926" opacity=".199095"/><path d="m-329.05034 69.777994c5.8008-23.20286 11.6014-34.80428 23.2028-52.20642" opacity=".199095"/><path d="m-334.85114 17.571574c-8.1081 8.51412-13.9089 17.40214-17.4021 29.00356" opacity=".199095"/><path d="m-305.84754-57.837676c9.1199 34.80428 19.6079 52.2064005 34.8043 75.40925" opacity=".199095"/><path d="m-329.05034-34.634836c3.6961 19.70965 11.6014 34.80427047 23.2028 52.20641" opacity=".199095"/><path d="m-334.85114 17.571574-17.4021-29.00356" opacity=".199095"/><path d="m-456.66604-57.837676c-5.8007 26.29016-17.4021 52.2064005-34.8043 75.40925" opacity=".199095"/><path d="m-433.46314-34.634836c-5.8008 17.40214-11.6015 34.80427047-23.2029 52.20641" opacity=".199095"/><path d="m-427.66244 17.571574 17.4021-29.00356" opacity=".199095"/></g><path d="m-384.86194-128.55622v145.017814" stroke-width="3.867142"/><g stroke-width="3.917717"><path d="m-286.24984-82.150518-98.6121 98.612112"/><path d="m-245.64484 16.461594h-139.2171"/><path d="m-285.28304 116.04048-99.5789-99.578886"/><path d="m-385.82874 16.461594h-139.2171"/><path d="m-483.47404 115.0737 98.6121-98.612106"/><path d="m-483.47404-83.117318 98.6121 99.578912"/><path d="m-384.86194 16.461594v145.984596"/></g><path d="m-384.95924-128.41302c29.1009 23.05965 63.9052 37.187292 98.7094 46.262502 8.92 38.062562 23.2028 66.318282 40.605 98.612112-23.2028 31.71697-34.8042 63.80784-40.605 98.612106-40.605 5.80072-69.6085 23.20285-98.6121 46.4057-29.0035-29.00356-52.2064-40.60498-98.6121-46.4057-2.5744-34.804266-14.3788-66.318286-40.605-98.612106 25.5104-43.83131 31.9199-55.12274 40.605-98.612112 40.605-13.69021 69.6086-23.202852 98.5148-46.262502z" stroke-width="3.867142"/><g stroke-width="3.917717"><path d="m-384.90174-93.663718c23.2427 17.31391 48.5688 28.915332 75.4491 34.716052"/><path d="m-384.60564-61.162266c17.1459 13.81602 34.548 22.13684 51.9501 25.41744"/><path d="m-355.85834-12.541966-29.0036-17.40215"/><path d="m-384.86194-93.663718c-23.2028 17.31391-49.1456 25.999012-75.4491 34.716052"/><path d="m-385.15804-61.162266c-13.8555 11.35685-31.749 19.61674-51.9501 25.41744"/><path d="m-414.03174-12.521166 29.13-17.42295"/><path d="m-384.86194 126.67512c23.2029-20.83139 48.5422-31.855956 75.4093-34.804276"/><path d="m-384.86194 91.870844c17.4022-14.07989 29.0036-20.89535 52.2064-23.20284"/><path d="m-355.85834 45.465154-29.0036 17.40213"/><path d="m-384.86194 126.67512c-29.0035-25.44641-38.1585-29.003546-75.4092-34.804276"/><path d="m-384.86194 91.870844c-14.5178-17.40212-32.4968-23.20284-52.2064-23.20284"/><path d="m-413.86544 45.465154 29.0035 17.40213"/><path d="m-460.27114 91.870844c-5.8008-31.48202-15.1267-52.2064-34.8043-75.40925"/><path d="m-437.06834 68.668004c-2.5424-20.86338-11.6014-34.80427-23.2028-52.20641"/><path d="m-431.26764 16.461594 17.4022 29.00356"/><path d="m-309.45264 91.870844c5.8007-29.00356 17.402-52.2064 34.8043-75.40925"/><path d="m-332.65554 68.668004c5.8007-23.20285 11.6015-34.80427 23.2029-52.20641"/><path d="m-338.45624 16.461594c-8.1082 8.51411-13.9089 17.40214-17.4021 29.00356"/><path d="m-309.45264-58.947666c9.1199 34.80427 19.608 52.2064005 34.8043 75.40926"/><path d="m-332.65554-35.744826c3.6961 19.70965 11.6015 34.80427047 23.2029 52.20642"/><path d="m-338.45624 16.461594-17.4021-29.00356"/><path d="m-460.27114-58.947666c-5.8008 26.29017-17.4022 52.2064005-34.8043 75.40926"/><path d="m-437.06834-35.744826c-5.8007 17.40215-11.6014 34.80427047-23.2028 52.20642"/><path d="m-431.26764 16.461594 17.4022-29.00356"/></g></g><g transform="matrix(.545462 0 0 .545462 33.449741 -142.323328)"><path d="m212.71398 653.08099s.72057-.16297.26747 1.81075c-.7518 3.17139-4.20701 4.3794-6.35196 6.53163-2.92328 1.96435-3.43677 5.44774-.66864 7.37232-2.98746-.93748-7.12226-3.79741-4.68041-7.37232 2.6713-3.42234 8.89278-4.84508 8.22414-10.15312-1.88903-5.82802-10.07224-3.09896-12.10219-9.76509-2.0479-.57944-4.92112-.82079-5.2822-3.42748-.14629-1.81281.57078-3.33436 1.40415-4.85021 9.5908-6.31174-1.05806-13.09168-7.48864-15.65001-.75503-.84872-.62772-1.9437-.60179-3.03946-.86921-3.75859 6.49371-5.30548 3.94491-8.4717-2.44131 2.59195-9.00778 6.2212-7.75611 10.60579 4.13748 3.06533 8.8152 6.17722 12.3028 9.70042l-12.70398-9.05372c-2.15085-3.09379 1.03798-5.59521 3.0757-7.631l-4.6804 1.42273c6.927-2.98515 1.36749-7.68532-3.74434-8.01902-.82429-.70205-.56968-1.81617-.60174-2.78078 5.34905-5.35722-5.79033-.67308-7.42178-5.23823-2.05835-3.01359 1.4298-5.21235 2.3402-7.69566-5.35709-2.21842-10.79975-7.50424-4.81417-12.67521-.94032-4.30699-5.02003-8.3346-1.67156-12.86922-5.03075 5.35204-13.23618 4.36906-18.58791 9.05372l-1.40414 2.26343c-3.4742 20.02166 1.46082 40.89696 13.10515 57.42647 3.56781 7.22746 15.5684 10.51008 14.64301 19.07749-.62264.6917-1.29369 1.38031-2.3402 1.09938l1.93902-1.74607c.39314-.80397.32256-1.99933-.26747-2.71612l-1.67155-2.52211-1.53785-1.09938c-2.84571-2.53789 3.77908 5.67022-.60179 4.97955l.80235-1.29339-.53489-2.06942-2.3402-3.16881c-18.80187-17.41936-26.17819-43.25092-22.59967-67.90292-1.88716.33266-2.69323-1.41652-3.87805-2.3281-3.90481 3.16363-8.45418 9.11322-13.90751 6.20827-2.68787 1.61622-7.73739 3.03687-9.16025-.8407-.46294-8.5312 13.24691-10.67823 10.43063-19.65952l.86921-2.26343c4.88906-2.74198 6.45361-7.79655 5.48281-12.93389-22.65323-1.25898-40.786459-20.20791-48.087884-39.91398-8.341812-30.98961 8.328464-68.83417 41.722524-77.60334 6.29577-1.97708 12.96603-4.02763 19.79143-3.36283 7.79889.28972 15.92674-.44647 23.0677 2.00476l16.18086 8.14836c3.8513 2.38371 8.91417.99927 12.83768 0l.0669 1.22872c-2.6341 6.2988-9.9144 8.33718-16.04709 9.57107l-11.76787-.25867c-4.17495-1.10999-8.43011-.8345-12.83774-.77604-3.5143-.0756-6.9136.22772-10.16316 1.03471-27.36033 1.78023-44.71796 44.15631-19.52397 59.4959 4.68845.57814 8.30439-2.31853 12.10219-4.33286 4.20701-2.7187 8.04496-6.01425 11.63415-9.70041l8.02358-9.05372c1.89192-2.66956 3.80852-5.40119 6.41881-7.50166 13.74437-19.70349 45.57382-23.42328 61.38025-4.91488l6.01764-3.36281c21.95247-16.79854 48.38205 6.20568 60.31043 24.57439l6.41882 6.9843c2.47396 1.62812 5.25008 2.91272 8.22419 3.16881 2.14385.58254 4.54133.19204 6.61943-.32335 15.64056-8.91921 13.83261-30.912 6.1514-44.36325-6.87623-8.25182-18.20813-11.31198-28.56391-10.1531l-12.03534-.77603c-3.83521-1.01868-7.61167-3.13-9.82884-6.53162-.27545-1.64545-1.35972-3.38868-.53488-5.04421 6.49907 3.20501 14.48517 3.64735 20.99497-.12934 19.41165-13.64009 51.32399-11.26284 61.78137 12.02851 5.1324 11.50599 6.95643 24.58216 5.4159 37.45655 1.63146 25.55478-20.32096 51.47688-47.82041 50.00242l6.41887 12.02852c1.32684 2.44709 5.4694 9.34344 7.22122 3.75082.27146-.2529.63571-.82181.93606-.25867 1.09493 2.77561-.73818 5.63141-2.67453 7.63099-15.30092 3.24641-35.14319.36215-44.26328-13.06323l.26747 17.20208c4.67504 7.25074 12.276-2.95669 16.98315 2.19876 2.67453 5.54347 4.79546 11.4827 2.67453 17.71943l-12.70393 13.58058c-.96686 4.29405 7.29607 5.27703 7.15432 9.76509-3.16663 3.97329-7.8176 6.90152-12.23595 9.11839 4.04923 3.98881 3.6213 11.33527-.66859 15.13265l-2.60767.8407c-7.20246-2.69283-19.98938 5.04164-13.17201 12.73989l.8692 2.52211c-.0264 1.58207.22152 3.21795-.60173 4.59153-1.29396 3.83102-4.65634 6.2419-8.02358 8.27769-9.81817 3.6577-15.19659 14.91535-9.76198 24.05706l2.54076.12933c-6.37871 2.25332 2.80025 3.52578 5.34905 3.23348-3.44744 1.6053-9.41699 1.3218-9.62828-3.4922-7.74002-5.99357-3.84085-1.89608-2.07273-.56908l.46803 1.48741c-1.01468-.32179-2.24791-.85213-3.62853-1.54564-1.38056-.69351-5.26474-6.47959-6.86879-7.45409-1.6041-.9745-2.07186-2.35144-1.36771-6.15468-.68385 7.52239-.68385 8.20624-.99613 9.57395-.45807 2.00617-4.4747-5.47083-4.82538-7.52239-.3213-1.87961-2.32685-6.33128-3.40001-7.52239-1.07321-1.19112-5.82326-10.25781-8.85859-8.5811.0156 1.74256.0503 5.42577.0975 4.67075z" fill="#fff"/><g transform="matrix(.267452 0 0 .258678 54.91812 390.1992)"><path d="m826 767 1-1c1.885.1398-.1397-1.885 0 0l-1 1-17.75 13.75-1-1.5c10.62-10.6 24.4-23.95 37.5-28l-6 8.5c13.97-10.8 29.2-20.12 44.5-28.5 13.37.0383 23.43-15.31 23.75-28.25-3.247-16.59-4.925-33.43-12.25-48.75-14.48-16.97-34.25 11.8-51.5-.5l-15-12c-18.25-43.42-41.71-85.69-71-123l-8.25-16.75c-3.201-26.68 1.74-57.32 21.25-77.75 5.015-2.88 10.42-5.98 16.5-5l-10.75 5.75 6.25 12.25-25 39.5c8.004-12.69 32.82-22.1 42.5-8.5.7192 1.932.5356 6.393-2.5 5.5l-2.5-6.5c-20.78-7.608-44.89 15.11-40.5 35.5 13.69-3.711 32.32-13.64 48.5-6.5l8 3.5c3.015-2.865 4.752-17.65-1.5-13l-1-1.5c11.88-12.01 12.06-31.09 5.5-46l-37.5-45 22.5 17c8.83 9.49 17.04 19.52 21.5 31.5 3.956 12.18 4.715 28.53-3.25 39.25.8914 6.265.6852 13.01-2 19 11.79-1.48 18.26 21.94 3.25 20.75l-1.5-5.5-4.5-3.5-5-.5c8.282 15.71-9.022 33.63-25.25 26.75l-1 3c7.476 9.035 29.1 11.09 34.25-3.75 5.704.5932-1.475 7.15-3 9.5l15.5-11.5-1 7.5c-18.03 8.922-.1219 29.77 2 43l.25-13.75c-.6678-3.01.2716-13.71 3.75-7.75 18.06 41.67 69.76 60.85 111 50l-13.75 7.75-1.75.75c12.35 5.899 26.96-.1973 39.75-.75 7.805 7.46 26.83 2.703 33.75-8.25l-11.5-3-7-7-90.5-165.5c-15.63-18.12-35.02-31.26-56-42l-8.5.5-9.25-6.75-14 3-3-7c-3.552 3.55-6.143 9.548-12 10l3.75-10.75-8 6c-2.027-2.512-3.317-5.055-2-8-18.67-5.461-42.67.9236-56 17.5l-5.5 2.5c6.501 8.576 11.81 22.71 3.5 32.5-5.311 9.125-15.63 11.39-25.75 10.25-1.981-1.101-8.419-1.21-4.75-4.75 2.687.203 3.753-.8884 5-3 17.16-2.131 9.151-27.54 4.5-38-17.26-7.361-30.26-25.41-30.75-44.25l-5.25-8.75c-.3385 15.25 3.911 33.12 14 46 7.697 7.27 23.75 19.04 16 31.5l-7-17.5c-26.27-1.832-45.07-25.58-47-51-4.355 10.93.522 25.76 7.5 35.5 9.56 13.47 32.93 12.27 42.5 27l-2.75 1.25c-11.47-9.092-25.19-14.54-38.75-19.25-8.203-10.76-13.68-22.96-14.5-36.5-3.813 2.601-8.224 3.113-12.5 2-3.61 3.009-11.21 7.702-14 2l-26.5 15.5-10 8-1-6.5c-5.613.5826-9.062-3.549-12-7l-4.75 9.75-9.25-6.75c-5.771 2.56-7.853-.0694-6-6l-12.5 6.5c4.11-8.489.82-14.68-4-21.5l-3 11.5c3.562-.2002 7.495.3595 5.5 5l-3 3c-5.06-1.878-9.593-1.048-12 5-7.939 1.9-8.767-.9202-6.75-6.75-2.557 1.729-5.831 6.466-8 2-3.254 2.324-8.678 3.763-11.75 1.25l-13.5 12.5c-43.34 7.616-95.1 21.29-124 62l-9.5 8.5c-9.164 19.37-14.48 40.61-28 58l-14.5 67.5c-6.577.5115 2.252-13.75-5.75-8.75.9202 17.79 4.214 41.4-15.75 50.25l-6 7-1.25 9.75c6.847 27.12-24.76 37.78-36.75 57.25-3.037 5.401-1.928 10.98 0 16.5 3.05 4.314 7.356 1.856 11.75 2.25 15.49-3.26 22.96-22.2 40.75-20.25 5.665-8.894 15.08-15.44 26-14 11.88-15.94 33.17-11.66 50-13l14-14.5-5 13.5 16.25-5.75c1.885.1398-.1397-1.885 0 0l-.75-4.75 13-11c5.529-1.636 9.497-7.655 13-12 8.896-6.99 16.11-16.53 22-26l1.75 1.75c-1.144 3.357-8.563 8.651-3.25 9.75l-4.5 8 8.5-4 17-20 9.5-22.5 2.5-2.5 12.25-37.75 3-24c2.793-5.148 2.951-11.06 3-17l5-17 1-20 6.25-16.75 28.5-25.5v-1.5l-3.75-1.25c-13.37 4.345-24.75 15.75-30.25 28.75l-26 31-12.5 8v-1.5l18-16 2.5-2.5 6.25-11.75 1-1c1.885.1397-.1397-1.885 0 0l-1 1-3 2-.75-.25 7-10.5 1.75-2.25 1-1 1-1c1.885.1397-.1397-1.885 0 0l-1 1-1 1-17.75 14.75 38-45.5c20.93-1.169 40.1 1.382 51.5-18 3.774 3.816-2.209 7.507-3.5 11l4.75 4.75c-6.37 20.56-24.05 36.86-38.25 53.75-1.904 1.945-4.401 7.769-7.5 5 16.06-11.69 4.296-25.09 7.5-37.5l-19.5 19c-15.81 71.31-20.09 155.3-87 202-3.041 6.942-5.392 13.94-5.25 21.75l10 23c-.0867 21.44-2.502 45.95 20.75 54.25l3.25 7.75c-8.006 34.38 48.14 36.47 57.25 64.75 3.533-1.827 8.976-.6508 10.75 3.25-1.214 14.95-26.6 23.83-15.75 41.75l9 6c30.78 2.791 50.84 39.66 19 57.5l-4.25 8.75c-.1292 5.23-.6155 10.83 3.25 14.75l11.5 3c.006-14.79 10.76-24.42 21-34 3.418-9.109 7.455-5.239 1.5 1.5-9.155 8.832-19.45 17.74-20.25 30.75 5.895 12.99 16.97 25.98 32.75 24.75-6.751-9.722-22.34-19.76-16-33 1.613-7.577 9.187-11.34 3.25-1.75-2.569 3.893-4.029 8.372-1.75 12.75l28.75 39.25c2.837 17.11-12.93 28.11-25.75 35.25l-7 10c-1.98 6.145 1.265 10.91 6 14.5.7526-22.48 35.34-28.4 36.75-51.75l-.75-17.75c3.798 6.249 3.444 17.12 1.75 24.75-2.811 12.26-15.73 16.93-23.75 25.25-10.93 7.594-12.85 21.06-2.5 28.5-11.17-3.624-26.63-14.68-17.5-28.5 9.988-13.23 33.25-18.73 30.75-39.25-7.063-22.53-37.66-11.98-45.25-37.75-7.657-2.24-18.4-3.173-19.75-13.25-.547-7.008 2.134-12.89 5.25-18.75 35.86-24.4-3.956-50.61-28-60.5-2.823-3.281-2.347-7.514-2.25-11.75-3.25-14.53 24.28-20.51 14.75-32.75-9.128 10.02-33.68 24.05-29 41 15.47 11.85 32.96 23.88 46 37.5l-47.5-35c-8.042-11.96 3.881-21.63 11.5-29.5l-17.5 5.5c25.9-11.54 5.113-29.71-14-31-3.082-2.714-2.13-7.021-2.25-10.75 20-20.71-21.65-2.602-27.75-20.25-7.696-11.65 5.346-20.15 8.75-29.75-20.03-8.576-40.38-29.01-18-49-3.516-16.65-18.77-32.22-6.25-49.75-18.81 20.69-49.49 16.89-69.5 35l-5.25 8.75c-12.99 77.4 5.462 158.1 49 222 13.34 27.94 58.21 40.63 54.75 73.75-2.328 2.674-4.837 5.336-8.75 4.25l7.25-6.75c1.47-3.108 1.206-7.729-1-10.5l-6.25-9.75-5.75-4.25c-10.64-9.811 14.13 21.92-2.25 19.25l3-5-2-8-8.75-12.25c-70.3-67.34-97.88-167.2-84.5-262.5-7.056 1.286-10.07-5.476-14.5-9-14.6 12.23-31.61 35.23-52 24-10.05 6.248-28.93 11.74-34.25-3.25-1.731-32.98 49.53-41.28 39-76l3.25-8.75c18.28-10.6 24.13-30.14 20.5-50-84.7-4.867-152.5-78.12-179.8-154.3-31.19-119.8 31.14-266.1 156-300 23.54-7.643 48.48-15.57 74-13 29.16 1.12 59.55-1.726 86.25 7.75l60.5 31.5c14.4 9.215 33.33 3.863 48 0l.25 4.75c-9.849 24.35-37.07 32.23-60 37l-44-1c-15.61-4.291-31.52-3.226-48-3-13.14-.2921-25.85.8803-38 4-102.3 6.882-167.2 170.7-73 230 17.53 2.235 31.05-8.963 45.25-16.75 15.73-10.51 30.08-23.25 43.5-37.5l30-35c7.074-10.32 14.24-20.88 24-29 51.39-76.17 170.4-90.55 229.5-19l22.5-13c82.08-64.94 180.9 23.99 225.5 95l24 27c9.25 6.294 19.63 11.26 30.75 12.25 8.016 2.252 16.98.7424 24.75-1.25 58.48-34.48 51.72-119.5 23-171.5-25.71-31.9-68.08-43.73-106.8-39.25l-45-3c-14.34-3.938-28.46-12.1-36.75-25.25-1.03-6.361-5.084-13.1-2-19.5 24.3 12.39 54.16 14.1 78.5-.5 72.58-52.73 191.9-43.54 231 46.5 19.19 44.48 26.01 95.03 20.25 144.8 6.1 98.79-75.98 199-178.8 193.3l24 46.5c4.961 9.46 20.45 36.12 27 14.5 1.015-.9777 2.377-3.177 3.5-1 4.094 10.73-2.76 21.77-10 29.5-57.21 12.55-131.4 1.4-165.5-50.5l1 66.5c17.48 28.03 45.9-11.43 63.5 8.5 10 21.43 17.93 44.39 10 68.5l-47.5 52.5c-3.615 16.6 27.28 20.4 26.75 37.75-11.84 15.36-29.23 26.68-45.75 35.25 15.14 15.42 13.54 43.82-2.5 58.5l-9.75 3.25c-26.93-10.41-74.74 19.49-49.25 49.25l3.25 9.75c-.0989 6.116.8281 12.44-2.25 17.75-4.838 14.81-17.41 24.13-30 32-36.71 14.14-56.82 57.66-36.5 93l9.5.5c-23.85 8.711 10.47 13.63 20 12.5-12.89 6.206-35.21 5.11-36-13.5-28.94-23.17-12.79-71.13 18-85.5l21-20c6.464-8.131 10.03-17.64 11.25-27.75l1-15c14.98 51.24-58.61 62.94-61.75 106.8l25-35.5c31.49-18.49 81.5-53.9 40-90.5l-3.5-11.5-2.75-6.25c-21.6 5.405-32.46 35.62-15 51l1 16c-6.197 14.74-20.17 26.36-33.25 35.75-19.74 13.9-26.81 38.21-22.75 61.25 1.636 8.257 7.389 13.87 14 19l1.75 5.75c-30.35-9.952-53.8-44.41-28.5-72.5 10.92-11.93 24.35-19.77 39.5-23.5 16.44-16.99 35-41.49 8.5-59l-1.25-10.75 3.75-16.75c-11.97-3.684-13.48 15.23-12.5 26.5l5.5 6c-15.52-5.222-7.086-37.25 7-43.5l-4.5 2-4 2-12.5 8.5c-.9545 1.373-3.804 3.726-4.75 1.25l9.25-7.75 8-5 2.5-2-29.5 16.5 4.75-5.75 7.75-6.25c11.64-8.788-4.316-1.849-9.5.5l-11 6.5 7.75-11.75c-7.165 5.977-25.61 11.34-9.25 1.75 13.51-6.829 29.38-16.38 44.25-11.75 35.11-21.29 76.65-6.15 115.8-10.25 22.26-27.28-1.754-61.55-34-58.5l-36.75.75-23 7c-71.65 32.39-119.7-56.78-148.3-109.8-5.121-6.902-12.75-11.09-20.5-11 16.8-5.822 27.2 16.79 34.5 29l13 20.5c3.43-17.94 8.868-39.17 24-50.5l-1.75 3.75c-10.51 14.15-17.34 30.94-17 49 12.97 40.14 61.42 80.33 103 55 3.85.4542 13.92-2.851 12 3-17.31 3.992-34.81 10.35-52.75 10.75 8.289 2.993 16.55 5.604 25.75 5.25 46.7-18.31 95.12-34 147-25l17.75-15.25c.9638-16.56-28.01-19.3-25-36.5-8.249 6.531-5.824-3.004-2-8l-17.5 15.5 6.5-9c15.31-19.5-17.62 15.07-14.5 5.5l5-6c1.336-1.539 7.367-6.087 2-5l-18 16.5 7.75-15.75z" fill="#1c1c1c" stroke="#1c1c1c"/><path d="m186 312-43-9 36.25 11.75 33.5 13 2.25-2.75 3.75 2.25c-3.916 32.47 2.829 69.36 28.25 91.75l-17 22 7-14c-.948-8.641-5.218-2.549-8.75.75-6.692-2.655 2.932-19.57-7.5-10l-2.5-1 6.5-15.5-15.5 10.5c4.703-7.341 11-14.13 5.5-22.5l-13.5 6.5 7.5-14.5-1.75-1.25c-8.148 6.372-4.392-9.529-3.25-13.75l-14.5 2.5 8.75-7.75h-3l-46 12c-8.435 1.11-20.99-1.467-26 5 3.315 1.992 9.056-.2317 13-1l14.75-.75-12 4.5-10.75 4.25 55.75-11.75-8.75 4.75-36.75 15.25 1 6.5 42.5-13.5-47.75 20.75 32.75-7.25 21-8.5-1 3.5c-19.82 9.894-42.65 17.8-61.75 24.25 5.425 3.859 13.81-1.353 20-3l24.75-9.25 27-12.5c-21.23 19.5-50.34 25.81-75.5 38v3.5l26.5-9.5h9l-26.75 17.75c12.73 3.245 27.41-9.857 40-15l11.75-7.25 12-6.5-38.5 26.5c3.865 2.678 8.685-2.507 12.75-3.75l23.75-13.75-37.5 24-20 10.5 43.5-17.5c-.9446 1.289-1.256 4.255 1 4.5l9-2.5c-2.283 6.559-9.989 8.938-15.5 13l-29 17.5c16.94-3.441 32.09-15.1 46.75-24.75l3.75-1.75c-12.09 14.82-26.62 26.71-44.5 35v2.5c2.692.8587 5.585-.0675 7.5-2l15-9 12-7.5c1.025 6.566 8.055-.5522 11-2l-41.5 27v3.5l11.75-5.75 14-8 20-12c8.814-6.557 6.247 1.431-.75 4.25l-38 24.5c20.87-7.895 43.73-20.11 58.5-37.5-2.127-2.53 3.225-4.814 5-5-10.08 25.77-40.95 36.92-63.5 50.5-9.928-10.16-15.53-22.59-22.5-34.5-9.644-12.14-15.46-26.8-21.5-40.5-29.83-105.1 15.12-234.5 119.5-281 9.951-6.815 21.12-10.85 32.25-14.75 31.07-10.21 65.74-17.01 99-11 36.17-.5052 73.8 6.103 102.3 30.75l21.75 11.25c11.07 2.356 21.82.8429 32.75-1.75-10.82 26.21-48.13 27.15-72.5 26.5l4.5-3c6.867-4.773 3.651-17.05 4-25.5l-5.5.5c-2.582-10.83-12.22-5.162-19-7.5.1579 10.91-.55 23.93-5.5 34.5l-3.75.25c-2.847.8031-7.138-.6389-3.25-3.25-.21-7.174 3.257-12.81 6.25-18.75l-.25-15.75-4.75-7.25-5.25 43.75-18.75-.75-1-15v-7c1.102-4.119 1.262-8.408 5.75-8.75l.25 11.75c-1.81 3.379-2.336 15.75 2 8l1-4c2.365-13.63 6.77 3.012 1 8l1.75 2.75c11.26-12.81 14.43-32.78 3-47.5l-3.5 1 .5 13.5-6.5-14.5c-6.239.3056-.333 18.13-5 10.5 3.692-10.41-8.252-12.72-7.25-1.75l-2.75 24.75 6.5-9.5c-.4713 9.411-.165 20.1-7 27.5h-11.5l13.75-46.75c.6162-3.678-2.075-5.22-5-6l-12.25 52.75-6.75.25-12.75-.25 1.75-31.75c-2.287-7.699-.4564-19.39-7.75-23.75 2.705 15.53 6.1 35.9 2.5 53.5l-47.5 15.5-45.25 36.75-5.75-8.25 2.75-4.75-36.75-32.25c-1.939-2.995-11.93-7.882-8-1l4 3-7 1.5-1 3.5c10.55 13.24 24.46 26.18 37.5 36 1.263-2.505-1.703-3.878-3-5.5l-12.5-13.5c-5.348-5.23-13.8-9.388-16-16.5l20.5 9 12.5 19 1 2.5c10.2 5.501 10.27 13.9 1.5 21-11.01 17.6-20.29 36.03-25 56l-10.5-6c-9.178-14.44-32.68-13.81-48-19.5v2.5c19.72 7.283 40.83 12.47 56.75 27.25l-2.25 10.75c-21.69-14.24-43.71-29.13-67.75-38.75l-4 2 23 11c9.814 3.74 12.76 8.825 16 15z" fill="#cfcfcf" stroke="#cfcfcf"/><path d="m1052 303c19.31-7.253 41.06-15.46 63-12l3.75-1.25-14-6.5-2.5-1 16.5-1.5v-2.5l-18.5-2.5.5-1c-2.36-3.931-.2078-4.163 4.25-3.75l15.75-1.25-43.5-1 3.5-1c1.394-4.153 5.379-4.13 9.25-3.75 8.331-.9203 17.82-2.816 26-1l1.75-1.25-15.5-4c1.224-.9136 8.445-.8564 4.5-4.5l-10.5-1.5c-3.903-4.32 3.972-3.326 6-4.5l6.5-1.5-3.75-2.75-35 4-3.75-.25 25.75-11.75-2-2-28.75 10.75c9.837-7.781 22.57-12.63 34.5-16l-8.75-3.75 6.75-4.25-2.5-7.5 4.5-3-19.5.5c2.834-2.419 16.78-3.39 8.75-8.75 2.629-1.498 4.026-3.801.25-5.25 1.36-1.836.8512-4.453-2-4l.75-7.75-1.25-1.75-13.75 2.75-14.75-2.25 18.5-4v-2.5l-6.5-1c3.061-1.508 10.7.4015 9.5-5l-17.75 2.75h-4l-.75-.75 16.5-5.5.25-1.75-12 1-13.75-1.25v-1.5c7.236 1.119 3.412-4.349 0-6l2.5-1.5-1-3.5c-5.13 2.144-12.19 6.302-16 0l-2.5-.5c3.506-.5021 8.87-2.245 7.5-7.5l-33.5 1.5 6.5-3.5c-3.749-3.255-8.719.3771-12.75.75l2.75-3.75-20.75 5.75 6.75-4.25 5-4-1.75-1.75-26.75 15.75 4.75-6.75 4.75-5.75c-3.069-.9693-6.72-1.058-9.5 1l-3.5 1.5-7 5c-5.184-2.277-9.69-3.161-14.75 1.25l-3-3-25.75 11.25c-1.734-.5495-4.378-6.433-1-9l29.75-11.25c17.65-6.917 36.57-12.8 56-8 18.23-2.633 35.42 7.711 51.25 15.75 21.56 7.294 37.98 23.08 51.5 41.5 33.37 51.18 35.44 111.4 34.25 172.8l-5 31-14.25 40.75-10-16.5-8-7c-5.18-1.608-5.447-6.045-5.5-10 8.662 2.717 17.15 7.984 24.75 13.75l2.75-1.25-6.5-6-12.5-7.5-15.5-10 15 3 2.5 1 20 11.5c.5869-4.917-5.86-6.823-8.75-9.75-5.746-4.055-18.21-6.486-16.25-14.75l-3.5-3 20.75 8.75 8 6 4.75 1.75v-2.5c-8.123-6.139-18.04-11.23-24.5-20l6.5 1c1.521 1.409 4.185 4.91 6 2.5l-10.75-9.75-13.75-7.75c13.02 2.511 25.88 10.78 31.75 22.75 2.653-1.556-.1765-5.017-1-7l-2.75-14.25-6-4.5 19.5 8.5c1.148-3.31-3.644-4.226-5.75-5.75l-6.25-3.75c-5.131-.8445-10.31-4.648-15.5-2.5l-15-8.5 21.75 4.75c5.887-2.337 12.05-1.446 15.25 5.75l3.5 1c-1.243-8.614-12.06-10.61-17.5-14.5l11.5 2.5c-.8673-3.369-1.625-7.929-5.5-9.5h7.5c1.467 1.083 5.342 1.497 6.25-.25-12.99-4.473-27.23-9.031-42-9l-5-3-44.75 3.25-.5 4.5-12.5 4v-9.5l30.5-9.5 37.25-4.75c9.929.2653 20.44-.19 29-3l-6-3-60 6z" fill="#e9e9e9" stroke="#e9e9e9"/><path d="m374 133c-1.885.1398.1397-1.885 0 0z" fill="#0f0f0f" stroke="#0f0f0f"/><path d="m361 133 1.75 3.25v.5c-2.446 1.112-1.646-2.45-1.75-3.75z" fill="#0f0f0f" stroke="#0f0f0f"/><path d="m374 133 .75.25 2 8.5h-1.5z" fill="#0e0e0e" stroke="#0e0e0e"/><path d="m320 135c-1.885.1398.1397-1.885 0 0z" fill="#141414" stroke="#141414"/><path d="m331 134c1.834-.6653 2.559 1.431 1.75 2.75z" fill="#0b0b0b" stroke="#0b0b0b"/><path d="m339 134c2.028-.5022 3.817 1.958 2.75 3.75h-.5z" fill="#0e0e0e" stroke="#0e0e0e"/><path d="m322 138-2-3z" fill="#0f0f0f" stroke="#0f0f0f"/><path d="m315 137c-1.885.1398.1397-1.885 0 0z" fill="#050505" stroke="#050505"/><path d="m317 140-2-3z" fill="#0b0b0b" stroke="#0b0b0b"/><path d="m371 137 .75.25v10.5h-.5l-1-9.5z" fill="#0c0c0c" stroke="#0c0c0c"/><path d="m322 138 1.75 2.75z" fill="#0d0d0d" stroke="#0d0d0d"/><path d="m333 138 1.75 4.75h-.5z" fill="#0c0c0c" stroke="#0c0c0c"/><path d="m307 139c1.834-.6653 2.559 1.431 1.75 2.75z" fill="#0a0a0a" stroke="#0a0a0a"/><path d="m282 142-.75-1.75z" fill="#0b0b0b" stroke="#0b0b0b"/><path d="m318 142-1-2z" fill="#101010" stroke="#101010"/><path d="m345 147-3-6 .25-.75 1.75 2.75z" fill="#101010" stroke="#101010"/><path d="m362 140 .75.25 1 8.5h-1.5z" fill="#0d0d0d" stroke="#0d0d0d"/><path d="m292 147-3-1 1 5 .25 5.75-3-13.5 2.75-2.25 1 1z" fill="#0d0d0d" stroke="#0d0d0d"/><path d="m282 142 1.75 3.25v.5c-2.446 1.112-1.646-2.45-1.75-3.75z" fill="#121212" stroke="#121212"/><path d="m302 156-1.75-7.25-2-6.5h1.5l1.5 4.5 1.5.5 3.25 12.75 1 2-1.75 17.25.5 1.5-.75.25-1-1v-13l-1.25-10.75z" fill="#080808" stroke="#080808"/><path d="m320 146-2-4z" fill="#0e0e0e" stroke="#0e0e0e"/><path d="m326 146-1.75-3.75z" fill="#101010" stroke="#101010"/><path d="m310 148-.75-4.75z" fill="#0c0c0c" stroke="#0c0c0c"/><path d="m375 143 1.75.75z" fill="#141414" stroke="#141414"/><path d="m336 147-.75-2.75z" fill="#0b0b0b" stroke="#0b0b0b"/><path d="m977 145-2.75 2.25-5.5 4.5h-1.5l4.5-4z" fill="#989898" stroke="#989898"/><path d="m322 151-2-5z" fill="#0f0f0f" stroke="#0f0f0f"/><path d="m327 148-1-2z" fill="#101010" stroke="#101010"/><path d="m376 146c1.885-.1398-.1397 1.885 0 0z" fill="#141414" stroke="#141414"/><path d="m282 147 2.75 5.25v.5l-2.5-5z" fill="#0f0f0f" stroke="#0f0f0f"/><path d="m293 149-1-2z" fill="#0f0f0f" stroke="#0f0f0f"/><path d="m336 147 .75 3.75z" fill="#0e0e0e" stroke="#0e0e0e"/><path d="m346 151-1-4z" fill="#0c0c0c" stroke="#0c0c0c"/><path d="m311 153-1-5z" fill="#0d0d0d" stroke="#0d0d0d"/><path d="m327 148 1.75 4.75h-.5z" fill="#0f0f0f" stroke="#0f0f0f"/><path d="m376 148 .75 5.75h-.5z" fill="#0e0e0e" stroke="#0e0e0e"/><path d="m295 155-.75-.25-1.25-5.75z" fill="#0f0f0f" stroke="#0f0f0f"/><path d="m371 149 1.75.25v8.5h-.5l-1.25-7.75z" fill="#0e0e0e" stroke="#0e0e0e"/><path d="m993 187 11.75-1.75c-2.25 4.538-6.077 9.212-11 12.5l-6 8c-1.979 2.302-5.12 4.815-4.5 8l16-15.5 13.5-4-3.5 5-7 10c-3.655 4.577-10.55 10.16-7 15.5 13.33-13.62 27.88-29.76 47.5-34l16-3.5c-23.05 9.659-46.28 25.33-60.75 46.75-18.62-21.66-46.68-34.22-74-40-33.77-3.206-69.38 5.535-99.75-10.25-8.037-5.927-15.03-13.94-17-23.5l7.5 2c16.93 12.23 37.28 5.606 55 0l2.25 3.75-6.25 3.75c-11.78 2.93-22.56 8.597-35.5 7.5l-2.25 2.75c12.72 3.286 25.39-1.847 37.75-4.75l-5 3.5-12.75 6.25 16.25-.25 1.75.25 24.25-12.75 2.75 1.75 19.25-9.75 2.75 1.75-18.25 8.75-12.5 7c12.21-1.664 24.29-6.881 35-13.5l5.75 1.75 28.75-15.75-7 25.5-3 6c.485 3.6 5.673-3.76 7-6l5.5-8.5c8.848-9.454 19.3-18.31 32.5-19-9.562 7.073-21.64 13.32-28 24.5-3.303 5.193-6.911 10.98-7.5 17l1.75.25c8.028-24.7 34.72-41.39 59.75-44.75l-19.5 7-18 12c-7.609 9.139-12.99 22.5-10.25 33.75l2-4c-1.397-18.96 13.91-32.4 30-39l9.75-1.75-14 8.5-15.5 14.5c-6.11 7.772-7.499 18.94-5 28.5l15.5-16z" fill="#dedede" stroke="#dedede"/><path d="m257 150c1.885-.1398-.1397 1.885 0 0z" fill="#141414" stroke="#141414"/><path d="m270 153-1.75-2.75z" fill="#0e0e0e" stroke="#0e0e0e"/><path d="m363 150 .75.25v12.5h-.5z" fill="#0e0e0e" stroke="#0e0e0e"/><path d="m322 151 1.75 2.75z" fill="#0d0d0d" stroke="#0d0d0d"/><path d="m346 151 .75.25 1.25 5.75.75 6.75-.75.25-.75-.25-.25-5.75z" fill="#0f0f0f" stroke="#0f0f0f"/><path d="m257 152c1.449-.4173 3.612 1.213 2.75 2.75z" fill="#0f0f0f" stroke="#0f0f0f"/><path d="m337 152 .75.25 1.25 7.75c1.493 2.279 1.493 5.721 0 8l-1 6-1.25 6.75h-.5l.75-4.75 1-5-.25-4.75-.75-4.25c1.439-2.008 1.439-4.992 0-7z" fill="#0c0c0c" stroke="#0c0c0c"/><path d="m270 153 1.75 3.75z" fill="#0f0f0f" stroke="#0f0f0f"/><path d="m311 153 .75 4.75z" fill="#0f0f0f" stroke="#0f0f0f"/><path d="m960 153 3.75 1.25-3 4.5c-1.773 1.011-1.773 2.489 0 3.5v1.5l-12 13h-1.5c2.465-8.502 6.842-16.84 12.75-23.75z" fill="#d7d7d7" stroke="#d7d7d7"/><path d="m245 154c1.885-.1398-.1398 1.885 0 0z" fill="#0f0f0f" stroke="#0f0f0f"/><path d="m283 154 1.75.75z" fill="#141414" stroke="#141414"/><path d="m329 154 2.75 7.75h-1.5z" fill="#0f0f0f" stroke="#0f0f0f"/><path d="m295 155 .75 2.75z" fill="#0b0b0b" stroke="#0b0b0b"/><path d="m302 156-1 8-.75 3.75-.25-7.75c-1.039-1.401-1.655-3.643.25-4.75z" fill="#0c0c0c" stroke="#0c0c0c"/><path d="m325 157-.75-1.75z" fill="#0c0c0c" stroke="#0c0c0c"/><path d="m247 157c-1.885.1398.1398-1.885 0 0z" fill="#111" stroke="#111"/><path d="m261 157c-1.885.1398.1397-1.885 0 0z" fill="#141414" stroke="#141414"/><path d="m248 158-1-1z" fill="#121212" stroke="#121212"/><path d="m263 161-2-4z" fill="#0e0e0e" stroke="#0e0e0e"/><path d="m278 161-.75-.25-2-3.5c2.137-.9207 3.245 2.078 2.75 3.75z" fill="#111" stroke="#111"/><path d="m284 157 .75.25 1.25 9.75-1 1-.75-.25z" fill="#0f0f0f" stroke="#0f0f0f"/><path d="m325 157 1.75 4.25.25.75-.25.75c-3.091.8484-1.262-4.037-1.75-5.75z" fill="#101010" stroke="#101010"/><path d="m249 159-1-1z" fill="#0d0d0d" stroke="#0d0d0d"/><path d="m274 162c-1.613-.2975-2.595-2.288-1.75-3.75h.5z" fill="#101010" stroke="#101010"/><path d="m1028 158 2.75.25v1.5l-1.75.25-7.75 1.75c-2.262-1.022.092-3.308 1.75-2.75z" fill="#afafaf" stroke="#afafaf"/><path d="m245 161-3.75-1.25v-.5c1.462-.8447 3.452.1373 3.75 1.75z" fill="#0c0c0c" stroke="#0c0c0c"/><path d="m254 164-5-5c2.339.0267 4.973 2.661 5 5z" fill="#0f0f0f" stroke="#0f0f0f"/><path d="m291 159 .75 4.75z" fill="#0c0c0c" stroke="#0c0c0c"/><path d="m296 159 1.75 4.25v.5c-2.818 1.013-1.43-3.262-1.75-4.75z" fill="#101010" stroke="#101010"/><path d="m312 159 .75 4.75z" fill="#0f0f0f" stroke="#0f0f0f"/><path d="m372 159c1.885-.1398-.1397 1.885 0 0z" fill="#131313" stroke="#131313"/><path d="m246 162-1-1z" stroke="#000"/><path d="m266 168-.75-.25-2.25-6.75.75.25z" fill="#101010" stroke="#101010"/><path d="m278 161 .75 2.75z" fill="#0b0b0b" stroke="#0b0b0b"/><path d="m247 163-1-1z" fill="#101010" stroke="#101010"/><path d="m274 162 2 4 .75 3.75-2.75-6.75z" fill="#0f0f0f" stroke="#0f0f0f"/><path d="m1000 167 .25-.75 9.75-4.25 1.75.25v.5z" fill="#b2b2b2" stroke="#b2b2b2"/><path d="m248 164-1-1z" fill="#111" stroke="#111"/><path d="m250 166-2-2z" fill="#0f0f0f" stroke="#0f0f0f"/><path d="m255 165-1-1z" stroke="#000"/><path d="m327 171-.75-.25v-6.5h.5z" fill="#0e0e0e" stroke="#0e0e0e"/><path d="m362 164c1.885-.1398-.1397 1.885 0 0z" fill="#141414" stroke="#141414"/><path d="m372 164 1.75.75z" fill="#101010" stroke="#101010"/><path d="m467 164 1.75.25 1.25 2.75-1 14-.25 2.75h-3.5l-.25-2.75z" fill="#3b3b3b" stroke="#3b3b3b"/><path d="m256 166-1-1z" fill="#0a0a0a" stroke="#0a0a0a"/><path d="m291 165 1.75.25v11.5h-.5z" fill="#0e0e0e" stroke="#0e0e0e"/><path d="m252 168-2-2z" fill="#0a0a0a" stroke="#0a0a0a"/><path d="m257 167-1-1z" fill="#141414" stroke="#141414"/><path d="m278 166 1.75.25 1.25 11.75 1 11 1 2-1 2 .75 10.75-.75-7.75-2-8-1-2-2-14 2-2z" fill="#080808" stroke="#080808"/><path d="m297 166 1.75 7.25v.5h-1.5z" fill="#0f0f0f" stroke="#0f0f0f"/><path d="m312 166 1.75.75z" fill="#121212" stroke="#121212"/><path d="m372 166 1.75.75z" fill="#141414" stroke="#141414"/><path d="m942 166c1.885-.1398-.1397 1.885 0 0z" fill="#121212" stroke="#121212"/><path d="m235 169-2.75-1.75z" fill="#0d0d0d" stroke="#0d0d0d"/><path d="m264 176-1.75-1.25-5.25-7.75c2.962 2.196 6.641 5.117 7 9z" fill="#0e0e0e" stroke="#0e0e0e"/><path d="m1000 167-.25 5.75-7.5 7.5-.5 1.5-1.5.5-14 17.5 3-15.5z" fill="#e1e1e1" stroke="#e1e1e1"/><path d="m252 168c1.885-.1398-.1398 1.885 0 0z" fill="#0e0e0e" stroke="#0e0e0e"/><path d="m265 186 4.75 5.75-4.75-13.75 2.25 2.75 2 4h.5l-2-9.5c-1.984-1.799-3.824-4.881-1.75-7.25l7.25 14.75h.5l1-4.5 1.25 9.75c1.595 3.467 1.595 8.533 0 12l-1 5-.25 2.75h-.5l-9-20z" fill="#080808" stroke="#080808"/><path d="m312 168 1.75.75z" fill="#121212" stroke="#121212"/><path d="m347 168 1.75.75z" fill="#131313" stroke="#131313"/><path d="m478 169c-1.885.1398.1397-1.885 0 0z" fill="#121212" stroke="#121212"/><path d="m938 170 2.75-1.75z" fill="#111" stroke="#111"/><path d="m993 187 .25-1.75c5.665-6.438 11.4-14.63 19.75-17.25l2.75.25-5.5 4-5 6-1.5 2.5z" fill="#cfcfcf" stroke="#cfcfcf"/><path d="m213 169 2.75 1.25 17.5 13.5 1.5.5 6 6 11 11 3.25 8.75-1.25 1.75-2.5-1c-6.371-12.73-18.44-22.78-29.5-31.5l-3.5-1.5-6-5z" fill="#343434" stroke="#343434"/><path d="m237 170-2-1z" fill="#111" stroke="#111"/><path d="m300 169 1.75.25v14.5h-.5z" fill="#0e0e0e" stroke="#0e0e0e"/><path d="m372 169 .75 4.75z" fill="#0d0d0d" stroke="#0d0d0d"/><path d="m479 172-1-3z" fill="#121212" stroke="#121212"/><path d="m239 172-2-2z" fill="#0b0b0b" stroke="#0b0b0b"/><path d="m255 188 3.75.75-1.75-3.75-5.75-8.25-2-6.5h2.5l14.25 25.75-.25 2.75-3.5-1-4.5-7.5z" fill="#070707" stroke="#070707"/><path d="m256 173-2.75-2.75c1.537-.8622 3.167 1.301 2.75 2.75z" fill="#0f0f0f" stroke="#0f0f0f"/><path d="m270 170c1.885-.1398-.1397 1.885 0 0z" fill="#131313" stroke="#131313"/><path d="m285 170 1 1v30l-.75.75-1-2 .75-1.75z" fill="#0e0e0e" stroke="#0e0e0e"/><path d="m347 170c2.017-.4525 1.931.8362 1 2 .6457 2.164-1.646 2.164-1 0z" fill="#101010" stroke="#101010"/><path d="m445 170 2 2c-1.947 2.54-1.047 5.908 1 8l-1.25 11.75-13.5-1 4-12.5 2.5-2 1 8.5 3.25-10.75z" fill="#d3d3d3" stroke="#d3d3d3"/><path d="m938 170-3 1z" fill="#0e0e0e" stroke="#0e0e0e"/><path d="m327 171 .75 3.75z" fill="#0d0d0d" stroke="#0d0d0d"/><path d="m491 171 1.75 1.75z" fill="#0e0e0e" stroke="#0e0e0e"/><path d="m873 171h2c5.475.0414-5.507 4.314-2 0z" fill="#9b9b9b" stroke="#9b9b9b"/><path d="m935 171c.1398 1.885-1.885-.1398 0 0z" fill="#0c0c0c" stroke="#0c0c0c"/><path d="m240 173-1-1z" fill="#0a0a0a" stroke="#0a0a0a"/><path d="m271 172c1.681.7312 3.849 2.684 2.75 4.75h-.5z" fill="#0f0f0f" stroke="#0f0f0f"/><path d="m313 172 .75.25v8.5h-1.5z" fill="#0e0e0e" stroke="#0e0e0e"/><path d="m479 172 1.75 6.25v.5z" fill="#0f0f0f" stroke="#0f0f0f"/><path d="m929 174 2.75-1.75c1.109 1.93-1.588 1.914-2.75 1.75z" fill="#0f0f0f" stroke="#0f0f0f"/><path d="m1037 172 4.75.25c-.6241 4.03-5.249 4.819-8.75 4.75l-9.75.75v-.5l2.75-1.25 4.75-1.25z" fill="#c9c9c9" stroke="#c9c9c9"/><path d="m242 174-2-1z" fill="#121212" stroke="#121212"/><path d="m258 176-2-3z" fill="#101010" stroke="#101010"/><path d="m242 174c1.885-.1398-.1398 1.885 0 0z" fill="#070707" stroke="#070707"/><path d="m491 174c3.682-.4182.5636 2.978.75 4.75l-.75-1.75z" fill="#0f0f0f" stroke="#0f0f0f"/><path d="m929 174c.1398 1.885-1.885-.1398 0 0z" fill="#0c0c0c" stroke="#0c0c0c"/><path d="m297 175 1.75 1.75z" fill="#0f0f0f" stroke="#0f0f0f"/><path d="m371 178 .75-2.75z" fill="#0b0b0b" stroke="#0b0b0b"/><path d="m924 176 1.75-.75z" fill="#101010" stroke="#101010"/><path d="m246 178-1.75-1.75z" fill="#111" stroke="#111"/><path d="m258 176 1.75 2.75z" fill="#111" stroke="#111"/><path d="m265 178-1-2z" fill="#0b0b0b" stroke="#0b0b0b"/><path d="m326 176 .75 2.75z" fill="#0e0e0e" stroke="#0e0e0e"/><path d="m924 176-1.75.75z" fill="#090909" stroke="#090909"/><path d="m915 179 .25-.75 4.5-1z" fill="#0d0d0d" stroke="#0d0d0d"/><path d="m247 179-1-1z" fill="#0b0b0b" stroke="#0b0b0b"/><path d="m371 178-1.25 5.75h-.5l1-5.5z" fill="#0e0e0e" stroke="#0e0e0e"/><path d="m248 180-1-1z" fill="#060606" stroke="#060606"/><path d="m297 179 .75 1.75z" fill="#101010" stroke="#101010"/><path d="m915 179-2 1z" fill="#101010" stroke="#101010"/><path d="m250 182-2-2z" fill="#111" stroke="#111"/><path d="m260 180 1.75 1.75z" fill="#0f0f0f" stroke="#0f0f0f"/><path d="m479 180 1.75.75z" fill="#141414" stroke="#141414"/><path d="m913 180-2 1z" fill="#0d0d0d" stroke="#0d0d0d"/><path d="m911 181-2 1z" fill="#0b0b0b" stroke="#0b0b0b"/><path d="m933 182 1.75-.75z" fill="#111" stroke="#111"/><path d="m1040 182 2.75-.75z" fill="#969696" stroke="#969696"/><path d="m251 183-1-1z" fill="#141414" stroke="#141414"/><path d="m312 182 1.75.75z" fill="#141414" stroke="#141414"/><path d="m909 182-2 1z" fill="#0c0c0c" stroke="#0c0c0c"/><path d="m933 182-1.75.75z" fill="#0b0b0b" stroke="#0b0b0b"/><path d="m1040 182-.25.75-8.75 4.25-.75-.25c2.068-2.836 6.082-4.641 9.75-4.75z" fill="#949494" stroke="#949494"/><path d="m252 184-1-1z" fill="#0b0b0b" stroke="#0b0b0b"/><path d="m265 186-1.75-2.75z" fill="#111" stroke="#111"/><path d="m479 186 .75-2.75z" fill="#101010" stroke="#101010"/><path d="m907 183-2 1z" fill="#111" stroke="#111"/><path d="m929 183c1.885-.1398-.1397 1.885 0 0z" fill="#0c0c0c" stroke="#0c0c0c"/><path d="m215 185-1.75-.75z" fill="#080808" stroke="#080808"/><path d="m255 188-3-4z" fill="#0d0d0d" stroke="#0d0d0d"/><path d="m301 192c-.4151-3.276-.2411-7.385 3.75-7.75.7192 2.257.5356 5.755-2.5 6z" fill="#090909" stroke="#090909"/><path d="m312 184c2.362 1.032.3706 4.097-.25 5.75h-.5z" fill="#111" stroke="#111"/><path d="m905 184c.1398 1.885-1.885-.1398 0 0z" fill="#0c0c0c" stroke="#0c0c0c"/><path d="m927 184c1.885-.1398-.1397 1.885 0 0z" fill="#0c0c0c" stroke="#0c0c0c"/><path d="m1046 184c4.914-.12-2.972 4.047 0 0z" fill="#999" stroke="#999"/><path d="m219 187-4-2z" fill="#0f0f0f" stroke="#0f0f0f"/><path d="m923 186 1.75-.75z" fill="#0b0b0b" stroke="#0b0b0b"/><path d="m479 186c.1397 1.885-1.885-.1398 0 0z" fill="#111" stroke="#111"/><path d="m900 186c1.885-.1398-.1397 1.885 0 0z" fill="#121212" stroke="#121212"/><path d="m923 186-2.75.75z" fill="#111" stroke="#111"/><path d="m221 188-2-1z" fill="#0b0b0b" stroke="#0b0b0b"/><path d="m223 189-2-1z" fill="#0c0c0c" stroke="#0c0c0c"/><path d="m916 188 1.75.75z" fill="#0f0f0f" stroke="#0f0f0f"/><path d="m224 190-1-1z" fill="#0b0b0b" stroke="#0b0b0b"/><path d="m226 192-2-2z" fill="#0f0f0f" stroke="#0f0f0f"/><path d="m228 194-2-2z" fill="#111" stroke="#111"/><path d="m301 192c.1397 1.885-1.885-.1398 0 0z" fill="#111" stroke="#111"/><path d="m229 195-1-1z" fill="#060606" stroke="#060606"/><path d="m230 196-1-1z" fill="#0b0b0b" stroke="#0b0b0b"/><path d="m231 197-1-1z" fill="#131313" stroke="#131313"/><path d="m232 198-1-1z" fill="#0d0d0d" stroke="#0d0d0d"/><path d="m233 199-1-1z" fill="#121212" stroke="#121212"/><path d="m234 200-1-1z" fill="#0b0b0b" stroke="#0b0b0b"/><path d="m235 201-1-1z" fill="#0b0b0b" stroke="#0b0b0b"/><path d="m1013 200 3.75.25-6 5.5h-1.5l2-2.5z" fill="#b2b2b2" stroke="#b2b2b2"/><path d="m196 201c1.885-.1398-.1398 1.885 0 0z" fill="#141414" stroke="#141414"/><path d="m235 201c1.885-.1398-.1398 1.885 0 0z" fill="#111" stroke="#111"/><path d="m201 204-2.75-1.75z" fill="#0e0e0e" stroke="#0e0e0e"/><path d="m204 206-3-2z" fill="#101010" stroke="#101010"/><path d="m204 206c1.449-.4173 3.612 1.213 2.75 2.75z" fill="#121212" stroke="#121212"/><path d="m209 210c-1.885.1398.1398-1.885 0 0z" fill="#0f0f0f" stroke="#0f0f0f"/><path d="m275 209c1.885-.1398-.1397 1.885 0 0z" fill="#131313" stroke="#131313"/><path d="m1033 209 3.25 3.75 7.5-2.5-22 17.5c-6.271 3.284-11.08 9.034-15.5 14.5v2.5l1 1 6 .5 11.5-9.5 19-10.5 2 1.5-4 6c-11.2 5.507-18.66 16.59-25.5 26.5l-1 4.5 2.5 2-.75 5.25-.75-.25-6.5-16.5-9.75-16.25 6.75-7.25 25-21z" fill="#e2e2e2" stroke="#e2e2e2"/><path d="m210 211-1-1z" fill="#0b0b0b" stroke="#0b0b0b"/><path d="m198 212-3.75-.75z" fill="#101010" stroke="#101010"/><path d="m211 212-1-1z" fill="#060606" stroke="#060606"/><path d="m200 213-2-1z" fill="#0a0a0a" stroke="#0a0a0a"/><path d="m211 212 1.75 1.75z" fill="#111" stroke="#111"/><path d="m202 214-2-1z" fill="#0c0c0c" stroke="#0c0c0c"/><path d="m202 214 1.75.75z" fill="#101010" stroke="#101010"/><path d="m1045 214c3.035.7812-1.481 3.546-1.75 1.25l.75-.25z" fill="#949494" stroke="#949494"/><path d="m215 216c-1.885.1398.1398-1.885 0 0z" fill="#0c0c0c" stroke="#0c0c0c"/><path d="m209 218-2.75-1.75z" fill="#0d0d0d" stroke="#0d0d0d"/><path d="m216 217-1-1z" fill="#060606" stroke="#060606"/><path d="m218 219-2-2z" fill="#111" stroke="#111"/><path d="m193 218c1.885-.1398-.1398 1.885 0 0z" fill="#0f0f0f" stroke="#0f0f0f"/><path d="m209 218c1.885-.1398-.1398 1.885 0 0z" fill="#0f0f0f" stroke="#0f0f0f"/><path d="m198 220-2.75-.75z" fill="#0d0d0d" stroke="#0d0d0d"/><path d="m211 219 1.75 1.75z" fill="#0e0e0e" stroke="#0e0e0e"/><path d="m219 220-1-1z" fill="#141414" stroke="#141414"/><path d="m203 222-5-2z" fill="#0f0f0f" stroke="#0f0f0f"/><path d="m225 226c-3.491.7559-5.736-3.149-6-6 2.864.9114 5.089 3.136 6 6z" fill="#0a0a0a" stroke="#0a0a0a"/><path d="m217 224c-1.449.4173-3.612-1.213-2.75-2.75z" fill="#111" stroke="#111"/><path d="m205 223-2-1z" fill="#101010" stroke="#101010"/><path d="m207 224-2-1z" fill="#111" stroke="#111"/><path d="m1016 238 6.75-6.25c3.856-4.405 9.011-6.918 14.25-8.75l1.75.25v.5l-21 14z" fill="#b0b0b0" stroke="#b0b0b0"/><path d="m182 224 8.75 4.75-.75.25z" fill="#0f0f0f" stroke="#0f0f0f"/><path d="m207 224c1.885-.1398-.1398 1.885 0 0z" fill="#070707" stroke="#070707"/><path d="m217 224c1.885-.1398-.1398 1.885 0 0z" fill="#121212" stroke="#121212"/><path d="m213 229-3.75-2.75z" fill="#0f0f0f" stroke="#0f0f0f"/><path d="m226 227-1-1z" fill="#060606" stroke="#060606"/><path d="m229 229-3-2z" fill="#0e0e0e" stroke="#0e0e0e"/><path d="m193 230c-1.885.1398.1398-1.885 0 0z" fill="#141414" stroke="#141414"/><path d="m213 229 1.75 1.75z" fill="#131313" stroke="#131313"/><path d="m230 230-1-1z" fill="#060606" stroke="#060606"/><path d="m195 231-2-1z" fill="#0b0b0b" stroke="#0b0b0b"/><path d="m232 233-2-3z" fill="#101010" stroke="#101010"/><path d="m195 231c1.162-.1645 3.859-.1802 2.75 1.75z" fill="#111" stroke="#111"/><path d="m217 232c-1.885.1398.1398-1.885 0 0z" fill="#0d0d0d" stroke="#0d0d0d"/><path d="m220 234-3-2z" fill="#101010" stroke="#101010"/><path d="m202 235-2.75-1.75z" fill="#111" stroke="#111"/><path d="m233 234-1-1z" fill="#111" stroke="#111"/><path d="m220 234 1.75 1.75z" fill="#131313" stroke="#131313"/><path d="m234 235-1-1z" fill="#111" stroke="#111"/><path d="m179 236-1.75-.75z" fill="#101010" stroke="#101010"/><path d="m204 236-2-1z" fill="#0f0f0f" stroke="#0f0f0f"/><path d="m236 237-2-2z" fill="#0f0f0f" stroke="#0f0f0f"/><path d="m1040 240 1.25-1.75 9.5-3-9 4.5z" fill="#a1a1a1" stroke="#a1a1a1"/><path d="m1064 235 2.75.75c-5.483 2.449-10.44 5.75-14.5 10.5l.5 1.5-2 2-6 3-15 8h-1.5l26-21.5z" fill="#cacaca" stroke="#cacaca"/><path d="m183 238-4-2z" fill="#0e0e0e" stroke="#0e0e0e"/><path d="m205 237-1-1z" fill="#0a0a0a" stroke="#0a0a0a"/><path d="m224 237c-1.885.1398.1398-1.885 0 0z" fill="#0d0d0d" stroke="#0d0d0d"/><path d="m208 239-3-2z" fill="#0c0c0c" stroke="#0c0c0c"/><path d="m225 238-1-1z" fill="#121212" stroke="#121212"/><path d="m237 238-1-1z" fill="#0b0b0b" stroke="#0b0b0b"/><path d="m183 238c1.885-.1398-.1398 1.885 0 0z" fill="#141414" stroke="#141414"/><path d="m226 239-1-1z" fill="#0b0b0b" stroke="#0b0b0b"/><path d="m237 238c1.885-.1398-.1398 1.885 0 0z" fill="#111" stroke="#111"/><path d="m1016 238c.1398 1.885-1.885-.1398 0 0z" fill="#959595" stroke="#959595"/><path d="m186 240c-1.885.1398.1398-1.885 0 0z" fill="#0d0d0d" stroke="#0d0d0d"/><path d="m208 239c1.885-.1398-.1398 1.885 0 0z" fill="#0a0a0a" stroke="#0a0a0a"/><path d="m227 240-1-1z" fill="#0b0b0b" stroke="#0b0b0b"/><path d="m186 240 1.75.75z" fill="#101010" stroke="#101010"/><path d="m229 242-2-2z" fill="#0f0f0f" stroke="#0f0f0f"/><path d="m1013 240c1.885-.1398-.1397 1.885 0 0z" fill="#919191" stroke="#919191"/><path d="m1040 240-3 2z" fill="#939393" stroke="#939393"/><path d="m191 243-1.75-1.75z" fill="#0c0c0c" stroke="#0c0c0c"/><path d="m214 244-3.75-2.75z" fill="#0f0f0f" stroke="#0f0f0f"/><path d="m229 242 1.75 2.75z" fill="#111" stroke="#111"/><path d="m1037 242c.1398 1.885-1.885-.1398 0 0z" fill="#929292" stroke="#929292"/><path d="m193 244-2-1z" fill="#121212" stroke="#121212"/><path d="m162 244 3.75 1.25v.5c-1.462.8447-3.452-.1373-3.75-1.75z" fill="#0c0c0c" stroke="#0c0c0c"/><path d="m194 245-1-1z" fill="#060606" stroke="#060606"/><path d="m216 246-2-2z" fill="#0f0f0f" stroke="#0f0f0f"/><path d="m197 247-3-2z" fill="#0d0d0d" stroke="#0d0d0d"/><path d="m168 247c-1.885.1398.1398-1.885 0 0z" fill="#141414" stroke="#141414"/><path d="m217 247-1-1z" stroke="#000"/><path d="m232 246 .75 1.75z" fill="#0f0f0f" stroke="#0f0f0f"/><path d="m171 248-3-1z" fill="#0d0d0d" stroke="#0d0d0d"/><path d="m171 248 4-1 7.25 3.75c6.939 1.037 13.99 3.641 19 9l10.5 6.5 5 5 7 8-1 3.5-4.5-4-4.5-7.5-14-11-26.5-10.5z" fill="#070707" stroke="#070707"/><path d="m199 248-2-1z" fill="#0c0c0c" stroke="#0c0c0c"/><path d="m218 248-1-1z" fill="#101010" stroke="#101010"/><path d="m201 249-2-1z" fill="#0b0b0b" stroke="#0b0b0b"/><path d="m219 249-1-1z" fill="#101010" stroke="#101010"/><path d="m204 251-3-2z" fill="#111" stroke="#111"/><path d="m225 255-6-6c2.666.3068 5.693 3.334 6 6z" fill="#101010" stroke="#101010"/><path d="m206 252-2-1z" fill="#101010" stroke="#101010"/><path d="m475 310-14-13c-4.126 3.636 3.366 9.802 5 14l4.75 13.75-4-5.5-5-9c-1.719-3.085-2.772-7.928-6.5-9l-1.25 2.75c5.4 9.319 11.74 18.82 11.75 29.75l-5.5-10c-4.136-5.954-5.568-17.32-14-18.5l12 25.5 1.5 5-15.75-26.75-1.75 1.25 1.75 3.75c2.954 4.039 6.579 8.734 6.75 13.75l-1-1.5-5-9c-2.135-1.66-2.845-6.42-6.5-5l-1 1.5c6.906 10.15 15.47 22.08 14 34l-2.25-8.75-4.75-10.25-7.5-13.5c-6.445-1.162-.8323 4.843-1 7.5l-2.5-2-3-3.5-1.25 3.75c7.008 10.94 12.84 24.73 13.25 36.75-5.635-11.04-6.637-26.65-18-33.5l7.5 19.5-5-9.5c-2.505-2.645-7.08-11.76-10.75-6.25 9.286 7.623 14.23 20.27 15.75 31.75l-7-11.5-11.5-11.5c-3.79-2.933-3.802 2.794-1.5 4.5l11.25 17.75c1.859 3.214-.9324 3.549-3.75 2.75-3.213-4.685-6.001-17-12-14.5l9.5 19.5-12.5-19c-1.204-.9096-2.66-3.917-4-1.5l13.75 31.75-5.75-10.25-6-12c.8911-3.786-5.391-3.786-4.5 0-1.788-.3164-4.01-3.107-5.5-.5l6.5 14.5-2.75-1.75-3 1c3.049 4.671 5.532 10.01 5.75 15.75-3.205-7.604-8.019-13.38-15.5-15.5l2.5 9.5-11.5-5.5 5.5 11.5-8.5-4.5 8.5 17.5-12.5-13.5 1.5 5-11.5-1 5.5 13.5-5-4.5-4.75-6.25 30.75-35.25c30.73-43.89 71.06-86.87 123.3-101.8 11.67-1.6 23.24-3.714 35-1 31.67-3.03 62.57 11.93 85.75 32.25l14 12c3.656 8.186 4.184 19.1 2.5 27.5-2.807-7.064-1.3-20.12-9-22.5l-1 2.5c-2.107-5.187-4.515-11.54-11-9.5 1.14 2.58 2.451 12.54-1.25 7.75l-2-14-2 16-1.25 7.75-6-36.5c-1.437-.5553-4.478-.6766-3.75 1.75l-1.75 13.75c1.065 3.631 4.234 8.976 1.75 12.25l-5.25-10.75-3-16-10.5-14-2.25 23.75 2 10-1 3-12.25-38.75-3.5 1c1.568 3.62 4.837 7.053 3.5 11.5-.4934-1.72-2.877-10.2-5.75-4.75l2.75 15.75-6.75-11.75-2 2c3.471 10.05 11.43 20 8.75 30.75l-12.75-26.75-4.75-10.25-3.25-4.75c-5.394 2.425 6.808 12.88-1.75 12.25l-1 1.5c2.646 4.73 7.429 9.143 6.5 15l-4.75-6.75-5.25-9.75-4.5-1 11.5 27.5-21-30.5-2 1.5 5.25 10.25 5 11-.25 4.75-18.5-28.5-.25 2.75c2.965 2.851 2.986 6.211 2.25 9.75l2.75 11.25-.25 5.75c-7.853-3.623-3.688-19.98-13.5-21.5l5.5 20.5c-14.37.5978-11.38-25-22.5-29.5l9.5 25.5-13-8.5-4.5-4.5c-1.167-2.71-6.886-2.391-6 1 5.291 1.517 14.95 12.08 10 14.5-1.362 2.093-2.226 1.438-3-.5-1.36-2.02-2.181-8.179-5.5-6-14.68-13.01 4.673 16.03-6.5 15.5l-.25 2.75z" fill="#e8e8e8" stroke="#e8e8e8"/><path d="m209 254-3-2z" fill="#0c0c0c" stroke="#0c0c0c"/><path d="m1052 253 7.75.25-5.75 2.75-8.75 3.25-2.5 3.5c-7.532 3.386-15 8.04-20.5 14l2 2 19-12.5 13.75-6.25 11.75-2.75-9.5 4-.5 4.5-35.5 16.5v2.5l15-6.5 15.75-6.25c3.27-2.116 6.166-1.672 9.75-.75-3.651 1.46-9.209 2.169-12 6.5-6.849.1076-12.55 4.04-17.5 8.5h8.5l-19.5 14 8.5-1v2.5l-10.5 6-2-31.5c8.4-10.67 20.92-18.31 32.75-23.25z" fill="#d2d2d2" stroke="#d2d2d2"/><path d="m211 256-2-2z" fill="#0a0a0a" stroke="#0a0a0a"/><path d="m228 258c-1.691.4122-3.412-1.309-3-3z" fill="#111" stroke="#111"/><path d="m213 257-2-1z" fill="#121212" stroke="#121212"/><path d="m214 258-1-1z" fill="#0c0c0c" stroke="#0c0c0c"/><path d="m214 258c1.885-.1397-.1398 1.885 0 0z" fill="#101010" stroke="#101010"/><path d="m231 262-3-4z" fill="#0f0f0f" stroke="#0f0f0f"/><path d="m218 262-1.75-2.75z" fill="#0f0f0f" stroke="#0f0f0f"/><path d="m720 259 2.75 1.25.25 3.75 1 14-1.25 6.75-1.5 1-.25-23.75z" fill="#bfbfbf" stroke="#bfbfbf"/><path d="m727 259 2.75.25 2.25 5.75 1 6-1 2c1.607 3.78 1.607 9.22 0 13l-.25 5.75-2 4h-.5l-.25-19.75-1-7z" fill="#cecece" stroke="#cecece"/><path d="m734 259c1.864-.3321 5.667-.00046 4.75 2.75h-.5z" fill="#a0a0a0" stroke="#a0a0a0"/><path d="m165 264-7.75-2.25v-.5l4.75.75z" fill="#111" stroke="#111"/><path d="m220 264-2-2z" fill="#0f0f0f" stroke="#0f0f0f"/><path d="m232 263-1-1z" fill="#121212" stroke="#121212"/><path d="m707 262c3.2-.549 1.876 3.946 1.75 5.75-3.794 1.703-3.228-4.012-1.75-5.75z" fill="#b2b2b2" stroke="#b2b2b2"/><path d="m1068 262 2.75.75z" fill="#959595" stroke="#959595"/><path d="m233 264-1-1z" fill="#101010" stroke="#101010"/><path d="m168 265-3-1z" fill="#0e0e0e" stroke="#0e0e0e"/><path d="m221 265-1-1z" fill="#141414" stroke="#141414"/><path d="m234 265-1-1z" fill="#101010" stroke="#101010"/><path d="m169 266-1-1z" fill="#0c0c0c" stroke="#0c0c0c"/><path d="m186 266-3.75-.75z" fill="#101010" stroke="#101010"/><path d="m224 269-3-4z" fill="#0f0f0f" stroke="#0f0f0f"/><path d="m235 266-1-1z" fill="#131313" stroke="#131313"/><path d="m745 265 5.25 2.75 8 4 4.5-.5 3.25 6.75-1.25 9.75-1.75 1.25-1.25-3.75c-2.304-1.168-4.007-3.642-3-6l-2.75-4.25-2-4c-2.482.5057-2.358 3.485-1 5l-1 8-1.25-8.75c-3.033.0765-5.937-.3504-4.75-4.25-1.39-1.774-3.023-3.902-1-6z" fill="#d0d0d0" stroke="#d0d0d0"/><path d="m173 268-4-2z" fill="#101010" stroke="#101010"/><path d="m188 267-2-1z" fill="#0f0f0f" stroke="#0f0f0f"/><path d="m235 266c1.885-.1397-.1398 1.885 0 0z" fill="#141414" stroke="#141414"/><path d="m759 266 2.75 1.75z" fill="#979797" stroke="#979797"/><path d="m190 268-2-1z" fill="#0c0c0c" stroke="#0c0c0c"/><path d="m175 269-2-1z" fill="#101010" stroke="#101010"/><path d="m190 268 1.75.75z" fill="#101010" stroke="#101010"/><path d="m177 270-2-1z" fill="#0d0d0d" stroke="#0d0d0d"/><path d="m224 269 2.75 3.75z" fill="#111" stroke="#111"/><path d="m691 269c5.307.4883 2.38 8.176 2.75 11.75h-3.5c-2.392-3.713-1.013-8.214.75-11.75z" fill="#cecece" stroke="#cecece"/><path d="m178 271-1-1z" fill="#060606" stroke="#060606"/><path d="m196 271-1.75-.75z" fill="#0d0d0d" stroke="#0d0d0d"/><path d="m182 273-4-2z" fill="#101010" stroke="#101010"/><path d="m199 273-3-2z" fill="#0e0e0e" stroke="#0e0e0e"/><path d="m702 271 2 1 7.75.25-.75 6.75c.1045 2.061.5389 6.605-2.75 5.75l-.5-4.5h-2.5l-2.5 8.5h-.5l-.25-7.75c-1.559-2.857-1.559-7.143 0-10z" fill="#d0d0d0" stroke="#d0d0d0"/><path d="m185 275-3-2z" fill="#101010" stroke="#101010"/><path d="m203 275-4-2z" fill="#101010" stroke="#101010"/><path d="m681 273 1 2-5 15-1.25 9.75h-.5l-.25-5.75 1-2 1-9c-.4355-3.981 1.576-7.155 4-10z" fill="#a9a9a9" stroke="#a9a9a9"/><path d="m229 275c-1.885.1397.1398-1.885 0 0z" fill="#0c0c0c" stroke="#0c0c0c"/><path d="m775 274c7.058 1.33 2.88 10.91 4 16l-.75.75-.5-9.5c-3.743-.4115-2.627-4.644-2.75-7.25z" fill="#aeaeae" stroke="#aeaeae"/><path d="m187 276-2-1z" fill="#0c0c0c" stroke="#0c0c0c"/><path d="m206 277-3-2z" fill="#111" stroke="#111"/><path d="m229 275c1.885-.1397-.1398 1.885 0 0z" fill="#090909" stroke="#090909"/><path d="m189 277-2-1z" fill="#0d0d0d" stroke="#0d0d0d"/><path d="m190 278-1-1z" fill="#0b0b0b" stroke="#0b0b0b"/><path d="m209 279-3-2z" fill="#121212" stroke="#121212"/><path d="m192 279-2-1z" fill="#101010" stroke="#101010"/><path d="m746 278 .75.25-2 16.5-1.5 2-.25-1.75 2-10z" fill="#969696" stroke="#969696"/><path d="m1066 278 3.75.75-13.75 5.25-1.75-.25 1.5-1 4.5-2.5z" fill="#9a9a9a" stroke="#9a9a9a"/><path d="m194 280-2-1z" fill="#101010" stroke="#101010"/><path d="m210 280-1-1z" fill="#111" stroke="#111"/><path d="m672 279 .75 4.75-.75.25c-2.61-2.737-5.406 1.529-3.25 3.75l-1 1-5.5-3.5 9.5-5.5z" fill="#c1c1c1" stroke="#c1c1c1"/><path d="m783 279 3.75.25c-.0753 4.185 2.332 11.59-3.5 12.5z" fill="#c8c8c8" stroke="#c8c8c8"/><path d="m197 282-3-2z" fill="#111" stroke="#111"/><path d="m213 282-3-2z" fill="#101010" stroke="#101010"/><path d="m199 283-2-1z" fill="#0f0f0f" stroke="#0f0f0f"/><path d="m214 283-1-1z" fill="#0d0d0d" stroke="#0d0d0d"/><path d="m199 283c1.885-.1397-.1398 1.885 0 0z" fill="#0b0b0b" stroke="#0b0b0b"/><path d="m217 285-3-2z" fill="#131313" stroke="#131313"/><path d="m793 283c1.921-.6134 3.985.6306 2.75 2.75-1.537.8622-3.167-1.301-2.75-2.75z" fill="#adadad" stroke="#adadad"/><path d="m202 285c-1.885.1397.1398-1.885 0 0z" fill="#0d0d0d" stroke="#0d0d0d"/><path d="m593 284 .75.25 1 13.5-1.5-1z" fill="#b9b9b9" stroke="#b9b9b9"/><path d="m203 286-1-1z" fill="#0a0a0a" stroke="#0a0a0a"/><path d="m217 285 1.75.75z" fill="#131313" stroke="#131313"/><path d="m205 287-2-1z" fill="#0c0c0c" stroke="#0c0c0c"/><path d="m208 289-3-2z" fill="#0e0e0e" stroke="#0e0e0e"/><path d="m800 288 4.75 1.25 9 6-1.75 5.75.75 9.75-3.5 1c.378-3.857-2.857-8.94-7-6l-1.25-9.75-.25-4.75z" fill="#e4e4e4" stroke="#e4e4e4"/><path d="m1047 288 2.75 1.75-12.75 6.25-.75-.25 1-1.5 3.75-2.25 5.75-3.25z" fill="#a1a1a1" stroke="#a1a1a1"/><path d="m209 290-1-1z" stroke="#000"/><path d="m212 292-3-2z" fill="#0c0c0c" stroke="#0c0c0c"/><path d="m646 290c1.425-.2121 3.671-.1135 3 2l.75 4.75z" fill="#a2a2a2" stroke="#a2a2a2"/><path d="m1052 303-.25.75-23.5 7.5-5 1.5 1-2.5c13.07-8.446 27.55-13.67 41.75-19.25l11.75-.75v.5l-19.75 6.25-3 1c-3.563-1.316-9.005 4.68-3 5z" fill="#c6c6c6" stroke="#c6c6c6"/><path d="m212 292c1.885-.1397-.1398 1.885 0 0z" fill="#121212" stroke="#121212"/><path d="m640 292c1.834-.6653 2.559 1.431 1.75 2.75z" fill="#999" stroke="#999"/><path d="m498 296 1.75 1.25 7 12.5-1 1-2.5-2z" fill="#ababab" stroke="#ababab"/><path d="m783 296 .75 2.75z" fill="#a0a0a0" stroke="#a0a0a0"/><path d="m188 297h2l.75.25 9 6.5h-5.5c.2774-3.407-3.307-4.612-6-5z" fill="#090909" stroke="#090909"/><path d="m651 299 .75.25c.9301 2.504 4.383 6.973.5 8.5z" fill="#acacac" stroke="#acacac"/><path d="m714 299c1.162-.1645 3.859-.1803 2.75 1.75-1.319.8089-3.415.0837-2.75-1.75z" fill="#999" stroke="#999"/><path d="m544 300 .75.25 3.25 9.75.75 6.75-1.5-1-2.25-10.75z" fill="#b0b0b0" stroke="#b0b0b0"/><path d="m599 300 1.75.25c3.195 5.802 2.325 12.92 2 19.5h-.5l-3.25-9.75z" fill="#c2c2c2" stroke="#c2c2c2"/><path d="m818 302 6.75 4.25v.5l-2 7-3.5-2-1.25-7.75z" fill="#c8c8c8" stroke="#c8c8c8"/><path d="m658 303c1.316.5518 4.088 2.554 1.75 3.75z" fill="#9a9a9a" stroke="#9a9a9a"/><path d="m204 306-2.75-1.75z" fill="#111" stroke="#111"/><path d="m591 305 1.75.25v9.5h-.5z" fill="#adadad" stroke="#adadad"/><path d="m207 308-3-2z" fill="#101010" stroke="#101010"/><path d="m1074 307h22c7.803.1919 15.97-.8853 23 2l3.75.25v2.5l-2.75.25-2-1h-45l-2 1h-10l-7 2-2.75-.25v-3.5l21.75-2.25z" fill="#393939" stroke="#393939"/><path d="m208 309-1-1z" fill="#111" stroke="#111"/><path d="m209 310-1-1z" fill="#121212" stroke="#121212"/><path d="m523 309 3 6c-.6473 2.675.7061 4.703 2.75 6.25l-1 2.5-2.75-5.75z" fill="#adadad" stroke="#adadad"/><path d="m827 309 .75.25v7.5h-.5z" fill="#939393" stroke="#939393"/><path d="m213 313-4-3z" fill="#0f0f0f" stroke="#0f0f0f"/><path d="m475 310 .75.25 2.25 8.75 1.75 11.75-2.5-2-1.25-11.75z" fill="#b2b2b2" stroke="#b2b2b2"/><path d="m186 312c3.021.3772 7.165.9935 8.75 3.75l-8.5-3z" fill="#9e9e9e" stroke="#9e9e9e"/><path d="m659 312 1.75.25 1 9.5h-.5l-.5-6.5c-1.786-.2038-3.332-1.762-1.75-3.25z" fill="#959595" stroke="#959595"/><path d="m214 314-1-1z" fill="#070707" stroke="#070707"/><path d="m688 313 .75.25 2 6.5-2-2.5c-1.73-1.063-2.1-2.764-.75-4.25z" fill="#acacac" stroke="#acacac"/><path d="m215 315-1-1z" fill="#141414" stroke="#141414"/><path d="m830 338 4-15c-3.527-2.091-3.241-6.1-1-9l5.75 3.25c16.73 15.95 30.05 34 42.25 52.75l-5.25 12.75-1.5-1.5c2.567-4.135 6.195-10.9 0-13.5l-2.25-3.75-2.25 7.75c-3.562-1.649-5.702.1772-8.5 2l-2-13-3-7.5c-.3704 1.846-.3129 6.144-3 5.5l1.5-19.5-6.5 6.5-.25-2.75-.25-4.75-6.5 10.5-.5-13.5c-1.319-.8089-3.415-.0837-2.75 1.75l-.25 1.75-1.75-9.75z" fill="#e2e2e2" stroke="#e2e2e2"/><path d="m216 316-1-1z" fill="#0d0d0d" stroke="#0d0d0d"/><path d="m216 316 1.75.75z" fill="#121212" stroke="#121212"/><path d="m666 316 1.75.25 7.5 22.5 7.75 14.25c-.9456 7.649 1.114 16.18 7.75 20.25 3.816 8.403 13.75 9.693 22 8.5 1.869-1.081 5.286-2.666 4-5.5l-1.75-.25c-5.963 3.483-15.95 3.276-20-3l.75-1.25-2-20.5c2.012 6.548 2.257 16.06 11.25 16.75l22.75 7.25c-3.841 10.29-16.21 14.28-26.5 14l-1.5 3.5h-2.5c-12.49-9.308-19.36-24.66-20.25-39.75l-9-22v-8z" fill="#e0e0e0" stroke="#e0e0e0"/><path d="m670 316 6.75.25 2 2 8.5 17.5 1 1 2.5.5-2 10.5h-3.5l-7-12z" fill="#e4e4e4" stroke="#e4e4e4"/><path d="m489 317 .75.25 4 10.5h-2.5l-1.25-4.75z" fill="#adadad" stroke="#adadad"/><path d="m148 322 11.75.25v.5h-11.5z" fill="#0e0e0e" stroke="#0e0e0e"/><path d="m162 322 .75 1.75z" fill="#131313" stroke="#131313"/><path d="m696 322 2 3v15l-3.75 6.75 1.75-10.75z" fill="#b2b2b2" stroke="#b2b2b2"/><path d="m141 323 4.75.75z" fill="#0d0d0d" stroke="#0d0d0d"/><path d="m164 323 7.75.25v.5h-7.5z" fill="#0d0d0d" stroke="#0d0d0d"/><path d="m702 323 2.75.25c-.3441 6.042 4.334 14.45-1.75 18.75l-.75-.25-1-17.5z" fill="#cacaca" stroke="#cacaca"/><path d="m174 324c1.885-.1397-.1398 1.885 0 0z" fill="#141414" stroke="#141414"/><path d="m203 330c2.836-.9298 3.545 2.112 4.75 3.75l-14.75-.75-2-1c-8.032-.352-15.88.2494-22.75 3.75l-.25-5.75.25-.75 11.75-3.25-3.75-1.75c6.627-.4357 14.89-1.197 19.5 3.5l-12.5.5.75.75 8 1 9 2 2.75-.25z" fill="#080808" stroke="#080808"/><path d="m437 325 1.75 1.25 5.25 11.75-1.25 1.75h-.5l-3.5-9.5z" fill="#acacac" stroke="#acacac"/><path d="m203 330-4.75-1.25v-.5z" fill="#0d0d0d" stroke="#0d0d0d"/><path d="m1027 328c3.419-1.232 3.762 1.766 6 3 6.888-.3629 15.21-5.229 21 0l5.75 1.25-.5 2.5 3 2c9.342 2.547 19.51 4.826 27.5 10l-26.75-4.75-2-1-3.75 1.25-2.25 2.75-9.75.25 10.5 6-.75.75-17.75-1.75-.5 2.5c-7.125 3.905 2.503 5.128 5 7l-12 4c-2.159.1745-2.944 2.147-3 4l-7.75 2.25 2.75 2.25c-.8472 8.002 11.47-1.84 9 6.5l-8.75 2.25 10 1 .75.75c-4.889-.9951-4.15 3.972-1 5-3.74-.0608-8.623-2.356-11.75 1.25-2.42-.0256-5.656-3.74-6.25.75-4.246-.6781-3.816 2.315-3 5-4.437-.01-5.22 3.751-2 6-5.892-.1556-1.338 4.057-2 7l-2-1.5c-3.362-7.07-12.26 3.853-4 4l1.25 2.75-1 1c-2.295.1273-4.857-1.897-5.25 1.75l-3.75 5.25-9.75-8.25v-2.5l12-12c18.27-17.02 24.15-41.39 26-65z" fill="#ececec" stroke="#ececec"/><path d="m161 329c3.035.7812-1.481 3.546-1.75 1.25l.75-.25z" fill="#131313" stroke="#131313"/><path d="m165 329 1.75 1.75z" fill="#101010" stroke="#101010"/><path d="m710 329 7.75 2.25 1.5 3.5 2.5.5 4 5.5-2.5-.5c-3.876 5.149-9.441 8.418-16 6.5l-.25-2.75 2-5z" fill="#e6e6e6" stroke="#e6e6e6"/><path d="m758 332c1.449-.4173 3.612 1.213 2.75 2.75z" fill="#959595" stroke="#959595"/><path d="m182 335h13l9.75 1.25-1 3.5-4-.5-14 1.5-6.75-.75-21 1-1.75.75-.25-.75.25-.75 11.75-.25 10-1 8.75-1.25z" fill="#090909" stroke="#090909"/><path d="m179 336c1.885-.1397-.1398 1.885 0 0z" fill="#0e0e0e" stroke="#0e0e0e"/><path d="m733 336 1.25 1.75c4.464.5615 1.527 4.537 2 7 1.357 2.526 3.094.1306 4.5-.5l.5 6.5 4.5 1.5-.75 4.75c.6672 4.781-5.086 6.327-8.75 6.25-5.139 2.963-12.8 6.079-18 1.5v-.5c7.436-1.84 11.02-8.861 13.75-15.25v-5z" fill="#e9e9e9" stroke="#e9e9e9"/><path d="m830 338-3.25 12.75h-.5l3-12.5z" fill="#afafaf" stroke="#afafaf"/><path d="m151 341 3.75.75z" fill="#101010" stroke="#101010"/><path d="m194 344 5.75.25v.5l-2.75.25-14.75 1.25-1 1.5 2.75.25 11-1 1 1-1 1-30.75-.25v-.5l12.75-.25.75-.25-.5-1.5 1-1 1.5.5 14-1z" fill="#0e0e0e" stroke="#0e0e0e"/><path d="m797 346 .75 1.75c-1.878.8925-1.555-.809-.75-1.75z" fill="#9e9e9e" stroke="#9e9e9e"/><path d="m198 347 4.75.75z" fill="#0d0d0d" stroke="#0d0d0d"/><path d="m159 348 .75 1.75-22.75.25-.75-.75 21.75-.25z" fill="#0e0e0e" stroke="#0e0e0e"/><path d="m161 348 .75 1.75z" fill="#141414" stroke="#141414"/><path d="m663 348 1 1 1 5 4.25 23.75 1.5 1.5c.9442 6.509 5.088 12.06 8.5 17.5l6.5 5-10.5-2-2.5-3.5-3.5-3.5-1.5-4.5-7.75-24.25v-11z" fill="#dbdbdb" stroke="#dbdbdb"/><path d="m130 349 1.75 1.75z" fill="#101010" stroke="#101010"/><path d="m133 349 .75 1.75z" fill="#141414" stroke="#141414"/><path d="m618 349 5.75 4.25-2 3.5c-1.836-.8033-4.453-.5518-4-3.5l-3.5-1z" fill="#c7c7c7" stroke="#c7c7c7"/><path d="m653 349 2 1-1 9 9.75 30.25v1.5c-7.742-7.003-12.13-17.6-13.75-27.75l-1-2v-7l.25-.75c2.511.2783 3.669-2.07 3.75-4.25z" fill="#d7d7d7" stroke="#d7d7d7"/><path d="m124 350 4.75.75z" fill="#0e0e0e" stroke="#0e0e0e"/><path d="m703 350 5.75 2.25c1.387 4.841 9.001 3.114 11.5 0l2.75-1.25 1.75.25-3 5.5c-.8834 1.883-2.147 4.054-4.75 3.25-4.542 2.685-12.59-.2209-13.25-5.75z" fill="#d6d6d6" stroke="#d6d6d6"/><path d="m192 353h4l1.75.75-5.75 1.25-4.75.75z" fill="#0f0f0f" stroke="#0f0f0f"/><path d="m435 353 2.75 5.75-1.75-1.75z" fill="#959595" stroke="#959595"/><path d="m758 354 3 1-1.25 2.75c-2.446 1.112-1.646-2.45-1.75-3.75z" fill="#a8a8a8" stroke="#a8a8a8"/><path d="m178 355 7.75.25v.5h-7.5z" fill="#0d0d0d" stroke="#0d0d0d"/><path d="m1044 355 5 1 7.75 2.25v.5c-1.538 2.457-4.336.6501-6-.5l-6.5-2.5z" fill="#aaa" stroke="#aaa"/><path d="m160 358 1-1 8-1 7.75.25-.75.75-8 1z" fill="#0f0f0f" stroke="#0f0f0f"/><path d="m203 356 3.75.75z" fill="#0c0c0c" stroke="#0c0c0c"/><path d="m192 357 .75 1.75-7.75.25-4.75.75v-.5l1.75-.25 9.75-1.25z" fill="#0f0f0f" stroke="#0f0f0f"/><path d="m197 357 3.75.75z" fill="#0c0c0c" stroke="#0c0c0c"/><path d="m404 369-.75-.25-3.5-6.5-1.5-5h.5z" fill="#979797" stroke="#979797"/><path d="m555 357c1.885-.1397-.1397 1.885 0 0z" fill="#929292" stroke="#929292"/><path d="m160 358-1.75.75z" fill="#141414" stroke="#141414"/><path d="m178 359 .75.25-7 2.5h-.5c-1.109-1.93 1.588-1.914 2.75-1.75z" fill="#0f0f0f" stroke="#0f0f0f"/><path d="m129 361 18.75.25-.75.75h-17z" fill="#0d0d0d" stroke="#0d0d0d"/><path d="m152 361 .75 1.75z" fill="#101010" stroke="#101010"/><path d="m154 361 .75 1.75z" fill="#141414" stroke="#141414"/><path d="m157 361c1.885-.1397-.1398 1.885 0 0z" fill="#141414" stroke="#141414"/><path d="m159 361 8.75.25v.5l-8.5 1z" fill="#0d0d0d" stroke="#0d0d0d"/><path d="m791 361 2.75.25.25.75c-2.331 5.87-7.445 9.878-12.25 13.75l-2.5.5-2 1.5-1-3.5c5.751-1.943 9.232-7.668 13-12l1.5-.5z" fill="#cdcdcd" stroke="#cdcdcd"/><path d="m764 365 .75 2.75c-1.683-.0624-1.712-1.769-.75-2.75z" fill="#919191" stroke="#919191"/><path d="m493 367 .75 2.75z" fill="#999" stroke="#999"/><path d="m745 367 2.75.25-3 8.5-3.5 2-1.25-1.75-3.75-.25c-.6706-1.913 1.879-3.569 3.5-4z" fill="#cdcdcd" stroke="#cdcdcd"/><path d="m857 367 .75 1.75z" fill="#ababab" stroke="#ababab"/><path d="m478 368c2.566.5745 2.229 3.813 1.75 5.75h-.5z" fill="#969696" stroke="#969696"/><path d="m405 371-1-2z" fill="#949494" stroke="#949494"/><path d="m442 369 .75.25 2 6.5-1.75-2.75z" fill="#9b9b9b" stroke="#9b9b9b"/><path d="m451 369c2.856-.4561 6.666-.0238 6.25 3.75l4.5 9c-1.319.8089-3.415.0837-2.75-1.75l-1.25-4.75-5.5-.5z" fill="#bdbdbd" stroke="#bdbdbd"/><path d="m405 371 .75 1.75z" fill="#959595" stroke="#959595"/><path d="m882 372 3.75 3.25c6.953 12.34 19.28 21.37 29 32-1.42 12.06-3.15 25.08-12 34.5h-1.5l-1.25-1.75 1.75-2.25.5-3.5c5.642-6.953 10.46-15.17 10.75-24.25l-1-1-5 4c1.076-3.043 2.627-9.52-2.75-9.25l-1.5-4.5-7.75-5.25-17.75 16.75 15.5-18-.5-1-7 4v-2.5c3.286-1.596 3.723-9.114-1-6.5.1656-2.117 2.341-6.482-2-6z" fill="#c8c8c8" stroke="#c8c8c8"/><path d="m731 373c2.303.5843 4.411 4.242 1 5z" fill="#989898" stroke="#989898"/><path d="m167 387c1.455-2.351 5.006-4.142 7.75-3.75z" fill="#a3a3a3" stroke="#a3a3a3"/><path d="m476 384c3.418-.494 1.325 2.872-.25 3.75z" fill="#acacac" stroke="#acacac"/><path d="m167 387-.25.75-9.5 3v-.5z" fill="#959595" stroke="#959595"/><path d="m383 390 4.75 6.25v1.5c-2.159.9321-2.944-1.954-3-3.5z" fill="#969696" stroke="#969696"/><path d="m459 390c1.551-.4244 4.075.34 1.75 1.75-.7704.6877-3.708.2091-2-1z" fill="#9e9e9e" stroke="#9e9e9e"/><path d="m730 390 1.75.25-8.5 8c-1.748 1.873-4.379 3.436-7 2.5v-1.5l12.5-7.5z" fill="#b8b8b8" stroke="#b8b8b8"/><path d="m452 391 2.75 1.75-3.5 1z" fill="#a4a4a4" stroke="#a4a4a4"/><path d="m363 392 1.75 2.75z" fill="#939393" stroke="#939393"/><path d="m710 392 2.75.25-3.75 2.75-4.75.75 3-2.5z" fill="#aaa" stroke="#aaa"/><path d="m351 393 .75.25 5 12.5-5-7.5h-2.5c-.2979 1.319-.1187 3.415-2.25 2.75-1.432 1.651-3.45-.0932-3-2z" fill="#bababa" stroke="#bababa"/><path d="m421 393c2.01.8357 3.401 3.662 2.75 5.75-3.943 1.662-2.535-3.589-2.75-5.75z" fill="#9b9b9b" stroke="#9b9b9b"/><path d="m439 393 2.75 1.75c-.8476.4831-4.786.624-3-1z" fill="#a3a3a3" stroke="#a3a3a3"/><path d="m398 398c1.997 1.229 2.46 4.444 1.75 6.75h-.5z" fill="#969696" stroke="#969696"/><path d="m695 399 3.75.25c6.41 5.411 10.4 13.08 9 21.5l-1.75 1.25-1.75-1.25-2.5-12.5-7.5-6.5z" fill="#3a3a3a" stroke="#3a3a3a"/><path d="m203 401c1.885-.1397-.1398 1.885 0 0z" fill="#959595" stroke="#959595"/><path d="m711 401 2.25 4.75c11.06 1.111 14.09 14.61 12.5 24l-3.5 4.5-3 3.5v-1.5l3.75-11.25-1.25-7.75-2-6-2.5 1-.25 1.75 1 6c1.531 2.563 1.531 6.437 0 9-.0718 2.925-1.468 6.466-4 8l-1-2 1-8-.75-9.25-3.25-14.75z" fill="#c9c9c9" stroke="#c9c9c9"/><path d="m871 401c2.551.7756-1.144 4.678-2.75 3.75z" fill="#999" stroke="#999"/><path d="m1072 404-4.75-2.75c2.066-1.099 4.019 1.069 4.75 2.75z" fill="#a2a2a2" stroke="#a2a2a2"/><path d="m340 402c2.01.8357 3.401 3.662 2.75 5.75z" fill="#969696" stroke="#969696"/><path d="m392 402 3 9-.25.75-2.5 1-1-1-.25-7.75z" fill="#adadad" stroke="#adadad"/><path d="m383 404 3 6c-.8849 2.541-3.088 5.459-1 8l-.25.75-2.5 1z" fill="#a4a4a4" stroke="#a4a4a4"/><path d="m1072 404c8.541 1.877 14.66 9.291 21.75 14.25l7.5 10.5 4.5.5 1.25 2.75-7 13-1.75-1.25-19.25-24.75 1.25-1.75h1.5l14.5 18.5 3.5-1-1-2.5-4-6-11-13-1.5-.5c-1.396-3.797-5.684-5.309-9-7z" fill="#cfcfcf" stroke="#cfcfcf"/><path d="m335 405 7.25 10.75 4.75 8.25-.25 1.75-1.5-1-11-18z" fill="#adadad" stroke="#adadad"/><path d="m1009 409 1.75 1.75z" fill="#929292" stroke="#929292"/><path d="m199 411c4.914-.12-2.972 4.047 0 0z" fill="#949494" stroke="#949494"/><path d="m375 411c1.613.2975 2.595 2.288 1.75 3.75-1.488-.4388-3.419-2.29-1.75-3.75z" fill="#999" stroke="#999"/><path d="m1074 411 3.75 2.75z" fill="#979797" stroke="#979797"/><path d="m920 412 24 5 5.75 1.25.25 3.75 5 38-.25 3.75-2.75-4.75-2 2c.8506 6.576-.5117 13.93-4 20l1 4-9.75 17.75-5-9.5 5.5-7.5c1.385-4.897 3.768-10.2 8-13 3.224-13.46 2.304-28.27 2-42.5l-1-1-6-8-1.75-.25-9.75-.25-3-4.5-1.25 1.75c-1.164 13.81-4.933 28.05-13.75 38.75l-3.25-3.75 1.25-4.75c7.647-8.177 12.24-18.45 13.75-29.25l-2.75-3.25z" fill="#dbdbdb" stroke="#dbdbdb"/><path d="m323 414c1.864-.3321 5.667-.00046 4.75 2.75l-3.5 2.5c1.713 4.679 5.682 9.118 4.5 14.5l-4.75-7.75-2 4 2.75 12.75c-1.714-2.76-5.729-16.84-7-7l-2-.5c-2.514.2317-3.002 2.222-3 4.5l-2.5-1.5 2.5 24.5-3.75-14.75c-1.719-2.793-.3859-10.04-5.75-8.75 2.114 9.865 3.578 20.71 2.5 31.5l-1.75-2.75c-1.403-9.213-1.225-20.04-8-27l-2.75 1.25 4.75 11.75 4 30 .25 5.75c.7637 1.347 1.484 3.184 3.5 2l-.5-14.5c4.953-2.121 3.692 3.815 3.75 6.75.1536 3.042-.8131 7.216 2 9l3.25-19.75 4.5 22.5c-4.023 7.801-3.574 18.9-12.5 23.5l-10.5 54.5c-25.09-1.171-49.84-2.825-71.5-15l22-40.5c2.013-2.704 3.495-5.809-.25-7.25-.7982-4.276 1.241-8.654 4.75-10.75l-.75 7.75 8.75-11.25 6-9.5c-3.037 25.06-14.58 48.1-27.5 70v3.5l9.75-13.75 10-19 6-15 3.25-10.75c.6924 17.23-7.659 35.08-13.25 51.75l1.25 2.75 5.75-6.75-.25 2.75-2.5 13 3.5-1 6.25-30.75c.9788-6.773 1.634-13.9 5.25-19.75l2.5.5 2-2 2.25-18.75 2.75-21.75 3.25 41.75 3.75.25 3.25 12.75c-.3105 2.061-2.527 5.89.75 6.75l2-2c6.29-25.34 4.114-52.8 1.25-78.75l-5.75-12.25c-7.362-2.646.6181 11.38-6 12.5l-.5 2.5-3.5-1c1.874-8.301-11.72-7.028-8.25 1.25l-.25 14.75-1.75-22.75-3.75-2.25c1.001-5.523-4.349-8.329-6.25-11.75l-3.75 1.75.5-3-.5-3.5c22.01 13.3 48.3-.6628 66.75-15.25z" fill="#e8e8e8" stroke="#e8e8e8"/><path d="m1037 436 20.75 27.25 5.5 22.5 1.75-1.75-5-22-.25-4.75 3.5 8.5 2 7 2.5 1-6.5-21.5c2.319-.6255 4.027 2.489 4 4.5l3.5 5.5 4.5 9.5c3.682 1.546 2.58-2.508 1-4l-13-25.5c8.204 6.317 14.53 15.01 18 24.5l2.5 1 1-1.5c-3.036-11.86-11.73-21.07-20.5-28.5l-18-23.5 14.5 8-.75 2.75 17.25 17.75 11.5 23-12.5 12.5-23.5 21.5h-2.5l.75-16.75-1.75-3.25-6.25-13.75-2.75-6.75 18 29.5h2.5c-1.654-10.21-9.672-18.79-14.5-28v-1.5l1.5-.5-9.5-17c2.565-.9975 1.326-3.516.75-5.75z" fill="#dcdcdc" stroke="#dcdcdc"/><path d="m203 415-.25 3.75c-1.374.7845-5.195.2111-2.5-1.5z" fill="#acacac" stroke="#acacac"/><path d="m977 415c1.885-.1397-.1397 1.885 0 0z" fill="#939393" stroke="#939393"/><path d="m973 416 1.75 2.75z" fill="#969696" stroke="#969696"/><path d="m1057 416c1.885-.1397-.1398 1.885 0 0z" fill="#939393" stroke="#939393"/><path d="m1059 417c1.885-.1397-.1398 1.885 0 0z" fill="#969696" stroke="#969696"/><path d="m633 418 4 2-1.25 1.75-13.5 2 1-2.5 4.75-1.25z" fill="#202020" stroke="#202020"/><path d="m650 418 2.75.25v2.5l-16.75 7.25-2.75-.25c-.7153-3.124 3.81-3.026 5.75-3.75z" fill="#2a2a2a" stroke="#2a2a2a"/><path d="m953 418 1.75 5.75-1.75-2.75z" fill="#a9a9a9" stroke="#a9a9a9"/><path d="m962 418 8.75.25 1 2.5-1.5.5-3 2.5-3.5 1h-1.5z" fill="#d5d5d5" stroke="#d5d5d5"/><path d="m377 421 1.75 1.75z" fill="#9c9c9c" stroke="#9c9c9c"/><path d="m249 422c2.224-.5831 4.226 1.074 5 3l-3.25 4.75-8 9-14.5 16v-5.5l1-2c6.465-5.967 11.95-12.54 16-20l3.5-3.5z" fill="#d5d5d5" stroke="#d5d5d5"/><path d="m1067 422 10 6 2-1 1.75.25 15.5 20.5 1.5 1.5-1 1.5c-8.385-8.73-16.23-20.28-27.5-26z" fill="#bdbdbd" stroke="#bdbdbd"/><path d="m208 423c3.17.6726 1.935 5.001 0 6z" fill="#9e9e9e" stroke="#9e9e9e"/><path d="m938 426 .75.25c4.007 7.804 3.296 16.83 3.25 25.75l-3 10 1 4-9.25 19.75-1.5 1-1-3.5 2.5-2.5c6.76-13.25 9.077-27.65 9.25-42.75l-2-4z" fill="#bcbcbc" stroke="#bcbcbc"/><path d="m1030 427c-1.885.1397.1398-1.885 0 0z" fill="#979797" stroke="#979797"/><path d="m1064 426c12.01 5.468 20.1 16.47 28.75 26.25l1.25 3.75-6.75 7.75c-.8741-8.224-5.637-15.34-9.5-22.5l-13.5-13.5z" fill="#dedede" stroke="#dedede"/><path d="m1030 427 2.75 3.75z" fill="#919191" stroke="#919191"/><path d="m647 428c1.864-.3321 5.667-.00046 4.75 2.75l-4.5 2 5.5 1.5-5.75 1.75c-1.216 1.582-3.626.0361-2.75-1.75l1.5-.5-.75-.75-6.75.75 2-4.5 5.75-.25z" fill="#2b2b2b" stroke="#2b2b2b"/><path d="m914 430 2 1-10.25 15.75h-1.5v-1.5c3.878-4.652 8.257-9.363 9.75-15.25z" fill="#a5a5a5" stroke="#a5a5a5"/><path d="m1012 435c-1.885.1397.1397-1.885 0 0z" fill="#9f9f9f" stroke="#9f9f9f"/><path d="m356 435 .75.25 2 4.5c-3.465 1.637-2.796-2.711-2.75-4.75z" fill="#979797" stroke="#979797"/><path d="m1014 438-2-3z" fill="#939393" stroke="#939393"/><path d="m1037 436c-1.885.1397.1398-1.885 0 0z" fill="#a1a1a1" stroke="#a1a1a1"/><path d="m659 438c1.484.2 2.507 1.986.75 2.75-1.683-.0624-1.712-1.769-.75-2.75z" fill="#454545" stroke="#454545"/><path d="m1014 438c1.885-.1397-.1397 1.885 0 0z" fill="#949494" stroke="#949494"/><path d="m251 439 1.75.25c1.188 3.345-.2217 7.247-3.5 8.5z" fill="#bebebe" stroke="#bebebe"/><path d="m667 445h3l.75 1.75-7.5 1v-1.5l1.75-.25z" fill="#363636" stroke="#363636"/><path d="m922 446 3.75.25-3.5 15.5 1.5.5.25 1.75c-1.556 1.88-2.808 4.149-1.75 6.75l2 3 7.5-12.5-5 17.5-1 1-8.5-11-3.25-6.75z" fill="#d5d5d5" stroke="#d5d5d5"/><path d="m261 447 .75.25-3 7.5h-.5z" fill="#969696" stroke="#969696"/><path d="m1030 447c1.885-.1397-.1398 1.885 0 0z" fill="#939393" stroke="#939393"/><path d="m206 449c-.1398-1.885 1.885.1397 0 0z" fill="#a9a9a9" stroke="#a9a9a9"/><path d="m244 448c2.287 1.305.6259 4.857-.25 6.75h-.5z" fill="#a5a5a5" stroke="#a5a5a5"/><path d="m206 449-1.75 1.75z" fill="#959595" stroke="#959595"/><path d="m485 450c-.1397-1.885 1.885.1397 0 0z" fill="#9a9a9a" stroke="#9a9a9a"/><path d="m485 450-1 1z" fill="#9d9d9d" stroke="#9d9d9d"/><path d="m484 451-1 1z" fill="#aaa" stroke="#aaa"/><path d="m974 451c2.134.4124 2.431 3.054 1.75 4.75h-.5z" fill="#a9a9a9" stroke="#a9a9a9"/><path d="m1035 464 9 17-1 2 2.75 19.75-3.5 2-1.25-5.75-1-7c.8357-6.729-3.092-12.16-6.75-17.25l-12-23.5c4.948-1.969 5.378 4.349 7.5 7l5.5 11.5h1.5z" fill="#d5d5d5" stroke="#d5d5d5"/><path d="m965 452 1.75.25 1.25 4.75v2l-1 15-1 1-.75-.25.75-7.75-1-12z" fill="#b2b2b2" stroke="#b2b2b2"/><path d="m959 453 1.25 4.75 2.5.5v11.5h-.5l-.5-8.5-1-1c-3.687 1.758-3.379-5.355-1.75-7.25z" fill="#b5b5b5" stroke="#b5b5b5"/><path d="m1016 453 17.75 32.25 7 21.5-7 5c-16.71 6.691-33.4 13.96-51.5 15 2.304-9.46 5.607-20.57 2.75-30.75l1-21-1.75-11.75 1.75 4.75 1.25 2.75 2.5-6.5 6 14-.75 10.75-1 14-3.75 11.75 1.5 1c6.711-9.143 6.564-21.22 6.25-32.75l2-2-.75-9.75h6.5l1.25 5.75 1.75.75-.5-14.5 1.5-1 1 5 1.25 5.75 2-2c-4.039-3.312 2.814-11.95 3.25-4.25l7.75 32.25-1 8 2 6 2-4c-.026-19.81-6.575-37.74-12-56z" fill="#dedede" stroke="#dedede"/><path d="m220 474 8-8-.25-.75c-3.789-2.166 2.594-9.171 5.5-6.5h1.5l4-2.5c-.6701 3.749-2.021 7.536-5.5 10l-6.25 6.75-3-1z" fill="#d1d1d1" stroke="#d1d1d1"/><path d="m670 456 4.75.25-1 1.5-11.5 2 1-1.5 2.75-.25z" fill="#363636" stroke="#363636"/><path d="m252 458 .75.25.25 1.75c-1.531 2.284-2.259 7.109-5.75 6.75l.5-1z" fill="#b2b2b2" stroke="#b2b2b2"/><path d="m616 459c5.149-.3156 6.674 6.038 3 9l7 5 3 4 1 5c.5185 2.693-4.73 5.383-6 3l.75-4.75-11.5-5.5-2-6.5 3.5-4-1.75-1.25c-21.98.6057-43.66 5.156-61.25 18.75l-1.5-1 5-4.5 22.75-10.25 9-2c8.402-4.56 18.23-4.193 28-4z" fill="#242424" stroke="#242424"/><path d="m1035 464-1.75-3.75z" fill="#939393" stroke="#939393"/><path d="m211 461c4.237-.9379-1.137 4.804-1.75 2.25l.5-.5z" fill="#949494" stroke="#949494"/><path d="m479 462c-.1397-1.885 1.885.1397 0 0z" fill="#949494" stroke="#949494"/><path d="m479 462-1 1z" fill="#979797" stroke="#979797"/><path d="m676 464c2.553.979-1.229 4.536-3 4l-2.75-.25z" fill="#3e3e3e" stroke="#3e3e3e"/><path d="m679 467 2.75.25v1.5l-1 1-11.5 4 1.75-1.75 3.25-1.75z" fill="#3c3c3c" stroke="#3c3c3c"/><path d="m220 474-26 21-16.25 9.75-8.75 4.25c-.7069 2.682 2.449 1.935 4 2 17.7-8.114 34.43-19.38 48.25-32.75l3.5-1-10 9.5-31.5 25.5v1.5c8.314-.6653 14.88-8.013 21.5-13l5-3.5-20.75 21.75 1.25 2.75 4.5-3 6-5 6.5-6.5 17.5-19.5c3.663-3.654 8.897-7.299 6.25-12.75l1.75-1.75c.2068 3.856 4.387 4.854 6.25 1.75l3.75-4.75-1 4.5c-12.8 19-29.11 37.4-47.5 51.5v1.5l2.75 1.25 16.75-15.25 7-7 4-4 16-16.5c-.7302 8.246-8.203 14.21-12.5 21l-12.5 14.5-12.5 16h2.5c13.08-13.37 24.7-26.61 35.5-41.5l3.5 3-11 13.5-16.5 20.5-6 11.5c2.332 1.129 4.499-1.472 5-3.5l22-28h1.5c-4.778 14.8-14.5 28.48-25 40.5-13.95-8.942-27.58-18.89-40-30.5l-11.75-14.25c18.94-11.07 39.51-21.45 57-35z" fill="#ddd" stroke="#ddd"/><path d="m995 472c1.613.2975 2.595 2.288 1.75 3.75z" fill="#9e9e9e" stroke="#9e9e9e"/><path d="m319 475c2.324 1.462 2.332 5.152 1.75 7.75-3.112-.9294-1.244-5.309-1.75-7.75z" fill="#959595" stroke="#959595"/><path d="m679 475c2.241-.7212 3.389.9416 3.75 2.75l-10.5 4-1-1.5 1.5-1.5z" fill="#202020" stroke="#202020"/><path d="m266 477 .75 2.75z" fill="#929292" stroke="#929292"/><path d="m1010 479c4.226 4.418 7.573 10.68 8 17l1.75 13.75-.75-.75v-4l-6.75-19.75-.25 12.75-2.25 12.75-1.5 1 .75-7.75 1-2z" fill="#1d1d1d" stroke="#1d1d1d"/><path d="m267 481c1.978.1194.5378 2.952-.75 2.75z" fill="#949494" stroke="#949494"/><path d="m287 481 1.75.25v10.5h-.5z" fill="#969696" stroke="#969696"/><path d="m949 508-2.75 5.75h2.5c7.575-8.958 12.06-19.6 15.5-30.5l1.5 2 2.25-1.25 1.75-2.75-9.75 27.75 3 2-1.75 5.75 2.75-1.75 10.25-25.75 2 2.5 3.5-.5-2 15.5c-3.51 4.332 3.607 5.539 2.25.25l1-2 1.75-5.75c1.046 9.978-.6441 19.55-4 28.5h-28.5l-9-14c-.9374-1.968-2.402-4.866 0-6.5l2-2 2.5-1-3.75 4.75c-.4455 3.137 2.646 3.196 3.75.75z" fill="#eaeaea" stroke="#eaeaea"/><path d="m682 484 2.75.25-1 2.5-8.5 2 3.5-3z" fill="#2f2f2f" stroke="#2f2f2f"/><path d="m1002 484 1 1 .75 6.25-.75 1.75.75 3.25-.75 1.75-3.25 19.75h-.5l-.25-3.75 2-11 1-2z" fill="#1a1a1a" stroke="#1a1a1a"/><path d="m248 485c2.543.9216-.0328 4.481-1.75 4.75z" fill="#a5a5a5" stroke="#a5a5a5"/><path d="m293 485 .75.25c2.573 4.505.8781 9.871 0 14.5h-.5l-1.25-8.75z" fill="#b0b0b0" stroke="#b0b0b0"/><path d="m952 485 .75 1.75z" fill="#9e9e9e" stroke="#9e9e9e"/><path d="m686 488c1.162-.1645 3.859-.1803 2.75 1.75l-8.5 2 1-1.5z" fill="#414141" stroke="#414141"/><path d="m553 491 6.25 10.75c2.27-.3687 4.54-1.42 5.75 1.25l17-5c7.469-3.233 16.52-5.207 24-3l3-1 2 1 17.75-2.75 11.25 20.75-2.75.75-2-2c-2.59-6.922-12.13-4.417-17-5.5l-1 1.5c17.12 14.66-5.146 39.28-23.25 35.25-6.091-2.273-12.69-5.336-15-12-.7017-7.318 2.756-13.82 7.75-18.75l-4.75.75c-10.9 2.534-19.7 9.773-28.75 16.25l.75 4.75c4.544 6.406 10.52 12.39 17.75 15.25l2 2.5-1.75 1.25c-10.68-2.984-18.58-11.53-24.25-20.75l-3.5-.5c-.3452-3.06-2.037-5.431.75-7.75l7-14-7.75.75z" fill="#0f0f0f" stroke="#0f0f0f"/><path d="m969 492 .75 1.75z" fill="#979797" stroke="#979797"/><path d="m690 496c1.162-.1645 3.859-.1803 2.75 1.75-1.721.8271-5.985 1.753-3.75 4.25l-.25.75-1 2c-2.719-.9365-4.218-6.659 0-7l2-1z" fill="#373737" stroke="#373737"/><path d="m967 498 .75 1.75z" fill="#9e9e9e" stroke="#9e9e9e"/><path d="m767 503 14 2-.25.75c-2.894.9968-6.027 2.875-7 6l-5 8c-4.009-2.918-8.019-6.988-9.75-11.75l7.75-4.25z" fill="#efefef" stroke="#efefef"/><path d="m965 503 .75 1.75z" fill="#929292" stroke="#929292"/><path d="m949 508c-.1398-1.885 1.885.1397 0 0z" fill="#9a9a9a" stroke="#9a9a9a"/><path d="m690 511c2.612-.425 5.178 3.948 2.25 5.25-.0317 3.238-3.277 5.637-6 6.5v-2.5l2.75-3.25z" fill="#343434" stroke="#343434"/><path d="m789 514 3.75.25v5.5h-4.5z" fill="#e4e4e4" stroke="#e4e4e4"/><path d="m601 515 5.75.25c.7374 2.693 2.334 5.687-1 7.5l-5.5-1z" fill="#fbfbfb" stroke="#fbfbfb"/><path d="m633 525 2.75.25.25 5.75 1 2c.7314 7.799-1.043 16.87-9 20l-.75-.25v-2.5c2.934-1.746 6.254-4.327 5.75-8.25 1.607-3.78 1.607-9.22 0-13z" fill="#3d3d3d" stroke="#3d3d3d"/><path d="m275 530 2.75 1.25.25 23.75-2 3-2-3 1-2z" fill="#252525" stroke="#252525"/><path d="m564 533 1.75 1.25.5 2.5c6.288 7.791 15.3 11.53 24.75 12.25l2 1 23 1 3-1 1.75 1.25-3 3.5-5.75.25-31.75-3.25-1.5-2.5c-6.148-2.453-12.07-6.636-15.5-12.5z" fill="#2f2f2f" stroke="#2f2f2f"/><path d="m226 546 1 1-6.25 9.75h-.5l-1.25-1.75z" fill="#a1a1a1" stroke="#a1a1a1"/><path d="m650 549 2.75.25v1.5c-4.373 6.688-7.968 14.37-14.75 19.25l-1.75-1.25 13.5-18z" fill="#3f3f3f" stroke="#3f3f3f"/><path d="m788 551 11 6 15.75-1.75 12.25 45.75 3 5 .75 29.75-1.5-1-8-18-23.5-49.5-5.5-6.5z" fill="#f6f6f6" stroke="#f6f6f6"/><path d="m482 569 2 2-4 9 4 8c-.4692 3.82-4.96 7.751-1 11v2l1.75 22.75-.75.25-.75-.25c-.7057-5.323-1.376-10.76-5.25-14.75l-1.75-6.25-2.25-7.75.75-1.75-3.75.75z" fill="#212121" stroke="#212121"/><path d="m490 619 .75.25.25 2.75v5c-.206 3.104-3.049 7.358-6.75 5.75z" fill="#2d2d2d" stroke="#2d2d2d"/><path d="m683 624h15l4 2c16.95 3.103 32.55 12.78 46.25 23.75 8.664 4.812 18.85 5.609 25 15l3.5-.5 9 6 14.5 13.5c3.972.8834 8.411 5.418 9.5 9l-11.5-3-12.5-12.5-6 1.5-5-3.5-1.75.75-7.75-6.25c-1.664-2.897-3.414-1.996-6-2-12.93-16.97-31.56-28.73-51.25-35.75-13.61-1.226-28.99-2.745-41.75 2.25-20.21 10.45-34.9 39.5-19.5 59l3.5 7.5c1.36.772 2.932 3.623.75 4.25-4.998-4.522-8.042-11.42-10.25-17.75l-5.75-11.25c-.8421-22.13 16.48-43.34 37.75-48.25z" fill="#1b1b1b" stroke="#1b1b1b"/><path d="m499 631 1.75 1.25-2 5.5-5 7h-1.5l-.25-.75 4.75-7.25z" fill="#3b3b3b" stroke="#3b3b3b"/><path d="m420 643 .75 2.75-4 3c-1.853.0565-3.825.8409-4 3l-7.5 5.5-1.25.75-1.75-1.25 10-9.5c3.169 2.368 6.111-1.872 7.75-4.25z" fill="#d7d7d7" stroke="#d7d7d7"/><path d="m671 653c8.169-.759 15.85 1.926 21.75 7.25l.5 2.5 1.75 2.25-1.25 1.75-3.5-1c-2.918-8.543-14.23-7.713-21-4.5l-10 21-2.25 6.75-2.75-.25-3.25-9.75v-7c.9046-9.511 9.579-17.21 19-18z" fill="#101010" stroke="#101010"/><path d="m387 658c1.3.1038 4.862-.6964 3.75 1.75l-4.75 3.25c-2.694-1.096.318-3.6 1-5z" fill="#2f2f2f" stroke="#2f2f2f"/><path d="m395 663c-.1397-1.885 1.885.1397 0 0z" fill="#969696" stroke="#969696"/><path d="m395 663-1 1z" fill="#9d9d9d" stroke="#9d9d9d"/><path d="m394 664-1 1z" fill="#a6a6a6" stroke="#a6a6a6"/><path d="m393 665c.1397 1.885-1.885-.1397 0 0z" fill="#949494" stroke="#949494"/><path d="m386 671c-.1397-1.885 1.885.1398 0 0z" fill="#9c9c9c" stroke="#9c9c9c"/><path d="m702 678c16.45-1.277 22.42 16.8 27 29l1 17-4.75 12.75.75-5.75 2-5-1-14-10.75-22.25-.5-2.5-5-4h-8.5c-.3955 2.362-.9305 5.515 1.5 7l12.25 10.75c-1.231 7.195-11.25 5.276-16.25 4.25-7.357-1.682-16.55-6.602-16.75-15.25 1.914-7.799 10.36-11.84 18-11z" fill="#131313" stroke="#131313"/><path d="m341 681 4.75 1.25-1 1.5-7.5 5.5-10.5 12.5-3.75.25-4.25-3.75-2.5-6 10.5-6.5c3.772-2.98 8.231-4.368 13.25-3.75z" fill="#efefef" stroke="#efefef"/><path d="m728 690c5.677 1.777 8.806 8.415 10.25 13.75l3.5-.5 1.25 2.75v3l10 25v3l2 9-1.25 1.75-1.5-1-1.25-4.75-6.25-22.75-.75-.25-4.75 4.75-8-26-3-5z" fill="#2b2b2b" stroke="#2b2b2b"/><path d="m303 696 2.75.25c.1922 5.58-6.86 6.219-10.75 7.75l-1.75-.25 4-4.5 5.5-2.5z" fill="#d9d9d9" stroke="#d9d9d9"/><path d="m563 700 10.75.25v1.5c-8.734-.835-14.55 6.256-20.75 11.25l-2-4 2.75-3.25z" fill="#202020" stroke="#202020"/><path d="m276 709h11l5.75 1.25-12.75 8.75h-3l-1.25.75-1.5-.5-1.25.75-2-1-3.75-.25v-1.5l8.5-7.5z" fill="#eaeaea" stroke="#eaeaea"/><path d="m413 721 .75.25-.75 7.75c.5779 4.69-1.58 10.37 2 14l.75 3.75c-4.196-.4346-7.798-4.018-9.75-7.75-.677-5.886 2.012-11.03 5.75-15.25z" fill="#eee" stroke="#eee"/><path d="m883 735c-.1398-1.885 1.885.1397 0 0z" fill="#b7b7b7" stroke="#b7b7b7"/><path d="m883 735-2 1z" fill="#b7b7b7" stroke="#b7b7b7"/><path d="m881 736c.1398 1.885-1.885-.1397 0 0z" fill="#999" stroke="#999"/><path d="m873 741c1.885-.1398-.1397 1.885 0 0z" fill="#999" stroke="#999"/><path d="m869 744 .75 2.75-7.5 3z" fill="#cdcdcd" stroke="#cdcdcd"/><path d="m434 765 2 2-2 8 4.75 10.25c1.981 3.873 4.866 8.079 9 10v1.5l-5.75.25-2 1-3-1c-6.516-.413-11.33-7.322-13-13l6.75-13.25 2-2z" fill="#f1f1f1" stroke="#f1f1f1"/><path d="m827 766c-.1397-1.885 1.885.1398 0 0z" fill="#919191" stroke="#919191"/><path d="m827 766-1 1z" fill="#9f9f9f" stroke="#9f9f9f"/><path d="m460 805 5.75 1.25.5 1.5 8 8 1.5.5 4.5 5.5 6 3c3.546.1698 5.876 3.776 7.5 6.5 1.361 7.816-7.135 10.45-11.75 14.75l-.75-.75c6.499-10.91-7.113-21.48-17.25-21.25l-7-1-2.75-1.25c-5.282-5.587 1.242-13.22 5.75-16.75z" fill="#f4f4f4" stroke="#f4f4f4"/><path d="m640 887-1.25 5.75-.75.25c-3.105-1.726 1.335-4.154 2-6z" fill="#313131" stroke="#313131"/><path d="m736 889 3.75.25-2 2.5-2.5.5-3.25 1.75h-21l-1.75-1.75c1.107-1.905 3.349-1.289 4.75-.25h8c4.837-.0303 10.76.8617 14-3z" fill="#373737" stroke="#373737"/><path d="m658 896 1.75.25c3.117 3.197 6.613 6.225 11 7l.25.75-2 2-9.75 1.25-6 5.5-.25-1.75c2.505-3.562 6.061-7.414 10.75-7.25v-1.5c-2.44-1.072-5.512-3.449-5.75-6.25z" fill="#303030" stroke="#303030"/><path d="m735 916 1.75 1.75h-3z" fill="#b5b5b5" stroke="#b5b5b5"/><path d="m771 923 1 1c-2.936 4.82-4.158 10.06-4.25 15.75l-1.5-1c-2.133-4.207-4.426-8.504-3-13.5l3.5 2.5z" fill="#dbdbdb" stroke="#dbdbdb"/><path d="m590 925 1.75 1.75c-13.81 14.7-17.35 39.87-3 55 1.72-11.81.1297-26.61 11.25-34.75l.75 1.75c-9.424 8.924-8.618 22.29-9.75 34.25l33.75 47.75c.3484-8.897-3.952-17.32-9-24.5l-5.5-9h1.5l11 16c3.117 8.004 6.255 17.03 4.5 25.5l2.5 1-13.5 12.5-6 5.5 5-7.5 8.5-8.5-1-9.5c-14.47-21.26-31.49-41.49-49.5-59.5l-3-6c-3.501-11.24.4367-22.84 3-33.5l1.5-1 .25 4.75c-3.7 7.982-1.558 17.94-1.75 26.75l3.5 6c-3.218-15.49.4603-33.49 13.25-44.75z" fill="#2a2a2a" stroke="#2a2a2a"/><path d="m728 930c2.5 1.735 5.536 2.805 7.75.25v1.5l-2 4c-4.952 5.841-5.759 13.49-6 21-3.132-1.931-6.229-7.19-3.75-10.75v-1c-.4762-5.524 1.762-10.26 4-15z" fill="#e7e7e7" stroke="#e7e7e7"/><path d="m620 947c2.199-.7274 5.76.6509 2.75 2.75-18.61 11.57-14.79 38.72 2 50.5 3.792 7.307 11.13 11.9 18 16l4 4 6 14-1 3.5c-8.825 8.822-12.43 21.12-12.75 33.25 2.634 7.447 8.442 14.41 15.75 17.75-1.404-11.99-1.216-25.58 3.5-36.5l-.25 8.75-1.75 7.25c-5.096 26.19 17.89 44.89 38.5 55v2.5c-14.87-6.992-29.37-17.77-38-32.5-17.01-3.015-35.94-18.16-31-37.5l-6 5c-6.355 7.824-7.839 17.9-6.5 28 4.652 7.801 14.07 17.41 23.75 14.25l1.75 1.75c-11.13 4.61-22.83-6.231-27.75-15.75-1.549-13.5 1.651-26.18 11.75-35.25l5.5-8.5c2.222 1.9 3.906-1.047 5.5-2.5-.3876-5.834 1.203-10.96 4.25-15.75l-3.25-9.75c-12.24-11.21-24.56-24.13-29.75-40.25l1-4c-.913-10.73 7.857-18.29 14-26z" fill="#353535" stroke="#353535"/><path d="m443 974 8.25 4.75c7.141 3.633 12.34 11.56 10.5 20l-2 2h-4.5l1-1.5 2.5-.5c4.535-9.837-6.742-18.13-14.5-22z" fill="#353535" stroke="#353535"/><path d="m724 1007 .25-1.75 10-14 4-6h1.5c.511 7.953-6.223 14.7-12.5 19l-.5 1.5z" fill="#d9d9d9" stroke="#d9d9d9"/><path d="m724 1007-1 1z" fill="#bebebe" stroke="#bebebe"/><path d="m723 1008c.1398 1.885-1.885-.1397 0 0z" fill="#9b9b9b" stroke="#9b9b9b"/><path d="m426 1014 1.75.25c1.821 3.15 3.75 7.752 8 8l2.25.75.75.75-1.75 1.25c-5.182-.5862-10.91-5.42-11-11z" fill="#3b3b3b" stroke="#3b3b3b"/><path d="m638 1017c-1.885.1398.1397-1.885 0 0z" fill="#d8d8d8" stroke="#d8d8d8"/><path d="m638 1017 5.75 3.25 2.25 4.75-1 4-1.75 4.25-6 5.5-.25-3.75 3-9 .75-1.75-2.5-5.5z" fill="#f3f3f3" stroke="#f3f3f3"/><path d="m705 1019c3.831-.2777-.2964 2.624-1.25 3.75l-5.5 1.5c-8.385 7.912-20.22 14.51-22.5 26.5l-1.75 7.25c-3.307 4.154-2.429 11.23-1 16l-.25 11.75-7.5-9c-1.661-13.73 3.954-25.94 10-37.5 8.397-7.435 16.43-16.08 27.5-18.5z" fill="#e9e9e9" stroke="#e9e9e9"/><path d="m699 1028c-.1398-1.885 1.885.1398 0 0z" fill="#a7a7a7" stroke="#a7a7a7"/><path d="m699 1028-1 1z" fill="#949494" stroke="#949494"/><path d="m698 1029-3.25 5.75-8.5 13.5-.25 3.75-2 4-2 19 4.75 20.25v1.5l-5.5-4-6-8-1-21.5c2.438-11.5 7.471-23.83 18.5-30.5l3.5-3.5z" fill="#eee" stroke="#eee"/><path d="m647 1033 1 2-1.25 3.75c-4.838 6.17-6.835 13.75-9 21h-.5v-16.5l6.5-4.5z" fill="#f6f6f6" stroke="#f6f6f6"/><path d="m633 1047 1 1v18l7.75 16.25v1.5c-7.684-2.07-10.86-10.37-13.75-16.75l1.25-16.75z" fill="#f8f8f8" stroke="#f8f8f8"/></g></g></svg>