<svg clip-rule="evenodd" fill-rule="evenodd" height="53.648602mm" image-rendering="optimizeQuality" shape-rendering="geometricPrecision" text-rendering="geometricPrecision" viewBox="0 0 53.648602 53.648602" width="53.648602mm" xmlns="http://www.w3.org/2000/svg"><path d="m6.6401514 25.892601h2.8387v-8.5449c0-9.5790992 7.7685996-17.34769924 17.3475996-17.34769924 9.5793 0 17.3474 7.76860004 17.3474 17.34769924v8.4605c-.041.0287-.0818.0568-.122.0844h.0003l-.0264.0178-.003.002-.003.0017-.003.0019-.0131.009-.0155.0105-.003.0021-.017.0115-.0008.0006-.007.0045-.004.0025-.008.0057-.002.0013-.0103.0069h-.0001l-.0103.007-.0139.0093-.007.0045-.006.0037-.005.0031-.0156.0106-.0151.0099-.0007.0005-.0196.013-.004.0028-.0239.0157-.002.0014-.01.0065-.0003.0002-.004.0024-.0313.0205-.005.0032-.007.0045-.003.0019-.002.0015-.0161.0105-.002.0009-.0004.0003-.001.0006-.0184.0119-.004.0025-.006.0038-.006.0035-.004.0027-.01.0063-.009.0058-.0007.0003-.01.0063-.001.0007-.009.0054-.003.0018-.007.0045-.005.0028-.005.0032-.006.0039-.004.0022-.0527.0331-.0112.0068-.003.0017-.0282.0175-.002.0014-.0321.0195-.0008.0005-.002.0014-.009.0052-.0005.0003-.009.0056-.001.0006-.008.0049-.008.0048-.001.0007-.004.0026-.0139.0083-.007.0045-.0106.0064-.031.0182-.031.0182-.0312.0183-.0312.0184-.063.0368-.0317.0184-.0318.0186-.0132.0076-.0831.048-.0323.0186-.0326.0186-.0326.0188-.0429.0245-.056.0317-.0332.0188-.129.0725-.006.003-.034.0189-.034.0191-.008.0042-.0453.025-.1017.0559-.0478.0262c-.0488.0265-.0981.0532-.1479.0799l-.0127.0069-.0232.0124-.0724.0385-.0364.0194-.006.0032-.0669.0353-.0003.0002-.037.0193-.0106.0055-.0638.0334-.0374.0194-.0343.0177c-.0467.0242-.0939.0484-.1415.0726l-.0389.0198c-.0559.0283-.1124.0568-.1695.0852l-.0005.0002c-.0545.0271-.1095.0543-.1651.0815l-.0552.027c-.0604.0293-.1213.0589-.183.0884h-.0003c-3.445 1.6457-8.9698 3.3967-19.458 4.1496-7.5135.5398-12.0683996 3.8468-15.0392996 7.8378zm10.8292996 0h18.7139v-8.5449c0-5.1671-4.19-9.3570992-9.3569-9.3570992-5.1668 0-9.357 4.1899992-9.357 9.3570992zm24.2416 1.3477c-.056.0283-.1123.0567-.1695.0852m-6.8566-23.1287992c-2.2246-1.3293-4.8253-2.0941-7.6044-2.0941-7.6178 0-13.897 5.7395-14.7512 13.1283992 2.2332-6.9867992 8.7795-12.0478992 16.5063-12.0478992 2.0525 0 4.0218.358 5.8493 1.0136zm12.3278 24.9665992v24.4853h-34.5405c3.8076-2.117 6.6453-1.9014 11.3452-1.7528 6.4003.2024 13.4724-2.4788 16.9505-6.029 3.4785-3.5506-.3148-.8401-4.2524.1588-3.9382.9983-11.5585 1.1046-16.6522-.2343 16.043.2187 22.2867-4.9709 25.8324-9.6186 3.5455-4.6476-1.5335-.8069-4.8238.7953-3.2901 1.6037-9.0284 2.7494-15.3383 1.9139 9.5512-.0198 16.8185-4.7928 21.4791-9.7186z" fill="#0093dd"/></svg>