<svg enable-background="new" height="250.50751" viewBox="0 0 66.280113 66.280113" width="250.50751" xmlns="http://www.w3.org/2000/svg" xmlns:xlink="http://www.w3.org/1999/xlink"><clipPath id="a"><path d="m33.86713 243.43265c-10.880422-.00011-19.700791 8.82024-19.700666 19.70068-.000125 10.88042 8.820244 19.70077 19.700666 19.70066 6.169379-.0143 11.975716-2.91813 15.688204-7.84549l.01791.0107.102743-.17755c.918898-1.23276 1.69033-2.56885 2.29852-3.98101l-12.387966-7.1527c.01826-.18413.02739-.36903.02774-.55405-.000019-3.17384-2.572912-5.74673-5.746748-5.74677-3.173838.00004-5.746734 2.57293-5.746768 5.74677.000034 3.17384 2.57293 5.74673 5.746768 5.74677 1.179669-.002 2.32995-.36815 3.29469-1.04706l7.43758 4.29458c-2.657252 3.18291-6.585981 5.02791-10.73227 5.0401-7.750976-.00004-14.034355-6.28343-14.034391-14.03439.000036-7.75096 6.283415-14.03435 14.034391-14.03437 1.644346.009 3.274248.30783 4.815319.88147.432941.23108.919115.35231 1.413341.35241 1.619414.00013 2.932237-1.27253 2.932112-2.8424-.0013-1.0165-.711451-1.96286-1.620721-2.46915 0 0-.459666-.22667-.620453-.28907-2.205641-.85587-4.553725-1.2854-6.919582-1.29957z"/></clipPath><linearGradient id="b" gradientUnits="userSpaceOnUse" x1="58.605209" x2="7.14375" y1="304.01141" y2="224.76874"><stop offset="0" stop-color="#dc493c"/><stop offset="1" stop-color="#e8887f"/></linearGradient><filter id="c" color-interpolation-filters="sRGB" height="1.004703" width="1.004901" x="-.002451" y="-.002351"><feGaussianBlur stdDeviation=".038604687"/></filter><filter id="d" color-interpolation-filters="sRGB" height="1.004708" width="1.004896" x="-.002448" y="-.002354"><feGaussianBlur stdDeviation=".064072276"/></filter><g transform="translate(-.726617 -230.138631)"><path d="m27.626438 230.93706-1.796274 7.39227a26.550438 26.550438 0 0 0 -9.959928 5.78561l-7.2442762-2.1237-6.1676142 10.68233 5.4923951 5.24175a26.550438 26.550438 0 0 0 -.6345185 5.68571 26.550438 26.550438 0 0 0 .6835439 5.83648l-5.4683514 5.21769 6.1676178 10.68233 7.3006845-2.14037a26.550438 26.550438 0 0 0 9.996944 5.75973l1.775923 7.30808h12.334305l1.796274-7.39133a26.550438 26.550438 0 0 0 9.959946-5.78561l7.244271 2.12277 6.167608-10.68233-5.492404-5.24081a26.550438 26.550438 0 0 0 .634521-5.68663 26.550438 26.550438 0 0 0 -.683546-5.83557l5.468366-5.2186-6.167627-10.68235-7.300689 2.14037a26.550438 26.550438 0 0 0 -9.996012-5.7588l-1.775923-7.30902z" fill="none" filter="url(#d)" stroke="#5b1a14" stroke-linecap="round" stroke-width=".661458"/><path d="m27.626438 230.46936-1.796274 7.39227a26.550438 26.550438 0 0 0 -9.959928 5.78561l-7.2442762-2.1237-6.1676142 10.68233 5.4923951 5.24175a26.550438 26.550438 0 0 0 -.6345185 5.68571 26.550438 26.550438 0 0 0 .6835439 5.83648l-5.4683514 5.21769 6.1676178 10.68233 7.3006845-2.14037a26.550438 26.550438 0 0 0 9.996944 5.75973l1.775923 7.30808h12.334305l1.796274-7.39133a26.550438 26.550438 0 0 0 9.959946-5.78561l7.244271 2.12277 6.167608-10.68233-5.492404-5.24081a26.550438 26.550438 0 0 0 .634521-5.68663 26.550438 26.550438 0 0 0 -.683546-5.83557l5.468366-5.2186-6.167627-10.68235-7.300689 2.14037a26.550438 26.550438 0 0 0 -9.996012-5.7588l-1.775923-7.30902z" fill="url(#b)" stroke="#be3529" stroke-linecap="round" stroke-width=".661458"/><path d="m33.867129 243.43265c-10.880421-.00011-19.70079 8.82024-19.700665 19.70068-.000125 10.88042 8.820244 19.70077 19.700665 19.70066 6.169381-.0143 11.975716-2.91813 15.688205-7.84549l.0179.0107.102741-.17755c.9189-1.23276 1.69033-2.56885 2.29852-3.98101l-12.387966-7.1527c.01826-.18413.02739-.36903.02774-.55405-.000018-3.17384-2.572913-5.74673-5.746749-5.74677-3.173837.00004-5.746732 2.57293-5.746768 5.74677.000036 3.17384 2.572931 5.74673 5.746768 5.74677 1.17967-.002 2.329951-.36815 3.29469-1.04706l7.43758 4.29458c-2.657252 3.18291-6.58598 5.02791-10.73227 5.0401-7.750975-.00004-14.034354-6.28343-14.03439-14.03439.000036-7.75096 6.283415-14.03435 14.03439-14.03437 1.644347.009 3.27425.30783 4.815319.88147.432942.23108.919115.35231 1.413343.35241 1.619414.00013 2.932235-1.27253 2.93211-2.8424-.0014-1.0165-.71145-1.96286-1.62072-2.46915 0 0-.459665-.22667-.620452-.28907-2.205643-.85587-4.553726-1.2854-6.919583-1.29957z" fill="#fff"/><g fill="none" stroke-linecap="round" stroke-width=".661458"><path clip-path="url(#a)" d="m33.94898 243.79513c-10.88042-.00014-19.705814 8.97349-19.700665 19.70068.0049 10.72717 8.820244 19.70077 19.700665 19.70066 6.169381-.0143 11.976514-2.94246 15.688205-7.84549l.0179.0107.102741-.17755c.9187-1.22666 1.690687-2.57973 2.29852-3.98101l-12.387966-7.1527c.01795-.17465.02771-.37872.02774-.55405-.0055-3.00718-2.572913-5.74673-5.746749-5.74677-3.173837.00004-5.752196 2.73959-5.746768 5.74677.0055 3.00719 2.572931 5.74674 5.746768 5.74677 1.179664-.002 2.330958-.39886 3.29469-1.04706l7.43758 4.29458c-2.654987 3.11383-6.586003 5.02861-10.73227 5.0401-7.750975-.00003-14.026256-6.5304-14.03439-14.03439-.0081-7.50398 6.283415-14.03434 14.03439-14.03437 1.644325.01 3.27333.33588 4.815319.88147.43305.22778.918249.37874 1.413343.35241 1.622253-.0865 2.928924-1.17153 2.93211-2.8424.000741-1.08181-.711334-1.96639-1.62072-2.46915 0 0-.459602-.22859-.620452-.28907-2.206511-.8294-4.553766-1.28416-6.919583-1.29957z" filter="url(#c)" stroke="#7f231c"/><path d="m33.867129 243.43265c-10.880421-.00011-19.70079 8.82024-19.700665 19.70068-.000125 10.88042 8.820244 19.70077 19.700665 19.70066 6.169381-.0143 11.975716-2.91813 15.688205-7.84549l.0179.0107.102741-.17755c.9189-1.23276 1.69033-2.56885 2.29852-3.98101l-12.387966-7.1527c.01826-.18413.02739-.36903.02774-.55405-.000018-3.17384-2.572913-5.74673-5.746749-5.74677-3.173837.00004-5.746732 2.57293-5.746768 5.74677.000036 3.17384 2.572931 5.74673 5.746768 5.74677 1.17967-.002 2.329951-.36815 3.29469-1.04706l7.43758 4.29458c-2.657252 3.18291-6.58598 5.02791-10.73227 5.0401-7.750975-.00004-14.034354-6.28343-14.03439-14.03439.000036-7.75096 6.283415-14.03435 14.03439-14.03437 1.644347.009 3.27425.30783 4.815319.88147.432942.23108.919115.35231 1.413343.35241 1.619414.00013 2.932235-1.27253 2.93211-2.8424-.0014-1.0165-.71145-1.96286-1.62072-2.46915 0 0-.459665-.22667-.620452-.28907-2.205643-.85587-4.553726-1.2854-6.919583-1.29957z" stroke="#be3529"/></g></g></svg>