<svg height="300" viewBox="0 0 300 300" width="300" xmlns="http://www.w3.org/2000/svg" xmlns:xlink="http://www.w3.org/1999/xlink"><linearGradient id="a" gradientUnits="userSpaceOnUse" x1="0" x2="300.125" y1="901.83858" y2="901.83858"><stop offset="0" stop-color="#e2e2e2"/><stop offset=".5" stop-color="#dfdfdf"/><stop offset=".5" stop-color="#e5e5e5"/><stop offset="1" stop-color="#e4e4e4"/></linearGradient><g transform="translate(0 -752.36216)"><path d="m.50507627 772.5499 20.70812673 20.07679 21.844549-20.07679 21.465742 20.20306 21.592011-20.32933 20.581855 20.07679 22.09709-19.95052 21.20555 19.81226 21.3125-20.125 22.0625 20.3125 21.375-20.1875 21.25 20.625 21.1875-20.4375 21.5 20.3125 21.4375-20.6875v192.37155l-68.19398 66.95629h-216.021117c-7.7945069-1.9817-13.0965281-7.2867-15.909903-15.9099z" fill="url(#a)" fill-rule="evenodd"/><path d="m41.094337 901.0603h85.301888v86.547173h-85.301888z" fill="#efefef"/><path d="m20 882.36217v130.00003h130v-130.00003zm63.556686 26.98161c14.295804.12659 21.211194 4.90167 26.462094 10.27313l-10.585618 11.20865c-5.667518-5.66752-9.597555-6.22638-16.187014-6.22638 0 0-19.925184-.70488-19.925184 23.03642 0 10.16238 2.855885 20.53425 21.481777 21.79232 12.563146 0 19.923229-6.17056 19.923229-14.31989l-19.923229-.31249-.31249-14.31988 36.424689-.31054c.97857 30.64473-15.02575 44.82873-35.491123 44.82873-18.79727 0-37.979329-15.0979-37.979329-37.66879 0-23.95713 18.160238-37.98128 36.112198-37.98128z" fill="#4a5bb9"/><path d="m20 827.36218h129.87737v34h-129.87737z" fill="#4f8ef5"/><path d="m150 827.36218h132v34h-132z" fill="#0cacf4"/><g fill="#ccc"><path d="m170 882.36218h109v14h-109z"/><path d="m170 936.36218h109v14h-109z"/><path d="m170 909.36218h109v14h-109z"/><path d="m170 990.36218h85.339622v14h-85.339622z"/><path d="m170 963.36218h109v14h-109z"/></g><path d="m232.08962 1031.0367.0778-53.88861c1.30913-8.0957 6.39108-12.16336 14.73089-13.82367h53.83748z" fill="#a4a4a4" fill-rule="evenodd"/></g></svg>