<svg height="121.40051" viewBox="0 0 121.40051 121.40051" width="121.40051" xmlns="http://www.w3.org/2000/svg"><g transform="translate(.000001 18.200256)"><path d="m118.9 13.3c-1.4-5.2-5.5-9.3-10.7-10.7-9.5-2.6-47.5-2.6-47.5-2.6s-38 0-47.5 2.5c-5.1 1.4-9.3 5.6-10.7 10.8-2.5 9.5-2.5 29.2-2.5 29.2s0 19.8 2.5 29.2c1.4 5.2 5.5 9.3 10.7 10.7 9.6 2.6 47.5 2.6 47.5 2.6s38 0 47.5-2.5c5.2-1.4 9.3-5.5 10.7-10.7 2.5-9.5 2.5-29.2 2.5-29.2s.1-19.8-2.5-29.3z" fill="#f00"/><path d="m80.2 42.5-31.6-18.2v36.4z" fill="#fff"/></g></svg>