<svg height="511.99899" viewBox="0 0 511.999 511.99899" width="511.99899" xmlns="http://www.w3.org/2000/svg"><path d="m441.411 140.235v338.781c0 18.219-14.778 32.983-32.983 32.983h-304.857c-18.219004 0-32.983003-14.764-32.983003-32.983v-446.033007c-.001-18.219 14.762999-32.98299946 32.983003-32.98299946h197.605z" fill="#518ef8"/><g fill="#fff"><path d="m161.178986 257.053984h189.62601v21.070999h-189.62601z"/><path d="m161.178986 304.111994h189.62601v21.070999h-189.62601z"/><path d="m161.178986 351.170984h189.62601v21.070999h-189.62601z"/><path d="m161.178986 398.230004h134.855v21.070999h-134.855z"/></g><path d="m320.31 137.188 121.102 49.891v-46.844l-68.661-20.273z" fill="#3a5bbc" transform="translate(-.001004 -.000006)"/><path d="m441.411 140.235h-107.252c-18.22 0-32.983-14.764-32.983-32.983v-107.25200646z" fill="#acd1fc"/></svg>