<svg height="800" viewBox="0 0 800 800" width="800" xmlns="http://www.w3.org/2000/svg" xmlns:xlink="http://www.w3.org/1999/xlink"><clipPath id="a"><path d="m0 0h800v800h-800z"/></clipPath><mask id="b"><path d="m800 400c0-220.766-179.234-400-400-400s-400 179.234-400 400 179.234 400 400 400q2.471 0 324.438 0c41.704 0 75.562-33.858 75.562-75.562q0-321.967 0-324.438z" fill="#fff"/></mask><linearGradient id="c" gradientUnits="userSpaceOnUse" x1="-4" x2="-4" y1="400" y2="1208"><stop offset="0" stop-color="#f6c844"/><stop offset=".22173913043" stop-color="#f4ba15"/><stop offset="1" stop-color="#c39511"/></linearGradient><filter id="d" height="4" width="4" x="-2" y="-2"><feGaussianBlur stdDeviation="8.58721812568"/></filter><linearGradient id="e" gradientUnits="userSpaceOnUse" x1="396.37839" x2="400" y1="400" y2="601"><stop offset="0" stop-color="#fff"/><stop offset="1" stop-color="#ddd"/></linearGradient><g clip-path="url(#a)"><path d="m800 400c0-220.766-179.234-400-400-400s-400 179.234-400 400 179.234 400 400 400q2.471 0 324.438 0c41.704 0 75.562-33.858 75.562-75.562q0-321.967 0-324.438z" style="fill:#f4ba15;stroke-width:8;stroke-linecap:round;stroke-linejoin:round;stroke-miterlimit:3;mask:url(#b);stroke:url(#c)"/><path d="m526 800q1.511 0 198.438 0c41.704 0 75.562-33.858 75.562-75.562q0-198.912 0-200.438l-250.579-250.579-275 275z" fill-opacity=".1"/><g filter="url(#d)"><path d="m600 409c0-110.383-89.617-200-200-200s-200 89.617-200 200 89.617 200 200 200c52.899 0 101.029-20.582 136.812-54.167l45.188 48.167q5.144 3.248 8 2 2.782-1.215 4-7 6-184.674 6-189z" fill-opacity=".2"/></g><path d="m600 400c0-110.383-89.617-200-200-200s-200 89.617-200 200 89.617 200 200 200c52.899 0 101.029-20.582 136.812-54.167l45.188 48.167q5.144 3.248 8 2 2.782-1.215 4-7 6-184.674 6-189z" fill="#fff" stroke="url(#e)" stroke-linecap="square" stroke-miterlimit="3" stroke-width="2"/><path d="m599.995 398.637c-.741-108.653-90.072-196.637-199.995-196.637-110.383 0-200 88.721-200 198h200z" fill-opacity=".1"/></g></svg>