<svg height="76.39119mm" viewBox="0 0 76.39119 76.39119" width="76.39119mm" xmlns="http://www.w3.org/2000/svg" xmlns:xlink="http://www.w3.org/1999/xlink"><linearGradient id="a" gradientUnits="userSpaceOnUse" x1="-174.13144" x2="-137.651263" y1="134.611898" y2="171.092076"><stop offset="0" stop-opacity=".348"/><stop offset="1" stop-color="#1ba261" stop-opacity="0"/></linearGradient><linearGradient id="b" gradientUnits="userSpaceOnUse" x1="-147.421819" x2="-147.421819" y1="112.679368" y2="183.429765"><stop offset="0" stop-color="#3aba7b"/><stop offset="1" stop-color="#077d41"/></linearGradient><filter id="c" color-interpolation-filters="sRGB" height="1.044847" width="1.05163" x="-.025815" y="-.022423"><feGaussianBlur stdDeviation="3.1129687"/></filter><g transform="translate(196.357423 -111.288831)"><path d="m-571.85352 362.64844a144.70434 142.68404 0 0 0 -144.70507 142.68359 144.70434 142.68404 0 0 0 144.70507 142.68359 144.70434 142.68404 0 0 0 9.52149-.33203 144.70434 142.68404 0 0 1 -9.52149.33203v47.81836a255.22956 251.64121 0 0 0 132.80079-133.95507 144.70434 142.68404 0 0 0 11.90234-56.54688 144.70434 142.68404 0 0 0 -144.70313-142.68359zm126.4336 211.98047a144.70434 142.68404 0 0 1 -.35352.56836 144.70434 142.68404 0 0 0 .35352-.56836zm-7.63086 12.08007a144.70434 142.68404 0 0 1 -.65625.85157 144.70434 142.68404 0 0 0 .65625-.85157zm-8.81641 11.27344a144.70434 142.68404 0 0 1 -.97851 1.03516 144.70434 142.68404 0 0 0 .97851-1.03516zm-9.90234 10.33985a144.70434 142.68404 0 0 1 -1.51367 1.31054 144.70434 142.68404 0 0 0 1.51367-1.31054zm-10.88477 9.30664a144.70434 142.68404 0 0 1 -2.2207 1.5664 144.70434 142.68404 0 0 0 2.2207-1.5664zm-11.77929 8.19921a144.70434 142.68404 0 0 1 -2.85352 1.61524 144.70434 142.68404 0 0 0 2.85352-1.61524zm-12.55274 7.00586a144.70434 142.68404 0 0 1 -3.60547 1.58985 144.70434 142.68404 0 0 0 3.60547-1.58985zm-13.16211 5.72266a144.70434 142.68404 0 0 1 -4.58594 1.50391 144.70434 142.68404 0 0 0 4.58594-1.50391zm-13.71094 4.41797a144.70434 142.68404 0 0 1 -5.31835 1.17578 144.70434 142.68404 0 0 0 5.31835-1.17578zm-14.0625 3.04492a144.70434 142.68404 0 0 1 -6.28515.75195 144.70434 142.68404 0 0 0 6.28515-.75195z" filter="url(#c)" opacity=".686" transform="matrix(.21733443 0 0 .2191384 -33.878159 33.548864)"/><path d="m-158.16211 111.29883c-17.72922-.00009-32.11518 14.18296-32.11523 31.67383.00005 17.35419 14.17276 31.41169 31.71093 31.63086v10.73242l.56641-.2461c13.26305-5.7682 23.76134-16.35774 29.31055-29.56445 1.73938-3.96314 2.63882-8.23402 2.64257-12.55273-.00005-17.49071-14.38618-31.67368-32.11523-31.67383z" fill="url(#b)"/><path d="m-158.16211 112.10938c17.2962.00014 31.30355 13.81603 31.30469 30.86132-.004 4.2066-.87969 8.36953-2.57422 12.23047v.002l-.002.004c-5.3856 12.82188-15.5215 23.11838-28.32227 28.85938 0 0 0-8.56347 0-9.43555s.0769-.79689-.40627-.79689c-17.29704.00009-31.30463-13.81496-31.30469-30.86132.00005-17.04637 14.00765-30.86337 31.30469-30.86328z" fill="#18a15f"/><path d="m-160.46215 134.6119v13.66919l-7.09503-7.17336-6.57415 7.17336 28.68701 28.68744c.89902-.72088 1.77305-1.46938 2.62282-2.24232a55.930597 55.144252 0 0 0 1.66065-1.57335c.7247-.71594 1.42889-1.45096 2.11221-2.20465a55.930597 55.144252 0 0 0 1.73299-2.00605c.30097-.3656.59788-.73454.88939-1.10768l.036.0359a55.930597 55.144252 0 0 0 7.33044-12.50715 31.710278 31.267552 0 0 0 1.82458-5.58375l-15.07518-15.16763v13.66919l-7.09503-7.17336-2.20679 2.40795z" fill="url(#a)"/><g fill="#fff"><path d="m-174.13143 134.6119v13.66918h7.55385v8.08244a7.4204148 8.2181093 0 0 0 6.11576-8.08244 7.4204148 8.2181093 0 0 0 -.00043-.0137v-13.65549z"/><path d="m-155.97965 134.6119v13.66919h7.55385v8.08244a7.420415 8.2181094 0 0 0 6.11576-8.08244 7.420415 8.2181094 0 0 0 -.00044-.0137v-13.65549z"/></g></g></svg>