<svg height="22.5" viewBox="0 0 22.5 22.5" width="22.5" xmlns="http://www.w3.org/2000/svg" xmlns:xlink="http://www.w3.org/1999/xlink"><clipPath id="a"><path d="m23 12c0 6.1-4.9 11-11 11s-11-4.9-11-11 4.9-11 11-11 11 4.9 11 11z"/></clipPath><path d="m-.75-.75h24v24h-24z" fill="none"/><g clip-path="url(#a)" transform="translate(-.75 -.75)"><path d="m23 12c0 6.1-4.9 11-11 11s-11-4.9-11-11 4.9-11 11-11 11 4.9 11 11z" fill="#91bfff"/></g><path clip-path="url(#a)" d="m1 12c.3-4.6 5.8-7.7 11 .2 4.5 6.9 10.1 5 10.9 1.3v9.5h-21.9z" fill="#4285f4" transform="translate(-.75 -.75)"/><path clip-path="url(#a)" d="m23 11.5c-1.5 1.6-4.5 2.2-7.6-2.7-3.8-6.4-7.9-7.3-11.9-3.8v-4h19.5z" fill="#c4e1ff" transform="translate(-.75 -.75)"/><path clip-path="url(#a)" d="m8 1.7c4.8-1.5 8.3 1.3 10.7 5 1.6 2.5 2.6 2.6 3.9 2.2v-7.9h-14.6z" fill="#f5f5f5" transform="translate(-.75 -.75)"/><path clip-path="url(#a)" d="m21.2 18c-2.6 3.2-8.2 3.9-12.7-2-3.8-5-7.2-2.6-6.5.6v6.4h19.2z" fill="#255fdb" transform="translate(-.75 -.75)"/></svg>