<svg height="2498" viewBox="0 0 152.1 152" width="2500" xmlns="http://www.w3.org/2000/svg" xmlns:xlink="http://www.w3.org/1999/xlink"><linearGradient id="a"><stop offset="0" stop-color="#fff" stop-opacity=".1"/><stop offset="1" stop-color="#fff" stop-opacity="0"/></linearGradient><linearGradient id="b" gradientTransform="matrix(1 0 0 -1 0 153.32)" gradientUnits="userSpaceOnUse" x2="152.1" xlink:href="#a" y1="77.32" y2="77.32"/><clipPath id="c"><path d="m139.8 0h-27.5c-6.7 0-12.2 5.5-12.2 12.2v35.8h-40c-6.6 0-12 5.4-12 12v40h-36.1c-6.6 0-12 5.4-12 12v28c0 6.6 5.4 12 12 12h127.8c6.7 0 12.2-5.5 12.2-12.2v-127.6c0-6.7-5.5-12.2-12.2-12.2z"/></clipPath><clipPath id="d"><path d="m139.8 0h-27.5c-6.7 0-12.2 5.5-12.2 12.2v35.8h-40c-6.6 0-12 5.4-12 12v40h-36.1c-6.6 0-12 5.4-12 12v28c0 6.6 5.4 12 12 12h127.8c6.7 0 12.2-5.5 12.2-12.2v-127.6c0-6.7-5.5-12.2-12.2-12.2z"/></clipPath><linearGradient id="e" gradientTransform="matrix(1 0 0 -1 0 153.32)" gradientUnits="userSpaceOnUse" x1="74.25" x2="148.36" y1="79.07" y2="4.96"><stop offset="0" stop-color="#bf360c" stop-opacity=".2"/><stop offset="1" stop-color="#bf360c" stop-opacity=".02"/></linearGradient><clipPath id="f"><path d="m139.8 0h-27.5c-6.7 0-12.2 5.5-12.2 12.2v35.8h-40c-6.6 0-12 5.4-12 12v40h-36.1c-6.6 0-12 5.4-12 12v28c0 6.6 5.4 12 12 12h127.8c6.7 0 12.2-5.5 12.2-12.2v-127.6c0-6.7-5.5-12.2-12.2-12.2z"/></clipPath><clipPath id="g"><path d="m139.8 0h-27.5c-6.7 0-12.2 5.5-12.2 12.2v35.8h-40c-6.6 0-12 5.4-12 12v40h-36.1c-6.6 0-12 5.4-12 12v28c0 6.6 5.4 12 12 12h127.8c6.7 0 12.2-5.5 12.2-12.2v-127.6c0-6.7-5.5-12.2-12.2-12.2z"/></clipPath><clipPath id="h"><path d="m139.8 0h-27.5c-6.7 0-12.2 5.5-12.2 12.2v35.8h-40c-6.6 0-12 5.4-12 12v40h-36.1c-6.6 0-12 5.4-12 12v28c0 6.6 5.4 12 12 12h127.8c6.7 0 12.2-5.5 12.2-12.2v-127.6c0-6.7-5.5-12.2-12.2-12.2z"/></clipPath><clipPath id="i"><path d="m139.8 0h-27.5c-6.7 0-12.2 5.5-12.2 12.2v35.8h-40c-6.6 0-12 5.4-12 12v40h-36.1c-6.6 0-12 5.4-12 12v28c0 6.6 5.4 12 12 12h127.8c6.7 0 12.2-5.5 12.2-12.2v-127.6c0-6.7-5.5-12.2-12.2-12.2z"/></clipPath><linearGradient id="j" gradientTransform="matrix(1 0 0 -1 0 153.32)" gradientUnits="userSpaceOnUse" x1="50.969" x2="149.295" xlink:href="#a" y1="102.289" y2="3.963"/><path d="m139.8 0h-27.7c-6.7 0-12.2 5.5-12.2 12.2v35.8h-40.1c-6.5 0-11.8 5.3-11.8 11.9v40.1h-36.1c-6.6 0-11.9 5.3-11.9 11.9v28c0 6.6 5.3 11.9 11.9 12.1h128c6.7 0 12.2-5.5 12.2-12.2v-127.6c-.1-6.7-5.6-12.2-12.3-12.2z" fill="url(#b)"/><path d="m139.8 0h-27.7c-6.7 0-12.2 5.5-12.2 12.2v35.8h-40.1c-6.5 0-11.8 5.3-11.8 11.9v40.1h-36.1c-6.6 0-11.9 5.3-11.9 11.9v28c0 6.6 5.3 11.9 11.9 12.1h128c6.7 0 12.2-5.5 12.2-12.2v-127.6c-.1-6.7-5.6-12.2-12.3-12.2z" fill="url(#b)"/><g clip-path="url(#c)"><path d="m139.8 0h-27.5c-6.7 0-12.2 5.5-12.2 12.2v139.8h39.7c6.7 0 12.2-5.5 12.2-12.2v-127.6c0-6.7-5.5-12.2-12.2-12.2z" fill="#f57c00"/><path d="m48 60v40h-36c-6.6 0-12 5.4-12 12v28c0 6.6 5.4 12 12 12h88v-104h-40c-6.6 0-12 5.4-12 12z" fill="#ffc107"/></g><path clip-path="url(#d)" d="m100 48v104h39.7c6.7 0 12.2-5.5 12.2-12.2v-39.8z" fill="url(#e)"/><g fill="#fff"><path clip-path="url(#f)" d="m60 49h40v-1h-40c-6.6 0-12 5.4-12 12v1c0-6.6 5.4-12 12-12z" opacity=".2"/><path clip-path="url(#g)" d="m12 101h36v-1h-36c-6.6 0-12 5.4-12 12v1c0-6.6 5.4-12 12-12z" opacity=".2"/><path clip-path="url(#h)" d="m139.8 0h-27.5c-6.7 0-12.2 5.5-12.2 12.2v1c0-6.7 5.5-12.2 12.2-12.2h27.5c6.7 0 12.2 5.5 12.2 12.2v-1c0-6.7-5.5-12.2-12.2-12.2z" opacity=".2"/></g><path clip-path="url(#i)" d="m139.8 151h-127.8c-6.6 0-12-5.4-12-12v1c0 6.6 5.4 12 12 12h127.7c6.7 0 12.2-5.5 12.2-12.2v-1c.1 6.7-5.4 12.2-12.1 12.2z" fill="#bf360c" opacity=".2"/><path d="m139.8 0h-27.5c-6.7 0-12.2 5.5-12.2 12.2v35.8h-40c-6.6 0-12 5.4-12 12v40h-36.1c-6.6 0-12 5.4-12 12v28c0 6.6 5.4 12 12 12h127.8c6.7 0 12.2-5.5 12.2-12.2v-127.6c0-6.7-5.5-12.2-12.2-12.2z" fill="url(#j)"/></svg>