<svg height="67.24823mm" viewBox="0 0 67.24823 67.24823" width="67.24823mm" xmlns="http://www.w3.org/2000/svg"><g transform="matrix(.98012243 0 0 .98012243 -171.980263 -218.505437)"><rect fill="#34a668" height="60.099167" rx="5.238483" width="60.099167" x="176.03078" y="231.39877"/><path d="m206.47724 260.8998-28.98737 28.98738c.95208.99186 2.28981 1.61075 3.77961 1.61075h49.62178c1.69327 0 3.18961-.79908 4.146-2.03811z" fill="#5c88c5"/><path d="m226.74164 222.9879c-9.26523-.00003-16.77621 7.16992-16.77624 16.01453.007 2.76133.66273 5.47394 2.09238 7.87445.43042.70324.83091 1.40778 1.18959 2.10737.3336.50154.65067 1.00493.94982 1.50792.34373.47653.67371.95692.98857 1.43919 1.31001 1.76931 2.50056 3.50299 3.6375 5.16816.79248 1.27562 1.68289 2.63985 2.46548 3.99045 2.36368 4.09389 4.00715 8.09185 4.59972 13.91388.00053.004.00053.008.001.0124.18124.41155.51594.66553.8785.66663.40324-.001.76794-.31425.92966-.79841.60297-5.7563 2.23804-9.72915 4.58525-13.7945.78259-1.35061 1.673-2.71484 2.46548-3.99046 1.13695-1.66516 2.32749-3.39885 3.63751-5.16816.31485-.48227.64483-.96265.98857-1.43919.29914-.50299.61621-1.00637.94981-1.50792.35871-.69962.75966-1.40408 1.19011-2.10736 1.4255-2.40159 1.9998-5.11414 2.00349-7.87446-.00003-8.8446-7.51101-16.01455-16.77624-16.01452z" fill="#dd4b3e"/><ellipse cx="226.74162" cy="239.00235" fill="#802d27" rx="5.828121" ry="5.563538"/><path d="m190.30097 237.28315c-4.67081 0-8.45737 3.85319-8.45737 8.6062s3.78656 8.60619 8.45737 8.60619c3.04284 0 4.8061-.9577 6.33656-2.51509 1.53046-1.5574 2.08773-3.91304 2.08773-6.28954 0-.36257-.0232-.72286-.0641-1.07952h-3.2985-.62839-4.33048v3.04271h4.84983c-.19704.75864-.53112 1.44997-1.0573 1.98541-.9423.95889-2.02809 1.54874-3.90157 1.54874-2.87584 0-5.20744-2.37246-5.20744-5.2989s2.3316-5.2989 5.20744-5.2989c1.39904 0 2.61848.40673 3.58428 1.29294l2.38125-2.38125c-.001-.001-.003-.003-.004-.004-1.58834-1.52432-3.61978-2.21486-5.95519-2.21486zm4.42919 5.65909c.001.002.003.005.004.007v-.003z" fill="#fff"/><path d="m215.18369 251.92877-7.97884 7.97884 28.47578 28.47579c.28694-.649.44907-1.3663.44907-2.1239v-31.16451c-.46838.67498-.93358 1.34879-1.38131 2.00453-.79249 1.27561-1.68289 2.63984-2.46549 3.99045-2.3472 4.06536-3.98227 8.03821-4.58525 13.79451-.16172.48415-.52641.79734-.92966.7984-.36255-.001-.69725-.25507-.87849-.66663-.00053-.004-.00053-.008-.001-.0124-.59257-5.82203-2.23604-9.81999-4.59972-13.91388-.78259-1.3506-1.673-2.71484-2.46548-3.99046-1.13694-1.66517-2.3275-3.39885-3.63751-5.16816-.00053-.00079-.002-.002-.002-.003z" fill="#c3c3c3"/><path d="m212.98331 248.49539-36.95279 36.95278v.81133c0 2.90212 2.33684 5.23843 5.23896 5.23843h1.01441l35.66604-35.66604c-.87695-1.27461-1.78037-2.57181-2.76417-3.90053-.31486-.48227-.64484-.96266-.98857-1.43919-.29915-.50299-.61622-1.00638-.94982-1.50792-.0833-.16255-.17635-.32585-.26406-.48886z" fill="#fddc4f"/><path d="m211.99784 261.08274-6.15157 6.15156 24.26364 24.26363h.78135c2.90212 0 5.23844-2.33631 5.23844-5.23843v-1.0449z" fill="#fff"/></g></svg>