<svg height="747.51288" width="747.51288" xmlns="http://www.w3.org/2000/svg"><g transform="translate(-21.718269 252.04075)"><rect fill="#fdba19" fill-rule="evenodd" height="169.20055" ry="22.728432" width="747.51288" x="21.718269" y="37.21389"/><path d="m590.31149 37.213889-29.53125 42.499999v12.265623h27.89062v13.750009h12.65625v-13.750009h16.5625l11.25 47.187509h12.96875l11.79688-44.453129 11.875 44.453129h12.65625l14.45312-59.453132h-12.03125l-9.14062 41.484382-10.39063-41.484382h-14.29687l-10.85938 40.781252-8.98437-40.781252h-25.85938v-42.499999zm-1.64063 19.921874v22.578125h-15.70312zm109.92188 22.578125v9.21875h12.03125v-9.21875zm23.51562 0v59.453132h11.17188v-38.75l23.90625 38.75h12.03125v-59.453132h-11.09375v39.687502l-24.375-39.687502zm-23.51562 16.796873v42.656259h12.03125v-42.656259z" fill="#fa050c"/><g fill-rule="evenodd"><path d="m443.51462 37.184439 107.26562 169.218751h23.67187l-107.26562-169.218751zm37.89062 0 107.1875 169.218751h23.67187l-107.26562-169.218751z" fill="#fa050c"/><path d="m147.96773 19.762564c-56.17487-.000025-102.031269 45.778199-102.031244 101.953126.000025 56.17488 45.856324 101.95316 102.031244 101.95313 54.86528-.00002 99.80904-43.67388 101.87501-98.04688h-123.90626v17.65625h101.09376c-9.43395 34.8337-41.18733 60.39063-79.06251 60.39063-45.35362 0-82.031245-36.59948-82.031245-81.95313 0-45.353677 36.677595-81.953126 82.031245-81.953126 28.28368-.000025 53.1695 14.22325 67.89063 35.937499h23.04688c-16.8589-33.142774-51.30863-55.937524-90.93751-55.937499zm260.78126 48.437499c-34.357-.000025-62.4219 28.064848-62.42187 62.421877.00002 34.357 28.06485 62.4219 62.42187 62.42188 34.35705-.00003 62.4219-28.06485 62.42187-62.42188h-76.24999v16.5625h55.625c-6.56438 16.64745-22.7611 28.35938-41.79688 28.35938-24.88837 0-44.92187-20.03345-44.92187-44.92188 0-24.88842 20.03345-44.921877 44.92187-44.921877 14.10155-.000025 26.62015 6.460828 34.84375 16.562507h20.70313c-10.3728-20.164732-31.40173-34.062532-55.54688-34.062507zm-144.14062 3.515625v118.359382h17.5v-45.9375h13.125c26.22542 0 42.94125-17.58885 43.04687-36.17188.10563-18.583027-16.5572-36.250002-43.04687-36.250002h-13.125-9.60938zm17.5 17.5h13.125c19.52925 0 25.5973 9.799553 25.54687 18.671882-.0504 8.87232-6.3776 18.75-25.54687 18.75h-13.125z"/></g></g></svg>