<svg height="776.66669" viewBox="0 0 776.66668 776.66671" width="776.66669" xmlns="http://www.w3.org/2000/svg"><g stroke="#009cff" stroke-width="60" transform="translate(38.333344 -114.02889)"><g fill="none"><path d="m500 252.41607c-300 0-300 0-300 0"/><path d="m199.57346 252.61728c-149.147944 249.48914-149.147944 249.48914-149.147944 249.48914"/><path d="m50.427464 502.61853c149.144926 249.48773 149.144926 249.48773 149.144926 249.48773"/></g><ellipse cx="500" cy="252.36234" rx="58.333351" ry="58.333324"/><ellipse cx="200" cy="252.36234" rx="58.333351" ry="58.333324"/><ellipse cx="49.999996" cy="502.36234" rx="58.333351" ry="58.333324"/><path d="m649.99993 502.68486c-150.53762 249.51611-150.53762 249.51611-150.53762 249.51611" fill="none"/><path d="m500 752.36232c-300 0-300 0-300 0" fill="none"/><path d="m650 502.36233c-300 0-300 0-300 0" fill="none"/><ellipse cx="500" cy="752.3623" rx="58.333351" ry="58.333324"/><ellipse cx="200" cy="752.3623" rx="58.333351" ry="58.333324"/><ellipse cx="350" cy="502.36234" rx="58.333351" ry="58.333324"/><ellipse cx="650" cy="502.36234" rx="58.333351" ry="58.333324"/></g></svg>