<svg viewBox="0 0 1024 1025" xmlns="http://www.w3.org/2000/svg" xmlns:xlink="http://www.w3.org/1999/xlink"><linearGradient id="a" gradientUnits="userSpaceOnUse" x1="-.000375" x2="1023.999625" y1="512.50001" y2="512.50001"><stop offset="0" stop-color="#1088c4"/><stop offset="1" stop-color="#25a7e0"/></linearGradient><path d="m511.99997.49998c-70.66666 0-137 13.33333-198.99995 40-62.6667 26.66667-117.1667 63.16667-163.5 109.5-46.3334 46.33333-82.833395 100.83333-109.499995 163.5-26.6667 62-40 128.33333-40 199 0 70.66664 13.3333 137.00004 40 199.00004 26.6666 62.6667 63.166595 117.1667 109.499995 163.5 46.3333 46.3334 100.8333 82.8334 163.5 109.4999 61.99995 26.66678 128.33329 40.00008 198.99995 40.00008 70.66671 0 137.00001-13.3333 199.00001-40.00008 62.6667-26.6665 117.1667-63.1665 163.5-109.4999 46.3333-46.3333 82.8333-100.8333 109.5-163.5 26.66672-62 40.00002-128.3334 40.00002-199.00004 0-70.66667-13.3333-137-40.00002-199-26.6667-62.66667-63.1667-117.16667-109.5-163.5s-100.8333-82.83333-163.5-109.5c-62-26.66667-128.3333-40-199.00001-40z" fill="url(#a)"/><path d="m203.50748 297.27266c-3.82627 0-7.41339 1.43485-10.76137 4.30455-3.34797 2.8697-5.02197 6.21767-5.02197 10.04394v401.7577c0 3.82627 1.674 7.17425 5.02197 10.04394 3.34798 2.8697 6.9351 4.30455 10.76137 4.30455h616.98504c3.82627 0 7.41339-1.43485 10.76137-4.30455 3.34797-2.86969 5.02197-6.21767 5.02197-10.04394v-360.14708c0-2.8697-.95657-5.50025-2.8697-7.89167-1.91312-2.39142-3.82627-4.0654-5.73939-5.02197-2.8697-1.91313-5.7394-2.63055-8.6091-2.15227-2.86969.47827-5.26111 1.1957-7.17424 2.15227l-308.49252 206.61825h-2.8697l-130.57125-86.09094c-3.82627-1.91313-7.89167-2.39142-12.19622-1.43485-4.30454.95657-7.41339 2.8697-9.32652 5.7394-2.86969 3.82626-3.82626 7.89167-2.86969 12.19621.95657 4.30455 3.34797 7.41339 7.17424 9.32652l130.57125 86.09094c4.78283 3.82626 10.76137 5.50025 17.93562 5.02197 7.17424-.47828 13.63106-2.15228 19.37046-5.02197l284.10008-190.83491v315.66676h-585.41836v-370.19102h503.63197c3.82627 0 7.17425-1.43485 10.04395-4.30455s4.30454-6.69596 4.30454-11.47879c0-3.82627-1.43484-7.17424-4.30454-10.04394s-6.21768-4.30455-10.04395-4.30455z" fill="#fff" stroke-width="1.434849"/></svg>