<svg viewBox="0 0 1024 1025" xmlns="http://www.w3.org/2000/svg" xmlns:xlink="http://www.w3.org/1999/xlink"><linearGradient id="a" gradientUnits="userSpaceOnUse" x1="0" x2="1024" y1="513" y2="513"><stop offset="0" stop-color="#1088c4"/><stop offset="1" stop-color="#25a7e0"/></linearGradient><path d="m1024 513q0 106-40 199-40 94-109.5 163.5t-163.5 109.5q-93 40-199 40t-199-40q-94-40-163.5-109.5t-109.5-163.5q-40-93-40-199t40-199q40-94 109.5-163.5t163.5-109.5q93-40 199-40t199 40q94 40 163.5 109.5t109.5 163.5q40 93 40 199zm-303-120-215 144h-2l-91-60q-4-2-8.5-1t-6.5 4q-3 4-2 8.5t5 6.5l91 60q5 4 12.5 3.5t13.5-3.5l198-133v220h-408v-258h351q4 0 7-3t3-8q0-4-3-7t-7-3h-362q-4 0-7.5 3t-3.5 7v280q0 4 3.5 7t7.5 3h430q4 0 7.5-3t3.5-7v-251q0-3-2-5.5t-4-3.5q-3-2-6-1.5t-5 1.5z" fill="url(#a)"/></svg>