<svg height="63.812618" width="63.812618" xmlns="http://www.w3.org/2000/svg" xmlns:xlink="http://www.w3.org/1999/xlink"><linearGradient id="a" gradientTransform="matrix(1.0847515 0 0 .92187014 -.093691 -1.093691)" gradientUnits="userSpaceOnUse" x1="1.469178" x2="1.469178" y1="6.684318" y2="62.054249"><stop offset="0" stop-color="#ffd600"/><stop offset="1" stop-color="#ff2600"/></linearGradient><use height="100%" opacity=".15" transform="translate(0 2)" width="100%" xlink:href="#b"/><path id="b" d="m31.625059 3.0151198c-7.285288.0713-14.595323.526836-15.96875 1.3125-2.746852 1.571327-15.68850416 23.7864282-15.65624978 26.8750002.03225602 3.088573 13.47089178 25.076505 16.24999978 26.59375 2.779105 1.517245 29.159399 1.258827 31.90625-.3125 2.746852-1.571328 15.688504-23.786428 15.65625-26.875-.03226-3.088572-13.439642-25.1077562-16.21875-26.6250002-1.389552-.758623-8.683463-1.040052-15.96875-.96875zm-.1875 9.2500002c3.386631-.03246 6.676687.05409 8.75.28125l-8.71875 9.71875-9.0625-9.5c2.055746-.283043 5.521157-.466366 9.03125-.5zm17.34375 9.84375c2.298293 3.744897 4.302354 7.392556 4.3125 8.34375.01126 1.055883-2.358157 5.507241-4.875 9.6875l-9.03125-8.03125zm-34.46875.25 8.75 9.75-8.1875 7.875c-2.482342-3.992634-4.707927-8.110307-4.71875-9.125-.01021-.95736 1.927117-4.687748 4.15625-8.5zm17.15625 16.90625 9.8125 9.21875c-4.111037.67314-16.108253.781873-19.46875.125z"/><path d="m31.250059 5.0776198c-6.857093.06521-13.707297.469014-15 1.1875-2.585405 1.4369714-14.7803581 21.7692652-14.7500001 24.5937502.03036 2.824486 12.6654861 22.924987 15.2812501 24.3125 2.615763 1.387513 27.445846 1.186972 30.03125-.25 2.585405-1.436972 14.780359-21.769265 14.75-24.59375-.03036-2.824485-12.665486-22.9562378-15.28125-24.3437502-1.307881-.693757-8.174158-.971456-15.03125-.90625zm.0625 5.0625002c5.36199-.05245 10.696035.19201 11.71875.75.06132.03346.143803.127745.21875.1875l-11.28125 12.59375-.5.53125-.46875-.53125-11.75-12.3125c.10903-.09884.228263-.201843.3125-.25 1.010846-.577879 6.38801-.916306 11.75-.96875zm18.0625 9.46875c2.883844 4.661341 5.612556 9.652893 5.625 10.84375.01348 1.290331-3.064699 7.087557-6.09375 12.09375l-11.09375-9.90625-.53125-.46875.5-.46875zm-35.78125.03125 10.84375 12.0625.4375.46875-.46875.4375-10.28125 9.90625c-3.04689-4.86606-6.0493621-10.36778-6.0625001-11.625-.01271-1.216102 2.6892391-6.451996 5.5312501-11.25zm17.875 17.78125.4375.4375 12.34375 11.59375c-.318014.365376-.587006.638955-.78125.75-2.02169 1.155758-21.423322 1.397228-23.46875.28125-.228202-.124506-.601742-.47821-1-.9375l12-11.6875z" fill="url(#a)"/></svg>