<svg height="42.701641" viewBox="0 0 42.701641 42.701642" width="42.701641" xmlns="http://www.w3.org/2000/svg" xmlns:xlink="http://www.w3.org/1999/xlink"><radialGradient id="a" cx="-557.59998" cy="1721.41" gradientTransform="matrix(.88 0 0 -.88 515.08431 1552.34)" gradientUnits="userSpaceOnUse" r="46.5"><stop offset=".05" stop-color="#efac00"/><stop offset=".17" stop-color="#eb9100"/><stop offset=".4" stop-color="#e15600"/><stop offset=".63" stop-color="#c82400"/><stop offset=".72" stop-color="#b91200"/><stop offset=".81" stop-color="#ae0500"/><stop offset=".9" stop-color="#a00"/></radialGradient><path d="m36.944315 27.29a33.18 33.18 0 0 0 -1.8-10.6c-.9-2.6.9-5.7.9-5.7s-.9.1-2.8 1.8a6.52 6.52 0 0 0 -2 4.2c-2.4-5.5-7.2-9.1000002-9-11.5000002s-.49-5.48999995-.49-5.48999995c-3.6 1.59999995-5.4 5.39999995-6 9.99999995a8.23 8.23 0 0 1 -3.5 6.3000002c-.5-4.3-5.4-5.3-5.4-5.3 1 .3 2.8 5.2.9 8.9a17.15 17.15 0 0 0 -2 7.5c0 8.4 5.4 15.29 15.49 15.29a15.11 15.11 0 0 0 15.7-15.4z" fill="url(#a)"/><g fill="#333"><ellipse cx="26.844315" cy="25.389997" rx="2.2" ry="3.1"/><ellipse cx="15.754315" cy="25.389997" rx="2.2" ry="3.1"/><path d="m21.244315 40.38a11.37 11.37 0 0 1 -11.49-11.19 1 1 0 0 1 1-1 .94.94 0 0 1 1 1 9.45 9.45 0 0 0 9.5 9.3 9.39 9.39 0 0 0 9.5-9.3 1 1 0 0 1 1-1 .94.94 0 0 1 1 1 11.31 11.31 0 0 1 -11.51 11.19z"/></g></svg>