<svg height="24.910971" viewBox="0 0 34.87536 24.910971" width="24.910971" xmlns="http://www.w3.org/2000/svg"><g fill="none" fill-rule="evenodd" transform="translate(0 -7.065997)"><path d="m17.257098 36.924805c-.143-.055-14.2949996-4.84-14.2949996-21.86v-12.4369996c0-.3.232-.544.517-.544h27.9169996a.53.53 0 0 1 .517.543v12.4379996c0 17.02-14.152 21.804-14.294 21.86a.494.494 0 0 1 -.362 0" fill="#2fa6f8"/><path d="m23.746098 23.757805a7.894 7.894 0 0 1 -2.035 1.042 7.629 7.629 0 0 1 -6.11-.504c-1.83-.977-3.218-2.63-3.906-4.652a.189.189 0 0 0 -.22-.129.198.198 0 0 0 -.15.213 7.803 7.803 0 0 0 1.357 3.787c2.348 3.388 6.889 4.141 10.12 1.68.439-.333.84-.717 1.195-1.14a.207.207 0 0 0 0-.264.184.184 0 0 0 -.25-.033" fill="#0e5396"/><path d="m18.084098 8.8368054c4.08 1.3899996 6.419 6.0279996 5.211 10.3399996-.027.097.019.2.107.24.063.03.135.02.188-.022a.188.188 0 0 0 .052-.058 7.855 7.855 0 0 0 1.027-3.9c0-2.024-.755-3.93-2.125-5.366-1.37-1.4359996-3.189-2.2259996-5.121-2.2259996a6.99 6.99 0 0 0 -1.606.187.2.2 0 0 0 -.148.214c.01.1.088.177.184.18a7.705 7.705 0 0 1 2.231.411" fill="#00ffca"/><path d="m8.7600984 16.215805a8.592 8.592 0 0 1 1.063-2.097 8.244 8.244 0 0 1 1.7759996-1.865 7.734 7.734 0 0 1 3.45-1.49 7.684 7.684 0 0 1 5.77 1.358.184.184 0 0 0 .25-.032.207.207 0 0 0 .001-.264 7.218 7.218 0 0 0 -3.222-2.2289996c-3.799-1.294-7.8949996.8929996-9.1299996 4.8749996a7.952 7.952 0 0 0 -.327 1.658c-.009.1.055.192.149.214a.19.19 0 0 0 .22-.128" fill="#f65260"/><path d="m12.064098 23.984805c-2.5219996-3.637-1.81-8.83 1.585-11.575a.206.206 0 0 0 .048-.26.186.186 0 0 0 -.239-.082 7.319 7.319 0 0 0 -3.018 2.521c-2.3489996 3.388-1.6299996 8.146 1.603 10.606.439.334.91.616 1.404.838a.184.184 0 0 0 .187-.022.206.206 0 0 0 .005-.32 8.261 8.261 0 0 1 -1.575-1.706" fill="#fbcc62"/></g></svg>