<svg height="128" width="128" xmlns="http://www.w3.org/2000/svg"><path d="m0 0h105.87v105.87h-105.87z" fill="#0097ff"/><path d="m105.875 0v128h22.125v-105.875z" fill="#045e9b"/><path d="m0 105.875 22.125 22.125h105.875l-22.125-22.125z" fill="#034377"/><path d="m22.7 77.035579 8.181247-16.4327c6.554632 6.32227 29.847243 15.35064 30.873403 7.27069 1.13686-8.95167-34.636419-2.78447-34.636419-26.54149 0-27.706738 42.126609-25.139702 57.541059-13.684971l-8.09933 16.489831c-4.74498-2.70201-25.47172-11.889749-26.77844-5.49356-2.00248 9.80184 36.72111 1.83929 34.09926 30.35505-2.34353 25.48868-46.447618 21.08346-61.18078 8.03715z" fill="#fff"/></svg>