<svg height="256" viewBox="0 0 67.733335 67.733335" width="256" xmlns="http://www.w3.org/2000/svg"><g transform="matrix(.61599686 0 0 .61599686 -34.353153 -45.897664)"><g fill="#231f20"><path d="m55.768389 116.32817h5.625388v26.53071h-5.625388z"/><path d="m83.567492 142.85915h-18.761363v-3.94692l6.737086-6.81049c1.994831-2.04361 3.297929-3.46052 3.910222-4.24981.611829-.78977 1.052235-1.52051 1.321681-2.19367.268981-.67315.403705-1.37046.403705-2.09285 0-1.07686-.296392-1.8787-.890103-2.40504-.593711-.52589-1.38579-.78929-2.377165-.78929-1.040621 0-2.050116.23877-3.028948.71589-.979764.47756-2.001336 1.15675-3.066113 2.03756l-3.083766-3.65285c1.321681-1.1261 2.416654-1.92143 3.285851-2.38646.868731-.46502 1.817367-.8232 2.845444-1.07406 1.028078-.25087 2.178334-.3763 3.451235-.3763 1.676607 0 3.157633.30615 4.442612.91798 1.284979.61229 2.282403 1.46848 2.992248 2.56995.709385 1.10148 1.064782 2.36231 1.064782 3.78154 0 1.23667-.217415 2.39575-.651785 3.47912-.434369 1.08288-1.107514 2.19365-2.01946 3.33183-.911472 1.13818-2.517923 2.75997-4.818901 4.86443l-3.451235 3.24962v.2569h11.693973z"/><path d="m92.213601 128.81343h1.850822c1.730025 0 3.024298-.34145 3.88374-1.02529.858507-.68337 1.288228-1.67846 1.288228-2.98528 0-1.31843-.360032-2.29215-1.079636-2.92164-.720078-.62854-1.848504-.94352-3.384343-.94352h-2.558811zm12.703009-4.21033c0 2.85566-.89243 5.03911-2.67682 6.55126-1.78485 1.51261-4.322284 2.26845-7.612787 2.26845h-2.413402v9.43621h-5.625393v-26.53071h8.474561c3.218022 0 5.664411.69266 7.340551 2.078 1.6752 1.38532 2.51329 3.45076 2.51329 6.19679"/></g><path d="m121.18308 137.09597c0-3.44937-2.79621-6.24557-6.24559-6.24557-3.44937 0-6.24557 2.7962-6.24557 6.24557 0 3.44939 2.7962 6.24559 6.24557 6.24559 3.44938 0 6.24559-2.7962 6.24559-6.24559" fill="#ffc434"/><path d="m121.18308 122.24846c0-3.44937-2.79621-6.24557-6.24559-6.24557-3.44937 0-6.24557 2.7962-6.24557 6.24557 0 3.44938 2.7962 6.24559 6.24557 6.24559 3.44938 0 6.24559-2.79621 6.24559-6.24559" fill="#60ab60"/><path d="m136.03063 137.09597c0-3.44937-2.7962-6.24557-6.24557-6.24557-3.44939 0-6.24559 2.7962-6.24559 6.24557 0 3.44939 2.7962 6.24559 6.24559 6.24559 3.44937 0 6.24557-2.7962 6.24557-6.24559" fill="#e15647"/><path d="m136.03063 122.24846c0-3.44937-2.7962-6.24557-6.24557-6.24557-3.44939 0-6.24559 2.7962-6.24559 6.24557 0 3.44938 2.7962 6.24559 6.24559 6.24559 3.44937 0 6.24557-2.79621 6.24557-6.24559" fill="#ffc434"/><path d="m150.87814 137.09597c0-3.44937-2.7962-6.24557-6.24557-6.24557-3.44938 0-6.24559 2.7962-6.24559 6.24557 0 3.44939 2.79621 6.24559 6.24559 6.24559 3.44937 0 6.24557-2.7962 6.24557-6.24559" fill="#ffc434"/><path d="m150.87814 122.24846c0-3.44937-2.7962-6.24557-6.24557-6.24557-3.44938 0-6.24559 2.7962-6.24559 6.24557 0 3.44938 2.79621 6.24559 6.24559 6.24559 3.44937 0 6.24557-2.79621 6.24557-6.24559" fill="#60ab60"/><path d="m165.72566 137.09597c0-3.44937-2.7962-6.24557-6.24559-6.24557-3.44937 0-6.24557 2.7962-6.24557 6.24557 0 3.44939 2.7962 6.24559 6.24557 6.24559 3.44939 0 6.24559-2.7962 6.24559-6.24559" fill="#60ab60"/><path d="m165.72566 122.24846c0-3.44937-2.7962-6.24557-6.24559-6.24557-3.44937 0-6.24557 2.7962-6.24557 6.24557 0 3.44938 2.7962 6.24559 6.24557 6.24559 3.44939 0 6.24559-2.79621 6.24559-6.24559" fill="#e15647"/></g></svg>