<svg height="512" width="512" xmlns="http://www.w3.org/2000/svg"><path d="m153 239c-19.3 10-36 24.8-54.3 36.5-9.8 8.3-25.3 12.6-28.7 26 10.3 23 37.5 34 53.6 53 23.2 14.8 12.4 37.4 10.8 58.5-.6 19.8 8 38.2 19.5 53.8 0 14-32 35-4 41 32-.2 63 1.3 95 0 19-6.4 41 2.6 61-2.3 23-1.2 47-.3 70-2.6 23-16-28-31-1.6-47 14-18 10.7-42 5.5-62 18-15 18.3-37 20-58 5-20 14-39 19-59-4-24-39-42-46-57 18-29 27-64 20-98-6.6-55-51-101-105-113-60-15-128 17-155.5 72.5-16 31-18 68.4-9.4 102 5.6 20.4 17 38 29.6 54.4z" fill="#010101"/><path d="m328 25 1 1z" fill="#576e57"/><path d="m267 26 1 1z" fill="#444b19"/><path d="m180 329 18 8c9.2-17.5 14.8-38.4 21.6-57 2.3-6.3 3.5-17 9.5-21.2 5-3.3 15-.5 20 0 11 1 24 .7 34-1.7 53-11 90-57 92-111 3-73-69-132-141-117-44 10-76 44-88 86-10 38 2 79 28 107 7 8 15 14 24 20 3.8 3 10 5 11 10 1.4 6-4.3 14-6 19-6 20-16.4 39-21.2 59z" fill="#ffff01"/><path d="m275 27 1 1zm-39 1 1 1zm-8 2 1 1z" fill="#444b19"/><path d="m291 31 1 1z" fill="#6c6c02"/><path d="m207 38 1 1zm105 2 1 1z" fill="#989801"/><path d="m313 40 1 1z" fill="#444b19"/><path d="m320 44 1 1z" fill="#6c6c02"/><path d="m321 45 1 1zm-130 2 1 1z" fill="#444b19"/><path d="m192 47 1 1zm-2 1 1 1z" fill="#989801"/><path d="m326 48 1 1z" fill="#444b19"/><path d="m327 49 1 1z" fill="#989801"/><path d="m359 50 1 1z" fill="#9fc79f"/><path d="m186 51 1 1zm-1 1 1 1zm-1 1 1 1z" fill="#989801"/><path d="m182 54 1 1zm-1 1 1 1z" fill="#6c6c02"/><path d="m334 55 1 1z" fill="#9fc79f"/><path d="m180 56 1 1z" fill="#6c6c02"/><path d="m179 57 1 1zm-1 1 1 1zm-1 1 1 1z" fill="#989801"/><path d="m176 60 1 1zm-1 1 1 1z" fill="#6c6c02"/><path d="m341 61 1 1z" fill="#989801"/><path d="m174 62 1 1z" fill="#6c6c02"/><path d="m342 62 1 1z" fill="#989801"/><path d="m173 63 1 1z" fill="#6c6c02"/><path d="m343 63 1 1zm-171 1 1 1zm172 0 1 1zm-173 1 1 1zm-1 1 1 1z" fill="#989801"/><path d="m299 75.5c-52.4 11-36.2 92.8 16 81.7 52.7-11.2 36.3-92.8-16-81.7z" fill="#010101"/><path d="m354 77 1 1z" fill="#444b19"/><path d="m161 78 1 1z" fill="#6c6c02"/><path d="m203 78.4c-42 5.6-52.3 62.7-12 80 7.5 3 18 2.6 26 1.4 48.6-7.5 34.8-87.8-14-81.4z" fill="#010101"/><path d="m289 78 1 1zm35 0 1 1z" fill="#989801"/><path d="m355 78 1 1z" fill="#444b19"/><path d="m221 80 1 1z" fill="#989801"/><path d="m328 80 1 1z" fill="#9fc79f"/><path d="m356 80 1 1zm-74 2 1 1z" fill="#6c6c02"/><path d="m185 83 1 1z" fill="#444b19"/><path d="m281 83 1 1z" fill="#989801"/><path d="m358 83 1 1zm-174 1 1 1z" fill="#6c6c02"/><path d="m228 84 1 1z" fill="#444b19"/><path d="m280 84 1 1z" fill="#989801"/><path d="m359 84 1 1z" fill="#444b19"/><path d="m182 85 1 1zm48 0 1 1z" fill="#6c6c02"/><path d="m334 85 1 1z" fill="#444b19"/><path d="m359 85 1 1zm-203 1 1 1zm25 0 1 1zm50 0 1 1z" fill="#6c6c02"/><path d="m277 86 1 1z" fill="#989801"/><path d="m305 86 1 1zm30 0 1 1zm-103 1 1 1z" fill="#444b19"/><path d="m276 87 1 1z" fill="#989801"/><path d="m283 134c3-6.3 4.8-9.4 10.2-11.7 15.7-7 24.5 8.4 22.8 21.7 38.8-11.2 14-72-22-54-4.3 2.3-8.2 6-11 10-3 4.5-5.2 9.5-5.7 15-.6 7 2.6 13 5.7 19z" fill="#fff"/><path d="m360 87 1 1zm-205 1 1 1z" fill="#989801"/><path d="m178 88 1 1z" fill="#6c6c02"/><path d="m276 88 1 1z" fill="#444b19"/><path d="m297 88 1 1z" fill="#576e57"/><path d="m235 89 1 1z" fill="#444b19"/><path d="m275 89 1 1z" fill="#6c6c02"/><path d="m319 89 1 1z" fill="#779375"/><path d="m201 90 1 1z" fill="#9fc79f"/><path d="m196 147c-2-8-3-15 3.4-21.8 10.5-11 28.7-3.6 30.6 10.8 9.5-9.4 6-29.2-3.2-37.7-12.5-11.8-32-10.4-43 2.7-3.6 4.5-5.2 9.2-6 15-.8 5.6.2 12 2.5 17 3.2 6.8 9 11.2 15.7 14z" fill="#fff"/><path d="m274 90 1 1z" fill="#989801"/><path d="m320 90 1 1z" fill="#576e57"/><path d="m175 91 1 1z" fill="#989801"/><path d="m197 91 1 1z" fill="#444b19"/><path d="m215 91 1 1z" fill="#576e57"/><path d="m273 91 1 1z" fill="#989801"/><path d="m291 91 1 1zm-1 1 1 1z" fill="#9fc79f"/><path d="m324 92 1 1z" fill="#444b19"/><path d="m238 93 1 1zm34 0 1 1z" fill="#6c6c02"/><path d="m288 93 1 1z" fill="#576e57"/><path d="m289 93 1 1z" fill="#95bb95"/><path d="m325 93 1 1z" fill="#444b19"/><path d="m173 94 1 1z" fill="#6c6c02"/><path d="m191 94 1 1z" fill="#9fc79f"/><path d="m221 94 1 1z" fill="#779375"/><path d="m222 94 1 1z" fill="#444b19"/><path d="m271 94 1 1z" fill="#6c6c02"/><path d="m287 94 1 1z" fill="#95bb95"/><path d="m326 94 1 1z" fill="#779375"/><path d="m240 95 1 1z" fill="#444b19"/><path d="m286 95 1 1z" fill="#9fc79f"/><path d="m364 95 1 1z" fill="#989801"/><path d="m285 96 1 1zm-1 1 1 1z" fill="#9fc79f"/><path d="m126 99 1 1z" fill="#576e57"/><path d="m185 99 1 1z" fill="#9fc79f"/><path d="m366 99 1 1z" fill="#444b19"/><path d="m169 100 1 1z" fill="#6c6c02"/><path d="m184 100 1 1z" fill="#9fc79f"/><path d="m345 100 1 1zm21 0 1 1z" fill="#989801"/><path d="m149 101 1 1z" fill="#6c6c02"/><path d="m182 102 1 1z" fill="#9fc79f"/><path d="m230 102 1 1z" fill="#444b19"/><path d="m244 102 1 1z" fill="#6c6c02"/><path d="m346 103 1 1zm-113 4 1 1z" fill="#444b19"/><path d="m166 108 1 1z" fill="#989801"/><path d="m246 108 1 1z" fill="#6c6c02"/><path d="m278 108 1 1z" fill="#576e57"/><path d="m369 108 1 1zm-223 1 1 1z" fill="#444b19"/><path d="m178 109 1 1z" fill="#576e57"/><path d="m234 110 1 1z" fill="#95bb95"/><path d="m372 117 1 1z" fill="#444b19"/><path d="m213 119 1 1z" fill="#576e57"/><path d="m206 120 1 1z" fill="#779375"/><path d="m295 121 1 1z" fill="#9fc79f"/><path d="m304 121 1 1z" fill="#576e57"/><path d="m221 122 1 1z" fill="#444b19"/><path d="m143 123 1 1z" fill="#6c6c02"/><path d="m200 123 1 1z" fill="#9fc79f"/><path d="m223 123 1 1z" fill="#576e57"/><path d="m199 124 1 1z" fill="#9fc79f"/><path d="m224 124 1 1zm54 0 1 1z" fill="#576e57"/><path d="m289 124 1 1z" fill="#9fc79f"/><path d="m310 124 1 1z" fill="#926a61"/><path d="m311 124 1 1z" fill="#95bb95"/><path d="m198 125 1 1z" fill="#9fc79f"/><path d="m225 125 1 1z" fill="#444b19"/><path d="m247 125 1 1z" fill="#989801"/><path d="m266 125 1 1z" fill="#6c6c02"/><path d="m312 125 1 1z" fill="#9fc79f"/><path d="m166 130 1 1z" fill="#444b19"/><path d="m195 130 1 1z" fill="#9fc79f"/><path d="m315 130 1 1z" fill="#95bb95"/><path d="m179 131 1 1z" fill="#926a61"/><path d="m229 131 1 1z" fill="#9fc79f"/><path d="m233 131 1 1z" fill="#779375"/><path d="m281 131 1 1z" fill="#576e57"/><path d="m284 131 1 1z" fill="#95bb95"/><path d="m282 132 1 1z" fill="#9fc79f"/><path d="m345 132 1 1zm-178 1 1 1z" fill="#989801"/><path d="m180 133 1 1z" fill="#444b19"/><path d="m194 133 1 1z" fill="#576e57"/><path d="m232 133 1 1zm-1 2 1 1z" fill="#444b19"/><path d="m169 138 1 1z" fill="#6c6c02"/><path d="m243 138 1 1zm28 0 1 1z" fill="#444b19"/><path d="m342 138 1 1z" fill="#6c6c02"/><path d="m169 139 1 1z" fill="#9fc79f"/><path d="m243 139 1 1z" fill="#989801"/><path d="m272 139 1 1z" fill="#6c6c02"/><path d="m325 139 1 1z" fill="#444b19"/><path d="m342 139 1 1zm-100 1 1 1z" fill="#9fc79f"/><path d="m273 141 1 1z" fill="#989801"/><path d="m274 142 1 1zm1 1 1 1z" fill="#6c6c02"/><path d="m190 144 1 1z" fill="#444b19"/><path d="m276 144 1 1z" fill="#6c6c02"/><path d="m192 145 1 1z" fill="#576e57"/><path d="m237 146 1 1z" fill="#444b19"/><path d="m175 147 1 1z" fill="#6c6c02"/><path d="m237 147 1 1zm42 0 1 1z" fill="#989801"/><path d="m176 148 1 1z" fill="#6c6c02"/><path d="m236 148 1 1z" fill="#444b19"/><path d="m280 148 1 1z" fill="#989801"/><path d="m177 149 1 1z" fill="#444b19"/><path d="m281 149 1 1z" fill="#989801"/><path d="m178 150 1 1z" fill="#444b19"/><path d="m282 150 1 1z" fill="#6c6c02"/><path d="m328 152 1 1z" fill="#989801"/><path d="m182 153 1 1z" fill="#444b19"/><path d="m325 153 1 1z" fill="#6c6c02"/><path d="m326 153 1 1z" fill="#989801"/><path d="m184 154 1 1z" fill="#444b19"/><path d="m229 154 1 1z" fill="#989801"/><path d="m320 155 1 1z" fill="#6c6c02"/><path d="m223 157 1 1zm-32 1 1 1z" fill="#989801"/><path d="m215 160 1 1z" fill="#9fc79f"/><path d="m143 162 1 1zm226 15 1 1z" fill="#6c6c02"/><path d="m367 183 1 1z" fill="#989801"/><path d="m149 184 1 1z" fill="#6c6c02"/><path d="m366 185 1 1z" fill="#989801"/><path d="m366 186 1 1z" fill="#444b19"/><path d="m390 187 1 1z" fill="#576e57"/><path d="m364 190 1 1zm-212 1 1 1z" fill="#989801"/><path d="m364 191 1 1z" fill="#444b19"/><path d="m153 193 1 1zm207 5 1 1z" fill="#989801"/><path d="m156 199 1 1z" fill="#6c6c02"/><path d="m157 200 1 1z" fill="#444b19"/><path d="m359 200 1 1z" fill="#6c6c02"/><path d="m359 201 1 1z" fill="#444b19"/><path d="m161 207 1 1z" fill="#989801"/><path d="m355 207 1 1z" fill="#444b19"/><path d="m162.3 208.7c-108.2 202.2-54 101 0 0z" fill="#989801"/><path d="m354 208 1 1z" fill="#444b19"/><path d="m163 210 1 1zm3 4 1 1zm1 1 1 1zm182 0 1 1zm-181 1 1 1zm2 3 1 1zm1 1 1 1zm1 1 1 1zm172 0 1 1z" fill="#989801"/><path d="m173 222 1 1z" fill="#6c6c02"/><path d="m343 222 1 1zm-1 1 1 1z" fill="#989801"/><path d="m175 224 1 1z" fill="#6c6c02"/><path d="m341 224 1 1z" fill="#989801"/><path d="m176 225 1 1z" fill="#6c6c02"/><path d="m177 226 1 1zm1 1 1 1zm1 1 1 1zm158 0 1 1z" fill="#989801"/><path d="m180 229 1 1z" fill="#6c6c02"/><path d="m336 229 1 1z" fill="#989801"/><path d="m181 230 1 1z" fill="#6c6c02"/><path d="m334 230 1 1z" fill="#989801"/><path d="m335 230 1 1z" fill="#444b19"/><path d="m182 231 1 1z" fill="#6c6c02"/><path d="m184 232 1 1zm1 1 1 1zm1 1 1 1zm1 1 1 1zm3 2 1 1z" fill="#989801"/><path d="m326 237 1 1z" fill="#6c6c02"/><path d="m191 238 1 1z" fill="#444b19"/><path d="m192 238 1 1z" fill="#989801"/><path d="m320 241 1 1zm-1 1 1 1z" fill="#6c6c02"/><path d="m334 248c-222.7 176-111.3 88 0 0z" fill="#5a081a"/><path d="m237 270c-8.5 16-15.4 36.6-20 54-1.4 5-6.3 11.7-5 17 3.2 12.8 17.2 22.5 29 25.6 22.3 5.8 48.2 7.5 70-1 4-1.6 9.7-3 12-6.8 2-3.6.8-9 1.2-12.8 1-10.2 6.5-18.5 16.8-21 0-9 1.7-18.7 8.5-25.5 4-4 10.2-6 14-1.2 9.8 12.3-3.6 27.7 12.5 36.7 13.8-29.4 26.3-75-15-88.7-5.2-1.8-11.4-4.7-17-4-10.3 1-22.7 14-32.4 18.6-22.3 10-50.6 14-74.6 9z" fill="#ff013d"/><path d="m199 243 1 1z" fill="#444b19"/><path d="m315 244 1 1z" fill="#989801"/><path d="m202 245 1 1z" fill="#444b19"/><path d="m313 245 1 1z" fill="#989801"/><path d="m314 245 1 1z" fill="#6c6c02"/><path d="m311 246 1 1z" fill="#989801"/><path d="m205 247 1 1z" fill="#444b19"/><path d="m365 247 1 1z" fill="#5a081a"/><path d="m206.7 249.3c-137.8 175-69 87.6 0 0z" fill="#6c6c02"/><path d="m401 250 1 1z" fill="#576e57"/><path d="m181 251c-120.7 174-60.3 87 0 0zm147 0 1 1z" fill="#5a081a"/><path d="m181 253c-120.7 172.7-60.3 86.3 0 0z" fill="#a30127"/><path d="m137 338c3.2-4.2 6.6-7.2 11-10-2-4-6.7-6.5-7.5-11-1.6-9.4 12.2-21 20.5-21.8 4.4-.5 12.3 5 15.5 3 2.5-1.7 3.4-6.6 4.5-9.2 3-7.5 13-26 8-33.7-2.5-4-7.7-3.8-13.4-2.2-7.6 3-16 8-19.6 10-13.6 8-26.5 17-39 27-4 3-12.3 8-13.5 13-1.2 6 3 11 6.2 14 7.7 9 17.2 17 27.3 22z" fill="#ff013d"/><path d="m185.7 252.3c-123.8 173-62 86.6 0 0zm-15.7 2.7 1 1z" fill="#a30127"/><path d="m289 255 1 1z" fill="#989801"/><path d="m320 256 1 1z" fill="#a30127"/><path d="m230 257 1 1z" fill="#444b19"/><path d="m281 257 1 1z" fill="#989801"/><path d="m318 257 1 1zm-154.7 1.7c-109 169-54.4 84.4 0 0z" fill="#5a081a"/><path d="m205 258 1 1zm23 0 1 1z" fill="#6c6c02"/><path d="m161 259 1 1z" fill="#5a081a"/><path d="m227 259 1 1z" fill="#6c6c02"/><path d="m160.3 260.7c-107 167.5-53.4 83.7 0 0z" fill="#a30127"/><path d="m226 260 1 1z" fill="#444b19"/><path d="m154 263 1 1z" fill="#a30127"/><path d="m223 267 1 1z" fill="#989801"/><path d="m386 267 1 1zm-198 1 1 1z" fill="#5a081a"/><path d="m201 268 1 1z" fill="#989801"/><path d="m223.3 268.7c-149 162.2-74.4 81 0 0z" fill="#444b19"/><path d="m222 270c-148 161.3-74 80.7 0 0z" fill="#6c6c02"/><path d="m236 270 1 1z" fill="#5a081a"/><path d="m200 271c-133.3 160.7-66.7 80.3 0 0z" fill="#989801"/><path d="m245 271 1 1z" fill="#5a081a"/><path d="m139 273 1 1z" fill="#a30127"/><path d="m186.3 273.7c-124.2 159-62 79.4 0 0z" fill="#5a081a"/><path d="m137 274 1 1z" fill="#a30127"/><path d="m199 274 1 1z" fill="#6c6c02"/><path d="m185 275 1 1z" fill="#a30127"/><path d="m198.5 276.6c-132.3 157-66.2 78.5 0 0z" fill="#444b19"/><path d="m234 275 1 1zm-100 1 1 1zm-1 1 1 1z" fill="#a30127"/><path d="m131 278 1 1zm53.3.7s0 1 .4.6c0 0 0-1-.4-.6zm-54.3.3 1 1z" fill="#5a081a"/><path d="m183.3 280.7c-122.2 154.2-61 77 0 0z" fill="#a30127"/><path d="m127 281 1 1z" fill="#5a081a"/><path d="m125.7 282.3c-.5.5.6.4.6.4.5-.5-.6-.4-.6-.4z" fill="#a30127"/><path d="m218 282 1 1z" fill="#6c6c02"/><path d="m231 282 1 1zm-107 1 1 1z" fill="#5a081a"/><path d="m83 286 1 1z" fill="#9fc79f"/><path d="m216.3 287.7c-144.2 149.5-72 74.7 0 0z" fill="#444b19"/><path d="m180 289 1 1z" fill="#a30127"/><path d="m215 289c-143.3 148.7-71.7 74.3 0 0z" fill="#989801"/><path d="m193 290 1 1zm22.3.7s0 1 .4.6c0 0 0-1-.4-.6z" fill="#6c6c02"/><path d="m192.3 293.7c-128.2 145.5-64 72.7 0 0z" fill="#989801"/><path d="m109 295 1 1zm57 0c-110.7 144.7-55.3 72.3 0 0z" fill="#a30127"/><path d="m178.3 295.7c-119 144.2-59.4 72 0 0z" fill="#5a081a"/><path d="m191.3 295.7c-127.5 144.2-63.7 72 0 0z" fill="#6c6c02"/><path d="m213 295 1 1z" fill="#989801"/><path d="m108 296 1 1zm46.7.3c-103 143.8-51.6 72 0 0z" fill="#a30127"/><path d="m213 296 1 1z" fill="#6c6c02"/><path d="m107 297 1 1z" fill="#a30127"/><path d="m171.3 297.7c-114.2 143-57 71.4 0 0z" fill="#5a081a"/><path d="m191 297 1 1z" fill="#989801"/><path d="m226 297 1 1zm-119.7 1.7c-71 142.2-35.4 71 0 0z" fill="#a30127"/><path d="m177 298 1 1z" fill="#5a081a"/><path d="m190.3 298.7c-127 142.2-63.4 71 0 0z" fill="#444b19"/><path d="m173.7 299.3c-115.8 141.8-58 71 0 0z" fill="#5a081a"/><path d="m176 299 1 1zm-74 3c-68 140-34 70 0 0z" fill="#a30127"/><path d="m147 302c1 1 1 1 0 0" fill="#5a081a"/><path d="m188 304 1 1z" fill="#6c6c02"/><path d="m210 304 1 1z" fill="#989801"/><path d="m209 306 1 1z" fill="#6c6c02"/><path d="m208 312c-138.7 133.3-69.3 66.7 0 0z" fill="#444b19"/><path d="m106 312 1 1z" fill="#a30127"/><path d="m185 312 1 1z" fill="#444b19"/><path d="m207.3 312.7c-138.2 133-69 66.4 0 0z" fill="#6c6c02"/><path d="m107 313 1 1z" fill="#a30127"/><path d="m140 313c-93.3 132.7-46.7 66.3 0 0z" fill="#5a081a"/><path d="m185 313 1 1z" fill="#989801"/><path d="m108 314 1 1z" fill="#a30127"/><path d="m206.3 314.7c-137.5 131.5-68.7 65.7 0 0z" fill="#989801"/><path d="m109 315 1 1zm1.3 1.7c-73.5 130.2-36.7 65 0 0z" fill="#a30127"/><path d="m183.3 317.7c-122.2 129.5-61 64.7 0 0z" fill="#444b19"/><path d="m111 318 1 1zm1 1 1 1z" fill="#a30127"/><path d="m183 319 1 1z" fill="#989801"/><path d="m218 319 1 1z" fill="#5a081a"/><path d="m382 320 1 1zm-267 1 1 1zm1 1 1 1zm1 1 1 1zm1 1 1 1zm28 1 1 1zm2.3 1.7c-99 123.5-49.4 61.7 0 0z" fill="#a30127"/><path d="m180 326 1 1z" fill="#444b19"/><path d="m335 326 1 1zm-213 1 1 1zm93.3.7c-143.5 123-71.7 61.4 0 0zm-92.3.3 1 1z" fill="#a30127"/><path d="m147 328 1 1z" fill="#5a081a"/><path d="m201 328 1 1z" fill="#6c6c02"/><path d="m201.3 329.7c-134.2 121.5-67 60.7 0 0z" fill="#444b19"/><path d="m214.3 329.7c-143 121.5-71.4 60.7 0 0z" fill="#5a081a"/><path d="m184 330 1 1z" fill="#989801"/><path d="m373 333 1 1z" fill="#5a081a"/><path d="m191 334 1 1z" fill="#444b19"/><path d="m192 334 1 1z" fill="#989801"/><path d="m199 334 1 1z" fill="#6c6c02"/><path d="m327 334 1 1z" fill="#a30127"/><path d="m374 334 1 1z" fill="#5a081a"/><path d="m194.3 335.7c-129.5 117.5-64.7 58.7 0 0z" fill="#6c6c02"/><path d="m375 335 1 1zm-241.3 1.3c-89 117-44.6 58.6 0 0z" fill="#5a081a"/><path d="m195 336 1 1z" fill="#444b19"/><path d="m198.3 336.7c-132.2 117-66 58.4 0 0z" fill="#989801"/><path d="m104 337 1 1z" fill="#9fc79f"/><path d="m197 337 1 1z" fill="#444b19"/><path d="m343 338 1 1z" fill="#926a61"/><path d="m344 338.7c-8.5 3.5-8.5 27.2-1.4 32.3 3.8 2.8 17.2-.7 21.4-2.3 23.5-9.5-4.6-36-20-30z" fill="#fbb5a7"/><path d="m341 339 1 1zm-1 1 1 1z" fill="#444b19"/><path d="m357 340 1 1z" fill="#926a61"/><path d="m211 341 1 1zm1 1 1 1z" fill="#a30127"/><path d="m339 342 1 1zm22 0 1 1z" fill="#926a61"/><path d="m324 343 1 1z" fill="#5a081a"/><path d="m159 344c-106 112-53 56 0 0z" fill="#b9867c"/><path d="m213 344 1 1z" fill="#a30127"/><path d="m364 344 1 1z" fill="#444b19"/><path d="m201 365c-6.8-9-22-17.4-33-19.5-4.5-1-12.2-1.7-14.2 3.6-2.6 7 4 13 9.2 16 11.8 6 26 4 38 1z" fill="#fbb5a7"/><path d="m168 345 1 1z" fill="#926a61"/><path d="m214.3 345.7c-143 111-71.4 55.4 0 0z" fill="#5a081a"/><path d="m365 345 1 1z" fill="#444b19"/><path d="m215 347 1 1z" fill="#a30127"/><path d="m176 348 1 1z" fill="#b9867c"/><path d="m178.7 349.3c-119 108.5-59.6 54.3 0 0z" fill="#444b19"/><path d="m216 349 1 1z" fill="#5a081a"/><path d="m180.7 350.3c-120.5 107.8-60.3 54 0 0z" fill="#926a61"/><path d="m217 350 1 1z" fill="#5a081a"/><path d="m370 350 1 1z" fill="#444b19"/><path d="m182 351 1 1z" fill="#b9867c"/><path d="m183 351 1 1z" fill="#576e57"/><path d="m218 351 1 1z" fill="#5a081a"/><path d="m371 351 1 1z" fill="#576e57"/><path d="m185 352 1 1zm-32 2c-102 105.3-51 52.7 0 0z" fill="#444b19"/><path d="m222 356 1 1z" fill="#5a081a"/><path d="m192 357 1 1z" fill="#926a61"/><path d="m223 357 1 1z" fill="#5a081a"/><path d="m155 358 1 1z" fill="#b9867c"/><path d="m338 358 1 1z" fill="#444b19"/><path d="m194.7 359.3c-129.8 101.8-65 51 0 0z" fill="#b9867c"/><path d="m320 361 1 1z" fill="#5a081a"/><path d="m199 362 1 1z" fill="#926a61"/><path d="m319 362 1 1z" fill="#a30127"/><path d="m200 363 1 1z" fill="#926a61"/><path d="m229 363 1 1z" fill="#5a081a"/><path d="m161 364 1 1z" fill="#444b19"/><path d="m162 364 1 1zm39 0-1 2h2c0-2 .3-1.4-1-2z" fill="#926a61"/><path d="m163.7 365.3c-109 97.8-54.6 49 0 0z" fill="#444b19"/><path d="m199 365 1 1z" fill="#b9867c"/><path d="m311.7 365.3c-207.8 97.8-104 49 0 0z" fill="#5a081a"/><path d="m196 366c-130.7 97.3-65.3 48.7 0 0z" fill="#444b19"/><path d="m134 367 1 1z" fill="#576e57"/><path d="m191 367 1 1z" fill="#b9867c"/><path d="m244 367 1 1zm61 0 1 1z" fill="#a30127"/><path d="m366 367 1 1z" fill="#444b19"/><path d="m364 368 1 1z" fill="#926a61"/><path d="m298 369 1 1z" fill="#5a081a"/><path d="m357 385c-17 3.2-27 3-31-16-12 1.6-23.6 7.8-36 9.6-4 .6-11-1-14.3 2-5 4.8-5.4 14-5.7 20.4-.3 4.7-2.4 9.3-1.6 14 1.7 10.3 13.3 21.2 19.7 29 5 5.7 11 14.3 18 16.5 9 2.4 17-4.7 23-8.8 10-6 20-13.5 25-23.7 3-4.8 1-11.8 1-17 1-8.7 2-17.3 2-26z" fill="#95bb95"/><path d="m358 370 1 1z" fill="#444b19"/><path d="m305 375 1 1z" fill="#576e57"/><path d="m157 384c0 14-.5 26 5.2 39 4.8 11 11 21 19 30 7 7.7 14.8 9 24.8 9 17.2 0 33.7-6.2 42.5-22 11-20 3.6-55-21.5-61.3-8-2-23.7 6.3-32 8-13.7 3-24.8-.4-38-2.7z" fill="#9fc79f"/><path d="m290 378 1 1zm-61 1 1 1z" fill="#779375"/><path d="m216 380c-144 88-72 44 0 0z" fill="#576e57"/><path d="m274.7 381.3c-183 87-91.6 43.6 0 0z" fill="#444b19"/><path d="m232.3 381.7c-155 87-77.4 43.4 0 0z" fill="#779375"/><path d="m211 382c-140.7 86.7-70.3 43.3 0 0z" fill="#95bb95"/><path d="m273 385c-182 84.7-91 42.3 0 0z" fill="#444b19"/><path d="m208 383 1 1zm27 0 1 1zm1 1 1 1z" fill="#779375"/><path d="m162 385 1 1z" fill="#576e57"/><path d="m238 385 1 1zm1 1 1 1zm33 0 1 1z" fill="#444b19"/><path d="m137 387 1 1z" fill="#9fc79f"/><path d="m191 387 1 1z" fill="#779375"/><path d="m240 387 1 1zm1 1 1 1zm1 1 1 1zm-106 1 1 1zm107 0 1 1z" fill="#576e57"/><path d="m136 391 1 1z" fill="#9fc79f"/><path d="m244 391 1 1zm2 3 1 1z" fill="#576e57"/><path d="m155 395 1 1z" fill="#779375"/><path d="m251 403 1 1z" fill="#444b19"/><path d="m365 406c-1 6.8 1.4 18.2-1.5 24.2-7.2 15.3-24.4 25.4-38.5 33.7-6.6 3-13.2 7-21 5-16.8-6-21-26-35-34 0 9 .3 16 3.7 25 17.6 42 71.5 11 89.5-14 7.4-11 13.3-30 2.8-40m-208 3 1 1z" fill="#576e57"/><path d="m268 416 1 1zm-15 9 1 1z" fill="#779375"/><path d="m274 426 1 1z" fill="#444b19"/><path d="m275 427 1 1zm3 4 1 1z" fill="#779375"/><path d="m155 432c2.6 11 11 20.8 17.3 30 2 3.3 4.5 8.6 8 10.4 4.6 2.4 11.7 2.2 16.7 2.8 15.3 1.8 33.3 2.6 48-2.5 5.6-2 11.8-4 14.7-9.7 3-5.7-.6-14-1.7-20-5.6 6-9.4 12.4-16 17.5-14.2 11-43 17.8-59 6-12.4-9-17.4-24.2-28-34.5m11 0 1 1zm113 0 1 1z" fill="#576e57"/><path d="m362 432 1 1z" fill="#444b19"/><path d="m167 433 1 1zm182 0 1 1z" fill="#576e57"/><path d="m280 434 1 1zm1 1 1 1z" fill="#444b19"/><path d="m282 436 1 1z" fill="#576e57"/><path d="m169 437 1 1zm188 0 1 1z" fill="#444b19"/><path d="m170 438 1 1z" fill="#779375"/><path d="m356 438 1 1zm-186 1 1 1z" fill="#444b19"/><path d="m284 439 1 1z" fill="#576e57"/><path d="m355 439 1 1zm-197 1 1 1zm13 0 1 1z" fill="#444b19"/><path d="m248 440 1 1z" fill="#576e57"/><path d="m285 440 1 1z" fill="#444b19"/><path d="m343 440 1 1z" fill="#779375"/><path d="m354 440 1 1zm-11 1 1 1zm-54 4 1 1zm-30 7c-172.7 40-86.3 20 0 0z" fill="#444b19"/><path d="m290 446 1 1zm-54 7 1 1zm90 0 1 1z" fill="#576e57"/><path d="m341 453 1 1zm-44 1 1 1zm58 0 1 1z" fill="#444b19"/><path d="m233 455 1 1z" fill="#576e57"/><path d="m248 455 1 1zm38 0 1 1zm12 0 1 1z" fill="#444b19"/><path d="m320 456 1 1z" fill="#576e57"/><path d="m321 456 1 1z" fill="#444b19"/><path d="m229 457 1 1z" fill="#779375"/><path d="m288 457 1 1z" fill="#444b19"/><path d="m319 457 1 1z" fill="#779375"/><path d="m289 458 1 1z" fill="#444b19"/><path d="m375 459 1 1z" fill="#9fc79f"/><path d="m200 462c-133.3 33.3-66.7 16.7 0 0z" fill="#576e57"/></svg>