<svg height="500" viewBox="0 0 500 500" width="500" xmlns="http://www.w3.org/2000/svg" xmlns:xlink="http://www.w3.org/1999/xlink"><defs><linearGradient id="a" gradientTransform="scale(.98808652 1.0120571)" gradientUnits="userSpaceOnUse" x1="91.817291" x2="91.817291" y1="-14.200607" y2="195.57436"><stop offset="0" stop-color="#59cf32"/><stop offset="1" stop-color="#19a260"/></linearGradient><linearGradient id="b" gradientTransform="scale(1.1969614 .83544881)" gradientUnits="userSpaceOnUse" x1="7.814742" x2="75.946686" y1="158.20839" y2="132.89497"><stop offset="0" stop-color="#d32c3e"/><stop offset="1" stop-color="#df5549"/></linearGradient><linearGradient id="c" gradientTransform="scale(1.0073107 .99274237)" gradientUnits="userSpaceOnUse" x1="95.844765" x2="95.844765" y1="71.744492" y2="125.89259"><stop offset="0" stop-color="#f5fd38"/><stop offset="1" stop-color="#ffd900"/></linearGradient><path id="d" d="m71.632449 109.02059c6.12148 13.55936 22.232374 19.66402 35.992821 13.63267 13.75838-6.02933 19.94996-21.91001 13.83467-35.471403-4.51947-10.010184-14.4862-15.958057-24.929212-15.958057-3.70299 0-7.465772.747302-11.061549 2.323356-13.764567 6.029323-19.954086 21.914075-13.83673 35.473434"/><filter id="e" height="1.577" width="1.568" x="-.284" y="-.214"><feOffset dy="4" in="SourceAlpha" result="shadowOffsetOuter1"/><feGaussianBlur in="shadowOffsetOuter1" result="shadowBlurOuter1" stdDeviation="4.5"/><feColorMatrix in="shadowBlurOuter1" values="0 0 0 0 0.247058824 0 0 0 0 0.22745098 0 0 0 0 0.0117647059 0 0 0 0.08 0"/></filter></defs><g fill="none" fill-rule="evenodd" transform="matrix(2.5270338 0 0 2.5270338 5.825613 -.181905)"><path d="m113.39892 85.983526c5.63696-4.984729 28.06108-23.628594 36.08148-28.507439 38.91644-23.671355 57.25614 32.046434 16.8387 38.348614-19.58708 3.054369-39.17417 4.412549-49.48316 5.090619-3.34836.22195-5.79365-12.716359-3.43702-14.931794zm-33.332065-5.514153c-2.812294-2.496437-24.170465-22.223585-32.644457-33.852584-10.15642-13.934029-6.95857-30.665859 6.44312-37.0759601 16.494389-7.8904518 31.700153 1.2726531 34.96398 16.5444961 2.148395 10.046836 6.0287 43.929963 6.529717 49.378956 1.381405 15.033602-10.193532 9.52963-15.29236 5.005092zm71.046485-40.131347c-5.75448 12.13806-25.23229 30.802288-38.05668 42.59215-5.85963 5.385869-14.273829-.507025-14.432587-2.716352-1.461816-20.191412-4.123598-48.869895-1.37522-59.38914 4.482347-17.1553694 24.226137-24.7750005 39.613337-18.6642274 14.45321 5.7381402 21.33549 23.2315264 14.25115 38.1775694zm-104.48226 16.984936c15.479983 11.437591 24.832302 19.059259 32.232097 25.945841 5.515311 5.131339 1.199966 11.681942-3.608148 12.217474-17.525288 1.950723-35.392834 3.394422-45.701827 3.394422-25.3044537 0-33.1867096-17.401756-28.0074716-32.156391 6.7008453-19.089803 28.1476736-21.916112 45.0853496-9.401346zm49.930163 108.498698c.725753 22.91998-15.846984 35.41235-32.417659 31.35208-17.838681-4.37182-24.883847-23.71616-15.348028-40.26065 6.461676-11.20953 34.363997-42.50663 38.229869-46.83365 1.661809-1.86113 6.088491 6.27367 6.42044 10.46019.416484 5.27795 2.599929 28.99207 3.115378 45.28203zm27.489957-62.86908c13.05737.34005 23.70862-.27082 40.5494.67807 24.05294 1.35818 34.36193 19.68438 25.42816 36.65242-6.95857 13.22134-27.1477 19.00632-45.35957 3.39442-18.57887-15.92547-26.63225-24.43495-33.3331-31.22175-3.13599-3.17858 3.08239-9.75362 12.71511-9.50316zm-14.26043 11.87844c5.92768 6.36326 18.72732 19.68438 29.38063 32.57993 9.95024 12.04439 12.93779 30.31155-2.74837 37.67054-13.74602 6.44879-29.17239.88984-33.67742-21.72063-4.123599-20.70047-6.201892-38.0615-6.527656-41.74304-.292776-3.28853 11.779056-8.71309 13.572816-6.7868z" fill="url(#a)"/><path d="m79.035955 97.861965c-8.671924.838933-38.671094 4.176335-50.514064 9.163105-33.2465024 13.99919-3.416401 56.91307 20.617985 36.99247 19.242766-15.95194 34.603165-33.77724 38.143274-38.68866 0 0 .131955-7.466915-8.247195-7.466915" fill="url(#b)"/><use fill="#000" filter="url(#e)" height="100%" width="100%" xlink:href="#d"/><use fill="url(#c)" height="100%" width="100%" xlink:href="#d"/></g></svg>