<svg height="108.51276" viewBox="0 0 108.51275 108.51276" width="108.51276" xmlns="http://www.w3.org/2000/svg"><g stroke-width=".32" transform="translate(-1.251506 33.199756)"><path d="m4.1683846 56.379947c3.1845405-4.04168 18.3029074-21.941641 21.7015464-25.694361 1.750474-1.932844 3.941543-4.517222 4.869042-5.743058l1.686363-2.228797-8.499853-8.656941c-11.258313-11.4663814-16.6503883-17.2268294-19.9283415-21.2897974l-2.7050443-3.3528556 2.0449696 1.4328556c4.3542811 3.050931 23.3570972 18.732858 34.1044852 28.1444624 10.260714 8.985418 13.088598 10.850771 17.577469 11.594602 1.637542.27135 2.479353.234201 4.406003-.194439 3.661738-.814659 5.75785-2.257487 12.029686-8.280466 15.171252-14.5692784 25.803076-23.9491384 35.26683-31.1139524l2.08-1.5747216-1.26329 1.5886846c-1.79699 2.259875-4.43445 5.275-9.936698 11.359592-13.711347 15.1624904-18.187146 20.4208224-17.808221 20.9217374 3.396167 4.489546 5.458407 6.892957 16.360663 19.067356 8.462826 9.450339 14.024356 15.999999 13.586106 15.999999-.33462 0-4.01848-2.955683-9.41855-7.556825-13.038414-11.109388-25.110059-21.243173-25.305454-21.243173-.119194 0-.833616.799619-1.587606 1.776931-1.983303 2.570729-5.833847 6.057932-8.273978 7.493244-3.270902 1.923978-6.228067 2.688525-9.645229 2.493687-4.876736-.278061-7.801241-2.089463-14.387731-8.911577l-3.68-3.811651-4.16 3.724188c-2.288 2.048304-6.464 5.836038-9.28 8.417184-2.816 2.581148-6.272 5.619503-7.68 6.7519s-4.288 3.502704-6.4000003 5.267347c-7.7467907 6.472691-8.2523408 6.790691-5.7531671 3.618845z" fill="#b2b2b2"/><path d="m4.127794 50.719207c3.1845405-4.04168 18.302907-21.941641 21.701546-25.694361 1.750474-1.932844 3.941543-4.517222 4.869042-5.743058l1.686363-2.228797-8.499853-8.6569414c-11.258313-11.466381-16.6503879-17.226829-19.9283412-21.2897956l-2.7050443-3.352856 2.0449696 1.432856c4.3542812 3.05093 23.3570969 18.7328566 34.1044849 28.144461 10.260714 8.985418 13.088598 10.850771 17.577469 11.594602 1.637542.27135 2.479353.234201 4.406003-.194439 3.661738-.814659 5.75785-2.257487 12.029686-8.280466 15.171252-14.5692784 25.803076-23.9491384 35.266841-31.11395l2.08-1.574723-1.26329 1.588686c-1.79699 2.259875-4.43445 5.2749976-9.936709 11.3595896-13.711347 15.1624904-18.187146 20.4208224-17.808221 20.9217374 3.396167 4.489546 5.458407 6.892957 16.360663 19.067356 8.462837 9.450339 14.024367 15.999999 13.586117 15.999999-.33462 0-4.01848-2.955683-9.41856-7.556825-13.038415-11.109388-25.11006-21.243173-25.305455-21.243173-.119194 0-.833616.799619-1.587606 1.776931-1.983303 2.570729-5.833847 6.057932-8.273978 7.493244-3.270902 1.923978-6.228067 2.688525-9.645229 2.493687-4.876736-.278061-7.801241-2.089463-14.387731-8.911577l-3.68-3.811651-4.16 3.724188c-2.288 2.048304-6.464 5.836038-9.28 8.417184-2.816 2.581148-6.272 5.619503-7.68 6.7519s-4.288 3.502704-6.3999999 5.267347c-7.7467908 6.472691-8.2523409 6.790691-5.7531671 3.618845z" fill="#f00"/></g></svg>