<svg height="1052.3622" width="1052.3622" xmlns="http://www.w3.org/2000/svg" xmlns:xlink="http://www.w3.org/1999/xlink"><linearGradient id="a" gradientUnits="userSpaceOnUse" x1="142.67269" x2="172.4866" y1="776.59942" y2="878.60854"><stop offset="0" stop-color="#0f3060"/><stop offset=".27115166" stop-color="#0575ce"/><stop offset=".7327472" stop-color="#0575ce"/><stop offset="1" stop-color="#0f3060"/></linearGradient><linearGradient id="b" gradientUnits="userSpaceOnUse" x1="85.5715" x2="50.21203" y1="906.08596" y2="965.88442"><stop offset="0" stop-color="#092d61"/><stop offset="1" stop-color="#0575ce"/></linearGradient><linearGradient id="c" gradientUnits="userSpaceOnUse" x1="118.58294" x2="139.12515" y1="940.95815" y2="807.29104"><stop offset="0" stop-color="#0f3060"/><stop offset=".45698157" stop-color="#0575ce"/><stop offset=".73828435" stop-color="#0575ce"/><stop offset="1" stop-color="#0f3060"/></linearGradient><linearGradient id="d" gradientUnits="userSpaceOnUse" x1="130.08651" x2="110.279064" y1="910.605733" y2="826.250428"><stop offset="0" stop-color="#ff8000"/><stop offset=".6627211" stop-color="#fff4e1"/><stop offset=".75" stop-color="#fff4e1"/><stop offset="1" stop-color="#ff8400"/></linearGradient><linearGradient id="e" gradientUnits="userSpaceOnUse" x1="231.58947" x2="161.23834" xlink:href="#f" y1="832.57818" y2="847.96743"/><linearGradient id="f"><stop offset="0" stop-color="#fff"/><stop offset="1" stop-color="#fff" stop-opacity="0"/></linearGradient><linearGradient id="g" gradientUnits="userSpaceOnUse" x1="82.804594" x2="70.361798" y1="895.984811" y2="916.159862"><stop offset="0" stop-color="#ffc768"/><stop offset=".37842149" stop-color="#ff8400"/><stop offset=".77420431" stop-color="#ff8400"/><stop offset="1" stop-color="#ffc768"/></linearGradient><linearGradient id="h" gradientTransform="matrix(1.0334058 0 0 1.0138319 -309.91012 314.18347)" gradientUnits="userSpaceOnUse" x1="413.63229" x2="423.52518" xlink:href="#f" y1="484.60083" y2="541.83301"/><linearGradient id="i" gradientUnits="userSpaceOnUse" x1="135.026257" x2="149.325341" xlink:href="#j" y1="860.492226" y2="889.161814"/><linearGradient id="j"><stop offset="0" stop-color="#ff8000"/><stop offset=".34144846" stop-color="#ffc768"/><stop offset=".71198046" stop-color="#ffc768"/><stop offset="1" stop-color="#ff8400"/></linearGradient><linearGradient id="k" gradientUnits="userSpaceOnUse" x1="162.779062" x2="178.332912" y1="764.491714" y2="762.62944"><stop offset="0" stop-color="#ff8000"/><stop offset=".5" stop-color="#fff4e1"/><stop offset=".75" stop-color="#fff4e1"/><stop offset="1" stop-color="#ff8400"/></linearGradient><linearGradient id="l" gradientUnits="userSpaceOnUse" x1="152.668135" x2="133.973419" xlink:href="#j" y1="825.632176" y2="800.884801"/><linearGradient id="m" gradientUnits="userSpaceOnUse" x1="175.86111" x2="160.45883" xlink:href="#f" y1="820.44451" y2="798.45977"/><linearGradient id="n" gradientUnits="userSpaceOnUse" x1="97.11029" x2="149.08218" xlink:href="#f" y1="822.66161" y2="806.23769"/><linearGradient id="o" gradientUnits="userSpaceOnUse" x1="98.58242" x2="72.32238" xlink:href="#f" y1="911.59322" y2="893.02914"/><linearGradient id="p" gradientUnits="userSpaceOnUse" x1="107.346716" x2="110.640008" xlink:href="#q" y1="886.981404" y2="898.458029"/><linearGradient id="q"><stop offset="0" stop-color="#212a3a"/><stop offset="1" stop-color="#404e67" stop-opacity="0"/></linearGradient><linearGradient id="r" gradientTransform="matrix(.09307993 0 0 .1860535 131.94157 665.87199)" gradientUnits="userSpaceOnUse" x1="246.30438" x2="366.87921" xlink:href="#q" y1="690.02673" y2="632.15985"/><linearGradient id="s" gradientTransform="matrix(-.09281332 -.00703915 .01407026 -.1855207 186.19996 929.70821)" gradientUnits="userSpaceOnUse" x1="301.05194" x2="367.94604" xlink:href="#q" y1="645.89917" y2="654.72131"/><linearGradient id="t" gradientUnits="userSpaceOnUse" x1="167.069646" x2="193.355058" xlink:href="#q" y1="811.778338" y2="806.694684"/><linearGradient id="u" gradientUnits="userSpaceOnUse" x1="108.642357" x2="90.967306" xlink:href="#q" y1="824.991362" y2="833.491585"/><g transform="matrix(4.4950929 0 0 4.4950929 -30.79604 -3296.535905)"><path d="m52.51386 963.95968c-.59762-1.31419-1.08659-2.49776-1.08659-2.63031 0-.13252-2.08061-11.07486-2.31769-13.88681-1.03506-12.27691-2.66752-13.45265-2.21175-24.39857.2761-6.63061-.64392-8.89235 1.31344-14.31478 4.03102-11.16694 6.98662-15.56085 12.2251-18.17414 4.24974-2.12004 8.23695-1.83207 11.97929.86518.98634.71092 4.29577 2.95048 7.35426 4.97678 3.05851 2.02634 6.69103 4.48296 8.07229 5.45919 1.38125.97628 3.68511 2.38497 5.11972 3.13046 2.53058 1.3151 2.62411 1.3351 3.13729.67104 1.12761-1.45907 3.84947-5.55395 5.32124-7.50854 7.37209-9.79052.42914-8.70222-1.30592-9.21291-2.72783-.80294-3.87684-1.97938-6.42642-4.96758-5.92163-6.94035-8.72797-14.66214-9.14262-24.20339-.48154-11.07972.63266-20.01531 5.49789-25.10088 2.08527-2.17973 6.49949-5.34524 10.53505-7.55495 3.4177-1.87139 24.37883-5.78232 26.21837-4.96975.91898.40593-3.63796-11.63862-1.01552-27.29896.52096-3.11103 4.05934-12.73788 4.43322-13.39298.92313-1.61744 16.13503-6.82395 20.46221-9.36515 4.83486-2.83935 15.29074-9.67883 16.07843-14.76568 1.73099-11.1786 2.03825-15.9556 2.75981-16.37531 1.07388-.62465 8.25251 14.17566 3.39352 28.13116-.95893 2.75414-5.53206 9.14865-7.57975 11.8233-1.47452 1.92602 1.72775 2.82621 3.56985 5.60679 1.67534 2.52882 2.77675 8.71086 2.9918 11.91416.21959 3.27101-.81543 9.98235-1.7425 11.2988-.37549.53325-.52929 1.05709-.34387 1.17136.18449.11368 1.43417-.0352 2.77708-.33076 1.34289-.29559 4.25366-.7663 6.46837-1.046 3.94259-.49787 4.08384-.49095 6.7595.33213 4.01386 1.23476 23.53789 5.95177 11.07947 60.50742-4.12753 18.07453-23.38873 41.92489-25.8106 40.0783l-5.96407-4.5474-6.87325 10.19022c-3.50798 3.60293-7.29065 7.08029-9.52167 8.75312-3.52051 2.63972-10.56453 6.79799-11.51562 6.79799-.24492 0-1.63251.56931-3.08354 1.26516-4.19508 2.01176-10.47851 3.66081-17.13429 4.09795-25.77135 1.66956-15.93975-1.44192-37.27858-11.77515-1.68316-.81506-5.55753 3.29679-10.22719 7.54571-4.98524 4.53606-7.60226 7.98846-9.57996 12.63792-.66947 1.57389-1.71168 3.98838-2.31602 5.36552-1.64444 3.74731-2.99719 8.93229-3.19818 12.25814-.0983 1.62685-.31514 3.04193-.48187 3.14469-.16673.10272-.7921-.88841-1.38973-2.20249zm28.33197-45.90886c3.30313-.83536 3.66477-1.01966 7.21765-3.67825 2.54576-1.90501 4.12321-5.3446 4.8004-5.64508 4.4324-1.96673-3.3083-3.73691-6.20226-5.68891-2.89398-1.95202-6.65724-3.39508-9.2209-5.3521-2.56367-1.95698-4.78356-3.48279-4.93308-3.39068-.14952.0921-.27471 1.40551-.27821 2.91861-.01023 4.41323-.6021 8.84164-1.42935 10.69448-.42105.94301-.84611 2.76087-.94461 4.03969-.22816 2.96221.46109 4.38683 2.91271 6.02036 2.06595 1.3766 2.92385 1.38532 8.07765.0819zm119.70575-83.58495c-1.07558-7.22468-.18498-17.16053-5.81444-20.77728-12.98767-8.34415-14.4135-.0696-15.21021 1.75899-1.31072 3.0083-2.11753 5.46892-1.12273 8.7761 3.05641 10.16086 6.96643 19.15821 8.82255 26.38029 2.13021 8.28856 4.47797 13.53077 4.71288 20.02986.16678 4.61378.12302 5.09887-.55601 6.16474-.9655 1.51542-15.55215 5.22752-22.89767 7.39176-2.52211.74311-.28804 6.12175-.57696 7.89239-.28892 1.77059-4.23701 11.66713-2.96729 13.65682 12.52923 19.63374 40.23506-40.20634 35.60988-71.27367zm-26.98831 48.27201c1.95984-.47131 3.79219-1.04626 4.0719-1.27773.27971-.23143.99066-.38419 1.57991-.33941 1.05432.0801 5.18218-1.21949 5.4995-1.73148.0894-.14415 3.7722-2.06556 3.0355-2.55357-.73674-.48803-15.13237-11.07005-17.19649-12.14627-23.77004-12.39364-36.26526-13.24685-44.11407-11.66556-13.44457 2.70866-25.05657 9.52598-26.45346 11.20755-.42178.50774 21.04913-6.66097 36.28977.87085 2.81591 1.39161 8.62965 3.78304 13.00058 8.46269 3.99268 4.27467 7.63329 8.79778 10.49869 9.5617 3.10695.82834 9.47337.64882 13.78817-.38877zm-28.65731-51.09687c7.52619-1.317 19.18627-16.95235 18.27894-18.41606-.12276-.19808 2.25527-4.14459 1.86904-4.22161-14.0842-2.80833-13.74485-16.83242-13.94793-16.95753-.20308-.12514-20.76525 9.71022-25.50376 11.75869-4.02092 1.73825.57503 12.10208 2.99929 18.53437 1.07855 2.86172 7.01744 6.67785 9.40766 8.23365 2.82773 1.84055 6.25378 1.181 6.89676 1.06849zm16.21969-47.71727c4.06405-3.20289 14.88802-19.23422 13.73961-25.73988-4.67874-26.5048-6.69569-10.0962-6.99598-7.73088-.12436.97963-.47868 3.14936-.7874 4.82161-.30868 1.67227-.70224 4.08678-.87456 5.36555-.1723 1.2788-.64865 3.53233-1.05855 5.00784-.4099 1.47554-1.05724 3.92831-1.43856 5.45066-.38128 1.52232-1.66486 5.27236-2.85234 8.33339-1.18749 3.06104-2.15908 5.63846-2.15908 5.72759 0 .447.82393.0274 2.42686-1.23588z" fill="url(#a)"/><g fill-rule="evenodd"><path d="m53.57922 963.11994c6.35309-26.31992 12.10112-29.26957 27.22751-39.0261-3.32781-1.89079-11.51745-8.1594-11.49606-11.49606.05726-9.74197 1.6676-26.72201-9.07584-19.66431-20.38515 13.39167-13.0087 55.96766-6.65561 70.18647z" fill="url(#b)"/><path d="m75.93257 920.7226c8.98173 6.78619 16.91991 12.78559 22.55412 15.96751 54.94138 2.77762 68.66033-27.59386 69.6583-52.49321-4.89006.22454-13.22311-.97302-17.71397-7.7405-11.21439 3.68089-45.16617 14.00314-45.75692 16.32304-3.06467 12.03515-12.17523 21.75574-28.74153 27.94316z" fill="url(#c)"/><path d="m171.27539 910.58112c33.18508-24.69965 28.91369-74.159 29.44979-76.69151 1.36299-6.43866-6.64955-28.25155-16.27383-24.24947-16.02424 6.66336 11.2767 44.44456 7.61407 65.1661-.76342 4.31907-13.98948 7.50294-22.98022 8.89864-1.03689.16096-.1163 14.0955-4.62673 20.50927-.64571.91818 6.21023 6.81854 6.81692 6.36697z" fill="url(#d)"/><path d="m175.90353 907.19115c42.49251-41.74886 20.98218-116.27813 6.14636-94.50993 20.37687-4.1207 23.61854 64.2671-6.14636 94.50993z" fill="url(#e)"/><path d="m95.21705 907.77562c.78602-1.06057-13.88152-6.08284-22.74639-14.06472-.98292-.88501-1.14144 12.91242-2.0703 18.66551-.57712 3.57451 5.4925 7.17351 6.87977 7.62184 1.15081.37191 14.71014-7.86884 17.93692-12.22263z" fill="url(#g)"/><path d="m83.58536 868.01334c-5.099007-25.84347 4.179267-41.03939 41.3579-46.37791.18024.56879 41.31909-13.25606 55.79189-13.35001-3.92283 6.23323.0433 21.62385 4.80916 34.27609 0 0-34.8276 9.08768-101.95895 25.45183z" fill="url(#h)"/><path d="m101.65537 863.89391c4.41182-1.58073 17.00722-5.39035 32.05421-.1519 10.3057 3.58781 16.2195 12.63312 20.66816 16.112 10.4789 8.19457 29.82289-.90843 33.32172-.85341 1.43753.0226-25.96694-24.60193-46.62844-25.8478-27.77538-1.67482-45.11147 12.78188-39.41565 10.74111z" fill="url(#i)"/><path d="m169.42704 741.43522c-.1528 8.40398-2.79669 28.46338-11.30718 42.1727-3.89274 6.27072 14.52008-8.27661 16.50236-20.78075 1.09029-6.8775-5.06881-28.08959-5.19518-21.39195z" fill="url(#k)"/><path d="m141.79058 833.10697c9.23931-4.71783 17.65654-10.92192 22.99128-22.44259.9032-1.9505-4.39968-.0586-8.47555-5.84433-4.0357-5.72867-3.08341-11.54295-6.54001-11.07789-10.80021 1.4531-25.20082 11.63758-25.20082 11.63758s.82824 11.14408 3.74751 15.67372c6.01898 9.33928 13.47759 12.05351 13.47759 12.05351z" fill="url(#l)"/><path d="m156.09152 803.78111c2.72579 9.88879 17.87347 8.09668 14.70668-11.15251-1.36528 1.99619-4.77608 12.95694-14.70668 11.15251z" fill="url(#m)" opacity=".552238"/><path d="m140.48504 832.28297c-5.10096-3.46887-9.50419-7.78444-12.32504-12.34966-2.82085-4.56521-4.0593-27.84724.68685-33.63375 2.60826-6.3637 11.84132-12.51424 22.09721-15.2308-19.49494 22.60506-13.17796 56.86685 4.07359 53.53526.86206-.16648-12.82587 7.73026-14.53261 7.67895z" fill="url(#n)"/><path d="m72.32239 893.02911c3.80886 2.81881 20.23882 15.53557 23.85984 13.52306-8.41018 20.55895-30.55349 3.14238-23.85984-13.52306z" fill="url(#o)"/></g><path d="m140.05745 777.56053c-3.94728 2.30056-8.69302 4.87373-9.63531 7.20019-3.16217 6.64336-4.34745 18.56552-3.38465 17.88089 9.38401-6.67285 20.24871-8.52283 24.20205-12.0967 11.71489-10.59045 16.26287-32.48353 13.80119-29.2383-7.96915 10.50564-20.9111 13.88057-24.98328 16.25392zm-61.4085 147.01185s-11.08091-7.66436-10.87669-10.1233c1.697-20.4327-1.92942-21.625-3.75706-21.40828-2.20803.26184-13.6822 7.50553-15.92058 27.95835-1.62427 14.84147 4.24013 38.0296 5.13347 39.28426 4.62276-12.42378 2.81919-22.42331 25.42086-35.71103zm121.05779-90.52225c-.55133-15.31772-9.77382-25.84979-16.03746-23.38322-2.65737 1.04645-4.4415 8.17887-3.50846 12.60125.82755 3.92256 6.46634 19.10152 6.87179 20.38471.95868 3.03418 7.43087 21.62978 6.28035 30.56471-1.00846 7.8316-23.7097 10.5413-23.7097 10.5413s-.38149 6.37449-1.16407 10.68177c-.96202 5.29492-2.86934 9.45033-2.86934 9.45033s4.94251 4.60429 5.14224 4.59918c.19973-.005 31.10844-16.7127 28.99465-75.44003zm-23.69666 47.44964c1.59781-.44722 11.03201-2.94175 10.52638-3.27341-3.50095-2.2964-7.48504-5.18714-14.1578-10.37693-37.04552-28.81248-70.69468-4.54502-70.03165-4.76554 6.15153-2.04594 12.64754-3.20211 21.67232-2.5993 7.26918.48555 18.69619 4.17029 28.70607 16.10244 3.72328 4.43828 7.94798 7.4497 23.28468 4.91274zm-16.52498-62.54055c1.12085-.96962 5.01656-8.31336 4.31505-8.48395-9.83076-2.39074-10.78824-6.74031-11.75043-11.4727-.90123-4.43254-.76219-5.06465-2.62452-4.44953-15.04703 4.96997-19.20919 7.70131-21.51157 9.61214-3.60666 2.99331-1.0768 11.03634.33349 14.23298 1.96563 4.4554 9.19232 12.51758 12.55437 13.16681 4.90391.94697 16.49344-9.09974 18.68361-12.60575zm10.93597-27.14087c-.81548-3.33524-3.43538-7.63066-4.13349-7.63066-.65744 0-7.61876 5.38666-9.4168 7.26354-4.08086 4.25969-2.09206 11.97893 2.43483 14.62671 7.66207 4.48154 13.28874-5.37111 11.11546-14.25959zm-5.77705-12.75642c3.35221-3.34862 7.80844-8.84532 8.99344-17.19839.46443-3.27384.73411-6.15364-1.30205-12.62655-.47191-1.50022-1.90642-5.8148-1.96005-5.24636-1.05907 11.22382-2.61083 23.68653-9.93627 36.93167-2.29934 4.15745-1.06286 3.40174 4.20493-1.86037zm-78.6191 66.84814c-3.99349 16.75103 6.58927 38.75062 15.16215 40.00456 8.28707 1.21213 32.04487-5.96093 44.50484-9.42568 3.26456-.90778 5.02074-.43427-2.20131-6.48455-11.3226-7.69755-20.46099-8.68868-29.5776-7.65392-10.05581 1.14135-17.59102 4.11772-16.88606 3.52743 4.61053-3.86056 12.8225-10.76401 28.68812-13.89013 6.89585-1.35875 17.53788-1.47808 30.38613 3.54005 15.93675 6.2244 24.23739 15.45542 30.97531 18.58381 2.39935 1.11401 3.25644.59604 4.20446-2.18817 1.5883-4.66452-8.06663-33.78938-11.56456-42.28236-5.33802-12.96073.89004-19.15557-.47125-18.85551-6.6027 1.45543-12.42508 5.69932-17.306 10.06932-11.93084 10.68198-19.20273 12.95753-20.28189 12.86579-3.40727-.28972-9.78249-6.32022-12.09877-9.38241-1.47795-1.95389-27.92949 3.15177-35.72972 9.92827-.17845.15503-6.19704 4.01498-7.80385 11.6435zm-8.47512 72.92883c8.72435-3.6605 17.26585-11.43939 16.52709-11.56787-4.52939-.78772-21.23379-12.23383-21.22226-12.11514.57378 5.90697-.71357 11.21473-1.30092 17.06944-.24494 2.44161 3.00975 6.22428 5.99609 6.61357zm28.15174-25.60492c-1.66901 3.72058-3.41156 18.3512-27.53028 27.73991-.69864.27195 20.21205 14.57036 21.35002 14.62032 69.0544 3.03144 68.46916-49.55437 67.5526-50.88016-.13265-.19188-6.03889.0138-10.61352-2.15692-.34887-.1655-3.45204-1.76502-5.30227-4.17423-.62757-.81715-.72524-1.26122-3.05074-.58541-10.76269 3.12776-42.89539 14.65696-42.40581 15.43649zm-21.51219-25.64928c-12.33127-43.08647 30.94329-45.08535 37.80451-46.74439 5.30593-1.28297 4.14977-1.78189 3.03089-6.80033-1.57099-7.04629-1.0816-13.18841.26513-19.77217 1.27351-6.2258 1.93035-9.37394 4.61998-12.49571 2.16789-2.51621 14.38379-8.27049 17.4121-9.72295 12.90529-6.18974 17.83586-12.99328 19.27422-18.34465 1.014-3.77255 2.49779-13.07094 1.83081-19.71727-.16416-1.6359.89135.92745 6.14205 17.24159 2.68293 8.33593 1.36177 18.34502-7.09994 27.38172-1.14918 1.22726-.59185 1.4703.95354 4.02388 3.21078 5.30554 4.98573 11.93993 4.48566 16.76662-.40972 3.95432-2.10008 7.6934.31754 7.40286.34951-.042 11.02834-1.65875 18.33848 2.98757 4.95048 3.14653 12.00258 9.17808 10.17204 34.37342-4.00842 55.17187-30.9649 67.17892-31.15387 67.18542-.4563.0156-5.49956-5.22074-5.79806-4.60407-15.45677 31.93103-47.3506 30.78387-65.13826 31.11951-3.55635.0671-18.34444-12.38469-19.59088-11.53286-15.74294 10.75882-20.11352 13.44589-26.18374 40.94381-.23264-.43595-8.41803-14.95561-8.07826-44.15673.27838-23.92523 13.34923-35.21616 19.15997-34.56498 7.05422.79055 10.59443 4.47084 20.52923 10.99795 1.77335 1.16509 8.0388 4.95377 9.46457 4.91926 3.5521-.0838 5.97534-6.60969 6.55509-10.83484.58475-4.26168 1.15009-3.23167-2.17605-4.37633-4.1934-1.44311-11.42652-9.296-15.13675-21.67633z" fill="#2c3b54"/><g fill-rule="evenodd"><path d="m106.11345 892.83442c6.47531-3.53335 43.23312-15.02538 43.56314-15.74675.24089-.52655-43.11579 17.30875-52.93537 10.69734-.59185-.39849 2.29344 1.72127 4.90219 2.25652.18326.0376.17092 6.89208-2.30068 10.77041-.6931 1.08758 5.26729-7.15715 6.77072-7.97752z" fill="url(#p)"/><path d="m166.00752 784.18642c-4.02929 2.81265-9.5846 6.74255-10.72057 9.77333-.66996 1.78745-1.12247-4.99153 3.45182-9.03009 2.57716-2.27533 8.09315-1.31871 7.26875-.74324z" fill="url(#r)"/><path d="m160.58968 806.82846c4.57007 1.3627 8.10001-1.42847 10.03503-7.4422.22874-.71087-.56553 5.2666-3.40562 7.48857-2.70767 2.11837-7.59288-.33365-6.62941-.0464z" fill="url(#s)"/><path d="m172.18948 813.03639c6.47531-3.53335 13.10498-2.9926 18.75586-2.73805 3.75103.16896-7.06591-4.20527-19.35477-3.52147-1.31254 1.11755-5.21285 7.63595-10.70973 14.23704-.82526.99104 9.80521-7.15715 11.30864-7.97752z" fill="url(#t)"/><path d="m110.55877 827.01111c3.80202-.78266 8.57073-2.07478 11.72698-2.39299 2.63172-.26532 5.92925-1.74739 8.46259.97744-1.41052-1.93357-4.10815-5.83882-4.94871-8.39667.76528 3.00553-2.65492 3.42931-3.50504 3.56438-19.11709 3.02037-30.61745 8.16849-36.41981 17.74206 10.99033-8.50263 23.96641-11.34651 24.68399-11.49422z" fill="url(#u)"/></g></g></svg>