<svg height="190.368" viewBox="0 0 190.368 190.368" width="190.368" xmlns="http://www.w3.org/2000/svg" xmlns:xlink="http://www.w3.org/1999/xlink"><linearGradient id="a" gradientUnits="userSpaceOnUse" x1="468.36601" x2="468.3658" xlink:href="#b" y1="437.7722" y2="629.7722"/><linearGradient id="b"><stop offset="0" stop-color="#fbfcfc" stop-opacity=".1"/><stop offset="1" stop-color="#fbfcfc" stop-opacity="0"/></linearGradient><radialGradient id="c" cx=".000003" cy="243.20909" gradientTransform="matrix(2.526312 2.526312 -2.5263122 2.5263122 890.78811 -176.64989)" gradientUnits="userSpaceOnUse" r="76.000107" xlink:href="#b"/><filter id="d" color-interpolation-filters="sRGB" height="1.21" width="1.28" x="-.14" y="-.105"><feGaussianBlur stdDeviation="1.4"/></filter><filter id="e" color-interpolation-filters="sRGB" height="1.084" width="1.112" x="-.056" y="-.042"><feGaussianBlur stdDeviation=".56"/></filter><filter id="f" color-interpolation-filters="sRGB" height="1.127304" width="1.077053" x="-.038526" y="-.063652"><feGaussianBlur stdDeviation="2.44"/></filter><linearGradient id="g" gradientUnits="userSpaceOnUse" x1="356.36602" x2="356.36602" y1="549.7722" y2="577.7722"><stop offset="0" stop-color="#4d6570"/><stop offset="1" stop-color="#4d6570" stop-opacity=".06"/></linearGradient><filter id="h" color-interpolation-filters="sRGB" height="1.171429" width="1.066667" x="-.033333" y="-.085714"><feGaussianBlur stdDeviation="2"/></filter><filter id="i" color-interpolation-filters="sRGB" height="1.085463" width="1.1095" x="-.05475" y="-.042732"><feGaussianBlur stdDeviation="2.9199997"/></filter><g transform="translate(-277.18202 -438.76421)"><path d="m326.36602 449.77221c-3.324 0-6 2.67599-6 6v8c0 3.324 2.676 6 6 6h14v16h8v-16h2c3.324 0 6-2.676 6-6v-8c0-3.32401-2.676-6-6-6zm68.00001 0c-3.324 0-6 2.67599-6 6v8c0 3.324 2.676 6 6 6h2v16h8v-16h14c3.324 0 6-2.676 6-6v-8c0-3.32401-2.676-6-6-6zm-86.00001 108v12l25.60742 38c2.06983 3.58859 5.93583 6 10.39258 6h56.00002c4.45674 0 8.32274-2.41141 10.39257-6h.0117l25.59569-38v-12z" filter="url(#i)" opacity=".2"/><path d="m326.36602 445.77221c-3.324 0-6 2.67599-6 6v8c0 3.324 2.676 6 6 6h14v16h8v-16h2c3.324 0 6-2.676 6-6v-8c0-3.32401-2.676-6-6-6zm68.00001 0c-3.324 0-6 2.67599-6 6v8c0 3.324 2.676 6 6 6h2v16h8v-16h14c3.324 0 6-2.676 6-6v-8c0-3.32401-2.676-6-6-6zm-86.00001 108v12l25.60742 38c2.06983 3.58859 5.93583 6 10.39258 6h56.00002c4.45674 0 8.32274-2.41141 10.39257-6h.0117l25.59569-38v-12z" filter="url(#i)" opacity=".2"/><path d="m300.36602 553.77221 8 12 25.60743 38c2.06982 3.58859 5.93583 6 10.39257 6h56.00001c4.45675 0 8.32275-2.41141 10.39258-6h.0117l25.59572-38 8-12z" filter="url(#h)" opacity=".2"/><path d="m32 116v12l25.607422 38c2.069825 3.58859 5.935831 6 10.392578 6h56c4.45675 0 8.32275-2.41141 10.39258-6h.0117l25.59572-38v-12z" fill="#607d8b" fill-rule="evenodd" transform="translate(276.36602 437.77221)"/><path d="m340.36603 453.77222h8v28.000004h-8z" fill="#263238"/><path d="m396.36603 453.77222h8v28.000004h-8z" fill="#263238"/><path d="m308.36602 564.77221v1l25.60743 38c2.06982 3.58859 5.93583 6 10.39257 6h56.00001c4.45675 0 8.32275-2.41141 10.39258-6h.0117l25.59572-38v-1l-25.5957 38h-.0117c-2.06983 3.58859-5.93583 6-10.39258 6h-56.00003c-4.45674 0-8.32275-2.41141-10.39257-6z" fill="#4d6570"/><rect fill="#607d8b" height="36" rx="6.000001" transform="rotate(90)" width="19.999992" x="445.77222" y="-356.36603"/><rect fill="#607d8b" height="36" rx="6.000001" transform="rotate(90)" width="19.999992" x="445.77222" y="-424.36603"/><path d="m320.36602 458.77221v1c0 3.324 2.676 6 6 6h24c3.324 0 6-2.676 6-6v-1c0 3.324-2.676 6-6 6h-24c-3.324 0-6-2.676-6-6z" fill="#4d6570"/><path d="m388.36603 458.77221v1c0 3.324 2.676 6 6 6h24c3.324 0 6-2.676 6-6v-1c0 3.324-2.676 6-6 6h-24c-3.324 0-6-2.676-6-6z" fill="#4d6570"/><path d="m326.36602 445.77221c-3.324 0-6 2.676-6 6v1c0-3.324 2.676-6 6-6h24c3.324 0 6 2.676 6 6v-1c0-3.324-2.676-6-6-6z" fill="#8097a2"/><path d="m394.36603 445.77221c-3.324 0-6 2.676-6 6v1c0-3.324 2.676-6 6-6h24c3.324 0 6 2.676 6 6v-1c0-3.324-2.676-6-6-6z" fill="#8097a2"/><path d="m308.36603 553.77221v12l25.60742 38c2.06983 3.58859 5.93583 6 10.39258 6h56c4.45675 0 8.32275-2.41141 10.39258-6h.0117l25.59572-38v-12z" fill="url(#g)" fill-rule="evenodd"/><g transform="translate(276.36602 297.47221)"><g transform="rotate(90)"><rect filter="url(#f)" height="152" opacity=".2" rx="12.000002" width="92" x="180.3" y="-172"/><rect filter="url(#f)" height="152" opacity=".2" rx="12.000002" width="92" x="176.3" y="-172"/><rect fill="#ff1744" height="152" rx="12.000002" width="92" x="176.3" y="-172"/></g><path d="m36 192.3 60 32 60-32" fill="none" stroke="#fbe9e7" stroke-linecap="round" stroke-width="6"/><g transform="translate(0 140.3)"><path d="m32 36c-6.648001 0-12 5.352-12 12v1c0-6.648 5.351999-12 12-12h128c6.648 0 12 5.352 12 12v-1c0-6.648-5.352-12-12-12z" fill="#ff4569"/><path d="m20 115v1c0 6.648 5.351999 12 12 12h128c6.648 0 12-5.352 12-12v-1c0 6.648-5.352 12-12 12h-128c-6.648001 0-12-5.352-12-12z" fill="#d81a3d"/></g></g><g transform="translate(276.36602 297.47221)"><path d="m90 296.3c-3.324 0-6 2.676-6 6v12c0 .27298.02557.53962.06055.80273.000255.002-.000257.004 0 .006a11.999994 11.999994 0 0 0 -.06055 1.19127 11.999994 11.999994 0 0 0 12 12 11.999994 11.999994 0 0 0 12-12 11.999994 11.999994 0 0 0 -.0664-1.15234c.039-.27746.0664-.55911.0664-.84766v-12c0-3.324-2.676-6-6-6z" filter="url(#d)" opacity=".2"/><path d="m90 152c-3.324 0-6 2.676-6 6v12c0 .27298.02557.53962.06055.80273.000255.002-.000257.004 0 .006a11.999994 11.999994 0 0 0 -.06055 1.19127 11.999994 11.999994 0 0 0 12 12 11.999994 11.999994 0 0 0 12-12 11.999994 11.999994 0 0 0 -.0664-1.15234c.039-.27746.0664-.55911.0664-.84766v-12c0-3.324-2.676-6-6-6z" filter="url(#e)" opacity=".2" transform="translate(0 140.3)"/><rect fill="#263238" height="23.999996" rx="6" transform="rotate(90)" width="24.000019" x="292.29999" y="-108"/><circle cx="96" cy="312.29999" fill="#263238" r="11.999994"/><g transform="translate(0 140.3)"><path d="m90 152c-3.324 0-6 2.676-6 6v1c0-3.324 2.676-6 6-6h12c3.324 0 6 2.676 6 6v-1c0-3.324-2.676-6-6-6z" fill="#37474f"/><path d="m84.021484 171.42969a11.999994 11.999994 0 0 0 -.021484.57031 11.999994 11.999994 0 0 0 12 12 11.999994 11.999994 0 0 0 12-12 11.999994 11.999994 0 0 0 -.0195-.41406 11.999994 11.999994 0 0 1 -11.9805 11.41406 11.999994 11.999994 0 0 1 -11.978516-11.57031z" fill="#1a252a"/></g></g><g fill-rule="evenodd"><path d="m326.3658 445.77221c-3.324 0-6 2.676-6 6v8c0 3.324 2.676 6 6 6h14v8h-32c-6.648 0-12 5.352-12 12v68c0 6.648 5.352 12 12 12l25.60743 38c2.06983 3.58859 5.93582 6 10.39257 6h16a11.999994 11.999994 0 0 0 12 12 11.999994 11.999994 0 0 0 11.99806-12h16.00194c4.45675 0 8.32275-2.41141 10.39258-6h.01l25.59765-38c6.64709-.001 12-5.35265 12-12v-68c0-6.648-5.35395-12-12.00195-12h-31.99805v-8h13.99805c3.324 0 6.00195-2.676 6.00195-6v-8c0-3.324-2.67795-6-6.00195-6h-23.99804c-3.324 0-6 2.676-6 6v8c0 3.324 2.676 6 6 6h2v8h-48.00001v-8h1.99805c3.324 0 6.00195-2.676 6.00195-6v-8c0-3.324-2.67795-6-6.00195-6z" fill="url(#c)"/><path d="m326.3658 445.77221c-3.324 0-6 2.676-6 6v8c0 3.324 2.676 6 6 6h14v8h-32c-6.648 0-12 5.352-12 12v68c0 6.648 5.352 12 12 12l25.60743 38c2.06983 3.58859 5.93582 6 10.39257 6h16a11.999994 11.999994 0 0 0 12 12 11.999994 11.999994 0 0 0 11.99806-12h16.00194c4.45675 0 8.32275-2.41141 10.39258-6h.01l25.59765-38c6.64709-.001 12-5.35265 12-12v-68c0-6.648-5.35395-12-12.00195-12h-31.99805v-8h13.99805c3.324 0 6.00195-2.676 6.00195-6v-8c0-3.324-2.67795-6-6.00195-6h-23.99804c-3.324 0-6 2.676-6 6v8c0 3.324 2.676 6 6 6h2v8h-48.00001v-8h1.99805c3.324 0 6.00195-2.676 6.00195-6v-8c0-3.324-2.67795-6-6.00195-6z" fill="url(#a)"/></g></g></svg>