<svg height="591.87463" viewBox="0 0 591.87463 591.87463" width="591.87463" xmlns="http://www.w3.org/2000/svg"><g transform="matrix(.13333333 0 0 -.13333333 -232.06266 867.5021)"><path d="m2420.6899 3996.1436 200.13 471.2zm-405.87 333.16 252.64 261.33h-131.1l-289.11-305.61v305.61h-106.78v-607.73h106.78v176.23l94.64 97.24 207.49-273.47h129.36zm2045.46 138.04 105.05-243.09h-146.72l-40.18-94.63h225.97l61.64-146.72h112.87l-267.41 612.06h-98.97l-267.41-612.06h109.39c69.07 162.61 136.17 322.03 205.77 484.44zm-1439.46 0 105.05-243.09h-146.72l-40.19-94.63h225.98l61.63-146.72h112.88l-267.41 612.06h-98.98l-267.4-612.06h109.39l5.64 13.24c67.09 158.04 132.42 313.2 200.13 471.2zm3558.71-179.71c0 42.83-7.81 83.34-23.44 121.54s-37.34 71.48-65.11 99.85c-27.8 28.35-61.07 50.78-99.85 67.28s-81.61 24.74-128.5 24.74c-46.88 0-89.71-8.39-128.49-25.17-38.77-16.78-72.35-39.51-100.71-68.16s-50.36-62.07-65.98-100.27c-15.63-38.2-23.44-78.72-23.44-121.55s7.81-83.34 23.44-121.55c15.62-38.2 37.33-71.48 65.11-99.83 27.79-28.37 61.06-50.79 99.85-67.29 38.78-16.5 81.61-24.75 128.49-24.75s89.71 8.39 128.5 25.18c38.77 16.78 72.34 39.5 100.69 68.16 28.37 28.65 50.37 62.07 66 100.27s23.44 78.72 23.44 121.55zm-112-1.74c0-29.52-5.06-57.44-15.19-83.78-10.14-26.34-24.17-49.19-42.11-68.58s-39.5-34.74-64.68-46.02c-25.19-11.29-52.82-16.93-82.92-16.93-30.09 0-57.87 5.79-83.34 17.37-25.47 11.57-47.32 27.2-65.55 46.88s-32.41 42.68-42.54 69.02c-10.13 26.33-15.2 54.25-15.2 83.78 0 29.52 5.07 57.44 15.2 83.77 10.13 26.34 24.17 49.2 42.1 68.59 17.94 19.39 39.51 34.73 64.68 46.02 25.18 11.28 52.82 16.93 82.92 16.93s57.88-5.79 83.34-17.37c25.47-11.57 47.32-27.2 65.55-46.88 18.23-19.67 32.41-42.68 42.55-69.02 10.13-26.33 15.19-54.26 15.19-83.78zm-765.74 304.74v-607.73h106.79v607.73zm-543.49-607.73h426.29v97.23h-319.5v510.5h-106.79zm-269.13 607.73v-607.73h106.79v607.73zm-955.02-171.91v-435.82h106.8v607.73h-113.73l-184.94-287.37-184.92 287.37h-113.73v-607.73h105.05v434.09l190.13-284.76h3.47z" fill="#495d63"/><g fill-rule="evenodd"><path d="m3442.0099 4740.5736c584.77 188.12 1115.37 293.96 1591.78 317.53 208.04 10.29 432.82 14.12 638.47-22.24 73.28-12.96 144.53-33.24 210.28-65.84 52.25-25.9 93.63-57.31 124.12-94.21 40.97 142.43 8.27 246.48-98.1 312.1-99.87 61.65-235.36 76.31-349.38 85.69-504.29 41.52-1210.02-136.15-2117.17-533.03" fill="#495d63"/><path d="m4484.5099 3772.2236c-590.36-169.78-1124-259.01-1600.92-267.71-208.26-3.78-433.05-.61-637.46 42.15-72.84 15.24-143.43 37.74-208.13 72.37-51.41 27.52-91.79 60.21-121.11 98.03-45.39-141.08-15.95-246.09 88.31-315.01 97.9-64.74 232.87-83.61 346.54-96.54 502.75-57.23 1213.68 98.33 2132.77 466.71" fill="#73c82e"/></g></g></svg>