<svg height="95" viewBox="0 0 94.999997 95" width="95" xmlns="http://www.w3.org/2000/svg" xmlns:xlink="http://www.w3.org/1999/xlink"><linearGradient id="a" gradientUnits="userSpaceOnUse" x1="50.738866" x2="50.738866" y1="10.253037" y2="83.856996"><stop offset="0" stop-color="#226e23"/><stop offset="1" stop-color="#63ab3a"/></linearGradient><circle cx="47.5" cy="47.5" r="45.934067" style="opacity:.871;fill:#fff;fill-rule:evenodd;stroke:#000;stroke-width:3.131868;stroke-linecap:round;stroke-linejoin:round;stroke-opacity:.784314"/><circle cx="47.5" cy="47.500023" fill="none" r="42.32143"/><path d="m47.500001 3.8242197a43.676472 43.676472 0 0 0 -43.6757813 43.6757813 43.676472 43.676472 0 0 0 43.6757813 43.675781 43.676472 43.676472 0 0 0 43.675781-43.675781 43.676472 43.676472 0 0 0 -43.675781-43.6757813zm0 6.7109373c2.26423.0083 4.523397.224904 6.748047.646485.10716.48368.167969.98402.167969 1.5 0 3.82265-3.097269 6.918015-6.917969 6.916015-3.82069.0022-6.916016-3.091382-6.916016-6.914062 0-.5181.06204-1.02034.169922-1.50586 2.22479-.420165 4.483947-.635699 6.748047-.642578zm-18.994141 5.298828c-.24053 1.21916-.371333 2.474142-.371093 3.763672 0 7.71966 4.528393 14.367959 11.064453 17.480469v35.089844l8.298828 8.298828 8.300781-8.300781-.476562-7.34961 3.914062-3.912109-3.914062-3.912109 5.871093-5.867188-5.871093-5.871094.476562-8.177734c6.53802-3.11057 11.066406-9.758856 11.066406-17.478516 0-1.28696-.133397-2.540982-.373046-3.757812 11.132459 6.667543 17.954446 18.68374 17.972656 31.660156-.00054 20.414588-16.550254 36.964292-36.964844 36.964844-20.41459-.000552-36.964299-16.550255-36.964844-36.964844.01555-12.978245 6.837123-24.996792 17.970703-31.666016zm13.458985 25.898438h2.767578v27.666016h-2.765625l-.002-27.664063v-.002z" fill="#f9f9f9" fill-rule="evenodd"/><path d="m54.247562 11.181816c.107159.48368.16838.98465.16838 1.50063 0 3.822651-3.097351 6.917921-6.91805 6.915921-3.82069.0022-6.91594-3.09115-6.91594-6.913831 0-.5181.0626-1.02142.17048-1.50694 2.22479-.420165 4.483469-.635041 6.747569-.64192 2.26423.0083 4.52291.224559 6.747561.64614zm-26.11261 8.416551c0 7.71966 4.528179 14.36677 11.064239 17.47928v35.091179l8.2987 8.2987 8.30082-8.3008-.47566-7.3495 3.91258-3.9126-3.91258-3.9126 5.86992-5.867799-5.86992-5.8699.47565-8.17878c6.53802-3.11057 11.06635-9.75752 11.06635-17.47718 0-1.28696-.13288-2.54209-.37253-3.75892 11.132459 6.667543 17.953549 18.684164 17.97176 31.66058-.00054 20.414589-16.549689 36.963749-36.96428 36.964299-20.41459-.00055-36.96374-16.54971-36.96428-36.964299.0155-12.978245 6.83607-24.997676 17.96965-31.6669-.24053 1.21916-.37066 2.47571-.370419 3.76524zm13.829769 22.13472h2.76764v27.665839h-2.76554l-.002-27.663749v-.002z" fill="url(#a)" opacity=".94"/></svg>