<svg height="158" viewBox="0 0 158 158" width="158" xmlns="http://www.w3.org/2000/svg" xmlns:xlink="http://www.w3.org/1999/xlink"><filter id="a" color-interpolation-filters="sRGB"><feFlood flood-opacity=".239216" result="flood"/><feComposite in="flood" in2="SourceGraphic" operator="in" result="composite1"/><feGaussianBlur in="composite1" result="blur" stdDeviation="2"/><feOffset dx="0" dy="4" result="offset"/><feComposite in="SourceGraphic" in2="offset" operator="over" result="fbSourceGraphic"/><feColorMatrix in="fbSourceGraphic" result="fbSourceGraphicAlpha" values="0 0 0 -1 0 0 0 0 -1 0 0 0 0 -1 0 0 0 0 1 0"/><feFlood flood-opacity=".121569" in="fbSourceGraphic" result="flood"/><feComposite in="flood" in2="fbSourceGraphic" operator="in" result="composite1"/><feGaussianBlur in="composite1" result="blur" stdDeviation="2"/><feOffset dx="0" dy="0" result="offset"/><feComposite in="fbSourceGraphic" in2="offset" operator="over" result="composite2"/></filter><radialGradient id="b" cx="21.048733" cy="20.632277" gradientTransform="matrix(-.01177527 2.0143653 -1.9807054 -.01157852 49.253885 -1.882035)" gradientUnits="userSpaceOnUse" r="76"><stop offset="0" stop-color="#fff" stop-opacity=".101961"/><stop offset="1" stop-color="#d19f68" stop-opacity="0"/></radialGradient><g transform="translate(-4.8 -38)"><g fill="#43a047"><rect filter="url(#a)" height="152" ry="12" width="152" x="7.799995" y="40.999996"/><path d="m19.79999 39.999995c-6.648 0-11.9999996 5.352-11.9999996 12v1c0-6.648 5.3519996-12 11.9999996-12h128.00001c6.64799 0 12 5.352 12 12v-1c0-6.648-5.35201-12-12-12z"/><path d="m7.7999904 181v1c0 6.648 5.3519996 12 11.9999996 12h128.00001c6.64799 0 12-5.352 12-12v-1c0 6.648-5.35201 12-12 12h-128.00001c-6.648 0-11.9999996-5.352-11.9999996-12z"/></g><path d="m19.799995 39.999995c-6.648 0-11.9999996 5.352-11.9999996 12v1c0-6.648 5.3519996-12 11.9999996-12h128.000005c6.64799 0 12 5.352 12 12v-1c0-6.648-5.35201-12-12-12z" fill="#fff" fill-opacity=".2"/><path d="m7.7999904 181v1c0 6.648 5.3519996 12 11.9999996 12h128.00001c6.64799 0 12-5.352 12-12v-1c0 6.648-5.35201 12-12 12h-128.00001c-6.648 0-11.9999996-5.352-11.9999996-12z" fill-opacity=".2"/><path d="m19.799995 39.999996c-6.648 0-11.9999996 5.352-11.9999996 12v1 128.000004 1c0 6.648 5.3519996 12 11.9999996 12h128.000005c6.64799 0 12-5.352 12-12v-1-128.000004-1c0-6.648-5.35201-12-12-12z" fill="url(#b)"/><path d="m120.56953 72.916016-84.59766 84.681644-.171875 11.40234 11.400391-.17187 11.839843-11.82813h12.759766v-12h12v-12.73438l34.011725-33.976564a8 8 0 0 1 -2.01172-5.28906 8 8 0 0 1 8-8 8 8 0 0 1 5.29688 2.01367l2.7871-2.7832z" fill="#eaeaea" filter="url(#a)"/><path d="m35.799995 72.999996.171875 11.40137 84.42676 84.426754 11.40137.17188-.17188-11.40137-84.426758-84.426754z" fill="#c6c6c6" filter="url(#a)"/><path d="m113.19454 65.001946a27 27 0 0 0 -19.486345 7.90625 27 27 0 0 0 0 38.183604 27 27 0 0 0 38.183605 0 27 27 0 0 0 0-38.183604 27 27 0 0 0 -18.69726-7.90625zm10.60546 19.99805a8 8 0 0 1 8 8 8 8 0 0 1 -8 8.000004 8 8 0 0 1 -8-8.000004 8 8 0 0 1 8-8z" fill="#eaeaea" filter="url(#a)"/></g></svg>