<svg height="500" viewBox="0 0 500 500" width="500" xmlns="http://www.w3.org/2000/svg"><path d="m204 426.57511c-47.24073-12.32447-86.25479-41.0478-110.346326-81.24029-34.721266-57.92633-33.960421-132.97251 1.929542-190.32079 3.609309-5.76729 6.869684-10.71729 7.245274-11 .37559-.28272 1.99973-2.31403 3.60921-4.51403 4.8907-6.68513 21.57947-23.33495 30.0623-29.99215 22.90801-17.977865 49.89162-29.963401 80.5-35.756355 15.48853-2.931366 48.29015-3.115146 63.5-.355776 59.46771 10.788624 107.72127 46.738311 133.02298 99.104281 24.55595 50.82247 24.74695 107.16628.53582 158.05569-19.25097 40.46363-53.91034 72.48206-96.11963 88.79558-11.31524 4.37325-34.00573 10.64873-38.50298 10.64873-4.2357 0-7.41731-8.17288-4.18619-10.75343.6875-.54907 5.95743-1.99531 11.71096-3.21385 18.97683-4.01913 40.99491-13.12602 57.53904-23.79871 23.93548-15.44089 45.97943-40.56464 58.45928-66.62678 26.54648-55.43794 20.63597-122.67269-15.15296-172.37201-8.36276-11.61318-27.04077-30.12918-38.80632-38.46972-11.41854-8.09454-31.96209-18.468149-45-22.723055-42.90574-14.002239-90.06194-10.767732-130.5 8.951175-74.842505 36.49561-110.914573 124.13205-84.382758 205.00638 18.351788 55.93994 65.899958 98.18386 123.790808 109.98126 5.44837 1.11031 10.16256 2.01874 10.47598 2.01874.31343 0 1.27908 1.0824 2.14589 2.40533 1.41352 2.15729 1.42116 2.776.0741 6-1.36232 3.26049-1.85531 3.58706-5.30297 3.51277-2.09059-.0451-9.42605-1.54939-16.30105-3.34299z" fill="#fcfaf5"/><path d="m37.250674 498.45486c-15.891865-4.27931-28.9099076-16.21224-34.8606607-31.95486-1.82814412-4.83633-1.89869592-11.8252-2.1552548-213.5-.18300765-143.85795.0631127-210.087284.79385-213.619711 2.8235763-13.649337 13.1049135-27.39011 24.9793175-33.3842899 12.696838-6.40934354-2.744438-5.9959991 223.992074-5.9959991 182.8766 0 207.26367.17691701 212.5399 1.5418793 16.03845 4.149152 28.09952 15.0191847 34.64366 31.2225807l2.31644 5.73554v211c0 203.94306-.0629 211.18395-1.88121 216.5-4.11204 12.02216-13.64782 22.97983-25.11879 28.86429-10.5404 5.40709 1.15558 5.14114-222.9601 5.0699-175.113226-.05566-207.849375-.28378-212.289226-1.47933zm188.353326-72.04953c1.34708-3.224 1.33944-3.84271-.0741-6-.86679-1.32293-1.83244-2.40533-2.14587-2.40533-.31342 0-5.02761-.90843-10.47598-2.01874-50.90207-10.37318-94.48998-44.61336-116.456086-91.48126-25.138387-53.63643-20.318321-118.12025 12.494026-167.1476 41.71797-62.333898 121.90367-89.182485 195.05401-65.309955 13.03791 4.254906 33.58146 14.628515 45 22.723055 11.76555 8.34054 30.44356 26.85654 38.80632 38.46972 35.78893 49.69932 41.69944 116.93407 15.15296 172.37201-12.47985 26.06214-34.5238 51.18589-58.45928 66.62678-16.54413 10.67269-38.56221 19.77958-57.53904 23.79871-5.75353 1.21854-11.02346 2.66478-11.71096 3.21385-3.23112 2.58055-.0495 10.75343 4.18619 10.75343 4.49725 0 27.18774-6.27548 38.50298-10.64873 34.69366-13.4088 63.44201-36.66474 85.04316-68.79558 10.66744-15.86739 21.50378-42.33302 25.40868-62.05569 7.92679-40.03623 2.90504-79.21577-14.86803-116-25.30171-52.36597-73.55527-88.315657-133.02298-99.104281-15.20985-2.75937-48.01147-2.57559-63.5.355776-30.60838 5.792954-57.59199 17.77849-80.5 35.756355-8.48283 6.6572-25.1716 23.30702-30.0623 29.99215-1.60948 2.2-3.23362 4.23131-3.60921 4.51403-.37559.28271-3.635965 5.23271-7.245274 11-16.826176 26.88641-25.942125 56.97694-27.261319 89.98597-3.435164 85.95505 51.630463 159.64821 135.678103 181.57511 6.875 1.7936 14.21046 3.29794 16.30103 3.34299 3.44766.0743 3.94065-.25228 5.30297-3.51277z" fill="#f0a627"/></svg>