<svg height="50" viewBox="0 0 50 50" width="50" xmlns="http://www.w3.org/2000/svg" xmlns:xlink="http://www.w3.org/1999/xlink"><defs><linearGradient id="a" gradientTransform="scale(.90971766 1.0992422)" gradientUnits="userSpaceOnUse" x1="28.030676" x2="28.030676" y1="11.88603" y2="36.578232"><stop offset="0" stop-color="#fff"/><stop offset="1" stop-color="#fff" stop-opacity=".645748"/></linearGradient><path id="b" d="m35.602083 21.102083 2.397917 1.397917-12.502083 7.291667-12.497917-7.291667 2.396875-1.397917 10.101042 5.89375zm-10.104166 11.101042-10.101042-5.89375-2.396875 1.398958 12.497917 7.291667 12.502083-7.291667-2.397917-1.397916zm0 5.208333-10.101042-5.89375-2.396875 1.398959 12.497917 7.291666 12.502083-7.291666-2.397917-1.397917zm12.502083-20.119791-12.502083-7.291667-12.497917 7.291667 12.497917 7.291666z"/><filter id="c" height="2" width="2" x="-.5" y="-.5"><feOffset dx="0" dy="1" in="SourceAlpha" result="shadowOffsetOuter1"/><feGaussianBlur in="shadowOffsetOuter1" result="shadowBlurOuter1" stdDeviation="1"/><feColorMatrix in="shadowBlurOuter1" type="matrix" values="0 0 0 0 0   0 0 0 0 0   0 0 0 0 0  0 0 0 0.15 0"/></filter></defs><g fill="none" fill-rule="evenodd"><rect fill="#e92c2a" fill-rule="evenodd" height="100%" rx="3" transform="translate(0 0)" width="100%"/><g opacity=".9" transform="translate(0 -.104167)"><use fill="#000" filter="url(#c)" height="100%" width="100%" xlink:href="#b"/><use fill="url(#a)" fill-rule="evenodd" height="100%" width="100%" xlink:href="#b"/></g></g></svg>