<svg height="94.263908mm" viewBox="0 0 94.263912 94.263907" width="94.263908mm" xmlns="http://www.w3.org/2000/svg"><g stroke-linecap="round" stroke-linejoin="round" transform="matrix(1.0116362 0 0 1.0116362 -47.264836 13.531209)"><g stroke-width=".939584" transform="matrix(1.0606622 0 0 .94280721 0 -34.811039)"><path d="m88.589476 60.408055h-2.259155v-.251217h2.259155z"/><path d="m90.793006 60.408055h-2.259155v-.251217h2.259155z"/><path d="m92.996535 60.408055h-2.259155v-.251217h2.259155z"/><path d="m95.200064 60.408055h-2.259155v-.251217h2.259155z"/><path d="m101.81065 60.408055h-2.259156v-.251217h2.259156z"/><path d="m104.01418 60.408055h-2.25916v-.251217h2.25916z"/><path d="m106.21771 60.408055h-2.25916v-.251217h2.25916z"/><path d="m108.42124 60.408055h-2.25916v-.251217h2.25916z"/><path d="m110.62477 60.408055h-2.25916v-.251217h2.25916z"/><path d="m117.23535 60.408055h-2.25915v-.251217h2.25915z"/><path d="m119.43888 60.408055h-2.25916v-.251217h2.25916z"/><path d="m121.64241 60.408055h-2.25916v-.251217h2.25916z"/><path d="m123.84594 60.408055h-2.25916v-.251217h2.25916z"/><path d="m48.925962 65.440411h-2.259155v-.251217h2.259155z"/><path d="m53.33302 65.440411h-2.259155v-.251217h2.259155z"/><path d="m57.740077 65.440411h-2.259155v-.251217h2.259155z"/><path d="m85.12269 62.066931h.267366v3.67494h-.267366z"/><path d="m92.996535 65.440411h-2.259155v-.251217h2.259155z"/><path d="m95.200064 65.440411h-2.259155v-.251217h2.259155z"/><path d="m96.140333 62.066931h.267366v3.67494h-.267366z"/><path d="m98.343862 62.066931h.267367v3.67494h-.267367z"/><path d="m111.56503 62.066931h.26737v3.67494h-.26737z"/><path d="m113.76856 62.066931h.26737v3.67494h-.26737z"/><path d="m121.64241 65.440411h-2.25916v-.251217h2.25916z"/><path d="m123.84594 65.440411h-2.25916v-.251217h2.25916z"/><path d="m124.78621 62.066931h.26736v3.67494h-.26736z"/><path d="m45.459173 67.099287h.267366v3.67494h-.267366z"/><path d="m50.225111 67.267961h.34632q-.805687.674696-.805687 1.602403 0 .934885.802098 1.602403h-.342731q-.796715-.633424-.796715-1.598814 0-.954623.796715-1.605992z"/><path d="m53.33302 70.472767h-2.259155v-.251216h2.259155z"/><path d="m54.183567 70.472767h-.340936q.800304-.665724.800304-1.602403 0-.929501-.803893-1.602403h.344525q.79851.64778.79851 1.605992 0 .968978-.79851 1.598814z"/><path d="m58.680345 67.099287h.267367v3.67494h-.267367z"/><path d="m62.147134 70.472767h-2.259155v-.251216h2.259155z"/><path d="m64.350663 70.472767h-2.259155v-.251216h2.259155z"/><path d="m68.75772 70.472767h-2.259155v-.251216h2.259155z"/><path d="m73.164778 70.472767h-2.259155v-.251216h2.259155z"/><path d="m77.571835 70.472767h-2.259155v-.251216h2.259155z"/><path d="m79.775363 70.472767h-2.259155v-.251216h2.259155z"/><path d="m81.978892 70.472767h-2.259155v-.251216h2.259155z"/><path d="m85.12269 67.099287h.267366v3.67494h-.267366z"/><path d="m89.529745 67.099287h.267366v3.67494h-.267366z"/><path d="m98.343862 67.099287h.267367v3.67494h-.267367z"/><path d="m102.75092 67.099287h.26736v3.67494h-.26736z"/><path d="m107.15798 67.099287h.26736v3.67494h-.26736z"/><path d="m111.56503 67.099287h.26737v3.67494h-.26737z"/><path d="m113.76856 67.099287h.26737v3.67494h-.26737z"/><path d="m118.17562 67.099287h.26737v3.67494h-.26737z"/><path d="m45.459173 72.131643h.267366v3.674941h-.267366z"/><path d="m49.86623 72.131643h.267367v3.674941h-.267367z"/><path d="m54.273288 72.131643h.267366v3.674941h-.267366z"/><path d="m59.02846 72.300317-.07357.947446h-.278132l-.07357-.947446z"/><path d="m62.147134 75.505124h-2.259155v-.251217h2.259155z"/><path d="m65.021771 72.300317 1.125091 2.62342h-.319404l-1.125091-2.62342z"/><path d="m70.046103 72.300317-.07357.947446h-.278133l-.07357-.947446z"/><path d="m73.164778 75.505124h-2.259155v-.251217h2.259155z"/><path d="m74.960976 72.300317-1.125091 2.62342h-.319404l1.125091-2.62342z"/><path d="m78.056323 74.089339v-.30146h1.182513v.30146z"/><path d="m81.978892 75.505124h-2.259155v-.251217h2.259155z"/><path d="m82.829441 75.505124h-.340937q.800304-.665724.800304-1.602404 0-.929501-.803893-1.602403h.344526q.798509.64778.798509 1.605992 0 .968979-.798509 1.598815z"/><path d="m85.12269 72.131643h.267366v3.674941h-.267366z"/><path d="m89.529745 72.131643h.267366v3.674941h-.267366z"/><path d="m92.996535 75.505124h-2.259155v-.251217h2.259155z"/><path d="m95.200064 75.505124h-2.259155v-.251217h2.259155z"/><path d="m98.343862 72.131643h.267367v3.674941h-.267367z"/><path d="m102.75092 72.131643h.26736v3.674941h-.26736z"/><path d="m107.15798 72.131643h.26736v3.674941h-.26736z"/><path d="m111.56503 72.131643h.26737v3.674941h-.26737z"/><path d="m113.76856 72.131643h.26737v3.674941h-.26737z"/><path d="m118.17562 72.131643h.26737v3.674941h-.26737z"/><path d="m121.64241 75.505124h-2.25916v-.251217h2.25916z"/><path d="m123.84594 75.505124h-2.25916v-.251217h2.25916z"/><path d="m45.459173 77.164h.267366v3.67494h-.267366z"/><path d="m48.925962 80.53748h-2.259155v-.251217h2.259155z"/><path d="m49.86623 77.164h.267367v3.67494h-.267367z"/><path d="m53.33302 80.53748h-2.259155v-.251217h2.259155z"/><path d="m54.273288 77.164h.267366v3.67494h-.267366z"/><path d="m57.740077 80.53748h-2.259155v-.251217h2.259155z"/><path d="m58.814926 79.415977q.272749 0 .272749.297871 0 .297871-.272749.297871-.270955 0-.270955-.297871 0-.297871.270955-.297871z"/><path d="m62.147134 80.53748h-2.259155v-.251217h2.259155z"/><path d="m64.350663 80.53748h-2.259155v-.251217h2.259155z"/><path d="m66.146862 77.332674-1.125091 2.623419h-.319404l1.125091-2.623419z"/><path d="m68.75772 80.53748h-2.259155v-.251217h2.259155z"/><path d="m69.697988 77.164h.267367v3.67494h-.267367z"/><path d="m73.835885 77.332674 1.125091 2.623419h-.319404l-1.125091-2.623419z"/><path d="m77.571835 80.53748h-2.259155v-.251217h2.259155z"/><path d="m79.775363 80.53748h-2.259155v-.251217h2.259155z"/><path d="m81.978892 80.53748h-2.259155v-.251217h2.259155z"/><path d="m82.919161 77.164h.267366v3.67494h-.267366z"/><path d="m85.12269 77.164h.267366v3.67494h-.267366z"/><path d="m88.589476 80.53748h-2.259155v-.251217h2.259155z"/><path d="m90.793006 80.53748h-2.259155v-.251217h2.259155z"/><path d="m92.996535 80.53748h-2.259155v-.251217h2.259155z"/><path d="m95.200064 80.53748h-2.259155v-.251217h2.259155z"/><path d="m96.140333 77.164h.267366v3.67494h-.267366z"/><path d="m98.343862 77.164h.267367v3.67494h-.267367z"/><path d="m101.81065 80.53748h-2.259156v-.251217h2.259156z"/><path d="m102.75092 77.164h.26736v3.67494h-.26736z"/><path d="m106.21771 80.53748h-2.25916v-.251217h2.25916z"/><path d="m107.15798 77.164h.26736v3.67494h-.26736z"/><path d="m110.62477 80.53748h-2.25916v-.251217h2.25916z"/><path d="m111.56503 77.164h.26737v3.67494h-.26737z"/><path d="m113.76856 77.164h.26737v3.67494h-.26737z"/><path d="m117.23535 80.53748h-2.25915v-.251217h2.25915z"/><path d="m119.43888 80.53748h-2.25916v-.251217h2.25916z"/><path d="m121.64241 80.53748h-2.25916v-.251217h2.25916z"/><path d="m123.84594 80.53748h-2.25916v-.251217h2.25916z"/><path d="m124.78621 77.164h.26736v3.67494h-.26736z"/><path d="m44.627962 84.146888v-.286646h.841561v.286646z"/><path d="m46.489679 84.146888v-.286646h.841562v.286646z"/><path d="m48.351397 84.146888v-.286646h.841561v.286646z"/><path d="m50.213114 84.146888v-.286646h.841561v.286646z"/><path d="m52.074831 84.146888v-.286646h.841562v.286646z"/><path d="m53.936549 84.146888v-.286646h.841561v.286646z"/><path d="m55.798266 84.146888v-.286646h.841562v.286646z"/><path d="m57.659983 84.146888v-.286646h.841562v.286646z"/><path d="m59.521701 84.146888v-.286646h.841561v.286646z"/><path d="m61.383419 84.146888v-.286646h.841561v.286646z"/><path d="m63.245136 84.146888v-.286646h.841561v.286646z"/><path d="m65.106853 84.146888v-.286646h.841562v.286646z"/><path d="m66.968571 84.146888v-.286646h.841561v.286646z"/><path d="m68.830288 84.146888v-.286646h.841561v.286646z"/><path d="m70.692005 84.146888v-.286646h.841561v.286646z"/><path d="m72.553722 84.146888v-.286646h.841561v.286646z"/><path d="m74.415439 84.146888v-.286646h.841562v.286646z"/><path d="m76.277157 84.146888v-.286646h.841561v.286646z"/><path d="m78.138876 84.146888v-.286646h.841561v.286646z"/><path d="m80.000593 84.146888v-.286646h.841561v.286646z"/><path d="m81.86231 84.146888v-.286646h.841562v.286646z"/><path d="m83.724027 84.146888v-.286646h.841562v.286646z"/><path d="m85.585745 84.146888v-.286646h.841561v.286646z"/><path d="m87.447462 84.146888v-.286646h.841561v.286646z"/><path d="m89.309179 84.146888v-.286646h.841561v.286646z"/><path d="m91.170896 84.146888v-.286646h.841562v.286646z"/><path d="m93.032614 84.146888v-.286646h.841561v.286646z"/><path d="m94.894331 84.146888v-.286646h.841561v.286646z"/><path d="m96.756048 84.146888v-.286646h.841561v.286646z"/><path d="m98.617765 84.146888v-.286646h.841562v.286646z"/><path d="m100.47948 84.146888v-.286646h.84156v.286646z"/><path d="m102.3412 84.146888v-.286646h.84156v.286646z"/><path d="m104.20292 84.146888v-.286646h.84156v.286646z"/><path d="m106.06463 84.146888v-.286646h.84157v.286646z"/><path d="m107.92635 84.146888v-.286646h.84156v.286646z"/><path d="m109.78807 84.146888v-.286646h.84156v.286646z"/><path d="m111.64979 84.146888v-.286646h.84156v.286646z"/><path d="m113.51151 84.146888v-.286646h.84156v.286646z"/><path d="m115.37322 84.146888v-.286646h.84157v.286646z"/><path d="m117.23494 84.146888v-.286646h.84156v.286646z"/><path d="m119.09666 84.146888v-.286646h.84156v.286646z"/><path d="m120.95838 84.146888v-.286646h.84156v.286646z"/><path d="m122.82009 84.146888v-.286646h.84156v.286646z"/><path d="m124.68181 84.146888v-.286646h.84156v.286646z"/></g><g stroke-width="1.235"><path d="m137.48377 24.984749v.247628q-.23328.05742-.45219.05742-.64958 0-.64958-.617275v-1.143036h-.4791v-.168674l.4791-.08792.13817-.514994h.18841v.52576h.78595v.245833h-.78595v1.143036q0 .349909.34453.349909.16688 0 .43066-.03768z"/><path d="m139.61013 25.25391v-1.268644q0-.261983-.0484-.364264-.0467-.102281-.15791-.102281-.15612 0-.22789.148936-.07.148935-.07.498844v1.087409h-.2889v-1.268644q0-.466545-.2243-.466545-.15073 0-.21533.143552-.0646.141758-.0646.570621v1.021016h-.29069v-1.970256h.22789l.0485.265572h.0179q.12022-.30146.36067-.30146.29249 0 .38221.326582h.0108q.13637-.326582.39297-.326582.22969 0 .33376.16688.10408.165085.10408.552676v1.286588z"/></g></g></svg>