<svg height="24" viewBox="0 0 24 24" width="24" xmlns="http://www.w3.org/2000/svg"><g transform="matrix(.13333333 0 0 -.13333333 0 23.999999)"><path d="m166.678 179.99999h-153.398598c-7.3241797 0-13.27339975-5.809-13.27339975-12.977v-154.034695c0-7.1679903 5.94922005-12.98830025 13.27339975-12.98830025h153.398598c7.344 0 13.316 5.82030995 13.316 12.98830025v154.034695c0 7.168-5.972 12.977-13.316 12.977" fill="#18679e"/><g fill="#fff"><path d="m40.045102 155.21899c8.5351 0 15.4687-6.938 15.4687-15.485 0-8.543-6.9336-15.48-15.4687-15.48-8.5743 0-15.5 6.937-15.5 15.48 0 8.547 6.9257 15.485 15.5 15.485m-13.3789-42.699h26.7304v-85.898895h-26.7304z"/><path d="m70.142702 112.51999h25.586v-11.743h.3711c3.5664 6.754 12.265198 13.871 25.254198 13.871 27.043 0 32.031-17.784695 32.031-40.917495v-47.1094h-26.691v41.7773c0 9.961-.172 22.7735-13.875 22.7735-13.887198 0-16.008298-10.8594-16.008298-22.0625v-42.4883h-26.668z"/></g></g></svg>