<svg height="534" viewBox="0 0 534 534" width="534" xmlns="http://www.w3.org/2000/svg"><g fill="none" fill-rule="evenodd"><rect fill="#fe5e00" height="532" rx="23" stroke="#979797" width="532" x="1" y="1"/><g fill="#fff" transform="translate(94.618501 119.807364)"><path d="m82.4012401 272.784215c10.8978055 5.153309 25.2311899 9.7525 43.0093899 14.323984 18.32309 4.017365 39.55534 6.326196 62.486909 6.880315 16.041939 0 31.520517-1.154415 45.863137-4.58072 14.896746-2.86295 27.503106-7.452905 39.546105-13.76063 5.725965-2.862949 12.615595-6.880315 20.641182-12.606214 7.443755-5.735135 14.896746-12.606215 22.922334-21.2043 6.880393-8.025495 13.188192-17.777995 17.778199-29.248265 5.153369-11.47027 8.025588-24.076484 8.025588-37.827879-.581833-24.08572-6.307798-45.871845-18.341562-64.785784-10.325209-16.0602255-23.5134-30.38421-38.991979-41.8452447l25.231192-67.63949892-87.127032 35.52828402c-2.299622-.5818253-4.590009-1.1359446-6.326268-1.7270052-22.349738-6.8618443-43.563516-9.7340295-64.186229-10.3066194-26.958215.5725899-51.607573 4.5807197-73.3847133 12.6062146-20.6411825 8.6073202-37.8375502 20.0775902-51.607574 34.9741647-13.7515529 15.4783998-22.34973668 33.2471599-25.78531605 54.4606939-2.87221823 20.05912-2.29962167 38.41894 1.69931883 54.451459 4.59924334 16.060226 10.90704092 29.820855 20.07782132 41.85448 8.0348227 12.624685 17.7781997 22.94054 28.0849378 30.966035 10.325209 8.007024 20.6411825 14.323985 30.3845595 19.48653zm40.1371719-1.71777c-16.051175-4.58072-28.6667699-9.170675-37.8283149-14.342456-8.0348227-4.580719-17.2148385-10.888444-26.3763834-18.341349-8.5981839-7.452905-16.6237712-16.05099-23.5134008-26.939435-7.4437552-10.32509-12.0337632-22.358714-14.3241495-36.100874-2.8629827-20.07759-1.7177896-37.27376 4.008176-51.034389 5.7259656-13.76063 13.7515529-25.2309004 24.0767618-33.2563953 10.907041-8.6073202 22.3497368-14.8965745 34.4019708-19.4865296 12.0429987-4.0173651 23.504165-6.8710796 34.40197-8.5980848 10.315974-1.1359447 18.332326-2.2903599 23.494931-2.2903599 18.923392 0 37.83755 2.8629498 56.169875 8.0254949 18.914157 5.1533097 36.710828 13.1788046 52.743532 23.5038947 15.487814 10.888445 28.676005 24.067249 38.428617 40.118239 5.725966 9.7525 9.743377 18.350585 12.597125 27.530495 2.862983 8.598085 4.590008 17.186935 4.590008 25.212429-.572597 16.05099-5.725966 31.520155-16.051175 45.29002-9.734141 14.33322-24.649358 25.212429-44.136112 33.819749-18.923393 9.179911-41.282365 13.206511-67.067681 13.206511-21.223015 0-39.564576-2.299595-55.61575-6.31696z"/><path d="m135.264832 250.933443c24.732477 6.501666 50.914917 8.90285 72.479642 3.638716 40.654356-9.881794 53.759429-23.430012 51.662987-57.545291 0 0 .757305-16.438874-33.921729-15.820107-7.693111.13853-27.299926 4.239013-30.098261 12.670862-2.7891 8.441084 1.431492 16.983757 1.653142 21.130417.230885 4.128189-11.202575 9.734029-16.023468 10.205031-6.24315.628001-22.008027-.378649-37.892963-4.294425l-.692658-.175471c-15.75564-4.451426-29.941259-11.359446-35.057686-14.979693-3.952763-2.789067-11.1471616-13.317334-8.9029525-16.789815 2.2349735-3.490952 10.1220295-8.847439 11.8859965-17.547112 1.73626-8.72738-13.317488-21.961596-19.9208192-25.886608-29.8581401-17.667171-37.3203662-2.983009-37.3203662-2.983009-18.6648008 28.611028-13.9639677 46.869259 16.5037105 75.55417 16.1804706 15.210575 40.1094659 26.071314 64.8234719 32.609922z"/></g></g></svg>