<svg clip-rule="evenodd" fill-rule="evenodd" height="2.26569in" image-rendering="optimizeQuality" shape-rendering="geometricPrecision" text-rendering="geometricPrecision" viewBox="0 0 2265.6336 2266.0261" width="2.26569in" xmlns="http://www.w3.org/2000/svg"><path d="m49.106714 2272.0007c-56.0000004-28-65-114-16-145 13-8 82.999996-29 155.999996-45 317-71 602-212 780-385l56.99999-55-53.99999-89c-60-100-113-228-144-351-101-394.00004-20-955.00004 161-1122.000043 148.99999-137 330.99999-56 422.99999 189.000003 60 160 77 283 78 542 1 295.00004-20 407.00004-112 612.00004l-30 67-38-37c-21-20-48-53-60-73l-22-36 24-64c46-122 67-239 74-398.00004 13-299-48-581-145-671-25-23-33-25-56-14-81 37-152.99999 267-168.99999 537-31 540.00004 222.99999 968.00004 714.99999 1206.00004 123 59 290 116 442 148 126 27 152 45 153 106 1 50-32 83-85 83-56 0-220-40-361-87-232-78-448-200-597-338l-77-71-95 81c-196.99999 168-412.99999 281-688.99999 360-174 50-281.999996 68-312.999996 52z" fill="#f3ae2d" fill-rule="nonzero" transform="translate(-.835636 -13.647391)"/></svg>