<svg height="609.43646" viewBox="0 0 609.43646 609.43646" width="609.43646" xmlns="http://www.w3.org/2000/svg"><path d="m.04555243 591.21017c2.23029997-8.45155 221.45538757-575.420891 223.20861757-577.271687.98318-1.037895 19.99071 38.699059 42.23899 88.304347 22.24824 49.60528 41.47372 90.14024 42.72327 90.07768 1.73994-.0871 43.17295-90.24643 81.51897-177.387402 2.20315-5.0066571 17.57861 34.365812 110.54388 283.073692 59.39163 158.88911 108.49209 290.82916 109.11213 293.20017 1.06949 4.08975-14.55995 4.31089-304.67765 4.31089-290.034857 0-305.7463476-.22215-304.66820757-4.30769zm582.82206757-17.58006c0-6.26966-25.49002-68.34262-31.87631-77.62479-11.29014-16.40965-33.70216-35.08571-54.80215-45.66698-25.72128-12.89873-50.34843-18.12039-79.45772-16.84726-27.7571 1.21401-37.1955 5.51252-80.01768 36.44209-37.48593 27.07535-49.74346 32.52018-76.30769 33.8962-25.10132 1.30026-37.7306-2.70427-69.23843-21.95426-11.33425-6.92478-28.91542-16.58459-39.06927-21.46624-15.77703-7.58514-20.96708-8.87685-35.69231-8.88338-14.20013-.007-20.044937 1.33517-33.230767 7.62679l-16.00001 7.63443-19.6923 51.30725c-10.83077 28.219-20.05046 52.75274-20.48819 54.51943-.65104 2.62762 49.85556 3.21216 277.538487 3.21216 161.42541 0 278.33434-.92216 278.33434-2.19544zm-292.17552-95.96438c8.38882-4.19574 27.25605-16.46861 41.92716-27.27304 35.13903-25.8779 47.49381-31.69693 74.51602-35.09656 18.50936-2.32864 25.52505-2.09686 45.47079 1.50225 25.6964 4.63678 53.5362 15.57642 72.04247 28.30907 6.4877 4.46366 12.1311 7.73204 12.54092 7.26307.4098-.46895-3.59141-12.48343-8.89162-26.69881-10.8462-29.09014-13.9345-32.59737-40.19946-45.65282-39.56623-19.66708-87.1134-20.66299-118.15594-2.47483-5.41654 3.17361-21.47808 16.57368-35.69231 29.77791-43.49809 40.40736-67.09118 52.4369-97.0586 49.48781-12.26818-1.20731-22.56832-5.31023-57.60734-22.94708-36.77753-18.5119-44.42361-21.49344-55.38462-21.59685-16.85978-.15901-39.977277 10.33155-43.565767 19.76997-1.38563 3.6445-2.16816 6.97753-1.73896 7.40672.4292.42922 5.72173-.92985 11.76118-3.02011 14.773907-5.11331 43.600017-3.43532 61.555307 3.58316 7.50828 2.93489 25.23135 12.20458 39.38461 20.59931 38.37683 22.76244 49.65331 27.01101 68.32693 25.74304 10.86931-.73804 20.08507-3.33848 30.76923-8.68221zm-16.24099-47.09765c9.28899-4.64177 25.30354-17.10019 42.8547-33.33854 15.41285-14.25993 32.96096-29.22828 38.99584-33.26296 32.33443-21.6175 90.0965-23.16049 134.35137-3.58888 7.81117 3.45445 14.46365 5.98957 14.78333 5.63358.31966-.35599-2.50183-8.62964-6.26995-18.38587-7.93376-20.54171-14.13106-26.86649-38.19715-38.98284-23.4436-11.80296-44.99045-13.76938-67.43599-6.15432-21.59629 7.32692-33.52352 16.12965-56.02666 41.34976-51.11259 57.28382-70.9364 70.96224-100.14807 69.10218-12.91844-.82257-21.08789-3.69984-49.74318-17.51946-39.06502-18.8399-56.22346-23.49765-71.28535-19.35077-12.91354 3.5554-17.740477 7.43013-19.778877 15.87712-1.59674 6.61681-1.3819 6.81253 5.403737 4.92308 3.88662-1.08222 14.86287-1.95345 24.39166-1.93605 16.74659.0305 18.59591.67911 55.38462 19.42282 44.1561 22.49735 45.89038 23.13048 64.12792 23.4109 10.65908.16394 17.10361-1.45893 28.59205-7.19975zm-8.11842-43.94969c7.61467-4.0715 20.3517-15.56369 34.45509-31.08763 38.90523-42.82395 51.86129-54.48834 71.06343-63.97856 30.66986-15.15785 62.70659-15.9642 92.62201-2.33127 7.31385 3.33305 13.57177 5.76724 13.90649 5.40928 1.02033-1.09115-86.18494-233.21787-87.62459-233.242864-.73881-.0128-19.46523 40.456414-41.61428 89.931634s-41.06469 89.07522-42.03471 88c-.97004-1.07523-19.269-41.27803-40.66435-89.33957s-39.25986-87.846154-39.69894-88.410258c-.43907-.564101-1.41653-.407424-2.17213.348173-1.37813 1.378136-114.24767 292.520295-114.29974 294.831305-.0153.67693 6.56244.85839 14.61709.40325 19.17509-1.08352 36.26797 4.06166 70.09557 21.09967 14.99772 7.55392 30.59167 14.55126 34.6532 15.54966 10.62406 2.6116 22.85573.21736 36.69586-7.18282z" fill="#ee453b" stroke-width="2.461539"/></svg>