<svg height="346" width="346" xmlns="http://www.w3.org/2000/svg" xmlns:xlink="http://www.w3.org/1999/xlink"><linearGradient id="a" gradientTransform="matrix(-1.437643 0 0 1.464729 207.0038 -61.58986)" gradientUnits="userSpaceOnUse" x1="74.429703" x2="124.5117" y1="81.947304" y2="81.947304"><stop offset="0" stop-color="#debc85"/><stop offset=".1763" stop-color="#bd9b63"/><stop offset=".3869" stop-color="#9c783f"/><stop offset=".5" stop-color="#8f6b32"/><stop offset="1" stop-color="#debc85"/></linearGradient><linearGradient id="b" gradientTransform="matrix(1.53075 0 0 1.48492 -216.2652 -63.21078)" gradientUnits="userSpaceOnUse" x1="126.42596" x2="73.339935" y1="101.83096" y2="101.83096"><stop offset=".0237" stop-color="#b3925d"/><stop offset=".025" stop-color="#b7975d"/><stop offset=".0348" stop-color="#d1b55a"/><stop offset=".0451" stop-color="#e5cd58"/><stop offset=".056" stop-color="#f4de56"/><stop offset=".068" stop-color="#fce855"/><stop offset=".0828" stop-color="#ffeb55"/><stop offset=".0986" stop-color="#fce242"/><stop offset=".1278" stop-color="#f8d525"/><stop offset=".1568" stop-color="#f5cb11"/><stop offset=".1854" stop-color="#f4c504"/><stop offset=".213" stop-color="#f3c300"/><stop offset=".2931" stop-color="#dfae00"/><stop offset=".3765" stop-color="#d19e00"/><stop offset=".4438" stop-color="#c90"/><stop offset=".6982" stop-color="#e3ad00"/><stop offset=".8402" stop-color="#fd0"/><stop offset=".8602" stop-color="#ffe72f"/><stop offset=".8868" stop-color="#fff468"/><stop offset=".9066" stop-color="#fffc8c"/><stop offset=".9172" stop-color="#ff9"/><stop offset=".9304" stop-color="#fcfb96"/><stop offset=".944" stop-color="#f2ee8d"/><stop offset=".958" stop-color="#e3da7f"/><stop offset=".972" stop-color="#cdbd6b"/><stop offset=".986" stop-color="#b19851"/><stop offset="1" stop-color="#8f6b32"/></linearGradient><linearGradient id="c" gradientUnits="userSpaceOnUse" x1="-59.057826" x2="3.058392" y1="52.499592" y2="52.499592"><stop offset=".0059" stop-color="#ddd"/><stop offset=".1065" stop-color="#bbb"/><stop offset=".2799" stop-color="#b2b2b2"/><stop offset=".5571" stop-color="#9b9b9b"/><stop offset=".7396" stop-color="#888"/><stop offset="1" stop-color="#bbb"/></linearGradient><linearGradient id="d"><stop offset=".0059" stop-color="#888"/><stop offset=".1775" stop-color="#bbb"/><stop offset=".4387" stop-color="#c4c4c4"/><stop offset=".8565" stop-color="#dbdbdb"/><stop offset=".8876" stop-color="#ddd"/><stop offset="1" stop-color="#bbb"/></linearGradient><linearGradient id="e" gradientUnits="userSpaceOnUse" x1="78.543" x2="99.470703" xlink:href="#d" y1="62.576698" y2="62.576698"/><linearGradient id="f" gradientUnits="userSpaceOnUse" x1="99.470703" x2="120.3984" xlink:href="#d" y1="62.576698" y2="62.576698"/><linearGradient id="g" gradientTransform="matrix(1.484067 0 0 1.456166 -175.6209 -38.51022)" gradientUnits="userSpaceOnUse" x1="117.2334" x2="83.030296" y1="64.213898" y2="64.213898"><stop offset="0" stop-color="#888"/><stop offset=".0079" stop-color="#868686"/><stop offset=".1453" stop-color="#626262"/><stop offset=".2189" stop-color="#555"/><stop offset=".2473" stop-color="#575757"/><stop offset=".7371" stop-color="#7b7b7b"/><stop offset="1" stop-color="#888"/></linearGradient><radialGradient id="h" cx="98.668" cy="83.244102" gradientTransform="matrix(1.484067 0 0 1.456166 -175.6209 -38.51022)" gradientUnits="userSpaceOnUse" r="36.6605"><stop offset=".2544" stop-color="#fff"/><stop offset=".2903" stop-color="#f2f2f2"/><stop offset=".4589" stop-color="#b9b9b9"/><stop offset=".584" stop-color="#959595"/><stop offset=".6509" stop-color="#888"/><stop offset=".8549" stop-color="#a9a9a9"/><stop offset="1" stop-color="#bbb"/></radialGradient><linearGradient id="i" gradientUnits="userSpaceOnUse" x1=".091742" x2="-56.317343" y1="53.883636" y2="53.883636"><stop offset=".2899" stop-color="#fff"/><stop offset=".459" stop-color="#ececec"/><stop offset=".811" stop-color="#c8c8c8"/><stop offset="1" stop-color="#bbb"/></linearGradient><linearGradient id="j" gradientTransform="matrix(1 0 0 1.0588235 0 -.235294)" gradientUnits="userSpaceOnUse" x1="60" x2="60" y1="4" y2="72.000504"><stop offset="0" stop-color="#a4c0e4"/><stop offset=".25" stop-color="#d1dff1"/><stop offset=".85" stop-color="#fff"/></linearGradient><linearGradient id="k" gradientTransform="matrix(4 0 0 -4 -2402 -2314.406)" gradientUnits="userSpaceOnUse" x1="615.5" x2="615.5" y1="-589.85107" y2="-580.60107"><stop offset="0" stop-color="#6193cf"/><stop offset="1" stop-color="#d1dff1"/></linearGradient><linearGradient id="l" gradientTransform="matrix(4 0 0 -4 -2402 -2314.406)" gradientUnits="userSpaceOnUse" x1="615.5" x2="615.5" y1="-584.60211" y2="-595.85211"><stop offset="0" stop-color="#6193cf"/><stop offset="1" stop-color="#eee"/></linearGradient><filter id="m"><feGaussianBlur stdDeviation="1.92"/></filter><radialGradient id="n" cx="63.912209" cy="115.70919" fy="115.7093" gradientTransform="matrix(2.6990147 0 0 .21878038 2.73048 308.70232)" gradientUnits="userSpaceOnUse" r="63.912209"><stop offset="0"/><stop offset="1" stop-opacity="0"/></radialGradient><path id="o" d="m347.73048 334.01725a172.5 13.982751 0 0 1 -345 0 172.5 13.982751 0 1 1 345 0z" fill="url(#n)" opacity=".381395"/><g transform="matrix(2.6842105 0 0 2.527027 11.947368 44.918918)"><path d="m4 4.5h112v72h-112z" style="opacity:.5;stroke:#000;stroke-width:4;stroke-linecap:round;stroke-linejoin:round;filter:url(#m)"/><path d="m4 3c-.552 0-1 .4736-1 1.0571428v71.8857142c0 .5846.448 1.057143 1 1.057143h112c.553 0 1-.472543 1-1.057143v-71.8857142c0-.5835428-.447-1.0571428-1-1.0571428z" opacity=".25"/><path d="m4 4h112v72h-112z" fill="url(#j)"/><path d="m4 8v4l56 33 56-33v-4l-56 33z" fill="url(#k)"/><path d="m116 69v-4l-56.003-41-55.997 41v4l55.997-41z" fill="url(#l)"/><path d="m116 4h-112v4l56.004 32.967 55.996-32.967z" fill="#fff"/></g><use height="100%" transform="matrix(.37101449 0 0 .37101449 107.98696 80.887131)" width="100%" xlink:href="#o"/><g transform="matrix(1.030336 0 0 1.065636 201.84943 58.05412)"><path d="m-27.999301 26.224605c-17.154324 0-31.05854 13.592564-31.05854 30.359545v22.18976h11.413958c0-7.729017 0-22.357459 0-22.357459 0-10.42705 8.812377-18.909973 19.643096-18.909973 10.832204 0 19.6431052 8.482923 19.6431052 18.909973v22.357459h11.413958v-22.18976c.001477-16.766981-13.9027392-30.359545-31.0555772-30.359545z" fill="url(#c)"/><g transform="matrix(1.484067 0 0 1.484067 -175.6209 -40.36842)"><path d="m78.543 65.329v14.952h1.195s0-3.654 0-14.952 8.834-20.457 19.732-20.457c-11.558 0-20.927 9.159-20.927 20.457z" fill="url(#e)"/><path d="m99.471 44.872c10.898 0 19.732 9.159 19.732 20.457v14.952h1.195v-14.952c0-11.298-9.369-20.457-20.927-20.457z" fill="url(#f)"/></g><path d="m-26.399479 31.214036c-15.691033 0-25.997874 9.027576-25.997874 24.798749v22.761125h3.980263c0-5.860578 0-22.933277 0-22.933277 0-12.092172 9.877947-21.930048 22.017611-21.930048 12.136701 0 22.0131622 9.837876 22.0131622 21.930048v22.933277h2.749972c0-5.838316 0-22.761125 0-22.761125-.00149-15.771173-9.0735872-24.798749-24.7631342-24.798749z" fill="url(#g)"/><path d="m-28.042334 33.278372c-14.699678 0-24.355019 8.637267-24.355019 23.724285v21.772738h3.729456c0-5.606804 0-21.937469 0-21.937469 0-11.566813 9.253161-20.980246 20.625563-20.980246 11.373878 0 20.6255532 9.411949 20.6255532 20.980246v21.937469h2.576334c0-5.584542 0-21.772738 0-21.772738.00149-15.088503-8.4992462-23.724285-23.2018872-23.724285z" fill="url(#h)"/><path d="m-27.999301 28.099178c-15.346729 0-27.787654 13.05365-27.787654 28.054593v22.620139h1.236226c0-3.805146 0-10.692697 0-20.149168 0-14.997974 11.204699-27.159898 26.551428-27.159898 16.645861 0 26.5514282 10.533872 26.5514282 27.159898v20.149168h1.23474897v-23.433025c0-15.654598-11.95165117-27.241707-27.78617717-27.241707z" fill="url(#i)"/></g><g transform="translate(109 82)"><path d="m-104 56h80v64h-80z" fill="url(#b)" transform="scale(-1 1)"/><path d="m100 56c-.572166 3.386452-16.463883 4.880475-36 4.880475-19.534692 0-35.427831-1.495487-36-4.880475z" fill="url(#a)"/></g></svg>