<svg enable-background="new 0 0 600 200" height="206.77499" viewBox="0 0 206.77499 206.775" width="206.77499" xmlns="http://www.w3.org/2000/svg"><g fill="#3a6b8c" transform="translate(-6.471003 7.454497)"><path d="m53.133 76.595-5.59 11.895-21.184 28.936-4.088-2.645 20.933-28.782 7.291-13.134-19.432-9.049-23.73-16.594 2.256 30.338 7.813 45.397 40.362 1.866 45.897-9.406 24.451-3.196 4.836-7.393-3.025-32.737-7.069-43.209-22.28 27.698-11.922 11.212 16.337 16.037 20.816 15.268-1.993 2.796-14.19-7.939-24.268-23.389-13.098 16.317z"/><path d="m70.788 79.487 9.999-12.215 16.48-15.515 24.886-28.936-52.47 6.751-35.967 5.548-27.245 6.059 26.802 17.572 20.783 9.332z"/></g><g fill="#a31304" transform="translate(-6.471003 7.454497)"><path d="m110.812 131.909-5.86 6.023-18.824 13.072-1.915-2.449 18.64-13.032 7.136-6.418-9.85-9.511-8.811 2.208-7.029 1.624-4.729 29.053 24 9.535 29.682 3.871 15.436 3.16 4.463-3.456 4.992-20.403 4.721-27.582-19.218 12.097-9.545 4.291 6.531 13.087 9.395 13.56-1.783 1.274-6.92-7.752-9.799-19.184-11.307 7.13z"/><path d="m113.134 126.963 7.74 10.373 8.581-5.302 13.189-5.938 21.062-12.299-28.333-5.681-4.702 7.102-15.224 1.706-7.7.687-3.672.941z"/></g><path d="m196.522 36.381497-29.993 5.34-30.076 6.259-11.084 1.759 5.324 28.733999 5.486 25.356004 20.207-4.607004 31.317-5.488 19.072-4.242-4.1-17.716zm-18.649 46.066999.299 1.722-10.582 1.636-22.616 4.14-.321-1.88-.459-1.92 8.95-1.97.124-.021 14.281-2.158 10.106-1.394zm-35.056-2.747-.003-1.462 11.635-2.362 11.401-2.005 5.398-1.161 4.646-.859.407 3.124-5.672 1.291-16.194 2.771-11.027 2.271zm31.706-14.599999.387 1.759-11.226 2.171-12.153 1.856999-9.896 1.764-.891-3.284999 23.188-4.26 10.436-1.716zm19.179-13.418-9.442 1.479-1.324-4.495-.611-5.415 4.335-.543 5.43-1.117 1.294 5.059z" fill="#4b7945"/></svg>