<svg height="37.450909mm" viewBox="0 0 37.450909 37.450909" width="37.450909mm" xmlns="http://www.w3.org/2000/svg" xmlns:xlink="http://www.w3.org/1999/xlink"><radialGradient id="a" cx="-251.73001" cy="363.46655" gradientTransform="matrix(1 0 0 .25 0 272.59991)" gradientUnits="userSpaceOnUse" r="48.083263"><stop offset="0" stop-color="#8b826e"/><stop offset="1" stop-color="#8b826e" stop-opacity="0"/></radialGradient><radialGradient id="b" cx="-386.08029" cy="-2.814756" fx="-390.32294" fy="34.661903" gradientUnits="userSpaceOnUse" r="79.195961"><stop offset="0" stop-color="#fff"/><stop offset=".7027027" stop-color="#e8e6e3"/><stop offset=".85135138" stop-color="#dcd9d4"/><stop offset=".92567569" stop-color="#d3cfc8"/><stop offset="1" stop-color="#afa99b"/></radialGradient><linearGradient id="c" gradientUnits="userSpaceOnUse" spreadMethod="reflect" x1="-161.19366" x2="-508.35327" y1="255.34534" y2="370.55545"><stop offset="0" stop-color="#c8c3ba"/><stop offset="1" stop-color="#c8c3ba" stop-opacity="0"/></linearGradient><filter id="d" height="1.276326" width="1.311907" x="-.155954" y="-.138163"><feGaussianBlur stdDeviation="5.9912527"/></filter><linearGradient id="e" gradientTransform="matrix(.2047878 0 0 .1565016 110.03691 -138.498)" gradientUnits="userSpaceOnUse" x1="-233.66727" x2="-461.82336" y1="293.66547" y2="242.92892"><stop offset="0" stop-color="#1e1d19"/><stop offset="1" stop-color="#1e1d19" stop-opacity="0"/></linearGradient><linearGradient id="f" gradientTransform="matrix(.2072452 0 0 .1583795 110.65551 -139.33082)" gradientUnits="userSpaceOnUse" x1="-274.45306" x2="-303.57669" xlink:href="#g" y1="187.27563" y2="318.54105"/><linearGradient id="g"><stop offset="0" stop-color="#fff"/><stop offset="1" stop-color="#fff" stop-opacity="0"/></linearGradient><linearGradient id="h" gradientUnits="userSpaceOnUse" x1="760.42358" x2="1019.9616" y1="690.43866" y2="690.43866"><stop offset="0"/><stop offset=".5" stop-color="#5c5c5c"/><stop offset="1"/></linearGradient><filter id="i"><feGaussianBlur stdDeviation=".87760089"/></filter><linearGradient id="j" gradientTransform="matrix(.4637182 0 0 .6622072 -350.15422 -350.71526)" gradientUnits="userSpaceOnUse" x1="768.58472" x2="1023.6281" xlink:href="#k" y1="651.61835" y2="651.61835"/><linearGradient id="k"><stop offset="0" stop-color="#545760"/><stop offset=".20382883" stop-color="#c9c9d1"/><stop offset=".40765765" stop-color="#8c8e97"/><stop offset=".81531531" stop-color="#d9d9e1"/><stop offset=".93594271" stop-color="#9698a0"/><stop offset="1" stop-color="#545760"/></linearGradient><linearGradient id="l" gradientUnits="userSpaceOnUse" x1="1875.78529" x2="1875.78529" y1="1121.13045" y2="960.68922"><stop offset="0" stop-color="#333"/><stop offset="1" stop-color="#333" stop-opacity="0"/></linearGradient><filter id="m"><feGaussianBlur stdDeviation="2.075401"/></filter><linearGradient id="n" gradientTransform="matrix(.4637182 0 0 .6622072 -350.15422 -350.71526)" gradientUnits="userSpaceOnUse" x1="776.93402" x2="1015.2847" xlink:href="#k" y1="610.28125" y2="610.28125"/><radialGradient id="o" cx="71.179642" cy="59.005695" fx="37.877705" fy="91.950981" gradientTransform="matrix(.9999855 -.00537627 .00537634 1 -.316206 .382681)" gradientUnits="userSpaceOnUse" r="55.257881"><stop offset="0" stop-color="#cef2ff"/><stop offset="1" stop-color="#0095cc"/></radialGradient><radialGradient id="p" cx="-384.55103" cy="106.33506" fx="-360.45877" fy="83.610748" gradientTransform="matrix(.6070527 .00007403 -.00007224 .5924692 292.60346 2.770646)" gradientUnits="userSpaceOnUse" r="97.124817"><stop offset="0" stop-color="#c6c6c6"/><stop offset="1" stop-color="#767676"/></radialGradient><clipPath id="q"><path d="m1207.7002 729.60795 4.7339 79.64964 1.5626.625c-.076 1.83391-.1516 3.53089-.1876 4.15625.0001 3.59232 6.0894 6.53125 13.625 6.53125 3.4791-.00001 6.6506-.63347 9.0626-1.65625l108.7347-15.71214 2.2812-.71875.125-.0312 1.125-.34375-63.9374-45.75z"/></clipPath><filter id="r" height="1.202999" width="1.105907" x="-.052953" y="-.101499"><feGaussianBlur stdDeviation="3.7348598"/></filter><linearGradient id="s" gradientTransform="matrix(.0498377 0 0 .07117012 -8.253796 40.692117)" gradientUnits="userSpaceOnUse" x1="1330.2439" x2="1585.3186" xlink:href="#k" y1="461.96875" y2="461.96875"/><radialGradient id="t" cx="899.06671" cy="502.28561" fx="917.1629" fy="507.54028" gradientTransform="matrix(1 0 0 .1324548 0 512.72865)" gradientUnits="userSpaceOnUse" r="89.762863"><stop offset="0" stop-color="#fff"/><stop offset=".5" stop-color="#fff" stop-opacity=".498039"/><stop offset="1" stop-color="#fff" stop-opacity="0"/></radialGradient><filter id="u" height="1.2131" width="1.029148" x="-.014574" y="-.10655"><feGaussianBlur stdDeviation="1.3147742"/></filter><linearGradient id="v" gradientTransform="matrix(.4637182 0 0 -.6622072 -350.15422 346.16653)" gradientUnits="userSpaceOnUse" x1="768.58472" x2="1023.6281" xlink:href="#k" y1="651.61835" y2="651.61835"/><radialGradient id="w" cx="565.11243" cy="694.35565" gradientTransform="matrix(1 0 0 .335547 0 391.47553)" gradientUnits="userSpaceOnUse" r="120.46116" xlink:href="#x"/><linearGradient id="x"><stop offset="0"/><stop offset="1" stop-opacity="0"/></linearGradient><filter id="y"><feGaussianBlur stdDeviation=".14984534"/></filter><radialGradient id="z" cx="64.545456" cy="11.231558" gradientTransform="matrix(1.2737825 0 0 .5629691 -16.444966 43.712149)" gradientUnits="userSpaceOnUse" r="54.499996" xlink:href="#x"/><filter id="A"><feGaussianBlur stdDeviation=".78421576"/></filter><radialGradient id="B" cx="1212.2845" cy="615.0993" fx="1240.6837" fy="573.56049" gradientTransform="matrix(.9999994 .00000021 -.00000029 .3373016 1.55211 406.05566)" gradientUnits="userSpaceOnUse" r="87.696846"><stop offset="0" stop-color="#686868" stop-opacity="0"/><stop offset=".91891891" stop-opacity="0"/><stop offset="1"/></radialGradient><filter id="C"><feGaussianBlur stdDeviation=".51855689"/></filter><radialGradient id="D" cx="-42.297516" cy="56.529594" fx="-37.669682" fy="51.759178" gradientTransform="matrix(1.8890937 0 0 -1.2936189 174.65506 112.94843)" gradientUnits="userSpaceOnUse" r="30.819351" xlink:href="#g"/><filter id="E" height="1.214929" width="1.171019" x="-.085509" y="-.107465"><feGaussianBlur stdDeviation="2.0447936"/></filter><radialGradient id="F" cx="-84.59568" cy="94.058876" fx="-83.858559" fy="99.397339" gradientTransform="matrix(1 0 0 1.8285715 0 -77.934501)" gradientUnits="userSpaceOnUse" r="8.99954"><stop offset="0" stop-color="#009aee"/><stop offset="1" stop-color="#fff" stop-opacity="0"/></radialGradient><filter id="G"><feGaussianBlur stdDeviation=".73201376"/></filter><linearGradient id="H" gradientTransform="matrix(.4884583 0 0 -1.0019483 -189.09559 654.1824)" gradientUnits="userSpaceOnUse" spreadMethod="reflect" x1="520.96521" x2="520.96521" y1="619.84198" y2="515.28534"><stop offset="0" stop-color="#818797"/><stop offset="1" stop-color="#d9dde2"/></linearGradient><radialGradient id="I" cx="-106.04688" cy="-24.687504" gradientTransform="matrix(.8146541 .2752249 -.07167377 .2121513 160.30164 63.628863)" gradientUnits="userSpaceOnUse" r="53.953125" xlink:href="#g"/><filter id="J"><feGaussianBlur stdDeviation=".48377238"/></filter><linearGradient id="K" gradientUnits="userSpaceOnUse" x1="32.38456" x2="73.16759" xlink:href="#g" y1="26.814971" y2="71.142136"/><filter id="L"><feGaussianBlur stdDeviation=".1925"/></filter><linearGradient id="M" gradientUnits="userSpaceOnUse" x1="-63.78196" x2="-80.289584" xlink:href="#g" y1="178.842933" y2="61.639979"/><radialGradient id="N" cx="-46.103409" cy="-23.954237" gradientTransform="matrix(.2965172 .09174165 -.06360982 .2148489 -76.172529 30.095497)" gradientUnits="userSpaceOnUse" r="53.953125" xlink:href="#g"/><g transform="matrix(.26458333 0 0 .26458333 3.5145 32.527232)"><path d="m-203.64675 363.46655a48.083263 12.020816 0 1 1 -96.16652 0 48.083263 12.020816 0 1 1 96.16652 0z" fill="url(#a)" transform="matrix(.2047878 0 0 .2209434 110.61613 -163.13774)"/><path d="m-306.88433-2.8147557a79.195961 79.195961 0 1 1 -158.39192 0 79.195961 79.195961 0 1 1 158.39192 0z" fill="url(#b)" transform="matrix(.2047878 0 0 .1565016 137.5502 -93.347365)"/><path d="m-197.11391 332.15974c18.79161-17.42349 26.45901-92.37391-1.88609-67.15974-15.80401 14.05833 1.0238 39.27757-17.85063 55.09958-30.91673 25.91679-13.86348 43.21411 19.73672 12.06016z" fill="url(#c)" fill-rule="evenodd" filter="url(#d)" opacity=".369963" transform="matrix(.2047878 0 0 .1565016 110.0369 -138.498)"/><path d="m45.903176-100.47925c-1.368 2.095095-.57577 3.849945 1.34209 5.111235 3.72012 2.44654 9.430932 2.59335 14.939422 1.67286-5.507981 1.5291-11.380722 1.68114-15.456512-.3927-2.55978-1.30246-3.4826-3.46107-.825-6.391395z" fill="url(#e)" fill-rule="evenodd" opacity=".080586"/><path d="m69.230637-100.34832c0 2.930205-4.813747 4.101165-10.744973 4.101165-5.931228 0-10.744978-1.17096-10.744978-4.101165 0-2.9302 4.81375-5.30834 10.744978-5.30834 5.931226 0 10.744973 2.37814 10.744973 5.30834z" fill="url(#f)"/><g transform="translate(-7.802324 -127.89517)"><path d="m1019.9616 690.43866a129.76901 57.072552 0 1 1 -259.53799 0 129.76901 57.072552 0 1 1 259.53799 0z" fill="url(#h)" filter="url(#i)" opacity=".417582" transform="matrix(.451764 0 0 .6906638 -336.80551 -392.56006)"/><path d="m65.393934 29.064409c-32.51393 0-58.9067298 17.970633-58.9067298 40.104894v13.123225c0 22.134342 26.3927498 40.104922 58.9067298 40.104922 32.51393 0 58.892176-17.97058 58.892176-40.104922v-13.123225c0-22.134268-26.378246-40.104894-58.892176-40.104894z" fill="url(#j)"/><path d="m1875.801 943.60344c-70.1157 0-127.0313 27.13748-127.0313 60.56246v19.8174c0 33.4251 56.9155 60.5625 127.0313 60.5625 70.1157 0 126.9999-27.1374 126.9999-60.5625v-19.8174c0-33.42499-56.8842-60.56246-126.9999-60.56246z" style="fill:none;stroke-width:2.392822;stroke-linecap:round;stroke-linejoin:round;stroke-dashoffset:1.0878;stroke:url(#l);filter:url(#m)" transform="matrix(.4637182 0 0 .6622072 -804.44921 -595.79655)"/><path d="m641.02222 589.16968a120.06116 40.020386 0 1 1 -240.12232 0 120.06116 40.020386 0 1 1 240.12232 0z" style="fill:#fff;stroke:#686868;stroke-width:.793639;stroke-linecap:round;stroke-linejoin:round;stroke-dashoffset:1.0878" transform="matrix(.4584727 0 0 .9334091 -173.45972 -481.69285)"/><path d="m65.380814 30.881618c-30.38472 0-55.03756 16.732458-55.03756 37.352648 0 2.643135.40325 5.230378 1.17376 7.71882 5.25003-16.916061 27.38284-29.633763 53.8638-29.633763 26.480906 0 48.628186 12.717708 53.878226 29.633763.77051-2.488442 1.1738-5.075685 1.1738-7.71882 0-20.620204-24.667354-37.352655-55.052026-37.352648z" fill="url(#n)"/><g transform="matrix(.9355441 0 0 .5848677 6.064664 43.203763)"><path d="m126.43752 59.005695a55.257881 55.257881 0 1 1 -110.515759 0 55.257881 55.257881 0 1 1 110.515759 0z" fill="url(#o)" opacity=".597069" transform="matrix(1.0428576 0 0 1.0428576 -11.167561 .775952)"/><path d="m46.410297 7.2359424c-19.90645 6.0607106-35.23142 22.6743806-39.4416603 43.3162846l1.64636 5.166162.72383-2.597274 1.3483103-2.497924h1.14961l.31224-.837373.31224-1.149613.11355-3.746887s.61937-1.456744 1.03607-1.873444c.0032-.0033.01097-.01085.01419-.01419.0031-.0034.0111-.01073.0142-.01419.38559-.445952.49674-1.532817.49674-1.532817l.62448-2.185684 1.7599-1.674745 1.05027.212891 1.46185-.525132 2.07214-.72383 1.26316 1.461853.62448.09935.62448-.936721 1.34831.936721.93672 1.036072.31224-1.036072.83737-.936721.4116-1.362504.31224-.936722 1.14961.212891.72383 2.285033-.93673 2.299226-.72382 1.972793 1.77409 2.710816.93673-3.221755-.42579-1.986985 3.3353-2.185685-.51094-1.348311s1.55126-.321606 2.07214-.425783c.01526-.0031.03876-.01019.05677-.01419.0013.000031.01275-.0001.0142 0 .01995-.0074.05134-.01832.07096-.02839.01955-.01058.05177-.0295.07096-.04258.42068-.298434.75767-1.18125.93672-1.986986.20835-.93758-.62447-2.086335-.62448-2.086334 0 0 1.65631-3.237084 1.47605-4.101706.00014-.0049-.00008-.02352 0-.02839-.0025-.005-.01163-.02349-.0142-.02839.00005-.0012-.00015-.01278 0-.01419-.02929-.06837-.06638-.127614-.09934-.170313-.005-.005-.0234-.02355-.02839-.02839-.0028-.0029-.01132-.01144-.01419-.01419-.01903-.01707-.04994-.04457-.07097-.05677-.0015.000091-.01291-.000029-.01419 0-.0049-.0025-.02335-.01158-.02838-.01419-.0013.000009-.01262-.000068-.01419 0-.0014.000073-.01293-.000008-.0142 0-.01003-.0033-.03242-.01151-.04258-.01419-.0014-.000135-.01132-.000029-.01419 0-.0016-.000062-.0129.000001-.0142 0-.0051.0027-.02354.01179-.02838.01419-.0016.000052-.01237.000061-.01419 0-.002-.000136-.01224.000096-.01419 0-.0018-.000007-.01256-.000135-.0142 0-.29459.07807-.67395.464248-1.13542.596095-.72923.208352-2.60635 1.144785-3.02305 1.248963-.41671.104176-2.71081.425782-2.71082.425782 0 0 .4113-.945803.72383-1.362504.31253-.416703 1.04515-.624197 1.46185-.936721.4167-.312528 1.14961-1.248963 1.14962-1.248963l1.34831-2.710816s1.88224-1.461281 2.61146-2.086335c.72923-.625054 2.18569.425785 2.18569.425783l1.34831.936721s-.09206 1.925717-.42578 2.412769c-.01699.02325-.04864.05169-.07096.07096-.0035.0028-.01093.01189-.0142.01419-.0049.0024-.02097.01035-.02838.01419-.0014.0015-.01297.01292-.0142.01419-.0027.0028-.01246.01265-.01419.01419-.0035.0033-.01067.01071-.01419.01419-.44966.466384-1.29154 2.654045-1.29154 2.654045s2.39828-1.149041 2.71082-1.774094c.31252-.625054 2.39857-1.774095 2.39857-1.774094l1.87344-.312241 1.03607.738023s.94581.09481 1.36251-.113542c.41669-.208351 2.71024-.93672 3.33529-.936721.12014 0 .2769.0332.46837.08516l2.63985-.624481-.08516-1.745709-2.08633.312241-1.05027.09935s-2.18511.21318-2.81016-.09935c-.62506-.312527-.93104-.425783-1.97279-.425783-.78133 0-1.0431.125907-1.12123.184506-.003.003-.01272.01268-.01419.01419-.0017.0017-.01128.01135-.0142.01419l-2.49792-.31224.72383-1.149613s2.29411-.09452 2.71082-.198699c.4167-.104175 2.91859-.208064 3.33529-.31224.39066-.09766.96588-.756877 1.03607-.837373l-1.87344-.212891-1.14962-.510939.73803-1.575396 2.90951-1.561203 1.77409-.936721s2.49736-.728371 3.12241-.936722c.62506-.208351 2.39858.113541 2.39858.113542 0 0 4.28052.515765 5.32228.41159 1.04176-.104176 1.5612-2.086335 1.5612-2.086335l-.83737-1.7740944-2.18568-1.2489624s-2.0903-.4070499-2.92371-.1986985c-.8334.2083515-4.05913.8231802-4.05913.8231797l-3.74688.8373725-3.12241-.099349-1.5754.099349-.72382-1.8166725c-.0013-.0001603-.013.00004-.0142 0zm27.83199 2.1289131-2.61147.099349-.82318.7380235-.52513.198698 1.14962 1.774095 1.7599-.09935 1.77409.624482 1.14962 1.248962.93672.936722.62448 1.036071.41159 1.461853.95091.113542 1.13542.09935.73802 1.149613c-.0093.0061-.03139.02101-.04257.02839-.03774.02577-.0987.06971-.15612.127735-.14689.152449-.32644.419242-.32644.780602 0 .625053.41159 1.561203.41159 1.561203l-.93672 1.03607.42579 1.248963.41158.525132-.93672.212891c-.06845.05962-.62616.566994-.72383 1.348312-.09115.729228-.11032.825218-.11354.837372l.52513 1.036071.83738.624481.31223.312241.93673.31224.82318.525132c0-.000001-1.1445.619655-1.56121.72383-.4167.104176-1.87344.113543-1.87344.113543l1.5612 1.972792 1.87345.936723v1.050263l-1.9728-.624481-1.34831.72383-.32643.624481s-.0025 1.355415-.25547 1.830866c-.0024.0049-.01177.02357-.01419.02839-.0075.01148-.02051.03259-.02839.04258-.0074.0076-.02423.02418-.02838.02839-.0028.0026-.01133.01176-.0142.01419-.0049.0025-.02341.01189-.02839.01419-.0046.0025-.02094.01063-.02838.01419-.0014-.000113-.01296.000041-.01419 0-.00068.000831-.01097.01102-.01419.01419-.43218.130914-1.54701 1.135421-1.54701 1.135421l-.83738 2.185683-.51094.312241-.31224 1.149613-.42578.723831-.72383.31224-.62448-1.13542-.62448-.624481s-.0083-.01551-.01419-.02839c-.01958-.04017-.06992-.121735-.15613-.184506-.0099-.0069-.0316-.02193-.04258-.02839-.07553-.04197-.18201-.07096-.31224-.07096-.41669 0-1.46185-.212891-1.46185-.212891l-.51094-.624482.31224-2.086334s-.60825-.679776-1.10703-.738024c-.0051-.000209-.02264-.000149-.02838 0-.0036.000073-.01123.000105-.0142 0-.02971-.000331-.07068.0093-.09935.01419-.52088.104178-2.61147 1.036072-2.61147 1.036072l-2.28503 2.185683c-.03556.05012-.3298.483521-.52513 1.362505-.20835.937584-1.46185 2.185684-1.46185 2.185684l-1.7741 1.036071-.62448 1.461853v2.185684l.21289.837373 1.24896.525132 1.03608-1.461854.52513.312241v1.348311l.62448 1.050264.52513.82318 1.34832-.312241 1.05026-.624481-.83737-1.348312.21289-2.398575.09935-1.660552 1.24895-1.362504.4116-1.561203.73802-.624481.52513.837372-.52513.72383-.83737 1.561203-.21289.837373.21289.411589.52513.936723 1.14961.31224v.525132l.82318.212891-.31224.936722-.31224.72383-1.03607-.198698-.73802 1.036071.11354 1.348312.09935.837372-1.03607.09935-1.56121-.09935-1.46185.09935-1.14961-1.036071-.62448-1.036071-.52514-.837372-.41159 1.149613.2129 1.13542v.837373l-1.36251.425782h-.82318l-.83737 1.660553-.93672.31224-1.24897 1.561203-1.14961.525132-1.14961.09935-1.77409-.525132-.41159.837373 2.08633.738023-.31224 1.348312v1.348312l-.09935 1.24896-.21289.837376-1.46185-1.248964-1.66055-.624481-1.56121-.312241-.21289.41159-.42579 1.887638-.19869.723828-.83737.723833v.624479l.52513.738022-.31224.624484v.411589l1.34831.312239.52513.723834 1.97279.52513h.62448l.93673-.723834.73802-.52513.52513-.723828v-.738027l.62448-.936718 1.03607-.411588 1.03607-.212897.11354-1.561198.82319-.212896 1.05026.638678 1.24896-.425782 1.24896-.312245.62448 1.050266 1.03608 1.135422 1.46185.936719c.06668.0025.61866.03314.99349.369013.01569.01447.04173.04114.05677.05677.07803.08361.14743.192601.1987.312245.29299.683651.31113 1.189192.31225 1.248958l-.19871 1.149615h-1.14961-1.3625l1.14961.936719.42578.624485.09935.936718.52513-1.149609.1987-.936725.93672-.411588.31224-.950918.11355-.823176.82318.09935-.31225-.936725-1.56119-1.036067-1.34832-1.561204-1.46185-1.575396.83737-.624481.93672.31224c0 .000005.42067.841627.83737 1.362507.4167.520875 1.66055 1.348307 1.66055 1.348307l.93673.425787.09935 1.135416.63867.624485.93672.738021v1.248964c0 .416706.10389.73291.31224 1.14961.19533.390653.75487.600132.82318.624485 0 0 .57992.186209.87996.07096.0075-.0037.02413-.01219.02838-.01419.0062-.0032.02126-.01051.02838-.01419.0025-.0025.0117-.01163.0142-.01419.0025-.0025.01168-.01164.01419-.01419.007-.0068.02147-.02137.02839-.02839.00085-.000943.01105-.01111.01419-.01419.0026-.0025.01165-.01168.01419-.01419.0025-.0046.01167-.02318.01419-.02839-.00002-.0013.00014-.01281 0-.01419.0026-.0049.0117-.02342.0142-.02839.10417-.416711.3077-.831973.09935-1.561203s-.2129-2.398573-.2129-2.398573l.93673-.624485 1.3625.113542.83737-1.674746-.42578-1.036067.31224-1.986987.42578-1.036072 1.34832-1.248962 1.66055.312241 1.3625-.624482s.92804-.07252 1.31993.170314c.01737.0113.04178.0299.05677.04258.0133.0119.04181.0404.05677.05677.0025.0049.01184.02342.01419.02839.0026.0025.01166.01173.01419.01419.20836.416699.51095 1.036071.51095 1.036071s.63355.217433 1.05026.425783c.4167.20835 1.13542.72383 1.13542.72383l.21289 1.561201-1.34831.525136-2.18568.31224c0-.000006-.94098-.09935-1.46186-.09935-.52087 0-1.67475.510937-1.67475.510937l-.41158.738021-.83738.723834-1.03607.312239-.83737.31224-.31224 1.036073.83737 1.575397.62448.936718 1.14962.510943 2.18568-.198703.72383-.425782 1.05027-.198697.31223-.113542.62448.738021v1.561203l-.62448.936725-.31223 1.248964-1.5754.312239h-1.24897l-1.87344.411588-2.18568-.09935-2.39857-.31224s-.91404-.254796-1.34832-.05677c-.01529.0074-.04148.01965-.05677.02839-.0025.0025-.01174.01164-.01419.01419-.01873.01659-.04118.03803-.05677.05677-.0025.0025-.01168.01171-.0142.01419-.0084.01192-.02119.02977-.02838.04258-.0029.0055-.01157.02273-.01419.02839-.0026.0025-.01162.01171-.01419.01419.00008.0049-.00017.02342 0 .02839-.0026.0049-.01168.02344-.0142.02839.00007.0014-.00002.01296 0 .01419-.10418.62505-.41159 1.561203-.41159 1.561203l-1.7741.198698-2.81016-1.248964-2.29922-1.036067-.82318-.425788.09934-2.07214-.31224-1.461855h-2.59727l-2.92371-.31224-2.39858.09935-1.24895.525136-2.39858-.411594-1.03607-.624479-.52514 1.248964s-1.13966.09423-1.66055.510937c-.52088.416706-2.81016 2.086334-2.81016 2.086334l.09935 1.362506-3.02306.09935-.72383 1.774094-3.02306 1.873443.51094 1.774094-.41159 2.285031-.72382 1.248964-.52514 2.398574v1.561203l1.77409 2.185688.83738 1.674746.1987.510937 3.64753 3.647537 1.46186.425782 1.46185.09935 1.87345.212891 1.46185.723833h2.38438l3.64754-.09935 1.5612 1.972792 1.87345.09935 1.57539.52513-.11354 2.185686-.72383 1.5612 1.24896.93673 1.46186 1.5754.93672 1.24895.82318 1.44766.52513 1.14962-1.34831 1.24896-.52514 1.7741.4116.62448 1.14961.72383 1.14961.62448.31224 1.36251.72384.93671 1.24895.2129 1.05027.72383.72383.62448 1.67474-.0994 2.59728-.83737h1.77409l.93672.31224 1.34832-1.24896 2.08633-.31224 1.5612-1.67475 1.98699-.93672.62448-1.66056 1.24896-.72382 1.14962-1.5754 2.81016-.72383.1987-1.87344.11354-2.08634-.31224-2.71081 2.39858-4.059134 1.97279-1.660558.93672-2.086334 2.49792-1.986985 1.46186-1.873443.31224-2.810161-.41159-1.774095c0-.000006-2.41593 1.64559-2.88113 2.143102-.0056.0057-.02263.02308-.02839.02839-.0017.0017-.01271.01253-.01419.01419-.0063.0094-.02115.03275-.02839.04257-.39411.446065-2.15729 1.532823-2.15729 1.532823l-1.7741-1.050267-3.64753-2.909516-2.07215-2.611464-1.46185-2.086334s-.42067-.207779-.83737-.624485c-.0031-.0031-.01106-.01086-.0142-.01419-.0014-.0014-.01295-.01296-.01418-.01419-.37317-.462715-.76245-2.272881-1.13543-2.710819-.0074-.0075-.02369-.02375-.02838-.02839-.0016-.0014-.01143-.01134-.0142-.01419-.0014-.0015-.01292-.01292-.01419-.01419-.0051-.0026-.0237-.01202-.02838-.01419-.41671-.20835-1.66055-1.348313-1.66055-1.348313l.82317-1.050267 1.24897.425788 1.14961 1.759901 1.14961 1.3625.41159 1.149615 1.77409.09935.4116 1.461855 1.14961.823176.72383.936724c0-.000005.79328.405313.93672.808989-.00002.0012.00013.01281 0 .01419.0026.0025.0116.01173.01419.01419.10418.416706.82319 1.561204.82319 1.561204l.21289 1.873443 2.59727-.198698 1.05026-1.674745 2.08634-1.660552 2.18568-2.398574 1.774093-2.710818.72384-2.086334.83737-2.69662-.83737-1.050266-1.561213.09935-.93672-.723828-.93672 1.348312-.73803 1.263152-1.87344-.113542-1.87344-1.774094-.52513-1.248959-.09935-1.348312 2.81016.411588.31225.738021 2.29922.198703.82318-1.135421 2.398583-.113543c0-.000005 1.69958-.496964 1.97279-.908337.004-.0074.0118-.0235.0142-.02839.20836-.416705 1.24896-1.972792 1.24896-1.972792l1.34831-.312239 1.36251 1.036073 1.03607-.411594-.0994 1.248964 1.03607-.411588.21289-1.774095 1.03607 2.398574 1.24897 1.873443 1.24896 1.660552s.10331 1.248679.93672 1.561203c.78132.292999 1.20013.676904 1.24896.723834l.42579-1.873449c.0279-.06066.18497-.378177.34062-.510937.009-.0062.0318-.02091.0426-.02839.001-.0013.0127-.01261.0142-.01419.001.000029.0127-.000123.0142 0 .001-.0013.0127-.01251.0142-.01419.001.000006.0127-.000064.0142 0 .001 0 .0127-.000041.0142 0 .002-.000134.0121.000017.0142 0 .001.000047.0112.000041.0142 0 .001-.000023.0127.000058.0142 0 .003.0026.0117.01156.0142.01419.001-.000041.0127.000128.0142 0 .002.0024.0118.01164.0142.01419.002.0017.0123.01239.0142.01419.002.0021.0123.01195.0142.01419.003.0025.0116.01167.0142.01419.002.0049.0118.02334.0142.02839.004.0064.0108.0213.0142.02838.002.0048.0117.02347.0142.02839.18231.45577.13064 1.312107.11355 1.518623l.51094-.993493.41159-1.461849-1.03608-.312245-.62447-.936719-.42579-1.873443-.0993-2.398579.52514-3.023052.31223-3.533998.41159-2.398575.93673 1.873444 1.24896 1.774094.11354.198699.1987-1.759902.42578-1.362504.0994-1.348312.62448-.525132.3974-.681252c-1.20899-11.266746-5.68037-21.569227-12.46145-29.918278l-.63867.908337-1.05026-1.972793-1.56121-1.050264-1.14961-.09935-.1987-1.674745-1.46185-1.348312-1.972803-.837372-.52513-.41159-1.67474-.525132-1.7599-.510939-1.67475-.525132-1.77409-1.362504-3.95978-1.036071-.72383-.837373-1.46186-1.248962-1.5612-.624481-1.34831-1.149613-2.18569-1.135421-2.08633-.425782-2.29922-.5109392zm-19.27376 16.9319555-3.42045.09935c-.02617.01162-.12774.05677-.12774.05677s-2.80447 2.081222-3.84623 2.497925c-1.04175.416702-2.08633 1.972791-2.08634 1.972793 0 0-2.08121.108717-2.49792.212891-.0049.0024-.02345.01154-.02839.01419-.0036.0018-.02081.01035-.02838.01419-.0014.0016-.01294.01291-.0142.01419-.01999.01442-.04942.03745-.07096.05677-.0035.0033-.01078.01075-.01419.01419-.4337.453746-1.17208 2.068867-1.71733 2.441153-.03644.02362-.07897.04525-.11354.05677-.0013-.000032-.01272.000119-.01419 0-.0074.0032-.01911.0089-.02839.01419-.01262.0075-.03196.02031-.04258.02839-.0012.0013-.01281.01274-.01419.01419-.52647.480696-.62448 2.952092-.62448 2.952092l1.03607 1.774094.31224-1.348311 2.29923-1.248962 2.49793-.738024s3.64241-.198698 4.05912-.198698c.0033 0 .01075-.000086.0142 0 .45748.02192 2.38438.72383 2.38438.72383l3.1224-2.710815s-1.04118-.93615-.62448-1.561203c.41671-.625056 2.08634-1.873445 2.08634-1.873444l.52513-.113542.09935-.312241zm-.09935 21.090432-1.3625.09935-.51094 1.986985.19869 1.149614-1.56119-.113542-1.66055.936721v1.362505l.62447.936722 1.44767.09935c0 .000004.20777-.832259.62447-1.248963s1.36251-.624481 1.36251-.624481l.52513.525132-.73802.41159-1.03607.936722-.21289 1.362504-.09935.41159 1.14961.09935.72383-.09935 1.87344.212892v-1.248963l.72384-.312241-.51095-.936721v-1.774095l-.93671-.624481.19869-1.461854.52513-.72383zm-20.01178 12.503816-1.03607.09935.93672 1.050263zm25.94435 4.059128-1.34831 1.873443.09935 1.986985.62448.723834.72383-.525136-.09935-1.873443zm35.21223 39.796483-1.46186 1.03607-2.08633.83737-.82318.62448-1.05027 2.08634-.82318 1.24896 1.24897 1.24896 2.07214-.82318 1.46185-2.9237 1.24897-2.29923z" fill="url(#p)" fill-rule="evenodd" opacity=".81685"/></g><path clip-path="url(#q)" d="m1215.4631 731.9377 44.2995 38.50467 1.5626.625c-.076 1.83391-.1516 3.53089-.1876 4.15625.0001 3.59232 6.0894 6.53125 13.625 6.53125 3.4791-.00001 6.6506-.63347 9.0626-1.65625l61.4062 23.10308 2.2812-.71875.125-.0312 1.125-.34375-63.9374-45.75z" fill="#282828" fill-rule="evenodd" filter="url(#r)" transform="matrix(.4637182 0 0 .6622072 -527.47641 -433.13826)"/><path d="m64.398654 67.482595c-3.49439 0-6.33091 1.931394-6.33091 4.310241.28815 1.095356.03932 5.890067 0 6.866293 0 2.378913 2.83652 4.31024 6.33091 4.31024 3.49444 0 6.33096-1.931327 6.33096-4.31024-.28551-1.089794-.03853-5.893577 0-6.866293 0-2.378847-2.83652-4.310241-6.33096-4.310241z" style="stroke:#686868;stroke-width:.059802;stroke-linecap:round;stroke-linejoin:round;stroke-dashoffset:1.0878;fill:url(#s)"/><g fill-rule="evenodd"><path d="m34.643344 49.462423 29.01772 18.112021-4.8542 7.902118z" fill="#a90000"/><path d="m34.605364 49.432848 29.0838 18.148615 35.865732 30.130426.521694-.227601-29.648996-30.295977z" fill="#a10000"/><path d="m63.660184 67.581463-4.85453 7.905098 39.633399 22.721984 1.057883-.475929z" fill="#c9c9c9"/><path d="m34.600544 49.435656 35.82538 17.744708-6.7394.403946z" fill="#e2e2e2"/></g><path d="m809.80384 598.3618c27.99778-13.2803 54.77539-19.72051 96.04893-18.44418 36.6943 1.13473 64.03626 9.50772 82.47679 22.62022" fill="none" filter="url(#u)" stroke="url(#t)" stroke-width="1.884893" transform="matrix(.4626741 0 0 .9742574 -349.21545 -532.41782)"/><path d="m8.4159042 86.695411 11.9552498 16.120569 42.2708 15.68604c18.29242-3.16974 37.399016-4.56262 50.994496-17.98303l6.46312-24.897007c-16.05495 33.138507-74.817236 45.387217-107.797386 4.610881z" fill="url(#v)"/><path d="m641.02222 589.16968a120.06116 40.020386 0 1 1 -240.12232 0 120.06116 40.020386 0 1 1 240.12232 0z" style="opacity:.29304;fill:none;stroke-width:1.577605;stroke-linecap:round;stroke-linejoin:round;stroke-dashoffset:1.0878;stroke:url(#w);filter:url(#y)" transform="matrix(.4906005 0 0 1.0019483 -190.3821 -520.93001)"/><path d="m11.771904 71.853352c11.27272-18.30303 32.33748-25.968804 56.33779-25.968804 21.701282 0 46.207666 14.696077 51.662206 33.241532" fill="none" filter="url(#A)" opacity=".666667" stroke="url(#z)" stroke-width="3"/><g transform="matrix(1.0120685 0 0 1.0039778 -.282116 9.941083)"><path d="m1301.5325 613.52991a87.69685 29.580287 0 1 1 -175.3937 0 87.69685 29.580287 0 1 1 175.3937 0z" fill="url(#B)" filter="url(#C)" opacity=".611722" transform="matrix(.6163728 0 0 1.2493287 -683.4479 -707.99956)"/><path d="m69.470785 24.545455c-7.665164.04638-13.973771 2.647966-16.28125 8.65625-.467743 1.217925-.769497 2.425344-.9375 3.65625l.5-.21875c22.320217-5.74113 40.258664-.186393 55.750005 5.84375-3.3736-4.147771-8.29275-7.980098-14.531255-11.3125-7.81249-4.173175-16.834836-6.671377-24.5-6.625zm-1.34375 12.40625c-5.274671-.05867-10.629438.425044-16 1.46875-.403948 10.412047 9.188868 20.91874 22.5625 28.0625 15.624979 8.34634 33.072545 8.45407 37.687505-3.5625 1.9398-5.050936 1.77283-10.007481-.25-14.65625-12.265616-6.24715-27.712397-11.131321-44.000005-11.3125z" fill="url(#D)" opacity=".703297"/><path d="m18.284855 50.033033c1.02852 6.513954.77449 13.454782 3.08556 19.541862 3.85343 10.14948 14.70674 14.58801 24.170194 17.48482 6.429677 1.96816 13.713586.68568 20.570379 1.02852-6.513954-2.35235-13.345882-4.0365-19.54186-7.05704-7.517609-3.66483-16.247073-7.13374-21.598903-12.99908-4.07626-4.46738-4.45691-11.999388-6.68537-17.999082z" fill="#fff" fill-rule="evenodd" filter="url(#E)"/><path d="m-75.59614 94.058876a8.9995405 16.456303 0 1 1 -17.999081 0 8.9995405 16.456303 0 1 1 17.999081 0z" fill="url(#F)" filter="url(#G)" opacity=".355311" transform="matrix(1.4054129 -.253308 .3680045 .9673857 130.33264 -67.015271)"/></g><path d="m65.358644 29.205625c-2.9494 0-5.84795.149908-8.68068.4375-2.17852.221172-4.31583.525877-6.4094.90625-1.53953.279713-3.05548.607392-4.54258.96875-10.99756 2.672365-20.48519 7.508202-27.34881 13.78125-.56304.514671-1.09079 1.060411-1.61791 1.59375-2.10104 2.127847-3.93355 4.389627-5.41375 6.78125-.0045.0073.0045.02397 0 .03125-1.8476296 2.990469-3.2115598 6.1602-3.9514298 9.46875-.00218.0097.00217.02157 0 .03125-.1454.653543-.27474 1.305247-.37336 1.96875-.00152.01017.00151.02108 0 .03125-.1973 1.337542-.28002 2.72072-.28002 4.09375 0 9.683755 5.0127098 18.566351 13.3788298 25.5 1.19516.990521 2.46932 1.93632 3.79585 2.84375s2.72115 1.776153 4.16922 2.593745c3.62016 2.044 7.58216 3.7787 11.85426 5.1875.0093.003.02179-.003.03112 0 1.70005.55986 3.4409 1.0836 5.22707 1.53125.0097.002.02137-.002.03112 0 .88848.2223 1.7989.43169 2.70688.625 1.83578.39085 3.72344.73269 5.63155 1 .95406.13365 1.89215.24225 2.86245.34375.01029.001.02082-.001.03111 0 2.90123.30244 5.87418.46875 8.89848.46875 4.04649 0 8.00653-.27788 11.82315-.8125 1.90831-.26731 3.79549-.60915 5.631554-1 7.344246-1.5634 14.05641-4.07336 19.850452-7.34375 1.44851-.817592 2.84224-1.686315 4.16922-2.593745 1.32699-.90743 2.60024-1.853228 3.79585-2.84375 4.18462-3.466826 7.52832-7.419874 9.83188-11.71875.65817-1.22825 1.22882-2.500246 1.71125-3.78125.24122-.640502.45795-1.285074.65338-1.9375.58632-1.957279.96797-3.95057 1.12009-6 .0507-.683143.0622-1.370803.0622-2.0625s-.0115-1.379396-.0622-2.0625c-.15212-2.049312-.53377-4.074395-1.12009-6.03125-.19543-.652285-.41216-1.297168-.65338-1.9375-.48243-1.280663-1.05308-2.522192-1.71125-3.75-.32489-.606093-.69193-1.22051-1.05786-1.8125-.005-.0073.005-.02397 0-.03125-1.48088-2.391623-3.31186-4.653403-5.41376-6.78125-.52711-.533339-1.05486-1.079079-1.6179-1.59375-2.24645-2.052359-4.79131-3.96571-7.56059-5.6875-.008-.0047-.0236.0047-.0311 0-2.77034-1.720692-5.777144-3.257046-8.991819-4.59375-.0088-.0037-.02227.0037-.03111 0-.797317-.331139-1.605237-.66327-2.426857-.96875-.009-.0033-.0221.0033-.03111 0-2.492993-.925726-5.084027-1.731776-7.778389-2.40625-1.79624-.44965-3.633681-.85792-5.507103-1.1875-1.87341-.32958-3.78415-.578461-5.72489-.78125-2.91111-.304184-5.89472-.46875-8.92959-.46875zm0 2.5c29.395242 0 53.266406 16.307295 53.266406 36.40625 0 20.09896-23.871212 36.406245-53.266406 36.406245-29.39524 0-53.2353-16.307289-53.2353-36.406245.00001-20.098957 23.84006-36.40625 53.2353-36.40625z" fill="url(#H)"/><path d="m65.632694 29.204636c-2.9494 0-5.85477.148418-8.6875.433151-2.17851.218972-4.31268.520648-6.40625.897239-1.53952.276933-3.04415.601354-4.53125.959119-10.99756 2.645799-20.48013 7.433558-27.34375 13.644241-.56304.509554-1.09788 1.049868-1.625 1.577906-2.05598 2.061528-3.84928 4.247446-5.3125 6.559135 9.69805-13.537627 33.73228-22.864157 57.44178-22.864157 23.762644 0 40.783066 9.370174 50.464476 22.956975-1.47291-2.341304-3.29438-4.566584-5.375-6.651953-.52713-.528038-1.03071-1.068351-1.59375-1.577906-2.24645-2.031956-4.79322-3.926284-7.5625-5.630956-.008-.0046-.0237.0046-.0312 0-2.77034-1.703586-5.785324-3.224665-9.000006-4.54808-.0088-.0036-.0224.0036-.03125 0-.79733-.327847-1.61588-.656676-2.4375-.959119-.009-.0033-.02224.0033-.03125 0-2.49299-.916523-5.08689-1.714559-7.78125-2.382328-1.79625-.445179-3.62658-.849391-5.5-1.175694s-3.77801-.57271-5.71875-.773483c-2.91112-.30116-5.90263-.46409-8.9375-.46409z" fill="url(#I)" filter="url(#J)"/><path d="m40.601444 54.392135 21.75 13.625-1.75 3.125z" fill="url(#K)" fill-rule="evenodd" filter="url(#L)"/><path d="m-104.17867 61.639979 23.517766 24.761932.371321 2.417893z" fill="url(#M)" fill-rule="evenodd" filter="url(#L)" transform="matrix(0 -1 -1 0 155.25578 -12.328534)"/><g fill="url(#N)"><path d="m-116.09375 15.0625c-20.61472-.151674-42.82552 8.214074-51.85721 25.070791 9.45699-13.787627 31.68324-23.864157 55.39274-23.864157 23.762644 0 40.541996 10.620174 49.741278 23.956975-9.654718-18.165563-32.859145-24.945939-53.276808-25.163609z" filter="url(#J)" transform="matrix(1.0370692 0 0 -1 185.02821 124.30575)"/><path d="m-116.09375 15.0625c-20.61472-.151674-42.82552 8.214074-51.85721 25.070791 9.45699-13.787627 31.68324-23.864157 55.39274-23.864157 23.762644 0 40.541996 10.620174 49.741278 23.956975-9.654718-18.165563-32.859145-24.945939-53.276808-25.163609z" filter="url(#J)" transform="matrix(1.0370692 0 0 -1 185.02821 124.30575)"/></g></g></g></svg>