<svg height="1024" viewBox="0 0 1024 1024" width="1024" xmlns="http://www.w3.org/2000/svg"><path d="m968.15785 614.85736c-14.00723 72.06167-125.45423 150.926-253.45124 166.21009-66.74492 7.96408-132.46061 15.28418-202.53534 12.06996-114.6007-5.2507-205.02858-27.35405-205.02858-27.35405 0 11.15622.68798 21.77859 2.06393 31.713 14.89886 113.09824 112.14599 119.87344 204.26354 123.03249 92.97617 3.18119 175.76474-22.92331 175.76474-22.92331l3.81965 84.05456s-65.03322 34.9216-180.88328 41.3448c-63.88292 3.5114-143.20409-1.6071-235.59134-26.06089-200.372339-53.03486-234.831802-266.62181-240.104465-483.34053-1.60712-64.34524-.616433-125.01943-.616433-175.76473 0-221.6061 145.196478-286.562278 145.196478-286.562278 73.2119-33.622885 198.83677-47.7622174 329.43709-48.8299549h3.20873c130.60032 1.0677375 256.30774 15.2070699 329.51414 48.8299549 0 0 145.19095 64.956178 145.19095 286.562278 0 0 1.82181 163.5022-20.24857 277.01861" fill="#3088d4"/><path d="m817.14319 355.03051v268.32806h-106.30643v-260.44108c0-54.90067-23.09956-82.76655-69.30419-82.76655-51.08651 0-76.69033 33.05598-76.69033 98.41944v142.55463h-105.67898v-142.55463c0-65.36346-25.60931-98.41944-76.69584-98.41944-46.20463 0-69.3042 27.86588-69.3042 82.76655v260.44108h-106.30641v-268.32806c0-54.84014 13.96319-98.41944 42.01071-130.66086 28.92261-32.24143 66.79995-48.76942 113.81915-48.76942 54.39983 0 95.59597 20.90904 122.83442 62.73262l26.4789 44.38837 26.48443-44.38837c27.23294-41.82358 68.42908-62.73262 122.83442-62.73262 47.01368 0 84.89103 16.52799 113.81915 48.76942 28.04199 32.24142 42.0052 75.82072 42.0052 130.66086" fill="#fff"/></svg>