<svg enable-background="new 0 0 1110.8 203.1" height="1110.6802" viewBox="0 0 1110.6801 1110.6801" width="1110.6802" xmlns="http://www.w3.org/2000/svg"><g transform="translate(-.099973 453.76407)"><path d="m111.1 155.6c7.1-27.5 13.8-53.6 20.5-79.7 6.1-23.7 12.2-47.4 18.1-71.1.8-3.3 2-4.9 5.9-4.9 19.8.2 39.7.1 59.5.1 1.5 0 2.9.2 4.7.3v198c-14.7 0-29.4 0-44.5 0 0-49.5 0-99.2 0-148.9-.2 0-.4-.1-.5-.1-1.6 6.9-3.1 13.8-5 20.7-11.6 41.8-23.2 83.7-35 125.4-.4 1.3-2.5 3.1-3.8 3.2-13.8.2-27.7.2-41.5 0-1.4 0-3.6-1.7-3.9-3-13.1-47.3-26-94.6-39-141.9-.4-1.4-.8-2.8-1.5-5.2v150c-14.9 0-29.5 0-44.6 0-.1-1.8-.3-3.5-.3-5.3 0-62.5 0-125-.1-187.4 0-4.5 1-6 5.8-5.9 19.7.3 39.3.3 59 0 4.7-.1 6.6 1.2 7.7 5.8 12.2 48.2 24.6 96.4 37 144.5.2 1.4.6 2.7 1.5 5.4z"/><path d="m831.9 198.7c-15.3 0-29.7 0-44.8 0 0-2.1 0-4.1 0-6-.2-29.3-.2-58.6-.6-88-.1-5.7-1.2-11.6-2.9-17.1-3-9.7-10.3-14.5-20.7-14.9-10.2-.4-17.3 4-21.5 13.1-5.2 11.2-5.6 23.2-5.7 35.2-.2 24 0 48 0 72v5.7c-15.1 0-29.7 0-44.7 0 0-50.7 0-101.6 0-152.8h44.4v21.6c.4.2.9.3 1.3.5 2.5-4.1 4.8-8.5 7.7-12.3 2.3-3.1 5.1-6.2 8.4-8 18.1-10 47.4-7.6 62.7 5.6 5.3 4.6 9 10.9 13.8 16.7 2.2-2.9 5.3-6.3 7.6-10.3 6.2-10.5 15.7-15.3 27.3-17.1 13.6-2.1 27-1.5 39.4 4.9 15.1 7.7 23 20.6 23.9 37.2s.9 33.3 1 49.9c.1 20.8 0 41.7 0 62.5 0 .3-.1.6-.3 1.4-14.6 0-29.3 0-44.8 0 0-1.9 0-3.8 0-5.7-.3-30.3-.4-60.6-.9-90.9-.1-4.7-1-9.6-2.5-14.2-3.1-9.6-10.1-14.5-20.2-15-10.3-.5-17.9 3.9-22.1 13-5.4 11.5-5.7 23.9-5.8 36.2-.2 23.7-.1 47.3-.1 71 .1 1.7.1 3.5.1 5.8z"/><path d="m383.7 198.6c-13.7 0-27.9 0-42.5 0-1-6.9-2-13.6-3-20.3-.3-.1-.6-.2-.9-.3-1.3 3.1-2.9 6.1-3.9 9.3-1.3 4.1-3.9 6.7-7.8 8.4-18.1 8-36.5 10.1-55.2 2.5-33.6-13.6-34.2-58.2-8.8-76.5 14.4-10.4 31-14.2 48.3-15.7 8.9-.8 17.9-.9 26.9-1.3 3.6-16.2-2.2-28.6-14.7-31.5-15.9-3.6-25.1 3.2-30.2 22.9-.9.1-1.8.3-2.8.3-13 0-26 0-39.5 0-.5-9 1.9-17 6.1-24.5 8.6-15.4 22.5-23.7 39.1-27.7 17.2-4.1 34.4-3.7 51.4 1 22.1 6.1 34.2 21.9 35.2 45.9.6 14.5.6 29 .9 43.5.5 21.1 1 42.4 1.4 64zm-46.4-66.7c-3.3-.2-5.9-.6-8.6-.5-10.3.1-20.7.6-29.7 6.5-11.9 7.7-11.9 25.3 0 31.4 12.1 6.1 28.1 1.1 34.6-10.8 4.5-8.2 4-17.2 3.7-26.6z"/><path d="m508.6 121.8c-.1-23.9 6.4-45.4 25-61.7 16.3-14.2 36-18.8 57.1-18.5 17.2.2 33.4 3.9 47.7 13.9 20.2 14.1 29.3 34.4 31.1 58.3 1.4 17.5-.9 34.6-9.3 50.4-10.3 19.2-26.4 30.9-47.4 36-20 4.8-39.8 4.2-58.9-3.6-28.9-11.9-42.3-35-45.3-65.2-.3-3.3 0-6.5 0-9.6zm44.5-.5c2.1 10.1 3.1 19.7 6.2 28.7 4.2 12.6 13.3 20.7 27.1 21.7 13.9 1 24.6-4.9 30.2-17.6 9.4-21.1 9.4-42.7.2-63.8-5.3-12.1-15.2-18-28.6-17.8-13.7.3-23.4 7.3-28.1 19.5-3.6 9.3-4.8 19.6-7 29.3z"/><path d="m949.5 122c-.1-23.9 6.3-45.5 24.9-61.8 16.3-14.3 35.9-18.9 57-18.7 17.2.2 33.4 3.8 47.7 13.8 20.2 14 29.4 34.3 31.3 58.2 1.4 17.9-.9 35.2-9.7 51.3-10.3 18.8-26.2 30.2-46.8 35.2-19.9 4.8-39.8 4.3-58.9-3.4-29.2-11.9-42.6-35.2-45.5-65.5-.2-3.1 0-6.1 0-9.1zm116 .3c-2.1-9.9-3.1-19.4-6.1-28.3-4-12-12.4-20-25.7-21.3-14-1.4-25.2 3.8-31.2 16.6-10 21.3-9.8 43.3-.4 64.7 5.5 12.4 16 18.4 29.7 17.7 13.5-.6 22.7-8.1 27.1-20.2 3.3-9.4 4.5-19.6 6.6-29.2z"/><path d="m467.4 46.6h32.6v28.4c-10.6 0-21.1 0-32 0-.2 2.1-.4 3.5-.4 5v67c0 4 .4 8 .9 11.9 1.1 7.3 4.5 11 11.8 12.1 5.4.8 10.9.8 17 1.3 0 8.5.1 17.1-.1 25.7 0 .9-1.4 2.4-2.2 2.5-16.2 2-32.5 3.8-48.6-.5-13.6-3.6-21.3-12.5-22.7-26.5-.8-8.1-1.1-16.3-1.1-24.4-.2-24-.1-48-.1-71.9 0-.3-.1-.6-.3-1.6-7.2 0-14.6 0-22.4 0 0-9.8 0-19 0-28.8h22.8c0-13.1 0-25.7 0-38.5h44.9c-.1 12.4-.1 25-.1 38.3z"/><path d="m337.3 131.9c.3 9.4.8 18.3-3.7 26.6-6.5 11.9-22.5 16.9-34.6 10.8-11.9-6.1-11.9-23.7 0-31.4 9.1-5.9 19.4-6.4 29.7-6.5 2.7 0 5.3.3 8.6.5z" fill="#fff"/></g></svg>