<svg height="553.24854" width="553.24854" xmlns="http://www.w3.org/2000/svg"><path d="m367.17496 248.96967c-14.29997-.25966-24.30551 9.34241-26.50888 22.91161-2.4313 14.97291 6.8419 28.27685 20.6875 30.5 13.84559 2.22316 27.00531-7.50109 29.46875-22.46875 2.41774-14.68996-7.14681-30.64325-23.64737-30.94286zm-1.10263 8.03661c11.82552.0748 16.8356 12.60864 15.5625 21.78125-1.4685 10.58046-9.88714 17.25696-18.65625 15.6875-8.7691-1.56946-14.66487-10.77344-13.125-21.34375 1.3955-9.57934 8.39284-16.17451 16.21875-16.125zm130.09735-24.04343c0 3.62036-2.93488 6.55525-6.55524 6.55525s-6.55524-2.93489-6.55524-6.55525 2.93488-6.55524 6.55524-6.55524 6.55524 2.93488 6.55524 6.55524zm-11.15801 16.87173v51.92717h9.20553v-51.92717zm-280.41892.00006v51.92717h9.20553v-51.92717zm11.15802-16.87173c0 3.62036-2.93488 6.55525-6.55524 6.55525-3.62037 0-6.55525-2.93489-6.55525-6.55525s2.93488-6.55524 6.55525-6.55524c3.62036 0 6.55524 2.93488 6.55524 6.55524zm91.82766 15.94962c-17.68301 0-26.96853 15.66588-26.96875 26.8125-.00032 16.07708 10.57093 26.13091 23.6875 26.875 4.79063.27178 11.67595-.19435 17.96875-6.34375.25 15.44904-3.39617 22.87085-13.875 23.25-7.92125.28661-13.39214-3.93545-15.75595-10.70298h-7.46875c1.52404 7.39528 6.81992 18.97887 23.75595 18.64048 16.96269-.33892 22.5625-13.84938 22.5625-30.6875v-29.5625c-.0225-6.25597.90001-12.00727 2.71875-17.34375h-7.4375c-.95827 2.12785-1.63064 4.94081-2.27681 7.63925-3.53047-5.63263-9.91399-8.57675-16.91069-8.57675zm15.09375 27.75c0 9.35634-7.1389 18.15625-17.21875 18.15625-10.36378 0-15.59375-9.243-15.59375-18.28125 0-7.95083 4.08876-18.88021 16.15625-19.65625 7.84943-.50479 16.39174 7.25265 16.65625 19.78125zm-143.1507-50.84375v29.03125c-3.26199-4.21342-10.81819-6.62398-16.34375-6.3125-17.88151 1.00802-25.3123 17.2168-25.3125 27.25-.00032 16.07708 10.47719 26.7559 23.59375 27.5 5.19493.29471 13.81969-1.57948 19.625-9.1875.60295 2.26134 1.86305 5.37114 3.15625 7.65625h7.4375c-2.12044-5.15404-2.9375-10.37795-2.9375-18.53125v-57.40625zm-16.34375 30.875c12.02937-.0869 16.24638 9.43483 16.65625 19.59375 0 11.03464-8.39635 19.0625-17.21875 19.0625-9.45765 0-15.76506-9.58978-15.53125-18.625.20843-8.0541 4.61687-19.94837 16.09375-20.03125zm-54.5723-7.71875c-14.699162 0-25.740332 13.03618-25.750002 27.4375-.01 14.78695 10.244 26.125 23.656252 26.125 13.17686 0 17.98713-4.04194 21.40625-7.1875l-4.3125-5.0625c-3.0707 2.07296-7.16015 4.5625-15.96875 4.5625-7.45652 0-14.613372-5.22342-15.562502-14.375 12.173492 2.42928 34.340762 3.97324 38.343752-8.3125 4.15154-12.74162-9.23233-23.1875-21.8125-23.1875zm-.1875 7.875c7.44103-.28295 15.86681 7.08099 13.34375 12.5625-1.07884 2.34384-4.36121 3.84759-11.0625 4.1875-4.72973.2399-11.675452.0602-18.531252-1.53125 1.38994-7.13675 6.98538-14.86646 16.250002-15.21875zm138.94915-7.84375c-6.22358 0-12.35769 2.10385-17.4375 5.78125l3.75 5.65625c4.03537-2.17319 9.28716-3.79268 14.34375-3.46875 6.55828.42013 14.7598 2.73287 14.7598 14.233-1.85084-1.38482-9.08908-2.44485-13.54105-2.57675-13.63282-.40393-22.07092 5.70413-22.86428 15.3125-1.14325 13.84598 10.26769 18.625 20.33303 18.625 7.39807.00052 15.35814-5.72151 17-8.4375.43984 2.49906 2.01961 5.57335 3.125 7.625h7.46875c-2.12043-5.15404-2.96875-10.37795-2.96875-18.53125v-9.84375c0-24.39387-18.81089-24.375-23.96875-24.375zm.78125 27.4375c8.05656-.0156 14.8125 1.66674 14.8125 4.01961 0 6.72106-7.55371 13.8524-16.4375 14.23039-4.54841.19353-11.57496-2.09719-11.48928-9.59375.0808-7.06964 7.87645-8.64609 13.11428-8.65625zm-223.804582-27.53125c-7.78959 0-12.57316 3.37364-14.5312504 6.625-.75834-1.89688-1.49654-3.84633-2.375-5.6875h-7.43750002c2.20887002 5.93379 2.73712002 12.19296 2.71875002 17.3125v34.59375h9.2187504v-34.78125c0-6.65558 6.44423-10.26976 12.4375-10.40625 6.57556-.14975 9.05752 3.56709 9.125 8.90625v36.28125h9.1875v-34.78125c0-6.65558 6.44424-10.26976 12.4375-10.40625 6.57556-.14975 9.18251 3.56709 9.25 8.90625v36.28125h9.21875v-36.28125c0-11.16352-8.04836-16.5625-18.5-16.5625-7.68395 0-13.41885 3.49982-15.34375 6.53125-3.21828-4.38545-8.81153-6.53125-15.40625-6.53125zm435.586752-23.11502v60.98954c0 4.50655 1.82444 11.36243 4.13429 14.95446h7.46542c-1.71595-4.95183-2.38614-11.95254-2.38614-18.52179v-57.42221zm-59.85447.0213v57.40625c0 8.48573-.72207 13.98198-2.5625 18.53125h7.46875c.49268-1.18272 1.50645-4.57275 2.125-6.375 3.2358 3.63861 9.91843 7.15293 16.6875 7.28125 17.0179 0 26.83165-13.62855 27.09375-25.84375.32424-15.11836-9.23098-28.09919-25.40625-27.96875-7.10965.0573-12.81683 3.2018-16.1875 7.1875v-30.21875zm25.125 30.96875c.34959-.0146.70152-.008 1.0625 0 6.22899.13299 15.65387 5.56214 15.4375 19.65625-.16934 11.02718-8.18402 18.37679-16.84375 18.34375-11.39711-.0435-15.84382-8.59471-15.84375-18.8125 0-7.75719 5.35029-18.73358 16.1875-19.1875zm107.7562-7.80926c-7.78958 0-13.83625 3.29749-15.79433 6.54885-.67753-1.63171-1.5038-3.80006-2.38135-5.68127h-7.4404c2.20887 5.93379 2.75814 12.20005 2.73977 17.31959v34.58661h9.20554v-34.77561c0-6.65558 7.70716-9.7658 13.70041-9.90229 6.57556-.14975 10.98867 3.05115 11.05615 8.39031v36.28759h9.20552v-36.28759c0-11.16352-9.83967-16.48619-20.29131-16.48619z"/></svg>