<svg height="1280" viewBox="0 0 1280 1280" width="1280" xmlns="http://www.w3.org/2000/svg"><path d="m0 0h1280v1280h-1280zm305.454476 428.082907v380.061923c2.338813 13.710251-1.983135 27.715361-11.641936 37.725263l-90.325361 109.563786v14.44797h256.122579v-14.44797l-90.325361-109.563786c-9.729641-9.993334-14.319209-23.906153-12.444827-37.725263v-328.691356l224.809787 490.428375h26.093993l193.095549-490.428375v390.897906c0 10.434645 0 12.441304-6.824579 19.26396l-69.450168 67.423869v14.44797h337.214678v-14.44797l-67.041488-65.818539c-5.918149-4.511159-8.853852-11.925563-7.627474-19.26396v-483.605725c-1.226378-7.338399 1.709325-14.752805 7.627474-19.263962l68.647278-65.818538v-14.447972h-237.656062l-169.410236 422.603172-192.694103-422.603172h-249.297996v14.447972l80.28921 96.721144c7.882044 7.1044 11.9074 17.537557 10.839043 28.093278z"/></svg>