<svg height="48.524281mm" viewBox="0 0 171.93643 171.93642" width="48.524281mm" xmlns="http://www.w3.org/2000/svg"><g transform="translate(0 -858.19599)"><path d="m5.9623438 920.22007h160.0117462c3.30314 0 5.96234 2.6592 5.96234 5.96234v35.96354c0 3.3032-2.6592 5.9624-5.96234 5.9624h-160.0117462c-3.3031381 0-5.96234324-2.6592-5.96234324-5.9624v-35.96354c0-3.30314 2.65920514-5.96234 5.96234324-5.96234z" fill="#ff8000"/><g fill="#fff" transform="translate(0 -62.023955)"><path d="m15.455532 995.20526h7.506104l3.046875 12.58424 7.998046-12.58424h7.807618l-4.61792 23.69264h-5.792237l3.380127-17.4878-8.220214 12.9333h-3.284913l-3.269043-12.9333-3.380127 17.4878h-5.792236z"/><path d="m60.057739 1010.6777-.190429.9045h-13.29834q0 .095-.01587.2857-.01587.1745-.01587.2697 0 1.7298 1.031495 2.5867 1.047363.8569 3.12622.8569 1.793213 0 3.776856-.5395 1.999511-.5396 4.189453-1.6028l-.872803 4.4116q-2.078857.7617-4.141846 1.1267-2.047119.3809-4.173584.3809-4.157714 0-6.427001-1.9202-2.253418-1.9201-2.253418-5.4272 0-2.0313.714111-3.9356.72998-1.9201 2.110596-3.507 1.634521-1.9043 3.903808-2.8882 2.285156-.9839 5.062256-.9839 3.602295 0 5.712891 1.9201 2.126464 1.9202 2.126464 5.1734 0 .6348-.09521 1.3489-.07935.6982-.269776 1.5393zm-5.363769-2.6026q.04761-.2063.06348-.4126.03174-.2221.03174-.4284 0-1.2696-.761719-2.0154-.761719-.7459-2.062988-.7459-1.66626 0-2.840577.9204-1.158447.9046-1.777343 2.6819z"/><path d="m72.16021 996.07806-.968018 5.04644h5.808106l-.809327 4.0625h-5.808105l-1.459961 7.5219q-.06348.2539-.09521.4285-.01587.1746-.01587.3332 0 .73.476074 1.0474.491944.3174 1.634522.3174h2.935791l-.809326 4.0625h-4.776616q-2.570801 0-3.919678-1.0791-1.348876-1.0791-1.348876-3.1104 0-.4443.04761-.9521.04761-.5078.142822-1.0315l1.459961-7.5378h-2.792969l.777588-4.0625h2.824707l.983887-5.04644z"/><path d="m86.712215 1010.8998q-2.126464 0-3.221435.6665-1.079102.6507-1.079102 1.9361 0 .968.634766 1.5234.650635.5554 1.777344.5554 1.745605 0 2.919922-1.0473 1.174316-1.0633 1.571044-2.9834l.126954-.6507zm8.87085-2.1423-1.983643 10.1404h-5.681152l.476074-2.6343q-1.396484 1.5869-2.95166 2.3486-1.555176.7459-3.380127.7459-2.523193 0-4.014892-1.3013-1.47583-1.3171-1.47583-3.5388 0-3.396 2.618408-5.1892 2.634277-1.8091 7.585449-1.8091h3.348389l.06348-.4443q.04761-.2222.04761-.3174.01587-.095.01587-.1746 0-1.0473-.999756-1.571-.983887-.5396-2.935791-.5396-1.761475 0-3.411865.365-1.650391.365-3.189698 1.095l.856934-4.3323q1.777344-.4443 3.634033-.6665 1.872559-.238 3.872071-.238 3.951416 0 5.871582 1.3647 1.920166 1.3489 1.920166 4.126 0 .5396-.07935 1.1902-.06348.6348-.206299 1.3806z"/><path d="m120.11676 1017.1364q-2.3169 1.1267-4.80835 1.6821-2.49146.5396-5.33203.5396-5.04639 0-7.93457-2.5549-2.888188-2.5708-2.888188-6.9983 0-2.8723.904538-5.3797.90454-2.5232 2.69776-4.60202 2.18994-2.53906 5.15747-3.79272 2.9834-1.25367 6.80786-1.25367 2.12646 0 4.28467.44434 2.1582.44434 4.25293 1.31714l-.93628 4.90353q-1.93604-1.1267-3.79273-1.6821-1.84082-.55542-3.71338-.55542-4.09423 0-6.66504 2.72952-2.5708 2.7295-2.5708 7.0141 0 2.8406 1.4917 4.4117 1.50757 1.571 4.23706 1.571.88868 0 1.77735-.1111.88867-.1269 1.79321-.3808l.90454-4.6021h-3.72925l.77759-4.0942h9.48975z"/><path d="m143.04891 1010.6777-.19043.9045h-13.29834q0 .095-.0159.2857-.0159.1745-.0159.2697 0 1.7298 1.03149 2.5867 1.04737.8569 3.12623.8569 1.79321 0 3.77685-.5395 1.99951-.5396 4.18945-1.6028l-.8728 4.4116q-2.07886.7617-4.14184 1.1267-2.04712.3809-4.17359.3809-4.15771 0-6.427-1.9202-2.25342-1.9201-2.25342-5.4272 0-2.0313.71411-3.9356.72998-1.9201 2.1106-3.507 1.63452-1.9043 3.90381-2.8882 2.28515-.9839 5.06225-.9839 3.6023 0 5.71289 1.9201 2.12647 1.9202 2.12647 5.1734 0 .6348-.0952 1.3489-.0793.6982-.26977 1.5393zm-5.36377-2.6026q.0476-.2063.0635-.4126.0317-.2221.0317-.4284 0-1.2696-.76172-2.0154-.76171-.7459-2.06298-.7459-1.66626 0-2.84058.9204-1.15845.9046-1.77734 2.6819z"/><path d="m160.39604 1005.9645q-.58716-.3332-1.30127-.5078-.71411-.1745-1.53931-.1745-2.17407 0-3.61816 1.3964-1.42822 1.3965-1.93604 4.0308l-1.61865 8.1885h-5.69702l3.45947-17.7734h5.71289l-.61889 3.0468q1.1267-1.6821 2.80883-2.5708 1.698-.9045 3.76099-.9045.30151 0 .68237.032.38086.032.90454.095z"/></g></g></svg>