<svg height="201.59999" viewBox="0 0 201.59999 201.59999" width="201.59999" xmlns="http://www.w3.org/2000/svg" xmlns:xlink="http://www.w3.org/1999/xlink"><clipPath id="a"><path clip-rule="evenodd" d="m2947.21 3902.29-71.79 59.94-1.33 1.11v413.59c0 10.86-1.55 19.63-5.19 25.59-3.32 5.41-8.62 8.54-16.35 8.81l-1.11.02c-23.46 0-47.29-16.17-64.85-43.4-16.47-25.56-27.38-60.82-27.38-101.7v-363.34-3.7h-3.69-263.7l-3.7 3v.08l-71.79 59.94-1.33 1.11v1.71 750.95h3.7 1.32 267.41l68.27-57.02c23.38 16.84 47.18 30.9 72.82 40.83 26.6 10.31 55.16 16.19 87.27 16.19 62.74 0 110.6-10.88 152.92-40.32 24.34-16.91 46.76-39.95 69.09-70.54 23.71 26.27 49.46 51.99 82.57 72.1 38.2 23.19 86.02 38.76 151.38 38.76 54.31 0 106.44-22.49 150.26-54.2 54.79-39.64 96.73-93.84 113.73-136.48 22.65-41.34 34.05-86.28 35.5-124.75.1-2.96.16-5.76.16-8.32v-489.34-3.7h-3.69-260.01-3.7l-3.69 3v.08l-71.79 59.94-1.34 1.11v1.71 411.88c0 10.86-1.55 19.63-5.19 25.59-3.32 5.41-8.61 8.56-16.35 8.82l-1.11.01c-21.55 0-45.14-13.37-62.18-41.56-14.36-23.76-24.04-57.99-24.04-103.54v-363.34-3.7h-3.69-260.02-3.69l-3.7 3z"/></clipPath><linearGradient id="b"><stop offset="0" stop-color="#1d4086"/><stop offset=".273438" stop-color="#3b57aa"/><stop offset="1" stop-color="#80a8ff"/></linearGradient><linearGradient id="c" gradientUnits="userSpaceOnUse" spreadMethod="pad" x1="3043.3499" x2="3043.3499" xlink:href="#b" y1="3999.14" y2="4923.0499"/><clipPath id="d"><path clip-rule="evenodd" d="m3517.67 4655.83c-42.68 30.88-93.33 52.78-145.92 52.78-63.88 0-110.46-15.12-147.57-37.66-36.04-21.88-63.42-50.93-89.11-79.95 10.06-8.89 19.47-18.67 28.05-29.3 7.77-9.63 14.89-19.98 21.22-31.04 22.38 34.99 55.08 63.61 90.97 84.57 42.24 24.66 89.02 38.79 128.63 40.27 53.73 2.02 98.62-9.95 135.32-30.53 19.45-10.92 36.6-24.25 51.54-39.22-19.61 24.79-44.58 49.42-73.13 70.08z"/></clipPath><linearGradient id="e"><stop offset="0" stop-color="#1d4086"/><stop offset=".367188" stop-color="#3b57aa"/><stop offset="1" stop-color="#80a8ff"/></linearGradient><linearGradient id="f" gradientUnits="userSpaceOnUse" spreadMethod="pad" x1="2984.79" x2="3561.6299" xlink:href="#e" y1="4815.7401" y2="4801.1499"/><clipPath id="g"><path clip-rule="evenodd" d="m2493.14 4654.87h255.98l-64.28 53.74h-255.98z"/></clipPath><linearGradient id="h"><stop offset="0" stop-color="#1d4086"/><stop offset=".320313" stop-color="#3b57aa"/><stop offset="1" stop-color="#80a8ff"/></linearGradient><linearGradient id="i" gradientUnits="userSpaceOnUse" spreadMethod="pad" x1="2589.52" x2="2589.2401" xlink:href="#h" y1="4822.2299" y2="4655.2701"/><clipPath id="j"><path clip-rule="evenodd" d="m2488.12 3911.82v737.64l-65.73 54.95v-737.64z"/></clipPath><linearGradient id="k" gradientUnits="userSpaceOnUse" spreadMethod="pad" x1="2455.04" x2="2455.5299" xlink:href="#b" y1="4223.5501" y2="4834.1599"/><clipPath id="l"><path clip-rule="evenodd" d="m2947.21 3911.82v369.89c0 35.22-7.71 70.75-26.14 95.68-11.43 15.49-27.1 26.9-47.71 31.59.64-.82 1.25-1.7 1.82-2.62 4.42-7.21 6.3-17.27 6.3-29.43v-410.16z"/></clipPath><linearGradient id="m" gradientUnits="userSpaceOnUse" spreadMethod="pad" x1="2910.52" x2="2910.1999" xlink:href="#h" y1="4249.78" y2="3593.8599"/><clipPath id="n"><path clip-rule="evenodd" d="m3400.31 3911.82v369.89c0 37.25-7.49 72.08-25.33 96.22-11.53 15.59-27.49 26.78-48.68 31.25.71-.88 1.37-1.82 1.98-2.82 4.42-7.21 6.29-17.27 6.29-29.43v-410.16z"/></clipPath><linearGradient id="o" gradientUnits="userSpaceOnUse" spreadMethod="pad" x1="3363.54" x2="3363.2199" xlink:href="#h" y1="4249.92" y2="3593.7299"/><clipPath id="p"><path clip-rule="evenodd" d="m3145.27 4581.47-.07.07-.68.68-.31.3-.45.44-.54.52-.23.23-.76.74h-.01l-.76.72-.24.23-.53.5-.48.45-.3.28-.71.66-.06.06-.79.72-.17.16-.61.55-.41.38-.37.33-.66.59-.13.12-.8.71-.11.09-.68.6-.35.31-.44.39-.6.52-.21.17-.8.69-.04.03-.76.66-.29.24-.52.43-.54.45-.27.23-.79.64-.03.03-1.03.85-.6.49-.47.38-.35.28-.72.58-.1.08-1.66 1.31-.4.31-.44.33-.65.52-.17.13-.84.64-.08.05-.76.59-.34.25-.5.37-.59.45-.25.19-.86.62-.84.62-.27.2-.58.42-.53.38-.33.24-.78.56-.93.65-.2.14-.66.47-.46.31-.41.29-.72.49-.14.1-.87.59-.12.08-.75.51-.39.26-.48.33-.65.43-.22.15-.89.58-.04.02-.84.55-.3.2-.58.37-.57.37-.31.19-.85.54-.04.02-.88.56-.24.15-.66.4-.5.32-.39.24-.77.47-.12.07-.9.55-.15.09-.74.44-.44.26-.46.28-.71.42-.2.11-.9.54-.08.03-.83.49-.36.2-.55.32-.63.35-.28.16-.91.52-1.8.98-1.78.98-1.8.97-1.81.94-1.82.93-1.82.93-1.84.89-1.84.9-1.84.87-1.84.86-1.86.85-1.86.83-1.87.81-1.87.81-1.88.79-1.89.77-1.89.76-1.9.74-1.91.73-1.9.71-1.92.7-1.91.69-1.92.67-1.93.66-1.93.64-1.94.63-1.94.61-1.95.59-1.94.59-1.96.56-1.96.56-1.95.53h-.01l-1.96.53-1.97.5-1.97.5-1.98.47-1.97.47h-.01l-1.98.44-1.99.44-1.98.42-1.99.39-2 .4-1.99.37-2 .36h-.01l-1.99.34-2.01.33-2 .31-2.01.3-2.01.28-2 .27h-.01l-2.01.26-2.01.24-2.01.22h-.01l-2.01.21h-.01l-2.01.18-2.02.19h-.01l-2.01.16-2.02.14-2.02.14-2.02.11-2.02.1-2.02.09h-.01l-2.02.07-2.02.06-2.02.04-2.03.02-2.02.01-2.03-.01-2.02-.02-2.02-.03v-.01l-2.02-.05-2.03-.06v-.01l-2.01-.08-2.02-.1-2.02-.11-2.02-.13-2.01-.14v-.01l-2.01-.15v-.01l-2.02-.17-2-.19-.01-.01-2-.19-2.01-.23v-.01l-2.01-.23-2-.25v-.01l-2-.26v-.01l-1.99-.27-2-.3-1.99-.33h-.01l-1.98-.32-1.98-.35h-.01l-1.98-.36-1.98-.38-1.97-.4h-.01l-1.97-.4v-.01l-1.97-.42v-.01l-1.96-.44h-.01l-1.96-.45-1.95-.47h-.01l-1.95-.49-1.95-.51-1.95-.52-1.94-.54-1.93-.55h-.01l-1.93-.57-1.93-.58-1.92-.6-1.92-.61v-.01l-1.91-.63-1.91-.64-1.9-.67-1.9-.67v-.01l-1.89-.69-1.89-.71-1.88-.72v-.01l-1.87-.74-1.87-.76v-.01l-1.86-.76-1.86-.8-1.85-.8-1.85-.83-1.83-.83v-.01l-1.83-.85v-.01l-1.82-.86v-.01l-1.82-.88-1.81-.9v-.01l-1.8-.92-1.8-.93v-.01l-1.78-.94v-.01l-1.54-.83-1.52-.84-1.52-.85v-.01l-1.51-.86v-.01l-1.51-.87v-.01l-1.5-.89-1.49-.9-.01-.01-1.48-.91h-.01l-1.48-.92v-.01l-1.48-.93v-.01l-1.47-.95-1.46-.96-.01-.01-1.45-.96v-.01l-1.45-.98-.01-.01-1.44-1-1.44-1.01-1.43-1.03-1.42-1.03-1.42-1.05v-.01l-1.41-1.05h-.01l-1.4-1.07-1.39-1.09h-.01l-1.38-1.1h-.01l-1.37-1.11h-.01l-1.37-1.13-1.36-1.13h-.01l-1.36-1.15-1.35-1.15v-.01l-1.34-1.17h-.01l-1.33-1.18h-.01l-1.32-1.19h-.01l-1.31-1.21h-.01l-1.3-1.22h-.01l-1.3-1.24h-.01l-1.29-1.24h-.01l-1.28-1.26-1.28-1.27-1.27-1.28h-.01l-1.25-1.3h-.01l-1.25-1.3-1.25-1.32-1.24-1.33-1.22-1.34h-.01l-1.22-1.36-1.21-1.37-1.21-1.38-1.19-1.39-1.18-1.41h-.01l-1.17-1.41-1.16-1.44h-.01l-1.16-1.44-1.14-1.46h-.01l-1.13-1.46-1.13-1.48h-.01l-1.11-1.49h-.01l-1.1-1.51-1.1-1.52-1.09-1.52-1.08-1.55-1.07-1.55-1.06-1.56-1.05-1.59-1.04-1.59-1.04-1.61.08 102.29v.86c3.57 2.96 6.53 5.15 10.65 7.94 19.69 13.4 39.82 24.66 61.24 32.96 25.75 9.97 53.44 15.67 84.61 15.67 61.22 0 107.78-10.52 148.71-38.99 28.5-19.81 54.4-48.37 80.77-88.15z"/></clipPath><linearGradient id="q" gradientUnits="userSpaceOnUse" spreadMethod="pad" x1="2631.89" x2="3120.5801" xlink:href="#e" y1="4804.05" y2="4792.3801"/><clipPath id="r"><path clip-rule="evenodd" d="m2751.83 4647.48h-256.32v-740.88h256.32v359.65c0 42.37 11.37 79.02 28.56 105.69 18.94 29.37 45.04 46.79 71.05 46.79 34.26 0 58.75-14.41 75.28-36.57 19.66-26.35 27.88-63.64 27.88-100.45v-375.11h256.32v359.65c0 47.01 10.11 82.53 25.11 107.34 18.51 30.63 44.53 45.14 68.5 45.14 34.84 0 59.56-13.87 76.11-36.05 19.06-25.55 27.06-62.09 27.06-100.97v-375.11h256.32v485.65c0 2.82-.06 5.51-.15 8.06-1.89 50.57-21.46 112.62-61.85 162.05h-.01c-40.29 49.29-101.39 85.98-186.44 85.98-3.91 0-7.71-.07-11.37-.2-38.43-1.44-83.98-15.23-125.21-39.32l-1.69-.99-.02-.02-1.65-.98-.07-.04-1.61-.98-.1-.06-1.57-.96-.13-.08-1.53-.96-.16-.11-1.5-.94-.2-.12-1.46-.94-.22-.14-1.42-.93-.27-.17-1.37-.92-.29-.19-1.34-.9-.33-.21-1.31-.89-.35-.24-.36-.25-1.28-.89-1.24-.87-.41-.29-1.2-.85-.44-.31-1.16-.84-.46-.34-1.13-.82-.5-.36-1.08-.8-.53-.4-1.05-.79-.55-.42-1.01-.77-.59-.45-.98-.76-.61-.47-.94-.74-.64-.51-.9-.72-.67-.53-.87-.71-.68-.56-.84-.69-.71-.59-.8-.66-.75-.62-.77-.65-.76-.65-.73-.63-.79-.68-.7-.61-.81-.72-.67-.58-.83-.75-.64-.56-.86-.78-.59-.55-.89-.81-.56-.52-.91-.84-.53-.5-.93-.88-.5-.48-.94-.9-.47-.46-.97-.94-.44-.43-.98-.98-.41-.41-1.01-1.01-.37-.38-1.03-1.05-.34-.36-1.36-1.41-1.06-1.12-.28-.31-1.34-1.43-1.1-1.2-.22-.25-1.12-1.23-.2-.23-1.12-1.26-.17-.2-1.14-1.31-.15-.17-1.15-1.34-.12-.14-1.17-1.39-.09-.11-1.25-1.51-1.18-1.45-.05-.07-1.2-1.49-.02-.03-1.2-1.53-.01-.01-1.18-1.54-.03-.04-1.15-1.52-.05-.06-1.11-1.5-.08-.1-1.07-1.47-.09-.13-1.04-1.46-.12-.16-1-1.43-.14-.2-.96-1.41-.16-.22-.93-1.39-.17-.26-.9-1.36-.2-.3-.86-1.33-.21-.33-.83-1.32-.23-.36-.8-1.29-.07-.11-.07-.12-.07-.12-.03-.05-.04-.06-.07-.12-.07-.12-.07-.11-.07-.12-.07-.11-.07-.13-.08-.11-.07-.11-.06-.12-.08-.12-.07-.11-.07-.12-.07-.12-.07-.11-.07-.12-.07-.12-.07-.12-.07-.11-.07-.11-.07-.12-.07-.12-.07-.11-.07-.12-.07-.12-.08-.11-.06-.12-.07-.12-.08-.12-.07-.11-.06-.11-.07-.13-.08-.11-.07-.12-.06-.11-.08-.12-.07-.11-.07-.12-.07-.12-.07-.12-.07-.11-.07-.12-.07-.12-.07-.11-.07-.12-.07-.11-.07-.12-.07-.11-.07-.13-.07-.11-.07-.12-.07-.11-.07-.12-.07-.12-.07-.11-.07-.12-.07-.12-.08-.11-.06-.12-.08-.12-.07-.11-.07.12-.07.13-.07.13-.07.13-.08.12-.07.13-.07.13-.08.13-.07.12-.07.13-.07.13-.07.12-.08.13-.07.13-.07.13-.07.12-.08.13-.07.12-.28.52-.08.12-1.51 2.65-1.04 1.91-.01.03-.08.13c-1.02 1.85-2.07 3.68-3.13 5.5l-.32.53-.78 1.32-.3.49-.83 1.36-1.12 1.82-.26.41-.9 1.41-.23.36-.93 1.44-.2.32-.98 1.46-1.19 1.78-.17.25-1.04 1.5-1.22 1.75-.11.17-1.12 1.56-.09.14-1.16 1.57-.07.1-1.2 1.61-.03.06-1.25 1.63v.02l-1.26 1.64-.02.01-1.26 1.61-.05.05-1.25 1.57-.06.08-1.24 1.51-.1.12-1.21 1.47-.13.15-1.2 1.42-.16.18-1.18 1.37-.18.22-1.17 1.33-.22.25-1.14 1.28-.25.28-1.13 1.24-.28.3-1.11 1.2-.31.34-1.09 1.14-.34.37-.03.02-1.42 1.48-1.04 1.07-.41.42-1.02 1.03-.45.45-1 .98-.48.48-.97.94-.53.5-1.5 1.43-.92.87-.59.55-.9.83-.63.57-.87.79-.66.6-.85.75-.71.62-.81.72-.74.64-.79.68-.78.67-.77.64-.81.69-.74.61-.85.7-.71.58-.89.72-.68.55-.93.74-.65.51-.97.76-.62.48-1.01.78-.59.44-1.05.8-.56.42-1.1.8-.52.39-1.14.83-.49.35-1.17.85-.47.33-1.22.86-.42.28-1.27.88-.39.27-1.3.89-.36.24-1.35.89-.33.22-1.38.91-.29.19-1.44.92-.26.16-1.47.93-.22.14-1.52.95-.19.11-1.56.95-.15.09-1.61.96-.12.07-1.65.97-.07.04-1.7.98-.04.02-1.74.99c-36.99 20.69-78.98 31.84-120.96 32.83-41.93.98-83.85-8.16-120.75-28.04l-1.52-.82-.13-.07-1.39-.77-.25-.14-1.27-.72-.35-.2-1.15-.66-.48-.28-1.02-.6-.59-.35-.89-.54-.72-.42-.78-.47-.82-.52-.66-.4-.93-.59-.54-.34-1.05-.67-.41-.26-1.17-.76-.3-.19-1.27-.84-.18-.13-1.39-.93-.06-.04-1.44-.99-.05-.04-1.38-.96-.17-.11-1.26-.9-.28-.2-1.14-.83-.39-.28-1.02-.75-.5-.37-.91-.68-.61-.46-.79-.6-.72-.55-.67-.52-.82-.64-.57-.45-.93-.74-.45-.36-1.02-.84-.34-.27-1.14-.94-.23-.19-1.23-1.03-.12-.1-1.34-1.14v-.01l-1.35-1.16-.09-.09-1.24-1.08-.2-.19-1.12-1-.3-.28-1.02-.92-.4-.37-.9-.84-.51-.48-.79-.75-.6-.58-1.4-1.34-.57-.56-.81-.79-.46-.47-.9-.91-1.36-1.38-.27-.27-1.09-1.13-.16-.17-1.17-1.24-.06-.07-1.23-1.33-.04-.04-1.18-1.3-.14-.14-.2-.23-1.1-1.23-.98-1.11-.32-.36-.88-1.01-.41-.49-.77-.9-.5-.6-.68-.8-.59-.71-.57-.7-.68-.84-.48-.59-.77-.96-.38-.47-.85-1.09-.29-.36-.93-1.21-.19-.26-1.01-1.34-.11-.13-1.09-1.47-.02-.02-1.09-1.5-.08-.1-1.01-1.42-.16-.22-.92-1.3-.24-.35-.83-1.19-.33-.48-.73-1.08-.4-.6-.64-.96-.49-.74-.55-.84-.56-.86-.47-.73-.64-1-.37-.6-.71-1.14-.3-.48-.2-.33-.21-.34-.2-.34c-2.38-3.9-4.53-7.84-6.62-11.84l-.18-.34-.18-.34-.18-.35-.17-.34-.18-.34-.18-.35-1.25-2.4-.18-.35-.18-.35-.17-.34-.18-.35-.18-.35-.18-.34-.17-.35-.18-.35-.18-.35-.18-.34-.18-.35-.18-.35-.18-.35z"/></clipPath><linearGradient id="s" gradientUnits="userSpaceOnUse" spreadMethod="pad" x1="3079.8599" x2="3079.87" xlink:href="#b" y1="4116.21" y2="4680.04"/><clipPath id="t"><path clip-rule="evenodd" d="m3151.57 3471.73c206.95-9.8 398.66 61.05 575.79 193.58 5.24 3.92 10.48 7.9 15.69 11.95l11.79 9.25c15.75 12.5 31.32 25.42 46.54 38.39-46.51 184.57-218.47 321.62-412.84 321.62-68.08 0-132.31-16.81-188.92-46.59-19.97-10.51-38.99-22.63-56.9-36.2-.13-.1-.27-.2-.4-.29-101.12-76.79-166.63-199.68-166.63-338.18 0-89.04 27.07-171.62 73.27-239.65 74.53-109.74 198.83-181.61 339.58-181.61 154.6 0 278.64 91.63 331.51 215.14-109.96-204.2-412.29-188.69-568.48 52.59z"/></clipPath><clipPath id="u"><path clip-rule="evenodd" d="m3727.36 3665.31c-177.13-132.53-368.84-203.38-575.79-193.58 213.27-237.46 605.71-237.77 591.48 205.53-5.21-4.05-10.45-8.03-15.69-11.95z"/></clipPath><linearGradient id="v" gradientUnits="userSpaceOnUse" spreadMethod="pad" x1="3504.74" x2="3569.1299" y1="3512.76" y2="3348.1799"><stop offset="0" stop-color="#a61b00"/><stop offset=".507813" stop-color="#fb6704"/><stop offset="1" stop-color="#fbb334"/></linearGradient><clipPath id="w"><path clip-rule="evenodd" d="m3743.05 3677.26c14.23-443.3-378.21-442.99-591.48-205.53 206.78-319.43 669.71-243.15 603.27 214.78-3.92-3.11-7.85-6.19-11.79-9.25z"/></clipPath><linearGradient id="x" gradientUnits="userSpaceOnUse" spreadMethod="pad" x1="3520.39" x2="3606.4401" y1="3504.36" y2="3252.41"><stop offset="0" stop-color="#d07d03"/><stop offset=".65625" stop-color="#f7ca1c"/><stop offset="1" stop-color="#fff78f"/></linearGradient><clipPath id="y"><path clip-rule="evenodd" d="m3358.99 3779.88c20.74 10.32 55.05-6.13 74.63-42.75 19.59-36.64 10.72-73.15-11.18-84.6-21.89-11.45-54.26 4.24-72.7 40.1s-11.49 76.94 9.25 87.25z"/></clipPath><linearGradient id="z"><stop offset="0" stop-color="#7c4000"/><stop offset="1" stop-color="#aa6700"/></linearGradient><linearGradient id="A" gradientUnits="userSpaceOnUse" spreadMethod="pad" x1="3416.3699" x2="3384.31" xlink:href="#z" y1="3673.3801" y2="3739.35"/><clipPath id="B"><path clip-rule="evenodd" d="m2739.25 3210.3-79.84 73.09-1.21 1.11v754.57h5.1v-.01l496.22 2.55 81.03-74.18 2.28-2.09-.01-297.72v-3.69h-3.68-186.48v-452.03-3.69h-3.7-254.96-47.36-5.11l-1.07.98z"/></clipPath><linearGradient id="C"><stop offset="0" stop-color="#a6120f"/><stop offset=".53125" stop-color="#fb4000"/><stop offset="1" stop-color="#fe7c04"/></linearGradient><linearGradient id="D" gradientUnits="userSpaceOnUse" spreadMethod="pad" x1="2950.6299" x2="2950.6699" xlink:href="#C" y1="4008.1699" y2="3131.9101"/><clipPath id="E"><path clip-rule="evenodd" d="m3526.4 3860.25c20.74 10.32 55.05-6.12 74.63-42.75 19.59-36.64 10.72-73.15-11.18-84.6-21.89-11.45-54.26 4.23-72.69 40.1-18.45 35.86-11.5 76.94 9.24 87.25z"/></clipPath><linearGradient id="F" gradientUnits="userSpaceOnUse" spreadMethod="pad" x1="3583.7799" x2="3551.72" xlink:href="#z" y1="3753.75" y2="3819.7198"/><clipPath id="G"><path clip-rule="evenodd" d="m3235.46 3960.04h-488.82v-744.44h298.63v452.02 3.69h3.69 186.5z"/></clipPath><linearGradient id="H"><stop offset="0" stop-color="#a6120f"/><stop offset=".4375" stop-color="#fb4000"/><stop offset="1" stop-color="#fe7c04"/></linearGradient><linearGradient id="I" gradientUnits="userSpaceOnUse" spreadMethod="pad" x1="2991.1499" x2="2991.17" xlink:href="#H" y1="3181.2201" y2="3930.17"/><clipPath id="J"><path clip-rule="evenodd" d="m2671.41 4031.74 72.94-65.86 485.36 1.51-73.03 66.86z"/></clipPath><linearGradient id="K" gradientUnits="userSpaceOnUse" spreadMethod="pad" x1="3231.5201" x2="2526.81" xlink:href="#H" y1="3997.1701" y2="3997.07"/><clipPath id="L"><path clip-rule="evenodd" d="m2739.25 3960.57-73.66 66.52v-739.39l73.66-67.43z"/></clipPath><linearGradient id="M" gradientUnits="userSpaceOnUse" spreadMethod="pad" x1="2702.3401" x2="2702.5299" xlink:href="#H" y1="3183.0099" y2="3994.7101"/><clipPath id="N"><path clip-rule="evenodd" d="m2358.41 3782.94-38.56 34.81-1.22 1.11v1.62l.01 214.9v3.69h3.68 1.41 297.55l2.46-.95 78.29-70.69 4.31-3.7v-.19-215.15-3.7h-3.7-37.05v-1.96l40.75-36.74v-494.09-3.69h-3.7-211.28-86.01-5.08l-1.07.95-1.24 1.11-78.1 70-1.24 1.11v1.63 496.23 3.7h3.7 1.41z"/></clipPath><linearGradient id="O" gradientUnits="userSpaceOnUse" spreadMethod="pad" x1="2512.54" x2="2512.5999" xlink:href="#C" y1="4005.73" y2="3132.1399"/><clipPath id="P"><path clip-rule="evenodd" d="m2331.91 3775.55 74.8-67.55h286.33l-40.62 36.69h-254.46v2.63l-31.25 28.23z"/></clipPath><linearGradient id="Q" gradientUnits="userSpaceOnUse" spreadMethod="pad" x1="2512.56" x2="2512.56" xlink:href="#H" y1="3704.8801" y2="3856.2299"/><clipPath id="R"><path clip-rule="evenodd" d="m2698.95 3215.6v485.02h-293.59v-485.02z"/></clipPath><linearGradient id="S" gradientUnits="userSpaceOnUse" spreadMethod="pad" x1="2552.2099" x2="2552.24" xlink:href="#H" y1="3193.2001" y2="3920.6299"/><clipPath id="T"><path clip-rule="evenodd" d="m2403.07 3967.43h287.95l-71.16 64.25h-287.94z"/></clipPath><linearGradient id="U" gradientUnits="userSpaceOnUse" spreadMethod="pad" x1="2692.1899" x2="2330.91" xlink:href="#H" y1="3996.81" y2="3996.7599"/><clipPath id="V"><path clip-rule="evenodd" d="m2397.96 3757.13v204.97l-71.96 64.99v-204.97z"/></clipPath><linearGradient id="W" gradientUnits="userSpaceOnUse" spreadMethod="pad" x1="2361.9901" x2="2362.01" xlink:href="#H" y1="3744.66" y2="4016.25"/><clipPath id="X"><path clip-rule="evenodd" d="m2698.95 3960.04h-293.59v-207.96h293.59z"/></clipPath><linearGradient id="Y" gradientUnits="userSpaceOnUse" spreadMethod="pad" x1="2552.22" x2="2552.24" xlink:href="#H" y1="3636.7899" y2="3913.4698"/><clipPath id="Z"><path clip-rule="evenodd" d="m2325.01 3284.38 73.88-65.58v486.06l-73.88 66.08z"/></clipPath><linearGradient id="aa" gradientUnits="userSpaceOnUse" spreadMethod="pad" x1="2361.96" x2="2362.05" xlink:href="#H" y1="3190.6201" y2="3751.0001"/><g clip-path="url(#a)" transform="matrix(.13333333 0 0 -.13333333 -307.199994 628.799984)"><path d="m2947.21 3902.29-71.79 59.94-1.33 1.11v413.59c0 10.86-1.55 19.63-5.19 25.59-3.32 5.41-8.62 8.54-16.35 8.81l-1.11.02c-23.46 0-47.29-16.17-64.85-43.4-16.47-25.56-27.38-60.82-27.38-101.7v-363.34-3.7h-3.69-263.7l-3.7 3v.08l-71.79 59.94-1.33 1.11v1.71 750.95h3.7 1.32 267.41l68.27-57.02c23.38 16.84 47.18 30.9 72.82 40.83 26.6 10.31 55.16 16.19 87.27 16.19 62.74 0 110.6-10.88 152.92-40.32 24.34-16.91 46.76-39.95 69.09-70.54 23.71 26.27 49.46 51.99 82.57 72.1 38.2 23.19 86.02 38.76 151.38 38.76 54.31 0 106.44-22.49 150.26-54.2 54.79-39.64 96.73-93.84 113.73-136.48 22.65-41.34 34.05-86.28 35.5-124.75.1-2.96.16-5.76.16-8.32v-489.34-3.7h-3.69-260.01-3.7l-3.69 3v.08l-71.79 59.94-1.34 1.11v1.71 411.88c0 10.86-1.55 19.63-5.19 25.59-3.32 5.41-8.61 8.56-16.35 8.82l-1.11.01c-21.55 0-45.14-13.37-62.18-41.56-14.36-23.76-24.04-57.99-24.04-103.54v-363.34-3.7h-3.69-260.02-3.69l-3.7 3v.08" fill="url(#c)"/></g><g clip-path="url(#d)" transform="matrix(.13333333 0 0 -.13333333 -307.199994 628.799984)"><path d="m3517.67 4655.83c-42.68 30.88-93.33 52.78-145.92 52.78-63.88 0-110.46-15.12-147.57-37.66-36.04-21.88-63.42-50.93-89.11-79.95 10.06-8.89 19.47-18.67 28.05-29.3 7.77-9.63 14.89-19.98 21.22-31.04 22.38 34.99 55.08 63.61 90.97 84.57 42.24 24.66 89.02 38.79 128.63 40.27 53.73 2.02 98.62-9.95 135.32-30.53 19.45-10.92 36.6-24.25 51.54-39.22-19.61 24.79-44.58 49.42-73.13 70.08" fill="url(#f)"/></g><g clip-path="url(#g)" transform="matrix(.13333333 0 0 -.13333333 -307.199994 628.799984)"><path d="m2493.14 4654.87h255.98l-64.28 53.74h-255.98z" fill="url(#i)"/></g><g clip-path="url(#j)" transform="matrix(.13333333 0 0 -.13333333 -307.199994 628.799984)"><path d="m2488.12 3911.82v737.64l-65.73 54.95v-737.64z" fill="url(#k)"/></g><g clip-path="url(#l)" transform="matrix(.13333333 0 0 -.13333333 -307.199994 628.799984)"><path d="m2947.21 3911.82v369.89c0 35.22-7.71 70.75-26.14 95.68-11.43 15.49-27.1 26.9-47.71 31.59.64-.82 1.25-1.7 1.82-2.62 4.42-7.21 6.3-17.27 6.3-29.43v-410.16z" fill="url(#m)"/></g><g clip-path="url(#n)" transform="matrix(.13333333 0 0 -.13333333 -307.199994 628.799984)"><path d="m3400.31 3911.82v369.89c0 37.25-7.49 72.08-25.33 96.22-11.53 15.59-27.49 26.78-48.68 31.25.71-.88 1.37-1.82 1.98-2.82 4.42-7.21 6.29-17.27 6.29-29.43v-410.16z" fill="url(#o)"/></g><g clip-path="url(#p)" transform="matrix(.13333333 0 0 -.13333333 -307.199994 628.799984)"><path d="m3145.27 4581.47-.07.07-.68.68-.31.3-.45.44-.54.52-.23.23-.76.74h-.01l-.76.72-.24.23-.53.5-.48.45-.3.28-.71.66-.06.06-.79.72-.17.16-.61.55-.41.38-.37.33-.66.59-.13.12-.8.71-.11.09-.68.6-.35.31-.44.39-.6.52-.21.17-.8.69-.04.03-.76.66-.29.24-.52.43-.54.45-.27.23-.79.64-.03.03-1.03.85-.6.49-.47.38-.35.28-.72.58-.1.08-1.66 1.31-.4.31-.44.33-.65.52-.17.13-.84.64-.08.05-.76.59-.34.25-.5.37-.59.45-.25.19-.86.62-.84.62-.27.2-.58.42-.53.38-.33.24-.78.56-.93.65-.2.14-.66.47-.46.31-.41.29-.72.49-.14.1-.87.59-.12.08-.75.51-.39.26-.48.33-.65.43-.22.15-.89.58-.04.02-.84.55-.3.2-.58.37-.57.37-.31.19-.85.54-.04.02-.88.56-.24.15-.66.4-.5.32-.39.24-.77.47-.12.07-.9.55-.15.09-.74.44-.44.26-.46.28-.71.42-.2.11-.9.54-.08.03-.83.49-.36.2-.55.32-.63.35-.28.16-.91.52-1.8.98-1.78.98-1.8.97-1.81.94-1.82.93-1.82.93-1.84.89-1.84.9-1.84.87-1.84.86-1.86.85-1.86.83-1.87.81-1.87.81-1.88.79-1.89.77-1.89.76-1.9.74-1.91.73-1.9.71-1.92.7-1.91.69-1.92.67-1.93.66-1.93.64-1.94.63-1.94.61-1.95.59-1.94.59-1.96.56-1.96.56-1.95.53h-.01l-1.96.53-1.97.5-1.97.5-1.98.47-1.97.47h-.01l-1.98.44-1.99.44-1.98.42-1.99.39-2 .4-1.99.37-2 .36h-.01l-1.99.34-2.01.33-2 .31-2.01.3-2.01.28-2 .27h-.01l-2.01.26-2.01.24-2.01.22h-.01l-2.01.21h-.01l-2.01.18-2.02.19h-.01l-2.01.16-2.02.14-2.02.14-2.02.11-2.02.1-2.02.09h-.01l-2.02.07-2.02.06-2.02.04-2.03.02-2.02.01-2.03-.01-2.02-.02-2.02-.03v-.01l-2.02-.05-2.03-.06v-.01l-2.01-.08-2.02-.1-2.02-.11-2.02-.13-2.01-.14v-.01l-2.01-.15v-.01l-2.02-.17-2-.19-.01-.01-2-.19-2.01-.23v-.01l-2.01-.23-2-.25v-.01l-2-.26v-.01l-1.99-.27-2-.3-1.99-.33h-.01l-1.98-.32-1.98-.35h-.01l-1.98-.36-1.98-.38-1.97-.4h-.01l-1.97-.4v-.01l-1.97-.42v-.01l-1.96-.44h-.01l-1.96-.45-1.95-.47h-.01l-1.95-.49-1.95-.51-1.95-.52-1.94-.54-1.93-.55h-.01l-1.93-.57-1.93-.58-1.92-.6-1.92-.61v-.01l-1.91-.63-1.91-.64-1.9-.67-1.9-.67v-.01l-1.89-.69-1.89-.71-1.88-.72v-.01l-1.87-.74-1.87-.76v-.01l-1.86-.76-1.86-.8-1.85-.8-1.85-.83-1.83-.83v-.01l-1.83-.85v-.01l-1.82-.86v-.01l-1.82-.88-1.81-.9v-.01l-1.8-.92-1.8-.93v-.01l-1.78-.94v-.01l-1.54-.83-1.52-.84-1.52-.85v-.01l-1.51-.86v-.01l-1.51-.87v-.01l-1.5-.89-1.49-.9-.01-.01-1.48-.91h-.01l-1.48-.92v-.01l-1.48-.93v-.01l-1.47-.95-1.46-.96-.01-.01-1.45-.96v-.01l-1.45-.98-.01-.01-1.44-1-1.44-1.01-1.43-1.03-1.42-1.03-1.42-1.05v-.01l-1.41-1.05h-.01l-1.4-1.07-1.39-1.09h-.01l-1.38-1.1h-.01l-1.37-1.11h-.01l-1.37-1.13-1.36-1.13h-.01l-1.36-1.15-1.35-1.15v-.01l-1.34-1.17h-.01l-1.33-1.18h-.01l-1.32-1.19h-.01l-1.31-1.21h-.01l-1.3-1.22h-.01l-1.3-1.24h-.01l-1.29-1.24h-.01l-1.28-1.26-1.28-1.27-1.27-1.28h-.01l-1.25-1.3h-.01l-1.25-1.3-1.25-1.32-1.24-1.33-1.22-1.34h-.01l-1.22-1.36-1.21-1.37-1.21-1.38-1.19-1.39-1.18-1.41h-.01l-1.17-1.41-1.16-1.44h-.01l-1.16-1.44-1.14-1.46h-.01l-1.13-1.46-1.13-1.48h-.01l-1.11-1.49h-.01l-1.1-1.51-1.1-1.52-1.09-1.52-1.08-1.55-1.07-1.55-1.06-1.56-1.05-1.59-1.04-1.59-1.04-1.61.08 102.29v.86c3.57 2.96 6.53 5.15 10.65 7.94 19.69 13.4 39.82 24.66 61.24 32.96 25.75 9.97 53.44 15.67 84.61 15.67 61.22 0 107.78-10.52 148.71-38.99 28.5-19.81 54.4-48.37 80.77-88.15" fill="url(#q)"/></g><g clip-path="url(#r)" transform="matrix(.13333333 0 0 -.13333333 -307.199994 628.799984)"><path d="m2751.83 4647.48h-256.32v-740.88h256.32v359.65c0 42.37 11.37 79.02 28.56 105.69 18.94 29.37 45.04 46.79 71.05 46.79 34.26 0 58.75-14.41 75.28-36.57 19.66-26.35 27.88-63.64 27.88-100.45v-375.11h256.32v359.65c0 47.01 10.11 82.53 25.11 107.34 18.51 30.63 44.53 45.14 68.5 45.14 34.84 0 59.56-13.87 76.11-36.05 19.06-25.55 27.06-62.09 27.06-100.97v-375.11h256.32v485.65c0 2.82-.06 5.51-.15 8.06-1.89 50.57-21.46 112.62-61.85 162.05h-.01c-40.29 49.29-101.39 85.98-186.44 85.98-3.91 0-7.71-.07-11.37-.2-38.43-1.44-83.98-15.23-125.21-39.32l-1.69-.99-.02-.02-1.65-.98-.07-.04-1.61-.98-.1-.06-1.57-.96-.13-.08-1.53-.96-.16-.11-1.5-.94-.2-.12-1.46-.94-.22-.14-1.42-.93-.27-.17-1.37-.92-.29-.19-1.34-.9-.33-.21-1.31-.89-.35-.24-.36-.25-1.28-.89-1.24-.87-.41-.29-1.2-.85-.44-.31-1.16-.84-.46-.34-1.13-.82-.5-.36-1.08-.8-.53-.4-1.05-.79-.55-.42-1.01-.77-.59-.45-.98-.76-.61-.47-.94-.74-.64-.51-.9-.72-.67-.53-.87-.71-.68-.56-.84-.69-.71-.59-.8-.66-.75-.62-.77-.65-.76-.65-.73-.63-.79-.68-.7-.61-.81-.72-.67-.58-.83-.75-.64-.56-.86-.78-.59-.55-.89-.81-.56-.52-.91-.84-.53-.5-.93-.88-.5-.48-.94-.9-.47-.46-.97-.94-.44-.43-.98-.98-.41-.41-1.01-1.01-.37-.38-1.03-1.05-.34-.36-1.36-1.41-1.06-1.12-.28-.31-1.34-1.43-1.1-1.2-.22-.25-1.12-1.23-.2-.23-1.12-1.26-.17-.2-1.14-1.31-.15-.17-1.15-1.34-.12-.14-1.17-1.39-.09-.11-1.25-1.51-1.18-1.45-.05-.07-1.2-1.49-.02-.03-1.2-1.53-.01-.01-1.18-1.54-.03-.04-1.15-1.52-.05-.06-1.11-1.5-.08-.1-1.07-1.47-.09-.13-1.04-1.46-.12-.16-1-1.43-.14-.2-.96-1.41-.16-.22-.93-1.39-.17-.26-.9-1.36-.2-.3-.86-1.33-.21-.33-.83-1.32-.23-.36-.8-1.29-.07-.11-.07-.12-.07-.12-.03-.05-.04-.06-.07-.12-.07-.12-.07-.11-.07-.12-.07-.11-.07-.13-.08-.11-.07-.11-.06-.12-.08-.12-.07-.11-.07-.12-.07-.12-.07-.11-.07-.12-.07-.12-.07-.12-.07-.11-.07-.11-.07-.12-.07-.12-.07-.11-.07-.12-.07-.12-.08-.11-.06-.12-.07-.12-.08-.12-.07-.11-.06-.11-.07-.13-.08-.11-.07-.12-.06-.11-.08-.12-.07-.11-.07-.12-.07-.12-.07-.12-.07-.11-.07-.12-.07-.12-.07-.11-.07-.12-.07-.11-.07-.12-.07-.11-.07-.13-.07-.11-.07-.12-.07-.11-.07-.12-.07-.12-.07-.11-.07-.12-.07-.12-.08-.11-.06-.12-.08-.12-.07-.11-.07.12-.07.13-.07.13-.07.13-.08.12-.07.13-.07.13-.08.13-.07.12-.07.13-.07.13-.07.12-.08.13-.07.13-.07.13-.07.12-.08.13-.07.12-.28.52-.08.12-1.51 2.65-1.04 1.91-.01.03-.08.13c-1.02 1.85-2.07 3.68-3.13 5.5l-.32.53-.78 1.32-.3.49-.83 1.36-1.12 1.82-.26.41-.9 1.41-.23.36-.93 1.44-.2.32-.98 1.46-1.19 1.78-.17.25-1.04 1.5-1.22 1.75-.11.17-1.12 1.56-.09.14-1.16 1.57-.07.1-1.2 1.61-.03.06-1.25 1.63v.02l-1.26 1.64-.02.01-1.26 1.61-.05.05-1.25 1.57-.06.08-1.24 1.51-.1.12-1.21 1.47-.13.15-1.2 1.42-.16.18-1.18 1.37-.18.22-1.17 1.33-.22.25-1.14 1.28-.25.28-1.13 1.24-.28.3-1.11 1.2-.31.34-1.09 1.14-.34.37-.03.02-1.42 1.48-1.04 1.07-.41.42-1.02 1.03-.45.45-1 .98-.48.48-.97.94-.53.5-1.5 1.43-.92.87-.59.55-.9.83-.63.57-.87.79-.66.6-.85.75-.71.62-.81.72-.74.64-.79.68-.78.67-.77.64-.81.69-.74.61-.85.7-.71.58-.89.72-.68.55-.93.74-.65.51-.97.76-.62.48-1.01.78-.59.44-1.05.8-.56.42-1.1.8-.52.39-1.14.83-.49.35-1.17.85-.47.33-1.22.86-.42.28-1.27.88-.39.27-1.3.89-.36.24-1.35.89-.33.22-1.38.91-.29.19-1.44.92-.26.16-1.47.93-.22.14-1.52.95-.19.11-1.56.95-.15.09-1.61.96-.12.07-1.65.97-.07.04-1.7.98-.04.02-1.74.99c-36.99 20.69-78.98 31.84-120.96 32.83-41.93.98-83.85-8.16-120.75-28.04l-1.52-.82-.13-.07-1.39-.77-.25-.14-1.27-.72-.35-.2-1.15-.66-.48-.28-1.02-.6-.59-.35-.89-.54-.72-.42-.78-.47-.82-.52-.66-.4-.93-.59-.54-.34-1.05-.67-.41-.26-1.17-.76-.3-.19-1.27-.84-.18-.13-1.39-.93-.06-.04-1.44-.99-.05-.04-1.38-.96-.17-.11-1.26-.9-.28-.2-1.14-.83-.39-.28-1.02-.75-.5-.37-.91-.68-.61-.46-.79-.6-.72-.55-.67-.52-.82-.64-.57-.45-.93-.74-.45-.36-1.02-.84-.34-.27-1.14-.94-.23-.19-1.23-1.03-.12-.1-1.34-1.14v-.01l-1.35-1.16-.09-.09-1.24-1.08-.2-.19-1.12-1-.3-.28-1.02-.92-.4-.37-.9-.84-.51-.48-.79-.75-.6-.58-1.4-1.34-.57-.56-.81-.79-.46-.47-.9-.91-1.36-1.38-.27-.27-1.09-1.13-.16-.17-1.17-1.24-.06-.07-1.23-1.33-.04-.04-1.18-1.3-.14-.14-.2-.23-1.1-1.23-.98-1.11-.32-.36-.88-1.01-.41-.49-.77-.9-.5-.6-.68-.8-.59-.71-.57-.7-.68-.84-.48-.59-.77-.96-.38-.47-.85-1.09-.29-.36-.93-1.21-.19-.26-1.01-1.34-.11-.13-1.09-1.47-.02-.02-1.09-1.5-.08-.1-1.01-1.42-.16-.22-.92-1.3-.24-.35-.83-1.19-.33-.48-.73-1.08-.4-.6-.64-.96-.49-.74-.55-.84-.56-.86-.47-.73-.64-1-.37-.6-.71-1.14-.3-.48-.2-.33-.21-.34-.2-.34c-2.38-3.9-4.53-7.84-6.62-11.84l-.18-.34-.18-.34-.18-.35-.17-.34-.18-.34-.18-.35-1.25-2.4-.18-.35-.18-.35-.17-.34-.18-.35-.18-.35-.18-.34-.17-.35-.18-.35-.18-.35-.18-.34-.18-.35-.18-.35-.18-.35v127.12" fill="url(#s)"/></g><g clip-path="url(#t)" fill-rule="evenodd" transform="matrix(.13333333 0 0 -.13333333 -307.199994 628.799984)"><path d="m3597.2 4209.16 412.44-783.96-776.85-408.82-412.43 783.96z" fill="#d17d03"/><path d="m3305.37 3814.02c3.63 1.91 5.05 6.33 3.18 9.88s-6.32 4.89-9.94 2.98-5.04-6.33-3.18-9.88c1.87-3.55 6.32-4.89 9.94-2.98" fill="#fff88f"/><path d="m3304.25 3816.16c-2.42-1.27-5.39-.38-6.63 1.99-1.25 2.37-.3 5.31 2.12 6.59 2.41 1.27 5.38.38 6.62-1.99 1.25-2.37.3-5.32-2.11-6.59zm3.38-6.43c6.03 3.18 8.41 10.56 5.29 16.47-3.11 5.92-10.53 8.14-16.56 4.96-6.04-3.17-8.41-10.55-5.3-16.46 3.11-5.92 10.53-8.14 16.57-4.97" fill="#fff78d"/><path d="m3306.5 3811.88c-4.83-2.54-10.76-.77-13.25 3.97-2.49 4.73-.6 10.63 4.23 13.17s10.77.77 13.25-3.97c2.5-4.73.6-10.63-4.23-13.17zm3.38-6.43c8.46 4.45 11.77 14.77 7.42 23.05-4.36 8.29-14.75 11.39-23.2 6.95-8.45-4.45-11.77-14.77-7.41-23.05 4.36-8.29 14.74-11.4 23.19-6.95" fill="#fff68a"/><path d="m3308.76 3807.59c-7.25-3.81-16.15-1.14-19.88 5.96-3.74 7.09-.9 15.95 6.35 19.75 7.24 3.82 16.15 1.15 19.88-5.95s.89-15.94-6.35-19.76zm3.38-6.43c10.86 5.72 15.13 18.99 9.53 29.64-5.61 10.66-18.96 14.65-29.82 8.93-10.87-5.71-15.14-18.98-9.53-29.64 5.6-10.65 18.95-14.65 29.82-8.93" fill="#fff588"/><path d="m3311.01 3803.31c-9.66-5.09-21.53-1.53-26.51 7.94-4.98 9.46-1.19 21.26 8.47 26.34 9.66 5.09 21.53 1.53 26.51-7.94s1.19-21.26-8.47-26.34zm3.38-6.43c13.28 6.98 18.5 23.21 11.65 36.23s-23.17 17.9-36.45 10.91c-13.28-6.98-18.49-23.21-11.64-36.23 6.84-13.02 23.16-17.9 36.44-10.91" fill="#fef485"/><path d="m3313.27 3799.02c-12.08-6.36-26.91-1.91-33.14 9.93-6.23 11.83-1.49 26.57 10.59 32.93 12.07 6.35 26.91 1.91 33.13-9.93 6.23-11.83 1.49-26.57-10.58-32.93zm3.38-6.43c15.69 8.26 21.86 27.43 13.76 42.82-8.09 15.38-27.38 21.16-43.07 12.9-15.7-8.26-21.86-27.43-13.77-42.82 8.1-15.38 27.38-21.16 43.08-12.9" fill="#fef383"/><path d="m3315.52 3794.73c-14.49-7.62-32.29-2.29-39.76 11.91s-1.79 31.9 12.7 39.52c14.49 7.63 32.29 2.3 39.77-11.91 7.47-14.2 1.78-31.89-12.71-39.52zm3.38-6.43c18.11 9.54 25.22 31.65 15.89 49.4-9.34 17.76-31.6 24.43-49.71 14.89-18.11-9.53-25.22-31.64-15.88-49.4 9.34-17.75 31.59-24.41 49.7-14.89" fill="#fef280"/><path d="m3317.77 3790.45c-16.9-8.9-37.67-2.68-46.38 13.89-8.72 16.57-2.09 37.21 14.82 46.11 16.9 8.89 37.67 2.68 46.39-13.89 8.71-16.58 2.08-37.22-14.83-46.11zm3.39-6.43c20.52 10.8 28.58 35.87 18 55.99-10.59 20.12-35.81 27.67-56.34 16.87-20.52-10.8-28.58-35.87-18-55.99 10.59-20.12 35.81-27.68 56.34-16.87" fill="#fef17e"/><path d="m3320.03 3786.16c-19.32-10.16-43.05-3.05-53.01 15.88-9.97 18.94-2.38 42.53 16.93 52.69 19.32 10.17 43.06 3.06 53.02-15.87 9.96-18.94 2.38-42.53-16.94-52.7zm3.38-6.43c22.94 12.07 31.95 40.09 20.12 62.58s-40.02 30.93-62.96 18.85c-22.94-12.07-31.94-40.08-20.12-62.57 11.84-22.49 40.02-30.93 62.96-18.86" fill="#fef07b"/><path d="m3322.29 3781.88c-21.74-11.44-48.44-3.44-59.65 17.86s-2.67 47.85 19.06 59.28c21.73 11.44 48.44 3.44 59.64-17.86 11.21-21.3 2.68-47.85-19.05-59.28zm3.38-6.43c25.35 13.34 35.31 44.31 22.23 69.16s-44.23 34.18-69.58 20.84c-25.36-13.34-35.31-44.31-22.24-69.16 13.08-24.85 44.23-34.18 69.59-20.84" fill="#feef79"/><path d="m3324.54 3777.59c-24.15-12.71-53.82-3.82-66.27 19.85s-2.97 53.16 21.18 65.87c24.14 12.71 53.81 3.82 66.26-19.85 12.46-23.67 2.98-53.16-21.17-65.87zm3.38-6.43c27.77 14.61 38.67 48.53 24.35 75.75s-48.44 37.44-76.21 22.83-38.67-48.53-24.35-75.75 48.44-37.44 76.21-22.83" fill="#fdee76"/><path d="m3326.79 3773.3c-26.56-13.97-59.2-4.2-72.9 21.84-13.69 26.04-3.26 58.48 23.3 72.45 26.56 13.98 59.2 4.21 72.9-21.83s3.27-58.48-23.3-72.46zm3.39-6.42c30.18 15.88 42.03 52.74 26.46 82.33-15.56 29.59-52.65 40.7-82.84 24.81-30.18-15.88-42.03-52.74-26.46-82.33 15.56-29.59 52.65-40.7 82.84-24.81" fill="#fded74"/><path d="m3329.05 3769.02c-28.98-15.25-64.58-4.59-79.53 23.82-14.94 28.4-3.56 63.79 25.41 79.04 28.98 15.25 64.59 4.58 79.53-23.82s3.57-63.79-25.41-79.04zm3.38-6.43c32.6 17.16 45.4 56.97 28.59 88.92-16.81 31.96-56.87 43.95-89.47 26.8-32.6-17.16-45.39-56.97-28.59-88.92 16.82-31.96 56.87-43.96 89.47-26.8" fill="#fdec71"/><path d="m3331.3 3764.73c-31.39-16.52-69.96-4.96-86.15 25.81s-3.86 69.1 27.53 85.62c31.39 16.53 69.96 4.97 86.15-25.8s3.87-69.11-27.53-85.63zm3.39-6.43c35.01 18.43 48.76 61.19 30.7 95.51-18.05 34.32-61.08 47.21-96.09 28.78-35.02-18.42-48.76-61.18-30.71-95.5 18.06-34.32 61.08-47.21 96.1-28.79" fill="#fdeb6f"/><path d="m3333.56 3760.45c-33.81-17.79-75.35-5.35-92.78 27.78-17.43 33.15-4.16 74.43 29.65 92.22 33.8 17.79 75.34 5.35 92.77-27.79 17.44-33.14 4.16-74.42-29.64-92.21zm3.38-6.43c37.43 19.69 52.12 65.41 32.82 102.09-19.3 36.69-65.29 50.47-102.72 30.77s-52.12-65.41-32.82-102.09c19.3-36.69 65.29-50.47 102.72-30.77" fill="#fdea6c"/><path d="m3335.81 3756.16c-36.22-19.06-80.72-5.73-99.4 29.78-18.68 35.5-4.46 79.74 31.76 98.8s80.72 5.73 99.4-29.78c18.69-35.5 4.47-79.74-31.76-98.8zm3.39-6.43c39.84 20.97 55.48 69.63 34.94 108.68-20.55 39.06-69.51 53.72-109.35 32.76-39.84-20.97-55.49-69.63-34.94-108.69 20.54-39.05 69.5-53.71 109.35-32.75" fill="#fde96a"/><path d="m3338.07 3751.88c-38.64-20.34-86.11-6.12-106.03 31.75-19.93 37.88-4.76 85.06 33.87 105.39 38.64 20.34 86.11 6.12 106.04-31.75 19.92-37.88 4.75-85.06-33.88-105.39zm3.38-6.43c42.26 22.23 58.85 73.84 37.06 115.26-21.8 41.43-73.72 56.98-115.98 34.74s-58.85-73.84-37.05-115.27c21.79-41.42 73.71-56.97 115.97-34.73" fill="#fde867"/><path d="m3340.32 3747.59c-41.05-21.61-91.49-6.5-112.66 33.74s-5.05 90.38 36 111.98 91.49 6.49 112.66-33.74c21.17-40.25 5.05-90.38-36-111.98zm3.39-6.43c44.67 23.51 62.21 78.07 39.17 121.86-23.04 43.78-77.93 60.23-122.6 36.72s-62.21-78.07-39.17-121.86c23.03-43.79 77.92-60.23 122.6-36.72" fill="#fce765"/><path d="m3342.58 3743.3c-43.47-22.87-96.87-6.87-119.29 35.74-22.41 42.6-5.35 95.68 38.12 118.55 43.46 22.88 96.87 6.88 119.28-35.73 22.42-42.6 5.35-95.68-38.11-118.56zm3.38-6.42c47.09 24.77 65.57 82.28 41.29 128.44-24.28 46.15-82.14 63.48-129.23 38.7-47.08-24.78-65.57-82.28-41.29-128.44 24.29-46.15 82.14-63.49 129.23-38.7" fill="#fce662"/><path d="m3344.83 3739.02c-45.88-24.15-102.25-7.26-125.91 37.71-23.66 44.98-5.65 101 40.23 125.15s102.26 7.26 125.92-37.71 5.64-101.01-40.24-125.15zm3.38-6.43c49.51 26.05 68.94 86.5 43.41 135.03-25.52 48.52-86.35 66.74-135.85 40.69s-68.94-86.51-43.41-135.03c25.53-48.53 86.35-66.74 135.85-40.69" fill="#fce560"/><path d="m3347.09 3734.73c-48.3-25.41-107.64-7.64-132.54 39.7-24.91 47.34-5.95 106.32 42.35 131.74 48.29 25.41 107.63 7.64 132.54-39.7 24.9-47.34 5.94-106.33-42.35-131.74zm3.38-6.43c51.92 27.33 72.3 90.73 45.53 141.62-26.78 50.89-90.57 70-142.49 42.68-51.91-27.33-72.3-90.73-45.52-141.62 26.77-50.89 90.56-70 142.48-42.68" fill="#fce45d"/><path d="m3349.34 3730.45c-50.71-26.69-113.02-8.03-139.16 41.68-26.16 49.71-6.25 111.64 44.46 138.32 50.71 26.69 113.02 8.03 139.17-41.68s6.24-111.64-44.47-138.32zm3.38-6.43c54.34 28.59 75.67 94.94 47.65 148.2s-94.78 73.26-149.11 44.66c-54.33-28.59-75.66-94.94-47.65-148.2 28.03-53.26 94.78-73.25 149.11-44.66" fill="#fce35b"/><path d="m3351.6 3726.16c-53.13-27.96-118.4-8.41-145.8 43.67-27.39 52.08-6.54 116.95 46.59 144.91 53.12 27.96 118.4 8.4 145.79-43.67 27.4-52.07 6.54-116.95-46.58-144.91zm3.38-6.43c56.75 29.86 79.02 99.17 49.76 154.79s-98.99 76.51-155.73 46.65c-56.75-29.87-79.03-99.17-49.77-154.79 29.26-55.63 98.99-76.51 155.74-46.65" fill="#fce258"/><path d="m3353.85 3721.87c-55.54-29.23-123.78-8.78-152.42 45.66s-6.84 122.27 48.7 151.5c55.54 29.22 123.78 8.78 152.42-45.66 28.65-54.44 6.84-122.27-48.7-151.5zm3.38-6.42c59.16 31.13 82.39 103.38 51.88 161.37s-103.2 79.77-162.36 48.63c-59.16-31.13-82.39-103.38-51.88-161.38 30.51-57.99 103.2-79.76 162.36-48.62" fill="#fbe156"/><path d="m3356.11 3717.59c-57.96-30.5-129.16-9.17-159.06 47.64-29.88 56.81-7.13 127.58 50.83 158.08 57.95 30.5 129.16 9.17 159.05-47.64 29.88-56.81 7.13-127.58-50.82-158.08zm3.38-6.43c61.57 32.4 85.75 107.61 53.99 167.96-31.75 60.36-107.41 83.02-168.98 50.62-61.58-32.4-85.75-107.61-54-167.96 31.75-60.37 107.41-83.03 168.99-50.62" fill="#fbe053"/><path d="m3358.36 3713.3c-60.37-31.77-134.54-9.55-165.68 49.63-31.13 59.17-7.43 132.9 52.94 164.67 60.37 31.76 134.55 9.55 165.68-49.63 31.13-59.17 7.43-132.9-52.94-164.67zm3.38-6.43c63.99 33.68 89.12 111.83 56.12 174.55-33 62.73-111.63 86.28-175.62 52.61-63.99-33.68-89.11-111.83-56.11-174.56 33-62.72 111.62-86.27 175.61-52.6" fill="#fbdf51"/><path d="m3360.61 3709.02c-62.78-33.04-139.92-9.94-172.3 51.61-32.37 61.54-7.73 138.21 55.06 171.25 62.78 33.04 139.92 9.94 172.3-51.61 32.38-61.54 7.73-138.22-55.06-171.25zm3.39-6.43c66.4 34.95 92.47 116.04 58.23 181.14-34.25 65.09-115.84 89.53-182.25 54.58-66.4-34.95-92.47-116.04-58.23-181.14 34.25-65.09 115.84-89.53 182.25-54.58" fill="#fbde4e"/><path d="m3362.87 3704.73c-65.2-34.31-145.31-10.32-178.93 53.59s-8.03 143.54 57.17 177.85 145.31 10.31 178.93-53.6c33.63-63.91 8.03-143.53-57.17-177.84zm3.38-6.43c68.82 36.22 95.84 120.27 60.35 187.73-35.49 67.45-120.05 92.78-188.87 56.57-68.82-36.22-95.84-120.27-60.35-187.72 35.49-67.47 120.05-92.79 188.87-56.58" fill="#fbdd4c"/><path d="m3365.13 3700.44c-67.62-35.58-150.7-10.69-185.56 55.58-34.87 66.28-8.32 148.85 59.29 184.44 67.61 35.58 150.69 10.69 185.56-55.58 34.86-66.28 8.32-148.85-59.29-184.44zm3.38-6.42c71.23 37.48 99.2 124.48 62.46 194.31-36.73 69.83-124.26 96.04-195.49 58.55-71.24-37.49-99.21-124.48-62.47-194.31s124.26-96.04 195.5-58.55" fill="#fbdc49"/><path d="m3367.38 3696.16c-70.02-36.85-156.07-11.08-192.18 57.56-36.12 68.65-8.63 154.17 61.41 191.02 70.02 36.85 156.07 11.08 192.18-57.56 36.11-68.65 8.62-154.17-61.41-191.02zm3.38-6.43c73.65 38.76 102.57 128.7 64.59 200.9-37.98 72.19-128.48 99.3-202.13 60.54s-102.56-128.71-64.58-200.9 128.47-99.3 202.12-60.54" fill="#fbdb47"/><path d="m3369.63 3691.88c-72.44-38.13-161.45-11.47-198.81 59.54s-8.91 159.48 63.53 197.61c72.44 38.12 161.45 11.46 198.81-59.55 37.36-71.02 8.92-159.48-63.53-197.6zm3.39-6.43c76.06 40.02 105.93 132.92 66.7 207.48s-132.69 102.55-208.76 62.52c-76.06-40.02-105.92-132.92-66.69-207.48 39.22-74.56 132.68-102.56 208.75-62.52" fill="#fada44"/><path d="m3371.89 3687.59c-74.85-39.4-166.84-11.85-205.44 61.53s-9.21 164.8 65.64 204.19c74.86 39.4 166.84 11.85 205.44-61.53 38.61-73.38 9.22-164.8-65.64-204.19zm3.38-6.43c78.48 41.3 109.29 137.14 68.82 214.07s-136.9 105.81-215.38 64.51-109.29-137.14-68.82-214.07 136.9-105.81 215.38-64.51" fill="#fad942"/><path d="m3374.14 3683.3c-77.27-40.66-172.21-12.23-212.06 63.52s-9.51 170.11 67.76 210.78c77.27 40.66 172.22 12.22 212.07-63.52 39.84-75.75 9.51-170.12-67.77-210.78zm3.39-6.43c80.89 42.58 112.65 141.36 70.93 220.66-41.71 79.3-141.11 109.07-222 66.5-80.9-42.58-112.66-141.37-70.94-220.66 41.72-79.3 141.11-109.07 222.01-66.5" fill="#fad83f"/><path d="m3376.4 3679.02c-79.69-41.94-177.6-12.61-218.7 65.5-41.09 78.11-9.8 175.43 69.89 217.36 79.68 41.94 177.59 12.61 218.69-65.5 41.09-78.11 9.81-175.43-69.88-217.36zm3.38-6.43c83.31 43.84 116.02 145.58 73.06 227.24-42.96 81.67-145.33 112.33-228.64 68.48-83.31-43.84-116.01-145.58-73.05-227.24 42.96-81.67 145.32-112.33 228.63-68.48" fill="#fad73d"/><path d="m3378.65 3674.73c-82.1-43.21-182.98-12.99-225.32 67.49-42.33 80.48-10.1 180.74 72 223.95s182.98 12.99 225.32-67.49 10.1-180.74-72-223.95zm3.39-6.43c85.72 45.11 119.37 149.8 75.17 233.83-44.21 84.03-149.54 115.58-235.26 70.47-85.73-45.11-119.38-149.81-75.18-233.83 44.21-84.03 149.54-115.58 235.27-70.47" fill="#fad63a"/><path d="m3380.91 3670.45c-84.52-44.49-188.36-13.38-231.95 69.46-43.58 82.85-10.4 186.07 74.11 230.54 84.52 44.48 188.37 13.38 231.95-69.47 43.59-82.85 10.41-186.06-74.11-230.53zm3.38-6.43c88.14 46.38 122.74 154.02 77.29 240.41-45.45 86.4-153.75 118.84-241.89 72.45-88.14-46.38-122.74-154.02-77.29-240.42 45.46-86.39 153.75-118.83 241.89-72.44" fill="#fad538"/><path d="m3383.16 3666.16c-86.93-45.75-193.74-13.76-238.57 71.46-44.83 85.21-10.7 191.38 76.23 237.12 86.93 45.75 193.74 13.76 238.57-71.46 44.83-85.21 10.7-191.37-76.23-237.12zm3.39-6.43c90.55 47.65 126.1 158.24 79.4 247-46.7 88.77-157.96 122.09-248.51 74.44-90.56-47.65-126.1-158.24-79.41-247.01 46.7-88.76 157.96-122.09 248.52-74.43" fill="#f9d435"/><path d="m3385.42 3661.87c-89.35-47.01-199.13-14.14-245.2 73.45-46.08 87.57-11 196.69 78.35 243.71 89.34 47.01 199.12 14.13 245.2-73.45 46.07-87.58 10.99-196.69-78.35-243.71zm3.38-6.43c92.97 48.93 129.47 162.47 81.52 253.6-47.94 91.13-162.17 125.34-255.14 76.42-92.97-48.93-129.47-162.47-81.52-253.6 47.94-91.13 162.17-125.34 255.14-76.42" fill="#f9d333"/><path d="m3387.67 3657.59c-91.76-48.3-204.51-14.52-251.83 75.42-47.32 89.95-11.29 202.01 80.47 250.3s204.51 14.52 251.83-75.42c47.32-89.95 11.29-202.01-80.47-250.3zm3.38-6.43c95.39 50.19 132.83 166.68 83.65 260.18-49.19 93.49-166.39 128.6-261.77 78.4-95.38-50.19-132.83-166.68-83.64-260.18 49.18-93.49 166.38-128.6 261.76-78.4" fill="#f9d230"/><path d="m3389.93 3653.3c-94.18-49.56-209.89-14.9-258.46 77.41-48.56 92.32-11.59 207.33 82.58 256.89 94.18 49.56 209.9 14.9 258.46-77.41 48.57-92.32 11.59-207.33-82.58-256.89zm3.38-6.43c97.8 51.47 136.19 170.9 85.76 266.77-50.44 95.86-170.6 131.85-268.4 80.39-97.79-51.47-136.19-170.9-85.76-266.77 50.44-95.86 170.6-131.85 268.4-80.39" fill="#f9d12e"/><path d="m3392.18 3649.02c-96.59-50.84-215.27-15.29-265.08 79.39s-11.89 212.64 84.7 263.47 215.27 15.29 265.08-79.4c49.81-94.68 11.89-212.64-84.7-263.46zm3.39-6.43c100.21 52.73 139.55 175.12 87.87 273.35-51.67 98.23-174.81 135.11-275.02 82.37-100.21-52.73-139.56-175.12-87.88-273.35s174.81-135.11 275.03-82.37" fill="#f9d02b"/><path d="m3394.44 3644.73c-99.01-52.1-220.66-15.67-271.71 81.38-51.06 97.05-12.19 217.96 86.82 270.06 99 52.1 220.65 15.67 271.71-81.38 51.05-97.05 12.18-217.96-86.82-270.06zm3.38-6.43c102.63 54.01 142.92 179.34 89.99 279.94-52.92 100.6-179.02 138.37-281.65 84.36-102.62-54.01-142.91-179.34-89.99-279.94s179.03-138.37 281.65-84.36" fill="#f9cf29"/><path d="m3396.69 3640.44c-101.42-53.37-226.03-16.05-278.33 83.37-52.31 99.42-12.48 223.28 88.93 276.65 101.42 53.37 226.03 16.04 278.34-83.37 52.3-99.42 12.48-223.27-88.94-276.65zm3.38-6.43c105.05 55.28 146.29 183.56 92.12 286.53-54.17 102.96-183.24 141.62-288.28 86.35-105.04-55.28-146.28-183.57-92.11-286.53 54.17-102.97 183.23-141.63 288.27-86.35" fill="#f9ce26"/><path d="m3398.95 3636.16c-103.84-54.65-231.42-16.43-284.97 85.35-53.54 101.78-12.78 228.59 91.06 283.23 103.83 54.65 231.41 16.43 284.96-85.35s12.78-228.59-91.05-283.23zm3.38-6.43c107.46 56.55 149.64 187.78 94.23 293.11-55.42 105.33-187.45 144.88-294.91 88.33-107.45-56.55-149.64-187.78-94.22-293.11 55.41-105.33 187.45-144.88 294.9-88.33" fill="#f8cd24"/><path d="m3401.2 3631.87c-106.25-55.91-236.8-16.81-291.59 87.34s-13.08 233.9 93.17 289.82c106.25 55.91 236.8 16.81 291.59-87.34s13.08-233.9-93.17-289.82zm3.38-6.43c109.87 57.82 153.01 192 96.35 299.7s-191.66 148.14-301.53 90.32-153.01-192-96.35-299.71c56.66-107.7 191.66-148.13 301.53-90.31" fill="#f8cc21"/><path d="m3403.46 3627.59c-108.67-57.19-242.18-17.2-298.22 89.32s-13.38 239.22 95.29 296.4c108.66 57.19 242.18 17.2 298.21-89.32 56.04-106.52 13.38-239.22-95.28-296.4zm3.38-6.43c112.29 59.09 156.37 196.22 98.46 306.28-57.9 110.07-195.87 151.4-308.16 92.3-112.28-59.09-156.36-196.22-98.46-306.28 57.91-110.07 195.87-151.4 308.16-92.3" fill="#f8cb1f"/><path d="m3405.71 3623.3c-111.08-58.46-247.56-17.58-304.84 91.31-57.28 108.88-13.68 244.53 97.4 302.99 111.08 58.45 247.57 17.58 304.85-91.31 57.28-108.88 13.67-244.54-97.41-302.99zm3.38-6.43c114.7 60.36 159.73 200.44 100.59 312.87-59.16 112.44-200.09 154.65-314.79 94.29s-159.73-200.44-100.58-312.87c59.15-112.44 200.08-154.65 314.78-94.29" fill="#f8ca1d"/><path d="m3407.97 3619.01c-113.5-59.72-252.95-17.96-311.48 93.29s-13.97 249.86 99.53 309.59c113.49 59.72 252.94 17.95 311.47-93.3s13.97-249.85-99.52-309.58zm3.38-6.43c117.11 61.63 163.09 204.67 102.7 319.46-60.4 114.8-204.3 157.91-321.41 96.28-117.12-61.64-163.1-204.67-102.7-319.47 60.39-114.8 204.29-157.9 321.41-96.27" fill="#f7c91d"/><path d="m3410.22 3614.73c-115.91-61-258.33-18.34-318.1 95.27-59.77 113.62-14.26 255.18 101.64 316.17 115.91 61 258.33 18.34 318.1-95.28 59.77-113.61 14.27-255.16-101.64-316.16zm3.38-6.43c119.53 62.9 166.46 208.88 104.82 326.05s-208.51 161.15-328.04 98.25-166.46-208.88-104.82-326.05 208.51-161.16 328.04-98.25" fill="#f7c81c"/><path d="m3412.47 3610.44c-118.32-62.27-263.7-18.72-324.72 97.26-61.02 115.99-14.57 260.49 103.76 322.76 118.32 62.27 263.7 18.72 324.72-97.26 61.02-115.99 14.57-260.49-103.76-322.76zm3.39-6.43c121.94 64.17 169.82 213.1 106.93 332.63-62.88 119.54-212.72 164.42-334.66 100.25-121.95-64.18-169.83-213.1-106.94-332.64s212.72-164.41 334.67-100.24" fill="#f6c71c"/><path d="m3414.73 3606.15c-120.74-63.53-269.09-19.1-331.35 99.25-62.27 118.35-14.86 265.81 105.87 329.34 120.74 63.54 269.09 19.11 331.36-99.24 62.26-118.36 14.85-265.81-105.88-329.35zm3.38-6.42c124.36 65.44 173.19 217.32 109.05 339.22-64.13 121.9-216.93 167.67-341.29 102.22-124.36-65.44-173.18-217.32-109.05-339.22s216.93-167.67 341.29-102.22" fill="#f6c61c"/><path d="m3416.98 3601.87c-123.15-64.81-274.46-19.49-337.98 101.23-63.5 120.72-15.15 271.12 108 335.93s274.47 19.49 337.98-101.23 15.16-271.12-108-335.93zm3.39-6.43c126.77 66.72 176.54 221.54 111.17 345.81-65.38 124.27-221.15 170.93-347.92 104.21-126.78-66.72-176.55-221.54-111.17-345.81 65.37-124.27 221.14-170.92 347.92-104.21" fill="#f5c51b"/><path d="m3419.24 3597.58c-125.57-66.08-279.85-19.87-344.61 103.22-64.75 123.09-15.45 276.43 110.12 342.52 125.56 66.07 279.85 19.86 344.6-103.22 64.76-123.09 15.46-276.44-110.11-342.52zm3.38-6.43c129.19 67.99 179.91 225.76 113.29 352.4s-225.36 174.18-354.55 106.2c-129.19-67.99-179.91-225.77-113.29-352.4 66.63-126.64 225.36-174.18 354.55-106.2" fill="#f5c41b"/><path d="m3421.49 3593.3c-127.98-67.35-285.23-20.25-351.23 105.2s-15.75 281.75 112.23 349.1 285.23 20.25 351.23-105.2 15.76-281.75-112.23-349.1zm3.39-6.43c131.6 69.26 183.27 229.98 115.4 358.98-67.87 129.01-229.57 177.44-361.17 108.18-131.61-69.26-183.27-229.98-115.41-358.98 67.87-129.01 229.57-177.44 361.18-108.18" fill="#f5c31b"/><path d="m3423.75 3589.01c-130.39-68.62-290.62-20.63-357.86 107.19-67.25 127.82-16.05 287.07 114.34 355.69 130.4 68.62 290.62 20.63 357.86-107.19 67.25-127.82 16.06-287.07-114.34-355.69zm3.38-6.43c134.02 70.53 186.64 234.2 117.52 365.57-69.11 131.37-233.78 180.69-367.8 110.17-134.02-70.53-186.63-234.2-117.52-365.57s233.78-180.7 367.8-110.17" fill="#f4c21a"/><path d="m3426 3584.72c-132.81-69.89-296-21.01-364.48 109.18-68.49 130.19-16.35 292.38 116.46 362.28 132.81 69.89 296 21.01 364.49-109.18s16.35-292.38-116.47-362.28zm3.39-6.42c136.43 71.79 189.99 238.41 119.63 372.15-70.35 133.74-237.99 183.95-374.42 112.15-136.44-71.8-190-238.42-119.64-372.15 70.36-133.74 237.99-183.95 374.43-112.15" fill="#f4c11a"/><path d="m3428.26 3580.44c-135.22-71.16-301.38-21.4-371.12 111.16-69.73 132.55-16.64 297.7 118.59 368.86 135.22 71.16 301.38 21.4 371.11-111.16 69.73-132.55 16.64-297.7-118.58-368.86zm3.38-6.43c138.85 73.07 193.36 242.64 121.76 378.74-71.6 136.11-242.21 187.21-381.06 114.14s-193.36-242.64-121.75-378.75c71.6-136.1 242.2-187.2 381.05-114.13" fill="#f3c01a"/><path d="m3430.52 3576.15c-137.65-72.43-306.77-21.77-377.75 113.15s-16.94 303.01 120.7 375.45c137.64 72.43 306.76 21.77 377.74-113.14 70.98-134.93 16.94-303.02-120.69-375.46zm3.37-6.42c141.27 74.34 196.73 246.85 123.88 385.32-72.85 138.48-246.42 190.46-387.68 116.13-141.27-74.35-196.73-246.86-123.88-385.34 72.85-138.47 246.42-190.46 387.68-116.11" fill="#f3bf19"/><path d="m3432.77 3571.87c-140.06-73.71-312.14-22.16-384.37 115.13-72.22 137.28-17.24 308.32 122.81 382.03 140.06 73.7 312.15 22.16 384.37-115.13 72.23-137.29 17.24-308.33-122.81-382.03zm3.38-6.43c143.68 75.61 200.08 251.08 125.99 391.92-74.09 140.83-250.63 193.71-394.31 118.1-143.67-75.61-200.08-251.08-125.99-391.92 74.09-140.83 250.63-193.71 394.31-118.1" fill="#f2be19"/><path d="m3435.02 3567.58c-142.47-74.97-317.52-22.54-390.99 117.12-73.48 139.65-17.54 313.64 124.93 388.62 142.47 74.97 317.53 22.54 391-117.12 73.47-139.65 17.53-313.65-124.94-388.62zm3.39-6.43c146.09 76.89 203.45 255.3 128.11 398.51-75.34 143.2-254.85 196.97-400.94 120.08-146.1-76.88-203.45-255.29-128.11-398.5 75.34-143.2 254.84-196.97 400.94-120.09" fill="#f2bd19"/><path d="m3437.28 3563.3c-144.89-76.25-322.91-22.93-397.63 119.09-74.71 142.03-17.83 318.97 127.05 395.22 144.89 76.24 322.91 22.92 397.63-119.1 74.71-142.03 17.83-318.97-127.05-395.21zm3.38-6.43c148.51 78.15 206.81 259.52 130.23 405.09-76.59 145.57-259.06 200.22-407.57 122.07-148.5-78.15-206.81-259.51-130.22-405.09 76.58-145.57 259.05-200.23 407.56-122.07" fill="#f1bc18"/><path d="m3439.54 3559.01c-147.31-77.52-328.29-23.31-404.26 121.08-75.96 144.39-18.13 324.28 129.17 401.8s328.29 23.31 404.25-121.09c75.96-144.38 18.13-324.27-129.16-401.79zm3.37-6.43c150.93 79.42 210.18 263.74 132.35 411.68s-263.27 203.48-414.19 124.06c-150.92-79.43-210.18-263.74-132.35-411.68s263.27-203.48 414.19-124.06" fill="#f1bc18"/><path d="m3441.79 3554.73c-149.72-78.79-333.67-23.69-410.88 123.06-77.21 146.76-18.43 329.6 131.29 408.38 149.71 78.79 333.67 23.69 410.87-123.06 77.21-146.76 18.43-329.6-131.28-408.38zm3.38-6.43c153.34 80.69 213.54 267.95 134.46 418.26-79.07 150.3-267.48 206.74-420.82 126.04-153.33-80.69-213.53-267.96-134.46-418.26 79.08-150.3 267.48-206.74 420.82-126.04" fill="#f0bb18"/><path d="m3444.04 3550.44c-152.13-80.06-339.05-24.07-417.5 125.05s-18.73 334.91 133.4 414.97 339.05 24.07 417.51-125.05c78.45-149.12 18.72-334.91-133.41-414.97zm3.39-6.43c155.75 81.96 216.89 272.18 136.57 424.85s-271.69 210-427.44 128.03c-155.75-81.96-216.9-272.18-136.58-424.85s271.69-210 427.45-128.03" fill="#f0ba17"/><path d="m3446.3 3546.15c-154.55-81.33-344.44-24.45-424.13 127.04-79.7 151.49-19.03 340.23 135.52 421.56 154.54 81.33 344.43 24.45 424.13-127.04s19.02-340.23-135.52-421.56zm3.38-6.43c158.17 83.24 220.26 276.4 138.7 431.44-81.57 155.04-275.91 213.25-434.08 130.02-158.16-83.24-220.26-276.4-138.69-431.44 81.56-155.04 275.91-213.25 434.07-130.02" fill="#efb917"/><path d="m3448.55 3541.87c-156.96-82.6-349.82-24.84-430.76 129.02s-19.32 345.54 137.64 428.14 349.82 24.84 430.76-129.02 19.32-345.55-137.64-428.14zm3.38-6.43c160.59 84.51 223.63 280.61 140.82 438.02s-280.12 216.5-440.7 132c-160.58-84.51-223.62-280.62-140.82-438.02 82.81-157.41 280.12-216.51 440.7-132" fill="#efb817"/><path d="m3450.81 3537.58c-159.38-83.87-355.2-25.22-437.39 131.01-82.19 156.22-19.62 350.86 139.76 434.73 159.37 83.87 355.2 25.22 437.38-131.01 82.19-156.22 19.62-350.86-139.75-434.73zm3.38-6.43c162.99 85.78 226.99 284.84 142.93 444.62-84.06 159.77-284.33 219.75-447.32 133.98-163-85.78-227-284.84-142.94-444.61 84.06-159.78 284.34-219.76 447.33-133.99" fill="#eeb717"/><path d="m3453.06 3533.3c-161.79-85.15-360.58-25.6-444.01 132.99s-19.92 356.17 141.87 441.31c161.79 85.15 360.58 25.6 444.01-132.99 83.44-158.59 19.92-356.17-141.87-441.31zm3.38-6.43c165.41 87.04 230.35 289.05 145.05 451.19s-288.54 223.02-453.95 135.97-230.35-289.05-145.05-451.19 288.54-223.02 453.95-135.97" fill="#eeb616"/><path d="m3455.32 3529.01c-164.21-86.42-365.96-25.98-450.64 134.98s-20.22 361.49 143.99 447.9c164.2 86.41 365.96 25.98 450.64-134.98 84.67-160.96 20.21-361.49-143.99-447.9zm3.38-6.43c167.82 88.32 233.71 293.28 147.16 457.78-86.54 164.51-292.75 226.28-460.57 137.96-167.83-88.32-233.72-293.28-147.17-457.78 86.54-164.52 292.76-226.28 460.58-137.96" fill="#edb516"/><path d="m3457.57 3524.72c-166.62-87.68-371.34-26.36-457.27 136.96-85.92 163.33-20.51 366.81 146.11 454.5 166.62 87.68 371.35 26.36 457.27-136.97 85.92-163.32 20.51-366.8-146.11-454.49zm3.38-6.43c170.24 89.59 237.08 297.5 149.29 464.37-87.79 166.88-296.97 229.53-467.21 139.95-170.24-89.59-237.08-297.5-149.28-464.38 87.79-166.87 296.96-229.52 467.2-139.94" fill="#edb416"/><path d="m3459.82 3520.44c-169.03-88.96-376.72-26.75-463.89 138.94-87.17 165.7-20.8 372.13 148.23 461.08s376.72 26.75 463.89-138.94c87.17-165.7 20.81-372.13-148.23-461.08zm3.39-6.43c172.65 90.86 240.43 301.71 151.4 470.95-89.04 169.25-301.18 232.79-473.83 141.93-172.66-90.86-240.44-301.71-151.41-470.96 89.04-169.24 301.18-232.78 473.84-141.92" fill="#ecb315"/><path d="m3462.08 3516.15c-171.45-90.22-382.11-27.13-470.52 140.94-88.42 168.05-21.1 377.43 150.35 467.66 171.44 90.22 382.1 27.13 470.52-140.93 88.41-168.06 21.1-377.44-150.35-467.67zm3.38-6.43c175.07 92.14 243.81 305.94 153.52 477.55-90.28 171.61-305.39 236.04-480.46 143.91-175.07-92.14-243.8-305.94-153.52-477.55s305.39-236.04 480.46-143.91" fill="#ecb215"/><path d="m3464.33 3511.87c-173.86-91.5-387.48-27.51-477.14 142.91-89.66 170.43-21.4 382.76 152.46 474.25 173.86 91.5 387.49 27.51 477.15-142.91 89.66-170.43 21.4-382.76-152.47-474.25zm3.38-6.43c177.49 93.4 247.17 310.15 155.65 484.13-91.53 173.97-309.61 239.29-487.09 145.89s-247.17-310.16-155.64-484.13 309.6-239.29 487.08-145.89" fill="#ebb115"/><path d="m3466.59 3507.58c-176.28-92.77-392.87-27.89-483.77 144.9-90.91 172.79-21.7 388.07 154.57 480.84 176.28 92.77 392.88 27.89 483.78-144.9 90.9-172.8 21.7-388.07-154.58-480.84zm3.38-6.43c179.9 94.67 250.53 314.37 157.76 490.72-92.78 176.34-313.82 242.55-493.72 147.88s-250.53-314.37-157.75-490.72c92.77-176.35 313.81-242.55 493.71-147.88" fill="#ebb014"/><path d="m3468.84 3503.29c-178.69-94.03-398.25-28.27-490.4 146.89s-21.99 393.39 156.7 487.43c178.69 94.03 398.25 28.27 490.4-146.89s22-393.39-156.7-487.43zm3.39-6.43c182.31 95.95 253.89 318.6 159.87 497.31s-318.03 245.81-500.34 149.87c-182.32-95.95-253.89-318.6-159.88-497.31 94.02-178.71 318.03-245.81 500.35-149.87" fill="#eaaf14"/><path d="m3471.1 3499.01c-181.11-95.31-403.64-28.66-497.03 148.87s-22.29 398.71 158.81 494.01c181.11 95.31 403.64 28.66 497.03-148.87 93.4-177.53 22.3-398.7-158.81-494.01zm3.38-6.43c184.73 97.21 257.25 322.81 161.99 503.89s-322.24 249.07-506.97 151.85c-184.73-97.21-257.25-322.82-161.99-503.89 95.26-181.08 322.24-249.07 506.97-151.85" fill="#eaae14"/><path d="m3473.36 3494.72c-183.53-96.58-409.02-29.04-503.66 150.86-94.65 179.89-22.59 404.02 160.93 500.6s409.01 29.03 503.66-150.86c94.64-179.89 22.59-404.02-160.93-500.6zm3.37-6.43c187.15 98.49 260.62 327.03 164.11 510.48-96.5 183.44-326.45 252.32-513.59 153.84-187.15-98.49-260.62-327.04-164.11-510.48 96.51-183.45 326.45-252.32 513.59-153.84" fill="#e9ad13"/><path d="m3475.61 3490.43c-185.93-97.84-414.4-29.41-510.29 152.85-95.88 182.26-22.88 409.33 163.06 507.18 185.93 97.85 414.39 29.42 510.28-152.84 95.88-182.26 22.88-409.33-163.05-507.19zm3.38-6.42c189.56 99.75 263.98 331.25 166.22 517.06-97.75 185.82-330.66 255.57-520.22 155.82s-263.98-331.25-166.22-517.06c97.75-185.82 330.66-255.58 520.22-155.82" fill="#e9ac13"/><path d="m3477.86 3486.15c-188.35-99.12-419.78-29.8-516.91 154.83s-23.18 414.65 165.17 513.77 419.78 29.8 516.91-154.83 23.18-414.65-165.17-513.77zm3.39-6.43c191.97 101.03 267.34 335.48 168.34 523.65-99 188.18-334.88 258.83-526.85 157.81-191.97-101.03-267.35-335.48-168.35-523.66 99-188.17 334.88-258.82 526.86-157.8" fill="#e9ab13"/><path d="m3480.12 3481.86c-190.76-100.39-425.16-30.18-523.54 156.82-98.38 186.99-23.48 419.96 167.28 520.36 190.77 100.39 425.16 30.18 523.54-156.82 98.38-186.99 23.48-419.97-167.28-520.36zm3.38-6.43c194.39 102.3 270.7 339.7 170.46 530.25-100.25 190.54-339.09 262.08-533.48 159.78-194.39-102.29-270.7-339.69-170.46-530.24 100.25-190.54 339.09-262.08 533.48-159.79" fill="#e8aa12"/><path d="m3482.38 3477.58c-193.19-101.67-430.55-30.57-530.17 158.8-99.62 189.36-23.78 425.28 169.4 526.94s430.54 30.57 530.16-158.8c99.62-189.36 23.78-425.28-169.39-526.94zm3.37-6.43c196.8 103.57 274.07 343.91 172.59 536.83-101.5 192.91-343.31 265.34-540.11 161.77s-274.07-343.91-172.58-536.83c101.49-192.91 343.3-265.34 540.1-161.77" fill="#e8aa12"/><path d="m3484.63 3473.29c-195.59-102.93-435.93-30.95-536.79 160.78-100.87 191.73-24.08 430.61 171.52 533.54 195.59 102.93 435.92 30.94 536.78-160.79 100.88-191.72 24.08-430.59-171.51-533.53zm3.38-6.43c199.22 104.84 277.43 348.14 174.7 543.42-102.74 195.28-347.52 268.59-546.74 163.76-199.21-104.84-277.43-348.14-174.69-543.42 102.73-195.28 347.51-268.59 546.73-163.76" fill="#e7a912"/><path d="m3486.88 3469c-198.01-104.2-441.3-31.32-543.42 162.77-102.11 194.1-24.37 435.92 173.64 540.12s441.31 31.33 543.42-162.76c102.11-194.1 24.37-435.92-173.64-540.13zm3.39-6.42c201.63 106.11 280.79 352.35 176.81 550s-351.73 271.85-553.36 165.74-280.79-352.35-176.81-550c103.98-197.64 351.72-271.85 553.36-165.74" fill="#e7a811"/><path d="m3489.14 3464.72c-200.43-105.47-446.69-31.71-550.05 164.75s-24.67 441.23 175.75 546.71c200.43 105.47 446.7 31.71 550.05-164.75 103.36-196.47 24.67-441.23-175.75-546.71zm3.38-6.43c204.05 107.38 284.16 356.57 178.93 556.59-105.22 200.01-355.94 275.11-559.99 167.73-204.04-107.38-284.15-356.57-178.93-556.59 105.23-200.01 355.94-275.11 559.99-167.73" fill="#e6a711"/><path d="m3491.39 3460.43c-202.84-106.74-452.07-32.09-556.67 166.74s-24.97 446.55 177.87 553.29c202.84 106.75 452.07 32.1 556.68-166.73 104.6-198.83 24.96-446.55-177.88-553.3zm3.38-6.43c206.47 108.66 287.52 360.8 181.05 563.18s-360.15 278.36-566.61 169.71-287.52-360.79-181.05-563.17 360.15-278.36 566.61-169.72" fill="#e6a611"/><path d="m3493.65 3456.15c-205.26-108.02-457.45-32.48-563.3 168.72s-25.26 451.86 179.99 559.88 457.45 32.48 563.3-168.72c105.84-201.2 25.26-451.87-179.99-559.88zm3.38-6.43c208.88 109.92 290.88 365.01 183.17 569.76-107.72 204.75-364.37 281.62-573.25 171.7-208.87-109.92-290.88-365.02-183.16-569.76 107.71-204.75 364.36-281.62 573.24-171.7" fill="#e5a510"/><path d="m3495.9 3451.86c-207.67-109.28-462.83-32.86-569.92 170.71-107.1 203.56-25.57 457.18 182.1 566.47 207.67 109.28 462.83 32.85 569.93-170.71 107.09-203.56 25.56-457.18-182.11-566.47zm3.39-6.43c211.28 111.2 294.24 369.23 185.28 576.35s-368.58 284.88-579.87 173.68c-211.29-111.19-294.25-369.23-185.29-576.34 108.97-207.12 368.58-284.88 579.88-173.69" fill="#e5a410"/><path d="m3498.16 3447.57c-210.09-110.55-468.22-33.23-576.56 172.7-108.33 205.93-25.86 462.5 184.23 573.05 210.08 110.56 468.21 33.24 576.55-172.69s25.86-462.49-184.22-573.06zm3.38-6.42c213.7 112.46 297.6 373.45 187.4 582.93-110.21 209.48-372.79 288.13-586.49 175.67-213.71-112.46-297.61-373.45-187.41-582.93 110.21-209.48 372.79-288.14 586.5-175.67" fill="#e4a310"/><path d="m3500.41 3443.29c-212.5-111.83-473.59-33.62-583.18 174.67-109.59 208.31-26.16 467.82 186.34 579.65s473.6 33.62 583.18-174.68c109.59-208.3 26.16-467.81-186.34-579.64zm3.38-6.43c216.12 113.73 300.97 377.68 189.52 589.52-111.45 211.85-377 291.39-593.12 177.66-216.12-113.74-300.97-377.68-189.52-589.52 111.46-211.85 377-291.39 593.12-177.66" fill="#e4a20f"/><path d="m3502.67 3439.01c-214.92-113.1-478.98-34.01-589.81 176.66-110.83 210.66-26.46 473.13 188.46 586.22 214.91 113.1 478.98 34.01 589.81-176.66 110.82-210.66 26.45-473.13-188.46-586.22zm3.38-6.43c218.53 115 304.33 381.88 191.63 596.1-112.69 214.22-381.21 294.65-599.74 179.64-218.54-115-304.34-381.89-191.64-596.11 112.7-214.21 381.22-294.64 599.75-179.63" fill="#e3a10f"/><path d="m3504.92 3434.72c-217.33-114.37-484.36-34.39-596.44 178.65-112.07 213.03-26.75 478.44 190.58 592.81s484.36 34.39 596.44-178.65c112.07-213.03 26.75-478.44-190.58-592.81zm3.38-6.43c220.95 116.28 307.7 386.11 193.75 602.69-113.94 216.59-385.42 297.9-606.37 181.63-220.95-116.28-307.7-386.11-193.75-602.7 113.94-216.58 385.42-297.89 606.37-181.62" fill="#e3a00f"/><path d="m3507.18 3430.43c-219.75-115.64-489.75-34.77-603.07 180.63s-27.04 483.76 192.7 599.4c219.74 115.65 489.74 34.77 603.06-180.62 113.32-215.4 27.05-483.77-192.69-599.41zm3.38-6.43c223.36 117.55 311.06 390.34 195.87 609.29-115.19 218.94-389.64 301.15-613 183.6-223.37-117.54-311.06-390.33-195.88-609.28 115.19-218.95 389.65-301.15 613.01-183.61" fill="#e29f0f"/><path d="m3509.43 3426.15c-222.16-116.92-495.13-35.15-609.69 182.61-114.56 217.77-27.35 489.08 194.81 605.99s495.13 35.15 609.69-182.61c114.56-217.77 27.35-489.08-194.81-605.99zm3.38-6.43c225.78 118.82 314.42 394.55 197.99 615.87-116.43 221.31-393.85 304.41-619.63 185.59s-314.42-394.55-197.99-615.87c116.43-221.31 393.85-304.41 619.63-185.59" fill="#e29e0e"/><path d="m3511.68 3421.86c-224.57-118.18-500.5-35.53-616.31 184.6-115.81 220.14-27.64 494.4 196.93 612.58s500.5 35.53 616.32-184.61c115.81-220.13 27.64-494.39-196.94-612.57zm3.39-6.43c228.19 120.09 317.78 398.77 200.1 622.46-117.67 223.68-398.06 307.66-626.25 187.57-228.2-120.08-317.79-398.76-200.11-622.45s398.07-307.67 626.26-187.58" fill="#e19d0e"/><path d="m3513.94 3417.58c-226.99-119.45-505.89-35.92-622.94 186.58-117.06 222.5-27.94 499.71 199.04 619.16 226.99 119.46 505.89 35.92 622.94-186.58 117.06-222.5 27.95-499.71-199.04-619.16zm3.38-6.43c230.61 121.35 321.15 402.99 202.23 629.04-118.93 226.05-402.28 310.92-632.89 189.56s-321.14-402.99-202.22-629.04 402.27-310.92 632.88-189.56" fill="#e19c0e"/><path d="m3516.2 3413.29c-229.41-120.72-511.27-36.3-629.57 188.57-118.31 224.87-28.24 505.03 201.16 625.75s511.27 36.3 629.57-188.57 28.24-505.03-201.16-625.75zm3.37-6.43c233.03 122.63 324.52 407.21 204.35 635.63s-406.49 314.18-639.51 191.55c-233.03-122.63-324.52-407.21-204.34-635.63 120.16-228.42 406.48-314.18 639.5-191.55" fill="#e09b0d"/><path d="m3518.45 3409c-231.82-121.99-516.65-36.68-636.2 190.56-119.54 227.23-28.53 510.34 203.29 632.33 231.81 122 516.64 36.68 636.19-190.55s28.54-510.34-203.28-632.34zm3.38-6.43c235.44 123.91 327.87 411.43 206.46 642.22-121.41 230.78-410.7 317.43-646.14 193.53s-327.87-411.43-206.45-642.21c121.41-230.79 410.69-317.43 646.13-193.54" fill="#e09a0d"/><path d="m3520.7 3404.72c-234.23-123.27-522.03-37.06-642.82 192.54s-28.83 515.65 205.4 638.92 522.03 37.06 642.83-192.54c120.78-229.6 28.83-515.66-205.41-638.92zm3.39-6.43c237.85 125.17 331.23 415.65 208.57 648.8-122.66 233.16-414.91 320.69-652.76 195.52-237.86-125.17-331.24-415.65-208.58-648.81 122.66-233.15 414.91-320.68 652.77-195.51" fill="#df990d"/><path d="m3522.96 3400.43c-236.65-124.54-527.42-37.44-649.45 194.53-122.04 231.97-29.13 520.97 207.51 645.5 236.65 124.54 527.42 37.45 649.46-194.52 122.03-231.97 29.13-520.97-207.52-645.51zm3.38-6.43c240.27 126.45 334.6 419.87 210.7 655.39-123.91 235.52-419.13 323.95-659.4 197.5-240.26-126.44-334.6-419.86-210.69-655.38 123.91-235.53 419.12-323.95 659.39-197.51" fill="#df980c"/><path d="m3525.21 3396.15c-239.06-125.81-532.79-37.83-656.07 196.51-123.29 234.33-29.43 526.29 209.63 652.09 239.06 125.81 532.8 37.83 656.08-196.51 123.28-234.33 29.42-526.29-209.64-652.09zm3.38-6.43c242.69 127.71 337.96 424.08 212.82 661.97-125.15 237.89-423.34 327.2-666.02 199.49-242.69-127.71-337.96-424.09-212.82-661.97 125.16-237.89 423.34-327.21 666.02-199.49" fill="#de980c"/><path d="m3527.47 3391.86c-241.48-127.07-538.18-38.21-662.7 198.5-124.54 236.7-29.73 531.6 211.75 658.68 241.47 127.07 538.17 38.21 662.7-198.5 124.53-236.7 29.72-531.6-211.75-658.68zm3.38-6.43c245.1 128.98 341.33 428.31 214.93 668.57-126.4 240.25-427.55 330.45-672.65 201.47-245.09-128.99-341.32-428.31-214.93-668.57 126.4-240.25 427.55-330.45 672.65-201.47" fill="#de970c"/><path d="m3529.72 3387.57c-243.89-128.34-543.56-38.59-669.33 200.48-125.77 239.08-30.02 536.93 213.87 665.27 243.89 128.35 543.56 38.59 669.33-200.48s30.02-536.92-213.87-665.27zm3.39-6.43c247.51 130.26 344.68 432.54 217.04 675.16s-431.76 333.71-679.27 203.45c-247.51-130.25-344.69-432.52-217.05-675.15 127.64-242.62 431.76-333.71 679.28-203.46" fill="#dd960b"/><path d="m3531.98 3383.29c-246.3-129.62-548.94-38.97-675.96 202.46-127.02 241.44-30.32 542.24 215.98 671.86 246.31 129.62 548.95 38.97 675.96-202.47 127.02-241.43 30.32-542.23-215.98-671.85zm3.38-6.43c249.93 131.52 348.05 436.75 219.16 681.73-128.88 245-435.97 336.97-685.89 205.45-249.93-131.52-348.06-436.75-219.17-681.74 128.88-244.99 435.97-336.96 685.9-205.44" fill="#dd950b"/><path d="m3534.23 3379c-248.72-130.89-554.32-39.35-682.59 204.45-128.26 243.81-30.61 547.55 218.11 678.44 248.72 130.9 554.32 39.36 682.59-204.44 128.26-243.81 30.61-547.56-218.11-678.45zm3.38-6.43c252.35 132.8 351.42 440.97 221.28 688.32-130.12 247.36-440.18 340.23-692.52 207.43-252.34-132.79-351.41-440.96-221.28-688.32 130.13-247.35 440.18-340.22 692.52-207.43" fill="#dd940b"/><path d="m3536.49 3374.71c-251.13-132.15-559.71-39.73-689.22 206.44-129.5 246.17-30.91 552.87 220.23 685.03 251.13 132.16 559.7 39.74 689.21-206.43s30.91-552.87-220.22-685.04zm3.38-6.42c254.76 134.07 354.77 445.19 223.4 694.91-131.38 249.72-444.4 343.48-699.16 209.41-254.75-134.07-354.77-445.19-223.4-694.91 131.38-249.72 444.4-343.48 699.16-209.41" fill="#dc930a"/><path d="m3538.74 3370.43c-253.55-133.43-565.09-40.12-695.84 208.42s-31.2 558.19 222.34 691.62c253.55 133.43 565.09 40.12 695.84-208.42 130.76-248.54 31.21-558.19-222.34-691.62zm3.39-6.43c257.17 135.34 358.13 449.41 225.51 701.5s-448.61 346.73-705.78 211.4c-257.17-135.34-358.14-449.41-225.52-701.5s448.61-346.74 705.79-211.4" fill="#dc920a"/><path d="m3541 3366.14c-255.96-134.7-570.47-40.5-702.47 210.41-132 250.9-31.51 563.5 224.45 698.2 255.97 134.71 570.47 40.5 702.48-210.4 131.99-250.91 31.5-563.5-224.46-698.21zm3.38-6.43c259.58 136.61 361.5 453.63 227.63 708.09s-452.82 349.99-712.41 213.38c-259.58-136.61-361.49-453.63-227.63-708.08 133.87-254.46 452.82-349.99 712.41-213.39" fill="#db910a"/><path d="m3543.25 3361.86c-258.38-135.97-575.85-40.88-709.09 212.39-133.25 253.27-31.8 568.82 226.57 704.79 258.38 135.97 575.85 40.88 709.1-212.39 133.24-253.27 31.8-568.82-226.58-704.79zm3.39-6.43c261.99 137.88 364.86 457.85 229.75 714.67-135.12 256.82-457.04 353.25-719.04 215.37s-364.87-457.85-229.75-714.67c135.11-256.82 457.03-353.25 719.04-215.37" fill="#db9009"/><path d="m3545.51 3357.57c-260.8-137.24-581.24-41.26-715.72 214.38-134.5 255.64-32.11 574.13 228.69 711.37 260.79 137.25 581.23 41.27 715.72-214.37s32.1-574.13-228.69-711.38zm3.38-6.43c264.41 139.15 368.22 462.07 231.87 721.26-136.36 259.19-461.25 356.51-725.67 217.35-264.41-139.14-368.22-462.06-231.86-721.25 136.35-259.19 461.24-356.51 725.66-217.36" fill="#da8f09"/><path d="m3547.76 3353.29c-263.21-138.52-586.61-41.65-722.35 216.36-135.73 258-32.4 579.45 230.81 717.96 263.21 138.52 586.62 41.65 722.35-216.36 135.73-258 32.4-579.45-230.81-717.96zm3.38-6.43c266.83 140.42 371.59 466.28 233.99 727.84s-465.46 359.76-732.29 219.34-371.59-466.29-233.98-727.84c137.6-261.56 465.45-359.76 732.28-219.34" fill="#da8e09"/><path d="m3550.02 3349c-265.63-139.79-592-42.03-728.98 218.34-136.98 260.38-32.7 584.77 232.93 724.56 265.62 139.78 591.99 42.03 728.97-218.35 136.99-260.37 32.7-584.76-232.92-724.55zm3.38-6.43c269.24 141.7 374.95 470.51 236.1 734.43-138.84 263.93-469.67 363.02-738.91 221.33-269.25-141.7-374.96-470.51-236.11-734.44 138.85-263.92 469.67-363.01 738.92-221.32" fill="#d98d08"/><path d="m3552.27 3344.71c-268.04-141.05-597.38-42.41-735.6 220.34-138.23 262.74-32.99 590.08 235.04 731.13 268.04 141.06 597.38 42.41 735.61-220.33 138.22-262.74 32.99-590.08-235.05-731.14zm3.38-6.42c271.66 142.96 378.32 474.72 238.23 741.01-140.1 266.29-473.89 366.27-745.55 223.31s-378.31-474.72-238.22-741.02c140.09-266.29 473.88-366.27 745.54-223.3" fill="#d98c08"/><path d="m3554.53 3340.43c-270.46-142.32-602.76-42.79-742.24 222.32-139.47 265.1-33.29 595.39 237.17 737.72 270.45 142.32 602.76 42.79 742.23-222.32 139.47-265.1 33.29-595.39-237.16-737.72zm3.38-6.43c274.07 144.23 381.68 478.95 240.34 747.61-141.34 268.65-478.1 369.52-752.17 225.29-274.08-144.24-381.68-478.95-240.35-747.61 141.35-268.65 478.11-369.52 752.18-225.29" fill="#d88b08"/><path d="m3556.78 3336.14c-272.87-143.59-608.14-43.17-748.86 224.3-140.71 267.48-33.58 600.72 239.28 744.31 272.87 143.6 608.14 43.18 748.86-224.29 140.72-267.48 33.58-600.72-239.28-744.32zm3.38-6.43c276.49 145.51 385.04 483.17 242.46 754.2-142.58 271.02-482.31 372.78-758.8 227.27-276.49-145.5-385.04-483.16-242.46-754.19 142.59-271.03 482.31-372.78 758.8-227.28" fill="#d88a07"/><path d="m3559.04 3331.86c-275.29-144.87-613.53-43.56-755.49 226.28s-33.88 606.04 241.4 750.9c275.28 144.87 613.52 43.56 755.48-226.29 141.96-269.84 33.89-606.02-241.39-750.89zm3.38-6.43c278.9 146.77 388.4 487.38 244.57 760.78-143.83 273.39-486.52 376.03-765.42 229.26-278.91-146.77-388.41-487.38-244.58-760.78 143.83-273.39 486.53-376.03 765.43-229.26" fill="#d78907"/><path d="m3561.29 3327.57c-277.7-146.14-618.9-43.94-762.11 228.27s-34.18 611.35 243.52 757.49c277.69 146.13 618.9 43.94 762.1-228.28 143.21-272.2 34.19-611.34-243.51-757.48zm3.38-6.43c281.32 148.05 391.77 491.61 246.69 767.37-145.07 275.76-490.73 379.29-772.05 231.25-281.31-148.05-391.76-491.61-246.69-767.37 145.08-275.76 490.73-379.29 772.05-231.25" fill="#d78807"/><path d="m3563.54 3323.29c-280.11-147.41-624.28-44.33-768.74 230.25-144.44 274.58-34.47 616.66 245.64 764.07s624.29 44.32 768.74-230.25c144.45-274.58 34.48-616.66-245.64-764.07zm3.39-6.43c283.73 149.31 395.12 495.82 248.81 773.95-146.33 278.12-494.95 382.55-778.69 233.23-283.73-149.31-395.12-495.83-248.8-773.95 146.32-278.13 494.95-382.55 778.68-233.23" fill="#d68707"/><path d="m3565.8 3319c-282.53-148.68-629.67-44.7-775.37 232.24s-34.77 621.97 247.75 770.66c282.53 148.68 629.67 44.7 775.37-232.24 145.7-276.95 34.78-621.98-247.75-770.66zm3.38-6.43c286.15 150.59 398.49 500.05 250.93 780.54-147.57 280.49-499.16 385.8-785.31 235.22-286.15-150.59-398.49-500.05-250.92-780.54 147.56-280.49 499.15-385.81 785.3-235.22" fill="#d68606"/><path d="m3568.05 3314.71c-284.94-149.95-635.05-45.08-781.99 234.23s-35.07 627.29 249.87 777.25c284.94 149.95 635.05 45.08 781.99-234.23s35.08-627.3-249.87-777.25zm3.38-6.42c288.57 151.85 401.86 504.26 253.05 787.12s-503.37 389.06-791.93 237.2c-288.57-151.85-401.86-504.26-253.05-787.12s503.38-389.06 791.93-237.2" fill="#d58606"/><path d="m3570.31 3310.43c-287.36-151.22-640.43-45.47-788.62 236.21-148.19 281.67-35.37 632.61 251.99 783.83 287.35 151.22 640.43 45.47 788.61-236.21 148.19-281.67 35.37-632.61-251.98-783.83zm3.38-6.43c290.98 153.13 405.22 508.48 255.16 793.71-150.05 285.23-507.58 392.32-798.56 239.19s-405.22-508.49-255.16-793.72c150.06-285.22 507.58-392.31 798.56-239.18" fill="#d58506"/><path d="m3572.56 3306.14c-289.77-152.49-645.81-45.85-795.24 238.2-149.44 284.04-35.67 637.92 254.1 790.41 289.77 152.5 645.81 45.86 795.25-238.19 149.43-284.04 35.66-637.92-254.11-790.42zm3.39-6.43c293.39 154.4 408.58 512.71 257.28 800.3-151.3 287.6-511.8 395.57-805.19 241.17-293.4-154.39-408.58-512.7-257.28-800.29 151.3-287.6 511.79-395.57 805.19-241.18" fill="#d48405"/><path d="m3574.82 3301.86c-292.19-153.77-651.2-46.23-801.87 240.18-150.68 286.41-35.97 643.24 256.21 797 292.19 153.76 651.2 46.23 801.88-240.18 150.67-286.41 35.96-643.24-256.22-797zm3.38-6.43c295.81 155.67 411.94 516.92 259.4 806.88-152.55 289.96-516.01 398.83-811.81 243.16-295.81-155.67-411.95-516.92-259.41-806.88 152.55-289.96 516.01-398.83 811.82-243.16" fill="#d48305"/><path d="m3577.07 3297.57c-294.6-155.03-656.57-46.61-808.5 242.16-151.92 288.78-36.26 648.56 258.34 803.6 294.6 155.03 656.58 46.61 808.5-242.17 151.93-288.77 36.26-648.55-258.34-803.59zm3.39-6.43c298.22 156.94 415.3 521.15 261.51 813.48s-520.22 402.08-818.44 245.13c-298.23-156.93-415.31-521.14-261.51-813.47 153.78-292.33 520.21-402.08 818.44-245.14" fill="#d38205"/><path d="m3579.33 3293.29c-297.02-156.31-661.96-47-815.13 244.14-153.17 291.15-36.56 653.88 260.46 810.18 297.01 156.31 661.96 47 815.12-244.15 153.17-291.14 36.56-653.87-260.45-810.17zm3.38-6.43c300.64 158.21 418.67 525.36 263.63 820.06-155.04 294.69-524.43 405.33-825.07 247.12-300.63-158.21-418.66-525.36-263.63-820.06 155.04-294.69 524.43-405.34 825.07-247.12" fill="#d38104"/><path d="m3581.58 3289c-299.43-157.57-667.34-47.38-821.75 246.13-154.42 293.51-36.86 659.19 262.57 816.77s667.34 47.38 821.76-246.13c154.41-293.52 36.85-659.2-262.58-816.77zm3.38-6.43c303.06 159.48 422.04 529.58 265.75 826.64-156.28 297.07-528.64 408.6-831.69 249.12s-422.04-529.58-265.75-826.65c156.28-297.06 528.64-408.59 831.69-249.11" fill="#d28004"/><path d="m3583.84 3284.71c-301.85-158.84-672.73-47.76-828.39 248.12-155.65 295.88-37.15 664.51 264.69 823.35 301.85 158.85 672.73 47.77 828.39-248.11s37.15-664.51-264.69-823.36zm3.38-6.42c305.47 160.75 425.39 533.8 267.87 833.23-157.53 299.43-532.86 411.85-838.33 251.09-305.46-160.75-425.39-533.8-267.86-833.23s532.85-411.85 838.32-251.09" fill="#d27f04"/><path d="m3586.09 3280.43c-304.26-160.12-678.1-48.14-835.01 250.1-156.9 298.25-37.45 669.82 266.81 829.94s678.11 48.14 835.01-250.1c156.9-298.25 37.45-669.82-266.81-829.94zm3.39-6.43c307.88 162.02 428.75 538.02 269.98 839.82s-537.07 415.1-844.95 253.08-428.76-538.02-269.99-839.82c158.78-301.8 537.07-415.1 844.96-253.08" fill="#d17e03"/><path d="m3588.35 3276.14c-306.67-161.39-683.49-48.52-841.64 252.09s-37.75 675.14 268.93 836.53c306.67 161.38 683.48 48.52 841.63-252.09 158.15-300.62 37.75-675.14-268.92-836.53zm2.25-4.28c309.09 162.66 430.44 540.13 271.04 843.11-159.39 302.98-539.17 416.73-848.26 254.07-309.09-162.65-430.43-540.13-271.04-843.11s539.17-416.73 848.26-254.07" fill="#d17d03"/></g><g clip-path="url(#u)" transform="matrix(.13333333 0 0 -.13333333 -307.199994 628.799984)"><path d="m3727.36 3665.31c-177.13-132.53-368.84-203.38-575.79-193.58 213.27-237.46 605.71-237.77 591.48 205.53-5.21-4.05-10.45-8.03-15.69-11.95" fill="url(#v)"/></g><g clip-path="url(#w)" transform="matrix(.13333333 0 0 -.13333333 -307.199994 628.799984)"><path d="m3743.05 3677.26c14.23-443.3-378.21-442.99-591.48-205.53 206.78-319.43 669.71-243.15 603.27 214.78-3.92-3.11-7.85-6.19-11.79-9.25" fill="url(#x)"/></g><g clip-path="url(#y)" transform="matrix(.13333333 0 0 -.13333333 -307.199994 628.799984)"><path d="m3358.99 3779.88c20.74 10.32 55.05-6.13 74.63-42.75 19.59-36.64 10.72-73.15-11.18-84.6-21.89-11.45-54.26 4.24-72.7 40.1s-11.49 76.94 9.25 87.25" fill="url(#A)"/></g><g clip-path="url(#B)" transform="matrix(.13333333 0 0 -.13333333 -307.199994 628.799984)"><path d="m2739.25 3210.3-79.84 73.09-1.21 1.11v754.57h5.1v-.01l496.22 2.55 81.03-74.18 2.28-2.09-.01-297.72v-3.69h-3.68-186.48v-452.03-3.69h-3.7-254.96-47.36-5.11l-1.07.98z" fill="url(#D)"/></g><g clip-path="url(#E)" transform="matrix(.13333333 0 0 -.13333333 -307.199994 628.799984)"><path d="m3526.4 3860.25c20.74 10.32 55.05-6.12 74.63-42.75 19.59-36.64 10.72-73.15-11.18-84.6-21.89-11.45-54.26 4.23-72.69 40.1-18.45 35.86-11.5 76.94 9.24 87.25" fill="url(#F)"/></g><g clip-path="url(#G)" transform="matrix(.13333333 0 0 -.13333333 -307.199994 628.799984)"><path d="m3235.46 3960.04h-488.82v-744.44h298.63v452.02 3.69h3.69 186.5z" fill="url(#I)"/></g><g clip-path="url(#J)" transform="matrix(.13333333 0 0 -.13333333 -307.199994 628.799984)"><path d="m2671.41 4031.74 72.94-65.86 485.36 1.51-73.03 66.86z" fill="url(#K)"/></g><g clip-path="url(#L)" transform="matrix(.13333333 0 0 -.13333333 -307.199994 628.799984)"><path d="m2739.25 3960.57-73.66 66.52v-739.39l73.66-67.43z" fill="url(#M)"/></g><g clip-path="url(#N)" transform="matrix(.13333333 0 0 -.13333333 -307.199994 628.799984)"><path d="m2358.41 3782.94-38.56 34.81-1.22 1.11v1.62l.01 214.9v3.69h3.68 1.41 297.55l2.46-.95 78.29-70.69 4.31-3.7v-.19-215.15-3.7h-3.7-37.05v-1.96l40.75-36.74v-494.09-3.69h-3.7-211.28-86.01-5.08l-1.07.95-1.24 1.11-78.1 70-1.24 1.11v1.63 496.23 3.7h3.7 1.41z" fill="url(#O)"/></g><g clip-path="url(#P)" transform="matrix(.13333333 0 0 -.13333333 -307.199994 628.799984)"><path d="m2331.91 3775.55 74.8-67.55h286.33l-40.62 36.69h-254.46v2.63l-31.25 28.23z" fill="url(#Q)"/></g><g clip-path="url(#R)" transform="matrix(.13333333 0 0 -.13333333 -307.199994 628.799984)"><path d="m2698.95 3215.6v485.02h-293.59v-485.02z" fill="url(#S)"/></g><g clip-path="url(#T)" transform="matrix(.13333333 0 0 -.13333333 -307.199994 628.799984)"><path d="m2403.07 3967.43h287.95l-71.16 64.25h-287.94z" fill="url(#U)"/></g><g clip-path="url(#V)" transform="matrix(.13333333 0 0 -.13333333 -307.199994 628.799984)"><path d="m2397.96 3757.13v204.97l-71.96 64.99v-204.97z" fill="url(#W)"/></g><g clip-path="url(#X)" transform="matrix(.13333333 0 0 -.13333333 -307.199994 628.799984)"><path d="m2698.95 3960.04h-293.59v-207.96h293.59z" fill="url(#Y)"/></g><g clip-path="url(#Z)" transform="matrix(.13333333 0 0 -.13333333 -307.199994 628.799984)"><path d="m2325.01 3284.38 73.88-65.58v486.06l-73.88 66.08z" fill="url(#aa)"/></g></svg>