<svg height="94.062851" width="94.062851" xmlns="http://www.w3.org/2000/svg"><g fill="none" transform="matrix(.21011019 0 0 .21011019 488.52147 -110.88312)"><path d="m-2932.0193 498.61905h1686.4043v505.92125h-1686.4043z"/><path d="m-2150.8516 625.87431c-49.1292 0-88.9559 39.8269-88.9559 88.9559 0 3.818.2561 7.5949.7227 11.2862-.7036-.019-1.4042-.056-2.1127-.056-41.7597 0-75.6125 33.8529-75.6125 75.6125s33.8528 75.6125 75.6125 75.6125h293.2763c34.3902 0 62.2692-27.8788 62.2692-62.2691s-27.879-62.2691-62.2692-62.2691c-.1124 0-.2225-.0006-.3335 0 .08-1.5529.1673-3.0972.1673-4.6702 0-49.1289-39.827-88.9558-88.956-88.9558-13.7113 0-26.7078 3.1324-38.3065 8.6732-15.7124-25.168-43.6455-41.9205-75.5015-41.9205z" fill="#fff" stroke="#000" stroke-width="16.525427"/></g></svg>