<svg height="209.99965" viewBox="0 0 246.95959 242.80759" width="209.99965" xmlns="http://www.w3.org/2000/svg" xmlns:xlink="http://www.w3.org/1999/xlink"><filter id="a" filterUnits="userSpaceOnUse" height="6.629" width="14.927" x="162.67999" y="18.355"><feColorMatrix values="1 0 0 0 0 0 1 0 0 0 0 0 1 0 0 0 0 0 1 0"/></filter><linearGradient id="b" gradientUnits="userSpaceOnUse" x1="199.532999" x2="39.679" y1="201.906427" y2="42.052428"><stop offset="0" stop-color="#130036"/><stop offset=".23" stop-color="#18023b"/><stop offset=".512" stop-color="#26094a"/><stop offset=".821" stop-color="#3d1563"/><stop offset="1" stop-color="#4e1d75"/></linearGradient><linearGradient id="c" gradientUnits="userSpaceOnUse" x1="10.242999" x2="57.703998" y1="95.310424" y2="95.310424"><stop offset="0" stop-color="#3156a8"/><stop offset=".247" stop-color="#3351a4"/><stop offset=".536" stop-color="#3b4397"/><stop offset=".845" stop-color="#472c82"/><stop offset="1" stop-color="#4e1d75"/></linearGradient><radialGradient id="d" cx="59.073002" cy="113.923" gradientTransform="matrix(1 0 0 1.45 -.000001 -51.265572)" gradientUnits="userSpaceOnUse" r="85.247002"><stop offset=".165" stop-color="#14cdda"/><stop offset=".548" stop-color="#2061bd"/><stop offset=".655" stop-color="#2658ac"/><stop offset=".864" stop-color="#373f81"/><stop offset="1" stop-color="#432d62"/></radialGradient><linearGradient id="e" gradientUnits="userSpaceOnUse" x1="44.539" x2="191.514999" y1="57.897426" y2="57.897426"><stop offset="0" stop-color="#2061bd"/><stop offset=".185" stop-color="#2b51ac"/><stop offset=".683" stop-color="#442c84"/><stop offset=".941" stop-color="#4e1d75"/></linearGradient><linearGradient id="f" gradientUnits="userSpaceOnUse" x1="66.174003" x2="167.264009" y1="23.205426" y2="111.081427"><stop offset=".02" stop-color="#48a8e0"/><stop offset=".388" stop-color="#2061bd"/><stop offset=".497" stop-color="#2b51ac"/><stop offset=".789" stop-color="#442c84"/><stop offset=".941" stop-color="#4e1d75"/></linearGradient><linearGradient id="g" gradientUnits="userSpaceOnUse" x1="19.676" x2="217.835009" y1="337.413427" y2="43.630428"><stop offset=".379" stop-color="#3156a8"/><stop offset="1" stop-color="#4e1d75"/></linearGradient><linearGradient id="h" gradientUnits="userSpaceOnUse" x1="96.745002" x2="206.316999" y1="278.645427" y2="32.541427"><stop offset="0" stop-color="#29abe2"/><stop offset=".773" stop-color="#385aa6"/><stop offset=".858" stop-color="#414293"/><stop offset="1" stop-color="#4e1d75"/></linearGradient><linearGradient id="i" gradientUnits="userSpaceOnUse" x1="48.269" x2="54.241" y1="92.033424" y2="95.467429"><stop offset="0" stop-color="#b0dcd6"/><stop offset="1" stop-color="#53ace0"/></linearGradient><mask id="j" height="6.629" maskUnits="userSpaceOnUse" width="14.927" x="162.68" y="18.355"><g filter="url(#a)"><path d="m91.295-7.218h100.015v93.339h-100.015z" fill="url(#k)"/></g></mask><radialGradient id="k" cx="154.384" cy="67.999001" gradientUnits="userSpaceOnUse" r="51.967999"><stop offset=".868" stop-color="#fff"/><stop offset="1"/></radialGradient><linearGradient id="l" gradientUnits="userSpaceOnUse" x1="176.214" x2="164.24001" y1="23.084999" y2="20.555"><stop offset="0" stop-color="#3092b9"/><stop offset=".22" stop-color="#258db6"/><stop offset=".656" stop-color="#1685b1"/><stop offset="1" stop-color="#1082af"/></linearGradient><linearGradient id="m" gradientUnits="userSpaceOnUse" x1="80.783996" x2="90.637" y1="38.024429" y2="77.543426"><stop offset=".007" stop-color="#1398d1" stop-opacity="0"/><stop offset=".248" stop-color="#1187c2" stop-opacity=".62"/><stop offset=".642" stop-color="#3f6499" stop-opacity=".71"/><stop offset="1" stop-color="#2f4282" stop-opacity=".5"/></linearGradient><linearGradient id="n" gradientTransform="matrix(.99939993 .03463786 -.03463786 .99939993 24.398457 56.693919)" gradientUnits="userSpaceOnUse" x1="48.737999" x2="43.199001" y1="14.373" y2="11.303"><stop offset="0" stop-color="#f9c21b"/><stop offset=".148" stop-color="#f3ba1b"/><stop offset=".379" stop-color="#e3a41b"/><stop offset=".663" stop-color="#c9801c"/><stop offset=".988" stop-color="#a44e1c"/><stop offset="1" stop-color="#a34c1c"/></linearGradient><linearGradient id="o" gradientUnits="userSpaceOnUse" x1="206.210999" x2="169.429989" y1="130.138437" y2="47.525428"><stop offset="0" stop-color="#409ec3"/><stop offset=".62" stop-color="#2061bd"/></linearGradient><linearGradient id="p" gradientUnits="userSpaceOnUse" x1="176.759989" x2="150.406999" y1="103.060427" y2="21.953427"><stop offset="0" stop-color="#14b2da"/><stop offset=".403" stop-color="#297ccc"/><stop offset=".508" stop-color="#256fc5"/><stop offset=".649" stop-color="#2164bf"/><stop offset=".816" stop-color="#2061bd"/><stop offset=".984" stop-color="#2061bd"/></linearGradient><path d="m188.887 35.491428c-14.501-9.472-33.046-12.538-43.281-13.609-10.954-1.145-20.468-.943-28.836.285-.709-.009-1.414-.037-2.127-.037-.544 0-1.08.023-1.627.029.225-.275.381-.445.381-.445s-.44.069-1.304.46c-2.717.044-5.421.138-8.085.32 3.711-4.068 6.751-6.2 6.751-6.2s-3.608.528-10.192 6.496c-3.132001.288-6.221001.67-9.258001 1.145 6.918-9.362 14.155001-13.304001 14.155001-13.304001s-8.772001-1.7860004-22.507001 12.016001a60.522 60.522 0 0 0 -3.246 3.572c-40.031 9.687-68.681 35.538-68.681 65.919 0 5.958003-1.8289999 12.511002.143 19.054002-.788 10.453.89 38.975.89 38.975s10.837 58.649 52.51 68.846c.662.158-8.707-14.62-12.851-32.442 8.069 8.208 17.685 14.699 28.478 15.824 1.325.137-6.165-8.64-12.725-19.234l94.698001 31.906c49.529-21.274 43.763-19.357 54.397-30.875 23.428-25.36 26.708-39.75 20.806-82.235-3.993-28.679002-25.16-57.083002-48.489-66.466002z" fill="url(#b)"/><path d="m22.686999 62.275428-14.1409999 80.404002 7.8409999 24.294 156.524001 52.041 29.028-123.424002z" fill="#fbfbfb"/><path d="m23.127999 65.009428c.785 1.689.554 2.089.065 2.089-.22 0-.492-.081-.747-.161-.255-.081-.494-.161-.648-.161-.433 0-.189.639 2.263 3.72 3.468 4.406 54.399 81.293002 57.182 81.293002a.125.125 0 0 0 .04-.006c23.710001-8.448 124.543001-43.058 124.543001-43.058l-10.316-15.029002z" fill="#999"/><path d="m24.606999 63.120428s.76 3.932 4.281 8.284c3.5 4.392 50.51 75.571002 52.869 74.944002 30.795001-8.176 142.525001-51.674002 142.525001-51.674002z" fill="#f8f8f8"/><path d="m167.321 217.16043-148.753001-49.458.526 3.475 149.882001 49.834z" fill="#999"/><path d="m57.703999 59.794428s-54.1219999 15.85-29.288 71.033002c0 0-11.387-10.426-18.167-23.757-.3049999-.597 11.301-41.829002 11.301-41.829002z" fill="url(#c)"/><path d="m28.415999 130.82743c-4.707-.081-12.269-3.964-14.722-8.665-3.066 51.098 17.782 80.939 50.88 96.853-10.815-1.24-64.57399988-29.609-64.57399988-97.876 0-58.047002 46.05999988-109.932003 118.14200088-112.3090034.442 3.2540014-35.736001 11.4140014-36.893001 15.2510014-1.796 5.972-5.924 12.473-9.406 17.684-4.718 7.061 6.557 13.099-1.729 15.001-12.468 2.861-29.098 1.277-41.361 17.219-18.434 23.965003-6.133 51.379002-.337 56.842002z" fill="url(#d)"/><path d="m137.048 10.698427c-46.682001-3.5819999-70.707001 15.097001-86.130001 36.817001-5.617 7.906-5.002 15.166-3.068 23.937.831 3.744 1.671 5.538.659 9.355-.558 2.106-.465 4.072-1.158 5.314-.959 1.717-2.18 3.594-2.589 6.677-1.022 7.699002 1.703 10.151002 3.406 12.741002 2.426-2.409 7.165-8.079002 15.71-11.466002s14.167-8.477 24.876-13.941c14.632001-7.463 31.782001 3.859 64.300001-6.796 10.006-3.279 33.002-37.344 38.461-38.652-15.203-16.812-41.067-22.959001-54.467-23.986001z" fill="url(#e)"/><path d="m106.207.03142714s-8.335001 4.02599996-11.965001 11.30099986c8.381001-4.2249999 13.246001-6.5329999 15.546001-6.8079999 0 0-2.203 1.067-4.935 6.8699999 4.83-1.5470004 6.493-2.5220004 7.819-2.5370004 0 0-.385.61-.737 6.4020014-7.417-2.404-21.693001.397-29.287001 5.153-2.576-13.7350009 23.559001-20.38100086 23.559001-20.38100086z" fill="#3f6499"/><path d="m139.379 8.6294266c-14.309-1.8539995-26.27-1.4889995-36.439.47 3.198-3.0649995 6.898-4.5749995 6.898-4.5749995-4.795.424-10.781001 3.5539995-15.917001 6.8679999a71.737 71.737 0 0 0 -7.39 2.799001c1.43-1.885 3.094-3.899001 4.72-5.4450014 6.039-5.7429995 15.006001-8.71499946 15.006001-8.71499946-7.654001-.562-33.268001 5.99499996-48.681001 37.21300086-2.526 3.077-4.883 6.235-7.129 9.398-5.798 8.164-5.162 15.658-3.162 24.715.852 3.867 1.009 10.04.168 14.029-.168.799-2.363 2.863-2.926 8.428-.602 5.905003 1.505 8.804002 3.582 11.203002 7.38-10.792002 14.661-12.931002 14.661-12.931002 10.33-4.232 14.63-8.752 25.688-14.393 15.108001-7.709 67.939001 17.45 101.512001 6.448 10.332-3.384-3.977-47.359 1.663-48.709-15.699-17.36-38.494-25.020001-52.254-26.8030014z" fill="url(#f)"/><path d="m244.176 103.28743c-8.276-43.237002-48.096-82.572002-80.117-84.752002-14.211-.968-9.847 6.319-18.739 9.094-38.32 11.959-38.906 18.941-38.906 18.941 81.252 3.819 82.484 84.064002 60.724 104.366002 6.123-1.428 12.762-8.914 18.859-20.666-.732 4.931-1.36 10.98-2.274 17.729-2.788 20.595.823 63.614-58.356 92.405 0 0 32.372-2.646 48.425-20.717-6.528 15.012-24.441 23.121-24.441 23.121 13.182-1.928 47.81-12.146 69.868-39.732 24.966-31.225 32.474-60.519 24.957-99.789z" fill="url(#g)"/><path d="m164.993 182.22043s26.396-7.38 34.903-21.633c-1.032 16.619-16.107 33.662-16.107 33.662s22.038-4.46 31.436-19.968c-1.224 13.994-18.191 32.907-18.191 32.907 17.346-3.113 60.93-30.645 47.143-103.901-8.142-43.262002-48.096-82.572002-80.117-84.752002-14.211-.968-9.847 6.319-18.739 9.094-38.32 11.959-38.906 18.941-38.906 18.941 81.252 3.819 102.844 46.344 60.724 103.231002 6.123-1.429 8.578-4.794 13.178-10.301-.002 0 2.084 21.78-15.324 42.72z" fill="url(#h)"/><path d="m60.608999 85.566428s-4.719 3.301-8.136 2.46c-4.045-.993-4.73-4.913-4.73-4.913-.089.803-.192 1.578-.341 2.273-.168.799-2.363 2.863-2.926 8.428-.602 5.905003 1.615 9.325002 3.692 11.724002 7.381-10.792002 14.552-13.452002 14.552-13.452002-2.809-.982-2.111-6.52-2.111-6.52z" fill="url(#i)"/><g mask="url(#j)" opacity=".6" transform="translate(-.000001 -.000573)"><path d="m163.513 18.434c1.106-.287 5.621.204 8.584 1.533 2.964 1.329 8.073 3.679 3.986 4.701-4.088 1.022-6.438-.613-8.482-2.351s-6.847-3.168-4.088-3.883z" fill="url(#l)" opacity=".2"/></g><path d="m61.050999 84.920428s25.888-42.662 49.292001-54.175c2.173-1.093-32.405001 9.191-46.320001 24.55-8.271 9.129-3.891 27.002-2.972 29.625z" fill="url(#m)"/><path d="m61.050999 84.920428.075-.045c6.694-4.136 18.166-6.518 21.864-14.015 14.237-28.869 27.354001-40.115 27.354001-40.115-23.405001 11.513-49.293001 54.175-49.293001 54.175z" fill="#f2f2f2" opacity=".1"/><path d="m63.511999 77.117428s-4.666-7.159 2.053-13.687c3.546-3.44 8.919-1.529 9.54-.91 2.644 2.622.982 8.156-1.398 11.288-1.345 1.764-5.259 4.51-10.195 3.309z" fill="#2f4282"/><path d="m66.186999 76.673428s-3.224-4.949 1.422-9.459c2.446-2.376 6.161-1.056 6.592-.63 1.826 1.812.676 5.637-.968 7.8-.929 1.223-3.635 3.119-7.046 2.289z" fill="url(#n)"/><path d="m72.622999 71.392428c-.072 1.978-1.746 3.522-3.738 3.454-1.996-.069-3.558-1.726-3.487-3.704.071-1.977 1.744-3.521 3.741-3.453 1.992.069 3.553 1.727 3.484 3.703z"/><circle cx="66.724998" cy="70.28643" fill="#fff" r="1.136"/><path d="m228.505 65.009428c-17.721-26.976-31.761-33.831-31.761-33.831s.645 19.65 10.484 29.128c1.124 1.083-11.774-8.432-11.774-8.432s-2.758 9.076 3.562 19.51c-1.836-2.439-3.051-3.363-3.051-3.363s-11.908 5.491-15.423 13.109c-1.815-3.426-3.176-5.444-3.176-5.444s-8.236 16.437-7.201 35.495002c1.684 30.988-5.803 42.404-5.803 42.404s20.057-7.695 29.676-32.468c3.974 10.533-.121 21.619-.121 21.619s16.206-12.109 19.691-34.18c3.863 6.23 2.727 18.664 2.727 18.664s10.344-14.402 10.596-30.086002c4.794 3.343002 5.235 16.399002 5.235 16.399002s15.336-19.606002-3.661-48.524002z" fill="url(#o)"/><path d="m211.282 46.157428c-4.631-8.63-12.803-14.13-19.986-18.582-17.909-11.105-29.427-12.665-29.427-12.665s-16.528 3.074-13.689 7.672c.146.236.487.535.968.877-14.498-6.678-22.722 8.677-22.722 8.677-8.284-.503-18.371 3.575-21.312 14.499-.305 1.134 3.711.496 5.777.945 12.079 2.626 23.45 8.32 28.675 11.134 12.154 6.548 19.365 17.451 23.528 25.629 5.037 9.894 7.094 27.304002 7.094 27.304002s13.253-18.205002 10.086-27.552002c5.249 3.26 6.285 14.891003 6.285 14.891003s8.835-13.838003 6.223-25.891003c6.815 4.153 7.042 12.601 7.042 12.601s6.939-9.631 3.803-25.427c6.858 5.453 8.293 12.517 8.293 12.517s5.606-14.993-.638-26.629z" fill="url(#p)"/></svg>