<svg height="92.013092" viewBox="0 0 92.013092 92.013092" width="92.013092" xmlns="http://www.w3.org/2000/svg"><g fill="#306ab8" transform="matrix(.13333333 0 0 -.13333333 0 600.759865)"><path d="m171.395 4148.67h74.085v54.55c-4.894.26-9.253.58-13.617.7-17.668.46-35.332.98-53 1.21-5.715.07-8.492 1.33-8.211 8.08.575 13.54-.019 27.13.078 40.7.036 4.88-1.007 9.97 1.696 15.27h88.66v55.25c-49.523-3.39-98.766-6.77-148.438-10.18 0-92.75 0-184.5 0-277.06 48.625-5.55 97-11.06 145.7-16.62v58.7c-29.418 2.46-58.231 4.86-86.953 7.26zm214.312-319.89c-128.777 23-256.922 45.89-385.707 68.89v525.99c128.281 22.91 256.641 45.82 385.707 68.86 0-221.22 0-441.82 0-663.74"/><path d="m581.012 4187.27c5.968-4.29 11.922-8.38 17.66-12.76 4.203-3.21 7.254-2.04 10.504 1.51 9.152 10 18.465 19.86 27.777 29.7 3.043 3.22 3.817 6.96 3.805 11.27-.078 26.51-.047 53.03.082 79.54.039 8.18-3.512 12.27-11.906 12.24-25.567-.1-51.133-.07-76.704-.01-5.761.01-10.398-2.21-14.179-6.37-29.633-32.54-55.238-67.93-75.918-106.84-3.262-6.14-1.992-9.89 2.82-11.4 23.481 22.74 46.914 43.92 68.442 66.88 11.609 12.38 23.507 17.43 40.367 16.51 25.297-1.39 24.672-.38 25.566-26.09.699-19.95 1.207-39.09-17.785-51.98-.195-.13-.16-.59-.531-2.2zm18.019-137.69c-11.894 0-22.172-.31-33.207-.19-17.304.19-44.148 18.11-45.445 19.01l-13.293-17.33c-3.688-4.38-2.387-7.78 1.523-11.32 9.344-8.45 18.618-16.98 27.606-25.81 4.121-4.04 8.668-6.05 14.328-6.04 25.254.03 50.508-.14 75.758.11 11.82.11 14.422 3.11 14.437 14.75.028 23.05-.406 46.1.211 69.13.266 9.77-2.847 17.05-10.051 23.17-31.789 27.01-64.968 51.99-101.96 71.61-6.075 3.22-10.61 3.63-14.129-5.65 2.32-1.82 5.558-3.89 8.242-6.52 23.203-22.75 46.32-45.58 69.414-68.43 2.863-2.84 6.523-5.34 6.547-10 .062-14.78.019-29.57.019-46.49zm-177.566-90.25v48.25c18.258-1.87 26.801 11.36 36.203 23.12 24.254 30.32 47.621 61.25 64.262 96.46-1.676 3.2-3.551 5.61-6.235 6.25-15.414-15.02-30.586-29.66-45.582-44.46-11.226-11.09-22.343-22.29-33.269-33.67-4.11-4.28-8.524-6.22-15.035-4.53v96.82c10.925-6 21.007-11.66 31.214-17.09 7.157-3.8 7.411-3.6 12.852 3.9-13 13.08-26.031 26.25-39.137 39.33-2.933 2.93-5.605 5.63-5.578 10.38.164 27.14.082 54.28.082 82.65 7.969-.2 15.785 3.17 22.684-2.72 5.695-4.87 10.988-10.22 16.836-15.7 6.414 6.08 10.293 13.31 15.023 19.87 2.469 3.42.52 5.83-1.949 8.15-10.363 9.71-20.734 19.41-31.043 29.18-6.008 5.7-14.063 1.61-21.184 4.31v47.06c3.18 2.81 6.825 1.75 10.153 1.76 74.226.08 148.457.15 222.687.06 25.012-.02 35.645-10.88 35.645-35.8.004-108.34.011-216.69-.012-325.03-.004-28.71-9.992-38.58-38.703-38.56-72.02.02-144.039.01-216.059.01-4.343 0-8.691 0-13.855 0"/></g></svg>