<svg height="107.5" viewBox="0 0 88.026056 86" width="110.03257" xmlns="http://www.w3.org/2000/svg"><path d="m46.01 0h5.98v20c10.36.02 20.71-.03 31.06 0 2.04-.1 4.83.49 4.79 3.06.38 12.65.01 25.33.18 37.99.04 2.24-.03 5.77-3.08 5.8-10.97.38-21.97.03-32.95.15v19h-6.2c-15.24-2.77-30.52-5.32-45.78-8-.01-23.33-.01-46.66-.01-69.98 15.34-2.69 30.68-5.29 46.01-8.02z" fill="#0071c5"/><g fill="#fff"><path d="m51.99 23c11.08.01 22.15-.03 33.23.02-.19 1.31-.59 2.6-1.69 3.42-6.62 6.17-13.2 12.37-19.8 18.56-3.97-3.59-7.83-7.3-11.74-10.95 0-3.69 0-7.37 0-11.05z"/><path d="m21.44 26.66c5.64-2.13 12.23.86 14.62 6.31 3.26 7.5 2.8 17.76-3.68 23.43-5.97 5.11-15.98 2.2-18.7-5.06-3.58-8.37-1.84-21.25 7.76-24.68z"/><path d="m66.87 45.89c6.01-5.71 12.07-11.38 18.11-17.06.03 11.72 0 23.45.01 35.17-11 0-22 0-33 0 0-8.72-.01-17.44.01-26.15 3.73 3.3 7.07 7.06 11.03 10.07 1.63.3 2.73-1.11 3.84-2.03z"/></g><path d="m22.41 32.67c2.66-1.27 5.99.02 7.24 2.65 2 3.96 1.99 8.79.68 12.97-.93 2.97-4.18 5.42-7.33 4.25-3.93-1.24-5.12-5.9-5.16-9.55-.05-3.78.82-8.49 4.57-10.32z" fill="#0071c5"/></svg>