<svg height="205.05534" width="205.05534" xmlns="http://www.w3.org/2000/svg"><path d="m149.52353 84.005993c.246 1.535.309 112.522997.075 114.944997-19.032-4.492-38.036-8.98-57.118003-13.484v-78.238c-9.824-3.805-19.613-7.593997-29.398-11.378997-.063.035-.117.054-.168.09-.043.031-.098.078-.102.121-.031.293-.07.586-.07.883-.004 31.612997-.004 63.229997-.004 94.764997.438.535 1.004.602 1.496.781 27.969 10.379 55.946003 20.747 83.918003 31.125.969.36 1.848.536 2.922.223 15.348-4.414 30.711-8.777 46.07-13.156.223-.067.446-.145.762-.246v-133.245997c-4.41-1.215-8.781-2.43-13.156-3.625-11.137-3.043-22.281-6.063-33.41-9.129-1.09-.301-2.043-.278-3.114.113-27.511 10.074-55.035003 20.117-82.550003 30.164-.543.199-1.075.422-1.532.902 28.461-3.871 56.922003-7.738 85.379003-11.609z" fill="#dc3e15" transform="matrix(1.27174737 0 0 -1.28344363 -63.20966 287.491549)"/></svg>