<svg height="256" preserveAspectRatio="xMidYMid" viewBox="0 0 256 256" width="256" xmlns="http://www.w3.org/2000/svg"><path d="m246.93895 149.01069c-.081083.450012-.137841.904078-.222979 1.354089l-.437849-2.578446c.239195.401362.437849.818941.660828 1.224357 1.321657-7.192082 2.014918-14.554439 2.014918-21.912741 0-16.317998-3.194679-32.149497-9.507008-47.0525931-6.08935-14.3963259-14.801742-27.3250455-25.910143-38.4253385-11.092185-11.100293-24.029013-19.8126851-38.41723-25.902035-14.899042-6.30422042-30.730541-9.49889934-47.048539-9.49889934-7.690744 0-15.39365.72164067-22.889794 2.16086785-.016216.00405416-.036487.00405416-.056758.00810832.421633.22297886.84732.42163275 1.260844.65271993l-2.541959-.39730778c.425687-.08108323.855428-.17027477 1.281115-.25541215-10.2854064-5.46906327-21.8519279-8.38805923-33.560345-8.38805923-19.1153694 0-37.0874654 7.4434397-50.6040383 20.9640668-13.51251884 13.516573-20.9600127 31.488669-20.9600127 50.6040384 0 12.1665373 3.12981234 24.1263124 9.00429171 34.6955098.07702906-.437849.12973315-.879752.21487054-1.317602l.43784939 2.533851c-.22703302-.397308-.42568691-.810832-.65271993-1.216249-1.19192335 6.847479-1.82031832 13.844961-1.82031832 20.834334 0 16.322053 3.19467891 32.149497 9.50700771 47.056648 6.0812416 14.40038 14.7976878 27.320991 25.8939267 38.421284 11.1084013 11.100293 24.0290125 19.824847 38.4334468 25.897981 14.8990419 6.316383 30.7345954 9.515116 47.0525934 9.515116 7.10289 0 14.221997-.648666 21.170829-1.881131-.405416-.227033-.818941-.433795-1.232465-.672991l2.5825.454066c-.445957.085138-.895969.137842-1.350035.218925 10.707039 6.056917 22.828981 9.275921 35.206334 9.275921 19.111316 0 37.075303-7.431278 50.591876-20.955959 13.520627-13.508465 20.960013-31.484615 20.960013-50.599984 0-12.207079-3.146029-24.207396-9.06105-34.817135zm-118.385557 52.120294c-42.9457281 0-62.1583974-21.114071-62.1583974-36.937461 0-8.116431 5.9920501-13.804419 14.2503762-13.804419 18.377512 0 13.617927 26.388535 47.9080212 26.388535 17.554517 0 27.248016-9.531333 27.248016-19.285644 0-5.866371-2.894671-12.369246-14.453084-15.219321l-38.198305-9.535387c-30.7629743-7.715068-36.3455541-24.345237-36.3455541-39.978082 0-32.4576134 30.5602661-44.6444216 59.2596721-44.6444216 26.437184 0 57.60152 14.6111965 57.60152 34.083332 0 8.3434635-7.224515 13.1962943-15.478787 13.1962943-15.685549 0-12.798986-21.7100325-44.393063-21.7100325-15.677441 0-24.3614539 7.098836-24.3614539 17.2585637 0 10.1394571 12.3814079 13.3787311 23.1330429 15.8274451l28.273719 6.275841c30.969737 6.900182 38.822647 24.98174 38.822647 42.013271 0 26.376372-20.246481 46.071486-61.10837 46.071486zm19.455919 44.303872c.413524.239196.827049.445958 1.232465.672991.454066-.081083.904078-.133787 1.350035-.218925zm98.706659-95.070077c.085138-.450011.141896-.904077.222979-1.354089-.222979-.405416-.421633-.822995-.660828-1.224357zm-237.49680875-45.418766c-.08513739.43785-.13784148.879753-.21487054 1.317602.22703302.405417.42568691.818941.65271993 1.216249zm97.16607775-95.90523384c-.413524-.23108718-.839211-.42974107-1.260844-.65271993-.425687.08513738-.855428.17432892-1.281115.25541215z" fill="#00aff0"/></svg>