<svg enable-background="new 0 0 417.42 411.266" height="345.923" viewBox="0 0 345.92299 345.92301" width="345.923" xmlns="http://www.w3.org/2000/svg" xmlns:xlink="http://www.w3.org/1999/xlink"><defs><clipPath id="a"><use height="100%" width="100%" xlink:href="#h"/></clipPath><clipPath id="b"><path d="m58.466 210.947c0 83.462 67.659 151.122 151.122 151.122 83.462 0 151.121-67.659 151.121-151.122s-67.659-151.122-151.121-151.122c-83.463 0-151.122 67.659-151.122 151.122z" height="100%" transform="" width="100%"/></clipPath><clipPath id="c"><path d="m77.776 197.546 11.475-16.039c.032.079-.724 23.092-.724 23.092l3.229-17.389c9.58 19.383 32.964 46.204 54.402 60.477 2.314 1.543 4.129 3.181 5.528 4.901 2.7 1.043 5.496 1.656 8.276 2.12 1.463.257 2.959.371 4.42.5 1.462.095 2.94.145 4.403.112 1.461-.034 2.909-.098 4.355-.241 1.462-.128 2.893-.354 4.321-.596 1.432-.257 2.846-.53 4.244-.898 1.396-.371 2.797-.757 4.162-1.239 1.366-.417 2.732-.932 4.064-1.463 1.352-.546 2.668-1.123 3.972-1.751 1.302-.659 2.604-1.27 3.873-1.975 1.303-.643 2.539-1.398 3.825-2.107 1.302-.659 2.49-1.509 3.777-2.218 1.269-.723 2.474-1.573 3.76-2.296 1.237-.804 2.473-1.607 3.761-2.379 1.237-.819 2.524-1.607 3.841-2.362l1.189-.707.626.418 8.648 5.72-8.729-2.265c-.821.98-1.688 1.943-2.587 2.875-1.094 1.11-2.252 2.17-3.407 3.2-1.206 1.011-2.427 1.977-3.683 2.925-1.282.898-2.569 1.816-3.919 2.619-2.668 1.671-5.497 3.1-8.438 4.291-1.463.595-2.957 1.141-4.452 1.638-1.51.5-3.021.966-4.58 1.334-1.526.387-3.104.659-4.66.917-1.575.241-3.15.402-4.725.545-3.166.163-6.349.081-9.466-.321-1.575-.209-3.118-.513-4.645-.868-1.511-.368-3.021-.804-4.484-1.35-2.571-.915-5.063-2.104-7.313-3.63-.016.03-8.292 1.155-4.949 7.375 3.343 6.188 8.391 5.641 6.01 12.937-1.671 3.889-4.048 7.732-6.685 11.332-5.45 7.457-14.079 13.966-13.229 17.887 39.156 48.19 127.273 41.487 160.744-1.497-.513-6.219-10.27-9.191-17.114-24.363 1.879.579 4.739 1.448 4.739 1.334 0-.111-8.164-13.275-8.438-14.593l5.224.355s-6.991-8.616-7.12-9.419l7.021-.898s-8.839-10.173-8.983-10.977l8.983 1.429-9.834-11.858h4.629l-5.528-8.036c-.948-.306-1.881-.596-2.813-.884-1.205-.386-2.411-.755-3.602-1.125-13.45-4.163-26.033-8.068-38.247-15.702-17.1-10.703-32.432-23.688-43.937-33.877l-23.112-11.218c-22.13-1.655-42.974-1.109-55.621 1.398l8.132-13.934-12.439 14.96c-.884-.191-1.093-.754-1.093-.754l.852-18.417-3.915 16.649c-1.239-.546-2.604-.866-4.034-.866-5.514 0-9.979 4.466-9.979 9.962 0 5.016 3.729 9.178 8.581 9.853z" height="100%" transform="" width="100%"/></clipPath><clipPath id="d"><path d="m91.746 161.221c-1.228-.535-2.576-.847-3.99-.847-5.514 0-9.979 4.466-9.979 9.962 0 4.837 3.468 8.88 8.067 9.768.073-.016.142-.034.205-.055 3-1 9-9 8-14-.357-1.782-1.141-3.436-2.303-4.828z" height="100%" transform="" width="100%"/></clipPath><clipPath id="e"><path d="m178.91 148.353c-1.784-4.902-1.349-11.298 1.221-17.212 3.569-8.214 10.352-13.724 16.858-13.724 1.319 0 2.571.241 3.761.689 3.761-3.373 8.021-6.137 12.778-8.035 26.403-10.493 65.021 8.262 74.953 34.217 4.775 12.518 3.313 26.356-.77 38.829-3.393 10.316-15.557 25.181-11.057 36.399-1.85-.436-39.567-12.262-50.127-18.851-16.825-10.543-32.014-23.448-43.376-33.508l-.338-.321-38.377-18.241c-.448-.227-.898-.432-1.35-.659 5.514-.001 26.471 2.44 35.824.417" height="100%" transform="" width="100%"/></clipPath><clipPath id="f"><path d="m181.555 148.127c1.077 2.732 2.877 4.708 5.189 5.705 1.063.482 2.268.723 3.537.723 5.802 0 12.118-5.241 15.362-12.746 1.993-4.548 2.653-9.352 1.864-13.516-.77-4.177-2.891-7.198-5.962-8.532-1.125-.482-2.33-.725-3.552-.725-5.784 0-12.102 5.239-15.38 12.745-2.456 5.675-2.858 11.781-1.058 16.346z" height="100%" transform="" width="100%"/></clipPath><linearGradient id="g" gradientTransform="matrix(211.8188 0 0 -159.5368 89136.305 126469.31)" gradientUnits="userSpaceOnUse" x1="-419.88181" x2="-420.58731" y1="792.10352" y2="792.34601"><stop offset="0" stop-color="#fff"/><stop offset="1" stop-color="#fff" stop-opacity="0"/></linearGradient><path id="h" d="m37.126 210.947c0 95.248 77.214 172.461 172.462 172.461 95.247 0 172.461-77.214 172.461-172.461s-77.214-172.462-172.461-172.462c-95.248 0-172.462 77.214-172.462 172.462z"/></defs><g transform="translate(-36.626 -37.985)"><path clip-path="url(#a)" d="m37.126 210.947c0 95.248 77.214 172.461 172.462 172.461 95.247 0 172.461-77.214 172.461-172.461s-77.214-172.462-172.461-172.462c-95.248 0-172.462 77.214-172.462 172.462z" fill="none" stroke="#192e45" stroke-miterlimit="10" stroke-width="14.4"/><use clip-rule="evenodd" fill="none" height="100%" stroke="#192e45" stroke-miterlimit="10" width="100%" xlink:href="#h"/><path clip-path="url(#b)" d="m199.305 54.825h20.566c80.544 0 145.838 65.294 145.838 145.838v20.566c0 80.544-65.294 145.839-145.838 145.839h-20.566c-80.545 0-145.839-65.294-145.839-145.839v-20.566c0-80.544 65.294-145.838 145.839-145.838z" fill="#192e45"/><path clip-path="url(#c)" d="m72.776001 139.592h226.235v201.58501h-226.235z" fill="#d0933a"/><path clip-path="url(#d)" d="m72.776001 155.37399h26.384001v29.73h-26.384001z" fill="#ffcc86"/><path clip-path="url(#e)" d="m138.088 102.104h158.382v122.411h-158.382z" fill="#fdd321"/><g clip-path="url(#f)"><path d="m190.281 153.056c-1.075 0-2.057-.198-2.917-.589-1.969-.849-3.486-2.536-4.414-4.89-1.653-4.194-1.265-9.876 1.041-15.199 3.044-6.97 8.803-11.841 14.003-11.841 1.03 0 2.026.203 2.961.604 2.598 1.129 4.403 3.767 5.077 7.425.736 3.883.109 8.37-1.763 12.642-3.016 6.979-8.767 11.848-13.988 11.848z" fill="#fff"/><path d="m197.994 122.037c.826 0 1.623.163 2.356.477 2.132.926 3.626 3.172 4.21 6.339.679 3.581.087 7.755-1.67 11.767-2.74 6.337-8.043 10.936-12.609 10.936-.847 0-1.642-.157-2.297-.455l-.026-.012-.026-.011c-1.567-.675-2.808-2.076-3.586-4.05-1.511-3.833-1.129-9.087 1.018-14.045 2.77-6.342 8.081-10.946 12.63-10.946m0-3c-5.784 0-12.102 5.239-15.38 12.745-2.457 5.674-2.859 11.78-1.06 16.346 1.077 2.732 2.877 4.709 5.189 5.705 1.063.482 2.268.723 3.537.723 5.802 0 12.118-5.241 15.362-12.746 1.993-4.548 2.653-9.352 1.864-13.516-.77-4.177-2.891-7.198-5.962-8.532-1.123-.482-2.328-.725-3.55-.725z" fill="#1d2a3a"/></g><path d="m208.075 118.442s8.55 15.078-.193 28.078c-8.759 13.001-19.703 13.018-19.703 13.018l-186.214-60.235s-7.441-32.254 6.637-58.98c14.06-26.744 44.837-40.323 44.837-40.323z" fill="url(#g)" opacity=".3"/></g></svg>