<svg height="500" viewBox="0 0 500 500" width="500" xmlns="http://www.w3.org/2000/svg" xmlns:xlink="http://www.w3.org/1999/xlink"><linearGradient id="a" gradientUnits="userSpaceOnUse" x1="0" x2="500" y1="0" y2="500"><stop offset="0" stop-color="#3186c7"/><stop offset="1" stop-color="#4c5eb0"/></linearGradient><path d="m0 0h500v500h-500z" fill="url(#a)"/><path d="m393.31897 106.68103v-52.80172c0-12.49782-10.1315-22.62931-22.62931-22.62931-12.49782 0-22.62932 10.13149-22.62932 22.62931v52.80172h-52.80172c-12.49782 0-22.62931 10.13149-22.62931 22.62931 0 12.49783 10.13149 22.62932 22.62931 22.62932h52.80172v52.80172c0 12.49782 10.1315 22.62931 22.62932 22.62931 12.49781 0 22.62931-10.13149 22.62931-22.62931v-52.80172h52.80172c12.49781 0 22.62931-10.13149 22.62931-22.62932 0-12.49782-10.1315-22.62931-22.62931-22.62931zm-362.06897 194.88656c0-15.98217 12.868025-28.93828 28.938284-28.93828h138.244126c15.98217 0 28.93828 12.86803 28.93828 28.93828v138.24413c0 15.98215-12.86803 28.93828-28.93828 28.93828h-138.244126c-15.982175 0-28.938284-12.86803-28.938284-28.93828zm241.37931 0c0-15.98217 12.86803-28.93828 28.93828-28.93828h138.24413c15.98216 0 28.93828 12.86803 28.93828 28.93828v138.24413c0 15.98216-12.86803 28.93828-28.93828 28.93828h-138.24413c-15.98217 0-28.93828-12.86803-28.93828-28.93828zm-241.37931-241.37931c0-15.98217 12.868025-28.93828 28.938284-28.93828h138.244126c15.98217 0 28.93828 12.86803 28.93828 28.93828v138.24413c0 15.98217-12.86803 28.93828-28.93828 28.93828h-138.244126c-15.982175 0-28.938284-12.86803-28.938284-28.93828z" fill="#ebf0f8" stroke-width="29.166666"/></svg>