<svg height="400" width="400" xmlns="http://www.w3.org/2000/svg" xmlns:xlink="http://www.w3.org/1999/xlink"><linearGradient id="a"><stop offset="0" stop-color="#b3b3b3"/><stop offset="1" stop-color="#b3b3b3" stop-opacity="0"/></linearGradient><radialGradient id="b" cx="333.52826" cy="217.58252" gradientTransform="matrix(-.95122439 -.37973408 -.79004638 1.9790465 561.77552 -104.77634)" gradientUnits="userSpaceOnUse" r="29.875"><stop offset="0" stop-color="#e6e6e6"/><stop offset="1" stop-color="#e6e6e6" stop-opacity="0"/></radialGradient><radialGradient id="c" cx="172.61411" cy="303.20566" gradientTransform="matrix(1 0 0 .63328545 0 119.49923)" gradientUnits="userSpaceOnUse" r="22.630014"><stop offset="0" stop-color="#999"/><stop offset="1" stop-color="#999" stop-opacity="0"/></radialGradient><radialGradient id="d" cx="335.08649" cy="219.03677" gradientTransform="matrix(.54659184 -.27740671 .6404924 1.2620022 11.607646 18.444794)" gradientUnits="userSpaceOnUse" r="29.875" xlink:href="#e"/><linearGradient id="e"><stop offset="0" stop-color="#969696"/><stop offset="1" stop-color="#e6e6e6" stop-opacity="0"/></linearGradient><radialGradient id="f" cx="250.46019" cy="25.979427" gradientTransform="matrix(-1.1864466 .79500993 .21180507 .31609089 435.38812 -174.97097)" gradientUnits="userSpaceOnUse" r="38.624973" xlink:href="#g"/><linearGradient id="g"><stop offset="0" stop-color="#afafaf"/><stop offset="1" stop-color="#e6e6e6" stop-opacity="0"/></linearGradient><radialGradient id="h" cx="458.02847" cy="230.12292" gradientTransform="matrix(.41734111 -.01064379 .00887794 .34810258 9.439031 55.321448)" gradientUnits="userSpaceOnUse" r="103.51558"><stop offset="0" stop-color="#bebebe"/><stop offset="1" stop-color="#b3b3b3" stop-opacity="0"/></radialGradient><radialGradient id="i" cx="250.46019" cy="25.979427" gradientTransform="matrix(1.1864466 .79500993 -.21180507 .31609089 -32.887133 -175.8174)" gradientUnits="userSpaceOnUse" r="38.624973" xlink:href="#g"/><radialGradient id="j" cx="335.08649" cy="219.03677" gradientTransform="matrix(-.54659184 -.27740671 -.6404924 1.2620022 394.97125 17.340932)" gradientUnits="userSpaceOnUse" r="29.875" xlink:href="#e"/><radialGradient id="k" cx="171.23438" cy="217.67747" gradientTransform="matrix(1 0 0 1.278095 0 -60.535026)" gradientUnits="userSpaceOnUse" r="19.572203" xlink:href="#a"/><radialGradient id="l" cx="212.03125" cy="217.67747" gradientTransform="matrix(1 0 0 1.5166132 0 -112.45505)" gradientUnits="userSpaceOnUse" r="16.494078" xlink:href="#a"/><radialGradient id="m" cx="248.85938" cy="217.67747" gradientTransform="matrix(1 0 0 1.4981632 0 -108.43892)" gradientUnits="userSpaceOnUse" r="16.697203" xlink:href="#a"/><radialGradient id="n" cx="206.64375" cy="214.43469" gradientTransform="matrix(.97267227 .01617535 -.01665626 .97473856 9.218786 2.074391)" gradientUnits="userSpaceOnUse" r="190.25014"><stop offset="0" stop-opacity="0"/><stop offset=".81720757" stop-opacity=".019608"/><stop offset=".89931339" stop-opacity=".145098"/><stop offset=".91198522" stop-opacity=".207843"/><stop offset=".95598048" stop-opacity=".25098"/><stop offset="1" stop-opacity=".333333"/></radialGradient><g transform="translate(0 -652.36218)"><path d="m385.62498 214.43469c0 96.12374-80.13262 174.04743-178.98123 174.04743-98.8486 0-178.981229-77.92369-178.981229-174.04743s80.132629-174.047422 178.981229-174.047422c98.84861 0 178.98123 77.923682 178.98123 174.047422z" fill="#1a1a1a" stroke="#000" stroke-linejoin="round" stroke-width="4.57597" transform="matrix(1.0811038 0 0 1.1043488 -22.437604 617.97608)"/><g fill="#fff"><path d="m385.62498 214.43469c0 96.12374-80.13262 174.04743-178.98123 174.04743-98.8486 0-178.981229-77.92369-178.981229-174.04743s80.132629-174.047422 178.981229-174.047422c98.84861 0 178.98123 77.923682 178.98123 174.047422z" fill-rule="evenodd" opacity="0" transform="matrix(1.070643 0 0 1.1009928 -22.08154 583.61968)"/><path d="m385.62498 214.43469c0 96.12374-80.13262 174.04743-178.98123 174.04743-98.8486 0-178.981229-77.92369-178.981229-174.04743s80.132629-174.047422 178.981229-174.047422c98.84861 0 178.98123 77.923682 178.98123 174.047422z" opacity=".9" transform="matrix(1.0422741 0 0 1.0695007 -13.735541 622.74462)"/><path d="m385.62498 214.43469c0 96.12374-80.13262 174.04743-178.98123 174.04743-98.8486 0-178.981229-77.92369-178.981229-174.04743s80.132629-174.047422 178.981229-174.047422c98.84861 0 178.98123 77.923682 178.98123 174.047422z" stroke="#333" stroke-linejoin="round" stroke-width="1.41267" transform="matrix(1.0641261 0 0 1.0786838 -20.794262 620.64438)"/></g><path d="m385.62498 214.43469c0 96.12374-80.13262 174.04743-178.98123 174.04743-98.8486 0-178.981229-77.92369-178.981229-174.04743s80.132629-174.047422 178.981229-174.047422c98.84861 0 178.98123 77.923682 178.98123 174.047422z" fill="none" stroke="#000" stroke-linejoin="round" stroke-width="1.830388" transform="matrix(1.0856629 0 0 1.109006 -24.345467 616.20735)"/></g><path d="m385.62498 214.43469a178.98123 174.04742 0 1 1 -357.962459 0 178.98123 174.04742 0 1 1 357.962459 0z" fill="url(#n)" opacity=".75" transform="matrix(1.0764906 0 0 1.1009349 -20.513668 -34.695518)"/><g fill-rule="evenodd"><path d="m152.40625 31.610002c-24.65159-.615413-49.62289 15.704618-55.852503 40.126444-1.451111 5.920437-2.042948 11.533344-2.147497 17.25104v63.622514h25c.0881-22.3821-.12668-44.64411.1701-67.071988.76858-14.243077 11.77335-29.258147 27.0486-29.08431.11203 22.668722-.22918 45.351398.18004 68.010988 1.30284 18.42605 18.76217 33.67641 37.24339 32.11401 11.54558-.2802 23.17762.67313 34.64753-.72475 17.46577-3.27442 29.55308-21.06252 27.92904-38.4493 0-20.285732 0-40.571465 0-60.857198 15.88808-1.160259 27.93757 14.263321 28.64235 29.08431.29501 22.427208.0825 44.692338.1701 67.071988h25c0-22.5 0-45 0-67.499998-.81797-7.276075-1.9718-16.180186-5.9149-23.198476-10.22889-20.751216-34.15317-31.947919-56.71743-30.261229-6.591-.83713-13.68143 3.619737-15.48689 9.866559.10876 26.738504.18577 53.486212-.015 80.219854-.75343 11.19988-11.79041 19.76398-22.80523 18.34204-7.79212.33854-16.59364.0136-21.90827-6.68171-7.16232-7.57045-4.76318-18.40537-5.18362-27.81167.0193-21.718966-.0713-43.418377.1249-65.100368-3.25934-6.591257-10.50309-9.993605-17.67905-8.911927l-1.18772-.01641-1.25823-.04042h.00025z" stroke="#fff" transform="matrix(1.05 0 0 1.05 -5.355513 .509553)"/><path d="m107.26989 156.26167v177.84375c-35.128105-3.85349-62.737498-42.18816-62.737498-88.92187 0-46.73372 27.609393-85.06839 62.737498-88.92188z" fill="url(#b)" opacity=".9666"/><g stroke="#fff"><g transform="matrix(1.05 0 0 1.05 -5.355513 .509553)"><path d="m290.42422 313.15625c-.69916-.007-3.31052-.57507-3.94043-.16697 0 0-1.03559 3.01675-4.60424 5.67254-3.13272 2.33137-6.10765 4.56617-9.29463 6.66254-2.86157 1.88231-5.93275 3.91773-8.80984 5.30245-2.26396 1.08961-4.11397 1.24819-4.11397 1.24819h-32.21955c-2.01273 0-3.66178 1.58716-3.66178 3.5625v.875c0 1.97534 1.64905 3.59375 3.66178 3.59375h33.87945c.77968 0 3.59712-.82022 5.27249-1.55528 4.17684-1.83257 6.89898-4.16602 11.7099-7.02744 5.11436-3.27118 14.57263-10.88603 14.57263-10.88603 1.67973-1.08826 2.12779-3.28897 1.01893-4.9375l-.47763-.75c-.69304-1.03033-1.82785-1.58241-2.99311-1.59375z"/><path d="m288.25 148.4375v169.375c33.45534-3.66999 59.75-40.1792 59.75-84.6875s-26.29466-81.01751-59.75-84.6875z" opacity=".9666"/><path d="m106.22355 149.3374v169.375c-33.455343-3.66999-59.750003-40.1792-59.750003-84.6875s26.29466-81.01751 59.750003-84.6875z" opacity=".9666"/></g><path d="m194.74412 325.86444a22.130014 13.831259 0 1 1 -44.26003 0 22.130014 13.831259 0 1 1 44.26003 0z" opacity=".9666" transform="matrix(1.304789 0 0 1.21464 -20.460693 -43.799678)"/><rect height="171.94623" opacity=".9666" rx="3.887729" ry="3.54007" stroke-width="1.053771" transform="matrix(1.0433338 0 0 1.0500168 -4.656294 .094873)" width="13.329355" x="274.71799" y="146.09026"/><rect height="171.95677" opacity=".9666" rx="3.81012" ry="3.540287" stroke-width="1.043232" transform="matrix(1.0433338 0 0 1.0500168 -3.834759 .094873)" width="13.063269" x="106.56075" y="147.08498"/></g><path d="m131.63644 188.83058h140.83455v111.88522h-140.83455z"/></g><path d="m189.84375 226.6931c-.00004 2.31252-.43754 4.34376-1.3125 6.09375-.87504 1.75001-2.05212 3.19793-3.53125 4.34375-1.75004 1.37501-3.67191 2.35417-5.76563 2.9375-2.09377.58334-4.75523.875-7.98437.875h-18.625v-46.53125h16.4375c3.41664.00005 6.00518.13026 7.76562.39063 1.76039.26046 3.41143.80734 4.95313 1.64062 1.66663.89588 2.91142 2.0938 3.73437 3.59375.82288 1.50004 1.23434 3.22921 1.23438 5.1875-.00004 2.27087-.56775 4.2917-1.70313 6.0625-1.13545 1.77087-2.70315 3.07295-4.70312 3.90625v.25c2.87496.6042 5.17705 1.83857 6.90625 3.70313 1.72913 1.8646 2.59371 4.38023 2.59375 7.54687zm-14.96875-19.125c-.00003-.74996-.19274-1.52079-.57813-2.3125-.38544-.79163-.9844-1.36454-1.79687-1.71875-.77086-.33329-1.68231-.51558-2.73438-.54687-1.0521-.0312-2.61981-.0468-4.70312-.0469h-.8125v9.84375h1.46875c1.99998.00003 3.40102-.0208 4.20312-.0625.80207-.0416 1.63019-.26038 2.48438-.65625.93747-.43747 1.58331-1.04163 1.9375-1.8125.35414-.7708.53122-1.66663.53125-2.6875zm2.9375 18.90625c-.00003-1.43748-.2917-2.56248-.875-3.375-.58336-.81248-1.45836-1.42706-2.625-1.84375-.70836-.27081-1.68232-.42185-2.92188-.45312-1.2396-.0312-2.90106-.0469-4.98437-.0469h-2.15625v11.65625h.625c3.04165.00001 5.14581-.0208 6.3125-.0625 1.16664-.0416 2.35414-.3229 3.5625-.84375 1.06247-.45832 1.83851-1.13019 2.32812-2.01562.48956-.88541.73435-1.89061.73438-3.01563z" fill="url(#k)" transform="matrix(1.100722 0 0 2.0000717 -23.811797 -190.28066)"/><path d="m189.84375 226.6931c-.00004 2.31252-.43754 4.34376-1.3125 6.09375-.87504 1.75001-2.05212 3.19793-3.53125 4.34375-1.75004 1.37501-3.67191 2.35417-5.76563 2.9375-2.09377.58334-4.75523.875-7.98437.875h-18.625v-46.53125h16.4375c3.41664.00005 6.00518.13026 7.76562.39063 1.76039.26046 3.41143.80734 4.95313 1.64062 1.66663.89588 2.91142 2.0938 3.73437 3.59375.82288 1.50004 1.23434 3.22921 1.23438 5.1875-.00004 2.27087-.56775 4.2917-1.70313 6.0625-1.13545 1.77087-2.70315 3.07295-4.70312 3.90625v.25c2.87496.6042 5.17705 1.83857 6.90625 3.70313 1.72913 1.8646 2.59371 4.38023 2.59375 7.54687zm-14.96875-19.125c-.00003-.74996-.19274-1.52079-.57813-2.3125-.38544-.79163-.9844-1.36454-1.79687-1.71875-.77086-.33329-1.68231-.51558-2.73438-.54687-1.0521-.0312-2.61981-.0468-4.70312-.0469h-.8125v9.84375h1.46875c1.99998.00003 3.40102-.0208 4.20312-.0625.80207-.0416 1.63019-.26038 2.48438-.65625.93747-.43747 1.58331-1.04163 1.9375-1.8125.35414-.7708.53122-1.66663.53125-2.6875zm2.9375 18.90625c-.00003-1.43748-.2917-2.56248-.875-3.375-.58336-.81248-1.45836-1.42706-2.625-1.84375-.70836-.27081-1.68232-.42185-2.92188-.45312-1.2396-.0312-2.90106-.0469-4.98437-.0469h-2.15625v11.65625h.625c3.04165.00001 5.14581-.0208 6.3125-.0625 1.16664-.0416 2.35414-.3229 3.5625-.84375 1.06247-.45832 1.83851-1.13019 2.32812-2.01562.48956-.88541.73435-1.89061.73438-3.01563z" fill="#fff" transform="matrix(1.100722 0 0 2.0000717 -28.290859 -190.59736)"/><path d="m227.5625 240.9431h-31.0625v-46.53125h11.6875v37.65625h19.375z" fill="url(#l)" transform="matrix(1.100722 0 0 2.0000717 -23.811797 -190.28066)"/><path d="m187.3125 197.5625v94.53125h14.125.0625 21.375v-19.25h-21.375v-75.28125z" fill="#fff"/><path d="m233.125 240.9431v-46.53125h31.46875v8.875h-19.84375v8.15625h18.28125v8.875h-18.28125v11.75h19.84375v8.875z" fill="url(#m)" transform="matrix(1.100722 0 0 2.0000717 -23.811797 -190.28066)"/><path d="m227.8125 197.5v94.53125h14.1875 21.375v-19.25h-21.375v-22.28125h19.65625v-18.65625h-19.65625v-15.09375h21.375v-19.25h-21.375-.0625z" fill="#fff"/><g fill-rule="evenodd"><path d="m155.36979 33.010124c-25.88417-.646184-52.10402 16.489853-58.645119 42.132764-1.523665 6.216465-2.145097 12.11002-2.254875 18.113595v66.803627h26.249994c.0925-23.5012-.13301-46.87631.17861-70.425571.807-14.955237 12.36201-30.72106 28.40103-30.538528.11763 23.802159-.24064 47.618949.18905 71.411529 1.36798 19.34735 19.70027 35.36023 39.10555 33.71971 12.12286-.29421 24.3365.70678 36.37991-.76099 18.33906-3.43814 31.03074-22.11565 29.32549-40.37177 0-21.30001 0-42.600022 0-63.900042 16.68248-1.218273 29.33444 14.976486 30.07447 30.538529.30976 23.548553.0866 46.926943.17861 70.425573h26.25c0-23.625 0-47.25 0-70.874984-.85887-7.639884-2.07039-16.989202-6.21065-24.358407-10.74033-21.788774-35.86083-33.545313-59.5533-31.774288-6.92055-.878987-14.3655 3.800724-16.26123 10.359887.1142 28.075433.19506 56.160521-.0157 84.230832-.7911 11.75988-12.37993 20.75218-23.94549 19.25915-8.18173.35546-17.42333.0143-23.00369-7.0158-7.52043-7.94897-5.00134-19.32564-5.4428-29.20225.0203-22.804904-.0749-45.589287.13115-68.355379-3.42231-6.92082-11.02825-10.493285-18.56301-9.357523l-1.2471-.01723-1.32114-.04244h.00026z" fill="url(#h)"/><path d="m154.53194 34.268657c-31.65505 0-56.16894 21.233495-59.981238 48.759372h26.971868c3.64479-12.426072 13.11379-21.517343 24.51094-22.574997.74035-.69976 1.77197-1.148438 2.92031-1.148438h26.61094l.0984-15.61875s-2.37838-3.725289-4.29844-5.479687c-2.17544-1.987733-5.11175-3.428347-8.00625-3.740625-2.4252-.261648-5.19957-.04115-8.82656-.196875z" fill="url(#f)"/><path d="m194.74412 325.86444a22.130014 13.831259 0 1 1 -44.26003 0 22.130014 13.831259 0 1 1 44.26003 0z" fill="url(#c)" opacity=".9666" transform="matrix(1.304789 0 0 1.21464 -20.43351 -43.907478)"/><path d="m298.65695 157.25586v177.84375c35.12811-3.85349 62.7375-42.18816 62.7375-88.92188 0-46.73371-27.60939-85.06838-62.7375-88.92187z" fill="url(#d)" opacity=".9666"/><path d="m247.96904 33.42223c31.65505 0 56.16894 21.233495 59.98124 48.759372h-26.97187c-3.64479-12.426072-13.11379-21.517343-24.51093-22.574997-.74036-.69976-1.77197-1.148438-2.92032-1.148438h-26.61093l-.0984-15.61875s2.37838-3.725289 4.29844-5.479687c2.17544-1.987733 5.11176-3.428347 8.00625-3.740625 2.4252-.261648 5.19957-.04115 8.82656-.196875z" fill="url(#i)"/><path d="m107.92195 156.152v177.84375c-35.128104-3.85349-62.737497-42.18816-62.737497-88.92187 0-46.73372 27.609393-85.06839 62.737497-88.92188z" fill="url(#j)" opacity=".9666"/></g></svg>