<svg height="24.62627mm" viewBox="0 0 24.626271 24.62627" width="24.62627mm" xmlns="http://www.w3.org/2000/svg"><g transform="matrix(.24621588 .00434518 -.00434518 .24621588 -84.966635 -63.326957)"><path d="m450.396 300.246c-.058 27.612-22.487 49.953-50.109 49.9-27.606-.058-49.951-22.488-49.89-50.102.051-27.614 22.485-49.957 50.095-49.901 27.616.054 49.961 22.489 49.904 50.103z" fill="#6787b7"/><path d="m431.436 274.104.01-.011h-2.715c-.516-.01-1.059.045-1.621.176-3.102.718-5.729 3.396-6.352 6.281l-6.361 23.479-21.89-30.065-.014.01.013-.031-3.623-.025-.003.003c-.519-.009-1.063.043-1.622.173-3.102.719-5.725 3.396-6.353 6.278l-12.427 45.998h.899l-.001.003h2.716c.515.009 1.06-.044 1.62-.176 3.103-.719 5.729-3.396 6.352-6.281l6.406-23.65 21.895 30.066h.006l-.006.015 3.621.027.004-.003c.518.009 1.061-.044 1.621-.176 3.102-.719 5.727-3.396 6.352-6.281l12.35-45.804zm-20.907 44.25-21.897-30.079 1.71-6.33 21.9 30.076z" fill="#fff" transform="matrix(1.0005201 -.00000918 .02946347 .99948005 -9.051795 .157422)"/></g></svg>