<svg enable-background="new 0 0 196.6 72" height="4.233333cm" viewBox="0 0 150.00002 149.99998" width="4.233334cm" xmlns="http://www.w3.org/2000/svg"><path d="m0-.000008h150.00002v150h-150.00002z" fill="#0082c9" fill-rule="evenodd"/><path d="m75.086798 49.075518c-11.805249 0-21.811187 8.003181-24.912352 18.846589-2.695243-5.751508-8.535922-9.780922-15.263375-9.780922-9.251824 0-16.857077 7.605251-16.857077 16.857074 0 9.251825 7.605253 16.860546 16.857077 16.860546 6.727453 0 12.568132-4.031883 15.263375-9.784394 3.101165 10.844224 13.107103 18.850059 24.912352 18.850059 11.717945 0 21.672855-7.885095 24.853337-18.607011 2.745055 5.621927 8.513445 9.541346 15.145335 9.541346 9.25183 0 16.86055-7.608721 16.86055-16.860546 0-9.251823-7.60872-16.857074-16.86055-16.857074-6.63189 0-12.40028 3.916959-15.145335 9.537876-3.180482-10.721082-13.135392-18.603543-24.853337-18.603543zm0 9.8955c8.911625 0 16.030725 7.115643 16.030725 16.027241 0 8.9116-7.1191 16.030716-16.030725 16.030716-8.911584 0-16.027226-7.119116-16.027226-16.030716 0-8.911598 7.115642-16.027239 16.027226-16.027241zm-40.175727 9.06567c3.904378 0 6.965043 3.057187 6.965043 6.961571 0 3.904385-3.060665 6.965045-6.965043 6.965045-3.904389 0-6.961581-3.06066-6.961581-6.965045 0-3.904384 3.057192-6.961571 6.961581-6.961571zm80.174399 0c3.9044 0 6.96504 3.057187 6.96504 6.961571 0 3.904385-3.06066 6.965045-6.96504 6.965045-3.90437 0-6.96156-3.06066-6.96156-6.965045 0-3.904384 3.05721-6.961571 6.96156-6.961571z" fill="#fff"/></svg>