<svg height="256" viewBox="0 0 67.73333 67.733331" width="256" xmlns="http://www.w3.org/2000/svg" xmlns:xlink="http://www.w3.org/1999/xlink"><filter id="a" color-interpolation-filters="sRGB" height="1.196471" width="1.258347" x="-.129174" y="-.098235"><feFlood flood-color="#fff" result="flood"/><feComposite in="flood" in2="SourceGraphic" operator="out" result="composite1"/><feGaussianBlur in="composite1" result="blur" stdDeviation="1.0047711"/><feOffset dx="0" dy="0" result="offset"/><feComposite in="offset" in2="SourceGraphic" operator="atop" result="composite2"/></filter><g stroke="#000" transform="translate(88.164287 -68.799318)"><path d="m-45.850498 92.603245-.725403-6.079567 3.696097 1.761687z" fill="none" stroke-width=".547132"/><path d="m-54.555316 92.568691.656313-6.563147-4.490583.587223z" fill="none" stroke-width=".547132"/><g fill="#002fc8" filter="url(#a)" stroke-width=".529167" transform="matrix(2.0679013 0 0 2.0679013 93.244067 -145.00762)"><path d="m-63.96248 108.80474v5.00779q-1.949235-.87161-3.803385-1.31533-1.854151-.44373-3.502284-.44373-2.186947 0-3.232878.6022-1.045931.6022-1.045931 1.87 0 .95084.697287 1.48966.713135.52296 2.567286.9033l2.59898.52297q3.946012.79237 5.609993 2.40881 1.663981 1.61644 1.663981 4.59575 0 3.91432-2.329574 5.83186-2.313726 1.90169-7.083805 1.90169-2.250336 0-4.51652-.42788-2.266184-.42788-4.532367-1.26779v-5.15042q2.266183 1.20441 4.373893 1.82246 2.123557.6022 4.088639.6022 1.996777 0 3.058556-.66559 1.061778-.6656 1.061778-1.9017 0-1.10932-.728982-1.71152-.713135-.6022-2.868386-1.07763l-2.361269-.52296q-3.549826-.76068-5.19796-2.42466-1.632286-1.66398-1.632286-4.48482 0-3.53398 2.282031-5.43568 2.282031-1.90169 6.56084-1.90169 1.949235 0 4.009402.3011 2.060167.28526 4.262961.87161z" fill="#00397e" stroke="#000" stroke-width=".529167"/></g><path d="m-39.064124 79.976818v10.355618q-4.030826-1.802402-7.865026-2.719988-3.8342-.917586-7.242378-.917586-4.522391 0-6.685273 1.245295-2.162882 1.245296-2.162882 3.866972 0 1.966256 1.441921 3.080468 1.474693 1.081441 5.308893 1.867944l5.374435 1.081441q8.159965 1.638547 11.600914 4.981188 3.440949 3.34263 3.440949 9.50357 0 8.09442-4.817329 12.05971-4.784558 3.93251-14.648611 3.93251-4.653474 0-9.339719-.88482-4.686245-.88481-9.37249-2.62167v-10.65056q4.686245 2.49059 9.04478 3.76866 4.391307 1.2453 8.454904 1.2453 4.129138 0 6.324792-1.37638 2.195653-1.37638 2.195653-3.93252 0-2.29396-1.507464-3.53926-1.474692-1.24529-5.93154-2.22842l-4.882871-1.08144q-7.340691-1.57301-10.748869-5.01396-3.375407-3.440947-3.375407-9.274175 0-7.30792 4.719016-11.240433 4.719015-3.932514 13.56717-3.932514 4.030826 0 8.291049.622648 4.260222.589877 8.815383 1.802402z" fill="none" stroke="#000" stroke-width="1.09392"/><path d="m-54.297086 69.062774a33.603395 33.603395 0 0 0 -33.603751 33.603756 33.603395 33.603395 0 0 0 33.603751 33.60266 33.603395 33.603395 0 0 0 33.602679-33.60266 33.603395 33.603395 0 0 0 -33.602679-33.603756zm-.461643 6.401023a26.882716 26.882716 0 0 1 26.882145 26.882143 26.882716 26.882716 0 0 1 -4.70726 15.19575l-37.65488-37.133418a26.882716 26.882716 0 0 1 15.479995-4.944475zm-21.711102 11.077272 36.650379 38.129351a26.882716 26.882716 0 0 1 -14.939277 4.55873 26.882716 26.882716 0 0 1 -26.883215-26.88321 26.882716 26.882716 0 0 1 5.172113-15.804871z" fill="#f00" stroke-width=".526901"/><ellipse cx="-44.196537" cy="78.506477" fill="#fff" rx="4.855049" ry="4.625073" stroke-width=".572385"/><ellipse cx="-56.800137" cy="78.433174" fill="#fff" rx="4.855049" ry="4.625073" stroke-width=".572385"/><g stroke-width=".547132"><path d="m-38.261085 69.323225 1.80749 3.175326-11.382304 3.468428-.732768-.879334z"/><path d="m-63.182185 69.197187-1.80749 3.175325 11.382303 3.468429.732771-.879333z"/></g></g><circle cx="45.035667" cy="11.118674" r="2.688271"/><circle cx="32.256038" cy="11.222098" r="2.688271"/></svg>