<svg height="400" viewBox="0 0 400 400" width="400" xmlns="http://www.w3.org/2000/svg"><path d="m180.66667 398.51635c-85.603231-8.01294-157.422775-71.93922-175.8421031-156.51635-1.1179446-5.13333-2.7448262-17.61104-3.6152923-27.72824-4.7985598-55.77243 15.6389004-111.76486 55.9894804-153.394177 52.975755-54.6546007 133.919715-74.381819 205.661355-50.122657 60.53966 20.471265 105.9137 65.845295 126.38497 126.384964 5.53817 16.37806 7.73752 27.57298 9.54564 48.58835 3.41613 39.70479-6.12388 80.38263-27.18337 115.90776-16.9253 28.55116-41.38568 53.02621-69.86891 69.91077-26.37789 15.63656-53.35459 24.23587-85.07177 27.11816-16.26331 1.47794-18.7325 1.46774-36-.14858zm34.03497-49.22428c32.96841-4.01104 60.54519-16.10747 85.02419-37.29548 6.01746-5.20846 10.94084-9.69404 10.94084-9.96796s-11.16068-11.64347-24.80151-25.26566l-24.80151-24.76762-6.74198 6.06162c-26.34328 23.68487-64.29728 28.11904-93.60348 10.93572-23.28831-13.65481-36.12211-33.74549-40.02639-62.65936l-.85519-6.33333 18.41503-.002 18.41503-.002-35.68338-35.64464-35.683386-35.64503-35.646837 35.64683-35.646836 35.64684h17.66355c13.435603 0 17.663552.40731 17.663552 1.70164 0 .93591.618568 6.78591 1.374595 13 8.781316 72.1772 61.323832 125.44207 132.625402 134.44873 13.2651 1.67563 18.56366 1.69956 31.36831.1417zm135.96503-113.95874 35.31446-35.33333h-17.65724c-13.43046 0-17.65722-.40733-17.65722-1.70164 0-.93591-.61858-6.78591-1.3746-13-6.90072-56.7198-39.85732-101.403313-90.87342-123.2088-22.99072-9.826777-49.56985-14.066415-71.90589-11.469711-33.91229 3.942514-61.33947 15.831916-86.23859 37.38356-6.017462 5.208462-10.940837 9.646207-10.940837 9.861656 0 .21545 11.152367 11.592465 24.783037 25.282265l24.78303 24.89054 6.76047-6.07823c26.36254-23.70221 64.30652-28.14107 93.62194-10.95233 23.28831 13.65481 36.12211 33.74549 40.02639 62.65936l.8552 6.33333h-18.36493-18.36494l35.25827 35.33333c19.39204 19.43334 35.57375 35.33334 35.95933 35.33334.38559 0 16.59258-15.9 36.01554-35.33334z" fill="#4e0d4e" stroke-width="1.333333"/></svg>