<svg height="1116.6783" viewBox="0 0 1116.6811 1116.6784" width="1116.681" xmlns="http://www.w3.org/2000/svg" xmlns:xlink="http://www.w3.org/1999/xlink"><linearGradient id="a"><stop offset="0" stop-color="#8e3db9"/><stop offset=".07421705" stop-color="#8e3db9"/><stop offset=".992404" stop-color="#32223f"/><stop offset="1" stop-color="#32223f"/></linearGradient><linearGradient id="b" gradientTransform="matrix(810.39215 -210.48567 -210.48604 -810.39191 96.957237 618.71887)" gradientUnits="userSpaceOnUse" spreadMethod="pad" x1="0" x2="1" xlink:href="#a" y1="0" y2="0"/><linearGradient id="c" gradientTransform="matrix(-590.47327 176.81555 176.81555 590.47327 796.28497 425.78491)" gradientUnits="userSpaceOnUse" spreadMethod="pad" x1="0" x2="1" xlink:href="#a" y1="0" y2="0"/><g transform="matrix(1.3333333 0 0 -1.3333333 -124.15557 1239.608)"><path d="m451.103 925.253c-53.559-7.877-104.473-25.832-151.33-53.366-46.857-27.535-87.32-63.278-120.265-106.233-34.126-44.496-58.631-94.781-72.833-149.459-14.202-54.679-17.264-110.534-9.105-166.012 7.877-53.558 25.832-104.474 53.367-151.329 27.535-46.859 63.277-87.321 106.233-120.265 44.495-34.126 94.781-58.632 149.459-72.833 54.679-14.202 110.533-17.265 166.012-9.105 53.558 7.876 104.472 25.831 151.33 53.367 46.857 27.534 87.319 63.276 120.263 106.232 34.127 44.495 58.632 94.781 72.834 149.459s17.266 110.534 9.106 166.012c-7.877 53.558-25.833 104.472-53.368 151.329-27.534 46.858-63.276 87.321-106.231 120.264-44.496 34.127-94.782 58.632-149.46 72.834-34.775 9.032-70.024 13.558-105.351 13.558-20.22 0-40.466-1.483-60.661-4.453m-17.833-716.926c-80.835 20.995-148.654 72.212-190.967 144.216-42.312 72.004-54.053 156.176-33.058 237.011 20.996 80.834 72.213 148.653 144.217 190.966 72.006 42.312 156.177 54.053 237.012 33.058 80.834-20.997 148.655-72.214 190.966-144.217 42.313-72.004 54.052-156.177 33.057-237.011-20.995-80.835-72.213-148.655-144.217-190.967-48.668-28.598-102.881-43.23-157.878-43.228-26.372.001-52.934 3.367-79.132 10.172" fill="url(#b)"/><path d="m363.043 787.013c-73.74-39.753-127.583-105.843-151.614-186.094s-15.373-165.057 24.381-238.797c39.754-73.739 105.844-127.584 186.095-151.614 80.252-24.031 165.058-15.373 238.797 24.382 73.739 39.754 127.584 105.844 151.614 186.095 24.031 80.251 15.373 165.057-24.381 238.797-39.754 73.738-105.844 127.583-186.096 151.613-29.771 8.915-60.156 13.331-90.383 13.33-51.254-.002-102.029-12.705-148.413-37.712m89.262-474.986c-109.687 32.847-172.203 148.804-139.356 258.492 32.844 109.687 148.803 172.202 258.49 139.356s172.202-148.803 139.357-258.49c-26.92-89.898-109.66-148.11-199.027-148.106-19.673 0-39.674 2.822-59.464 8.748" fill="url(#c)"/></g></svg>