<svg enable-background="new 1 -2.08 513.901 515.08" height="515.08008" viewBox="1 -2.08 515.08008 515.08006" width="515.08008" xmlns="http://www.w3.org/2000/svg"><g transform="translate(.588992 .000068)"><path d="m506 513c-34.668 0-67.994 0-102.66 0-.882-1.152-2.337-2.438-3.151-3.386-18.079-21.079-36.203-42.121-54.32-63.168-2.202-2.559-4.406-4.549-8.336-4.538-51.329.13-102.659.048-153.988.21-2.338.007-5.249 1.24-6.919 2.89-21.349 21.072-42.531 42.313-63.701 63.568-1.222 1.229-10.798 4.424-12.174 4.424-35.751 0-58.751 0-92.751 0-3.56 0-7-5.11-7-7s0-194.667 0-292c.35-.72.897-1.406 1.021-2.162 5.695-35.341 18.076-68.084 38.374-97.646 2.993-4.358 2.639-7.381-.216-11.519-11.429-16.566-22.588-33.319-33.659-50.127-1.384-2.102-5.52-15.796-2.77-26.983.195-2.79 1.878-5.84 3.594-8.056 7.115-9.187 18.586-17.281 31.406-14.632.798.165 15.302 3.588 20.502 10.142 7.83 9.866 15.069 20.204 22.45 30.42 3.26 4.514 6.25 9.223 9.456 13.979 1.327-.882 2.06-1.271 2.678-1.794 27.917-23.63 59.688-39.764 95.096-48.764 56.068-13.358 83.562-8.856 111.815-4.857s74.306 20.005 106.046 43.226c7.034 5.147 13.788 10.68 20.907 16.219 5.642-8.528 10.903-17.011 16.71-25.104 4.918-6.854 6.393-9.311 12.087-15.522 4.083-4.454 28.503-16.57 45.362-6.459 16.049 9.625 15.556 34.231 7.808 46.198-11.141 16.583-22.132 33.269-33.392 49.769-2.069 3.031-1.746 5.031.122 7.943 13.941 21.744 24.328 45.082 30.618 70.173 2.127 8.485 3.997 17.036 5.983 25.557v292c.002 4.163-2.766 6.999-6.998 6.999zm-165.056-257.831-.105-.056c1.406.458 2.812 1.31 4.223 1.314 21.163.073 42.326.045 63.489-.002 1.461-.003 2.921-.352 4.382-.541l.373.068.372-.068c1.443.253 2.888.726 4.332.729 24.159.045 48.318.037 72.479.011 1.105-.001 2.21-.285 4.197-.56-.904-10.128-1.413-20.057-2.733-29.877-5.244-38.992-19.133-74.674-42.106-106.651-2.902-4.04-2.528-6.633.037-10.411 13.186-19.424 26.14-39.005 39.123-58.566 1.273-1.921 2.426-3.989 3.241-6.138 1.732-4.558.521-8.61-3.086-11.726-3.415-2.949-7.588-2.903-11.231-.866-2.923 1.634-5.812 3.963-7.71 6.685-7.999 11.465-15.613 23.198-23.383 34.823-5.054 7.56-10.13 15.104-15.438 23.017-47.004-49.137-104.04-75.298-171.365-76.184-67.297-.887-124.963 23.875-172.985 71.38-.971-1.257-1.609-1.989-2.146-2.79-12.319-18.403-24.46-36.93-37.088-55.119-2.389-3.44-6.323-6.462-10.211-8.059-6.336-2.604-12.854 2.259-12.646 9.121.095 3.115 1.357 6.559 3.085 9.206 12.098 18.541 24.436 36.924 36.733 55.334 6.548 9.802 6.623 9.81-.297 19.53-24.786 34.817-39.196 73.531-43.468 116.011-.754 7.503-.852 15.07-1.227 22.113 19.167 0 37.475.104 55.781-.048 7.936-.064 15.865-.654 23.797-1.004l.332.036.328-.062c.788.194 1.575.556 2.364.558 24.78.044 49.561.072 74.339.008 1.053-.002 2.104-.897 3.157-1.377 5.358-16.273 11.05-32.447 20.5-46.879 9.743-14.881 20.832-28.499 37.654-36.127 14.758-6.692 29.495-7.441 44.335-.406 16.569 7.856 28.036 21.055 37.641 36.151 9.161 14.4 15.147 30.212 20.328 46.367.2.352.401.703.603 1.055zm-170.972 89.854c-.948-23.414.803-46.647 5.208-70.045-17.885 0-35.183-.038-52.479.017-8.479.025-16.956.223-25.435.342-.816-.114-1.634-.326-2.451-.326-23.822-.019-47.646-.022-71.47.003-1.097.002-2.193.302-3.042.427v218.688c24.752 0 49.068.016 73.383-.06.974-.003 1.943-.866 2.915-1.328 1.062-.672 2.289-1.175 3.157-2.039 22.756-22.641 45.479-45.313 68.183-68.008.785-.785 1.32-1.819 1.972-2.737.02-24.978.039-49.956.059-74.934zm246.666-69.716c-.989-.107-47.142-.326-68.79-.304-.739.001-1.479.256-2.376.421 4.023 21.313 5.582 42.498 5.471 63.842-.132 25.313-.053 50.627.02 75.939.005 1.648.211 3.732 1.188 4.879 13.482 15.808 27.129 31.476 40.709 47.2 7.543 8.734 15.34 16.572 23.779 26.406 0-3.29-.304-4.139-.304-5.928 0-32.642-.016-65.281.004-97.922.021-37.802.074-75.604.113-113.404.062 1.828.179 3.656.179 5.484.01 68.475.008 136.95.008 205.426v6.344h77.203c0-73.026 0-145.607 0-218.696-7.223 0-14.177-.027-21.129.006-18.985.09-37.094.2-56.075.307zm-95.015 146.425c-15.146-32.957-30.019-65.315-45.154-98.254 15.437-5.25 27.274-14.479 34.837-28.599 7.661-14.307 9.093-29.449 4.855-45.023-6.812-25.042-30.092-43.339-56.342-43.542-25.128-.193-48.584 14.473-57.634 40.507-4.41 12.689-4.458 25.539-.213 38.259 6.365 19.07 19.605 31.547 38.789 38.388-14.206 33.012-28.149 65.413-42.285 98.264z" fill="#cecdcc"/><path d="m513 214c-1.987-8.521-3.857-17.071-5.984-25.557-6.29-25.091-16.677-48.429-30.618-70.173-1.868-2.912-2.191-4.912-.122-7.943 11.26-16.5 22.251-33.186 33.393-49.769.894-1.331 2.211-2.378 3.331-3.558z" fill="none"/><path d="m1 506c2.333 2.332 4.667 4.666 7 7-2.333 0-4.667 0-7 0 0-2.334 0-4.668 0-7z" fill="none"/><path d="m99.364 255.846c-7.932.351-15.862.939-23.797 1.004-18.307.15-36.614.048-55.781.048.375-7.043.473-14.61 1.227-22.113 4.271-42.479 18.682-81.193 43.468-116.011 6.92-9.722 6.846-9.729.297-19.53-12.298-18.411-24.636-36.794-36.733-55.335-1.728-2.647-2.991-6.091-3.085-9.206-.209-6.861 6.309-11.726 12.646-9.121 3.888 1.597 7.822 4.618 10.211 8.059 12.627 18.19 24.769 36.716 37.088 55.119.536.801 1.175 1.533 2.146 2.79 48.021-47.505 105.688-72.267 172.984-71.381 67.324.886 124.36 27.047 171.363 76.184 5.308-7.913 10.384-15.457 15.438-23.017 7.77-11.625 15.384-23.358 23.383-34.823 1.898-2.722 4.787-5.051 7.71-6.685 3.645-2.037 7.816-2.083 11.231.866 3.606 3.115 4.818 7.168 3.086 11.726-.815 2.147-1.968 4.216-3.241 6.138-12.983 19.562-25.938 39.144-39.123 58.566-2.565 3.778-2.939 6.371-.037 10.411 22.975 31.978 36.862 67.659 42.106 106.651 1.32 9.82 1.829 19.749 2.733 29.877-1.987.274-3.092.558-4.197.56-24.159.025-48.318.034-72.479-.011-1.444-.003-2.889-.475-4.332-.728-3.11-19.441-8.353-38.268-16.353-56.285-12.897-29.05-30.484-54.431-55.776-74.358-21.427-16.884-45.465-27.338-72.295-30.174-23.573-2.491-46.517 1.738-68.218 11.851-11.526 5.37-21.652 12.648-31.493 20.633-12.29 9.969-23.965 20.554-32.412 33.91-8.126 12.85-15.699 26.177-22.12 39.943-8.027 17.215-12.742 35.627-15.645 54.442z" fill="#f08327"/><path d="m99.364 255.846c2.902-18.814 7.618-37.227 15.646-54.44 6.421-13.768 13.994-27.095 22.12-39.943 8.447-13.356 20.123-23.941 32.412-33.91 9.841-7.983 19.967-15.263 31.493-20.633 21.701-10.111 44.645-14.341 68.218-11.851 26.83 2.836 50.868 13.29 72.295 30.174 25.292 19.929 42.879 45.309 55.776 74.358 8 18.019 13.241 36.844 16.353 56.285 0-.001-.372.067-.372.067l-.373-.068c-1.251-.295-2.502-.847-3.754-.848-22.779-.015-45.561.038-68.34.075 0 0 .105.056.104.055-.201-.353-.402-.703-.603-1.055-5.181-16.155-11.167-31.967-20.328-46.367-9.604-15.097-21.07-28.294-37.641-36.151-14.841-7.036-29.577-6.287-44.335.406-16.822 7.629-27.911 21.247-37.654 36.127-9.449 14.432-15.142 30.605-20.5 46.879-24.689-.003-49.378-.024-74.066.027-1.932.004-3.861.512-5.793.784l-.328.062z" fill="#1e3863"/><path d="m321.623 421.732c-41.498 0-81.923 0-123.146 0 14.136-32.851 28.08-65.252 42.285-98.264-19.184-6.841-32.423-19.316-38.789-38.388-4.245-12.721-4.197-25.569.213-38.259 9.05-26.034 32.505-40.7 57.634-40.507 26.25.202 49.53 18.499 56.342 43.542 4.236 15.574 2.806 30.718-4.855 45.023-7.562 14.119-19.4 23.349-34.837 28.599 15.135 32.938 30.008 65.297 45.153 98.254z" fill="#1d3863"/><path d="m472.71 274.999c6.952-.033 13.906-.006 21.129-.006v218.696c-25.454 0-50.975 0-77.203 0 0-2.146 0-4.245 0-6.344 0-68.476.002-136.951-.008-205.426 0-1.828.072-4.784.01-6.613-.229-.373 37.09-.216 56.072-.307z" fill="#f08226"/><path d="m96.601 492.74c-.972.462-1.941 1.325-2.915 1.328-24.314.074-48.631.06-73.383.06 0-72.928 0-145.629 0-218.688.848-.125 1.945-.425 3.042-.427 23.824-.025 47.647-.021 71.47-.003.817 0 1.635.212 2.451.326-.204 2.296-.584 4.592-.586 6.888-.049 70.172-.061 140.344-.079 210.516z" fill="#f08327"/><path d="m96.601 492.74c.019-70.173.03-140.345.079-210.518.001-2.296.382-4.592.586-6.888 8.479-.119 16.956-.315 25.435-.342 17.297-.055 34.594-.017 52.479-.017-4.404 23.396-6.155 46.631-5.208 70.045-.324 1.584-.926 3.167-.93 4.752-.062 21.803-.062 43.604-.002 65.404.004 1.593.568 3.184.873 4.776-.651.918-1.188 1.952-1.972 2.737-22.704 22.693-45.427 45.367-68.183 68.008-.868.869-2.096 1.372-3.157 2.043z" fill="#1d3863"/><path d="m416.337 389.841c-.02 32.641.301 100.56.301 103.85-8.438-9.834-16.237-17.671-23.78-26.406-13.58-15.726-27.227-31.394-40.709-47.2-.977-1.146-1.183-3.229-1.188-4.879-.071-25.313-.15-50.627-.02-75.939.111-21.344-1.446-42.527-5.471-63.842.896-.165 1.637-.42 2.376-.421 21.648-.021 68.791.304 68.791.304s-.278 77.17-.3 114.533z" fill="#1d3863"/><path d="m340.838 255.114c22.779-.037 45.561-.09 68.34-.075 1.252 0 2.503.552 3.754.848-1.461.188-2.921.537-4.382.541-21.163.047-42.326.075-63.489.002-1.41-.007-2.817-.858-4.223-1.316z" fill="#21325a"/><path d="m100.023 255.821c1.932-.272 3.862-.78 5.793-.784 24.688-.052 49.377-.03 74.066-.027-1.052.479-2.104 1.375-3.157 1.377-24.78.064-49.56.037-74.339-.008-.787-.003-1.575-.364-2.363-.558z" fill="#203159"/><path d="m169.913 419.956c-.305-1.594-.869-3.185-.873-4.776-.06-21.802-.061-43.603.002-65.404.004-1.585.605-3.168.93-4.752-.02 24.977-.039 49.955-.059 74.932z" fill="#20315a"/><path d="m340.341 254.115c.2.352.4.702.603 1.055-.202-.353-.403-.704-.603-1.055z" fill="#21325a"/></g></svg>