<svg clip-rule="evenodd" fill-rule="evenodd" height="3354" image-rendering="optimizeQuality" shape-rendering="geometricPrecision" text-rendering="geometricPrecision" viewBox="0 0 3487.77 3487.175" width="3354" xmlns="http://www.w3.org/2000/svg"><g transform="translate(-.001 1053.224)"><path d="m348.079 348.079h2791.611v684.571h-2791.611z" fill="#e56e14"/><path d="m139.233 0c-76.5778 0-139.233 62.6552-139.233 139.234v1102.26c0 76.5778 62.6552 139.233 139.233 139.233h3209.31c76.5791 0 139.229-62.6552 139.229-139.233v-1102.26c.0037-76.5791-62.6551-139.234-139.2293-139.234h-3209.31002z" fill="#e56e14"/><g fill="#fff"><path d="m441.755 836.986c0 50.7825 15.0527 75.2562 62.0865 75.2562 47.0288 0 62.0815-24.4737 62.0815-75.2562v-344.274c0-50.7948-15.0527-75.2451-62.0815-75.2451-47.0337 0-62.0865 24.4504-62.0865 75.2451zm-116.63-347.097c0-95.9406 56.4302-174.011 178.716-174.011 122.281-.005 178.716 78.0702 178.716 174.011v349.911c0 95.9529-56.4351 174.024-178.716 174.024-122.286 0-178.72-78.0714-178.72-174.024z"/><path d="m863.989 900.943c20.693 15.0527 39.5031 26.337 60.1998 26.337 28.2151 0 50.7911-15.038 50.7911-81.8239v-188.13c0-66.7871-22.5797-81.8362-50.7911-81.8362-20.6967 0-39.5068 11.2843-60.1998 26.337v299.116zm-5.65137-402.584v52.6777h1.88297c34.8024-44.2124 60.1998-62.0865 112.876-62.0865 65.8475 0 107.234 48.9155 107.234 141.096v242.685c0 92.1845-41.3861 141.093-107.234 141.093-46.0855 0-67.7255-18.815-109.108-52.6851v203.19h-105.358v-665.97h99.7066z"/><path d="m1374.46 684.603v-26.337c0-58.3217-20.693-82.7758-58.3168-82.7758-37.6287 0-58.3254 24.4541-58.3254 82.7758v26.337h116.639zm105.347 86.5319h-221.985v73.3695c0 58.3291 20.693 82.7758 58.3217 82.7758 37.6238 0 58.3168-24.4467 58.3168-82.7758v-11.288h105.347c-1.8793 107.241-46.0867 180.608-163.664 180.608-120.4 0-163.676-77.1318-163.676-188.126v-148.626c0-110.987 43.2715-188.121 163.671-188.121 120.403 0 163.664 77.1343 163.664 188.121v94.0626z"/><path d="m1547.15 1004.41v-506.055h99.7176v50.7911c44.2038-37.6213 66.7748-60.1998 127.911-60.1998 55.5151 0 88.4272 40.4464 88.4272 106.294v409.17h-105.355v-392.243c0-25.3974-15.0527-36.6817-37.6238-36.6817-22.5674 0-43.2715 14.1143-67.7219 31.9773v396.947h-105.354z"/><path d="m2058.48 908.462h40.4427c62.0865 0 83.7056-23.507 83.7056-94.9862v-297.249c0-71.4878-21.6192-95.0022-83.7056-95.0022h-40.4427v487.237zm-116.639-583.178h173.069c120.392 0 184.385 65.8426 184.385 205.057v269.022c0 139.205-63.9928 205.052-184.389 205.052h-173.065z"/><path d="m2480.54 580.191v424.219h-105.35v-679.126h108.17l142.05 388.473h1.86v-388.473h105.36v679.126h-101.57l-148.65-424.219z"/><path d="m3042 485.75c-4.7044-58.3168-35.7261-75.2451-62.0545-75.2451-37.6361 0-58.3242 24.4541-58.3242 66.7798 0 115.698 237.041 171.205 237.041 355.554 0 111.942-75.2685 174.028-184.371 174.028-108.168 0-170.251-86.5442-174.959-188.13l110.998-15.9874c4.7044 68.6615 31.9798 102.532 69.6159 102.532 40.4464 0 67.7231-21.6437 67.7231-62.0815 0-134.514-237.058-170.263-237.058-364.967 0-108.181 65.8708-169.315 180.626-169.315 94.9826 0 151.441 68.6652 161.773 164.611l-111.011 12.2227z"/></g></g></svg>