<svg height="194.38968" width="194.38968" xmlns="http://www.w3.org/2000/svg" xmlns:xlink="http://www.w3.org/1999/xlink"><linearGradient id="a"><stop offset="0" stop-color="#fff68e"/><stop offset=".5" stop-color="#faea82"/><stop offset="1" stop-color="#d6aa4a"/></linearGradient><radialGradient id="b" cx="497.43198" cy="348.19943" gradientTransform="matrix(.39649022 0 0 .77024994 199.23584 17.698948)" gradientUnits="userSpaceOnUse" r="9.2471" xlink:href="#a"/><radialGradient id="c" cx="488.70059" cy="285.96576" gradientTransform="matrix(.32863721 0 0 .92928183 199.23584 17.698948)" gradientUnits="userSpaceOnUse" r="7.61609" xlink:href="#a"/><radialGradient id="d" cx="501.06473" cy="394.90552" gradientTransform="matrix(.46705482 0 0 .65387736 199.23584 17.698948)" gradientUnits="userSpaceOnUse" r="8.931628" xlink:href="#a"/><radialGradient id="e" cx="338.41714" cy="292.82816" gradientTransform="matrix(.35939143 0 0 .8497603 199.23584 17.698948)" gradientUnits="userSpaceOnUse" r="7.609121" xlink:href="#a"/><radialGradient id="f" cx="492.17062" cy="412.90756" gradientTransform="matrix(.55262532 0 0 .55262864 199.23584 17.698948)" gradientUnits="userSpaceOnUse" r="8.303475" xlink:href="#a"/><radialGradient id="g" cx="178.33974" cy="341.68225" gradientTransform="matrix(.47600886 0 0 .64157749 199.23584 17.698948)" gradientUnits="userSpaceOnUse" r="10.078173" xlink:href="#a"/><radialGradient id="h" cx="509.23199" cy="353.12115" gradientTransform="matrix(.54750588 0 0 .55779598 199.23584 17.698948)" gradientUnits="userSpaceOnUse" r="248.78087" xlink:href="#a"/><radialGradient id="i" cx="507.44736" cy="320.43503" gradientTransform="matrix(.55139061 0 0 .55386614 199.23584 17.698948)" gradientUnits="userSpaceOnUse" r="25.233341" xlink:href="#a"/><radialGradient id="j" cx="429.49573" cy="326.1861" gradientTransform="matrix(.65363747 0 0 .46722624 199.23584 17.698948)" gradientUnits="userSpaceOnUse" r="23.595718" xlink:href="#a"/><radialGradient id="k" cx="551.64862" cy="183.2599" gradientTransform="matrix(.52102139 0 0 .58614977 199.23584 17.698948)" gradientUnits="userSpaceOnUse" r="9.607784" xlink:href="#a"/><radialGradient id="l" cx="364.33224" cy="234.70634" gradientTransform="matrix(.69901577 0 0 .43689513 199.23584 17.698948)" gradientUnits="userSpaceOnUse" r="21.185574" xlink:href="#a"/><radialGradient id="m" cx="359.24802" cy="159.9493" gradientTransform="matrix(1.0000002 .00000005 -.00000005 1.0474956 -.000066 -7.596921)" gradientUnits="userSpaceOnUse" r="145.69286"><stop offset="0" stop-color="#fff68e"/><stop offset=".73100191" stop-color="#eed26a"/><stop offset="1" stop-color="#d6aa4a"/></radialGradient><g transform="matrix(.58569574 0 0 .58569574 -116.6916 3.02458)"><path d="m388.62481 17.698956c-2.79911 6.50576-2.01571 14.096257-4.05518 20.85782-.47012 1.557369-2.00985 6.262181-4.26247 5.936424-4.60542-.665988-2.21929-9.514082-7.53429-9.690834l1.66866 12.931847c-7.98607 1.003051-6.89646-11.463788-10.13817-16.528233-3.74062-5.843776-4.64129 2.651029-4.39139 5.26501.15976 1.6753.49808 3.334999.69874 5.005878.34915 2.90779.43171 5.437799.0647 8.343125-7.63106-.09014-4.82985-10.134228-10.4289-11.680373l.41712 12.097535c-8.45995-.07092-12.31568-7.707384-16.03005-14.183321-1.551-2.70313-3.61385-7.926384-7.33071-6.257345 1.73873 7.515113 5.85271 14.70852 6.27237 22.526446.10848 2.021333-1.79918 7.152562-4.60249 6.20841-6.47762-2.182058-5.60823-13.934191-11.00585-17.026487-1.09127-.625275-2.81497-.0793-4.01301-.02799.004 6.234234 2.74612 13.770331 4.92534 19.606348.46891 1.255226 1.78543 5.668323-.94902 5.586142-4.88738-.146839-6.10426-9.622214-11.06802-8.506234.6074 2.555917 2.12585 4.630434 2.9727 7.091658.51725 1.503847 1.47545 3.023549 1.75332 4.588302.6065 3.421954-3.72814 3.699318-5.97744 3.03648-5.31417-1.566841-9.13072-5.911102-12.93186-9.710568-1.0533-1.052898-3.83285-4.760041-5.58656-3.077358-1.95061 1.871361 1.87971 5.159386 2.96595 6.414612 3.24674 3.753155 6.75962 8.149142 8.31063 12.931853.66657 2.054888.79716 4.975024-1.24314 6.384996-2.02405 1.398699-5.31666-1.140069-6.94984-2.214707-5.00127-3.290949-9.97292-9.041862-16.26906-9.17615l-1.47468 3.754382 4.01516 5.423039 10.39133 11.680379-12.09751-5.005861c.48847 3.162463 8.06532 6.994876 6.57356 10.254099-.88399 1.93188-5.26748 1.96399-6.99073 1.71829-6.16765-.87896-10.53197-5.471451-16.26907-7.117561-5.06597-1.453354-4.1232 2.476266-1.25109 4.746016.99661.787605 1.95691 1.613555 2.9197 2.442445 1.7337 1.49176 3.38771 3.02519 5.00586 4.64295 2.53048 2.52965 4.74767 5.23448 7.09169 7.92594l-12.09755-.41712v.8343l11.68037 5.42304-2.08578 8.34312c-3.37273-.009-6.10719-.92731-9.17742-2.26268-2.09246-.91023-4.29507-2.42238-6.67453-2.2551-2.84041.19939-4.52948 2.79287-2.62641 5.21652 2.85293 3.63303 8.56799 5.7025 12.21892 8.53295 1.39329 1.08044 3.41192 2.92677 1.83589 4.77099-3.1124 3.64264-11.50056-1.03076-15.59996.18066v.8343c3.80447 2.22051 11.60529 3.48741 13.84415 7.58138 1.75083 3.2017-3.22795 10.45935-6.75249 10.1753-3.14035-.25366-6.02665-3.79821-8.34313-5.65874-5.544-4.45312-11.47555-9.6918-17.93772-12.76458-11.0808-5.26907-22.08613 3.12284-30.86957 8.59258 1.12342 3.54499 5.55778-.22818 8.34313.40342 3.7489.84972 6.59695 4.33757 9.00039 7.1054 11.61355 13.3749 21.33388 28.53976 25.67656 45.88721 1.14301 4.56664 3.09447 10.03096-.3187 14.12327-.91524 1.09669-2.27989 1.24021-3.28945 2.14585-.75468.67703-.71559 1.6365.31963 1.9531 1.91107.58484 4.69726-.30411 6.57279-.75589 6.12303-1.47546 13.11289-4.77851 15.89326-10.79181 1.72951-3.74067 2.33817-11.01838 6.63319-12.51468.95029 4.00926 5.4589 9.31343 5.02006 13.34898-.39005 3.58462-4.16487 7.73783-6.37251 10.39138-.78174.93985-2.66897 3.0006-1.53967 4.35011 1.12382 1.34283 3.4432-1.5489 4.14359-2.2105 3.16578-2.98938 10.08561-7.71114 11.96443-.85061 1.63362 5.96578-3.61506 15.61083-6.23689 20.8578-.72958 1.45966-4.08977 6.02248-2.77783 7.65024 1.51259 1.87639 4.67715-3.0127 5.3513-3.8958 2.62929-3.44364 11.83678-13.64895 16.72835-9.98133 5.96578 4.47319 3.90879 7.67069 1.64777 13.73571-.63696 1.70828-2.98932 5.99164-1.38996 7.61647 1.54768 1.57184 3.58002.13225 4.371-1.36703 1.43163-2.71445 5.28366-10.78015 9.13735-8.7215 2.412 1.28861 6.10051 3.47326 7.50341 5.88067 2.19299 3.76316.28576 11.27364-.2987 15.36341-.3366 2.35486-2.86835 9.70264-.76671 11.40423 1.94143 1.57184 3.51122-3.1545 4.09436-4.31253 2.05494-4.08104 4.41897-8.26012 7.47798-11.68038 1.09796-1.22772 2.65018-3.28509 4.51612-2.93594 9.68927 1.81378-.20983 11.46552 3.7661 16.39257.80468.997 2.98684.92527 4.1599 1.14383l5.00586-12.93186c2.5459.98075 6.29072 1.32072 8.16832 3.42651 1.5777 1.76962 1.88767 4.75895 2.34358 7.00239 1.27652 6.28199 1.97526 12.39001 1.16848 18.77208.79302.57025 2.04361 1.89429 3.10819 1.21555 1.34659-.85933 1.51846-4.36508 1.97857-5.80429 1.47176-4.6025 3.71692-9.00307 5.80308-13.34898 1.37411-2.863 5.1202-5.91195 7.82377-1.9694 2.77324 4.04346 1.6628 11.11637 3.39567 15.73556 4.43063-2.18382 4.91368-11.40716 5.00586-15.85194l5.74632.83806 3.45199 7.08788 6.2365 17.93772c3.22751-1.23479 2.20548-7.44162 2.56757-10.4289.491-4.04976 1.43041-12.18554 4.39973-15.19951 1.19727-1.21517 3.57799-1.31824 5.13021-1.90391 1.77045 4.31635 2.74158 9.21163 4.8845 13.34274.83557 1.61024 2.73948 3.34604 4.66461 2.35861 1.84263-.94527 1.77338-3.09615 1.53681-4.85527-.58109-4.32259-1.56433-8.57301-1.90845-12.93186 8.27012-.58402 13.12163 6.1026 18.31771 11.68038 2.0078 2.15547 3.75609 5.01045 6.71165 5.84022l-4.28794-12.51474-2.38657-11.68038c3.00104-1.25601 9.35183-7.39409 12.51468-6.50011 4.71097 1.33156 8.31018 14.45866 14.15874 11.37296 2.49456-1.31575 1.20473-3.54582.0334-5.28997-1.74459-2.59724-6.99029-8.83457-6.42213-12.0959.42088-2.41697 4.46942-5.23238 6.83052-5.19983 5.40839.0743 14.81112 4.19118 17.93772 8.53543l3.75438-.41718c-.56274-7.46831-11.75548-10.87481-13.3565-18.35445-.15976-.74505-.13268-1.6444.0505-2.38448 1.18892-4.79437 4.07269-2.70063 7.0487-1.41246.92819.40171 2.95639 1.43169 3.72438.28323.84684-1.26607-.65371-2.93595-1.2039-3.9955-1.12344-2.16254-2.15381-4.66008-1.68618-7.09164 3.89751 1.01949 6.30282 3.33765 9.5946 5.52732.77843.51765 2.49589 1.81461 3.47829 1.09166 1.03325-.76047-.49228-2.29478-.98367-2.8646-1.47005-1.70452-5.97158-5.8206-5.52732-8.30559.29991-1.67739 3.13035-3.47448 4.28418-4.62627 3.81407-3.8082 8.15749-7.68858 11.2632-12.0975h.41718c7.36867 8.59507 30.46577 2.56756 27.53232-10.42895-1.83716.26283-3.54334 1.70701-5.42304 1.05916-8.21629-2.83249-6.23065-15.99457-15.43476-16.07675-.6783-8.5797-4.12569-17.15558-8.28559-24.61223-1.90723-3.41905-5.87189-6.54686-7.25682-10.02803-.7676-1.93021-.63702-4.99005-.72671-7.07539 4.82609-.75174 2.44748-5.63702.6904-8.34312-1.95774-3.01563-4.02887-6.59356-6.56936-9.13863-3.12118-3.12621-7.76954-5.16402-7.36911-10.46731.37253-4.93954 8.88381-4.31176 10.32799-8.76068-2.52379.108425-5.01879.73378-7.50882 1.14841-6.1981 1.03248-7.27771-1.052474-4.38349-6.571449 2.52882-4.821947 6.55355-8.48078 10.1044-12.51468 1.13669-1.290716 4.64123-4.232073 2.8358-6.101776-1.49176-1.545145-3.95504.813467-5.21945 1.651968-4.60499 3.052711-9.74602 5.308701-15.01764 6.941879-1.56974.486422-6.19937 2.29727-6.7237-.485151-.70792-3.756095 6.4029-4.457324 5.47222-8.681438-2.84459.675807-8.43447 5.165238-11.1677 3.084045-3.28885-2.504616 1.541-8.898378 2.05743-11.843924.52311-2.9835-1.87634-3.093213-3.565-1.227274-.59153.653686-1.12802 1.368692-1.67325 2.061172-.94316 1.198073-1.72535 2.36027-2.33772 3.75441-6.83218-3.988851 6.09421-8.623457 3.66138-12.315459-.86685-1.315755-2.46621.0012-3.2442.682219-1.6219 1.419582-7.71865 8.444913-9.04479 3.288025-1.46717-5.70353 1.49463-12.55474 3.02895-17.935636.40049-1.405275 2.20968-5.196937.45426-6.206498-2.56176-1.473436-3.6847 3.497316-4.28502 4.955025-1.84842 4.488232-4.90323 8.390353-8.5083 11.607963-1.18765 1.059911-3.20208 3.117031-4.98127 2.627166-2.5822-.710916-2.59182-7.873409-2.51086-10.063564.0388-1.042763.62491-2.841834-.3938-3.597347-1.32862-.98545-2.02278.99154-2.22051 1.930641-.6458 3.071396-2.55175 11.845449-7.10463 6.092569-4.11939-5.205901 2.25141-16.004415-6.14969-18.192022l-4.58873 14.600471c-5.49897-1.200283-4.27877-9.062679-2.92008-13.349003l-2.50296-.834312c-.3938 1.701914-.954 3.359989-1.54012 5.005878-2.22261 6.239617-5.19403 7.454794-7.48798.417156-1.75078-5.371308-1.13007-11.166359-2.00107-16.686255-.34749-2.201275-.55356-4.434222-2.73699-5.423033z"/><path d="m389.04199 30.213645c-.24614 11.91887-3.84535 20.849019-17.10342 20.857822l4.58874 18.772037c-4.97834-5.217379-6.79383-12.519908-9.03855-19.189193-1.425-4.233222-3.23922-8.487339-3.89331-12.931847h-.41718c.15562 7.530835 1.74332 15.003485.22989 22.52644-.83225 4.135689-3.16329 7.350293-4.40145 11.263224h-.41712l2.5029-18.354881c-9.31298.736116-17.35287 2.147188-23.45504-6.674502-1.32569-1.916709-2.34938-4.111329-3.24298-6.257345h-.41712c1.0454 6.98011 7.26141 15.124881-.0376 20.979626-1.11459.893969-2.40155 1.442943-3.71686 1.96397l6.59445 9.995464 3.83451 5.022164c-10.55366-6.98945-16.83184-19.162159-22.10932-30.452411h-.41712c1.34576 8.984842 6.80632 17.107165 8.16501 26.280851.47178 3.187497 1.70612 7.696546-1.07337 10.011777l-3.33726-15.851967c-4.85902 2.52088-8.59843 10.099341-15.01764 9.029345-2.73025-.455089-4.93993-2.665597-7.50876-3.606334 1.20931 3.821582 4.55702 7.435431 2.64769 11.68038-.70626 1.570621-2.08495 2.774519-3.06487 4.17156l13.34898 5.005916c-2.43575 2.914665-7.5071.626126-10.4289-.743394-5.53859-2.595965-10.46725-6.026231-15.43476-9.564149-2.82293-2.010678-6.14471-4.877376-9.5946-5.544396 2.12458 4.555746 7.57807 8.416951 11.2632 11.751281 3.04691 2.756558 5.32291 5.943614 7.89262 9.106519 2.53087 3.115328 5.83851 6.630698 4.62206 10.846078-4.43687-4.47357-8.31139-7.72573-15.01758-6.1593-2.43415.56815-4.48738 1.99813-7.09169 1.93391-4.63793-.11428-9.11735-2.47665-13.34899-4.11773 2.45665 5.26781 8.93173 8.1045 10.31252 14.18328 1.01496 4.4665-2.20592 10.16613-2.8037 14.60046l14.18329 2.08584v.8343c-12.16299 3.21795-20.73263-3.46199-32.12101-5.42304v.41712c7.68108 3.63386 16.38672 9.7715 21.86314 16.26912 1.99195 2.3632 4.43439 5.10727 4.4177 8.34312-2.2414-1.81588-6.47596-6.55896-9.59421-6.08089-2.48831.38132-3.31095 3.14285-3.6401 5.24659-.88851 5.67835-.94902 11.77631-.94902 17.52054-2.38945-2.087-2.08578-4.99376-2.08578-7.92594-2.96805 1.9548-6.17473 4.40725-10.01173 3.638-3.88124-.77838-7.74744-5.5586-10.42892-8.2263-5.29785-5.27035-11.17091-10.46814-18.77204-11.50354-3.96436-.53975-15.96983.0176-10.60403 6.07216.55328.62408 1.10763 1.27275 1.86018 1.66484 2.8247 1.47259 8.85277-.40546 12.0811-.40546v.41718l-10.42891 2.08578c4.19005 8.78157 13.2634.90896 18.35488 6.25734-3.47871-1.02828-9.45313-1.02828-12.93184 0l5.82829 7.50882 2.6774 3.50288 9.84919 1.08585v.41713h-8.76029c.5174 4.59415 5.83051 3.34311 9.17744 2.92008v.41718l-7.09165 1.25148c1.11397 2.58513 3.83596 10.252 6.42003 11.42716 2.02238.91941 4.83401-.85729 6.51181-1.83257-2.30312 4.19864-6.4192 2.50628-4.17156 8.34312l6.6745-3.33725c-1.48758 1.67738-3.98843 3.00397-4.99253 5.01216-1.15886 2.31689.79844 6.51552 1.65527 8.75399l6.67451-5.00586-6.35204 7.13044.51185 7.47002c5.59198-2.32855 10.12271-6.46131 12.50846-12.09755.98987-2.33817 1.09293-5.26494 2.27262-7.45334.86227-1.59936 3.35478-1.34156 3.85662-3.07067.96074-3.30847-1.08337-5.99578.55147-9.49949h.41718l1.25147 6.67452c4.21367-1.18346 6.72454-7.80956 7.92595-11.68038h.83435c1.16345 5.35252-3.6806 8.81954-5.42304 13.34898 2.94468.68166 8.24089 2.11081 7.92595 5.84021l-10.4289-3.75443 7.92599 17.52059h.41713c3.81616-5.76721 7.50384-14.94005 12.93185-19.18919 1.89557 6.1535-4.67257 11.15516-7.09164 16.26911 3.5771-.97826 10.06345-5.78136 13.34898-3.75443-4.59708 1.91391-8.68143 4.67218-12.0587 8.34312-1.11007 1.20726-3.1429 3.23425-3.1187 5.00591.025 1.81212 2.25267 4.00467 3.25674 5.42304 3.64552 5.14938 8.05277 10.56949 13.58932 13.76616 2.26599-4.30673 4.18073-8.61346 5.37004-13.34904.54605-2.17337.45846-5.10096 2.5559-6.25734 2.04157 11.50934-6.19019 24.19589-8.7603 35.04114 7.84173-6.6507 12.57768-17.40504 22.52646-21.69216-.22862 5.36297-8.85037 8.20176-9.31215 14.1771-.16186 2.09622 2.4441 3.18788 3.88873 4.18825 4.04556 2.80242 7.46914 5.91775 12.09794 7.78955 1.66484.67327 3.23795 2.08871 4.7852.47349 2.8116-2.93594 3.05315-8.64308 2.60469-12.44505-.28449-2.40779-1.28524-6.08962.53605-7.92594l2.90384 17.10336-1.65236 20.02356h.41718c3.89956-9.91081 7.3553-20.68306 15.01764-28.36668.0454 5.22741-5.86857 12.5794-7.926 17.5206 7.82293 3.65845 16.98952 5.86857 25.44654 7.50882.66205-5.2399.4689-10.30417-.89896-15.43482-.61281-2.2981-2.62393-5.37004-1.18682-7.50882 5.17397 11.13433 10.83773 22.42715 10.84608 35.04114h.41712c.005-7.64941 1.33868-15.45311 2.83669-22.94358.27366-1.36869.66785-7.00532 2.60094-7.00532 2.10998 0 1.2832 3.37732 1.07464 4.50236-.94903 5.12103-2.10164 10.26914-2.75783 15.43482l17.93772-.44846 6.24568-1.11255-.1669-6.36499-8.58174-15.01764c3.26343-.74499 6.48762 5.06428 8.00358 7.50882 5.52395 8.90923 9.24584 20.26461 11.60279 30.45246h.41713c-1.09-13.78871-4.68341-26.51156-2.92008-40.46418 4.05976 1.63025 1.87263 11.90314 2.3853 15.85194.16518 1.27104-.0254 4.59078 1.50132 5.09428 1.42793.471 3.92962-.75837 5.2908-1.20224 4.90909-1.60019 9.49783-3.90834 14.18333-6.05209 1.78963-.81889 4.32757-1.8192 4.45567-4.099.45216-8.03526-6.7767-10.31915-11.54731-14.59881 4.20992-.43757 7.28313 2.32402 10.4289 4.76602 4.698 3.64679 9.32636 7.78707 13.16584 12.3374 2.21222 2.62183 3.85121 6.14013 6.44048 8.34312-1.42749-4.47981-4.8682-8.68851-6.98857-12.9318-4.10945-8.22425-7.28401-17.13387-8.44619-26.2809h.41718l7.92594 20.85786c4.30839-1.46463 7.80503-6.58273 10.59121-10.01178 1.25314-1.54221 2.80536-2.96136 2.75783-5.00586 7.00361-2.51882-1.97653-8.07614-3.33726-10.4289 4.85024-.7288 9.21329 3.96422 13.76616 5.00586-2.02947-4.34762-5.55904-10.02885-4.58874-15.01764h.8343l2.92008 8.34312c7.30778-6.75625 15.96042-13.68895 21.40059-22.10927 7.68273-11.89104 7.6335-26.92913 2.25887-39.62982-1.47132-3.47702-2.87339-8.40822-5.46725-11.20153-3.69183-3.97505-6.88684 2.71489-7.34613 5.77849 1.81422.27194 3.47326.88227 5.0042 1.9185 5.65708 3.82904 5.94826 10.54025 3.5671 16.43634-1.00948 2.50003-2.87919 4.73391-3.0594 7.50882-.2232 3.43739 1.62605 6.70287 2.22013 10.01177.98655 5.49267-1.7016 11.33958-5.64664 14.97885-3.65933 3.37561-8.78864 5.23735-13.76577 4.50192-2.30141-.33998-4.75054-2.51296-7.08998-1.6486-3.66972 1.35576-4.38266 6.90856-6.67618 9.70015-1.03496-6.27193 3.72604-9.88329 4.72054-15.43481.51732-2.88671-1.59687-7.66687-2.4971-10.4289-.71206-2.18504-1.81212-8.33229-5.13893-7.07954-2.14795.80844-3.22756 3.24795-4.48695 4.99376-2.97142 4.119-5.67371 9.16327-10.9524 10.4289 1.93934-5.00586 7.19802-9.19577 10.14021-13.76616 5.83729-9.06728 12.02704-24.39572 4.29756-34.2064-2.32899-2.95594-6.06713-5.04509-9.43191-6.62483-4.62919-2.17382-9.7227-2.85045-14.60046-4.22163v-.8343l5.84016-.83436-1.25147-9.17742-3.75439 1.25148c.0421-15.27295 15.32755-23.60519 25.86366-31.70388l-1.92596 5.42304 5.20022 7.92594 10.4919 16.26912-4.17156-.41718c.80474 5.97495 2.23223 11.57278.12562 17.5206-1.35411 3.82279-4.68468 7.00902-5.69339 10.84608-.50891 1.93474.41801 3.89535.42011 5.84016.003 2.71235-.92902 5.31831-1.5268 7.92599 7.47168-3.55543 8.90044-14.45655 16.68624-17.10341-.63535-3.69183-2.20382-7.02494-2.46582-10.84608-.56484-8.24343 1.06419-16.39219-.22028-24.61224-1.40538-8.99599-5.32163-17.05545-8.5771-25.446537l3.75438 1.668657c.86475-5.769702 5.61911-8.888784 8.7603-13.349036-4.82278 1.754977-12.23063 7.734512-17.5206 4.58498-3.64844-2.172156-4.97292-6.952766-8.76024-8.75654l-5.00592 20.023496h-.41712c-2.20095-9.245005 2.52545-17.990713 4.58868-26.698015-6.35659 5.141918-10.79639 11.630754-19.60632 12.931859l12.09751-8.79738 2.77579-4.061863-3.6101-3.118668-9.17742-6.548519 4.17156.834312 1.66861-13.349003h-.41713c-.94781 1.663407-2.07119 3.181733-3.37478 4.588716-1.72414 1.860397-3.98637 4.838597-6.4601 5.688764-4.8524 1.66821-11.55482-3.982716-16.02883-5.271608v19.18917c-4.26164-.712059-3.70808-5.015029-3.75273-8.760259-.0989-8.246178-.35583-16.359621-.002-24.612226h-.41717c-1.24855 9.27418-4.28878 22.490149-13.34899 27.115162 2.59304-4.163635 5.05925-7.720729 6.43297-12.514686.40502-1.412702 1.59145-3.826825.10262-4.947641-4.20411-3.165343-10.65166-.46067-14.10575-5.487697-3.3944-4.941087-1.16676-11.236271-3.27591-16.262673z" fill="url(#m)"/><path d="m363.59545 38.973932.41718.417156zm-.41718 1.251468.41718.417156z" fill="#0f0d06"/><path d="m413.23705 41.894024.41717.417156z" fill="#0e0b05"/><path d="m386.95621 42.728336.41712.417156z" fill="#0f0d06"/><path d="m412.81987 43.562648.41718.417161z" fill="#0d0b05"/><path d="m386.53903 43.979809.41718.417156z" fill="#0f0d06"/><path d="m317.70823 47.317057.41718.417156z" fill="#fff"/><path d="m384.45325 47.317057.41718.417156zm-.41712.417156.41712.417156zm9.59459.417156.41713.417156zm-57.15041.417156.41712.417156zm57.98472 0 .41712.417156zm-75.50532.417156.41718.417156zm20.44068 0 .41712.417156zm55.89894 0 .41717.417156z" fill="#0f0d06"/><path d="m340.65187 50.237155.41712.417156zm37.54404 0 .41718.417156z" fill="#0f0e07"/><path d="m444.10662 50.237155.41718.417156z" fill="#0d0b05"/><path d="m443.82838 50.932426.13931.278076z" fill="#fff"/><path d="m318.95971 51.071467.41718.417156zm85.51704 0 .41718.417156z" fill="#0f0d06"/><path d="m337.31461 52.740091.41712.417156z" fill="#0f0e07"/><path d="m443.27232 52.740091.41713.417156z" fill="#0e0b05"/><path d="m321.04549 56.494495.41718.417161zm2.08578 0 .41718.417161zm.41718.834317.41712.417156z" fill="#0f0e07"/><path d="m385.28755 58.997436-6.67446 30.035266c5.14142-3.133672 6.2281-14.556692 6.67446-20.023516h.41718c.89354 4.809419 1.32741 9.627994 3.28426 14.183299.77511 1.804658 1.62649 4.207038 3.80738 4.17156l-5.34081-18.772015z"/><path d="m370.26997 59.414592.41712.417156zm-35.45832.834312.41718.417156zm-2.08578 1.668624.41718.417156zm-2.08578.834312.41718.417156zm53.39604 1.251474.41712.417156z" fill="#0f0e07"/><path d="m344.40625 64.42047c.0884 10.666248 5.36297 20.375572 3.33726 31.28675 2.00112-1.223958 2.05826-4.082311 2.08412-6.257395.0601-5.047143-.81888-9.994204-.83264-15.017583h.41712c1.45258 5.041726 5.39342 15.067264 11.26326 15.851939-.7046-2.710304-2.92218-4.761047-4.40687-7.091696-3.29885-5.178557-6.5289-15.62749-11.86225-18.772015z"/><path d="m327.72001 64.837626.41712.417156z" fill="#0f0e07"/><path d="m345.24055 64.837626.41718.417156z" fill="#0f0e08"/><path d="m402.39097 65.254782.41718.417156z" fill="#0f0d06"/><path d="m383.61895 66.089094.41718.417156zm20.44067 0 .41713.417156z" fill="#0f0e07"/><path d="m439.51789 66.089094.41717.417156z" fill="#0f0d06"/><path d="m403.64245 66.50625.41717.417156zm-2.50296.417156.41718.417156zm2.08583 0 .41713.417156z" fill="#0f0e07"/><path d="m346.90921 67.340562.41712.417156zm27.53232.417156.41712.417156z" fill="#0f0e08"/><path d="m442.02084 67.757718.41718.417156z" fill="#0d0b05"/><path d="m401.13949 68.59203.41718.417156z" fill="#0f0e07"/><path d="m429.92329 69.009186c-4.63793 7.28353-10.1669 17.221476-17.10342 22.526419v.417178c5.25996-.938195 10.94373-7.585137 12.51473-12.51468h.41713c-.0613 7.420398-3.47238 15.287541-.41713 22.526457h.41713c2.21968-7.509261 1.06375-16.367982 2.97434-24.195115.59905-2.454934 2.80746-6.546408 1.19722-8.760259z"/><path d="m322.29697 69.843504.41712.417156z" fill="#0f0e07"/><path d="m348.57781 70.26066.41718.417156zm-22.94358.834312.41712.417156zm-2.92014.417156.41718.417156zm9.5946 0 .41718.417156zm55.48182 0 .41718.417156zm-3.33726.834312.41718.417156z" fill="#0f0e08"/><path d="m429.92329 72.34644.41717.417156z" fill="#0f0d06"/><path d="m455.36982 72.763596.41718.417167zm-156.43361.417167.41718.417122z" fill="#fff"/><path d="m350.24647 73.180763.41712.417122z" fill="#0f0e08"/><path d="m455.36982 73.180763.41718.417122z" fill="#0e0b05"/><path d="m426.58603 74.015064.41718.417178z" fill="#0f0e07"/><path d="m335.64595 74.849365.41718.417178z" fill="#0f0e08"/><path d="m414.07135 74.849365.41717.417178z" fill="#0f0e07"/><path d="m339.40039 75.683665.41712.417179z" fill="#0e0d08"/><path d="m339.81751 76.100844.41718.417178z" fill="#0f0e08"/><path d="m424.91743 76.100844.41717.417178z" fill="#0f0e07"/><path d="m340.23469 76.518022.41718.417123z" fill="#010101"/><path d="m306.02785 76.935145.41718.417178z" fill="#0f0e07"/><path d="m452.03257 76.935145.41717.417178zm-.41713.417178.41713.417122zm-174.37138.834301.41717.417178z" fill="#0f0d06"/><path d="m301.43917 78.186624.41712.417178z" fill="#0f0e07"/><path d="m351.08077 78.603802.41712.417123z" fill="#0e0d08"/><path d="m425.75173 79.020925.41717.417178z" fill="#0f0e07"/><path d="m445.77523 79.020925.41717.417178z" fill="#0f0d06"/><path d="m449.94679 79.020925.41717.417178z" fill="#0e0b05"/><path d="m425.3346 79.438103.41713.417178z" fill="#0f0e07"/><path d="m347.32633 81.106705.41718.417178z" fill="#0e0d08"/><path d="m452.44974 81.523883.41718.417178z" fill="#0f0d06"/><path d="m349.41211 82.358184.41718.417178z" fill="#0e0d08"/><path d="m440.35219 82.775362.41717.417123z" fill="#0e0b05"/><path d="m356.08663 83.192485.41718.417178z" fill="#0e0d08"/><path d="m459.95856 84.026841.41718.417123z" fill="#0f0d06"/><path d="m482.48502 84.026841.41712.417123z" fill="#fff"/><path d="m356.92093 84.443964.41718.417178z" fill="#0e0d08"/><path d="m421.99734 84.443964.41713.417178z" fill="#0f0e07"/><path d="m482.48502 84.443964.41712.417178z" fill="#0e0b05"/><path d="m480.81636 84.861142.41718.417123zm1.25148 0 .41718.417123z" fill="#0d0b05"/><path d="m421.16304 85.278265.41713.417178z" fill="#0f0e07"/><path d="m481.65072 85.278265.41712.417178z" fill="#0e0b05"/><path d="m354.83515 85.695443.41718.417178z" fill="#0e0d08"/><path d="m402.39097 85.695443c-2.46289 5.556498-3.66513 10.717979-8.76025 14.600457v.8343c3.66177.96406 6.21313-3.631308 7.09165-6.674459h.41712c.36214 2.803255.70294 8.631369 3.75444 9.594599l-2.04826-9.594599z"/><path d="m461.21004 85.695443.41712.417178z" fill="#0f0d06"/><path d="m481.23354 85.695443.41718.417178z" fill="#0d0b05"/><path d="m313.11955 86.112621c.90145 10.260791 14.70225 17.195599 12.9318 28.366619 2.21886-1.29652 1.63567-3.71437.89067-5.84022-1.54056-4.39637-4.11779-8.24259-5.89653-12.514677 3.99179 3.643469 9.88993 7.762857 15.43482 5.423037l-8.75406-3.627165z"/><path d="m480.81636 86.112621.41718.417123z" fill="#0e0b05"/><path d="m480.39924 86.529744.41712.417178z" fill="#0d0b05"/><path d="m454.1184 86.946922.41712.417123z" fill="#0f0d06"/><path d="m476.6448 86.946922.41718.417123z" fill="#0d0b05"/><path d="m479.98206 86.946922.41718.417123z" fill="#0e0b05"/><path d="m356.08663 87.364045.41718.417178z" fill="#0e0d08"/><path d="m419.49439 87.364045.41717.417178z" fill="#0f0e07"/><path d="m479.56488 87.364045.41718.417178z" fill="#0d0b05"/><path d="m313.11955 87.781223.41712.417178zm105.95771 0 .41713.417178z" fill="#0f0e08"/><path d="m479.14776 87.781223.41712.417178z" fill="#0e0b05"/><path d="m316.03963 88.198401.41712.417123z" fill="#0f0e07"/><path d="m478.73058 88.198401.41718.417123z" fill="#0d0b05"/><path d="m292.67887 88.615524.41713.417178z" fill="#0f0e07"/><path d="m418.24291 88.615524.41718.417178zm-.41713.417178.41713.417123z" fill="#0f0e08"/><path d="m287.25583 89.449825.41718.417178z" fill="#0f0e07"/><path d="m358.17241 89.449825.41718.417178z" fill="#0e0d08"/><path d="m370.68709 89.449825c-1.26187 4.152383-4.8031 12.258975-3.33726 16.269115h.83436l2.92008-10.01172h.41712c1.03082 3.7761 2.11043 9.50319 6.67452 10.01172l-6.67452-16.269115z"/><path d="m287.67301 89.867003.41712.417178z" fill="#0f0e08"/><path d="m477.06198 89.867003.41712.417178z" fill="#0d0b05"/><path d="m288.09013 90.284181.41718.417123z" fill="#0f0e07"/><path d="m301.43917 90.284181.41712.417123zm112.63218 0 .41717.417123z" fill="#0f0e08"/><path d="m288.50731 90.701304.41713.417178z" fill="#0f0e07"/><path d="m296.01613 90.701304.41712.417178z" fill="#0f0e08"/><path d="m400.30519 90.701304.41718.417178zm2.50296 0 .41717.417178z" fill="#0e0d08"/><path d="m413.65422 90.701304.41713.417178z" fill="#0f0e08"/><path d="m288.92444 91.118482.41717.417123z" fill="#0f0e07"/><path d="m413.23705 91.118482.41717.417123zm-93.02586.834301.41712.417178z" fill="#0e0d08"/><path d="m424.08312 91.952783.41713.417178z" fill="#0f0e08"/><path d="m316.03963 93.204262.41712.417178zm83.01408.417178.41718.417123z" fill="#0e0d08"/><path d="m302.69059 94.038563.41718.417178zm-10.4289.417178.41718.417123z" fill="#0f0e08"/><path d="m323.13127 94.455741.41718.417123zm24.61224 0 .41712.417123z" fill="#0e0d08"/><path d="m452.44974 94.455741.41718.417123z" fill="#0f0d06"/><path d="m348.57781 95.290042.41718.417178zm22.52646.417178.41712.417123zm30.03522 0 .41718.417123zm-82.17978 1.668602.41718.417178z" fill="#0e0d08"/><path d="m472.89042 97.375822.41712.417178z" fill="#0d0b05"/><path d="m324.38275 98.627301.41718.417123z" fill="#0e0d08"/><path d="m470.80464 98.627301.41712.417123z" fill="#0d0b05"/><path d="m320.21119 99.044424.41712.417178zm77.17392.417178.41717.417178z" fill="#0e0d08"/><path d="m342.73765 99.87878 2.08578 17.52054h.8343l-.41718-12.51468c2.72031 1.89391 6.40086 6.56311 10.01178 5.00586-1.39373-1.50928-3.41192-1.77415-5.0042-3.06315-2.5889-2.09579-3.95427-6.66828-7.51048-6.94857z"/><path d="m323.13127 100.71308.41718.41712zm70.49945.41712.41713.41718zm-71.75093.41718.41718.41718zm45.05292 0 .41712.41718z" fill="#0e0d08"/><path d="m424.91743 101.54738.41717.41718zm.8343 0 .41717.41718z" fill="#0f0e08"/><path d="m434.51202 102.38168c-4.40018 4.41267-8.0757 7.44334-14.18333 9.17748v.8343c3.61302 1.03789 7.10755-.96654 10.01177-2.92008-.47514 2.44908-3.59837 8.86082-1.25147 10.4289l4.00637-12.09756z"/><path d="m346.49203 102.79886.41718.41712zm-47.55582.41712.41718.41718zm67.1622 0 .41712.41718zm38.79552 0 .41717.41718z" fill="#0e0d08"/><path d="m433.26055 103.21598.41717.41718z" fill="#0f0d06"/><path d="m270.56959 104.05034.41713.41712z" fill="#0f0e07"/><path d="m376.94443 104.05034.41718.41712z" fill="#0e0d08"/><path d="m293.096 104.46746.41717.41718z" fill="#0f0e08"/><path d="m473.30754 104.46746.41718.41718z" fill="#0d0b05"/><path d="m323.54845 104.88464.41712.41712zm1.6686 0 .41718.41712zm42.96714 0 .41712.41712zm-72.58524.41712.41718.41718z" fill="#0e0d08"/><path d="m430.75764 106.13612.41713.41712zm2.50291.41712.41717.41718z" fill="#0f0e08"/><path d="m459.54138 106.55324.41718.41718z" fill="#0f0d06"/><path d="m269.31811 106.97042.41713.41718z" fill="#010101"/><path d="m348.57781 107.3876.41718.41712zm-22.10928.41712.41718.41718zm25.02936 0 .41718.41718z" fill="#0e0d08"/><path d="m270.56959 108.2219.41713.41712z" fill="#0f0e07"/><path d="m427.83751 108.2219.41717.41712z" fill="#0f0e08"/><path d="m350.24647 108.63902.41712.41718zm4.58868.41718.41718.41718z" fill="#0e0d08"/><path d="m429.50616 109.47338.41713.41712z" fill="#0f0e08"/><path d="m352.33225 109.8905.41712.41718zm.8343.41718.41712.41712zm70.4994 0 .41717.41712z" fill="#0e0d08"/><path d="m450.36396 110.30768.41718.41712zm-177.70859.41712.41713.41718z" fill="#0f0e07"/><path d="m439.10076 129.49688c9.54453-2.29854 19.98095-3.65679 29.6181-1.66866-1.43545-4.98331-5.15606-9.07646-8.45619-12.93186-1.12841-1.31818-2.56634-3.75687-4.47733-3.90165-2.26306-.17187-4.23831 2.01073-5.83855 3.27177-4.68589 3.69182-8.72438 9.62422-10.84603 15.2304z" fill="url(#l)"/><path d="m426.1689 111.55916.41713.41712z" fill="#0e0d08"/><path d="m448.69536 111.55916.41712.41712z" fill="#0f0e07"/><path d="m363.17827 111.97628-2.5029 12.93186c2.09368-1.58687 2.57966-6.6507 2.92008-9.17742l3.75438 4.17156c-.4384-2.81204-2.08075-5.99457-4.17156-7.926z"/><path d="m420.32869 112.39346.41718.41712z" fill="#0e0d08"/><path d="m429.50616 112.39346.41713.41712zm28.7838.41712.41712.41718z" fill="#0f0e08"/><path d="m404.05962 113.22776-7.92599 7.926 7.50882-5.42304 1.25148 7.50882c1.45877-2.13839.69415-7.9969-.83431-10.01178m-88.43717 1.25148v.41712c3.5162 3.54792 6.4092 8.43491 8.60429 12.93186 1.20849 2.47583.86558 5.20486 3.49327 6.67452-.20945-4.87738-2.29478-8.5755-4.17156-12.93186 2.95468 1.72453 6.91563 4.30088 10.4289 3.33726v-.8343c-4.73391-2.10413-8.39905-3.89414-12.51468-7.17216-1.75376-1.39665-3.54792-3.20253-5.84022-2.42244z"/><path d="m449.94679 114.06206.41717.41718zm-84.68274.8343.41718.41718zm-49.22442.41718.41712.41718zm49.6416.41718.41718.41712z" fill="#0e0d08"/><path d="m460.79286 115.73072.41718.41712z" fill="#0f0e08"/><path d="m364.42975 116.14784.41718.41718z" fill="#0e0d08"/><path d="m444.10662 116.14784.41718.41718z" fill="#0f0e08"/><path d="m464.96442 116.14784.41718.41718z" fill="#0f0d06"/><path d="m275.57545 116.56502.41718.41712z" fill="#0f0e08"/><path d="m400.30519 116.56502.41718.41712zm3.33726 0 .41717.41712zm24.61223 0 .41718.41712zm-106.79201.41712.41712.41718zm41.7156 0 .41718.41718z" fill="#0e0d08"/><path d="m477.4791 116.98214.41718.41718z" fill="#0f0d06"/><path d="m446.1924 117.39932.41718.41718z" fill="#0f0e08"/><path d="m400.72237 117.8165.41712.41712z" fill="#0e0d08"/><path d="m287.67301 118.23362c.3917 3.51791 3.27089 4.83112 5.84016 6.77421 3.52582 2.66648 6.80218 5.55402 9.49618 9.07773 1.75454 2.29523 2.83619 6.2632 5.10428 7.926-.48808-6.13344-4.1069-13.35191-10.01172-15.85194v-.41718c6.00452 1.16428 11.98278 3.3965 17.93772.8343v-.8343l-7.0917-.27908z"/><path d="m318.54253 118.23362.41718.41718zm79.25975.41718.41713.41718zm31.28671 0 .41717.41718zm-105.12342.41718.41718.41712zm73.41954 0 .41717.41712z" fill="#0e0d08"/><path d="m467.0502 119.06798.41718.41712z" fill="#0f0d06"/><path d="m441.18654 119.4851.41713.41718z" fill="#0f0e08"/><path d="m481.65072 119.4851.8343 10.01178 9.17742 1.25142c-1.53636-4.05225-5.91902-9.67677-10.01172-11.2632z" fill="url(#k)"/><path d="m367.34983 119.90228.41718.41712z" fill="#0e0d08"/><path d="m380.69887 119.90228-3.75444 7.09164 4.17156-4.58874 2.50296 4.17156z"/><path d="m428.67186 119.90228.41713.41712z" fill="#0e0d08"/><path d="m481.65072 119.90228.41712.41712z" fill="#0d0b05"/><path d="m319.79401 120.3194.41718.41718zm5.84022 0 .41712.41718z" fill="#0e0d08"/><path d="m464.5473 120.3194.41712.41718z" fill="#0f0d06"/><path d="m274.74115 120.73658.41713.41718z" fill="#0f0e08"/><path d="m379.44739 121.15376.41718.41712zm-51.72738.41712.41712.41718zm-2.50296.8343.41718.41718zm80.09405 0 .41713.41718zm80.094 0 .41718.41718zm-104.28911.41718.41718.41718zm104.70629 0 .41712.41718zm-184.80029.41718.41718.41712zm185.21741 0 .41718.41712zm-194.39483.41712.41712.41718zm90.94008 0 .41712.41718z" fill="#0e0d08"/><path d="m273.90685 124.49096.41713.41718z" fill="#0f0e08"/><path d="m293.096 124.49096.41717.41718z" fill="#0e0d08"/><path d="m441.60367 124.49096.41717.41718z" fill="#0d0b05"/><path d="m361.09249 124.90814.41718.41718zm17.5206.41718.41712.41712z" fill="#0e0d08"/><path d="m273.48967 126.15962.41718.41712z" fill="#0f0e08"/><path d="m301.02199 126.15962.41718.41712zm24.61224 0 .41712.41712zm-2.08578.41712.41712.41718z" fill="#0e0d08"/><path d="m440.35219 126.57674.41717.41718z" fill="#0d0b05"/><path d="m458.28996 126.57674.41712.41718z" fill="#0f0e08"/><path d="m465.79872 126.99392.41718.41718z" fill="#0d0b05"/><path d="m297.26761 127.82822.41712.41718zm27.11514.41718.41718.41712z" fill="#0e0d08"/><path d="m490.82814 129.0797.41712.41718z" fill="#0d0b05"/><path d="m420.74587 129.914-7.09165 5.42304 6.25734-3.33726-.8343 5.00592c1.77416-1.23772 2.43576-5.12606 1.66861-7.0917z"/><path d="m462.46152 154.94342c3.16412-1.50763 4.6792-5.11269 5.53356-8.34312 1.05204-3.97593 2.41786-14.45993-2.63144-16.43474-2.77783-1.08625-7.41786.16562-10.41094.16562-2.7103 0-8.49249-.41342-10.59452 1.6077-1.93939 1.86512-.48935 8.89796.93902 10.79225 1.48342 1.96818 5.01377 2.35817 7.15254 3.36103 4.26418 1.99901 7.69489 4.69467 10.01178 8.85126z" fill="#fff"/><path d="m474.1419 130.33118.41712.41712z" fill="#0f0d06"/><path d="m489.15948 130.33118.41718.41712zm2.50296 0-.41718.8343z" fill="#0d0b05"/><path d="m466.63308 130.7483.41712.41718z" fill="#020202"/><path d="m491.66244 130.7483.41718.41718z" fill="#fff"/><path d="m275.57545 131.16548.41718.41718z" fill="#0f0e08"/><path d="m418.24291 131.16548.41718.41718z" fill="#0e0d08"/><path d="m264.31225 131.58266.41713.41712z" fill="#0f0e07"/><path d="m443.68945 131.58266.41717.41712zm23.36075 0 .41718.41712zm-139.74737.41712.41718.41718zm92.19156 0 .41717.41718z" fill="#0e0d08"/><path d="m266.81516 132.41696.41717.41718z" fill="#0f0e08"/><path d="m416.15713 132.41696.41717.41718z" fill="#0e0d08"/><path d="m467.46738 132.41696.41718.41718z" fill="#020202"/><path d="m481.65072 132.41696v3.75438c7.56386-2.73567 9.27794 8.33063 1.25142 7.926l1.66866 9.5946c5.58988-2.60851 8.16418-15.18741 3.57378-19.89087-1.38455-1.41876-4.61836-1.23601-6.49386-1.38411z" fill="#fff"/><path d="m261.8093 132.83414.41717.41712z" fill="#0f0e07"/><path d="m305.19355 133.25126.41718.41718zm112.21506 0 .41717.41718zm20.8578 0 .41717.41718z" fill="#0e0d08"/><path d="m467.88456 133.25126.41712.41718zm20.0235 0 .41712.41718z" fill="#020202"/><path d="m263.06077 133.66844.41713.41712z" fill="#0f0e07"/><path d="m437.43211 133.66844.41717.41712zm-110.5464.41712.41712.41718z" fill="#0e0d08"/><path d="m460.37574 134.08556c-.85475.87857-2.10081 1.5168-2.72948 2.59182-4.40891 7.538 12.25395 7.73363 7.54551-.41801-.53604-.92775-1.48673-1.5326-2.31313-2.17381l-2.5029 1.25148z"/><path d="m460.79286 134.08556v.41718h1.66866z" fill="#020202"/><path d="m468.30168 134.08556.41718.41718z" fill="#010101"/><path d="m264.31225 134.50274.41713.41718z" fill="#0f0e07"/><path d="m459.26314 134.78099.13937.2778z" fill="#020202"/><path d="m459.81963 134.64167.27786.13932zm.55611.27825v.41712l2.08578-.41712z" fill="#010101"/><path d="m463.29582 134.50274.41712.41718z" fill="#020202"/><path d="m458.70708 134.91992.41718.41712z" fill="#010101"/><path d="m464.13012 134.91992.41718.41712z" fill="#050505"/><path d="m265.56368 135.33704.41718.41718z" fill="#0f0e07"/><path d="m458.28996 135.33704.41712.41718z" fill="#010101"/><path d="m482.90214 135.33704 1.25148.8343v-.41712z" fill="#020202"/><path d="m483.31932 135.33704.41718.41718z" fill="#050505"/><path d="m483.7365 135.33704.41712.41718z" fill="#010101"/><path d="m484.5708 135.33704.41712.41718z" fill="#020202"/><path d="m484.98792 135.33704.41718.41718z" fill="#010101"/><path d="m306.44503 135.75422.41712.41712z" fill="#0e0d08"/><path d="m372.77287 135.75422c0 2.12413-.40961 4.27711 1.66866 5.42304v-4.17156l5.00586 1.6686z"/><path d="m373.60717 135.75422.41718.41712z" fill="#0e0d08"/><path d="m482.06784 135.75422.41718.41712z" fill="#020202"/><path d="m482.48502 135.75422.8343.8343v-.8343zm2.08578 0 .41712.41712z" fill="#010101"/><path d="m374.85865 136.17134.41718.41718z" fill="#0e0d08"/><path d="m457.4556 136.17134.41718.41718z" fill="#010101"/><path d="m480.81636 136.17134.41718.41718z" fill="#0f0e08"/><path d="m481.23354 136.17134.41718.41718z" fill="#050505"/><path d="m398.21941 141.59438 2.08578-3.75438 2.50296 1.6686c-1.8334-4.90655-4.55995-1.39245-4.58874 2.08578z"/><path d="m465.3816 136.58852.41712.41718zm15.43476 0 .41718.41718z" fill="#010101"/><path d="m347.74351 137.0057c.73709 2.69311 1.89347 4.99293 4.17156 6.67446l-2.50296-5.42304 5.00592.41718c-1.29238-2.34402-4.31967-1.6686-6.67452-1.6686z"/><path d="m353.58367 137.0057.41718.41712zm20.85786 0 .41712.41712z" fill="#0e0d08"/><path d="m480.39924 137.0057.41712.41712z" fill="#fff"/><path d="m268.48381 137.42282.41713.41718z" fill="#0f0e08"/><path d="m401.55667 137.42282.41717.41718z" fill="#0e0d08"/><path d="m479.98206 137.42282.41718.41718z" fill="#fff"/><path d="m376.11013 137.84.41718.41712z" fill="#0e0d08"/><path d="m326.46853 139.5086 5.84016 7.0917-3.3372-5.84022 5.00586-.8343-.41718-1.66866z"/><path d="m349.41211 138.25712.41718.41718z" fill="#0e0d08"/><path d="m465.79872 138.25712.41718.41718z" fill="#050505"/><path d="m479.56488 138.25712v1.25148h.41718z" fill="#fff"/><path d="m348.16063 138.6743.41718.41718z" fill="#0e0d08"/><path d="m479.56488 139.5086.41718.41718z" fill="#050505"/><path d="m307.69651 139.92578.41712.41712zm18.77202 0 .41718.41712z" fill="#0e0d08"/><path d="m479.56488 139.92578v1.25148h.41718z" fill="#fff"/><path d="m465.10335 140.62115.13932.27786zm23.22183-.27825.41718.41718z" fill="#010101"/><path d="m306.86215 140.76008.41718.41718zm66.3279 0 .41712.41718zm-100.11755.41718.41717.41712zm76.33961 0 .41718.41712z" fill="#0e0d08"/><path d="m457.87278 141.17726.41718.41712z" fill="#050505"/><path d="m273.48967 141.59438.41718.41718z" fill="#0f0e08"/><path d="m479.98206 141.59438.41718.41718z" fill="#fff"/><path d="m463.71294 142.01156.41718.41712z" fill="#010101"/><path d="m479.98206 142.01156.41718.41712z" fill="#050505"/><path d="m459.54138 142.42868.41718.41718z" fill="#020202"/><path d="m459.95856 142.42868.41718.41718zm2.78121.13893.2778.13932z" fill="#010101"/><path d="m480.39924 142.42868.41712.41718z" fill="#fff"/><path d="m487.21263 142.70693.13932.27786z" fill="#010101"/><path d="m487.49088 142.42868.41718.41718z" fill="#050505"/><path d="m274.74115 142.84586.41713.41718z" fill="#010101"/><path d="m461.21004 142.84586.41712.41718z" fill="#050505"/><path d="m480.81636 142.84586.41718.41718z" fill="#fff"/><path d="m445.3581 143.26304.41713.41712z" fill="#010101"/><path d="m481.23354 143.26304.41718.41712z" fill="#fff"/><path d="m482.06784 143.26304.41718.41712z" fill="#010101"/><path d="m284.33575 151.18898v.8343l12.0975 4.17156c-.24608-3.17037-4.34591-4.11608-7.09164-4.58868l8.34312-7.50882c-4.43394-.52019-9.75563 4.8824-13.34898 7.09164z"/><path d="m481.65072 143.68016.41712.41718z" fill="#050505"/><path d="m482.06784 143.68016.41718.41718z" fill="#fff"/><path d="m482.48502 143.68016.41712.41718z" fill="#020202"/><path d="m484.15362 143.68016v.41718h1.25148z" fill="#010101"/><path d="m275.99263 144.09734.41713.41712z" fill="#0f0e08"/><path d="m468.30168 144.09734.41718.41712zm15.85194 0 .41718.41712z" fill="#0e0d08"/><path d="m448.69536 144.51446.41712.41718z" fill="#010101"/><path d="m301.85629 149.52038v.8343l9.17748 3.29763 5.42298 3.79401c-.59357-4.43019-5.29455-5.1748-8.34312-7.50882 3.87541-.73002 9.13493-.79175 10.84608-5.00586z"/><path d="m440.76936 145.34882.41718.41712z" fill="#0e0d08"/><path d="m450.78114 145.34882.41712.41712z" fill="#010101"/><path d="m292.26169 145.76594.41718.41718zm23.36076.41718.41718.41718zm2.50296 0 .41712.41718zm171.45125 0 .41718.41718zm-211.49825.41718.41713.41712z" fill="#0e0d08"/><path d="m489.57666 146.6003.41718.41712z" fill="#020202"/><path d="m290.17591 147.01742.41718.41718zm27.1152 0 .41712.41718zm150.17627.41718.41718.41712zm15.85194 0 .41718.41712zm-194.39488.41712.41717.41718z" fill="#0e0d08"/><path d="m471.63894 147.85172.41718.41718zm-238.19628.83436.41716.41712z" fill="#0f0d06"/><path d="m483.31932 148.68608.41718.41712z" fill="#010101"/><path d="m276.40976 149.52038.41717.41712z" fill="#0e0d08"/><path d="m360.67537 152.44046 1.25142-2.92008c-1.77537.28322-3.17329 1.65528-1.25142 2.92008z"/><path d="m286.00435 149.9375.41718.41718z" fill="#0e0d08"/><path d="m235.9456 150.35468.41716.41718z" fill="#0f0d06"/><path d="m453.28404 150.35468.41718.41718z" fill="#0f0e08"/><path d="m308.94793 150.77186.41718.41712z" fill="#0e0d08"/><path d="m483.7365 150.77186.41712.41712z" fill="#010101"/><path d="m277.66123 151.18898.41718.41718z" fill="#0e0d08"/><path d="m454.53552 151.18898.41718.41718z" fill="#0f0e07"/><path d="m465.79872 151.18898.41718.41718z" fill="#0e0d08"/><path d="m214.67062 151.60616.41716.41712z" fill="#0e0b05"/><path d="m237.61423 151.60616.41715.41712z" fill="#0f0d06"/><path d="m267.64946 151.60616.41718.41712z" fill="#0f0e08"/><path d="m487.0737 151.60616.41718.41712z" fill="#020202"/><path d="m311.86807 152.02328.41712.41718z" fill="#0e0d08"/><path d="m375.69301 152.02328-.41718 2.92014c1.30525-.76384 1.52718-1.44883 1.25148-2.92014z"/><path d="m376.52731 152.02328.41712.41718z" fill="#0e0d08"/><path d="m393.21355 154.94342 1.25148-2.92014c-1.61815.46846-2.96059 1.63108-1.25148 2.92014z"/><path d="m465.3816 152.02328.41712.41718z" fill="#010101"/><path d="m486.65658 152.02328.41712.41718z" fill="#020202"/><path d="m309.78229 152.85764.41712.41712z" fill="#0e0d08"/><path d="m461.21004 152.85764.41712.41712z" fill="#010101"/><path d="m469.55316 152.85764.41718.41712z" fill="#0f0e07"/><path d="m485.82228 152.85764.41712.41712zm-.41718.41712.41718.41718z" fill="#010101"/><path d="m314.37097 153.69194.41718.41712z" fill="#0e0d08"/><path d="m240.53432 154.10906.41715.41718z" fill="#0f0d06"/><path d="m462.04434 154.10906.41718.41718z" fill="#0e0d08"/><path d="m223.43091 154.52624.41716.41718z" fill="#0e0b05"/><path d="m376.11013 154.52624.41718.41718zm16.26912 0 .41712.41718z" fill="#0e0d08"/><path d="m405.72823 157.44632v1.66866l4.17156-2.92014z"/><path d="m314.78815 156.61202.41718.41718zm92.60873 0 .41713.41718zm2.08578 0 .41713.41718z" fill="#0e0d08"/><path d="m425.75173 156.61202v5.00586c1.56686-1.53426 1.56686-3.47155 0-5.00586z"/><path d="m481.23354 156.61202.41718.41718z" fill="#0f0d06"/><path d="m498.33696 156.61202.41712.41718z" fill="#0d0b05"/><path d="m406.97971 157.0292.41717.41712zm2.08578 0 .41717.41712zm16.26911 0 .41713.41712z" fill="#0e0d08"/><path d="m467.0502 157.0292.41718.41712z" fill="#0f0e07"/><path d="m479.14776 157.44632.41712.41718z" fill="#0f0d06"/><path d="m406.56253 158.6978.41718.41718zm-59.65332.41718.41712.41712z" fill="#0e0d08"/><path d="m343.57195 164.95514 5.00586 1.25148-2.77745-2.67731 1.52597-3.99721c-2.01151 1.04247-3.2442 3.25094-3.75438 5.42304z"/><path d="m481.65072 159.5321.41712.41718z" fill="#0e0d05"/><path d="m464.5473 177.887v.41717c10.49649 1.32653 15.22327-3.69016 22.94358-9.59459-1.1084 2.98722-6.61445 6.82256-6.46927 9.59415.15562 2.96849 4.82233 3.24215 6.88645 2.4241 3.94294-1.56266 6.43628-5.91781 7.29269-9.93247 1.77835-8.33478-9.16367-15.15823-16.0142-9.83864-5.87149 4.55994-8.46409 12.34988-14.63925 16.93028z" fill="url(#j)"/><path d="m224.26522 160.36646.41716.41712z" fill="#010101"/><path d="m268.06664 168.70958c.54063 3.11195 3.62633 1.44086 5.84021 1.28938 3.1812-.21773 9.089.81264 10.84603 3.71648l2.92013-.41718c-.74632-4.72137-7.55308-4.71303-11.26325-5.00586 2.73152-2.76115 6.64445-3.58296 7.50881-7.92594z"/><path d="m495.41688 160.36646.41712.41712z" fill="#0d0b05"/><path d="m247.62597 160.78358.41716.41718z" fill="#0f0e07"/><path d="m500.42274 161.20076.41712.41712z" fill="#0d0b05"/><path d="m236.36276 161.61788.41715.41718z" fill="#0f0d06"/><path d="m344.82343 161.61788.41712.41718zm-64.24211.41718.41717.41718zm64.65923.41718.41718.41712z" fill="#0e0d08"/><path d="m250.54607 163.28654.41716.41712z" fill="#0f0e07"/><path d="m278.91271 163.28654.41713.41712zm3.33726 0 .41713.41712z" fill="#0e0d08"/><path d="m225.09953 163.70366.41716.41718z" fill="#0e0b05"/><path d="m364.42975 163.70366-4.58874 5.84022 5.84022 2.08578-4.17156-2.50296c.86812-1.82129 4.27584-3.4023 2.92008-5.42304z"/><path d="m494.1654 163.70366.41712.41718z" fill="#0e0d05"/><path d="m261.39212 164.12084.41718.41718z" fill="#0f0e07"/><path d="m277.66123 164.12084.41718.41718zm65.49354 0 .41718.41718z" fill="#0e0d08"/><path d="m252.2147 164.53802.41715.41712zm8.34312 0 .41717.41712z" fill="#0f0e07"/><path d="m280.58132 164.95514.41717.41718zm47.13869 0 .41712.41718z" fill="#0e0d08"/><path d="m328.13713 164.95514-5.00586 4.58874c1.95354.65994 6.4659 3.23005 7.926 1.25148l-5.42304-2.08578zm108.0435 0 5.84021 4.58874v.8343l-5.42304 2.92008c2.85421-.23315 5.28831-1.10001 7.50882-2.92008-1.62273-2.74783-4.79022-4.81858-7.92599-5.42304z"/><path d="m253.46616 165.37232.41716.41712z" fill="#0f0e07"/><path d="m494.9997 165.37232.41718.41712z" fill="#010101"/><path d="m502.09134 165.37232.41718.41712zm-275.32318.41712.41715.41718z" fill="#0d0b05"/><path d="m361.92679 165.78944.41718.41718zm2.08584 0 .41712.41718zm74.67095 0 .41718.41718z" fill="#0e0d08"/><path d="m474.9762 165.78944.41712.41718zm20.0235 0 .41718.41718z" fill="#0e0d05"/><path d="m326.05135 166.20662.41718.41718zm1.66866 0 .41712.41718zm33.78966 0 .41712.41718z" fill="#0e0d08"/><path d="m227.60247 166.6238.41716.41712z" fill="#0e0b05"/><path d="m302.27347 166.6238c-2.52506 5.6616-6.41462 10.27162-10.84608 14.59421-2.54341 2.48124-6.50889 4.78686-7.50882 8.34937l18.3549-3.8958 9.5946-1.94442c-5.72007-4.07557-15.75269.46056-21.27498 2.92013 3.79362-7.61602 11.24193-10.63624 12.93186-19.60637l-.41718-.41712z"/><path d="m327.30283 166.6238.41718.41712zm33.78966 0 .41718.41712zm76.75679 0 .41713.41712zm-160.60522.41712.41717.41718z" fill="#0e0d08"/><path d="m378.61309 170.79536 2.5029.41712v-4.17156c-1.81046.58656-2.01654 2.04698-2.5029 3.75444z"/><path d="m271.40389 167.4581.41718.41712z" fill="#0f0e08"/><path d="m439.10076 167.4581.41713.41712zm-137.66159.41712.41712.41718z" fill="#0e0d08"/><path d="m228.85394 168.2924.41716.41718z" fill="#0e0b05"/><path d="m278.07841 168.2924.41713.41718zm83.43126.41718.41712.41712z" fill="#0e0d08"/><path d="m495.41688 168.70958.41712.41712z" fill="#010101"/><path d="m443.27232 169.1267.41713.41718z" fill="#0f0e08"/><path d="m469.97034 169.1267.41712.41718z" fill="#0f0e07"/><path d="m327.72001 169.54388.41712.41712z" fill="#0e0d08"/><path d="m485.82228 169.54388.41712.41712z" fill="#0f0d06"/><path d="m324.79993 169.961.41712.41718zm53.81316 0 .41712.41718z" fill="#0e0d08"/><path d="m398.21941 169.961.41718 4.58874c1.93474-1.02496 3.1996-2.45577 3.75438-4.58874l-2.92008 2.08583z"/><path d="m286.00435 170.37818.41718.41718zm111.79793 0 .41713.41718zm3.33721 0 .41718.41718z" fill="#0e0d08"/><path d="m443.68945 170.37818.41717.41718z" fill="#0f0e08"/><path d="m486.65658 170.37818.41712.41718z" fill="#0e0d05"/><path d="m230.52257 170.79536.41715.41712z" fill="#0e0b05"/><path d="m327.30283 170.79536.41718.41712zm73.41954 0 .41712.41712zm38.79552.41712.41717.41718z" fill="#0e0d08"/><path d="m470.38746 172.04683.41718.41713z" fill="#0e0d05"/><path d="m494.58252 172.04683.41718.41713z" fill="#010101"/><path d="m504.17712 172.46396.41718.41718z" fill="#0d0b05"/><path d="m494.1654 173.29826.41712.41718z" fill="#010101"/><path d="m301.02199 173.71544.41718.41717z" fill="#0e0d08"/><path d="m241.78579 174.13261.41716.41713z" fill="#0e0b05"/><path d="m480.39924 174.54974.41712.41718z" fill="#020202"/><path d="m467.88456 174.96692.41712.41712z" fill="#0d0b05"/><path d="m479.98206 174.96692.41718.41712zm-12.51468.41712.41718.41718z" fill="#0e0d05"/><path d="m339.40039 178.7213.8343-2.92008c-1.79001.52101-2.77286 1.81046-.8343 2.92008z"/><path d="m233.44266 176.21839.41716.41713z" fill="#0f0d06"/><path d="m338.14891 176.21839.41718.41713zm-42.54996.41713.41718.41718z" fill="#0e0d08"/><path d="m476.6448 176.63552.41718.41718z" fill="#0e0d05"/><path d="m295.18178 177.0527.41717.41712z" fill="#0e0d08"/><path d="m492.07962 177.0527.41712.41712zm-17.5206.41712.41718.41718z" fill="#010101"/><path d="m491.66244 177.46982.41718.41718z" fill="#0e0d05"/><path d="m414.07135 178.30417-.41713 5.84017-3.75443-2.50296c.3917 2.53131 2.16132 3.73189 4.58873 4.17161l.41718-7.50882z"/><path d="m470.80464 178.30417v.41713h1.25148z" fill="#010101"/><path d="m311.03377 191.23598c2.7607-.11843 12.37619.25117 13.76616-1.6686l-9.17748-1.25148 5.00586-9.5946c-3.03519.94902-8.2463 9.57166-9.59454 12.51468m33.78966 36.29261c3.14616-1.80294 7.24306-7.17464 8.76024-10.4289-3.33974 1.00037-4.79979 4.27292-7.09164 6.67452l-1.25148-8.7603c9.75602-.85182 14.04192-11.51144 19.78493-17.92147 3.49492-3.90038 7.87339-5.59032 12.33613-7.94224-2.63018-3.14699-6.28906.17855-8.7603 2.08119-6.62108 5.09848-10.44183 11.27702-16.26906 17.10801l3.3372-8.76025h-.41712c-1.81212 4.3526-3.97842 8.99887-8.34312 11.2632l1.6686-5.84021h-.41718c-1.7537 4.18996-3.73183 6.25446-8.34312 6.25739l4.17156-9.5946h-.41712l-5.42304 9.17742-1.6686-.41717 4.17156-7.92595h-.41718c-2.10916 3.37523-4.33298 8.17584-8.7603 7.09164l3.75444-7.09164c-2.08998 1.63606-2.99563 5.5486-5.46183 6.521-1.12548.44343-3.2463-.38087-2.79497-1.86931.5865-1.93392 3.76941-3.83866 5.02426-5.48599 4.27209-5.60993 7.73573-14.75608 14.07856-18.20762 5.19365-2.82624 13.09665.75505 18.77208.68537 3.25171-.0401 6.95442-1.1551 7.92594-4.58708-2.65228-.28615-5.15977 1.42589-7.92594 1.43047-7.01118.0112-18.51676-3.48077-24.54134 1.27856-5.48477 4.3326-5.79595 10.14651-9.24545 15.64421-1.68446 2.68438-4.66047 4.5007-7.09247 6.43589-.90106.71709-2.53296 1.75957-2.19133 3.13284.41967 1.68988 3.29554 2.59636 4.69219 3.23586 3.16285 1.44838 6.60152 2.58098 10.01178 3.27846 1.82251.37291 4.5353.31328 6.08254 1.43417 2.82498 2.04699 1.87136 9.02186 2.26058 12.10253z"/><path d="m489.15948 179.97278.41718.41717zm-7.09164.41717.41718.41713zm5.84022 0 .41712.41713z" fill="#010101"/><path d="m266.81516 180.80708-.41713 2.50296 1.66861-2.50296z"/><path d="m365.26405 180.80708.41718.41718z" fill="#0e0d08"/><path d="m483.7365 180.80708.41712.41718z" fill="#010101"/><path d="m414.9057 181.22426.41713.41712z" fill="#0e0d08"/><path d="m483.31932 192.90463c-.95737-2.82873-.52019-6.24899-2.35778-8.74195-2.40155-3.25795-7.78707-2.98142-11.40838-2.93677-1.24938.0154-3.33394-.0609-4.14321 1.12593-.96489 1.41455.79136 4.87323 1.17013 6.38123 1.57018 6.249 2.97098 14.87075 8.39778 19.05818 3.56671 2.75202 10.74428.94819 13.72068-1.99985 4.74806-4.70219 6.02999-15.69046 1.20599-20.76728-5.96489-6.27818-5.87354 4.89075-6.58521 7.88051z" fill="url(#i)"/><path d="m236.77991 181.64138.41716.41718z" fill="#0f0d06"/><path d="m340.65187 181.64138.41712.41718z" fill="#0e0d08"/><path d="m275.99263 182.05856.41713.41717z" fill="#0f0e08"/><path d="m290.17591 182.05856.41718.41717zm28.7838 0 .41718.41717z" fill="#0e0d08"/><path d="m267.64946 182.47573.41718.41713z" fill="#0f0e08"/><path d="m278.07841 182.47573.41713.41713zm11.68038 0 .41712.41713zm57.56754 0 .41718.41713zm-57.98472.41713.41718.41718z" fill="#0e0d08"/><path d="m267.23233 183.31004.41713.41712z" fill="#0f0e08"/><path d="m316.45675 183.31004.41718.41712zm22.52646 0 .41718.41712z" fill="#0e0d08"/><path d="m368.60131 183.31004.41718.41712z" fill="#0e0b05"/><path d="m487.90806 183.31004.41712.41712z" fill="#0e0d08"/><path d="m509.18304 183.72716-2.2293 10.42895-1.58062 5.40464 2.97556 2.10418-.8343-3.75443h.41718c1.92933 4.63294 3.96211 5.42303 8.76024 5.42303l-2.92008-6.25734c1.92392 2.21383 2.62144 5.34208 5.84022 5.84017l-2.92014-5.42299c2.66985 2.89798 3.98848 4.89904 7.926 2.92008v-.8343c-6.95067-3.30725-7.58182-14.42947-15.43476-15.85199z" fill="url(#h)"/><path d="m442.43802 187.06442 1.25143-2.92008c-1.70447.49598-2.59973 1.45252-1.25143 2.92008z"/><path d="m315.62245 184.56151.41718.41713z" fill="#0e0d08"/><path d="m481.23354 184.56151.41718.41713z" fill="#0e0d05"/><path d="m343.15477 184.97864.41718.41718z" fill="#0f0e08"/><path d="m465.3816 184.97864.41712.41718z" fill="#010101"/><path d="m504.5943 184.97864.41712.41718z" fill="#0d0b05"/><path d="m302.27347 185.39582.41712.41717z" fill="#0e0d08"/><path d="m342.73765 185.39582.41712.41717zm-75.92249.41717.41717.41713zm1.66865 0 .41713.41713zm73.83666 0 .41718.41713z" fill="#0f0e08"/><path d="m316.03963 186.23012.41712.41717zm20.0235 0 .41718.41717z" fill="#0e0d08"/><path d="m273.90685 186.64729.41713.41713z" fill="#0f0e08"/><path d="m455.787 186.64729.41718.41713z" fill="#0f0e07"/><path d="m483.31932 186.64729.41718.41713z" fill="#010101"/><path d="m273.48967 187.4816.41718.41717z" fill="#0f0e08"/><path d="m341.06899 187.4816.41718.41717z" fill="#0f0e07"/><path d="m386.12191 187.4816 4.58868 5.00586 2.08578-5.00586-2.08578 3.33725zm42.13277 0-.41717 6.25734-4.17156-2.50296c-.23233 2.75031 3.97968 5.87608 6.25734 7.09169l-.8343-10.84607z"/><path d="m312.70237 188.3159.41718.41717zm7.09164 0 .41718.41717zm-7.50882.41717.41718.41713z" fill="#0e0d08"/><path d="m454.53552 188.73307.41718.41713z" fill="#0f0e07"/><path d="m248.04313 189.56738.41716.41717z" fill="#0f0d06"/><path d="m274.32398 189.98455.41717.41713z" fill="#0f0e08"/><path d="m311.03377 189.98455.41712.41713z" fill="#0e0d08"/><path d="m369.85279 189.98455.41718.41713z" fill="#0f0d06"/><path d="m453.70122 189.98455.41718.41713zm2.92008.41713.41718.41717z" fill="#0f0e07"/><path d="m388.62481 190.81885.41718.41713zm128.06699 0 .41718.41713zm-183.13163.41713.41718.41718z" fill="#0e0d08"/><path d="m452.86692 191.23598.41712.41718z" fill="#0f0e07"/><path d="m244.28873 191.65316.41715.41717zm123.47828 0 .41718.41717z" fill="#0f0d06"/><path d="m371.10427 191.65316.41712.41717z" fill="#0e0d08"/><path d="m243.03726 192.07033.41715.41713z" fill="#0f0d06"/><path d="m389.45916 192.07033.41713.41713zm35.87544 0 .41713.41713z" fill="#0e0d08"/><path d="m454.9527 192.90463.41712.41713z" fill="#0f0e07"/><path d="m368.18419 193.73894.41712.41717z" fill="#0e0d08"/><path d="m243.03726 194.15611.41715.41713z" fill="#0f0d06"/><path d="m467.88456 194.15611.41712.41713zm-178.12577.41713.41712.41717z" fill="#0e0d08"/><path d="m315.20533 194.57324c-1.30696 6.24899-5.77307 11.87435-9.77608 16.68629-1.90767 2.29307-4.84195 4.5983-5.65874 7.50877 6.91315-1.99151 14.68474-9.01429 22.10928-8.34312-1.90971-3.69934-10.81767 1.43296-14.18328 2.08578 2.70605-4.01009 6.40583-7.50379 8.14788-12.09751.73129-1.92728 1.19224-4.51949-.63906-5.84021z"/><path d="m336.48031 194.57324.41712.41717z" fill="#0f0e07"/><path d="m363.59545 194.57324.41718.41717z" fill="#0e0d08"/><path d="m248.04313 194.99041.41716.41713zm1.66863 0 .41716.41713z" fill="#0f0d06"/><path d="m314.78815 195.40754.41718.41718z" fill="#0e0d08"/><path d="m449.52966 195.40754.41713.41718z" fill="#0f0e07"/><path d="m468.30168 195.82472.41718.41717zm24.19506.41717.41718.41713z" fill="#010101"/><path d="m520.02906 196.24189.41718.41713z" fill="#0f0e08"/><path d="m364.84693 196.65902.41712.41717z" fill="#0e0d08"/><path d="m275.99263 197.07619.41713.41718z" fill="#0f0e08"/><path d="m246.37451 197.49337.41715.41713z" fill="#0f0d06"/><path d="m360.67537 197.49337.41712.41713z" fill="#0e0d08"/><path d="m245.95735 197.9105.41716.41717z" fill="#0f0d06"/><path d="m428.67186 197.9105.41713.41717z" fill="#0e0d08"/><path d="m408.23118 204.58501c-1.76459-1.76-3.56168-4.19073-6.25734-3.75443l7.92595 9.5946 2.08578-12.09751c-3.17871.50267-3.02354 3.65679-3.75439 6.25734z"/><path d="m515.0232 198.32767.41718.41713z" fill="#0f0e07"/><path d="m270.98672 198.7448.41717.41717zm8.76029 0 .41718.41717z" fill="#0f0e08"/><path d="m369.01849 202.49923-.41718-2.08578h-1.25148l.41718 5.42304c2.42951-.42049 4.95833-4.78939 5.42304-7.09169z"/><path d="m492.07962 198.7448.41712.41717z" fill="#010101"/><path d="m286.83866 199.16197.41717.41718zm72.58523 0 .41712.41718zm3.33726 0 .41712.41718zm49.22442 0 .41717.41718z" fill="#0e0d08"/><path d="m450.36396 199.16197.41718.41718z" fill="#0f0e07"/><path d="m524.6178 199.57915.41718.41713z" fill="#0d0b05"/><path d="m328.97149 199.99628.41712.41717z" fill="#0e0d08"/><path d="m505.01142 199.99628.41718.41717z" fill="#0e0b05"/><path d="m290.17591 200.41345.41718.41713zm22.52646 0 .41718.41713z" fill="#0e0d08"/><path d="m344.128 200.6917.13932.27781z"/><path d="m448.69536 200.83058.41712.41717z" fill="#0f0e07"/><path d="m494.9997 200.83058.41718.41717zm12.93186 0 .41712.41717z" fill="#0d0b05"/><path d="m315.20533 201.24775.41712.41718zm28.36662 0 .41712.41718zm-31.70388.83431.41712.41717zm178.96007 0 .41712.41717z" fill="#0e0d08"/><path d="m494.58252 202.08206.41718.41717z" fill="#0d0b05"/><path d="m517.10898 202.08206.41718.41717z" fill="#0f0d06"/><path d="m253.88332 202.49923.41716.41713z"/><path d="m326.05135 202.49923.41718.41713z" fill="#0e0d08"/><path d="m445.3581 202.49923.41713.41713z" fill="#0f0e07"/><path d="m253.04901 202.91636.41715.41717zm.83431 0 .41716.41717z" fill="#0f0d06"/><path d="m339.81751 202.91636.41718.41717z" fill="#0f0e08"/><path d="m356.92093 202.91636.41718.41717zm133.49003 0 .41718.41717zm-82.17978.83435.41713.41713zm63.40776 0 .41718.41713z" fill="#0e0d08"/><path d="m260.97499 204.16784.41713.41717z" fill="#0f0e07"/><path d="m355.66945 204.58501.41718.41713zm54.23034 0 .41717.41713z" fill="#0e0d08"/><path d="m287.25583 205.00214.41718.41717z" fill="#0f0e08"/><path d="m332.72587 205.00214.41718.41717z" fill="#0e0b05"/><path d="m338.14891 205.00214.41718.41717z" fill="#0e0d08"/><path d="m341.90329 205.00214.41718.41717z" fill="#0f0e08"/><path d="m358.58959 205.00214.41712.41717z" fill="#0e0d08"/><path d="m496.25118 205.00214.41712.41717z" fill="#0d0b05"/><path d="m322.29697 205.41931.41712.41718zm25.44654 0 .41712.41718z" fill="#0e0d08"/><path d="m384.45325 205.41931-2.08578 5.42304h-.41712l-3.33726-4.58873 2.92008 9.59459h.41718c1.10962-2.78745 5.03841-7.91472 2.5029-10.4289z"/><path d="m406.1454 205.41931.41713.41718z" fill="#0e0d08"/><path d="m341.48617 205.83649.41712.41713z" fill="#0f0e08"/><path d="m467.0502 205.83649.41718.41713z" fill="#0f0d06"/><path d="m326.88571 206.25362.41712.41717z" fill="#0d0b05"/><path d="m383.61895 206.25362.41718.41717z" fill="#0e0d08"/><path d="m274.74115 206.67079.41713.41713z" fill="#0f0e08"/><path d="m340.23469 206.67079.41718.41713z" fill="#0f0e07"/><path d="m347.74351 206.67079.41712.41713zm3.75438 0 .41718.41713z" fill="#0e0d08"/><path d="m250.12892 207.08792.41715.41717z" fill="#0f0d06"/><path d="m352.33225 207.08792.41712.41717zm121.80965 0 .41712.41717zm-166.02827.41717.41718.41718zm166.44539 0 .41718.41718z" fill="#0e0d08"/><path d="m248.87745 207.92227.41715.41713z" fill="#0f0d06"/><path d="m331.89157 207.92227.41712.41713z" fill="#0d0b05"/><path d="m337.31461 207.92227.41712.41713z" fill="#0f0d06"/><path d="m352.33225 207.92227.41712.41713z" fill="#0e0d08"/><path d="m429.50616 208.3394 2.50291 13.76615c-2.65891-2.32313-10.85984-13.02735-14.18329-9.17742 7.674 2.44538 10.87233 11.41175 17.52055 15.43476l-2.07993-7.92594-2.50876-12.51468z"/><path d="m474.9762 207.92227.41712.41713z" fill="#0e0d08"/><path d="m482.90214 208.3394.41718.41717z" fill="#010101"/><path d="m493.3311 208.3394.41712.41717z" fill="#0e0b05"/><path d="m247.62597 208.75657.41716.41713z" fill="#0d0b05"/><path d="m258.47204 208.75657.41717.41713z" fill="#0f0e07"/><path d="m309.78229 208.75657.41712.41713z" fill="#0e0d08"/><path d="m330.22291 208.75657.41718.41713zm1.25148 0 .41718.41713z" fill="#0d0b05"/><path d="m338.98321 208.75657.41718.41713z" fill="#0e0b05"/><path d="m477.06198 208.75657.41712.41713z" fill="#010101"/><path d="m492.91392 208.75657.41718.41713z" fill="#0d0b05"/><path d="m306.86215 209.1737.41718.41717z" fill="#0e0d08"/><path d="m329.38861 209.1737.41718.41717zm5.84022 0 .41712.41717z" fill="#0d0b05"/><path d="m280.16419 209.59087.41713.41718z" fill="#0f0e08"/><path d="m348.16063 210.00805.41718.41713z" fill="#0f0e07"/><path d="m257.22056 210.42518.41718.41717z" fill="#0f0d06"/><path d="m337.73173 210.42518.41718.41717z" fill="#0e0b05"/><path d="m347.32633 210.42518.41718.41717z" fill="#0f0e07"/><path d="m313.11955 210.84235.41712.41718z" fill="#0e0d08"/><path d="m472.47324 210.84235.41718.41718z" fill="#0f0d06"/><path d="m328.13713 211.25953.41718.41712z" fill="#0e0d08"/><path d="m451.61544 211.25953c-2.11247 5.17149 3.0436 10.7213 5.00586 15.43476-5.42386-2.79535-10.23907-7.4546-16.68624-7.50882v1.66861c9.28883.81098 14.24253 10.31505 21.6921 14.60051-.0696-7.77496-6.74332-16.71464-9.17742-24.19506z"/><path d="m464.13012 211.25953.41718.41712z" fill="#0f0d06"/><path d="m310.61659 211.67665.41718.41718z" fill="#0e0d08"/><path d="m474.1419 211.67665.41712.41718z" fill="#0f0d06"/><path d="m489.99384 211.67665.41712.41718z" fill="#0e0b05"/><path d="m351.91507 212.09383.41718.41713z" fill="#0e0d08"/><path d="m489.57666 212.09383.41718.41713z" fill="#0d0b05"/><path d="m287.25583 212.51096.41718.41717zm142.66746 0 .41717.41717z" fill="#0f0e08"/><path d="m489.15948 212.51096.41718.41717z" fill="#0e0b05"/><path d="m286.83866 212.92813.41717.41718z" fill="#0f0e08"/><path d="m333.14305 212.92813.41712.41718zm17.52054 0 .41718.41718z" fill="#0e0d08"/><path d="m466.63308 212.92813.41712.41718z" fill="#0f0d06"/><path d="m286.42153 213.34531.41713.41712zm-.41718.41712.41718.41718z" fill="#0f0e08"/><path d="m382.36747 213.76243.41718.41718z" fill="#0e0d08"/><path d="m285.58723 214.17961.41712.41713z" fill="#0f0e08"/><path d="m302.69059 214.17961.41718.41713z" fill="#0e0d08"/><path d="m432.00907 214.59674.41717.41717z" fill="#0f0e08"/><path d="m451.19826 215.84821.41718.41718z" fill="#0f0e07"/><path d="m283.91857 216.26539.41718.41713z" fill="#0f0e08"/><path d="m304.77637 216.26539.41718.41713zm-.8343.41713.41718.41717z" fill="#0e0d08"/><path d="m366.93271 217.51687-2.92008.41712c.98406 2.33944 2.72025 4.22998 3.5362 6.67452.90399 2.70859.31749 6.4459 3.13826 7.92594 1.30652-2.93339 4.51739-7.71483 3.75444-10.84602-2.36989 1.16549-3.49288 3.70227-3.75444 6.25734h-.41712z"/><path d="m282.6671 217.93399.41717.41718z" fill="#0f0e08"/><path d="m328.13713 217.93399c0 8.18673-1.11376 15.88411-3.3372 23.77794 2.90256.10638 4.42306-2.91218 5.99578-5.00586 3.10615-4.13448 6.22103-8.69315 11.10758-10.84608v-.41718c-4.9554-.6416-11.14892 6.76753-12.9318 10.84608h-.41718c1.46883-5.67752 2.77574-12.77458.41718-18.3549z"/><path d="m353.16655 217.93399.41712.41718z" fill="#0e0d08"/><path d="m473.30754 217.93399.41718.41718z" fill="#0e0b05"/><path d="m483.31932 217.93399.41718.41718z" fill="#0d0b05"/><path d="m399.05371 227.11147-9.59455-6.67452c.53395 1.7074 1.88927 2.21593 3.15412 3.38855 2.48876 2.30854 4.66213 7.70903 8.10909 8.29183l.8343-13.76616c-3.36688 1.28398-2.50296 5.80303-2.50296 8.7603z"/><path d="m452.44974 218.35117.41718.41713z" fill="#0f0e07"/><path d="m482.90214 218.35117.41718.41713z" fill="#0e0b05"/><path d="m367.34983 218.7683.41718.41717z" fill="#0e0d08"/><path d="m431.17477 219.18547.41717.41718z" fill="#0f0e08"/><path d="m364.84693 219.60265.41712.41712z" fill="#0e0d08"/><path d="m426.58603 219.60265.41718.41712zm2.92013.41712.41713.41718z" fill="#0f0e08"/><path d="m429.92329 220.43695.41717.41713z" fill="#0f0e07"/><path d="m350.24647 220.85408.41712.41717zm40.8813 0 .41717.41717z" fill="#0e0d08"/><path d="m447.44388 221.27125.41713.41718z" fill="#0f0e08"/><path d="m283.5014 221.68843.41717.41712z" fill="#0f0e07"/><path d="m374.44153 221.68843.41712.41712zm-25.44654.8343.41712.41713z" fill="#0e0d08"/><path d="m429.08899 222.52273.41717.41713z" fill="#0f0e08"/><path d="m456.6213 222.52273.41718.41713z" fill="#0f0d06"/><path d="m476.6448 222.52273.41718.41713z" fill="#0e0b05"/><path d="m478.73058 222.52273.41718.41713z" fill="#010101"/><path d="m284.33575 222.93986.41713.41717z" fill="#0f0e07"/><path d="m478.31346 222.93986.41712.41717z" fill="#0e0b05"/><path d="m392.37925 223.35703.41712.41718z" fill="#0e0d08"/><path d="m451.19826 223.35703.41718.41718z" fill="#0f0d06"/><path d="m477.89628 223.35703.41718.41718z" fill="#0e0b05"/><path d="m304.77637 224.19133.41718.41718zm62.57346 0 .41718.41718zm26.69802.83436.41718.41712z" fill="#0e0d08"/><path d="m304.35925 225.85999.41712.41712z" fill="#0f0e08"/><path d="m397.80228 226.27711.41713.41718z" fill="#0e0d08"/><path d="m422.83165 226.27711c-2.9418 5.21531 1.34575 15.9617 2.08578 21.69216h-.41718c-2.32479-4.91119-6.80378-8.9672-10.4289-12.93186-.51102-.55898-3.15329-4.15818-4.09856-2.64393-.98489 1.57852 3.8433 5.32373 4.74977 6.39837 3.33389 3.95128 6.34493 8.42027 8.86917 12.9318 1.45877 2.60768 2.73025 6.09509 5.49726 7.50882-2.08706-10.76097-5.39259-21.93658-5.42304-32.95536z"/><path d="m451.19826 226.27711.41718.41718z" fill="#0f0d06"/><path d="m337.31461 226.69429.41712.41718z" fill="#010101"/><path d="m339.40039 226.69429.41712.41718zm30.4524 0 .41718.41718z" fill="#0e0d08"/><path d="m433.26055 226.69429.41717.41718z" fill="#0f0e07"/><path d="m421.99734 227.11147.41713.41712z" fill="#0f0e08"/><path d="m476.22768 227.11147.41712.41712z" fill="#0e0b05"/><path d="m344.82343 227.52859.41712.41718z" fill="#0e0d08"/><path d="m370.26997 227.52859.41712.41718z" fill="#0f0e08"/><path d="m466.63308 227.94577.41712.41712zm5.42304 0 .41712.41712z" fill="#0e0b05"/><path d="m337.31461 228.36289.41712.41718zm59.2362 0 .41712.41718z" fill="#0e0d08"/><path d="m453.28404 228.36289.41718.41718z" fill="#0f0d06"/><path d="m303.52495 228.78007.41712.41718z" fill="#0f0e08"/><path d="m468.71886 229.19725.41712.41712z" fill="#0e0b05"/><path d="m327.30283 229.61437.41718.41718z" fill="#0e0d08"/><path d="m289.75879 230.03155.41712.41712z" fill="#0f0e07"/><path d="m397.80228 230.03155.41713.41712zm24.19506 0 .41713.41712z" fill="#0f0e08"/><path d="m476.22768 230.03155.41712.41712z" fill="#0d0b05"/><path d="m283.91857 230.44867-4.58873 12.93186 9.5946-6.67446c-.16767-3.2238-1.91392-5.33882-5.00587-6.2574z" fill="url(#g)"/><path d="m334.81165 230.86585.41718.41718zm63.82494.41718.41712.41712z" fill="#0e0d08"/><path d="m301.85629 232.95163.41718.41718z" fill="#0f0e08"/><path d="m458.28996 232.95163.41712.41718z" fill="#0f0d06"/><path d="m412.40274 233.36881.41713.41712z" fill="#0f0e08"/><path d="m321.04549 233.78593.41718.41718z" fill="#0e0d08"/><path d="m353.16655 233.78593-.41718.41718c2.04113 5.60701 4.0502 10.25289 5.03924 16.26912.45973 2.79452.17441 6.43125 2.46958 8.34312 2.34524-4.45064 3.18998-9.61466 5.33208-14.18334 1.22937-2.62266 3.2359-4.92534 2.59392-7.92594-4.00931 1.97227-6.37627 10.87647-7.50882 15.01758-2.06909-5.51477-1.43628-15.09771-7.50882-17.93772z"/><path d="m410.73409 234.62023.41718.41718zm.41718.41718.41717.41718z" fill="#0f0e08"/><path d="m328.55431 235.45459.41718.41712z" fill="#0e0d08"/><path d="m411.56844 235.45459.41713.41712z" fill="#0f0e08"/><path d="m295.59895 235.87171.41718.41718z" fill="#0f0e07"/><path d="m304.35925 235.87171.41712.41718z" fill="#0f0e08"/><path d="m328.55431 235.87171.41718.41718z" fill="#fff"/><path d="m411.98557 235.87171.41717.41718z" fill="#0f0e08"/><path d="m468.71886 235.87171.41712.41718z" fill="#010101"/><path d="m330.64009 236.28889.41718.41718zm36.29262.41718.41712.41712z" fill="#0e0d08"/><path d="m422.83165 236.70607.41717.41712z" fill="#0f0e07"/><path d="m368.18419 237.12319.41712.41718z" fill="#0e0d08"/><path d="m415.74 237.12319.41713.41718z" fill="#0f0e08"/><path d="m416.15713 237.54037.41717.41712z" fill="#0f0d06"/><path d="m298.10191 237.95749.41712.41718zm31.2867 0 .41718.41718z" fill="#0f0e07"/><path d="m381.53317 237.95749c4.71678 9.36808 8.20922 18.17883 10.84608 28.36668 2.9418-1.64904 2.53711-4.56122 2.50461-7.50882-.0759-6.86473 2.56049-13.69946 2.08407-20.44068-1.96896.67454-2.32059 2.69152-2.66311 4.58874-.82264 4.55199-.83806 9.25087-1.92557 13.76616-2.26185-5.25576-4.05562-17.68451-10.84608-18.77208z"/><path d="m382.78465 237.95749.41712.41718z" fill="#0e0d08"/><path d="m449.52966 237.95749.41713.41718z" fill="#0f0d06"/><path d="m354.83515 238.37467.41718.41718z" fill="#0e0d08"/><path d="m414.48852 238.37467.41718.41718zm-110.96357.41718.41712.41712z" fill="#0f0e07"/><path d="m335.22883 238.79185.41712.41712z" fill="#0e0d08"/><path d="m395.29933 238.79185.41717.41712z" fill="#0f0e08"/><path d="m466.63308 238.79185.41712.41712z" fill="#0f0d06"/><path d="m283.91857 239.20897.41718.41718z" fill="#0d0b05"/><path d="m394.88215 239.62615.41718.41712zm-84.68274.8343.41718.41718z" fill="#0f0e08"/><path d="m364.84693 240.46045.41712.41718zm2.5029 0 .41718.41718z" fill="#0e0d08"/><path d="m416.15713 240.46045.41717.41718zm-106.37484.41718.41712.41712z" fill="#0f0e07"/><path d="m450.78114 240.87763.41712.41712z" fill="#0f0d06"/><path d="m464.96442 240.87763.41718.41712z" fill="#0d0b05"/><path d="m309.36511 241.29475.41718.41718z" fill="#0f0e08"/><path d="m366.93271 241.29475.41712.41718z" fill="#0e0d08"/><path d="m385.70473 241.29475.41718.41718z" fill="#0f0e08"/><path d="m469.55316 241.29475-2.92008 5.00586 9.17742 4.17162z" fill="url(#f)"/><path d="m419.91156 241.71193.41713.41712z" fill="#0f0e07"/><path d="m366.51553 242.12905.41718.41718z" fill="#0e0d08"/><path d="m384.03613 242.54623.41712.41718z" fill="#0f0e08"/><path d="m279.74701 242.96341.41718.41712z" fill="#0d0b05"/><path d="m313.11955 242.96341.41712.41712z" fill="#0f0e08"/><path d="m278.91271 243.38053.41713.41718z" fill="#fff"/><path d="m363.59545 243.38053.41718.41718z" fill="#0e0d08"/><path d="m384.45325 243.38053.41718.41718z" fill="#0f0e08"/><path d="m462.87864 243.38053.41718.41718z" fill="#0e0b05"/><path d="m384.87043 244.21483.41712.41718zm2.5029 0 .41718.41718zm-2.08578.83436.41718.41712zm2.50296 0 .41718.41712zm-25.02936.41712.41712.41718zm2.08578 0 .41712.41718z" fill="#0f0e08"/><path d="m437.43211 245.46631.41717.41718z" fill="#0f0d06"/><path d="m388.20769 245.88349.41712.41712z" fill="#0f0e08"/><path d="m467.0502 246.30061.41718.41718z" fill="#010101"/><path d="m304.35925 246.71779.41712.41718z" fill="#0f0e07"/><path d="m351.49789 247.13497.41718.41712z"/><path d="m420.74587 247.13497.41717.41712z" fill="#0f0e07"/><path d="m361.92679 247.55209.41718.41718z" fill="#0f0e08"/><path d="m440.35219 247.55209.41717.41718z" fill="#0f0d06"/><path d="m311.45089 247.96927.41718.41712z" fill="#0f0e07"/><path d="m352.33225 247.96927.41712.41712z" fill="#0f0e08"/><path d="m442.02084 248.80357.41718.41718zm-26.69801.41718.41717.41712zm.8343 0 .41717.41712z" fill="#0f0d06"/><path d="m301.85629 249.63787.41718.41718z" fill="#0f0e07"/><path d="m361.09249 249.63787.41718.41718z" fill="#0f0e08"/><path d="m422.41447 249.63787.41718.41718zm-105.95772 1.66866.41718.41712z" fill="#0f0e07"/><path d="m368.60131 251.30653.41718.41712zm-68.41362.41712.41712.41718z" fill="#0f0e08"/><path d="m427.42038 251.72365.41713.41718z" fill="#0f0d06"/><path d="m390.71059 252.14083.41718.41718zm-72.58518.41718.41712.41712z" fill="#0f0e07"/><path d="m424.08312 252.55801.41713.41712z" fill="#0f0d06"/><path d="m398.63659 252.97513.41712.41718z" fill="#0f0e07"/><path d="m318.95971 253.39231.41718.41712z" fill="#0f0e08"/><path d="m447.86101 253.80943.41717.41718z" fill="#0e0b05"/><path d="m298.51903 254.22661.41718.41718z" fill="#0f0e07"/><path d="m358.17241 254.22661.41718.41718z" fill="#0f0e08"/><path d="m383.61895 254.22661.41718.41718z" fill="#0f0e07"/><path d="m448.27818 254.22661.41718.41718z" fill="#0e0b05"/><path d="m334.39447 254.64379.41718.41712zm57.15047.41712.41713.41718zm-69.66515.41718.41718.41712zm81.76266 0 .41717.41712zm-80.51118.8343.41718.41718zm78.00822.41718.41718.41712zm-56.31606.41712.41712.41718zm60.0705 0 .41717.41718zm-60.48768.8343.41718.41718zm-17.10342.41718.41718.41718zm5.42304 0 .41718.41718zm73.00236 0 .41717.41718zm-77.17392.41718.41718.41712zm43.80144.41712.41712.41718z" fill="#0f0e07"/><path d="m318.95971 260.06677-.8343 12.93186c3.6664-3.91542 9.77979-12.14508.8343-12.93186z" fill="url(#e)"/><path d="m346.49203 260.06677.41718.41718z" fill="#0f0e07"/><path d="m440.35219 261.73543.41717.41718z" fill="#0e0b05"/><path d="m457.03848 261.73543.41712.41718z" fill="#0d0b05"/><path d="m395.29933 262.15261.41717.41712z" fill="#0f0e07"/><path d="m438.68358 262.56973.41718.41718z" fill="#0e0b05"/><path d="m374.02435 263.40403.41718.41718zm17.52059 0 .41713.41718z" fill="#0f0e07"/><path d="m435.7635 263.82121.41713.41718z" fill="#0d0b05"/><path d="m394.04785 265.07269.41718.41712z" fill="#0f0e07"/><path d="m406.1454 265.07269.41713.41712z" fill="#0f0d06"/><path d="m433.26055 265.07269.41717.41712z" fill="#0e0b05"/><path d="m345.65773 265.48981.41712.41718zm47.97299 0 .41713.41718z" fill="#0f0e07"/><path d="m432.42624 265.48981.41718.41718z" fill="#0e0b05"/><path d="m384.03613 266.32417.41712.41712z" fill="#0f0e07"/><path d="m406.56253 266.32417.41718.41712zm3.33726 0 .41717.41712z" fill="#0f0d06"/><path d="m321.46267 267.15847.41712.41712z" fill="#0d0b05"/><path d="m351.91507 267.57559.41718.41718zm23.77794.83436.41712.41712z" fill="#0f0e07"/><path d="m425.3346 268.40995.41713.41712zm-1.25148.41712.41713.41718z" fill="#0e0b05"/><path d="m460.79286 269.24425.41718.41712zm.8343 0 .41718.41712z" fill="#0d0b05"/><path d="m421.16304 269.66137.41713.41718z" fill="#0f0d06"/><path d="m429.08899 272.58151c1.60687 3.45027 5.25283 7.00068 8.34312 9.17742l-3.75439-11.68038z" fill="url(#d)"/><path d="m411.56844 270.49573.41713.41712zm-72.58523.8343.41718.41712z" fill="#0f0d06"/><path d="m364.84693 271.33003.41712.41712z" fill="#0f0e07"/><path d="m429.92329 271.74715.41717.41718z" fill="#0d0b05"/><path d="m368.60131 272.16433.41718.41718z" fill="#0f0d06"/><path d="m430.75764 275.08441.41713.41718zm.41713.41718.41717.41718z" fill="#0d0b05"/><path d="m358.17241 290.51923h.41718l3.75438-13.34904-4.74806-.80595-.2578 3.72609z" fill="url(#c)"/><path d="m431.59194 275.91877.41713.41712zm4.17156 1.6686.41713.41718z" fill="#0d0b05"/><path d="m392.79637 279.67315 4.58874 13.34898c1.02998-2.38652 4.20825-11.60191 1.9527-13.5146-1.74536-1.48005-4.64709-.33539-6.54144.16562z" fill="url(#b)"/><path d="m393.63072 279.25597.41713.41718z" fill="#0d0b05"/><path d="m434.51202 279.25597.41718.41718zm-19.60632 1.66866.41713.41712z" fill="#010101"/><path d="m436.5978 281.34175.41718.41718zm-43.38425.41718.41717.41718zm43.80143 0 .8343.8343z" fill="#0d0b05"/><path d="m437.43211 281.75893.41717.41718z" fill="#fff"/><path d="m416.99148 282.59323.41713.41718z" fill="#0e0b05"/><path d="m360.25819 283.01041.41718.41712z" fill="#0d0b05"/><g transform="translate(16.874958 4.05862)"><path d="m467.06027 176.99625c-1.65006-.30031-2.94117-1.52797-2.94117-2.79663 0-1.19757.76706-2.40628 3.89097-6.13128 2.49163-2.97105 2.19044-2.89237-2.42038.63231-5.09927 3.89805-8.75028 5.38209-13.83956 5.62541-2.36374.11302-4.2977.054-4.2977-.13123 0-.18518.69653-.92279 1.54785-1.63913.85131-.71633 3.7094-4.19488 6.3513-7.7301 4.8251-6.45664 7.17988-8.64515 10.28077-9.55487 4.90339-1.43851 11.2167 2.3491 12.63774 7.58187 1.31927 4.85806-2.96451 12.68135-7.65756 13.98468-1.01011.28053-1.94686.48124-2.08167.44603-.1348-.0352-.79657-.16439-1.47059-.28706z" fill="#fef666"/><path d="m460.44263 204.96122c-1.60557-.44531-3.67194-2.12046-5.17472-4.19499-1.78994-2.47094-3.05278-5.8521-5.17461-13.85461-.92931-3.5049-1.80087-6.73534-1.9368-7.17874-.68558-2.23633 4.18957-3.37368 10.15096-2.36816 4.69055.79117 6.41516 2.36509 7.25657 6.62255.31787 1.60839.63822 3.14494.71189 3.41454.0737.26961.4196-1.02021.76874-2.86627.38817-2.05241 1.06302-3.8543 1.73697-4.63781l1.10216-1.28134 1.78772 1.20644c2.80854 1.89534 4.3985 5.61448 4.36891 10.2195-.0419 6.51715-2.72538 11.59596-7.25095 13.72323-2.24016 1.053-6.60624 1.67843-8.34684 1.19566z" fill="#fef67a"/></g></g></svg>