<svg height="256" width="256" xmlns="http://www.w3.org/2000/svg" xmlns:xlink="http://www.w3.org/1999/xlink"><linearGradient id="a"><stop offset="0" stop-color="#2d3335"/><stop offset=".5" stop-color="#4c464a"/><stop offset="1" stop-color="#384042"/></linearGradient><linearGradient id="b" xlink:href="#a"/><linearGradient id="c"><stop offset="0"/><stop offset="1" stop-opacity="0"/></linearGradient><linearGradient id="d" xlink:href="#c"/><linearGradient id="e" gradientUnits="userSpaceOnUse" x1="94.25" x2="9" xlink:href="#d" y1="-94.672" y2="-179.97"/><linearGradient id="f" gradientUnits="userSpaceOnUse" x1="50.75" x2="35.75" xlink:href="#d" y1="-114.44" y2="-30.438"/><linearGradient id="g" gradientUnits="userSpaceOnUse" x1="77.625" x2="115.25" xlink:href="#d" y1="-163.12" y2="-74.625"/><linearGradient id="h" gradientUnits="userSpaceOnUse" x1="56.5" x2="125.72" xlink:href="#d" y1="-50.438" y2="7.0625"/><linearGradient id="i" gradientUnits="userSpaceOnUse" x1="35" x2="180.75" xlink:href="#d" y1="-163.3" y2="-146.8"/><linearGradient id="j" gradientUnits="userSpaceOnUse" x1="57" x2="179" xlink:href="#d" y1="-141.11" y2="-41.609"/><linearGradient id="k" gradientUnits="userSpaceOnUse" x1="156" x2="208.25" xlink:href="#d" y1="-26.5" y2="39.75"/><linearGradient id="l" gradientUnits="userSpaceOnUse" x1="142.75" x2="235" xlink:href="#d" y1="-169.3" y2="-77.297"/><linearGradient id="m" gradientUnits="userSpaceOnUse" x1="214.25" x2="166.5" xlink:href="#o" y1="-161.36" y2="-113.72"/><linearGradient id="n"><stop offset="0" stop-color="#fff"/><stop offset="1" stop-color="#fff" stop-opacity="0"/></linearGradient><linearGradient id="o" xlink:href="#n"/><linearGradient id="p" gradientUnits="userSpaceOnUse" x1="53.25" x2="57.656" xlink:href="#o" y1="-126.5" y2="-62.469"/><linearGradient id="q" gradientUnits="userSpaceOnUse" x1="39.5" x2="75.719" xlink:href="#o" y1="6.625" y2="-17.125"/><linearGradient id="r" gradientUnits="userSpaceOnUse" x1="102" x2="85.312" xlink:href="#o" y1="-162.34" y2="-121.44"/><linearGradient id="s" gradientUnits="userSpaceOnUse" x1="117.75" x2="63.5" xlink:href="#o" y1="-78.094" y2="-14.75"/><linearGradient id="t" gradientUnits="userSpaceOnUse" x1="180.69" x2="133.94" xlink:href="#o" y1="-125.12" y2="-60.75"/><linearGradient id="u" gradientUnits="userSpaceOnUse" x1="170.75" x2="130.22" xlink:href="#o" y1="-23.5" y2="33.375"/><linearGradient id="v" gradientUnits="userSpaceOnUse" x1="213.5" x2="181.75" xlink:href="#o" y1="-76" y2="-5.6563"/><linearGradient id="w" gradientUnits="userSpaceOnUse" x1="210.17" x2="9" xlink:href="#d" y1="62.064" y2="-223.25"/><clipPath id="x"><path d="m9 12.25s7.5 13 11.75 27.75 6.25 25.5 6.25 25.5-5.5 12.75-8.25 24.75-5.75 23-5.75 23 5.75 16 9.25 30 3.75 24.25 3.75 24.25-4 10.25-7.5 24.25-5 30.75-5 30.75 9.25-2 28.5 1.25 32.25 6 32.25 6 12.75-2.75 24-6.25 16.25-6.5 16.25-6.5 5.5.5 22.5 6.25 29.25 8.5 29.25 8.5 13-2.75 26-5.75 26.5-8 26.5-8-.75-5 4.25-24.5 8.75-28 8.75-28-.5-4.5-3.75-19.75-10-29.75-10-29.75 1.75-10.5 6.75-23.75 10.25-26.75 10.25-26.75-4.75-15.25-7.5-29.75-8.25-25.75-8.25-25.75-24.25 9-31.75 10.5-21 5.25-21 5.25-9.75-4.25-22-8.5-29.75-5.5-29.75-5.5-3.25 3.5-22 8-27.5 5.75-27.5 5.75-18.5-9-31.5-11.5-24-2-24.75-1.75z"/></clipPath><clipPath id="y"><path d="m9 12.25s7.5 13 11.75 27.75 6.25 25.5 6.25 25.5-5.5 12.75-8.25 24.75-5.75 23-5.75 23 5.75 16 9.25 30 3.75 24.25 3.75 24.25-4 10.25-7.5 24.25-5 30.75-5 30.75 9.25-2 28.5 1.25 32.25 6 32.25 6 12.75-2.75 24-6.25 16.25-6.5 16.25-6.5 5.5.5 22.5 6.25 29.25 8.5 29.25 8.5 13-2.75 26-5.75 26.5-8 26.5-8-.75-5 4.25-24.5 8.75-28 8.75-28-.5-4.5-3.75-19.75-10-29.75-10-29.75 1.75-10.5 6.75-23.75 10.25-26.75 10.25-26.75-4.75-15.25-7.5-29.75-8.25-25.75-8.25-25.75-24.25 9-31.75 10.5-21 5.25-21 5.25-9.75-4.25-22-8.5-29.75-5.5-29.75-5.5-3.25 3.5-22 8-27.5 5.75-27.5 5.75-18.5-9-31.5-11.5-24-2-24.75-1.75z"/></clipPath><clipPath id="z"><path d="m9 12.25s7.5 13 11.75 27.75 6.25 25.5 6.25 25.5-5.5 12.75-8.25 24.75-5.75 23-5.75 23 5.75 16 9.25 30 3.75 24.25 3.75 24.25-4 10.25-7.5 24.25-5 30.75-5 30.75 9.25-2 28.5 1.25 32.25 6 32.25 6 12.75-2.75 24-6.25 16.25-6.5 16.25-6.5 5.5.5 22.5 6.25 29.25 8.5 29.25 8.5 13-2.75 26-5.75 26.5-8 26.5-8-.75-5 4.25-24.5 8.75-28 8.75-28-.5-4.5-3.75-19.75-10-29.75-10-29.75 1.75-10.5 6.75-23.75 10.25-26.75 10.25-26.75-4.75-15.25-7.5-29.75-8.25-25.75-8.25-25.75-24.25 9-31.75 10.5-21 5.25-21 5.25-9.75-4.25-22-8.5-29.75-5.5-29.75-5.5-3.25 3.5-22 8-27.5 5.75-27.5 5.75-18.5-9-31.5-11.5-24-2-24.75-1.75z"/></clipPath><linearGradient id="A"><stop offset="0" stop-color="#f9e295"/><stop offset=".125" stop-color="#f7dd84"/><stop offset=".20581" stop-color="#fff"/><stop offset=".30113" stop-color="#f4ce51"/><stop offset=".3412" stop-color="#f9e7aa"/><stop offset="1" stop-color="#efbb0e"/></linearGradient><linearGradient id="B" gradientTransform="matrix(.98427 .98427 -.98427 .98427 66.992 -59.216)" gradientUnits="userSpaceOnUse" x1="120" x2="136" xlink:href="#A" y1="186.5" y2="186.5"/><linearGradient id="C" gradientTransform="matrix(-1.9685 -1.9685 -1.7421 1.7421 596.19 167.51)" gradientUnits="userSpaceOnUse" x1="123" x2="133" xlink:href="#a" y1="150.38" y2="150.38"/><linearGradient id="D" gradientTransform="matrix(.98427 .98427 -.98427 .98427 132.94 -125.16)" gradientUnits="userSpaceOnUse" x1="120" x2="136" xlink:href="#A" y1="186.5" y2="186.5"/><linearGradient id="E" gradientTransform="matrix(-.98427 -.98427 -.98427 .98427 384.91 126.81)" gradientUnits="userSpaceOnUse" x1="123" x2="133" xlink:href="#b" y1="150.38" y2="150.38"/><linearGradient id="F" gradientTransform="matrix(.98427 .98427 -.98427 .98427 132.94 -125.16)" gradientUnits="userSpaceOnUse" x1="128" x2="130.88" xlink:href="#b" y1="134.36" y2="143.36"/><radialGradient id="G" cx="128" cy="86" gradientTransform="matrix(1.0052 1.0052 1.0052 -1.0052 -40.838 43.253)" gradientUnits="userSpaceOnUse" r="47"><stop offset="0" stop-color="#d0e9f2" stop-opacity="0"/><stop offset=".83933" stop-color="#d0e9f2" stop-opacity="0"/><stop offset=".94309" stop-color="#d0e9f2" stop-opacity=".28185"/><stop offset="1" stop-color="#d0e9f2"/></radialGradient><linearGradient id="H" gradientTransform="matrix(-1.9685 -1.9685 -1.7421 1.7421 596.19 167.51)" gradientUnits="userSpaceOnUse" x1="108" x2="133" xlink:href="#d" y1="167.73" y2="150.38"/><radialGradient id="I" cx="159.61" cy="72.588" gradientTransform="matrix(1.2125 0 0 .83915 -46.348 24.528)" gradientUnits="userSpaceOnUse" r="38.417"><stop offset="0" stop-color="#fff"/><stop offset=".5" stop-color="#fff" stop-opacity=".9305"/><stop offset="1" stop-color="#fff" stop-opacity="0"/></radialGradient><radialGradient id="J" cx="159.61" cy="72.588" gradientTransform="matrix(1.2125 0 0 .83915 -45.92 25.814)" gradientUnits="userSpaceOnUse" r="38.417" xlink:href="#n"/><linearGradient id="K" gradientUnits="userSpaceOnUse" x1="126.64" x2="179.96" xlink:href="#n" y1="19.815" y2="127.2"/><linearGradient id="L" gradientTransform="matrix(-.50295 .1984 .1972 -.43254 276.16 123.42)" gradientUnits="userSpaceOnUse" x1="126.64" x2="179.96" xlink:href="#n" y1="29.815" y2="137.2"/><filter id="M"><feGaussianBlur stdDeviation="4.2868936"/></filter><clipPath id="N"><path d="m9 12.25s7.5 13 11.75 27.75 6.25 25.5 6.25 25.5-5.5 12.75-8.25 24.75-5.75 23-5.75 23 5.75 16 9.25 30 3.75 24.25 3.75 24.25-4 10.25-7.5 24.25-5 30.75-5 30.75 9.25-2 28.5 1.25 32.25 6 32.25 6 12.75-2.75 24-6.25 16.25-6.5 16.25-6.5 5.5.5 22.5 6.25 29.25 8.5 29.25 8.5 13-2.75 26-5.75 26.5-8 26.5-8-.75-5 4.25-24.5 8.75-28 8.75-28-.5-4.5-3.75-19.75-10-29.75-10-29.75 1.75-10.5 6.75-23.75 10.25-26.75 10.25-26.75-4.75-15.25-7.5-29.75-8.25-25.75-8.25-25.75-24.25 9-31.75 10.5-21 5.25-21 5.25-9.75-4.25-22-8.5-29.75-5.5-29.75-5.5-3.25 3.5-22 8-27.5 5.75-27.5 5.75-18.5-9-31.5-11.5-24-2-24.75-1.75z"/></clipPath><clipPath id="O"><path d="m9 12.25s7.5 13 11.75 27.75 6.25 25.5 6.25 25.5-5.5 12.75-8.25 24.75-5.75 23-5.75 23 5.75 16 9.25 30 3.75 24.25 3.75 24.25-4 10.25-7.5 24.25-5 30.75-5 30.75 9.25-2 28.5 1.25 32.25 6 32.25 6 12.75-2.75 24-6.25 16.25-6.5 16.25-6.5 5.5.5 22.5 6.25 29.25 8.5 29.25 8.5 13-2.75 26-5.75 26.5-8 26.5-8-.75-5 4.25-24.5 8.75-28 8.75-28-.5-4.5-3.75-19.75-10-29.75-10-29.75 1.75-10.5 6.75-23.75 10.25-26.75 10.25-26.75-4.75-15.25-7.5-29.75-8.25-25.75-8.25-25.75-24.25 9-31.75 10.5-21 5.25-21 5.25-9.75-4.25-22-8.5-29.75-5.5-29.75-5.5-3.25 3.5-22 8-27.5 5.75-27.5 5.75-18.5-9-31.5-11.5-24-2-24.75-1.75z"/></clipPath><clipPath id="P"><path d="m9 12.25s7.5 13 11.75 27.75 6.25 25.5 6.25 25.5-5.5 12.75-8.25 24.75-5.75 23-5.75 23 5.75 16 9.25 30 3.75 24.25 3.75 24.25-4 10.25-7.5 24.25-5 30.75-5 30.75 9.25-2 28.5 1.25 32.25 6 32.25 6 12.75-2.75 24-6.25 16.25-6.5 16.25-6.5 5.5.5 22.5 6.25 29.25 8.5 29.25 8.5 13-2.75 26-5.75 26.5-8 26.5-8-.75-5 4.25-24.5 8.75-28 8.75-28-.5-4.5-3.75-19.75-10-29.75-10-29.75 1.75-10.5 6.75-23.75 10.25-26.75 10.25-26.75-4.75-15.25-7.5-29.75-8.25-25.75-8.25-25.75-24.25 9-31.75 10.5-21 5.25-21 5.25-9.75-4.25-22-8.5-29.75-5.5-29.75-5.5-3.25 3.5-22 8-27.5 5.75-27.5 5.75-18.5-9-31.5-11.5-24-2-24.75-1.75z"/></clipPath><linearGradient id="Q" gradientUnits="userSpaceOnUse" x1="210.17" x2="9" xlink:href="#c" y1="264.064" y2="-21.25"/><clipPath id="R"><path d="m123.62 141.06c20.832 20.243 54.607 19.289 75.439-2.132s20.832-55.196 0-75.439-54.607-19.289-75.439 2.132-20.832 55.196 0 75.439z"/></clipPath><filter id="S"><feGaussianBlur stdDeviation="6.3109704"/></filter><filter id="T"><feGaussianBlur stdDeviation="4.4575"/></filter><linearGradient id="U" gradientUnits="userSpaceOnUse" x1="122" x2="122" xlink:href="#c" y1="245.45" y2="4.302"/><clipPath id="V"><path d="m9 22.578s7.5 12.393 11.75 26.8c4.25 14.406 6.25 24.995 6.25 24.995s-5.5 13.195-8.25 25.417c-2.75 12.22-5.75 23.46-5.75 23.46s5.75 15.535 9.25 29.252 3.75 23.947 3.75 23.947-4 10.574-7.5 24.857-5 31.154-5 31.154 9.25-2.7481 28.5-1.055 32.25 3.3917 32.25 3.3917 12.75-3.7812 24-8.1911 16.25-7.8143 16.25-7.8143 5.5.0552 22.5 4.4302c17 4.3751 29.25 6.1343 29.25 6.1343s13-3.8014 26-7.8528 26.5-10.143 26.5-10.143-.75-4.9393 4.25-24.844c5-19.904 8.75-28.708 8.75-28.708s-.5145-4.4553-3.75-19.447c-1.75-8.1085-2.25-4.068-2.25-4.068s16.264-26.155 16.5-40.334c.25-15.02-7.25-36.413-7.25-36.413s-4.75-14.866-7.5-29.143c-2.75-14.278-8.25-25.083-8.25-25.083s-24.25 10.961-31.75 13.068c-7.5 2.1066-21 6.9484-21 6.9484s-9.75-3.4614-22-6.7207c-12.25-3.2592-29.75-3.0939-29.75-3.0939s-3.25 3.7629-22 9.7793c-18.75 6.0165-27.5 7.9741-27.5 7.9741s-18.5-7.5038-31.5-8.9524-24-.05894-24.75.25172z"/></clipPath><path d="m174.28 35.875c-17.6 0-35.19 6.639-48.72 19.906-.16.164-.33.303-.5.469-22.05 22.056-26.206 55.25-12.47 81.5l-2.28 1.63c2.25 4.23 4.94 8.3 8.1 12.12l-13.32 13.34c-1.34-.58-2.78-1.03-4.56-1.37l-2.842 2.84c-1.11-.48-2.139-.81-3.063-.87l-64.125 64.12c-.037 1.1.226 2.19.656 3.28l-.531.54-1.094 1.09c.716 3.74 2.011 6.82 5.469 10.28s6.42 4.63 10.281 5.47l1.094-1.1.719-.71c1.088.46 2.13.78 3.094.84l64.122-64.13c-.24-.97-.62-1.93-1.03-2.9l3-3c-.25-1.73-.68-3.2-1.31-4.6l13.28-13.28c3.82 3.16 7.89 5.85 12.13 8.1l1.62-2.28c26.25 13.74 59.44 9.58 81.5-12.47.17-.17.31-.34.47-.5 26.69-27.22 26.55-70.923-.47-97.94-13.59-13.59-31.41-20.375-49.22-20.375zm-.5 3.281c.11.002.21-.002.31 0 .95.019 1.9.066 2.85.125.96.061 1.92.148 2.87.25.1.01.19.021.28.031.1.011.19.021.29.032.14.017.29.044.43.062.9.11 1.8.228 2.69.375.62.102 1.23.224 1.84.344.35.066.69.116 1.04.187.72.153 1.43.324 2.15.5.31.077.63.138.94.219.07.019.14.043.22.063.95.253 1.89.516 2.84.812.07.023.15.04.22.063.95.3 1.91.625 2.84.969.06.019.11.042.16.062.95.352 1.9.728 2.84 1.125.06.022.11.041.16.063.94.4 1.88.836 2.81 1.281.04.02.09.042.13.062.93.451 1.86.91 2.78 1.407.03.017.06.044.09.062.93.503 1.84 1.013 2.75 1.562.03.02.06.044.1.063.9.551 1.8 1.122 2.68 1.719.55.369 1.09.769 1.63 1.156.36.261.73.512 1.09.781.02.014.05.018.06.031.88.656 1.75 1.36 2.6 2.063 1.74 1.434 3.43 2.963 5.06 4.594 1.62 1.62 3.14 3.3 4.56 5.031.01.011.03.02.03.031.71.855 1.41 1.715 2.07 2.594.28.379.54.773.81 1.156.37.517.74 1.038 1.09 1.563.02.024.05.038.07.062.59.89 1.16 1.778 1.71 2.688.02.032.05.061.07.094.54.902 1.06 1.829 1.56 2.75.02.032.04.06.06.093.5.921.96 1.844 1.41 2.781l.06.126c.45.929.88 1.868 1.28 2.812.02.051.04.105.06.156.4.936.78 1.895 1.13 2.844.02.053.04.104.06.156.35.949.67 1.885.97 2.844.02.072.04.147.06.219.3.941.56 1.894.82 2.843.02.074.04.146.06.219.08.31.14.627.22.938.17.72.35 1.432.5 2.156.07.342.12.688.18 1.031.12.617.25 1.225.35 1.844.15.893.26 1.791.37 2.688.02.145.05.291.07.437.01.093.02.188.03.281.01.094.02.187.03.282.1.952.19 1.912.25 2.872.06.94.11 1.9.12 2.85.01.1 0 .2 0 .31.02 1.05.01 2.1-.03 3.15-.03.94-.08 1.86-.15 2.79-.01.12-.02.25-.04.37-.07.92-.16 1.84-.28 2.75-.12.96-.27 1.93-.43 2.88-.02.08-.02.16-.04.25-.02.12-.03.25-.06.37-.16.91-.36 1.82-.56 2.72-.03.13-.06.27-.09.41-.21.88-.45 1.77-.69 2.65-.17.59-.35 1.17-.53 1.75-.18.57-.34 1.13-.53 1.69-.3.86-.61 1.71-.94 2.56-.06.16-.13.32-.19.47-.04.11-.08.23-.12.34-.36.88-.73 1.73-1.13 2.6-.38.82-.77 1.63-1.19 2.44-.08.15-.16.31-.25.46-.41.8-.83 1.6-1.28 2.38-.09.17-.18.34-.28.5-.2.34-.42.66-.62 1-.37.59-.75 1.17-1.13 1.75 0 .01.01.02 0 .03-.49.75-1 1.49-1.53 2.22-.46.64-.95 1.25-1.44 1.87-.19.26-.36.53-.56.79-.13.16-.27.33-.41.5-.16.2-.33.39-.5.59-.55.67-1.13 1.32-1.72 1.97-.6.67-1.23 1.35-1.87 2-.16.16-.31.34-.47.5-21.13 21.13-52.26 24.49-77.19 11.15l.13-.18c-3.71-1.9-7.26-4.14-10.63-6.78-.54-.43-1.06-.87-1.59-1.32-.51-.43-1.03-.86-1.53-1.31-.09-.08-.19-.16-.28-.25-.82-.75-1.61-1.52-2.41-2.31-.79-.8-1.56-1.59-2.31-2.41-.09-.09-.17-.19-.25-.28-.45-.5-.88-1.02-1.31-1.53-.45-.53-.89-1.05-1.32-1.59-2.64-3.37-4.88-6.92-6.78-10.63l-.19.13c-13.33-24.93-9.97-56.061 11.16-77.191.16-.163.34-.308.5-.469.65-.64 1.33-1.269 2-1.875.65-.588 1.3-1.162 1.97-1.719.27-.227.54-.465.81-.687.35-.278.72-.512 1.06-.782.63-.483 1.24-.98 1.88-1.437.74-.53 1.5-1.036 2.25-1.531.58-.383 1.16-.764 1.75-1.125.45-.274.89-.551 1.34-.813.69-.395 1.37-.757 2.07-1.125.17-.093.35-.189.53-.281.94-.491 1.88-.966 2.84-1.406.87-.397 1.72-.769 2.59-1.125.16-.062.32-.096.47-.157.97-.384 1.93-.758 2.91-1.093.56-.192 1.12-.356 1.69-.532.58-.181 1.16-.367 1.75-.531.88-.246 1.77-.48 2.65-.687.07-.017.15-.015.22-.032.42-.095.84-.193 1.25-.281.67-.141 1.36-.287 2.03-.406.09-.015.17-.017.25-.031.95-.164 1.92-.317 2.88-.438 1.96-.247 3.93-.401 5.9-.469 1.06-.035 2.11-.046 3.16-.031z" fill="#2d3335" filter="url(#S)" opacity=".7" transform="matrix(1 .068641 0 .8487 0 26.913)"/><path d="m9 17.25s7.5 11 11.75 25.75 6.25 25.5 6.25 25.5-5.5 12.75-8.25 24.75-5.75 25-5.75 25 5.75 16 9.25 30 3.75 22.25 3.75 22.25-4 10.25-7.5 24.25-5 30.75-5 30.75 9.25-2 28.5 1.25 32.25 6 32.25 6 12.75-2.75 24-6.25 16.25-6.5 16.25-6.5 5.5.5 22.5 6.25 29.25 8.5 29.25 8.5 13-2.75 26-5.75 26.5-8 26.5-8-.75-5 4.25-24.5 8.75-28 8.75-28-.5-2.5-3.75-17.75-10-29.75-10-29.75 1.75-12.5 6.75-25.75 10.25-26.75 10.25-26.75-4.75-15.25-7.5-29.75-8.25-23.75-8.25-23.75-24.25 9-31.75 10.5-21 5.25-21 5.25-9.75-4.25-22-8.5-29.75-5.5-29.75-5.5-3.25 3.5-22 8-27.5 5.75-27.5 5.75-18.5-9-31.5-11.5-24-2-24.75-1.75z" fill="url(#U)" filter="url(#T)" opacity=".5" transform="matrix(1 0 0 .84657 0 27.66)"/><path d="m9 2.25s7.5 13 11.75 27.75 6.25 25.5 6.25 25.5-5.5 12.75-8.25 24.75-5.75 23-5.75 23 5.75 16 9.25 30 3.75 24.25 3.75 24.25-4 10.25-7.5 24.25-5 30.75-5 30.75 9.25-2 28.5 1.25 32.25 6 32.25 6 12.75-2.75 24-6.25 16.25-6.5 16.25-6.5 5.5.5 22.5 6.25 29.25 8.5 29.25 8.5 13-2.75 26-5.75 26.5-8 26.5-8-.75-5 4.25-24.5 8.75-28 8.75-28-.5-4.5-3.75-19.75-10-29.75-10-29.75 1.75-10.5 6.75-23.75 10.25-26.75 10.25-26.75-4.75-15.25-7.5-29.75-8.25-25.75-8.25-25.75-24.25 9-31.75 10.5-21 5.25-21 5.25-9.75-4.25-22-8.5-29.75-5.5-29.75-5.5-3.25 3.5-22 8-27.5 5.75-27.5 5.75-18.5-9-31.5-11.5-24-2-24.75-1.75z" fill="#ceeeab"/><g clip-path="url(#z)" transform="translate(0 -10)"><path d="m110.75 5.5-4.25 7c-.75 9-2.25 13.75-8.5 16.5s-12.25 3.5-11 7.5 13 9.25 14.25 13 8.25 1.75 11 7 2 15.25-3.75 17.25-17.5.5-20.25 9.5-4.75 10.5-9 12.75-7.25 10.5-3.5 16.5 12.25-1.25 15-6.5 7.25-8.75 7.25-8.75h23.75l59-1.75 3.25-3.75s3.25 4 2.75 8.75-3.75 14.75.25 17.25 19.5-2 24-7-4.75-28.25-10.5-29.5-18.5-1.75-17-7 11.75 4.5 17.25 3.25 16.75-21 12-25.25-24.25-5.25-25.75-8 21-8 22.25-11-2.5-7.25-6.25-8.5-14 16.25-21 15.75-20 5.75-17.25 11.5-6 11-14.5 6.5-24.75-13-21.75-24 21.5-18.75 21.5-18.75zm-13.562 107.22c-1.595.15-4.469 4.69-4.938 7.03-.5 2.5-3.25 6.75-3.5 12.25s4.75 6.75 8.75 6.5 2.75-6.75 2-15c-.25 0-.5-10.25-2-10.75-.094-.03-.206-.04-.312-.03zm92.722 51.66c-6.34.29-6.63 7.46-7.41 8.87-1.25 2.25 2.25 13.75 2 18s-4.75 5.25-9.5 9.75.5 16 11.25 31l44.75 1.25-1-35s4.75-4.25-20.75-24.25c-9.56-7.5-15.54-9.8-19.34-9.62zm-149.97 16.53c-4.03-.11-8.282 5.71-9.688 7.59-1.5 2-6.25 5-17 9.5l-14.5 34.25 53 4.25s1.75-11-4.25-15.75-17.25-5.75-18.25-13.25 9.25-10 13.75-14.25 2-11.25-2.25-12.25c-.266-.06-.544-.09-.812-.09z" fill="#a6dd8b"/></g><path d="m158.53 75.344c-4.76-.015-9.03.968-11.53 3.156-8 7-35 .75-48.5 7s-13.25 38-14.75 44.5-17.5 20.75-20 23.5-13.25 7.25-19.5 8.5-12.75 7.25-15.5 11c-2.021 2.76-7.406 6.45-10.125 8.22-.046.18-.079.35-.125.53-.134.53-.247 1.08-.375 1.63 4.98-1.61 11.18-8.18 16.625-13.63 6.25-6.25 20-7.75 27.75-11.5s14.25-19.75 26.5-23.75 21.25 11.75 24.25 18.5 1.75 12.75 3.75 17 11 11.75 11.5 13.5-5 6.5-6.25 8.5-10.5 7-11.75 8.75c-.97 1.35-1.92 6.77-2.31 9.22.41-.17.75-.31 1.12-.47.49-2.53 1.52-7.08 2.94-8.5 2-2 11.25-4.5 12.5-8.5s7-6.5 7-6.5 2.75 4 16 14c8.83 6.67 12.76 15.53 14.41 20.72.67.17 1.53.41 2.03.53-1.22-4.32-4.84-16.24-8.94-20.75-5-5.5-18.5-10.75-22.75-22s-24.5-34.25-17.5-40.25 16.5-4 28.5 7.5 46.25 5.75 57.75 3.75c9.95-1.73 20.83 14.88 23.91 26.03.59-2.09 1.12-4 1.65-5.75-1.74-1.92-3.69-4.62-5.31-8.28-3.75-8.5-12-13.25-12-13.25s8.75-5 14.75-7.75c1.62-.74 3.01-1.68 4.19-2.66-.16-.77-.26-1.25-.44-2.09-.03-.15-.06-.29-.09-.44-4.77 5.56-19.24 9.62-21.66 10.94-2.75 1.5-18.25 3-35.75 4.5s-26.75-7.5-34.25-14.75-13-36-3-38 20 13.75 30 17 21.5-15.75 19.75-27c-1.2-7.734-14-12.625-24.47-12.656zm-53.34 13.281c1.27.001 5.86 1.594 6.56 2.375 2.25 2.5 2 7.25 0 8s-12.75 8-10.5 14.25 1.75 18-3.5 18-8 0-10-2.5-2-12 0-19.75 3.5-15 8-18.25c3.094-2.234 6.63-2.128 9.44-2.125zm13.59 73.095c.2.01 1.91 3.51 4.72 7.03 3 3.75 3.25 8.25 3.25 8.25s-4.25-4.75-6-8-2-7.25-2-7.25c0-.03.02-.03.03-.03z" fill="#aac3e7"/><g fill="none"><g stroke="#6d7f42"><path d="m122.75 62.25c6.25.5 12.25-2.25 10.75-6.5s-12.5-7.25-13.25-3 2 10.5 2.5 9.5z" opacity=".38696" stroke-linecap="round" stroke-linejoin="round"/><path d="m108.75 46.75c-8.5-5.5-8.5-7.25-7-8s10.25 5 12.75 8-2.25 2-5.75 0z" opacity=".38696" stroke-linecap="round" stroke-linejoin="round"/><g clip-path="url(#x)" transform="translate(0 -10)"><path d="m15.75 151.25c33-2.5 38.25-3.5 36.25-10.25s-8.75-23.5-23-22.5-22.75-6.75-22.75-6.75" opacity=".38696" stroke-linecap="round" stroke-linejoin="round"/><path d="m17.5 177.25c18.25-10 28.75-8.5 35-11.5s13.25-5.75 15.75-9.5 5.75-11.5 5.75-18-3.5-36 3.25-43.5 17.25-26 26-23.25 12.25 9.75 22 9.5 21.75-4 24.25-12.25-15.75-16-16-23 5.5-14.25 20.25-17 23.5-11.5 23.5-11.5" opacity=".38696"/><g stroke-linecap="round" stroke-linejoin="round"><path d="m14.5 161c15.25-1.5 22.25 3.5 31.5 1.75s13.25-3 17.75-5.75 6-3.75 6.25-6.5 1-12.5-3-22-12.5-31.5-8.25-38.75 5.25-21.5 15.75-24.5 21-6.25 27.75-1.25 12.75 14.25 20 14.5 11.75-1.5 14.5-4.5 4.5-10.25 1.75-13.75-15.5-5.5-17.25-9.5-10.75-17-.25-26.75 36.25-8.25 36.25-8.25" opacity=".38696"/><path d="m21.25 159c13.75 1 21.5 4.25 33.5-.5s13.5-5.25 13.75-8.75-.25-15.75-3-20-13-13.75-15.75-24.25.25-41 8.5-48.25 32-7.25 37.5-10.5 5.25-16.75 13-24.5 27-12.25 27-12.25" opacity=".38696"/><path d="m190 18.5c11.75 5 39 9.75 47.25 40.25" opacity=".38696"/><path d="m9.75 214c19-12.5 36-1.25 49-4s38.25-37.25 46-37 5.5-11.75 8.5-13.25 5.5 6 11.75 8 24.5-2.75 23.5-5.75-7-7.75-5.5-8.5 8.5 5 12.75 3.5 43.75-1 48.5-13.5 21.5-13.5 21.5-13.5" opacity=".38696"/><path d="m77.5 233.5c13.5-11.5 23.25-25 28.5-27s12.75-3.75 15.75-8 2.5-10.75 5.25-12 3.75 5.75 8.75 6 36.75-5 42.75-11.75 32.25-12.5 32.5-14.5-1-4.75.25-5.5 24.75-6 24.75-6" opacity=".38696"/><path d="m168.75 236c9-13.75 20.5-41 29.5-42s10.25-2.5 12.5-4.25 17 2.25 17 2.25" opacity=".38696"/></g></g></g><g clip-path="url(#y)" stroke="#d38484" stroke-linecap="round" stroke-width="2" transform="translate(0 -10)"><path d="m57.75 20-8.5 28.25 18 6.25 7.75 36.25-21 22.25 9 10.5-12 11.5.5 4.5 20.25 24.5 14-6.75 20.5 18.5-10.5 28.25 10.25 8.5-2.75 13"/><path d="m105.75 212.25 12.5-27.75 11-7 27.5 15.75 20.5-3.75-.25-15.75-10.25-6 12.75-26.25 5.75-3.75 38.75-10"/></g></g><path d="m9-189.75s7.5 13 11.75 27.75 6.25 25.5 6.25 25.5-5.5 12.75-8.25 24.75-5.75 23-5.75 23 5.75 16 9.25 30 3.75 24.25 3.75 24.25-4 10.25-7.5 24.25-5 30.75-5 30.75 9.25-2 28.5 1.25 32.25 6 32.25 6 12.75-2.75 24-6.25 16.25-6.5 16.25-6.5 5.5.5 22.5 6.25 29.25 8.5 29.25 8.5 13-2.75 26-5.75 26.5-8 26.5-8-.75-5 4.25-24.5 8.75-28 8.75-28-.5-4.5-3.75-19.75-10-29.75-10-29.75 1.75-10.5 6.75-23.75 10.25-26.75 10.25-26.75-4.75-15.25-7.5-29.75-8.25-25.75-8.25-25.75-24.25 9-31.75 10.5-21 5.25-21 5.25-9.75-4.25-22-8.5-29.75-5.5-29.75-5.5-3.25 3.5-22 8-27.5 5.75-27.5 5.75-18.5-9-31.5-11.5-24-2-24.75-1.75z" fill="url(#w)" opacity=".03913" transform="translate(0 192)"/><g opacity=".26957" transform="translate(0 182)"><path d="m219.25-182s-24.25 9-31.75 10.5-21 5.25-21 5.25c4.92-1.36 11.44 45.39 14.25 52.25l-.06.28c11.81-4.07 51.21-4.77 54.31-12.78 0 0-4.75-15.25-7.5-29.75s-8.25-25.75-8.25-25.75z" fill="url(#m)"/><path d="m27-126.5s-5.5 12.75-8.25 24.75-5.75 23-5.75 23l50.625 16.281 15.781-58.911z" fill="url(#p)"/><path d="m26-24.5s-4 10.25-7.5 24.25-5 30.75-5 30.75.147-.045.438-.094c2.033-.338 11.218-1.5 28.062 1.344 19.25 3.25 32.25 6 32.25 6l1.469-52.5-.75.125z" fill="url(#q)"/><path d="m114.75-180.25s-3.25 3.5-22 8-27.5 5.75-27.5 5.75c5.182 14.7 12.03 29.27 14.25 44.75l-.094.31 48.034-3.94 1.12.26c-3.36-13.33-7.79-54.6-13.81-55.13z" fill="url(#r)"/><path d="m117.59-78.094-53.621 15.719-.344-.094-.125.469 12.25 46.5-.031.75 49.471-8.875.53.187.03-.062-8.25-54.25z" fill="url(#s)"/><path d="m128.56-125.12c.24.92.47 1.74.69 2.37l-11.66 44.656.1-.031 51.81 17.375 11.19-52.97c-.36.12-.7.25-1 .38z" fill="url(#t)"/><path d="m125.53-23.5-11.03 48.5s5.5.5 22.5 6.25c2.12.719 4.16 1.406 6.12 2.031 1.97.626 3.86 1.186 5.63 1.719 10.62 3.199 17.5 4.75 17.5 4.75l12.72-45.406c-.51.1824-1.02.3808-1.53.5622l-51.91-18.406z" fill="url(#u)"/><path d="m218-76c-15.67 6.288-31.7 11.15-48.06 15.406l-.44-.156 9.5 55-.03.0937c17.84-6.3597 35.38-13.387 52.78-20.844 0 0-.5-4.5-3.75-19.75s-10-29.75-10-29.75z" fill="url(#v)"/></g><g opacity=".043478" transform="translate(0 182)"><path d="m13.719-179.97c-1.106 0-1.972.03-2.719.06-.445.02-.855.04-1.1562.07-.0293 0-.066-.01-.0938 0-.3979.03-.6562.06-.75.09 0 0 7.5 13 11.75 27.75s6.25 25.5 6.25 25.5l51.469 5.12.937-.06.094-.31c-2.22-15.48-9.068-30.05-14.25-44.75 0 0-18.5-9-31.5-11.5-1.018-.2-2.01-.37-3-.53-.596-.1-1.167-.2-1.75-.28-.237-.04-.453-.06-.688-.1-1.306-.18-2.588-.34-3.812-.46-.735-.08-1.395-.13-2.094-.19-.685-.06-1.353-.11-2-.16-.992-.07-1.89-.12-2.781-.15-1.456-.07-2.769-.1-3.906-.1z" fill="url(#e)"/><path d="m13-78.75s5.75 16 9.25 30 3.75 24.25 3.75 24.25l48.969 9.875.75-.125.031-.75-12.25-46.5.125-.469z" fill="url(#f)"/><path d="m127.44-125.38-47.971 4h-.063l-15.781 58.911.344.094 53.621-15.719 11.66-44.656c-.22-.63-.45-1.45-.69-2.37z" fill="url(#g)"/><path d="m125.19-23.625-49.471 8.875-1.469 52.5s12.75-2.75 24-6.25 16.25-6.5 16.25-6.5l11.22-48.438z" fill="url(#h)"/><path d="m114.75-180.25c6.02.53 10.45 41.8 13.81 55.13l51.13 11.78c.3-.13.64-.26 1-.38l.06-.28c-2.81-6.86-9.33-53.61-14.25-52.25 0 0-.61-.25-1.72-.72-3.32-1.39-11.09-4.59-20.28-7.78-12.25-4.25-29.75-5.5-29.75-5.5z" fill="url(#i)"/><path d="m117.69-78.125-.1.031-.09.344 8.25 53.25-.22 1 51.91 18.406c.51-.1813 1.02-.3797 1.53-.5623l.03-.0937-9.5-55z" fill="url(#j)"/><path d="m231.75-26.5c-17.4 7.457-34.94 14.484-52.78 20.844l-12.72 45.406s13-2.75 26-5.75 26.5-8 26.5-8-.75-5 4.25-24.5 8.75-28 8.75-28z" fill="url(#k)"/><path d="m235-126.5c-3.1 8.01-42.5 8.71-54.31 12.78l-11.19 52.97.44.156c16.36-4.256 32.39-9.118 48.06-15.406 0 0 1.75-10.5 6.75-23.75s10.25-26.75 10.25-26.75z" fill="url(#l)"/></g><g clip-path="url(#R)" transform="matrix(1.2525 .035398 0 1.2525 -27.809 -48.344)"><path d="m9 12.25s7.5 13 11.75 27.75 6.25 25.5 6.25 25.5-5.5 12.75-8.25 24.75-5.75 23-5.75 23 5.75 16 9.25 30 3.75 24.25 3.75 24.25-4 10.25-7.5 24.25-5 30.75-5 30.75 9.25-2 28.5 1.25 32.25 6 32.25 6 12.75-2.75 24-6.25 16.25-6.5 16.25-6.5 5.5.5 22.5 6.25 29.25 8.5 29.25 8.5 13-2.75 26-5.75 26.5-8 26.5-8-.75-5 4.25-24.5 8.75-28 8.75-28-.5-4.5-3.75-19.75-10-29.75-10-29.75 1.75-10.5 6.75-23.75 10.25-26.75 10.25-26.75-4.75-15.25-7.5-29.75-8.25-25.75-8.25-25.75-24.25 9-31.75 10.5-21 5.25-21 5.25-9.75-4.25-22-8.5-29.75-5.5-29.75-5.5-3.25 3.5-22 8-27.5 5.75-27.5 5.75-18.5-9-31.5-11.5-24-2-24.75-1.75z" fill="#ceeeab"/><g clip-path="url(#N)"><path d="m110.75 5.5-4.25 7c-.75 9-2.25 13.75-8.5 16.5s-12.25 3.5-11 7.5 13 9.25 14.25 13 8.25 1.75 11 7 2 15.25-3.75 17.25-17.5.5-20.25 9.5-4.75 10.5-9 12.75-7.25 10.5-3.5 16.5 12.25-1.25 15-6.5 7.25-8.75 7.25-8.75h23.75l59-1.75 3.25-3.75s3.25 4 2.75 8.75-3.75 14.75.25 17.25 19.5-2 24-7-4.75-28.25-10.5-29.5-18.5-1.75-17-7 11.75 4.5 17.25 3.25 16.75-21 12-25.25-24.25-5.25-25.75-8 21-8 22.25-11-2.5-7.25-6.25-8.5-14 16.25-21 15.75-20 5.75-17.25 11.5-6 11-14.5 6.5-24.75-13-21.75-24 21.5-18.75 21.5-18.75zm-13.562 107.22c-1.595.15-4.469 4.69-4.938 7.03-.5 2.5-3.25 6.75-3.5 12.25s4.75 6.75 8.75 6.5 2.75-6.75 2-15c-.25 0-.5-10.25-2-10.75-.094-.03-.206-.04-.312-.03zm92.722 51.66c-6.34.29-6.63 7.46-7.41 8.87-1.25 2.25 2.25 13.75 2 18s-4.75 5.25-9.5 9.75.5 16 11.25 31l44.75 1.25-1-35s4.75-4.25-20.75-24.25c-9.56-7.5-15.54-9.8-19.34-9.62zm-149.97 16.53c-4.03-.11-8.282 5.71-9.688 7.59-1.5 2-6.25 5-17 9.5l-14.5 34.25 53 4.25s1.75-11-4.25-15.75-17.25-5.75-18.25-13.25 9.25-10 13.75-14.25 2-11.25-2.25-12.25c-.266-.06-.544-.09-.812-.09z" fill="#a6dd8b"/></g><path d="m158.53 85.344c-4.76-.015-9.03.968-11.53 3.156-8 7-35 .75-48.5 7s-13.25 38-14.75 44.5-17.5 20.75-20 23.5-13.25 7.25-19.5 8.5-12.75 7.25-15.5 11c-2.021 2.76-7.406 6.45-10.125 8.22-.046.18-.079.35-.125.53-.134.53-.247 1.08-.375 1.63 4.98-1.61 11.18-8.18 16.625-13.63 6.25-6.25 20-7.75 27.75-11.5s14.25-19.75 26.5-23.75 21.25 11.75 24.25 18.5 1.75 12.75 3.75 17 11 11.75 11.5 13.5-5 6.5-6.25 8.5-10.5 7-11.75 8.75c-.97 1.35-1.92 6.77-2.31 9.22.41-.17.75-.31 1.12-.47.49-2.53 1.52-7.08 2.94-8.5 2-2 11.25-4.5 12.5-8.5s7-6.5 7-6.5 2.75 4 16 14c8.83 6.67 12.76 15.53 14.41 20.72.67.17 1.53.41 2.03.53-1.22-4.32-4.84-16.24-8.94-20.75-5-5.5-18.5-10.75-22.75-22s-24.5-34.25-17.5-40.25 16.5-4 28.5 7.5 46.25 5.75 57.75 3.75c9.95-1.73 20.83 14.88 23.91 26.03.59-2.09 1.12-4 1.65-5.75-1.74-1.92-3.69-4.62-5.31-8.28-3.75-8.5-12-13.25-12-13.25s8.75-5 14.75-7.75c1.62-.74 3.01-1.68 4.19-2.66-.16-.77-.26-1.25-.44-2.09-.03-.15-.06-.29-.09-.44-4.77 5.56-19.24 9.62-21.66 10.94-2.75 1.5-18.25 3-35.75 4.5s-26.75-7.5-34.25-14.75-13-36-3-38 20 13.75 30 17 21.5-15.75 19.75-27c-1.2-7.734-14-12.625-24.47-12.656zm-53.34 13.281c1.27.001 5.86 1.595 6.56 2.375 2.25 2.5 2 7.25 0 8s-12.75 8-10.5 14.25 1.75 18-3.5 18-8 0-10-2.5-2-12 0-19.75 3.5-15 8-18.25c3.094-2.234 6.63-2.128 9.44-2.125zm13.59 73.095c.2.01 1.91 3.51 4.72 7.03 3 3.75 3.25 8.25 3.25 8.25s-4.25-4.75-6-8-2-7.25-2-7.25c0-.03.02-.03.03-.03z" fill="#aac3e7"/><g fill="none"><g stroke="#6d7f42"><path d="m122.75 72.25c6.25.5 12.25-2.25 10.75-6.5s-12.5-7.25-13.25-3 2 10.5 2.5 9.5z" opacity=".38696" stroke-linecap="round" stroke-linejoin="round"/><path d="m108.75 56.75c-8.5-5.5-8.5-7.25-7-8s10.25 5 12.75 8-2.25 2-5.75 0z" opacity=".38696" stroke-linecap="round" stroke-linejoin="round"/><g clip-path="url(#O)"><path d="m15.75 151.25c33-2.5 38.25-3.5 36.25-10.25s-8.75-23.5-23-22.5-22.75-6.75-22.75-6.75" opacity=".38696" stroke-linecap="round" stroke-linejoin="round"/><path d="m17.5 177.25c18.25-10 28.75-8.5 35-11.5s13.25-5.75 15.75-9.5 5.75-11.5 5.75-18-3.5-36 3.25-43.5 17.25-26 26-23.25 12.25 9.75 22 9.5 21.75-4 24.25-12.25-15.75-16-16-23 5.5-14.25 20.25-17 23.5-11.5 23.5-11.5" opacity=".38696"/><g stroke-linecap="round" stroke-linejoin="round"><path d="m14.5 161c15.25-1.5 22.25 3.5 31.5 1.75s13.25-3 17.75-5.75 6-3.75 6.25-6.5 1-12.5-3-22-12.5-31.5-8.25-38.75 5.25-21.5 15.75-24.5 21-6.25 27.75-1.25 12.75 14.25 20 14.5 11.75-1.5 14.5-4.5 4.5-10.25 1.75-13.75-15.5-5.5-17.25-9.5-10.75-17-.25-26.75 36.25-8.25 36.25-8.25" opacity=".38696"/><path d="m21.25 159c13.75 1 21.5 4.25 33.5-.5s13.5-5.25 13.75-8.75-.25-15.75-3-20-13-13.75-15.75-24.25.25-41 8.5-48.25 32-7.25 37.5-10.5 5.25-16.75 13-24.5 27-12.25 27-12.25" opacity=".38696"/><path d="m190 18.5c11.75 5 39 9.75 47.25 40.25" opacity=".38696"/><path d="m9.75 214c19-12.5 36-1.25 49-4s38.25-37.25 46-37 5.5-11.75 8.5-13.25 5.5 6 11.75 8 24.5-2.75 23.5-5.75-7-7.75-5.5-8.5 8.5 5 12.75 3.5 43.75-1 48.5-13.5 21.5-13.5 21.5-13.5" opacity=".38696"/><path d="m77.5 233.5c13.5-11.5 23.25-25 28.5-27s12.75-3.75 15.75-8 2.5-10.75 5.25-12 3.75 5.75 8.75 6 36.75-5 42.75-11.75 32.25-12.5 32.5-14.5-1-4.75.25-5.5 24.75-6 24.75-6" opacity=".38696"/><path d="m168.75 236c9-13.75 20.5-41 29.5-42s10.25-2.5 12.5-4.25 17 2.25 17 2.25" opacity=".38696"/></g></g></g><g clip-path="url(#P)" stroke="#d38484" stroke-linecap="round" stroke-width="2"><path d="m57.75 20-8.5 28.25 18 6.25 7.75 36.25-21 22.25 9 10.5-12 11.5.5 4.5 20.25 24.5 14-6.75 20.5 18.5-10.5 28.25 10.25 8.5-2.75 13"/><path d="m105.75 212.25 12.5-27.75 11-7 27.5 15.75 20.5-3.75-.25-15.75-10.25-6 12.75-26.25 5.75-3.75 38.75-10"/></g></g><path d="m9 12.25s7.5 13 11.75 27.75 6.25 25.5 6.25 25.5-5.5 12.75-8.25 24.75-5.75 23-5.75 23 5.75 16 9.25 30 3.75 24.25 3.75 24.25-4 10.25-7.5 24.25-5 30.75-5 30.75 9.25-2 28.5 1.25 32.25 6 32.25 6 12.75-2.75 24-6.25 16.25-6.5 16.25-6.5 5.5.5 22.5 6.25 29.25 8.5 29.25 8.5 13-2.75 26-5.75 26.5-8 26.5-8-.75-5 4.25-24.5 8.75-28 8.75-28-.5-4.5-3.75-19.75-10-29.75-10-29.75 1.75-10.5 6.75-23.75 10.25-26.75 10.25-26.75-4.75-15.25-7.5-29.75-8.25-25.75-8.25-25.75-24.25 9-31.75 10.5-21 5.25-21 5.25-9.75-4.25-22-8.5-29.75-5.5-29.75-5.5-3.25 3.5-22 8-27.5 5.75-27.5 5.75-18.5-9-31.5-11.5-24-2-24.75-1.75z" fill="url(#Q)" opacity=".03913"/><g opacity=".26957" transform="translate(0 192)"><path d="m219.25-182s-24.25 9-31.75 10.5-21 5.25-21 5.25c4.92-1.36 11.44 45.39 14.25 52.25l-.06.28c11.81-4.07 51.21-4.77 54.31-12.78 0 0-4.75-15.25-7.5-29.75s-8.25-25.75-8.25-25.75z" fill="url(#m)"/><path d="m27-126.5s-5.5 12.75-8.25 24.75-5.75 23-5.75 23l50.625 16.281 15.781-58.911z" fill="url(#p)"/><path d="m26-24.5s-4 10.25-7.5 24.25-5 30.75-5 30.75.147-.045.438-.094c2.033-.338 11.218-1.5 28.062 1.344 19.25 3.25 32.25 6 32.25 6l1.469-52.5-.75.125z" fill="url(#q)"/><path d="m114.75-180.25s-3.25 3.5-22 8-27.5 5.75-27.5 5.75c5.182 14.7 12.03 29.27 14.25 44.75l-.094.31 48.034-3.94 1.12.26c-3.36-13.33-7.79-54.6-13.81-55.13z" fill="url(#r)"/><path d="m117.59-78.094-53.621 15.719-.344-.094-.125.469 12.25 46.5-.031.75 49.471-8.875.53.187.03-.062-8.25-54.25z" fill="url(#s)"/><path d="m128.56-125.12c.24.92.47 1.74.69 2.37l-11.66 44.656.1-.031 51.81 17.375 11.19-52.97c-.36.12-.7.25-1 .38z" fill="url(#t)"/><path d="m125.53-23.5-11.03 48.5s5.5.5 22.5 6.25c2.12.719 4.16 1.406 6.12 2.031 1.97.626 3.86 1.186 5.63 1.719 10.62 3.199 17.5 4.75 17.5 4.75l12.72-45.406c-.51.1824-1.02.3808-1.53.5622l-51.91-18.406z" fill="url(#u)"/><path d="m218-76c-15.67 6.288-31.7 11.15-48.06 15.406l-.44-.156 9.5 55-.03.0937c17.84-6.3597 35.38-13.387 52.78-20.844 0 0-.5-4.5-3.75-19.75s-10-29.75-10-29.75z" fill="url(#v)"/></g><g opacity=".043478" transform="translate(0 192)"><path d="m13.719-179.97c-1.106 0-1.972.03-2.719.06-.445.02-.855.04-1.1562.07-.0293 0-.066-.01-.0938 0-.3979.03-.6562.06-.75.09 0 0 7.5 13 11.75 27.75s6.25 25.5 6.25 25.5l51.469 5.12.937-.06.094-.31c-2.22-15.48-9.068-30.05-14.25-44.75 0 0-18.5-9-31.5-11.5-1.018-.2-2.01-.37-3-.53-.596-.1-1.167-.2-1.75-.28-.237-.04-.453-.06-.688-.1-1.306-.18-2.588-.34-3.812-.46-.735-.08-1.395-.13-2.094-.19-.685-.06-1.353-.11-2-.16-.992-.07-1.89-.12-2.781-.15-1.456-.07-2.769-.1-3.906-.1z" fill="url(#e)"/><path d="m13-78.75s5.75 16 9.25 30 3.75 24.25 3.75 24.25l48.969 9.875.75-.125.031-.75-12.25-46.5.125-.469z" fill="url(#f)"/><path d="m127.44-125.38-47.971 4h-.063l-15.781 58.911.344.094 53.621-15.719 11.66-44.656c-.22-.63-.45-1.45-.69-2.37z" fill="url(#g)"/><path d="m125.19-23.625-49.471 8.875-1.469 52.5s12.75-2.75 24-6.25 16.25-6.5 16.25-6.5l11.22-48.438z" fill="url(#h)"/><path d="m114.75-180.25c6.02.53 10.45 41.8 13.81 55.13l51.13 11.78c.3-.13.64-.26 1-.38l.06-.28c-2.81-6.86-9.33-53.61-14.25-52.25 0 0-.61-.25-1.72-.72-3.32-1.39-11.09-4.59-20.28-7.78-12.25-4.25-29.75-5.5-29.75-5.5z" fill="url(#i)"/><path d="m117.69-78.125-.1.031-.09.344 8.25 53.25-.22 1 51.91 18.406c.51-.1813 1.02-.3797 1.53-.5623l.03-.0937-9.5-55z" fill="url(#j)"/><path d="m231.75-26.5c-17.4 7.457-34.94 14.484-52.78 20.844l-12.72 45.406s13-2.75 26-5.75 26.5-8 26.5-8-.75-5 4.25-24.5 8.75-28 8.75-28z" fill="url(#k)"/><path d="m235-126.5c-3.1 8.01-42.5 8.71-54.31 12.78l-11.19 52.97.44.156c16.36-4.256 32.39-9.118 48.06-15.406 0 0 1.75-10.5 6.75-23.75s10.25-26.75 10.25-26.75z" fill="url(#l)"/></g></g><path clip-path="url(#V)" d="m174.28 35.875c-17.6 0-35.19 6.639-48.72 19.906-.16.164-.33.303-.5.469-22.05 22.056-26.206 55.25-12.47 81.5l-2.28 1.63c2.25 4.23 4.94 8.3 8.1 12.12l-13.32 13.34c-1.34-.58-2.78-1.03-4.56-1.37l-2.842 2.84c-1.11-.48-2.139-.81-3.063-.87l-64.125 64.12c-.037 1.1.226 2.19.656 3.28l-.531.54-1.094 1.09c.716 3.74 2.011 6.82 5.469 10.28s6.42 4.63 10.281 5.47l1.094-1.1.719-.71c1.088.46 2.13.78 3.094.84l64.122-64.13c-.24-.97-.62-1.93-1.03-2.9l3-3c-.25-1.73-.68-3.2-1.31-4.6l13.28-13.28c3.82 3.16 7.89 5.85 12.13 8.1l1.62-2.28c26.25 13.74 59.44 9.58 81.5-12.47.17-.17.31-.34.47-.5 26.69-27.22 26.55-70.923-.47-97.94-13.59-13.59-31.41-20.375-49.22-20.375zm-.5 3.281c.11.002.21-.002.31 0 .95.019 1.9.066 2.85.125.96.061 1.92.148 2.87.25.1.01.19.021.28.031.1.011.19.021.29.032.14.017.29.044.43.062.9.11 1.8.228 2.69.375.62.102 1.23.224 1.84.344.35.066.69.116 1.04.187.72.153 1.43.324 2.15.5.31.077.63.138.94.219.07.019.14.043.22.063.95.253 1.89.516 2.84.812.07.023.15.04.22.063.95.3 1.91.625 2.84.969.06.019.11.042.16.062.95.352 1.9.728 2.84 1.125.06.022.11.041.16.063.94.4 1.88.836 2.81 1.281.04.02.09.042.13.062.93.451 1.86.91 2.78 1.407.03.017.06.044.09.062.93.503 1.84 1.013 2.75 1.562.03.02.06.044.1.063.9.551 1.8 1.122 2.68 1.719.55.369 1.09.769 1.63 1.156.36.261.73.512 1.09.781.02.014.05.018.06.031.88.656 1.75 1.36 2.6 2.063 1.74 1.434 3.43 2.963 5.06 4.594 1.62 1.62 3.14 3.3 4.56 5.031.01.011.03.02.03.031.71.855 1.41 1.715 2.07 2.594.28.379.54.773.81 1.156.37.517.74 1.038 1.09 1.563.02.024.05.038.07.062.59.89 1.16 1.778 1.71 2.688.02.032.05.061.07.094.54.902 1.06 1.829 1.56 2.75.02.032.04.06.06.093.5.921.96 1.844 1.41 2.781l.06.126c.45.929.88 1.868 1.28 2.812.02.051.04.105.06.156.4.936.78 1.895 1.13 2.844.02.053.04.104.06.156.35.949.67 1.885.97 2.844.02.072.04.147.06.219.3.941.56 1.894.82 2.843.02.074.04.146.06.219.08.31.14.627.22.938.17.72.35 1.432.5 2.156.07.342.12.688.18 1.031.12.617.25 1.225.35 1.844.15.893.26 1.791.37 2.688.02.145.05.291.07.437.01.093.02.188.03.281.01.094.02.187.03.282.1.952.19 1.912.25 2.872.06.94.11 1.9.12 2.85.01.1 0 .2 0 .31.02 1.05.01 2.1-.03 3.15-.03.94-.08 1.86-.15 2.79-.01.12-.02.25-.04.37-.07.92-.16 1.84-.28 2.75-.12.96-.27 1.93-.43 2.88-.02.08-.02.16-.04.25-.02.12-.03.25-.06.37-.16.91-.36 1.82-.56 2.72-.03.13-.06.27-.09.41-.21.88-.45 1.77-.69 2.65-.17.59-.35 1.17-.53 1.75-.18.57-.34 1.13-.53 1.69-.3.86-.61 1.71-.94 2.56-.06.16-.13.32-.19.47-.04.11-.08.23-.12.34-.36.88-.73 1.73-1.13 2.6-.38.82-.77 1.63-1.19 2.44-.08.15-.16.31-.25.46-.41.8-.83 1.6-1.28 2.38-.09.17-.18.34-.28.5-.2.34-.42.66-.62 1-.37.59-.75 1.17-1.13 1.75 0 .01.01.02 0 .03-.49.75-1 1.49-1.53 2.22-.46.64-.95 1.25-1.44 1.87-.19.26-.36.53-.56.79-.13.16-.27.33-.41.5-.16.2-.33.39-.5.59-.55.67-1.13 1.32-1.72 1.97-.6.67-1.23 1.35-1.87 2-.16.16-.31.34-.47.5-21.13 21.13-52.26 24.49-77.19 11.15l.13-.18c-3.71-1.9-7.26-4.14-10.63-6.78-.54-.43-1.06-.87-1.59-1.32-.51-.43-1.03-.86-1.53-1.31-.09-.08-.19-.16-.28-.25-.82-.75-1.61-1.52-2.41-2.31-.79-.8-1.56-1.59-2.31-2.41-.09-.09-.17-.19-.25-.28-.45-.5-.88-1.02-1.31-1.53-.45-.53-.89-1.05-1.32-1.59-2.64-3.37-4.88-6.92-6.78-10.63l-.19.13c-13.33-24.93-9.97-56.061 11.16-77.191.16-.163.34-.308.5-.469.65-.64 1.33-1.269 2-1.875.65-.588 1.3-1.162 1.97-1.719.27-.227.54-.465.81-.687.35-.278.72-.512 1.06-.782.63-.483 1.24-.98 1.88-1.437.74-.53 1.5-1.036 2.25-1.531.58-.383 1.16-.764 1.75-1.125.45-.274.89-.551 1.34-.813.69-.395 1.37-.757 2.07-1.125.17-.093.35-.189.53-.281.94-.491 1.88-.966 2.84-1.406.87-.397 1.72-.769 2.59-1.125.16-.062.32-.096.47-.157.97-.384 1.93-.758 2.91-1.093.56-.192 1.12-.356 1.69-.532.58-.181 1.16-.367 1.75-.531.88-.246 1.77-.48 2.65-.687.07-.017.15-.015.22-.032.42-.095.84-.193 1.25-.281.67-.141 1.36-.287 2.03-.406.09-.015.17-.017.25-.031.95-.164 1.92-.317 2.88-.438 1.96-.247 3.93-.401 5.9-.469 1.06-.035 2.11-.046 3.16-.031z" fill="#2d3335" filter="url(#M)" transform="matrix(1 .080878 0 1 0 -21.056)"/><path d="m48.01 227.46-4.807 4.55c-5.007-5.31-10.24-10.7-15.08-16.13l4.491-4.07c6.829 6.53 8.872 8.53 15.396 15.65z" fill="url(#B)"/><path d="m125.06 134.69c-27.176-27.18-27.176-71.251 0-98.431 27.18-27.18 71.25-27.18 98.43 0s27.18 71.251 0 98.431-71.25 27.18-98.43 0zm2.96-2.96c26.09 26.1 67.41 27.08 93.5.99 26.1-26.1 25.11-67.416-.98-93.509-26.09-26.092-67.41-27.077-93.51-.984-26.09 26.093-25.11 67.413.99 93.503z" fill="#2d3335"/><path d="m125.06 134.69c-27.176-27.18-27.176-71.251 0-98.431.17-.166.33-.329.5-.493-26.689 27.218-26.526 70.924.49 97.934 27.01 27.02 70.72 27.18 97.93.49-.16.17-.32.33-.49.5-27.18 27.18-71.25 27.18-98.43 0zm2.46-96.955c.17-.167.33-.327.5-.492 26.09-26.093 67.41-25.109 93.5.984 26.1 26.093 27.08 67.413.99 93.503l-.5.5c25.59-26.12 24.46-67.091-1.47-93.019-25.93-25.927-66.9-27.063-93.02-1.476z" fill="#9eaaac"/><path d="m127.03 132.72c26.1 26.09 68.4 26.09 94.49 0 26.1-26.1 26.1-68.4 0-94.493-26.09-26.093-68.39-26.093-94.49 0-26.09 26.093-26.09 68.393 0 94.493z" fill="#d0e9f2" fill-opacity=".47594"/><path d="m127.03 132.72c26.1 26.09 68.4 26.09 94.49 0 26.1-26.1 26.1-68.4 0-94.493-26.09-26.093-68.39-26.093-94.49 0-26.09 26.093-26.09 68.393 0 94.493z" fill="url(#G)"/><path d="m116.05 115.28-5.75 4.09c3.3 6.21 7.56 12.05 12.8 17.28 5.23 5.24 11.07 9.5 17.28 12.8l4.09-5.75c-5.92-3.04-11.49-7.01-16.45-11.97s-8.93-10.53-11.97-16.45z" fill="url(#F)"/><path d="m124.82 134.93c1.73 1.73 3.08 3.67 4.12 5.72l-26.21 26.21c-2.05-1.04-3.988-2.39-5.718-4.12-1.729-1.73-3.084-3.67-4.121-5.72l26.209-26.21c2.05 1.04 3.99 2.39 5.72 4.12z" fill="url(#E)"/><path d="m116.27 159.23-66.071 66.07c-3.984-2.19-5.832-3-9.29-6.46s-4.267-5.3-6.459-9.29l66.07-66.07c5.06 3.75 12.12 10.4 15.75 15.75z" fill="url(#D)"/><path d="m105.78 154.12c3.46 3.46 7.43 6.66 8.52 11.02l-64.101 64.1c-6.517-5.16-14.555-12.79-19.686-19.69l64.1-64.1c3.491.23 7.657 5.16 11.117 8.62z" fill="url(#C)"/><path d="m105.53 154.36c3.46 3.46 7.68 6.42 8.77 10.78l-64.101 64.1c-7.877-6.91-11.798-10.63-19.686-19.69l64.1-64.1c3.491.23 7.417 5.45 10.877 8.91z" fill="url(#H)" opacity=".59565"/><path d="m131.17 37.05c40.66-32.173 78.13-12.728 77.78 5.303s-56.57 70.357-76.37 66.117-25.45-53.389-1.41-71.42z" fill="url(#K)" opacity=".60435"/><text fill="url(#J)" font-family="Monospace" font-size="19.8" font-weight="bold" opacity=".46087" transform="matrix(.98796 -.1547 .1547 .98796 0 0)" x="99.83886" y="69.184349"><tspan x="99.83886" y="69.184349">01011001</tspan><tspan x="99.83886" y="93.934013">00110101</tspan><tspan x="99.83886" y="118.68368">10010011</tspan><tspan x="99.83886" y="143.43335"/></text><text fill="url(#I)" font-family="Monospace" font-size="19.8" font-weight="bold" transform="matrix(.98796 -.1547 .1547 .98796 0 0)" x="99.410172" y="67.898323"><tspan x="99.410172" y="67.898323">01011001</tspan><tspan x="99.410172" y="92.647987">00110101</tspan><tspan x="99.410172" y="117.39765">10010011</tspan><tspan x="99.410172" y="142.14732"/></text><path d="m219.46 129.09c-26.79 21.98-41.81 21.01-38.07 13.14 3.73-7.87 42.32-41.66 51.45-43.75 9.12-2.093 2.27 18.04-13.38 30.61z" fill="url(#L)" opacity=".76522"/></svg>