<svg height="353" width="325" xmlns="http://www.w3.org/2000/svg"><path d="m100.25 67.99952h-47.95c1.047-.933 2.105-1.85 3.175-2.75h44.775zm0 61v18.75h-80.5v-39.45c1.324-2.403 2.724-4.778 4.2-7.125v27.825z" fill="#94c061"/><path d="m19.75 108.29952v39.45h80.5v-18.75h3.7v-61h-3.7v-2.75h-44.775c1.307-1.109 2.632-2.192 3.975-3.25 2.202-1.742 4.435-3.408 6.7-5 4.153-2.919 8.412-5.585 12.775-8 9.974-5.517 20.499-9.717 31.575-12.6 12.134-3.167 24.934-4.75 38.4-4.75 9.199 0 18.083.75 26.649 2.25 3 .5 6 1.117 9 1.85 24.967 6 47.217 18.583 66.75 37.75.334.333.667.667 1 1 21.334 21.367 34.717 45.983 40.15 73.85.2 1.167.416 2.351.649 3.551 1.4 8.3 2.101 16.85 2.101 25.649v.45c0 22.934-4.601 43.967-13.8 63.1-4.601 9.434-10.284 18.417-17.051 26.95-2 2.4-4.033 4.783-6.1 7.15-1.934 2.133-3.917 4.217-5.95 6.25-3.5 3.5-7.066 6.8-10.7 9.899-4.833 4.034-9.833 7.717-15 11.051-5.333 3.399-10.833 6.416-16.5 9.05-.533.2-1.033.416-1.5.649-17.466 7.867-36.483 11.967-57.05 12.301-.533 0-1.05 0-1.55 0-.366 0-.733 0-1.1 0-40.434 0-74.934-14.317-103.5-42.95-.467-.467-.917-.917-1.35-1.351-27.7-28.3-41.55-62.333-41.55-102.1 0-.167 0-.316 0-.45.042-14.928 2.042-29.053 6-42.375.517-1.738 1.067-3.464 1.65-5.175 2.562-7.495 5.762-14.728 9.602-21.699z" fill="#658d38"/><path d="m91.3 117.19952c-.614-.905-1.206-1.821-1.775-2.75.907-1.061 1.598-2.144 2.075-3.25 1.167-2.333 1.75-4.9 1.75-7.7 0-1.033-.083-2.033-.25-3-.368-2.332-1.21-4.482-2.525-6.45.112.118.204.209.275.275l.15.175c2.9 3.256 4.35 7.09 4.35 11.5 0 1.759-.233 3.425-.7 5-.266.932-.616 1.833-1.05 2.7-.515 1.195-1.282 2.362-2.3 3.5zm-7.475 5.225c-1.841.65-3.816.975-5.925.975-2.68 0-5.146-.533-7.4-1.6-1.783-.85-3.433-2.033-4.95-3.55-.894-.895-1.669-1.836-2.325-2.825l.325.325c3.434 3.433 7.55 5.15 12.35 5.15 2.171 0 4.205-.35 6.1-1.05.588.867 1.197 1.725 1.825 2.575z" fill="#bbd89c"/><path d="m120.575 140.84952c.758-1.002 1.6-1.968 2.524-2.899 4.9-4.867 10.801-7.3 17.7-7.3 3.473 0 6.689.616 9.65 1.85-.393-.553-.81-1.095-1.25-1.625.193.112.385.229.575.35.349.262.69.537 1.024.825 1.32 1.517 2.354 3.133 3.101 4.851.1.199.199.383.3.55 1.1 2.033 1.866 4.184 2.3 6.45.063.356.121.715.175 1.074-3.332.468-6.757.7-10.274.7-9.27.001-17.879-1.608-25.825-4.826zm102.55-21.8c-.209-.221-.417-.438-.625-.65-1.628-1.637-3.294-3.195-5-4.675 2.639-5.218 4.613-10.71 5.925-16.475l25.851-25.775c.342.343.684.685 1.024 1.025 21.334 21.367 34.717 45.983 40.15 73.85.2 1.167.416 2.351.649 3.551 1.4 8.3 2.101 16.85 2.101 25.649v.45c0 22.934-4.601 43.967-13.8 63.1-4.601 9.434-10.284 18.417-17.051 26.95-.075.091-.15.183-.225.275l5.975-21.976c.101-.399.051-.816-.149-1.25-.167-.366-.417-.683-.75-.949-.134-.034-8.167-8.784-24.101-26.25 3.448-7.858 5.157-14.851 5.125-20.976-.005-1.372-.005-2.605 0-3.7.547-2.661.964-5.245 1.25-7.75.469-4.224.561-8.232.275-12.024.033-.367.033-.783 0-1.25-.4-2.634-.884-5.25-1.45-7.851-2.666-11.433-7.75-22.116-15.25-32.05-1.333-1.7-2.7-3.383-4.1-5.05-1.467-1.7-2.95-3.317-4.45-4.85-.455-.458-.913-.908-1.374-1.349zm-181.075 159.05 46.725-46.574c1.695 2.331 3.52 4.623 5.475 6.875.874.999 1.757 1.975 2.65 2.925l51.075 81.075c-.362 0-.721 0-1.074 0-40.434 0-74.934-14.317-103.5-42.95-.454-.453-.903-.903-1.351-1.351zm113.55-122.05c-1.316 3.908-3.649 7.324-7 10.25-.066.033-.149.117-.25.25-.1.033-.149.084-.149.15-.101.033-.167.083-.2.149-.434.367-.866.733-1.3 1.101-.101.033-.2.1-.3.2-2.434 1.8-4.9 3.017-7.4 3.649l-2.85.601c-.267 0-.517.033-.75.1-1 .1-2.034.15-3.101.15-.1 0-.2 0-.3 0s-.2 0-.3 0c-.101 0-.2 0-.3 0-.134-.067-.284-.101-.45-.101h-.25c-4.182-.275-7.89-1.476-11.125-3.6-2.517-3.904-3.775-8.338-3.775-13.3 0-2.092.226-4.092.675-6 9.717 4.448 20.358 6.682 31.926 6.699 2.441-.001 4.841-.102 7.199-.298z" fill="#7bad45"/><path d="m88.775 231.52452-46.725 46.575c-27.7-28.304-41.55-62.337-41.55-102.1 0-.167 0-.316 0-.45.089-36.006 11.589-67.339 34.5-94 1.905-2.214 3.888-4.397 5.95-6.55.805-.837 1.622-1.671 2.45-2.5 4.5-4.5 9.184-8.667 14.05-12.5.165-.13.332-.264.5-.4.336-.264.669-.522 1-.775.154-.119.304-.235.45-.35l13.15-8.95c.752-.458 1.511-.908 2.275-1.35v.025c.41-.238.818-.479 1.225-.725l1.225-.675c.469-.25.935-.5 1.4-.75 4.524-2.416 9.158-4.565 13.9-6.45 4.045-1.601 8.171-3.009 12.375-4.225 1.177-.34 2.36-.665 3.55-.975 12.141-3.167 24.94-4.75 38.4-4.75 9.199 0 18.083.75 26.649 2.25 3 .5 6 1.117 9 1.85 7.557 1.815 14.865 4.231 21.925 7.25 6.836 10.689 10.252 22.79 10.25 36.3.002 10.708-2.14 20.524-6.425 29.45-8.328-5.511-17.444-9.411-27.35-11.7-.233-.066-.45-.117-.65-.15-1.434-.333-2.916-.633-4.45-.9-.199-.033-.35-.05-.449-.05-5.301-.7-8.25-1.067-8.851-1.1h-.05c-18.967-1.267-36.134 2.783-51.5 12.15-4.233 2.567-8.316 5.55-12.25 8.95-.1.066-.167.15-.2.25-.133.1-.283.233-.45.4-.53.462-1.056.929-1.574 1.4-2.051 1.869-3.984 3.803-5.8 5.8-1.214-1.499-2.355-3.032-3.425-4.6 1.019-1.139 1.785-2.305 2.3-3.5.434-.868.784-1.768 1.05-2.7.467-1.575.7-3.241.7-5 0-4.41-1.45-8.244-4.35-11.5l-.15-.175c-.071-.066-.163-.158-.275-.275-.069-.076-.144-.159-.225-.25-.051-.051-.102-.101-.15-.15-.633-.633-1.317-1.217-2.05-1.75-2.26-1.695-4.768-2.728-7.525-3.1h-.025c-.432-.1-.898-.149-1.4-.15-.434-.066-.867-.1-1.3-.1-.333 0-.65.034-.95.1-.667 0-1.317.05-1.95.15h-.05c-.256.041-.506.091-.75.15l-2.2.6c-.44.165-.874.348-1.3.55-.117.05-.233.1-.35.15-1.731.798-3.332 1.931-4.8 3.4-.2.2-.383.417-.55.65-.062.066-.12.133-.175.2-1.904 2.117-3.179 4.5-3.825 7.15-.333 1.4-.5 2.85-.5 4.35 0 3.525.908 6.667 2.725 9.425.656.989 1.431 1.931 2.325 2.825 1.517 1.517 3.167 2.7 4.95 3.55 2.253 1.067 4.72 1.6 7.4 1.6 2.109 0 4.084-.325 5.925-.975 1.599 2.163 3.333 4.271 5.2 6.325.039-.053.081-.103.125-.15-.357.478-.708.961-1.05 1.45-.7 1-1.35 2-1.95 3-1.6 2.434-3.083 4.967-4.45 7.601-.016.033-.033.066-.05.1-1.014 2.101-1.964 4.217-2.85 6.35-.633 1.601-1.216 3.233-1.75 4.9-2.267 6.967-3.683 14.384-4.25 22.25-1.522 21.336 3.803 40.428 15.975 57.274zm160.5-160.05-25.851 25.775c1.307-5.716 1.966-11.699 1.976-17.95-.018-11.181-2.109-21.498-6.275-30.95 10.682 6.175 20.731 13.884 30.15 23.125zm-100.075 59.4c-.057-.069-.115-.136-.175-.2.254.176.504.359.75.55-.19-.121-.381-.238-.575-.35z" fill="#94c061"/><path d="m220 303.19952c-3.879 2.285-7.846 4.368-11.9 6.25-.533.2-1.033.416-1.5.649-17.453 7.864-36.47 11.956-57.05 12.275-.523.01-1.049.019-1.575.025l-51.075-81.074c.931.984 1.873 1.943 2.825 2.875 2.176 2.226 4.417 4.309 6.725 6.25 2.767 2.366 5.684 4.533 8.75 6.5 10.033 6.566 21.25 10.816 33.649 12.75h.4c5.441-.049 10.25-.207 14.425-.476 1.525-.091 2.968-.199 4.325-.324 5.1-.467 10.3-1.184 15.6-2.15l1.4 1.4v.699c.2-.03.399-.063.6-.1z" fill="#6c983d"/><path d="m201.8 23.87452c-14.804-14.35-32.604-21.525-53.399-21.525-21.301 0-39.467 7.5-54.5 22.5-3.536 3.543-6.652 7.26-9.35 11.15-2.247 3.233-4.206 6.583-5.875 10.05-.465.25-.931.5-1.4.75l-1.225.675c-.406.246-.815.487-1.225.725v-.025c3.759-9.244 9.451-17.686 17.075-25.325 15.042-15.012 33.208-22.521 54.5-22.525 21.259.003 39.392 7.512 54.399 22.525.337.337.67.678 1 1.025zm-6.1 6.075c.331.331.664.665 1 1 3.316 3.316 6.225 6.799 8.725 10.45 7.55 11.081 11.325 23.714 11.325 37.9 0 10.513-2.066 20.171-6.2 28.975-.072.155-.147.314-.225.475-.525 1.09-1.084 2.165-1.675 3.225-3.098 5.593-7.081 10.818-11.95 15.675-4.908 4.92-10.191 8.937-15.851 12.05-5.304 2.91-10.937 5.027-16.899 6.35-1.729.384-3.486.7-5.275.95-.607.085-1.216.16-1.825.225-2.757.317-5.573.476-8.449.476-10.305 0-19.788-1.983-28.45-5.95-2.097-.97-4.146-2.053-6.15-3.25l-.325.55c-.111.182-.22.365-.324.55.322-.596.673-1.18 1.05-1.75 2.078 1.124 4.203 2.124 6.375 3 7.946 3.219 16.555 4.827 25.825 4.825 3.518 0 6.942-.232 10.274-.7.526-.073 1.052-.156 1.575-.25 1.565-.254 3.106-.562 4.625-.925 11.948-2.813 22.557-8.863 31.825-18.15 5.637-5.626 10.078-11.743 13.325-18.35.096-.186.188-.369.274-.55 4.285-8.926 6.427-18.742 6.425-29.45.002-13.51-3.414-25.61-10.25-36.3-2.478-3.868-5.403-7.551-8.775-11.051zm-113.7 89.9c-6.065-8.954-9.948-18.82-11.65-29.6.117-.05.233-.1.35-.15.426-.203.859-.386 1.3-.55 1.337 10.945 4.862 20.97 10.575 30.075.549.882 1.115 1.757 1.7 2.625.852 1.233 1.744 2.45 2.675 3.65.707.909 1.44 1.809 2.2 2.7-.044.047-.086.097-.125.15-1.867-2.054-3.601-4.163-5.2-6.325-.628-.85-1.237-1.708-1.825-2.575z" fill="#e2e2e2"/><path d="m92.575 39.59952c-4.743 1.884-9.376 4.034-13.9 6.45 1.669-3.466 3.628-6.816 5.875-10.05 2.698-3.89 5.814-7.606 9.35-11.15 15.034-15 33.2-22.5 54.5-22.5 20.796 0 38.596 7.175 53.399 21.525.335.318.668.643 1 .975 7.129 7.129 12.571 14.962 16.325 23.5 4.166 9.452 6.258 19.769 6.275 30.95-.01 6.251-.669 12.234-1.976 17.95-1.312 5.765-3.286 11.257-5.925 16.475-.037.074-.07.148-.1.225-3.637 7.117-8.504 13.716-14.601 19.8-10.662 10.686-22.903 17.577-36.725 20.675-.104.029-.203.054-.3.075-2.47.547-4.986.972-7.551 1.275-.869.103-1.744.194-2.625.274-2.357.196-4.758.297-7.199.3-11.567-.018-22.209-2.251-31.926-6.699-1.929-.879-3.821-1.846-5.675-2.9.047-.277.098-.552.15-.825.015-.092.031-.184.05-.274.173-.857.39-1.69.65-2.5.388-1.194.871-2.336 1.449-3.426l.051-.125c.104-.185.213-.368.324-.55l.325-.55c2.004 1.197 4.054 2.28 6.15 3.25 8.662 3.967 18.146 5.95 28.45 5.95 2.876 0 5.692-.158 8.449-.476.609-.064 1.218-.14 1.825-.225 1.789-.25 3.547-.566 5.275-.95 5.963-1.322 11.596-3.439 16.899-6.35 5.659-3.113 10.942-7.13 15.851-12.05 4.869-4.857 8.853-10.082 11.95-15.675.591-1.061 1.149-2.135 1.675-3.225.077-.161.152-.32.225-.475 4.134-8.804 6.2-18.462 6.2-28.975 0-14.186-3.775-26.819-11.325-37.9-2.5-3.65-5.408-7.134-8.725-10.45-.336-.335-.669-.669-1-1-13.142-12.666-28.908-18.983-47.3-18.95-18.9-.033-35.034 6.617-48.4 19.95-2.754 2.768-5.228 5.651-7.419 8.651zm115.775 211.8-3.1 2.449c-.2.134-.366.25-.5.351-.267.2-.517.366-.75.5-1.134.733-2.267 1.467-3.4 2.2-.1.033-.183.083-.25.149l65.601 65.75c.133.134.316.316.55.55l1.1 1.101c1.4 1.366 3.067 2.05 5 2.05 1.634-.066 3.051-.55 4.25-1.45.301-.166.551-.383.75-.649.233-.167 1.25.399 3.051 1.699 1.767 1.334 5.116 4.817 10.05 10.45 4.866 5.533 11.833 9.533 20.899 12-5.933 1-14.783 1.7-26.55 2.101-11.121.349-19.721-2.201-25.8-7.65-1.462-1.316-2.778-2.8-3.95-4.45l-20.1-20.1h.05l-15.251-15.251-34.4-34.45-.6-.6-1.4-1.4c-5.3.967-10.5 1.684-15.6 2.15-1.357.125-2.8.233-4.325.324l33.95-33.925c.542.528 1.075 1.045 1.6 1.55 4.902 4.798 8.96 8.848 12.176 12.15-.167.066-.284.167-.351.3-.899.733-1.767 1.45-2.6 2.15zm-119.2-122.8c-.759-.891-1.493-1.791-2.2-2.7-.932-1.2-1.823-2.417-2.675-3.65-.584-.868-1.151-1.743-1.7-2.625-5.713-9.105-9.238-19.13-10.575-30.075l2.2-.6c.244-.06.494-.109.75-.15h.05c.633-.1 1.283-.15 1.95-.15.3-.066.617-.1.95-.1.434 0 .867.034 1.3.1.501 0 .968.05 1.4.15h.025c.946 7.487 3.054 14.487 6.325 21 .793 1.581 1.651 3.131 2.575 4.65.569.929 1.161 1.845 1.775 2.75 1.07 1.567 2.211 3.101 3.425 4.6-.236.257-.469.515-.7.775z" fill="#d3d3d3"/><path d="m96.9 241.32452c-.893-.95-1.776-1.926-2.65-2.925-1.955-2.252-3.78-4.544-5.475-6.875-12.172-16.847-17.497-35.938-15.975-57.275.567-7.866 1.983-15.283 4.25-22.25.534-1.667 1.117-3.3 1.75-4.9.886-2.133 1.836-4.249 2.85-6.35.017-.033.034-.066.05-.1 1.367-2.634 2.85-5.167 4.45-7.601.6-1 1.25-2 1.95-3 .342-.488.692-.972 1.05-1.45l4.875-6.025c.231-.26.464-.519.7-.775 1.816-1.997 3.75-3.931 5.8-5.8.519-.471 1.044-.938 1.574-1.4.167-.167.317-.3.45-.4.033-.1.101-.184.2-.25 3.934-3.4 8.017-6.383 12.25-8.95 15.366-9.367 32.533-13.417 51.5-12.15h.05c.601.033 3.55.4 8.851 1.1.1 0 .25.017.449.05 1.534.267 3.017.567 4.45.9.2.033.417.083.65.15 9.905 2.289 19.021 6.189 27.35 11.7-.087.181-.179.364-.274.55-7.707-4.751-16.065-8.167-25.075-10.25-.233-.066-.45-.117-.65-.15-1.434-.333-2.916-.633-4.45-.9-.199-.033-.35-.05-.449-.05-5.301-.7-8.25-1.067-8.851-1.1h-.05c-18.98-1.281-36.146 2.769-51.5 12.15-4.22 2.58-8.303 5.563-12.25 8.95-.1.066-.167.15-.2.25-.133.1-.283.233-.45.4-5.433 4.733-10.1 9.883-14 15.45-.7 1-1.35 2-1.95 3-1.6 2.434-3.083 4.967-4.45 7.601-1.034 2.133-2 4.283-2.9 6.449-.634 1.608-1.217 3.242-1.75 4.9-2.268 6.971-3.685 14.388-4.25 22.25-1.451 20.351 3.324 38.659 14.325 54.925 2.144 3.148 4.519 6.224 7.125 9.226.08.091.163.183.25.274 1.057 1.209 2.132 2.384 3.225 3.525-.952-.93-1.894-1.889-2.825-2.874zm53.9-109.275c.185.165.368.332.55.5 2.034 1.934 3.551 4.05 4.551 6.351.1.199.199.383.3.55.91 1.683 1.594 3.44 2.05 5.274-.523.094-1.049.177-1.575.25-.054-.359-.112-.718-.175-1.074-.434-2.267-1.2-4.417-2.3-6.45-.101-.167-.2-.351-.3-.55-.748-1.718-1.781-3.335-3.101-4.851zm-33.9 34.85c.853.762 1.744 1.445 2.675 2.05 3.235 2.124 6.943 3.324 11.125 3.6h.25c.166 0 .316.033.45.101h.3.3.3c1.066 0 2.101-.051 3.101-.15.233-.066.483-.1.75-.1l2.849-.601c2.5-.633 4.967-1.85 7.4-3.649.1-.101.199-.167.3-.2.434-.367.866-.733 1.3-1.101.033-.066.1-.116.2-.149 0-.066.05-.117.149-.15.101-.133.184-.217.25-.25 3.351-2.926 5.684-6.342 7-10.25.881-.08 1.756-.172 2.625-.274-1.101 4.872-3.643 9.047-7.625 12.524-.066.033-.149.117-.25.25-.1.033-.149.084-.149.15-.101.033-.167.083-.2.149-.434.367-.866.733-1.3 1.101-.101.033-.2.1-.3.2-2.434 1.8-4.9 3.017-7.4 3.649l-2.85.601c-.267 0-.517.033-.75.1-1 .1-2.034.15-3.101.15-.1 0-.2 0-.3 0s-.2 0-.3 0c-.101 0-.2 0-.3 0-.134-.067-.284-.101-.45-.101h-.25c-5.009-.33-9.343-1.98-13-4.95-.979-.805-1.912-1.705-2.799-2.7zm100.6-53.175c1.706 1.48 3.372 3.038 5 4.675.208.212.416.429.625.65-1.864-1.801-3.772-3.501-5.725-5.1.03-.076.063-.151.1-.225z" fill="#b6b6b6"/><path d="m249.475 183.47452-51.85 51.825-33.95 33.925c-4.175.269-8.983.427-14.425.476-.167 0-.3 0-.4 0-12.399-1.934-23.616-6.184-33.649-12.75-3.066-1.967-5.983-4.134-8.75-6.5-2.308-1.941-4.549-4.024-6.725-6.25-1.093-1.142-2.168-2.316-3.225-3.525-.087-.092-.17-.184-.25-.274-2.606-3.002-4.981-6.077-7.125-9.226-11.001-16.266-15.776-34.574-14.325-54.925.565-7.862 1.982-15.279 4.25-22.25.533-1.658 1.116-3.292 1.75-4.9.9-2.166 1.867-4.316 2.9-6.449 1.367-2.634 2.85-5.167 4.45-7.601.6-1 1.25-2 1.95-3 3.9-5.566 8.566-10.716 14-15.45.167-.167.317-.3.45-.4.033-.1.101-.184.2-.25 3.947-3.387 8.03-6.37 12.25-8.95 15.354-9.381 32.52-13.431 51.5-12.15h.05c.601.033 3.55.4 8.851 1.1.1 0 .25.017.449.05 1.534.267 3.017.567 4.45.9.2.033.417.083.65.15 9.01 2.083 17.368 5.499 25.075 10.25-3.247 6.607-7.688 12.724-13.325 18.35-9.269 9.287-19.877 15.336-31.825 18.15-1.519.363-3.06.671-4.625.925-.456-1.834-1.14-3.592-2.05-5.274-.101-.167-.2-.351-.3-.55-1-2.301-2.517-4.417-4.551-6.351-.182-.168-.365-.335-.55-.5-.334-.288-.676-.563-1.024-.825-.246-.19-.496-.374-.75-.55-3.474-2.444-7.615-3.87-12.426-4.275-2.301-.139-4.501.011-6.6.45-3.92.822-7.487 2.656-10.7 5.5-.233.167-.45.351-.649.551-1.766 1.505-3.249 3.154-4.45 4.949-.377.57-.728 1.154-1.05 1.75l-.051.125c-.578 1.09-1.062 2.231-1.449 3.426-.261.81-.478 1.643-.65 2.5-.019.091-.035.183-.05.274-.053.273-.104.548-.15.825-.114.75-.198 1.517-.25 2.3v.15c-.09 1.646-.04 3.246.15 4.8.082.744.199 1.478.35 2.2.834 3.666 2.601 7.066 5.3 10.2.018.016.034.032.051.05h.1c.133.155.266.306.4.45.887.994 1.819 1.895 2.8 2.699 3.657 2.97 7.991 4.62 13 4.95h.25c.166 0 .316.033.45.101h.3.3.3c1.066 0 2.101-.051 3.101-.15.233-.066.483-.1.75-.1l2.847-.601c2.5-.633 4.967-1.85 7.4-3.649.1-.101.199-.167.3-.2.434-.367.866-.733 1.3-1.101.033-.066.1-.116.2-.149 0-.066.05-.117.149-.15.101-.133.184-.217.25-.25 3.982-3.478 6.524-7.652 7.625-12.524 2.564-.304 5.081-.729 7.551-1.275.097-.021.196-.046.3-.075 13.821-3.098 26.063-9.989 36.725-20.675 6.097-6.083 10.964-12.683 14.601-19.8 1.952 1.598 3.86 3.298 5.725 5.1.461.441.919.892 1.375 1.35 1.5 1.533 2.983 3.15 4.45 4.85 1.399 1.667 2.767 3.35 4.1 5.05 7.5 9.934 12.584 20.617 15.25 32.05.566 2.601 1.05 5.217 1.45 7.851.033.467.033.883 0 1.25.284 3.789.192 7.798-.276 12.022z" fill="#a3a3a3"/><path d="m261.175 269.89952h-.024v.05c-.367.066-.75.033-1.15-.101-.192-.096-.359-.229-.5-.399-.115-.131-.216-.281-.3-.45v-.15c-.134-.333-.134-.683 0-1.05l-.05.101 6.949-25.551c.101-.399.051-.816-.149-1.25-.167-.366-.417-.683-.75-.949-.134-.034-8.167-8.784-24.101-26.25 1.967-3.834 4.051-10.117 6.25-18.851.32-1.295.612-2.57.875-3.825-.005 1.095-.005 2.328 0 3.7.032 6.125-1.677 13.117-5.125 20.976 15.934 17.466 23.967 26.216 24.101 26.25.333.267.583.583.75.949.2.434.25.851.149 1.25l-5.975 21.976-.975 3.575.05-.101c-.012.032-.02.065-.025.1zm53.775 19.45c6.564 5.904 9.681 14.588 9.35 26.051-.467 13.733-1.383 23.517-2.75 29.35-.233 1.167-.767 2.25-1.6 3.25l-.15.3c-.333.233-.649.45-.95.65-.8.533-1.666.866-2.6 1-.8.2-1.684.399-2.65.6-5.933 1-14.783 1.7-26.55 2.101-12.402.389-21.669-2.827-27.8-9.65 6.079 5.449 14.679 7.999 25.8 7.65 11.767-.4 20.617-1.101 26.55-2.101.967-.2 1.851-.399 2.65-.6.934-.134 1.8-.467 2.6-1 .301-.2.617-.417.95-.65l.15-.3c.833-1 1.366-2.083 1.6-3.25 1.367-5.833 2.283-15.616 2.75-29.35.296-10.23-2.154-18.247-7.35-24.051zm-31.125 3.225c-.357.039-.698.014-1.025-.075-.333-.2-.6-.467-.8-.8-.066-.066-.1-.15-.1-.25-.134-.334-.15-.667-.051-1l.051-.05 6.75-25.051c.1-.433.083-.85-.051-1.25 1.423 1.927 2.105 3.01 2.051 3.25l-6.75 25.051-.051.05c-.011.039-.019.081-.024.125zm-98.225-23.825c-.2.036-.399.069-.6.1v-.699z" fill="#8f8f8f"/><path d="m197.625 235.29952 51.85-51.825c-.286 2.505-.703 5.089-1.25 7.75-.263 1.255-.555 2.53-.875 3.825-2.199 8.733-4.283 15.017-6.25 18.851 15.934 17.466 23.967 26.216 24.101 26.25.333.267.583.583.75.949.2.434.25.851.149 1.25l-6.95 25.55.05-.101c-.134.367-.134.717 0 1.05v.151c.084.169.185.319.3.45.141.17.308.304.5.399.4.134.783.167 1.15.101v-.05h.024l25.325-6.65c.434-.233.833-.217 1.2.05.333.167.633.434.899.8.134.4.15.817.051 1.25l-6.749 25.05-.051.05c-.1.333-.083.666.051 1 0 .1.033.184.1.25.2.333.467.6.8.8.327.089.668.114 1.025.075.039-.01.081-.018.125-.025v.101l.1-.101 26.65-7c1.576 1.142 2.992 2.408 4.25 3.8 5.195 5.805 7.646 13.821 7.35 24.051-.467 13.733-1.383 23.517-2.75 29.35-.233 1.167-.767 2.25-1.6 3.25l-.15.3c-.333.233-.649.45-.95.65-.8.533-1.666.866-2.6 1-.8.2-1.684.399-2.65.6-21.5-21.6-32.816-32.934-33.949-34l-60.101-60.351c-.2-.101-.366-.233-.5-.4l-5.2-5.25-.149.15c-.101.066-.2.166-.3.3-3.216-3.303-7.273-7.353-12.176-12.15-.525-.505-1.058-1.022-1.6-1.55zm10.725 16.1.101.05h-.101z" fill="#dbdbdb"/><path d="m208.35 251.39952v.05h.101c.833-.7 1.7-1.417 2.6-2.15.066-.133.184-.233.351-.3.1-.134.199-.233.3-.3l.149-.15 5.2 5.25c.134.167.3.3.5.4l60.101 60.35c1.133 1.066 12.449 12.4 33.949 34-9.066-2.467-16.033-6.467-20.899-12-4.934-5.633-8.283-9.116-10.05-10.45-1.801-1.3-2.817-1.866-3.051-1.699-.199.267-.449.483-.75.649-1.199.9-2.616 1.384-4.25 1.45-1.933 0-3.6-.684-5-2.05l-1.1-1.101c-.233-.233-.417-.416-.55-.55l-65.601-65.75c.067-.066.15-.116.25-.149 1.134-.733 2.267-1.467 3.4-2.2.233-.134.483-.3.75-.5.134-.101.3-.217.5-.351z" fill="#c8c8c8"/></svg>