<svg height="129.0376pt" viewBox="0 0 129.0376 129.0376" width="129.0376pt" xmlns="http://www.w3.org/2000/svg"><path d="m19.190239 48.602339c11.67-4.52 24.16-6.44 36.58-7.48 17.49-1.16 35.32-.89 52.380001 3.48 6.78 1.97 14.02 4.38 18.71 9.960001 3.11 3.4 2.84 9.070002-.5 12.220002-5.59 5.7-13.74 7.79-21.33 9.29-7.510001 1.03-15.680001 2.64-22.820001-.73-6.45-2.97-7.72-12.55-2.62-17.330002 5.12-4.85 12.96-4.95 19.42-3.27-.35 1.08-.69 2.15-1.04 3.23-4.32-1.35-9.5-1.66-13.28 1.23-3.81 2.790002-4.11 9.210002-.42 12.210002 3.72 3.27 9.22 2.9 13.65 1.47 4.940001 1.66 10.170001-.49 14.250001-3.28 3.5-2.38 6.63-6.44 5.44-10.930002-1.47-4.73-6.02-7.51-10.31-9.370001-9.310001-3.91-19.520001-4.91-29.510001-5.45-15.54-.55-31.34.45-46.27 5.08-6.91 2.310001-14.2 5.390001-18.48 11.590003-2.68 3.91-2.38 9.55 1.08 12.91 6.1 5.95 14.75 8.05 22.86 9.69 18.07 3.09 36.66 2.58 54.72-.3.97.96 1.93 1.93 2.9 2.91-11.39 2.12-23.01 2.72-34.58 2.77-14.77-.17-29.81-1.35-43.81-6.36-5.77-2.2-11.9599994-5.1-15.0999994-10.72-2.58-4.64-.30000002-10.22 3.12-13.740002 4.19-4.14 9.4899994-6.99 14.9599994-9.080001z"/><path d="m66.080239 45.552339c2-.79 4.89.58 4.25 3.03-1.07 2.520001-5.44 2.500001-6.34-.12-.34-1.49.62-2.71 2.09-2.91z"/><path d="m36.190239 58.07234c4.67-6.15 16.83-6.12 19.45 1.910002.83 5.53.13 11.19.36 16.77-1.75-.01-3.5-.01-5.25-.01-.18-5.21.35-10.46-.26-15.64-1.94-6.150002-12.67-4.820002-13.59 1.39-.37 4.74-.05 9.51-.16 14.26-1.74 0-3.49-.01-5.23-.01 0-7.5-.01-15 0-22.500002 1.5-.01 2.99-.02 4.49-.03.09 1.28.15 2.57.19 3.86z"/><path d="m64.510239 54.24234c1.74 0 3.49-.01 5.23-.01.01 7.510002.01 15.010002 0 22.520002-1.74 0-3.49-.01-5.23-.01 0-7.5 0-15 0-22.500002z"/></svg>