<svg enable-background="new 0 0 1024 1024" height="963.95001" image-rendering="optimizeSpeed" viewBox="0 0 963.95001 963.95001" width="963.95001" xmlns="http://www.w3.org/2000/svg"><g transform="translate(-40.049994 -41.024994)"><path d="m969.65 351.3q-8.6-20.85-19.4-40.85c-4.05-7.55-8.35-15.05-12.9-22.4-19.55-31.7-43.4-61.65-71.55-89.8-92.15-92.15-203.45-138.25-333.8-138.25s-241.6 46.1-333.75 138.25-138.25 203.4-138.25 333.75 46.1 241.65 138.25 333.8 203.4 138.2 333.75 138.2 241.65-46.05 333.8-138.2c50.75-50.8 87.55-107.4 110.35-169.75 18.55-50.85 27.85-105.5 27.85-164.05 0-44.9-5.45-87.55-16.4-127.95-1.25-4.55-2.55-9.1-3.9-13.6-4.1-13.3-8.8-26.35-14.05-39.15z" fill-opacity=".098039"/><path d="m969.75 394c-1.1-4.35-2.35-9-3.65-13.6-2.5-8.75-5.35-17.6-8.45-26.35-6.45-18.25-14.15-36.05-23.15-53.65-3.8-7.4-7.95-14.95-12.3-22.4-20.3-34.5-45.8-67.2-76.35-97.75-38.95-38.95-81.35-69.7-127.5-92.35-39.3-19.3-81.45-32.55-126.15-39.7-16.25-2.6-32.8-4.4-50.05-5.35-9.7-.55-19.85-.85-30.1-.85-9.35 0-18.6.25-27.9.75-6.7.35-13.35.8-20.05 1.45-56.85 5.2-109.8 19.8-158.95 44-45.6 22.4-87.9 53.1-126.85 92.05-89.25 89.25-135.3 196.5-138.1 321.5q-.15 6.1-.15 12.25c0 130.35 46.1 241.65 138.25 333.8 85.25 85.25 186.85 131.05 304.7 137.4.35.05.75.05 1.15.1h.4c8.5.45 16.6.7 24.5.7h3c10.3 0 20.5-.3 30.1-.8 2.5-.15 4.75-.3 6.95-.45 20.2-1.45 39.9-4.05 58.7-7.7 7.95-1.55 15.8-3.3 23.4-5.15 80.8-20.3 152.15-61.6 214.65-124.1 6.1-6.1 12-12.25 17.5-18.3 39.85-43.85 69.75-91.6 89.85-143.5 9.1-23.45 16.15-47.75 21.3-73.05 5.2-25.8 8.3-52.65 9.25-80.45.2-6.05.3-12.25.3-18.5 0-.65 0-1.35 0-2 0-.35 0-.65 0-1 0-3.1-.05-6.2-.1-9.35-.85-37.2-5.55-73-14.2-107.65z" fill="#4f3663"/><path d="m974.5 612.95c3.35-16.65 5.85-33.7 7.45-51.3l-392.7-392.7-31.2 30.05-68.675-68.675-33.325 81.725 51.475 51.475-217.025 586.525 127.3 127.3c21.45 4.05 43.05 6.65 65.2 7.85.35.05.75.05 1.15.1h.4c8.5.45 16.6.7 24.5.7q1.5 0 3 0c10.3 0 20.5-.3 30.1-.8 2.5-.15 4.75-.3 6.95-.45 20.2-1.45 39.9-4.05 58.7-7.7 7.95-1.55 15.8-3.3 23.4-5.15 80.8-20.3 152.15-61.6 214.65-124.1 6.1-6.1 12-12.25 17.5-18.3 39.85-43.85 69.75-91.6 89.85-143.5 9.1-23.45 16.15-47.75 21.3-73.05z" fill-opacity=".2"/><path d="m433.05 252.05v13.4c-1.7 42.05-20 72.8-54.85 92.2-3.05 1.45-6.1 3-9.15 4.65-26.75 14.2-51.7 32.85-74.8 55.95-60.15 60.15-90.2 132.75-90.2 217.8s30.05 157.65 90.2 217.8 132.75 90.2 217.8 90.2h4.1v-.025-64.4.025c-1.35 0-2.75 0-4.1 0-64.85 0-120.2-22.95-166.05-68.8s-68.75-101.15-68.75-166 22.9-120.2 68.75-166.05 101.2-68.75 166.05-68.75c1.35 0 2.75 0 4.1.05v-.025-144.45.025c-28.7-2.2-56.4-7.8-83.1-13.6z" fill="#fdfcdf"/><path d="m516.15 410.1c-1.35-.05-2.75-.05-4.1-.05-64.85 0-120.2 22.9-166.05 68.75s-68.75 101.2-68.75 166.05 22.9 120.15 68.75 166 101.2 68.8 166.05 68.8h4.1v-.025-69.975c-.4.05-.8.05-1.25.05-.95 0-1.9 0-2.85 0-7.5 0-14.8-.45-21.9-1.3-5.1-.65-10.1-1.5-15.05-2.6-29.15-6.5-54.95-21-77.5-43.55-31.6-31.6-47.4-69.75-47.4-114.4 0-44.75 15.8-82.9 47.4-114.55 22.55-22.45 48.35-36.95 77.5-43.4 4.95-1.1 9.95-1.95 15.05-2.6 7.1-.9 14.4-1.35 21.9-1.35h2.85c.45 0 .85 0 1.25.05v-.025-75.9" fill="#eaeace"/><path d="m820.05 636.05q0-127.6-90.2-217.8c-23.85-23.85-49.7-43-77.8-57.55-38.15-17.65-58.45-50.5-61-98.65-25.7 4.85-50.65 5.4-74.9 3.6v-.025 144.45 75.9 70.375 187.325 65.975 69.975 64.4.025c83.45-1 154.6-31.1 213.7-90.2 60.15-60.15 90.2-132.75 90.2-217.8z" fill="#735a93"/><path d="m512.05 485.95c-7.5 0-14.8.45-21.9 1.35-5.1.65-10.1 1.5-15.05 2.6-29.15 6.45-54.95 20.95-77.5 43.4-31.6 31.65-47.4 69.8-47.4 114.55 0 44.65 15.8 82.8 47.4 114.4 22.55 22.55 48.35 37.05 77.5 43.55 4.95 1.1 9.95 1.95 15.05 2.6 7.1.85 14.4 1.3 21.9 1.3h2.85c.45 0 .85 0 1.25-.05v-65.975.025c-.55 0-1.15 0-1.75.05-.2 0-.45 0-.7 0-.55 0-1.1 0-1.65 0-4.35 0-8.55-.25-12.7-.75-.15 0-.25 0-.4-.05-2.85-.35-5.6-.85-8.3-1.4-6.4-1.45-12.5-3.55-18.35-6.3-9.6-4.55-18.45-10.85-26.55-18.95-18.3-18.3-27.45-40.4-27.45-66.25 0-25.95 9.15-48.05 27.45-66.35 8.1-8.05 16.95-14.35 26.55-18.9 5.85-2.75 11.95-4.85 18.35-6.25 2.7-.6 5.45-1.1 8.3-1.45.15-.05.25-.05.4-.05 4.15-.55 8.35-.8 12.7-.8h1.65c.25 0 .5 0 .7.05.6 0 1.2 0 1.75.05v-70.375.025c-.4-.05-.8-.05-1.25-.05-.95 0-1.9 0-2.85 0z" fill="#d1d1b8"/><path d="m512.05 556.25c-4.35 0-8.55.25-12.7.8-.15 0-.25 0-.4.05-2.85.35-5.6.85-8.3 1.45-6.4 1.4-12.5 3.5-18.35 6.25-9.6 4.55-18.45 10.85-26.55 18.9-18.3 18.3-27.45 40.4-27.45 66.35 0 25.85 9.15 47.95 27.45 66.25 8.1 8.1 16.95 14.4 26.55 18.95 5.85 2.75 11.95 4.85 18.35 6.3 2.7.55 5.45 1.05 8.3 1.4.15.05.25.05.4.05 4.15.5 8.35.75 12.7.75h1.65.7c.6-.05 1.2-.05 1.75-.05v-.025-187.325c-.55-.05-1.15-.05-1.75-.05-.2-.05-.45-.05-.7-.05-.55 0-1.1 0-1.65 0z" fill="#bfbfa9"/><g fill="#78af52"><path d="m443.4 84.35c-.35 1.3-.7 2.6-.95 3.7q-31 121.85 65.15 161.7c18.75-62.25-.95-116-59.35-161.7-1.4-1.1-3.1-2.4-4.85-3.7z"/><path d="m524.35 249.75c-5.45-40.8 16.25-67.9 64.9-80.8-5.3 44.9-26.9 71.8-64.9 80.8"/></g></g></svg>