<svg enable-background="new 0 0 1024 1024" height="1024" image-rendering="optimizeSpeed" viewBox="0 0 1024 1024" width="1024" xmlns="http://www.w3.org/2000/svg"><path d="m969.65 351.3q-8.6-20.85-19.4-40.85c-4.05-7.55-8.35-15.05-12.9-22.4-19.55-31.7-43.4-61.65-71.55-89.8-92.15-92.15-203.45-138.25-333.8-138.25s-241.6 46.1-333.75 138.25-138.25 203.4-138.25 333.75 46.1 241.65 138.25 333.8 203.4 138.2 333.75 138.2 241.65-46.05 333.8-138.2c50.75-50.8 87.55-107.4 110.35-169.75 18.55-50.85 27.85-105.5 27.85-164.05 0-44.9-5.45-87.55-16.4-127.95-1.25-4.55-2.55-9.1-3.9-13.6-4.1-13.3-8.8-26.35-14.05-39.15z" fill-opacity=".098039"/><g fill="#4f3663"><path d="m969.75 394c-1.1-4.35-2.35-9-3.65-13.6-2.5-8.75-5.35-17.6-8.45-26.35-6.45-18.25-14.15-36.05-23.15-53.65-3.8-7.4-7.95-14.95-12.3-22.4-20.3-34.5-45.8-67.2-76.35-97.75-38.95-38.95-81.35-69.7-127.5-92.35-39.3-19.3-81.45-32.55-126.15-39.7-16.25-2.6-32.8-4.4-50.05-5.35-9.7-.55-19.85-.85-30.1-.85-9.35 0-18.6.25-27.9.75-6.7.35-13.35.8-20.05 1.45-56.85 5.2-109.8 19.8-158.95 44-45.6 22.4-87.9 53.1-126.85 92.05-89.25 89.25-135.3 196.5-138.1 321.5q-.15 6.1-.15 12.25c0 130.35 46.1 241.65 138.25 333.8 85.25 85.25 186.85 131.05 304.7 137.4.35.05.75.05 1.15.1h.4c8.5.45 16.6.7 24.5.7h3c10.3 0 20.5-.3 30.1-.8 2.5-.15 4.75-.3 6.95-.45 20.2-1.45 39.9-4.05 58.7-7.7 7.95-1.55 15.8-3.3 23.4-5.15 80.8-20.3 152.15-61.6 214.65-124.1 6.1-6.1 12-12.25 17.5-18.3 39.85-43.85 69.75-91.6 89.85-143.5 9.1-23.45 16.15-47.75 21.3-73.05 5.2-25.8 8.3-52.65 9.25-80.45.2-6.05.3-12.25.3-18.5 0-.65 0-1.35 0-2 0-.35 0-.65 0-1 0-3.1-.05-6.2-.1-9.35-.85-37.2-5.55-73-14.2-107.65z"/><path d="m686.21069 582.70555c-1.93177-1.97288-4.58283-3.08262-7.34348-3.08262-78.07933 0-82.75807 0-110.78935 53.47317-1.58926 3.02781-1.56871 6.65845.0685 9.66572 1.62352 3.00727 4.65133 5.00754 8.06276 5.32951.17811.0206 4.58283.42471 11.24814.42471 16.98866 0 48.19846-2.70585 66.26261-20.8111 7.14483-7.16538 11.54955-15.88577 13.13196-25.99676.66448-.0548 1.2947-.11645 1.87697-.15755 12.16608-1.03439 20.2083-1.71942 20.4138-11.4331.0685-2.76065-1.00014-5.43226-2.93191-7.41198z"/><path d="m464.25524 633.0961c-28.03128-53.47317-32.70316-53.47317-110.78933-53.47317-2.76066 0-5.41171 1.10974-7.34349 3.08262-1.93177 1.97972-2.99356 4.65133-2.93191 7.41198.20551 9.70683 8.24772 10.39871 20.41379 11.4331.57542.048 1.21935.1096 1.87697.15755 1.58926 10.12469 5.99398 18.83138 13.13196 25.99676 18.06415 18.1121 49.26711 20.8111 66.26261 20.8111 6.65846 0 11.05633-.41101 11.24129-.42471 3.41143-.32197 6.42555-2.32224 8.06276-5.32951s1.66462-6.63791.0754-9.66572z"/></g><path d="m797.15129 217.4905c-13.59093-13.58407-39.06021-13.17991-73.6746 1.1577-62.37168 25.8392-146.02711 96.09552-164.02961 170.83877-14.88562-1.34265-30.57958-2.13728-47.28053-2.13728-16.70779 0-32.40175.79463-47.28738 2.13728-18.00249-74.7501-101.65793-145.00642-164.03644-170.84562-34.60754-14.33076-60.07683-14.74177-73.65405-1.15085-23.70192 23.70192-27.39421 88.48488-23.35941 136.76556 4.89794 58.54236 20.78371 109.24118 43.34163 139.93721-2.6305 30.36723-10.88507 146.02025 12.20717 183.3953 24.93497 40.34806 122.90061 82.19633 149.8838 93.1362-.26031 19.11909.63023 62.87173 13.22101 80.33991 17.49558 24.27049 67.85188 34.77194 89.68367 34.77194 21.83865 0 72.2018-10.50145 89.68367-34.77194 12.60449-17.47503 13.42652-61.54963 13.13881-80.79888 27.0654-10.86452 125.03105-52.33602 149.97286-92.67038 23.09909-37.37505 14.83767-153.06232 12.20717-183.40215 51.76061-70.63993 59.69321-236.99177 19.98223-276.70277zm-45.0405 289.08805c1.57556 1.57556 3.56899 2.34964 5.60352 2.69216 3.32923 47.56824 5.55557 131.94295-10.248 157.50814-18.14635 29.36709-92.19772 64.598-132.54578 81.3332v-45.42411c0-5.67202-4.60338-10.2754-10.2754-10.2754s-10.2754 4.60338-10.2754 10.2754v58.71362 6.85026 5.61722c0 .30141.0685.58912.0891.88369.007 24.18828-2.55515 54.95967-9.27526 64.28973-8.48748 11.78246-34.51164 21.01662-55.95297 24.60615 10.82342-10.00138 21.914-25.61999 21.914-38.9369 0-21.53038-17.44763-28.80537-38.97116-28.80537s-38.97801 7.27499-38.97801 28.80537c0 13.31006 11.12483 28.94237 21.94825 38.9369-21.44133-3.57583-47.48603-12.81684-55.98036-24.60615-6.68586-9.27526-9.29581-39.62878-9.35061-63.59101.0685-.51377.1507-1.04124.1507-1.58241v-9.30951c0-.1233 0-.25346 0-.37676 0-.0274 0-.0548 0-.0822v-61.41947c0-5.67202-4.59653-10.2754-10.2754-10.2754s-10.27539 4.60338-10.27539 10.2754v45.88992c-40.31381-16.87905-114.39258-52.41137-132.55948-81.79216-15.78986-25.55149-13.56353-109.9399-10.24115-157.51499 2.04138-.34252 4.03481-1.1166 5.61037-2.69216 4.01426-4.0074 4.01426-10.52201 0-14.52941-24.76371-24.77056-42.67715-76.92163-47.91075-139.50565-4.61023-55.13094 2.7127-105.81605 17.40652-120.51672 5.0966-5.0966 21.56463-6.69271 51.26053 5.61036 64.94052 26.901 154.90505 104.52821 154.90505 180.33324 0 5.67887 4.59652 10.2754 10.27539 10.2754s10.2754-4.59653 10.2754-10.2754c0-2.7127-.10275-5.41856-.30141-8.12441 13.87179-1.23305 28.5108-1.93862 44.02665-1.93862s30.14802.71242 44.02665 1.93862c-.1918 2.70585-.30141 5.41856-.30141 8.12441 0 5.67887 4.60338 10.2754 10.2754 10.2754s10.2754-4.59653 10.2754-10.2754c0-75.79133 89.95768-153.42539 154.8982-180.32639 29.67535-12.29622 46.17764-10.70696 51.27423-5.61036 30.9221 30.9221 24.70891 204.80238-30.50423 260.02237-4.0074 4.01426-4.0074 10.51516.007 14.52941z" fill="#78af52" stroke="#78af52" stroke-width="14"/><path d="m462.6355 852.50032c-25.77069-12.9955-28.86564-22.7931-28.93825-91.6151 0-31.9291-1.44541-60.2368-3.13674-62.9059-1.69202-2.6691-6.97357-4.3018-11.73656-3.6283-8.03262 1.1357-8.73888 3.0145-9.73765 25.9062-1.02891 23.5723-1.4365 24.5702-9.07112 22.2012-27.12363-8.4164-99.5049-51.247-113.61918-67.2326-12.99496-14.71792-16.50298-31.9536-18.58135-91.29648-1.7475-49.90494-1.17756-59.05477 4.46158-71.56006l6.46597-14.33871-9.80753-12.85876c-24.61506-32.27133-38.06076-80.73449-40.8858-147.36496-2.1503-50.72751 1.47691-79.77202 12.07564-96.67821 17.61272-28.09519 109.25145 19.60307 166.48816 86.65757 19.39173 22.71836 33.8499 52.43495 38.58275 79.30285 2.3099 13.11449 5.88574 22.11094 9.31019 23.4251 6.36047 2.44068 15.52476-3.90335 15.52476-10.7469 0-7.17572 8.91356-9.01468 43.69373-9.01468 24.50819 0 33.33407 1.3321 36.89347 5.56838 12.93604 15.39672 14.24033 16.19402 20.77274 12.69785 4.29238-2.29703 7.33321-9.62256 8.90124-21.43927 7.43801-56.07209 69.85078-126.27005 143.75623-161.68824 34.77263-16.66451 55.40769-17.63067 62.97243-2.9485 14.5486 28.23645 16.3646 99.39338 4.05125 158.73893-6.42144 30.94998-25.57135 76.57336-35.59535 84.80272-6.44267 5.28964-8.24635 20.45647-2.82984 23.80365 5.43226 3.35745 8.25799 70.79207 4.4513 106.23665-4.69586 43.72537-10.81725 55.80167-38.1135 75.18717-19.27459 13.6884-91.89973 52.8459-98.01291 52.8459-1.1988 0-2.20442-9.3883-2.23524-20.8628-.0685-24.7592-3.22305-30.9905-14.86782-29.344l-8.66079 1.2246-1.99548 63.4955c-1.40567 44.7465-3.54844 66.619-7.25648 74.0734-5.01508 10.0828-20.47819 20.209-39.37944 25.7878l-8.7197 2.5737 7.81273-12.6413c10.08907-16.3245 9.89246-28.9182-.64393-41.1665-11.79615-13.7141-42.15105-16.2806-60.01585-5.0744-11.72012 7.3519-12.1606 8.4262-10.50694 25.6369.97068 10.0998 4.58625 21.1241 8.26005 25.1834 9.04988 10.0004.80901 9.6139-20.12745-.9438zm-.54117-212.0739c1.73038-12.16224-22.68122-47.8041-36.61124-53.45392-13.7889-5.59235-75.42484-10.02722-82.0922-5.90671-8.09633 5.00398-3.22305 20.04175 6.90438 21.30412 6.46939.80641 10.94604 5.1627 15.60901 15.18984 9.89658 21.28049 36.02555 33.23756 69.65624 31.87593 23.0299-.93239 25.50422-1.77264 26.53381-9.00926zm160.69078 5.61187c18.85467-6.39534 32.59082-17.42337 38.08747-30.5789 3.66627-8.77341 7.62229-12.21744 15.0103-13.06681 7.09277-.81545 10.3624-3.47302 11.15909-9.07153 1.84409-12.95378-8.67998-15.58668-49.62469-12.41501-33.35737 2.58385-38.01144 3.8395-47.33328 12.77061-13.73684 13.16073-29.96306 43.45931-27.17089 50.73573 2.72983 7.11359 40.65632 8.14353 59.872 1.62591z" fill="#eaeace"/></svg>