<svg height="999.97626" width="999.97626" xmlns="http://www.w3.org/2000/svg" xmlns:xlink="http://www.w3.org/1999/xlink"><linearGradient id="a" gradientUnits="userSpaceOnUse" x1="502.060709" x2="499.521429" y1=".000005" y2="1000.235005"><stop offset="0" stop-color="#ffa033"/><stop offset="1" stop-color="#f80"/></linearGradient><path d="m598.32963 913.706-84.95 80.979a19.593 19.593 0 0 1 -26.784 0l-84.947-80.978c-207.9-45.1-363.672001-230.086-363.672001-451.553 0-255.237 206.849001-462.15399485 462.011001-462.15399485s462.012 206.91699485 462.012 462.15399485c0 221.466-155.771 406.451-363.67 451.552zm-98.318-715.649c-145.786 0-263.971 118.208-263.971 264.036s118.185 264.039 263.971 264.039 263.976-118.217 263.976-264.039-118.19-264.036-263.976-264.036z" fill="url(#a)" fill-rule="evenodd"/></svg>