<svg enable-background="new 0 0 350 118" height="341.5" viewBox="0 0 341.5 341.5" width="341.5" xmlns="http://www.w3.org/2000/svg" xmlns:xlink="http://www.w3.org/1999/xlink"><linearGradient id="a" gradientUnits="userSpaceOnUse" x1="4.3718" x2="345.8111" y1="-78.031652" y2="-78.031652"><stop offset="0" stop-color="#005591"/><stop offset="1" stop-color="#572b7a"/></linearGradient><path d="m344.2-121.19845c-1.1-1.1-2.4-1.7-4-1.7l-21.5.1c-2.7-.1-4.5 1-5.5 3.4l-8.9 24.500005-6.3-17.500005-2.6-7c-1-2.4-2.8-3.5-5.6-3.5h-28c-1.5 0-2.9.5-4 1.6s-1.6 2.4-1.6 4v78.400005c0 1.5.6 2.8 1.7 3.9s2.4 1.7 3.9 1.7 2.9-.5 4-1.6 1.6-2.4 1.6-4v-46.4l17.5 48.5c.9 2.3 2.7 3.4 5.2 3.4 2.6 0 4.3-1.1 5.3-3.4l8.9-24.5 7.7 21.3.1-.1 1.2 3.3c.4 1 1.1 1.9 2.2 2.6 1 .7 2.1 1 3.3 1h21.5c1.6 0 2.9-.6 4-1.7 1-1.1 1.6-2.4 1.6-3.9v-78.500005c-.1-1.5-.6-2.8-1.7-3.9zm-54 65.400005-20.2-55.800005h16.1l2.4 6.7 9.7 26.900005zm44.4 11.4h-12l-1-2.9-3.6-10s0 0 0-.1l-7.5-20.7 12.1-33.500005h12.1v67.200005zm-285.4-56.000005c-6.2 0-11.5 2.200005-15.9 6.600005s-6.6 9.7-6.6 15.9 2.2 11.5 6.6 15.9 9.7 6.6 15.9 6.6 11.5-2.2 15.9-6.6 6.6-9.7 6.6-15.9-2.2-11.5-6.6-15.9c-4.4-4.5-9.7-6.600005-15.9-6.600005zm7.9 30.300005c-2.2 2.2-4.8 3.3-7.9 3.3s-5.7-1.1-7.9-3.3-3.3-4.8-3.3-7.9 1.1-5.7 3.3-7.9 4.8-3.3 7.9-3.3 5.7 1.1 7.9 3.3 3.3 4.8 3.3 7.9-1.1 5.7-3.3 7.9zm-7.9-52.800005c-12.4 0-22.9 4.4-31.7 13.2-8.8 8.7-13.1 19.300005-13.1 31.700005s4.4 22.9 13.1 31.7c8.8 8.8 19.3 13.1 31.7 13.1s22.9-4.4 31.7-13.1c8.7-8.8 13.1-19.4 13.1-31.7 0-12.4-4.4-22.900005-13.1-31.700005s-19.4-13.2-31.7-13.2zm23.8 68.600005c-6.6 6.6-14.5 9.8-23.8 9.8s-17.2-3.2-23.8-9.8-9.8-14.5-9.8-23.8 3.3-17.2 9.8-23.800005c6.6-6.6 14.5-9.8 23.8-9.8s17.2 3.3 23.8 9.8c6.6 6.600005 9.8 14.500005 9.8 23.800005s-3.3 17.3-9.8 23.8zm35.6-23.8c-3.7-5-5.6-10.5-5.6-16.7 0-7.500005 3-14.100005 9-19.800005 5.8-5.5 12.1-8.3 19-8.3 5.8 0 10.7 1.3 15 4 3.2 2 6.6 5.3 10.2 9.9 1.3 1.6 2 3.2 2 4.6 0 1.6-.5 2.9-1.6 4-1.1 1.100005-2.4 1.600005-4 1.600005-1.9 0-3.4-.8-4.5-2.400005-5.3-7-11-10.5-17-10.5-4.6 0-8.6 1.6-11.8 4.9-3.3 3.3-4.9 7.200005-4.9 11.900005 0 3.4.9 6.5 2.8 9.3l17.9 20.3c1.1 1.1 1.6 2.4 1.6 4 0 1.5-.5 2.9-1.6 4s-2.4 1.6-4 1.6-3-.6-4.1-1.9zm120.7 8.7 11.5 28.3c.6 1.5.6 2.9 0 4.4s-1.7 2.5-3.1 3.1c-1.5.6-2.9.5-4.4-.1s-2.5-1.7-3.1-3.1l-13.7-33.5c-.5-1.3-.5-2.7-.1-4.1.5-1.4 1.3-2.4 2.6-3.1l.4-.2.2-.1.2-.1h.2l.3-.1h.1.1l.1-.1h.1c1.9-.6 3.2-1 4-1.5 5.5-2.9 8.3-8.1 8.3-15.3 0-4.2-1.6-8.000005-4.8-11.400005-3.3-3.5-7.2-5.3-11.6-5.4h-34v72.800005c0 1.5-.5 2.9-1.6 4s-2.4 1.6-4 1.6c-1.5 0-2.8-.6-3.9-1.7s-1.7-2.4-1.7-3.9v-78.400005c0-1.5.5-2.8 1.6-3.9s2.4-1.7 4-1.7h39.2c7.6 0 14.2 2.9 19.8 8.6 5.5 5.6 8.2 12.1 8.2 19.400005 0 5.7-1.3 10.8-4 15.3-2.8 4.5-6.3 7.9-10.9 10.2zm-75.9-8.6c3.7 4.3 5.6 9.9 5.6 16.7 0 7.5-3 14.1-9 19.8-5.8 5.5-12.1 8.2-19 8.2-5.7 0-10.7-1.3-14.9-4-3.2-2-6.6-5.3-10.2-9.9-1.3-1.6-2-3.2-2-4.6 0-1.6.5-2.9 1.6-4s2.4-1.6 4-1.6c1.9 0 3.4.8 4.5 2.4 5.3 7 11 10.5 16.9 10.5 4.7 0 8.6-1.6 11.9-4.9s4.9-7.2 4.9-11.9c0-3.8-.9-6.9-2.8-9.3l-17.8-20.3c-1.1-1.1-1.6-2.4-1.6-4 0-1.5.5-2.9 1.6-4s2.4-1.600005 3.9-1.600005c1.7 0 3.1.600005 4.2 1.900005zm66.6-12.9c-1.1 1.1-2.4 1.6-4 1.6h-11.2v50.4c0 1.5-.6 2.8-1.7 3.9s-2.4 1.7-3.9 1.7-2.9-.5-4-1.6-1.6-2.4-1.6-4v-55.7c0-1.8.5-3.2 1.5-4.3s2.4-1.600005 4.1-1.600005h16.8c1.5 0 2.8.600005 3.9 1.700005s1.7 2.4 1.7 3.9c.1 1.6-.5 2.9-1.6 4z" fill="url(#a)" transform="translate(-4.4 248.79689)"/></svg>