<svg height="2500" preserveAspectRatio="xMidYMid" viewBox="0 0 284.95102 285" width="2500" xmlns="http://www.w3.org/2000/svg"><path d="m220.52751 203.5835c31.761-13.251 49.948-19.829 49.948-19.829l-66.302-183.436-189.698 40.15s4.022 11.406 10.833 56.141l141.662-31.831z" fill="#e80022"/><path d="m37.31251 188.1745c3.068 27.315 6.069 58.652 9.577 96.507a2593.556 2593.556 0 0 1 88.56-43.423l-25.941-69.291z" fill="#b6b1b1"/><path d="m27.89751 114.3345c2.152 15.307 4.524 33.606 7.085 55.417l85.945-20.253 30.88 84.2a2291.268 2291.268 0 0 1 50.227-22.289l-46.483-124.161-127.654 27.086" fill="#748282"/></svg>