<svg height="357.5" width="357.5" xmlns="http://www.w3.org/2000/svg"><g transform="matrix(.5 0 0 .5 0 66.25)"><path d="m0 70c0-11.046 8.955-20 20-20h305l10-35c1.719-7.458 7.541-13.282 15-15h245c7.459 1.718 13.281 7.542 15 15l10 35h75c11.045 0 20 8.954 20 20v360c0 11.047-8.955 20-20 20h-675c-11.045 0-20-8.953-20-20z" fill="#f70"/><path d="m382 24c0-2.762 2.238-5 5-5h170c2.762 0 5 2.238 5 5v52c0 2.762-2.238 5-5 5h-170c-2.762 0-5-2.238-5-5z" fill="#4e4e4e"/><path d="m389.5 30c0-2.762 2.238-5 5-5h155c2.762 0 5 2.238 5 5v40c0 2.762-2.238 5-5 5h-155c-2.762 0-5-2.238-5-5z" fill="#fff"/><circle cx="200" cy="250" fill="#fff" r="150"/><circle cx="200" cy="250" fill="#4e4e4e" r="123"/><circle cx="200" cy="250" fill="#fff" r="100"/><circle cx="190" cy="260" fill="#4e4e4e" r="100"/></g></svg>