<svg width="50" height="50" xmlns="http://www.w3.org/2000/svg" xmlns:xlink="http://www.w3.org/1999/xlink"><defs><path id="a" d="M0 .112h50v49.776H0z"/><linearGradient x1="100%" y1="55.807%" x2="0%" y2="60.118%" id="c"><stop stop-color="#FF5C34" offset="0%"/><stop stop-color="#EB0256" offset="100%"/></linearGradient><linearGradient x1="33.089%" y1="100%" x2="68.99%" y2="15.31%" id="d"><stop stop-color="#A63FDB" offset="0%"/><stop stop-color="#FF257E" offset="100%"/></linearGradient><linearGradient x1="14.722%" y1="50%" x2="94.315%" y2="67.526%" id="e"><stop stop-color="#00FFF0" offset="0%"/><stop stop-color="#0087FF" offset="100%"/></linearGradient><linearGradient x1="81.226%" y1="10.013%" x2="20.815%" y2="74.492%" id="f"><stop stop-color="#17C934" offset="0%"/><stop stop-color="#03FF6E" offset="100%"/></linearGradient><linearGradient x1="50%" y1="111.913%" x2="30.56%" y2="0%" id="g"><stop stop-color="#FFB000" offset="0%"/><stop stop-color="#FF7725" offset="100%"/></linearGradient><path d="M25.88 24.664c-.361-6.802-6.236-12.026-13.122-11.67-6.885.357-12.175 6.16-11.814 12.96l.01.196c-.03-.492-.044-.987-.044-1.486 0-10.156 6.214-18.878 15.092-22.66l.524-.208c6.393-2.551 13.67.5 16.253 6.814 2.583 6.315-.506 13.502-6.9 16.054z" id="h"/><path d="M16.339 1.87l.187-.074c6.393-2.551 13.67.5 16.253 6.814 2.583 6.315-.506 13.502-6.9 16.054a12.225 12.225 0 0 0-.508-2.905c3.43-1.856 5.756-5.456 5.756-9.592 0-6.036-4.955-10.93-11.066-10.93a11.17 11.17 0 0 0-3.722.634z" id="i"/><linearGradient x1="-81.365%" y1="59.623%" x2="121.418%" y2="72.058%" id="j"><stop stop-color="#9EE85D" offset="0%"/><stop stop-color="#0ED061" offset="100%"/></linearGradient><path d="M28.38 9.27l.186-.074c6.394-2.552 13.67.5 16.253 6.814 2.583 6.315-.506 13.502-6.899 16.053a12.225 12.225 0 0 0-.508-2.904c3.43-1.857 5.756-5.456 5.756-9.592 0-6.037-4.955-10.93-11.067-10.93a11.17 11.17 0 0 0-3.722.633z" id="k"/><linearGradient x1="45.51%" y1="116.819%" x2="0%" y2="-4.038%" id="l"><stop stop-color="#21EFE3" offset="0%"/><stop stop-color="#2598FF" offset="100%"/></linearGradient><path d="M25.135 22.732l.187-.074c6.393-2.552 13.67.5 16.253 6.814 2.583 6.315-.506 13.502-6.899 16.053a12.225 12.225 0 0 0-.508-2.904c3.43-1.857 5.755-5.456 5.755-9.592 0-6.037-4.954-10.93-11.066-10.93a11.17 11.17 0 0 0-3.722.633z" id="m"/><linearGradient x1="100%" y1="58.207%" x2="-89.649%" y2="74.317%" id="n"><stop stop-color="#A63FDB" offset="0%"/><stop stop-color="#FF257E" offset="100%"/></linearGradient><path d="M10.654 23.765l.187-.075c6.393-2.551 13.67.5 16.253 6.814 2.583 6.315-.506 13.503-6.9 16.054a12.225 12.225 0 0 0-.507-2.904c3.43-1.857 5.755-5.456 5.755-9.592 0-6.037-4.954-10.93-11.066-10.93a11.17 11.17 0 0 0-3.722.633z" id="o"/><path d="M5.546 10.697l.187-.074c6.393-2.552 13.67.5 16.253 6.814 2.583 6.315-.506 13.502-6.9 16.053a12.225 12.225 0 0 0-.508-2.904c3.43-1.857 5.756-5.456 5.756-9.592 0-6.037-4.955-10.93-11.066-10.93a11.17 11.17 0 0 0-3.722.633z" id="p"/><path d="M35.632 42.373h4.545c4.281 0 7.752-3.364 7.752-7.513 0-4.15-3.471-7.513-7.752-7.513h-6.56c-2.47 0-4.472 1.94-4.472 4.335v16.87l6.487-6.179z" id="r"/><filter x="-26.6%" y="-18.9%" width="153.2%" height="147.2%" filterUnits="objectBoundingBox" id="q"><feOffset dy="1" in="SourceAlpha" result="shadowOffsetOuter1"/><feGaussianBlur stdDeviation="1.5" in="shadowOffsetOuter1" result="shadowBlurOuter1"/><feColorMatrix values="0 0 0 0 0 0 0 0 0 0 0 0 0 0 0 0 0 0 0.298686594 0" in="shadowBlurOuter1"/></filter></defs><g fill="none" fill-rule="evenodd"><mask id="b" fill="#fff"><use xlink:href="#a"/></mask><g mask="url(#b)"><path d="M25.88 24.664c-6.69-1.648-13.467 2.373-15.135 8.982-1.668 6.608 2.403 13.301 9.094 14.949l.506.124C9.691 46.338 1.621 37.23.955 26.15l-.011-.195c-.36-6.8 4.929-12.603 11.814-12.96 6.886-.356 12.76 4.868 13.122 11.67z" fill="url(#c)" transform="rotate(40 25.031 23.591)"/><path d="M25.88 24.664c-3.552 5.838-1.64 13.414 4.271 16.921 5.91 3.508 13.58 1.62 17.132-4.219l.235-.386c-4.315 7.38-12.39 12.347-21.638 12.347a25.35 25.35 0 0 1-5.535-.608l-.506-.124c-6.69-1.648-10.762-8.34-9.094-14.95 1.668-6.608 8.444-10.629 15.135-8.981z" fill="url(#d)" transform="rotate(40 25.031 23.591)"/><path d="M25.88 24.664c4.432 5.217 12.307 5.897 17.589 1.52 5.282-4.378 5.97-12.157 1.539-17.374l-.102-.12c3.707 4.304 5.943 9.88 5.943 15.974a24.32 24.32 0 0 1-3.33 12.316l-.236.386c-3.551 5.838-11.222 7.727-17.132 4.22-5.91-3.508-7.823-11.084-4.271-16.922z" fill="url(#e)" transform="rotate(40 25.031 23.591)"/><path d="M25.88 24.664c6.393-2.552 9.482-9.739 6.899-16.054-2.583-6.315-9.86-9.365-16.253-6.814l-.524.209A25.153 25.153 0 0 1 25.88 0a25.042 25.042 0 0 1 19.026 8.69l.102.12c4.432 5.217 3.743 12.996-1.54 17.374-5.281 4.377-13.156 3.697-17.588-1.52z" fill="url(#f)" transform="rotate(40 25.031 23.591)"/><g fill="url(#g)" transform="rotate(40 25.031 23.591)"><use xlink:href="#h"/><use fill-opacity=".1" style="mix-blend-mode:multiply" xlink:href="#h"/></g><g opacity=".505" transform="rotate(40 25.031 23.591)"><use fill="url(#g)" xlink:href="#i"/><use fill-opacity=".496" fill="#000" style="mix-blend-mode:overlay" xlink:href="#i"/></g><g opacity=".544" transform="rotate(112 33.87 24.234)"><use fill="url(#j)" xlink:href="#k"/><use fill-opacity=".5" fill="#000" style="mix-blend-mode:overlay" xlink:href="#k"/></g><g opacity=".562" transform="rotate(-177 29.597 35.399)"><use fill="url(#l)" xlink:href="#m"/><use fill="#000" style="mix-blend-mode:overlay" xlink:href="#m"/></g><g opacity=".584" transform="rotate(-103 13.947 33.848)"><use fill="url(#n)" xlink:href="#o"/><use fill-opacity=".503" fill="#000" style="mix-blend-mode:overlay" xlink:href="#o"/></g><g opacity=".18" transform="rotate(-31 4.435 11.504)"><use fill="url(#c)" xlink:href="#p"/><use fill-opacity=".773" fill="#000" style="mix-blend-mode:multiply" xlink:href="#p"/></g><g fill-rule="nonzero" transform="translate(-12.599 -12.1)"><use fill="#000" filter="url(#q)" xlink:href="#r"/><use fill="#FFF" xlink:href="#r"/></g></g></g></svg>