<svg height="526.03571" width="526.03571" xmlns="http://www.w3.org/2000/svg" xmlns:xlink="http://www.w3.org/1999/xlink"><filter id="a" color-interpolation-filters="sRGB" height="1.476655" width="1.096557" x="-.048278" y="-.238328"><feGaussianBlur stdDeviation="4.170345"/></filter><g transform="matrix(.91616576 0 0 .91616576 -12.5073 132.403407)"><path d="m354.63758 164.71561c-6.49447.32579-14.42112.0237-18.9574 5.48259-4.87732 7.39201-3.10083 16.86338-2.43242 25.18645.14385 2.70352 1.33055 5.63495 1.02055 8.16469-8.51647 10.23315-13.45953 15.6793-21.71829 26.11601 8.22364 11.13265 21.22584 24.75116 34.68735 29.48979 1.07635-9.9461 2.16981-19.89091 3.16601-29.84536 11.21128 16.25433 28.87923 26.68931 46.87097 34.00756 12.79215 4.89961 27.06201 8.15741 40.67028 4.84677 7.72483-2.29879 14.18356-9.60027 13.73221-17.95357.0172-9.84105-4.311-18.92972-7.63187-27.99209-10.48484-24.37337-31.32952-44.33557-56.80329-52.34779-10.46588-3.5125-21.53067-5.35227-32.6041-5.15505z" fill="#8f5902"/><path d="m319.5624 227.22845 19.41501-22.86656s-6.04022-26.74954.86289-32.78977c6.90311-6.04022 88.01466-9.92322 107.42966 73.777 6.9031 42.71297-89.309 10.35465-99.66367-31.49546.8629-4.74587-3.45155 35.37846-3.45155 35.37846s-15.532-22.00367-24.59234-22.00367z" fill="#e9b96e"/><path d="m486.76027 6.0551393c-23.18494.35032-44.48409 14.2420997-57.49348 32.8186597-28.89341 3.02691-37.33367 11.73449-44.86106 33.8733-12.43349 4.75148-27.63005 12.77824-23.23022 28.082191-.41743 4.56369.74142 9.32929-1.22937 13.6304-9.22045 36.64354-7.74547 76.57651 7.10725 111.52852 2.74608 5.79708 6.52793 12.74705 13.46562 13.90065 9.97601 1.87889 19.5865-3.39878 26.9484-9.64078 4.97539-4.20984 10.30156-8.27097 16.70307-9.94479 9.31689-3.60389 20.75154-12.79676 23.79553-22.84229 3.08601-14.63475-4.62151-19.23948-17.58042-21.31654-16.11451-1.70652-33.21794 10.57242-47.64008-9.69141 6.33294-11.63505 16.55513-29.94667 23.68925-41.12371 3.01746 4.64446 5.88246 9.77776 11.08958 10.63485 1.68464 17.74074 22.02713 17.02249 27.60297 13.86773 16.80821 18.7336 60.33277 17.10412 82.62832 14.40283 18.70543-3.50333 39.0511-11.95315 49.49955-28.3896 26.02508-66.234891 1.18193-87.030561-43.98299-116.212241-14.0188-8.19485-30.02172-13.9373697-46.51192-13.5777697z" fill="#555753"/><path d="m487.45524 10.160639c-28.57275.40377-42.09718 17.11967-49.22218 26.46992 0 0 18.54068-.18103 38.79754 6.79885-52.08221-13.00441-91.20402 16.25487-85.88103 27.32286 12.55984-5.19119 45.26445.63879 43.02417 1.63448-20.7545-.0908-74.09932-1.8787-68.50663 36.692161-18.91478 63.45608 3.66086 122.63167 13.42334 126.29261 34.86511 8.08825 35.42855-38.98595 59.17593-46.70497 6.41354 2.31885-11.33806 25.52066-16.76952 28.32671-1.6904.87331 4.42333 3.09488 10.74639-5.66277 19.6839-19.20835 12.99127-34.47376-11.46711-31.11949-7.41639 1.06484-22.75067 1.86664-28.57295.60892-.96871 1.35107 14.75891 5.18394 10.59569 8.40199 0 0-11.01356-3.43399-13.26934-8.80546 0 0-.69539-.49292-1.02951-.75503 3.1699 11.83021 15.95579 19.39998 15.95579 19.39998-14.36728-1.43568-25.83687-26.85866-26.57515-32.63409 0 0 28.19802-51.60669 28.19802-47.33559 3.63477 12.44029 19.90249 17.86256 35.21212 10.43751.0701-.0129-4.39659 7.34804-19.29202 7.00124 5.45136 18.58356 25.98937 12.16873 41.24812-5.30241 0-.00001-2.10569 8.71515-14.76181 16.74377 16.27558 13.39267 92.36791 28.68107 121.9297-11.54432-8.21302 1.17206-62.71644 8.61635-60.81041-.91377 12.35513-19.21909-12.35514-82.367541-12.35513-82.367541-5.37042-8.10434 35.48565-19.29196 55.72679-14.4658-1.20862-1.00675-2.36187-1.9398-3.3848-2.75416-24.46164-19.474-45.17791-26.0052397-62.13601-25.7656zm68.76403 31.29967c12.26629 15.01925 16.6258 75.100641 15.97158 92.406081 8.22555-12.68272 12.11996-30.40092 8.86738-54.684321-2.04665-15.28002-14.87117-28.95035-24.83896-37.72176z" fill="#f8eda6"/><path d="m213.64754-7.0979307c-20.15027.46126-37.99796 14.72378-46.21593 32.5737897-5.75881 11.84616-6.89684 25.75835-4.87768 38.5583-16.04417 5.56833-29.12352 19.19108-33.47471 35.67544-19.24715-2.14923-39.047602-3.17461-58.081958.965251-7.530164 1.5955-14.733535 4.40054-21.60863 7.76057-5.012765 1.45429-10.766138.74991-15.044925 4.25994-4.08263 2.76197-5.637441 7.95248-4.736134 12.66401 1.485416 9.09838 8.725647 15.82102 15.546873 21.37695 11.692237 8.99657 27.064738 12.79939 41.698567 10.54047 21.693217-2.49642 40.959107-13.8262 61.067787-21.41556 8.4486-2.55601 17.58679-.23789 26.08876-2.76046 3.86967-.92807 7.63041-2.46089 10.95089-4.7041 25.20315 20.1809 23.06069 49.83226 15.36752 78.30932-7.64437-5.86922-14.85112-17.92721-24.10618-20.8837-17.26609 4.92136-22.76318 25.64036-33.28859 41.716 4.72015 3.638 7.12265 1.34837 11.79659 5.04545 7.31926-9.43582 14.16059-19.88341 21.51935-29.31611 7.76684 5.52905 16.77439 16.7816 23.05673 23.92556 8.12099 50.64182 51.67921 46.17421 92.26986 32.0136 7.14947 6.40636 17.09195 12.63738 27.13198 12.58607 9.26848-1.22464 10.85935-15.73015 13.52945-28.82844-3.95648-5.23432-3.73676-5.99123-8.86215-9.18597-5.43166 9.78265-4.2625 13.45508-9.77016 23.19567-1.06251-.79879-10.35872-9.68332-8.69996-11.44389 22.41818-47.29302 9.04814-81.359-29.2758-113.0924 19.21187-10.38291 42.56224-9.74286 63.03171-3.8304 1.14747.57099 3.86883.70916 3.92796 1.70172-3.35968 4.49695-6.44731 10.91429-3.40796 16.33708 4.15101 6.35026 11.06105 10.09369 17.00117 14.55589 12.2713 8.07186 25.39057 15.16912 39.4592 19.53655 20.76931-.69721 20.45078-11.95769 11.80173-24.19546 4.21843-2.13385 8.60052-8.08862 2.9136-19.76073 6.80214-16.65715-15.45408-29.61515-29.95292-31.14512-8.69722-.44779-17.08934 2.45261-25.36508 4.49551-15.01643-1.74806-29.94819-3.92108-44.95661-5.84157 18.66991-12.694701 33.88472-32.098011 37.37427-54.851641 2.50631-16.67939-3.19196-35.46766-17.4811-45.2409097-14.36415-10.0003-33.50004-9.91318-49.69292-4.73474997-10.57488 3.09487997-20.55813 8.08473997-29.96819 13.65672967-8.24331-11.7840897-21.87299-20.6699797-36.66641-20.2186597z" fill="#555753"/><path d="m213.67324-2.9666807c-28.13173.38588-55.52927 32.5891797-46.03571 69.7807497-24.23649 6.06009-35.27979 29.44414-35.05769 37.387141-64.066207-7.932021-77.478113 7.94308-84.799928 9.16339-1.830495-.00003-21.332576-.61376-11.570086 18.30104 38.439736 50.6428 98.095084-1.99399 118.969614-1.23552 17.93153.65153 23.36689-4.6972 26.53779-6.78245 12.69667-13.86577 10.46582-15.96896 15.70131-23.950941l13.17881-17.27144c3.33164 1.02511-4.56193 18.500571-10.82363 22.033321-1.82864 5.04634-14.12834 19.23583-13.4748 19.88404 33.67457 27.21631 20.6764 62.5101 15.4358 97.86676-.4323-.36601-.94862-10.99924-1.37319-11.3518-14.06747-11.68166-23.80516-20.94268-23.80516-20.94268-9.15721-2.04363-20.54407 21.94175-28.94684 36.34468l5.35867 2.2889 23.18543-30.86643c.00004-.00001 18.68681 19.40707 26.6188 29.16954 12.79934 59.16352 71.41668 34.41047 85.21266 29.22489 1.06801-.40144-8.17281-11.24199-8.22493-13.86881 10.11708 11.1984 20.79719 23.33956 37.63106 27.09885 8.69966-.00004 12.45303-29.36312 12.45303-29.36312-1.09806-2.44497-2.71869-4.05383-4.6433-5.17632l-9.97449 27.60862c-5.68288-2.61048-22.44433-22.11745-25.46439-27.59826.2523-.45747 12.01261 9.5656 12.25492 9.11019 29.66202-55.74742-14.80601-97.40618-29.54034-108.64439-.55498-.42329-11.13889 5.62754-11.60395 5.29143-1.49051-1.07721 7.58041-8.13311 7.25323-8.27705 34.77342-24.31538 83.53207-4.26473 81.09341-3.65506 0-.00001-10.57748 11.44804-6.22904 16.5636 11.58709 13.63121 47.15429 30.77272 53.80917 31.66002 13.92465.041 13.96762-7.64941 9.91582-14.50415-2.3309-3.94337-6.65974-6.69714-9.31972-9.49227 17.77737 2.59382 14.0972-13.28391 4.50859-17.85571.0603-.6667 5.94701.46837 5.98412-.18875-.91142-27.85203-32.02849-27.55997-51.35882-20.18522l-58.42947-7.78631c74.93288-41.333841 51.73456-131.303701-25.58542-100.2824807-29.17584 8.2870297-41.11402 43.5293597-43.30545 73.1174197-.49656-2.12939-2.06039-10.99915-2.30732-13.02402-27.55063-16.541-38.21685-8.08436-56.7804 5.62046 21.30367-30.37307 44.37008-18.60696 57.92757-8.5585-1.03112-18.10467 7.62855-32.41525 18.90595-48.1078-2.07505-8.8881997-21.40996-18.7084097-33.28168-18.5455597zm92.03288 32.2134297c10.08405.0544 18.16917 5.10661 19.48507 19.03462-9.53596-30.39481-59.70724-3.24392-66.39596 22.49664 19.84132-9.01941 18.02389 23.59559-.69498 17.02691 1.89667 7.35141 9.30333 7.85934 22.32933 2.39381-37.21683 20.775361-34.38614-19.89129-16.92396-41.22238 8.44838-9.2003 27.46227-19.80906 42.2005-19.7296zm-67.55424 79.214411c17.30256 5.68703 21.99826 8.04277 48.00482 0-14.00105 6.02595-32.83692 11.08494-39.60324 18.55784l3.59657-8.4648z" fill="#b4b4b4"/><path d="m70.920001 190.17233c-7.025292.63161-14.760181.16279-20.888655 4.11709-13.120326 10.51371-16.977927 30.48697-9.831843 45.59944 6.425369 14.48939 19.780689 24.34587 33.178346 32.04019 17.549722 9.63663 36.821581 15.80576 56.113051 20.9966 10.33407 2.52032 20.94721 4.81549 31.64733 4.28587 5.04119-.45858 10.88039-3.49069 11.36413-9.08617.76235-6.63289-3.24602-12.40673-5.12223-18.5198-3.30545-8.37804-6.92069-16.63008-10.45038-24.91621 4.70664-3.93323 9.41069-7.86961 14.11829-11.80172-6.36347-8.13079-13.40083-17.20119-24.04103-19.48507-4.38582-1.33768-9.30819 2.02028-9.72966 6.56366-.72455 1.96745-1.25232 3.99702-1.80179 6.02313-13.91139-21.5148-38.365811-36.90866-64.555559-35.81701z" fill="#8f5902"/><path d="m130.90675 102.51525c2.13686 4.30755 7.19304 7.72588 12.072 5.92017 8.23057 18.3803 33.8325 4.89754 38.07159-10.922991 4.17978-15.59907 5.89208-36.08992-14.49216-30.46801-13.90813-18.7966-43.38735 14.23617-35.65143 35.470831z" fill="#555753"/><path d="m133.35566 78.413039c-7.06466 7.82668-2.01747 34.063781 11.30309 26.663721 4.09124 20.74834 28.53101 5.97794 32.20094-7.718451 7.37164-27.51142-3.72652-29.9736-11.38464-25.73535-7.29365 4.03658-13.62915 11.82948-19.78892 29.140201 1.68972-11.459781 9.5256-28.091051 17.69889-31.530041-4.79301-9.44091-24.89337 1.0604-30.02936 9.17992z" fill="#fff"/><path d="m164.85676 95.680379c-2.03324-.10381-3.91234 2.27996-4.21911 5.308341-.30678 3.02839 1.06077 5.57063 3.09401 5.67444 2.03328.10381 3.91237-2.27995 4.21919-5.30835.01-.0945-.006-.18109 0-.27456-.39528.43507-.96703.73218-1.68767.73218-1.19914 0-2.19398-.77417-2.19398-1.73894 0-.964771.99484-1.738941 2.19398-1.738941.59956 0 1.12568.18703 1.51886.50338-.4323-1.8002-1.49822-3.08469-2.92528-3.15755z"/><path d="m143.76886 88.554279c-1.65551-.0757-3.14331 2.33375-3.34137 5.36595-.19801 3.0322.95753 5.55515 2.61303 5.63082 1.65551.0757 3.14331-2.33374 3.34136-5.36594.006-.0946-.008-.181-.005-.27454-.31411.44048-.77409.74546-1.36022.75542-.97531.0166-1.79759-.74369-1.81402-1.70833-.0164-.96464.77957-1.75246 1.75488-1.76904.48766-.008.91877.17142 1.24396.4823-.38227-1.79398-1.27106-3.06353-2.43297-3.11664z"/><path d="m199.70737 104.54512c-1.30936 2.24082-3.11992 6.2295-4.75644 7.30448 15.92614 17.28763 17.95135 55.14537 41.09988 32.9874 17.85053-21.87537-16.0536-42.85676-31.5244-45.941901-3.55573 1.631851-2.37845 2.435531-4.81904 5.650021z" fill="#a40000"/><path d="m203.13283 99.948619c-.73501.120881-1.42928 1.290011-3.51355 4.767391 12.83999-2.49321 18.87057 12.71828 17.2457 12.9214l-17.60989-12.46937c-2.41691 3.14092-4.32697 6.52957-4.5763 6.52957 14.76068 6.90476 20.1548 40.41683 29.74086 35.65647 14.44887-7.17519 18.00419-31.72518-20.28301-47.28412-.0429-.0143-.94854-.130431-1.00381-.121341z" fill="#ef2929"/><ellipse cx="17.700031" cy="102.55964" rx="21.484684" ry="33.467915" transform="matrix(.99357388 -.11318547 .17770267 .98408422 0 0)"/><path d="m134.95236 232.87853s-21.8419-48.88543-79.223981-36.80498c-7.334541-1.29435-55.32013958 57.9998 71.188321 91.89765 39.68044 10.63233 42.71301 3.02013 41.41865-3.45157-1.29433-6.47166-16.39489-40.98722-16.39489-40.98722l13.3748-11.21754s-12.51188-17.25778-22.43511-14.6691c-1.26508 1.26506-3.58196 8.78831-4.86714 13.79102-.17639.68657 5.11548 12.26901 4.95733 12.88992-.65437 2.5697-8.01798-11.44818-8.01798-11.44818z" fill="#e9b96e"/><path d="m52.803467 205.18296c16.944073-8.74193 37.4692 34.92572 63.834383 53.19775 21.47384 14.88216 44.57229 22.90443 43.5866 30.54258-18.59933 7.52683-150.062041-31.19893-107.420983-83.74033z" fill="#c17d11" opacity=".6"/><g fill="#fff"><ellipse cx="28.457573" cy="91.501686" opacity=".4" rx="10.183149" ry="16.289509"/><path d="m-1473.7049 625.61122c-.7597.65155-3.1926 20.94892-.882 20.0244 39.2717-15.71373 100.1226-28.41087 173.1852-30.94038-14.4738-3.61846-111.6527-18.65878-172.3032 10.91598z" filter="url(#a)" opacity=".4" transform="matrix(.4118377 0 0 .4118377 666.78482 -147.00692)"/><path d="m549.44969 41.177169c-16.20312.24434-32.78577 2.73371-47.10394 10.59195-.86588.47553-2.18664 1.65698-1.13256 2.68982 7.8758 22.11751 15.31808 44.99229 15.08356 68.738281-.29107 4.26177-1.24979 8.47834-2.81851 12.43235 4.24082 1.4771 8.89555.98705 13.32037 1.29987 14.14189.0426 28.32612-1.93114 42.23911-3.6808-.2976-1.92059-.23666-3.87635-.1748-5.85575-.47798-23.29041-2.96563-46.686211-8.74406-69.227411-1.74597-5.67995-3.57796-11.83688-7.96649-16.08741-.77701-.56684-1.72803-.9588-2.70268-.9009z"/></g><path d="m527.70223 126.38586c-.69916-2.66516-.36839-7.54059-.36839-7.54059s15.82029-4.14915 12.31905-4.81736c-4.53451-1.13847-9.069-2.27699-13.60349-3.41548-1.29293-2.86387.58926-7.4489.58926-7.4489s21.35981-.0491 28.95423-.4851c1.88153 3.1286-.62608 5.18869-.62608 5.18869-4.93615.28335-16.86606.36105-21.80221.64441 5.04088 1.26321 10.08179 2.5263 15.12269 3.78946.45729 6.64202-9.24153 5.48796-13.18781 8.7183 6.41188-.36814 14.66665 2.18695 22.73252 2.18695 4.00122.80024 1.16162 5.67958.0287 5.45299-7.10445.40784-23.87676-1.44701-30.15842-2.27337zm21.13259-40.717741c.619 2.57514-.3002 5.64083 1.56463 7.80685 2.23104.61681 5.64429 1.25103 4.75938 4.62017-3.08344 3.056021-30.86241-4.21172-30.86241-4.21172-4.03646-2.50989.0398-6.19339 3.94294-7.74443 0 0 17.60383-4.75034 24.86299-7.22837 1.559 3.22569-.44321 7.17328-4.26753 6.7575zm-4.94025 7.30487c.94369-3.21011.0827-5.91351.0827-5.91351-1.32791.47069-13.17033 2.48309-12.00337 3.67901 3.15076.6077 8.76992 1.62681 11.92068 2.2345zm-23.36016-14.3325c-2.15581-3.31414 4.93628-5.49609 4.93628-5.49609 7.2228-.41464 16.5026-1.85775 23.7254-2.27238 2.15582 3.31412-3.49639 5.90748-3.49639 5.90748-7.2228.41463-17.94249 1.44636-25.16529 1.86099zm-.66605-11.31083c-3.67087-8.17826 17.57623-6.02181 22.95895-6.43622.51796-3.06081-6.10085-13.25481-2.17851-14.98618 4.66085-.11997 7.18515 18.81597 6.33595 19.96022-8.49027.48734-18.62613.97481-27.11639 1.46218z" fill="#555753"/><path d="m-1047.0838 507.76009c-.7597.65155-1.8547 22.31514-.882 20.0244 40.4502-95.26324 103.06887-157.16323 184.08642-161.75513-71.92623 2.56872-150.24892 9.62549-183.20442 141.73073z" fill="#fff" filter="url(#a)" opacity=".2" transform="matrix(.4118377 0 0 .4118377 666.78482 -147.00692)"/></g></svg>