<svg height="503.22925" width="503.22925" xmlns="http://www.w3.org/2000/svg" xmlns:xlink="http://www.w3.org/1999/xlink"><linearGradient id="a"><stop offset="0" stop-color="#caceff"/><stop offset=".1046927" stop-color="#b9c4fc"/><stop offset="1" stop-color="#7f94ff"/></linearGradient><filter id="b" color-interpolation-filters="sRGB" height="1.4" width="1.44" x="-.26" y="-.27"><feGaussianBlur in="SourceAlpha" result="blur" stdDeviation="4.5"/><feColorMatrix result="bluralpha" type="matrix" values="1 0 0 0 0 0 1 0 0 0 0 0 1 0 0 0 0 0 0.5 0"/><feOffset dx="2" dy="9.4" in="bluralpha" result="offsetBlur"/><feMerge><feMergeNode in="offsetBlur"/><feMergeNode in="SourceGraphic"/></feMerge></filter><linearGradient id="c" gradientTransform="matrix(1.3871752 0 -.28952677 1 231.79881 241.10808)" gradientUnits="userSpaceOnUse" x1="11.780701" x2="7.201394" y1="619.67676" y2="401.55933"><stop offset="0" stop-color="#e0e4fa"/><stop offset="1" stop-color="#2a6afe"/></linearGradient><linearGradient id="d" gradientUnits="userSpaceOnUse" spreadMethod="pad" x1="47.857758" x2="187.02789" y1="273.85913" y2="156.03552"><stop offset="0" stop-color="#e0e4fa"/><stop offset="1" stop-color="#5b8cfe"/></linearGradient><linearGradient id="e" gradientUnits="userSpaceOnUse" spreadMethod="pad" x1="3.721737" x2="6.908905" y1="175.50903" y2="630.62347"><stop offset="0" stop-color="#1213c1"/><stop offset=".48165852" stop-color="#2a6afe"/><stop offset="1" stop-color="#f4f5ff"/></linearGradient><linearGradient id="f" gradientUnits="userSpaceOnUse" x1="-170.28688" x2="-170.32135" y1="630.62347" y2="263.07648"><stop offset="0" stop-color="#7979ff"/><stop offset="1" stop-color="#00c"/></linearGradient><linearGradient id="g" gradientUnits="userSpaceOnUse" x1="183.145416" x2="147.032451" xlink:href="#a" y1="439.130848" y2="573.986228"/><linearGradient id="h" gradientTransform="matrix(1 0 0 .76255554 134.43708 160.84085)" gradientUnits="userSpaceOnUse" x1="135.3878" x2="130.9993" y1="493.6622" y2="584.15753"><stop offset="0" stop-color="#caceff"/><stop offset=".33484802" stop-color="#7c90f9"/><stop offset="1" stop-color="#5c76ff"/></linearGradient><linearGradient id="i" gradientUnits="userSpaceOnUse" x1="34.91057" x2="29.607252" xlink:href="#a" y1="535.958891" y2="563.738061"/><filter id="j" color-interpolation-filters="sRGB"><feGaussianBlur stdDeviation="1.3723022"/></filter><g transform="translate(119.06681 -383.84128)"><path d="m58.933749 256.64789h16.295873c-2.440644-11.01413-8.186626-18.61251-17.386515-22.14285zm34.144442 0c-3.34613-15.7205-17.101469-40.5772-36.058479-45.89286l-.785863-19.64285c28.03173 4.48255 48.084361 44.46858 51.304221 66.24999zm-37.850656-89.99999-.914594-21.07144c40.640186 7.66319 79.502329 68.01014 86.128239 111.25l-13.9749-.17857c-6.47943-34.6999-38.563729-83.85369-71.238745-89.99999z" fill="url(#d)" filter="url(#b)" transform="matrix(1.3871752 0 -.28952677 1 231.79881 241.10808)"/><path d="m-97.794474 362.17035c-1.12919-24.74879-16.495596-22.8103-29.692216-3.86991l-23.25002-50.39631c22.44494-24.05235 93.416335-37.14664 95.804223 41.14018-.542252 63.48903-2.109934 98.1894-.480684 117.90891 3.234872 39.15305 31.10483 53.9635 43.238997 55.96276l-4.165883-306.96012-4.031808-28.5368 50.781422-.25254-2.004766 26.76789 3.98438 310.36772c34.389926-10.71704 46.405301-44.57188 50.545917-80.99906 5.546643-48.79674-4.565814-105.2189-16.169598-146.08849l44.57207.1046c37.71517 151.58897 20.31618 271.80699-77.888152 279.83777l4.214604 52.45352h-51.651021c3.312752-7.00893 3.124357-52.68089 3.124357-52.68089-43.136029-6.43068-75.668704-50.25689-85.201606-100.47542-4.968512-26.17373-3.461278-69.47541-1.730216-114.28381z" style="stroke-width:3.396209;stroke-linecap:square;stroke-linejoin:round;fill:url(#e);stroke:url(#f);filter:url(#b)" transform="matrix(1.3871752 0 -.28952677 1 231.79881 241.10808)"/><path d="m155.36622 434.71147 56.06344-.25253-7.35853 19.57797-51.73537 186.48526-49.00246.80619s26.13775-93.39813 50.39501-185.78271c1.51523-8.83883 1.63791-20.83418 1.63791-20.83418z" fill="url(#g)"/><path d="m245.46655 545.1556 49.18844-.081c.25306 27.81301.39356 50.0734-2.93582 73.98733l-50.80535 9.29949c6.89365-36.3222 5.28871-70.04045 4.55273-83.20586z" fill="url(#h)"/><path d="m-45.144036 589.11818-13.637064-37.62818c48.772078-21.31134 96.373375-18.88362 105.864279 7.37644 7.119922 19.69987-1.69311 39.24958-13.389353 74.64198l-45.512885-2.17568c11.183985-32.55167 13.986399-43.45253 5.234015-50.57021-12.53066-5.98872-23.524458.56491-38.558992 8.35565z" fill="url(#i)"/><path d="m292.35176 615.61458s-12.36364 188.43061-188.97175 198.11988l-9.97756 47.05036h-47.980356l15.876054-47.77734c-143.167528-23.50708-79.989215-157.0626-71.774929-187.77689l44.777199 7.42749c-10.10153 30.80965-61.067807 137.30063 35.594265 139.57346l34.120807-133.76128c31.91716.80121 23.38431 1.39792 49.52965-1.63779l-38.57215 136.53178s104.60763-1.91198 126.11795-146.13502c29.19113-5 51.26082-11.61465 51.26082-11.61465z" fill="url(#c)"/><g transform="matrix(3.7716995 0 0 3.7716995 -953.32516 -3790.6096)"><g fill="#fff" filter="url(#j)" stroke="#fff" stroke-width="1.325662"><path d="m206.59375 921.46875-10.5625 11.375-5.21875 10.09375.21875 33.21875 6.21875-6.375.15625-8.5625 5.25-5 3.875-8.46875zm-6.4375 10.5-.0937 23.21875-2.8125 2.8125-.15625-22.34375 3.0625-3.6875z" transform="translate(70.00261 258.81818)"/><path d="m279.99515 1215.7724 11.85442-12.0157 3.79018-7.903v-6.3707l-6.69331 7.0965.0807 7.0159-2.82248 2.9031.16128-36.289-6.45138 12.4189v32.7408z"/><path d="m308.13931 1184.5638-.0806-35.6439 6.2901-6.2901.24192 39.1115-11.69313 11.6125h-4.03211l.24192-29.8376 5.96753-10.8867-.16128 35.0794z"/><path d="m317.81639 1178.0318.0806-12.7415 6.2901-6.2095-.24193 9.5158 3.14505-2.7418.0806-14.5962-4.83855 5.3223h-4.43532v-13.1446l5.32239-8.9513 9.919-9.8384.16129 12.5802-6.12881 6.2901-.00001-9.1126-2.82248 2.7419-.16128 13.1446 4.99982-4.1127 4.27404.2419-.0806 12.2576-4.67725 8.7094z"/></g><g fill="#ff0015"><path d="m206.59375 921.46875-10.5625 11.375-5.21875 10.09375.21875 33.21875 6.21875-6.375.15625-8.5625 5.25-5 3.875-8.46875zm-6.4375 10.5-.0937 23.21875-2.8125 2.8125-.15625-22.34375 3.0625-3.6875z" transform="translate(70.00261 258.81818)"/><path d="m279.99515 1215.7724 11.85442-12.0157 3.79018-7.903v-6.3707l-6.69331 7.0965.0807 7.0159-2.82248 2.9031.16128-36.289-6.45138 12.4189v32.7408z"/><path d="m308.13931 1184.5638-.0806-35.6439 6.2901-6.2901.24192 39.1115-11.69313 11.6125h-4.03211l.24192-29.8376 5.96753-10.8867-.16128 35.0794z"/><path d="m317.81639 1178.0318.0806-12.7415 6.2901-6.2095-.24193 9.5158 3.14505-2.7418.0806-14.5962-4.83855 5.3223h-4.43532v-13.1446l5.32239-8.9513 9.919-9.8384.16129 12.5802-6.12881 6.2901-.00001-9.1126-2.82248 2.7419-.16128 13.1446 4.99982-4.1127 4.27404.2419-.0806 12.2576-4.67725 8.7094z"/></g></g></g></svg>