<svg height="388.07941" width="388.07941" xmlns="http://www.w3.org/2000/svg"><g transform="matrix(25.871959 0 0 25.871959 -12.935964 -26825.65629)"><path d="m5.8906243 1037.6993-1.2723214 1.0044 6.7968751 5.692-6.7968751 5.692 1.3058036.904 7.6674105-6.6295z"/><path d="m7.9999998 1036.8622c-4.1421354 0-7.5000002 3.3579-7.5000002 7.5s3.3578648 7.5 7.5000002 7.5c4.1421352 0 7.5000002-3.3579 7.5000002-7.5s-3.357865-7.5-7.5000002-7.5zm0 1.4398c3.3449672 0 6.0602682 2.7152 6.0602682 6.0602s-2.715301 6.0603-6.0602682 6.0603c-3.3449679 0-6.060268-2.7153-6.060268-6.0603s2.7153001-6.0602 6.060268-6.0602z"/><g fill="#fff" stroke="#fff" stroke-linecap="round" stroke-width=".163285" transform="translate(0 1036.3622)"><path d="m4.8595235 13.159952c-.7227364-.437158-1.4314825-1.122912-1.9094764-1.847532-.803903-1.218686-1.1414128-2.7341797-.930965-4.1802388.2551897-1.7534956 1.2865175-3.3261844 2.7990715-4.2683502.1808132-.112628.2217931-.1283067.2649366-.1013632.055264.034513 6.2656908 5.2322785 6.2854928 5.2605907.0098.013948-6.1520446 5.1951335-6.2514517 5.2565705-.016254.01005-.1321777-.04381-.2576078-.119677z"/><path d="m7.2032088 13.992835c-.1421941-.019467-.2959944-.04576-.3417784-.058428-.0816287-.022586-.0170524-.080244 3.3282876-2.971709 1.876342-1.6217719 3.40786-2.9583748 3.403373-2.970229-.004486-.011854-1.532832-1.3403737-3.396323-2.9522657-1.8634904-1.611892-3.3915253-2.9397738-3.3956327-2.9508483-.0157398-.0424381.7948533-.1374564 1.1776776-.1380481 1.380889-.00213 2.8165831.5150586 3.8644131 1.3921128 1.213826 1.0159959 1.974439 2.4113727 2.162829 3.9678019.04691.3875133.03443 1.1385585-.02571 1.5473011-.198724 1.3507443-.849067 2.6049023-1.829468 3.5280473-.918366.864734-2.04659 1.410379-3.2964476 1.594265-.4238166.06235-1.2400821.06829-1.6512206.012z"/></g></g></svg>