<svg enable-background="new 0 0 435 191.73" height="345.841" viewBox="0 0 345.841 345.841" width="345.841" xmlns="http://www.w3.org/2000/svg"><g transform="translate(122.66612 301.68005)"><path d="m209.94588-189.00955c-7.305 0-13.227 5.923-13.227 13.229 0 1.632.311 3.187.85 4.631l7.648-7.648c2.139-2.139 5.607-2.139 7.746 0 2.139 2.14 2.139 5.607 0 7.746l-7.648 7.649c1.443.541 3 .849 4.631.849 7.305 0 13.229-5.921 13.229-13.226s-5.924-13.23-13.229-13.23" fill="#ee776c"/><g fill="#444c66"><path d="m-86.67412-168.66455c-19.845 0-35.992 16.146-35.992 35.991v56.337002c0 4.322 3.503 7.826 7.825 7.826s7.825-3.504 7.825-7.826v-26.665002c5.792 3.983002 12.797 6.322002 20.342 6.322002 19.847 0 35.994-16.147002 35.994-35.994002-.001-19.844-16.148-35.991-35.994-35.991m0 56.337c-11.217 0-20.342-9.127-20.342-20.346 0-11.217 9.125-20.344 20.342-20.344 11.218 0 20.344 9.127 20.344 20.344-.001 11.219-9.127 20.346-20.344 20.346"/><path d="m117.54588-96.678548c-4.322 0-7.826-3.504002-7.826-7.826002v-56.337c0-4.321 3.504-7.824 7.826-7.824 4.32 0 7.822 3.503 7.822 7.824v56.336c0 4.323-3.502 7.827002-7.822 7.827002"/><path d="m18.95588-168.66455c-4.321 0-7.824 3.503-7.824 7.823v28.168c0 11.217-9.1260006 20.346-20.3430006 20.346-11.2189994 0-20.3429994-9.129-20.3429994-20.346v-28.168c0-4.32-3.503-7.823-7.824-7.823-4.323 0-7.826 3.503-7.826 7.823v28.168c0 19.847 16.147 35.994002 35.9939994 35.994002 7.517 0 14.5-2.321 20.2790006-6.275002-.794 10.495002-9.5840006 18.796002-20.2790006 18.796002-4.3209994 0-7.8239994 3.5-7.8239994 7.822 0 4.32 3.503 7.822 7.8239994 7.822 19.8460006 0 35.9920006-16.146 35.9920006-35.989002v-28.17-28.168c-.001-4.32-3.505-7.823-7.826-7.823"/><path d="m96.41888-189.00955c-4.321 0-7.824 3.503-7.824 7.824v18.842c-5.792-3.983-12.799-6.321-20.345-6.321-19.845 0-35.992 16.146-35.992 35.991 0 19.847 16.146 35.994002 35.992 35.994002 19.847 0 35.991-16.147002 35.991-35.994002v-48.511c0-4.321-3.502-7.825-7.822-7.825m-28.169 76.682c-11.217 0-20.343-9.127-20.343-20.346 0-11.217 9.126-20.344 20.343-20.344 11.218 0 20.345 9.127 20.345 20.344 0 11.219-9.127 20.346-20.345 20.346"/></g><path d="m176.26488-77.939548c0 5.206-4.221 9.43-9.424 9.43-5.207 0-9.428-4.224-9.428-9.43 0-5.204 4.221-9.424 9.428-9.424 5.203 0 9.424 4.22 9.424 9.424" fill="#ee776c"/><g fill="#444c66"><path d="m146.63788-135.10655c1.053-9.016 8.195-16.383 17.18-17.688 3.117-.455 6.125-.191 8.883.643 2.744.828 5.715.154 7.74-1.871l7.664-7.664c-7.025-5.165-15.984-7.848-25.574-6.727-16.539 1.935-29.762 15.342-31.484 31.906-2.045 19.658 11.846 36.581002 30.316 39.412002v-10.873002c0-2.829-1.568-5.413-4.066-6.748-7.085-3.777-11.685-11.615-10.659-20.39"/><path d="m188.18488-146.27255c-1.994 1.994-2.734 4.923-1.904 7.618.586 1.89.9 3.9.9 5.981 0 7.809-4.418 14.596-10.887 18.005-2.473 1.302-3.979 3.906-3.979 6.702v10.871002c17.256-2.647 30.514-17.594002 30.514-35.578002 0-7.951-2.596-15.304-6.979-21.267z"/><path d="m125.36588-181.18055c0 4.32-3.502 7.82-7.82 7.82-4.32 0-7.824-3.5-7.824-7.82s3.504-7.823 7.824-7.823c4.318-.001 7.82 3.502 7.82 7.823"/></g><path d="m170.71188-128.79955c-1.068 1.068-2.471 1.603-3.871 1.603-1.402 0-2.805-.534-3.875-1.603-2.139-2.139-2.139-5.607 0-7.747l7.439-7.438c-1.129-.355-2.322-.547-3.564-.547-6.551 0-11.859 5.309-11.859 11.857 0 6.551 5.309 11.859 11.859 11.859 6.547 0 11.855-5.309 11.855-11.859 0-1.244-.191-2.439-.547-3.564z" fill="#ee776c"/></g><path d="m122.66612 301.68005h435v165h-435z" fill="none"/></svg>