<svg height="214.90289" viewBox="0 0 214.90289 214.90289" width="214.90289" xmlns="http://www.w3.org/2000/svg"><g transform="matrix(1.353082 0 0 1.353082 1211.06063 -34.11081)"><path d="m-816.29256 25.213916a15.881612 15.918136 0 0 0 -8.31714 2.13505l-53.64783 31.03382a15.881612 15.918136 0 0 0 -7.94525 13.78376v62.100154a15.881612 15.918136 0 0 0 7.94525 13.7676l53.64783 31.0582a15.881612 15.918136 0 0 0 15.88236 0l53.65597-31.0582a15.881612 15.918136 0 0 0 7.93712-13.7676v-62.100154a15.881612 15.918136 0 0 0 -7.93712-13.78376l-53.65597-31.03382a15.881612 15.918136 0 0 0 -7.56522-2.13505zm-.17228 35.10079a8.7348856 8.7549739 0 0 1 4.16363 1.16899l29.5122 17.07142a8.7348856 8.7549739 0 0 1 4.36627 7.58204v34.159124a8.7348856 8.7549739 0 0 1 -4.36627 7.56559l-29.5122 17.08767a8.7348856 8.7549739 0 0 1 -8.73053 0l-29.51323-17.08767a8.7348856 8.7549739 0 0 1 -4.36527-7.56559v-34.159124a8.7348856 8.7549739 0 0 1 4.36527-7.58204l29.51323-17.07142a8.7348856 8.7549739 0 0 1 4.5669-1.16899z" fill="#63a0ff"/><path d="m-749.2643 64.233086-30.33985 17.55078a8.7348856 8.7549739 0 0 1 1.17383 4.375v34.150394a8.7348856 8.7549739 0 0 1 -4.36523 7.57422l-29.50391 17.08008a8.7348856 8.7549739 0 0 1 -4.34961 1.16016v35.10156a15.881612 15.918136 0 0 0 7.92188-2.11914l11.93554-6.90821 15.23047 8.86329c6.81216 3.96431 17.77964 3.96431 24.5918 0l6.81055-3.9629c6.81216-3.96431 6.81216-10.34818 0-14.3125l-15.14649-8.81445 10.23438-5.92383a15.881612 15.918136 0 0 0 7.9375-13.76757v-62.091804a15.881612 15.918136 0 0 0 -2.13086-7.95508z" fill="#3874d8"/><path d="m-884.05762 64.206666 30.33395 17.55954a8.7348856 8.7549739 0 0 1 3.19291-3.20714l29.50814-17.07538a8.7348856 8.7549739 0 0 1 8.72648.003l29.51015 17.07082a8.7348856 8.7549739 0 0 1 3.17769 3.19475l30.32789-17.55009a15.881612 15.918136 0 0 0 -5.79096-5.81618l-53.66405-31.04522a15.881612 15.918136 0 0 0 -15.86414-.005l-53.64884 31.04612a15.881612 15.918136 0 0 0 -5.80922 5.82653z" fill="#99bfff"/></g></svg>