<svg height="605.07581" width="605.07581" xmlns="http://www.w3.org/2000/svg"><g transform="translate(74.5379 -.359255)"><g stroke="#fff"><path d="m205.51024 2.372568c-1.8483.130379-3.62991 1.367814-4.5625 5-1.91347 7.452478 5.95671 35.360348 9.75 48.031252-6.36094.42622-12.4315 1.07677-18.21875 1.96875l-37.53125-28.718752c.00001 0-11.11874-.95401-7.4375 8.34375 2.03228 5.132938 14.44389 15.859562 25.21875 24.531252-102.8246 27.91387-99.72036 133.70992-99.1875 133.8125h312.21825c-.00002 0-.001-140.5-158.437-140.5-.20978 0-.41579-.00049-.625 0l-14.8125-49.812502c-.00001-.000002-3.29449-2.873548-6.375-2.65625z" fill="#f00" fill-rule="evenodd" stroke-width="4"/><path d="m320.2614 90.25688s14.79271 0 14.79271 15.00507-14.79271 15.00507-14.79271 15.00507-14.79272 0-14.79272-15.00507 15.58038-14.50676 14.79272-15.00507z" fill="#fff" fill-rule="evenodd" stroke-width="1.489852"/><g stroke-width="4"><path d="m243.46363 127.95632c60 60 140 60 140 60" fill="none"/><path d="m48.2857 338.13541 157.62126-63.68312s24.06945-20.51003 12.83125-48.32555c-11.2382-27.81553-42.79947-24.66042-42.79947-24.66042l-157.62155 62.49439s-24.06947 20.51003-12.83128 48.32555c11.23821 27.81552 43.62678 26.38277 42.79979 25.84915z" fill="#f00" fill-rule="evenodd"/><path d="m205.85375 376.28044-117.45 122.90442s-13.49681 28.59784 8.19223 49.32432c21.689 20.72647 49.64515 5.94627 49.64515 5.94627l117.45-122.9044s13.49681-28.59785-8.19221-49.32432c-21.68902-20.72648-50.61848-6.0923-49.64517-5.94629z" fill="#f00" fill-rule="evenodd"/><path d="m80.79149 498.24757c-11.04569 0-20 8.95431-20 20s8.95431 20 20 20c0 11.04569 8.95431 20 20 20 0 11.04569 8.95431 20 20 20s20-8.95431 20-20-8.95431-20-20-20c0-11.04569-8.95431-20-20-20 0-11.04569-8.95431-20-20-20z"/><path d="m73.02974 200.44232c-.0517.4163-.00036 201.12458-.00037 241.12456 0 40 60 40 60 40s100 .00002 100 0v-1.15625c19.88699.00001 93.40625 0 93.40625 0-.00001.00002 59.32412-.004 59.32412-40 .00003-39.99559.0549-239.5525 0-239.96875-107.89867.00039-214.93649.00044-312.73.00044z" fill="#f00" fill-rule="evenodd"/><path d="m227.00525 389.13979v170s10 30 40 30 40-30 40-30v-170s-10-30-40-30-40.80455 30.56688-40 30z" fill="#f00" fill-rule="evenodd"/><path d="m236.91649 563.43507c-11.04569 0-20 8.95431-20 20s8.95431 20 20 20c6.55051 0 12.32068-3.16429 15.96875-8.03125 3.64736 4.87555 9.47397 8.03125 16.03125 8.03125 5.98339 0 11.30359-2.6484 14.96875-6.8125 3.66547 4.17312 9.04041 6.8125 15.03125 6.8125 11.04569 0 20-8.95431 20-20s-8.95431-20-20-20c-5.98818 0-11.36589 2.6426-15.03125 6.8125-3.66504-4.16066-8.98821-6.8125-14.96875-6.8125-6.55728 0-12.38389 3.1557-16.03125 8.03125-3.64807-4.86696-9.41824-8.03125-15.96875-8.03125z"/><path d="m250.09305 292.75478 157.62126 63.68312s31.56158 1.96637 42.79978-25.84915-12.83125-48.32556-12.83125-48.32556l-157.62125-63.68311s-31.5616-1.96637-42.7998 25.84915c-11.23819 27.81552 13.05547 49.28388 12.83126 48.32555z" fill="#f00" fill-rule="evenodd"/></g></g><g fill="#fff"><path d="m84.094109 518.41644a5 5 0 0 1 -10 0 5 5 0 1 1 10 0z"/><path d="m105.7214 540.18431a5 5 0 0 1 -10 0 5 5 0 1 1 10 0z"/><path d="m240.30767 582.1806a5 5 0 0 1 -10 0 5 5 0 1 1 10 0z"/><path d="m274.70469 583.88004a5 5 0 0 1 -10 0 5 5 0 1 1 10 0z"/><path d="m302.70098 581.98023a5 5 0 0 1 -10 0 5 5 0 1 1 10 0z"/><path d="m128.51917 559.18246a5 5 0 0 1 -10 0 5 5 0 1 1 10 0z"/></g></g></svg>