<svg height="31.875481" viewBox="0 0 31.875481 31.875482" width="31.875481" xmlns="http://www.w3.org/2000/svg" xmlns:xlink="http://www.w3.org/1999/xlink"><linearGradient id="a"><stop offset="0" stop-color="#abe3ff"/><stop offset="1" stop-color="#0e8ecb"/></linearGradient><linearGradient id="b" gradientUnits="userSpaceOnUse" x1="2.321432" x2="15.030971" xlink:href="#a" y1="9.627276" y2="22.573706"/><linearGradient id="c" gradientUnits="userSpaceOnUse" x1="-680.311095" x2="-698.212882" xlink:href="#a" y1="875.619938" y2="880.575295"/><linearGradient id="d" gradientUnits="userSpaceOnUse" x1="-690.578951" x2="-685.936095" xlink:href="#a" y1="900.307441" y2="882.584224"/><circle cx="16.38417" cy="15.357143" r="15.357144"/><g transform="translate(709.10597 -869.59316)"><path d="m-684.19251 871.83143a5.0549051 5.0549051 0 0 0 -1.50195.16797 5.0549051 5.0549051 0 0 0 -3.72461 4.48633l-9.48242 2.54101c.59171.96175.91061 2.08991.8789 3.25391l9.47461-2.53906a5.0549051 5.0549051 0 0 0 5.4707 2.02344 5.0549051 5.0549051 0 0 0 3.57422-6.19141 5.0549051 5.0549051 0 0 0 -4.68945-3.74219z" fill="url(#c)"/><path d="m-687.47571 881.90565-2.53907 9.47266a5.0549085 5.0549051 0 0 0 -.9121.15234 5.0549085 5.0549051 0 0 0 -3.57618 6.19141 5.0549085 5.0549051 0 0 0 6.19141 3.57422 5.0549085 5.0549051 0 0 0 3.57422-6.19141 5.0549085 5.0549051 0 0 0 -2.02149-2.85352l2.53907-9.48047c-1.12878.0315-2.26365-.25573-3.25586-.86523z" fill="url(#d)"/><path d="m5.2480469 7.4707031a5.0549051 5.0549051 0 0 0 -1.5019531.1699219 5.0549051 5.0549051 0 0 0 -3.5742188 6.189453 5.0549051 5.0549051 0 0 0 6.1914062 3.576172 5.0549051 5.0549051 0 0 0 .8671876-.324219l6.9394532 6.9375c.53707-.9933 1.354986-1.832209 2.378906-2.386719l-6.9335936-6.933593a5.0549051 5.0549051 0 0 0 .3222656-3.484375 5.0549051 5.0549051 0 0 0 -4.6894531-3.7441409z" fill="url(#b)" transform="translate(-708.971807 869.593154)"/></g></svg>