<svg height="321.29999" viewBox="0 0 321.29999 321.29999" width="321.29999" xmlns="http://www.w3.org/2000/svg"><g transform="translate(-39.905853 -38.800006)"><path d="m212.8 38.8h-91.2c-.2 0-.4 0-.6 0-25.3 0-45.9 20.5-45.9 45.9v229.5c0 25.3 20.5 45.9 45.9 45.9s45.9-20.5 45.9-45.9v-45.9h45.9c63.2 0 114.7-51.5 114.7-114.7s-51.5-114.8-114.7-114.8z" fill="#7dc8a2"/><path d="m121 348.6c-19 0-34.4-15.5-34.4-34.4v-229.5c0-18.9 15.3-34.3 34.2-34.4h.7 91.3c56.9 0 103.3 46.3 103.3 103.3s-46.3 103.3-103.3 103.3h-57.3v57.4c-.1 18.9-15.5 34.3-34.5 34.3z" fill="#afdbc5"/><path d="m121 337.2c-12.7 0-23-10.3-23-23v-229.5c0-12.5 10.1-22.7 22.5-23h.7 91.5c50.6 0 91.8 41.2 91.8 91.8s-41.2 91.8-91.8 91.8h-68.7v68.8c0 12.8-10.3 23.1-23 23.1z" fill="#7dc8a2"/><path d="m121 325.7c-6.4 0-11.6-5.2-11.6-11.6v-229.4c0-6.2 5-11.3 11.1-11.5h.5 91.8c44.3 0 80.4 36.1 80.4 80.4s-36 80.4-80.4 80.4h-80.2v80.3c0 6.2-5.2 11.4-11.6 11.4z" fill="#afdbc5"/><path d="m121.1 222.4h91.7c38 0 68.9-30.9 68.9-68.9s-30.9-68.9-68.9-68.9h-91.8z" fill="#7dc8a2"/><path d="m132.5 211-.1-114.9h80.3c31.7 0 57.5 25.8 57.5 57.5s-25.7 57.4-57.4 57.4z" fill="#afdbc5"/><path d="m144 199.6-.1-92h68.9c25.4 0 46 20.6 46 46s-20.6 46-46 46z" fill="#7dc8a2"/><path d="m155.4 188.1-.1-69.1h57.4c19.1 0 34.6 15.5 34.6 34.6s-15.5 34.6-34.6 34.6h-57.3z" fill="#afdbc5"/><path d="m166.9 176.7v-46.3h45.9c12.8 0 23.1 10.4 23.1 23.1s-10.4 23.1-23.1 23.1h-45.9z" fill="#7dc8a2"/><path d="m178.3 165.2v-23.4h34.5c6.4 0 11.7 5.2 11.7 11.7s-5.2 11.7-11.7 11.7z" fill="#afdbc5"/><g fill="#764d80"><circle cx="119.5" cy="84.699997" r="45.900002" transform="matrix(.8192 -.5736 .5736 .8192 -26.9642 83.8822)"/><path d="m317.7 287.8c14.5 20.8 9.5 49.4-11.3 63.9s-49.4 9.5-63.9-11.3l-68.7-98.2c-14.5-20.8-9.5-49.4 11.3-63.9s49.4-9.5 63.9 11.3z"/></g></g></svg>