<svg height="166.35301" width="166.35301" xmlns="http://www.w3.org/2000/svg"><g fill="#4300d3" stroke-width="1.65936" transform="matrix(.45439211 0 0 .45439211 -75.788771 -74.961178)"><path d="m167.46053 393.75874-.66896 92.91577 13.62577 2.71107 1.37314-32.11034s16.34673 28.70843 17.70998 31.44138c1.3633 2.73293 23.83629-.66897 23.83629-.66897s-30.05536-46.66936-27.25154-46.47549l19.78729 1.37314 9.54156-12.28784-2.74627-22.56878-17.04102-12.99201zm20.84356 15.03411h14.32994l6.79528 7.49946-6.79528 10.94991-7.49945 2.0421-6.83049-9.57677z" fill="#a40000"/><path d="m230.8516 425.85948c1.36329 2.73294.68166 61.49105.68166 61.49105s25.22069 2.73292 23.8574 0c-1.36329-2.73294 0-58.75811 0-58.75811z" fill="#ce5c00"/><path d="m232.21489 410.82833 14.31446 8.19881 8.17968-11.61498-.68166-12.29821-14.31445-2.04969-10.22458 7.51557z" fill="#f57900"/><path d="m271.75004 412.1948-.68167 20.49702 10.22461 19.81379 5.45314 14.34789-25.22069 4.78265s-3.40821 17.76408 1.36326 17.76408c4.7715 0 29.31052.68322 29.31052.68322l14.31446-15.03114.68165-16.39762-11.58789-19.13054-2.04492-12.98144 11.58789-8.1988 4.77148 8.88204 12.95115 2.0497-1.36329-32.79522-23.85739-.68324-17.041 6.83234z" fill="#edd400"/><path d="m330.37109 399.89659-.68166 87.45394 65.50596 2.0497-4.77147-15.03114-38.92201-1.36649-1.36326-13.66466 33.46887-.68325.68163-15.03111-23.92589-2.73296-2.72658-26.64612 33.46887-1.36646-2.72655-15.03115z" fill="#4e9a06"/><path d="m402.01179 396.28031 4.08984 84.03775 23.85742 8.88207 19.08593-6.1491 4.08984-8.19881.68163 12.98144s14.31448 6.1491 13.63283 0c-.68167-6.14911 2.04494-92.23659-2.72659-92.91982-4.77147-.68323-23.85739 2.04971-23.85739 2.04971l5.45313 51.92578-8.17969 10.24849-10.90626 2.73296s-6.13474-11.615-6.13474-14.34792 1.36326-51.24255 1.36326-51.24255z" fill="#204a87"/><path d="m505.60495 394.21645c-3.40822 0-33.37786 2.07731-33.37786 2.07731 0 4.09941 3.41525 93.58475 3.41525 93.58475s21.95054 1.56435 19.22395-2.53503c-2.72656-4.09941-4.54192-41.19419-4.54192-41.19419l20.06896-.66896 14.99891-6.83049 7.49946-15.03412-9.54156-22.56878s-14.33701-6.83049-17.74519-6.83049zm2.99274 17.95644 5.42214 9.54156-4.75318 10.24573-10.21052-1.33793-2.74628-17.11143z" fill="#5c3566"/></g><g transform="matrix(.4672407 0 0 .4672407 145.831413 -239.746054)"><path d="m-141.47493 683.8528-60.01866 19.5795 14.71697-59.09476-41.8382-29.66727 55.30132-5.95319 8.73596-56.21671 32.38921 55.24062 73.11213-15.63033-45.18557 52.36073 41.52514 74.89108z" fill="#fb0000"/><path d="m-141.47493 683.8528-60.01866 19.5795 69.30526-95.69131 73.11213-15.63033-45.18557 52.36073 41.52514 74.89108z"/><path d="m-141.47493 683.8528-60.01866 19.5795 14.71697-59.09476-41.8382-29.66727 55.30132-5.95319 8.73596-56.21671 32.38921 55.24062 73.11213-15.63033-45.18557 52.36073 41.52514 74.89108z" fill="none"/></g></svg>