<svg enable-background="new 0 0 166.7 43.7" height="500" viewBox="0 0 500.00001 499.99999" width="500" xmlns="http://www.w3.org/2000/svg" xmlns:xlink="http://www.w3.org/1999/xlink"><filter id="a" filterUnits="userSpaceOnUse" height="36.099998" width="35" x="6.4" y="2.2"><feColorMatrix values="1 0 0 0 0 0 1 0 0 0 0 0 1 0 0 0 0 0 1 0"/></filter><mask id="b" height="36.1" maskUnits="userSpaceOnUse" width="35" x="6.4" y="2.2"><g filter="url(#a)"><path d="m4.7-.8h37.7v41.1h-37.7z" fill="url(#c)"/></g></mask><linearGradient id="c" gradientTransform="matrix(-1 0 0 -1 5744.112 5775.334)" gradientUnits="userSpaceOnUse" x1="5700.8989" x2="5740.2881" y1="5775.3091" y2="5735.9199"><stop offset="0"/><stop offset=".003" stop-color="#010101"/><stop offset=".124" stop-color="#3c3c3c"/><stop offset=".248" stop-color="#707070"/><stop offset=".372" stop-color="#9c9c9c"/><stop offset=".496" stop-color="#c0c0c0"/><stop offset=".621" stop-color="#dbdbdb"/><stop offset=".746" stop-color="#efefef"/><stop offset=".872" stop-color="#fbfbfb"/><stop offset="1" stop-color="#fff"/></linearGradient><switch transform="translate(0 456.3)"><g fill="#303030" mask="url(#b)" transform="matrix(13.850416 0 0 13.850416 -81.024942 -486.77092)"><path d="m13.2 18.4v1.3h1.3.1 1.4 1.3 1.4v-1.4-1.4h-1.4v-1.3h-1.3v-1.4h-1.4-.1-1.3v1.4.1 1.4z"/><path d="m23.5 6h1.5v1.5h-1.5z"/><path d="m17.7 16.5h1.5v-1.5h-1.5v-1.5h-1.5v1.5h1.5z"/><path d="m20.3 15.1v.2 1.2.1 1.3h1.3.2 1.2.1 1.3 1.4v-1.4h-1.4v-1.4h-1.3v-1.3h-1.3v-1.3h-1.5v1.4z"/><path d="m22.3 11.2h1.5v1.5h-1.5z"/><path d="m29.8 3.2h1.5v1.5h-1.5z"/><path d="m23.9 12.8h1.5v1.5h-1.5z"/><path d="m37.4 4.7v-1.4h-.8v-1.1h-1.4v1.5h.7v1z"/><path d="m32.6 6.3h1.5v1.5h-1.5z"/><path d="m25.4 14.4h1.5v1.5h-1.5z"/><path d="m18.9 21.3v.1 1.2.1 1.4 1.3h1.3.1 1.2.2 1.2.1 1.4v-1.3-.2-1.3h-1.4v-1.3h-1.3v-1.4h-1.5-1.3z"/><path d="m22 19.3v1.5h1.5v1.5h1.5v-1.5h-1.5v-1.5z"/><path d="m33.6 10h1.5v1.5h-1.5z"/><path d="m31.9 13.7h-.3v-.9h-1v-.4h-1.4v-1.4h-1.4v1.4 1.4 1.2.2 1.3h1.5 1.2 1.4 1.4v-1.5h-1.4z"/><path d="m28.5 17.4h1.5v1.5h-1.5z"/><path d="m37 10h1.5v1.5h-1.5z"/><path d="m30 19h1.5v1.5h-1.5z"/><path d="m41.4 7.6h-1.5v.5h-.1v1.5h1.5v-.6h.1z"/><path d="m37.8 13.2h1.5v1.5h-1.5z"/><path d="m31.6 20.5h1.5v1.5h-1.5z"/><path d="m30.5 22.5v-1.3h-1.3v-1.3h-1.4v-1.4h-1.4v1.5 1.2.1 1.2.2 1.3h1.3.1 1.2.2 1.2.1 1.3v-1.5z"/><path d="m27.8 25.1h1.5v1.5h-1.5z"/><path d="m36.9 19.4h1.5v1.5h-1.5z"/><path d="m29.3 26.6h1.5v1.5h-1.5z"/><path d="m30 28.3h-1.3v-1.3h-1.3v-1.4h-1.5-1.3v1.5 1.2.1 1.2.2 1.3h1.4 1.2.2 1.2.1 1.3v-1.5z"/><path d="m23 32.4v-5.4h-5.4v-5.3h-5.3v-5.3h-5.9v5.8 5.4 4.8 5.9h5.9 5.3 5.4 5.8v-5.9z"/></g></switch></svg>