<svg height="399" viewBox="0 0 398.99877 398.99874" width="399" xmlns="http://www.w3.org/2000/svg"><g transform="translate(-187.65326 -381.8967)"><path d="m387.46 496.82-.19965 212.78-12.082-.62309c-34.436 32.721-114.18 32.546-134.36-3.5577-4.7203-23.465 20.948-30.023 32.442-44.505-23.734-28.947-97.438-39.35-82.765-73.898 17.397-26.551 47.197-24.995 71.175-26.317 11.89-17.878 26.232-26.881 47.481-39.658s58.784-23.693 78.31-24.226z" opacity="0" stroke-width="3.4905"/><path d="m261.6 672.63c10.212 4.8744 20.685 9.2003 31.36 12.953 14.523 5.1054 29.398 9.1436 44.313 12.953 13.137 3.3554 26.319 6.5372 39.541 9.5443-17.818 13.682-39.644 22.077-62.038 23.861-15.966 1.272-32.172-.77203-47.381-5.7948-6.291-2.0776-12.529-4.7285-17.545-9.0569-2.5079-2.1642-4.6835-4.7382-6.2352-7.6648-1.5518-2.9266-2.4674-6.2126-2.4666-9.5252.001-4.3283 1.5543-8.541 3.7496-12.271 3.8555-6.5514 9.7755-11.867 16.703-14.998" fill="#c11616" fill-rule="evenodd"/><path d="m387.37 496.77.007 5.4198-.014-.007.007-5.413zm0 0c-19.526.53321-57.062 11.445-78.311 24.222s-35.586 21.778-47.476 39.657c-23.978 1.3225-53.777-.22933-71.173 26.322-14.674 34.548 59.029 44.946 82.763 73.894-11.494 14.482-37.164 21.039-32.444 44.504 20.182 36.104 99.928 36.28 134.36 3.5587l11.031.57265 1.0499.0545v-.0349l.40225.007v.0279l5.0312-.259.0478.17732v-.18395l7.0015-.3613c34.436 32.721 114.17 32.545 134.36-3.5587 4.7203-23.465-20.943-30.022-32.437-44.504 23.734-28.947 97.437-39.345 82.763-73.894-17.397-26.551-47.195-24.999-71.173-26.322-11.89-17.878-26.234-26.88-47.483-39.657-20.781-12.495-57.092-23.182-76.948-24.147v-.075l-.0209.075c-.44064-.0209-.91905-.0635-1.343-.075z" fill="#e52e2e" fill-rule="evenodd"/><path d="m386.88 536.46c-1.9704-.11693-3.9466-.10087-5.9197-.0984-1.1675.007-2.3354.0209-3.5012.089l2.8638-2.0807c1.0836.0737 2.1705.0778 3.256.089 2.0636.003 4.1295.014 6.1909-.0984l-2.8898 2.0996z" opacity="0"/><path d="m387.12 536.94c-.11554.0314-.23212.0572-.34626.0928-.41038.1281-1.0148.348-1.3862.5102-.32322.14137-1.2494.65091-.9557.45523.5885-.39209 1.2082-.73953 1.8448-1.0476.32427-.15707-.60274.39491-.90411.59234-.3931.29704-2.1151 1.4157-1.9818 2.0659.0209.0175.0391.0604.0653.0517.0374-.014.10297-.11414.0681-.0963-1.0001.51251-1.9688 1.0852-2.9748 1.5861-.089.0443.15917-.126.21153-.21047.20629-.3316.30192-.77901.40671-1.1402.44458-1.8355.5841-3.7244.89898-5.5829.2206-.8055.41502-1.6972 1.006-2.324 3.1008-1.6738 3.053-2.7319 4.1153-.50231.70256 1.3878 1.4996 2.7224 2.1844 4.1194.90903 1.8457 1.5342 3.7996 2.1298 5.7624.39593 1.3914.73734 2.8013 1.0173 4.2209.36905 1.8422-.43097 1.6132-3.0603 2.8246-.12741.0586-.19407-.20349-.28273-.31205-.11135-.13648-.21188-.28133-.31764-.42217-1.2188-1.8158-1.9577-3.8804-2.6358-5.9427-.77255-2.4539-1.3339-4.967-1.9651-7.4594-.29983-1.0354-.14904-.54989-.44636-1.4584l2.9948-1.6319c.23247.95412.111.44664.36259 1.5228.5264 2.5149 1.0514 5.036 1.862 7.4788.69712 2.0025 1.4353 4.0329 2.7923 5.6982.11623.10925.2185.23631.34905.32811.0314.0209.14101-.0244.10995-.003-.96327.61851-1.9462 1.206-2.9193 1.809.0405-.0412.10437-.0688.12182-.12392.0454-.14415-.0174-.56322-.0279-.68047-.19407-1.4356-.49066-2.8575-.85825-4.2583-.57125-1.949-1.1976-3.886-2.1183-5.7036-.70002-1.3876-1.53-2.6966-2.3112-4.0391-.0367-.0639-.31031-.55055-.38476-.65562-.0531-.075-.11833-.17278-.222-.1822-.0314-.003-.12565.0349-.0974.0174.96767-.57202 1.947-1.1241 2.9205-1.6862-.0712.0209-.15044.0244-.21362.0635-.52584.32531-.86602 1.5386-1.0659 2.0677-.40637 1.8422-.56543 3.7224-.86568 5.583-.014.0792-.28413 1.4782-.36849 1.5314-.9497.59925-2.711 2.7504-3.6058 1.4549-.0279-.0873-.0768-.17069-.0806-.26214-.038-.86959 1.5665-1.8705 2.1272-2.3081 1.9262-1.3071 1.3262-.93294 4.693-2.7903.92711-.51146 1.9664-.91252 3.0061-1.1103l-2.8898 2.0996z" opacity="0"/><path d="m387.46 496.82-.19965 212.78-12.082-.62309c-34.436 32.721-114.18 32.546-134.36-3.5577-4.7203-23.465 20.948-30.023 32.442-44.505-23.734-28.947-97.438-39.35-82.765-73.898 17.397-26.551 47.197-24.995 71.175-26.317 11.89-17.878 26.232-26.881 47.481-39.658s58.784-23.693 78.31-24.226z" opacity="0" stroke-width="3.4905"/><path d="m386.88 536.46c-1.9704-.11693-3.9466-.10087-5.9197-.0984-1.1675.007-2.3354.0209-3.5012.089l2.8638-2.0807c1.0836.0737 2.1705.0778 3.256.089 2.0636.003 4.1295.014 6.1909-.0984l-2.8898 2.0996z" opacity="0"/><path d="m387.12 536.94c-.11554.0314-.23212.0572-.34626.0928-.41038.1281-1.0148.348-1.3862.5102-.32322.14137-1.2494.65091-.9557.45523.5885-.39209 1.2082-.73953 1.8448-1.0476.32427-.15707-.60274.39491-.90411.59234-.3931.29704-2.1151 1.4157-1.9818 2.0659.0209.0175.0391.0604.0653.0517.0374-.014.10297-.11414.0681-.0963-1.0001.51251-1.9688 1.0852-2.9748 1.5861-.089.0443.15917-.126.21153-.21047.20629-.3316.30192-.77901.40671-1.1402.44458-1.8355.5841-3.7244.89898-5.5829.2206-.8055.41502-1.6972 1.006-2.324 3.1008-1.6738 3.053-2.7319 4.1153-.50231.70256 1.3878 1.4996 2.7224 2.1844 4.1194.90903 1.8457 1.5342 3.7996 2.1298 5.7624.39593 1.3914.73734 2.8013 1.0173 4.2209.36905 1.8422-.43097 1.6132-3.0603 2.8246-.12741.0586-.19407-.20349-.28273-.31205-.11135-.13648-.21188-.28133-.31764-.42217-1.2188-1.8158-1.9577-3.8804-2.6358-5.9427-.77255-2.4539-1.3339-4.967-1.9651-7.4594-.29983-1.0354-.14904-.54989-.44636-1.4584l2.9948-1.6319c.23247.95412.111.44664.36259 1.5228.5264 2.5149 1.0514 5.036 1.862 7.4788.69712 2.0025 1.4353 4.0329 2.7923 5.6982.11623.10925.2185.23631.34905.32811.0314.0209.14101-.0244.10995-.003-.96327.61851-1.9462 1.206-2.9193 1.809.0405-.0412.10437-.0688.12182-.12392.0454-.14415-.0174-.56322-.0279-.68047-.19407-1.4356-.49066-2.8575-.85825-4.2583-.57125-1.949-1.1976-3.886-2.1183-5.7036-.70002-1.3876-1.53-2.6966-2.3112-4.0391-.0367-.0639-.31031-.55055-.38476-.65562-.0531-.075-.11833-.17278-.222-.1822-.0314-.003-.12565.0349-.0974.0174.96767-.57202 1.947-1.1241 2.9205-1.6862-.0712.0209-.15044.0244-.21362.0635-.52584.32531-.86602 1.5386-1.0659 2.0677-.40637 1.8422-.56543 3.7224-.86568 5.583-.014.0792-.28413 1.4782-.36849 1.5314-.9497.59925-2.711 2.7504-3.6058 1.4549-.0279-.0873-.0768-.17069-.0806-.26214-.038-.86959 1.5665-1.8705 2.1272-2.3081 1.9262-1.3071 1.3262-.93294 4.693-2.7903.92711-.51146 1.9664-.91252 3.0061-1.1103l-2.8898 2.0996z" opacity="0"/><path d="m387.46 496.82-.19965 212.78-12.082-.62309c-34.436 32.721-114.18 32.546-134.36-3.5577-4.7203-23.465 20.948-30.023 32.442-44.505-23.734-28.947-97.438-39.35-82.765-73.898 17.397-26.551 47.197-24.995 71.175-26.317 11.89-17.878 26.232-26.881 47.481-39.658s58.784-23.693 78.31-24.226z" opacity="0" stroke-width="3.4905"/><path d="m386.88 536.46c-1.9704-.11693-3.9466-.10087-5.9197-.0984-1.1675.007-2.3354.0209-3.5012.089l2.8638-2.0807c1.0836.0737 2.1705.0778 3.256.089 2.0636.003 4.1295.014 6.1909-.0984l-2.8898 2.0996z" opacity="0"/><path d="m387.12 536.94c-.11554.0314-.23212.0572-.34626.0928-.41038.1281-1.0148.348-1.3862.5102-.32322.14137-1.2494.65091-.9557.45523.5885-.39209 1.2082-.73953 1.8448-1.0476.32427-.15707-.60274.39491-.90411.59234-.3931.29704-2.1151 1.4157-1.9818 2.0659.0209.0175.0391.0604.0653.0517.0374-.014.10297-.11414.0681-.0963-1.0001.51251-1.9688 1.0852-2.9748 1.5861-.089.0443.15917-.126.21153-.21047.20629-.3316.30192-.77901.40671-1.1402.44458-1.8355.5841-3.7244.89898-5.5829.2206-.8055.41502-1.6972 1.006-2.324 3.1008-1.6738 3.053-2.7319 4.1153-.50231.70256 1.3878 1.4996 2.7224 2.1844 4.1194.90903 1.8457 1.5342 3.7996 2.1298 5.7624.39593 1.3914.73734 2.8013 1.0173 4.2209.36905 1.8422-.43097 1.6132-3.0603 2.8246-.12741.0586-.19407-.20349-.28273-.31205-.11135-.13648-.21188-.28133-.31764-.42217-1.2188-1.8158-1.9577-3.8804-2.6358-5.9427-.77255-2.4539-1.3339-4.967-1.9651-7.4594-.29983-1.0354-.14904-.54989-.44636-1.4584l2.9948-1.6319c.23247.95412.111.44664.36259 1.5228.5264 2.5149 1.0514 5.036 1.862 7.4788.69712 2.0025 1.4353 4.0329 2.7923 5.6982.11623.10925.2185.23631.34905.32811.0314.0209.14101-.0244.10995-.003-.96327.61851-1.9462 1.206-2.9193 1.809.0405-.0412.10437-.0688.12182-.12392.0454-.14415-.0174-.56322-.0279-.68047-.19407-1.4356-.49066-2.8575-.85825-4.2583-.57125-1.949-1.1976-3.886-2.1183-5.7036-.70002-1.3876-1.53-2.6966-2.3112-4.0391-.0367-.0639-.31031-.55055-.38476-.65562-.0531-.075-.11833-.17278-.222-.1822-.0314-.003-.12565.0349-.0974.0174.96767-.57202 1.947-1.1241 2.9205-1.6862-.0712.0209-.15044.0244-.21362.0635-.52584.32531-.86602 1.5386-1.0659 2.0677-.40637 1.8422-.56543 3.7224-.86568 5.583-.014.0792-.28413 1.4782-.36849 1.5314-.9497.59925-2.711 2.7504-3.6058 1.4549-.0279-.0873-.0768-.17069-.0806-.26214-.038-.86959 1.5665-1.8705 2.1272-2.3081 1.9262-1.3071 1.3262-.93294 4.693-2.7903.92711-.51146 1.9664-.91252 3.0061-1.1103l-2.8898 2.0996z" opacity="0"/><path d="m387.46 496.82-.19965 212.78-12.082-.62309c-34.436 32.721-114.18 32.546-134.36-3.5577-4.7203-23.465 20.948-30.023 32.442-44.505-23.734-28.947-97.438-39.35-82.765-73.898 17.397-26.551 47.197-24.995 71.175-26.317 11.89-17.878 26.232-26.881 47.481-39.658s58.784-23.693 78.31-24.226z" opacity="0" stroke-width="3.4905"/><path d="m386.88 536.46c-1.9704-.11693-3.9466-.10087-5.9197-.0984-1.1675.007-2.3354.0209-3.5012.089l2.8638-2.0807c1.0836.0737 2.1705.0778 3.256.089 2.0636.003 4.1295.014 6.1909-.0984l-2.8898 2.0996z" opacity="0"/><path d="m387.12 536.94c-.11554.0314-.23212.0572-.34626.0928-.41038.1281-1.0148.348-1.3862.5102-.32322.14137-1.2494.65091-.9557.45523.5885-.39209 1.2082-.73953 1.8448-1.0476.32427-.15707-.60274.39491-.90411.59234-.3931.29704-2.1151 1.4157-1.9818 2.0659.0209.0175.0391.0604.0653.0517.0374-.014.10297-.11414.0681-.0963-1.0001.51251-1.9688 1.0852-2.9748 1.5861-.089.0443.15917-.126.21153-.21047.20629-.3316.30192-.77901.40671-1.1402.44458-1.8355.5841-3.7244.89898-5.5829.2206-.8055.41502-1.6972 1.006-2.324 3.1008-1.6738 3.053-2.7319 4.1153-.50231.70256 1.3878 1.4996 2.7224 2.1844 4.1194.90903 1.8457 1.5342 3.7996 2.1298 5.7624.39593 1.3914.73734 2.8013 1.0173 4.2209.36905 1.8422-.43097 1.6132-3.0603 2.8246-.12741.0586-.19407-.20349-.28273-.31205-.11135-.13648-.21188-.28133-.31764-.42217-1.2188-1.8158-1.9577-3.8804-2.6358-5.9427-.77255-2.4539-1.3339-4.967-1.9651-7.4594-.29983-1.0354-.14904-.54989-.44636-1.4584l2.9948-1.6319c.23247.95412.111.44664.36259 1.5228.5264 2.5149 1.0514 5.036 1.862 7.4788.69712 2.0025 1.4353 4.0329 2.7923 5.6982.11623.10925.2185.23631.34905.32811.0314.0209.14101-.0244.10995-.003-.96327.61851-1.9462 1.206-2.9193 1.809.0405-.0412.10437-.0688.12182-.12392.0454-.14415-.0174-.56322-.0279-.68047-.19407-1.4356-.49066-2.8575-.85825-4.2583-.57125-1.949-1.1976-3.886-2.1183-5.7036-.70002-1.3876-1.53-2.6966-2.3112-4.0391-.0367-.0639-.31031-.55055-.38476-.65562-.0531-.075-.11833-.17278-.222-.1822-.0314-.003-.12565.0349-.0974.0174.96767-.57202 1.947-1.1241 2.9205-1.6862-.0712.0209-.15044.0244-.21362.0635-.52584.32531-.86602 1.5386-1.0659 2.0677-.40637 1.8422-.56543 3.7224-.86568 5.583-.014.0792-.28413 1.4782-.36849 1.5314-.9497.59925-2.711 2.7504-3.6058 1.4549-.0279-.0873-.0768-.17069-.0806-.26214-.038-.86959 1.5665-1.8705 2.1272-2.3081 1.9262-1.3071 1.3262-.93294 4.693-2.7903.92711-.51146 1.9664-.91252 3.0061-1.1103l-2.8898 2.0996z" opacity="0"/></g><g fill-rule="evenodd"><g fill="#c11616" transform="translate(-187.76869 -381.8967)"><path d="m513.06 672.41c-10.212 4.8744-20.685 9.2003-31.36 12.953-14.523 5.1054-29.398 9.1436-44.313 12.953-13.137 3.3554-26.319 6.5372-39.541 9.5443 17.818 13.682 39.644 22.077 62.038 23.861 15.966 1.272 32.172-.77203 47.381-5.7948 6.291-2.0776 12.529-4.7285 17.545-9.0569 2.5079-2.1642 4.6834-4.7382 6.2352-7.6648s2.4674-6.2126 2.4666-9.5252c-.001-4.3283-1.5543-8.541-3.7496-12.271-3.8555-6.5514-9.7755-11.867-16.703-14.998"/><path d="m261.6 672.63c10.212 4.8744 20.685 9.2003 31.36 12.953 14.523 5.1054 29.398 9.1436 44.313 12.953 13.137 3.3554 26.319 6.5372 39.541 9.5443-17.818 13.682-39.644 22.077-62.038 23.861-15.966 1.272-32.172-.77203-47.381-5.7948-6.291-2.0776-12.529-4.7285-17.545-9.0569-2.5079-2.1642-4.6835-4.7382-6.2352-7.6648-1.5518-2.9266-2.4674-6.2126-2.4666-9.5252.001-4.3283 1.5543-8.541 3.7496-12.271 3.8555-6.5514 9.7755-11.867 16.703-14.998"/></g><g fill="#da1616" transform="translate(-187.65326 -381.8967)"><path d="m263.8 564.82c3.005 10.552 4.7886 21.451 5.3039 32.41.49362 10.498-.17611 21.049-1.993 31.4-11.606 3.8406-24.277 4.4066-36.18 1.6163-11.903-2.7904-23.002-8.9288-31.692-17.528-2.8498-2.8198-5.4675-5.9314-7.2821-9.5063s-2.7922-7.6537-2.2622-11.628c.646-4.844 3.4922-9.2025 7.1532-12.44 3.6611-3.237 8.1021-5.461 12.617-7.3308 17.07-7.069 36.031-9.5098 54.334-6.9946"/><path d="m520.54 562.1c-2.2127-.0373-6.9843.55938-9.1958.64567-2.2197 11.262-3.876 22.07-4.8344 33.509-.89259 10.653.93793 21.656 1.1494 32.344 11.577 3.8862 24.686 4.1996 36.585 1.4492s22.997-8.8592 31.694-17.432c2.8564-2.8155 5.485-5.9208 7.3014-9.4966s2.7861-7.6634 2.2429-11.637c-.66106-4.8364-3.5226-9.1742-7.1855-12.401-3.6629-3.2266-8.0951-5.4539-12.585-7.3696-14.249-6.0797-29.683-9.3504-45.172-9.6125z"/></g><g opacity=".546"><path d="m94.678 439.6c-.23973.00005-.47907.009-.71875.0137h-1.4785c.0019.0176.004.0351.0059.0527-7.481.40281-14.852 2.8385-21.068 7.0254-2.1039 1.4172-4.0869 3.0371-5.7266 4.9727s-2.9298 4.2001-3.541 6.6621c-.52109 2.0989-.53234 4.3604.22852 6.3848.52867 1.4066 1.4176 2.6669 2.5059 3.7031 1.0882 1.0362 2.3736 1.8533 3.7383 2.4824 2.7293 1.2582 5.7381 1.7603 8.7148 2.1738 6.4436.89516 12.936 1.4324 19.439 1.6094l-.0098-.71093h.01953l-.0098.71093c6.5031-.177 12.998-.71421 19.441-1.6094 2.9768-.41354 5.9855-.91567 8.7148-2.1738 1.3647-.62909 2.65-1.4462 3.7383-2.4824 1.0882-1.0362 1.9752-2.2965 2.5039-3.7031.76086-2.0244.74961-4.2858.22852-6.3848-.61123-2.462-1.8994-4.7265-3.5391-6.6621s-3.6246-3.5555-5.7285-4.9727c-6.3227-4.2589-13.84-6.7106-21.453-7.0488v-.0293h-1.1289c-.4518-.008-.9036-.007-1.3555 0h-2.8438c-.22594-.004-.45179-.0137-.67774-.0137z" fill="#d41c1c" transform="matrix(3.4905 0 0 3.4905 -138.18769 -1374.8167)"/><g fill="#b00202" transform="matrix(3.4905 0 0 3.4905 -138.593595 -1376.403897)"><path d="m62.438 465.01-12.207.30665 8.0879 4.125 5.6797 4.709-3.1387 3.4375c4.2607 2.3547 8.7041 4.3809 13.275 6.0547 4.368 1.5993 8.868 2.8801 13.473 3.5391 6.3125.63448 12.656.81615 18.506 0 4.6046-.65897 9.1047-1.9398 13.473-3.5391 4.5713-1.6738 9.0146-3.7 13.275-6.0547l-3.1367-3.4375 5.6777-4.709 8.0879-4.125-12.133-.30664c-3.8941 3.281-8.4789 5.734-13.367 7.1602-6.0487 1.7647-12.426 1.9428-18.717 2.2949-1.6602.1863-3.2822.0895-4.8262 0-6.291-.35214-12.668-.53026-18.717-2.2949-4.8882-1.4261-9.3989-3.8792-13.293-7.1602z"/><path d="m62.438 465.01-12.207.30665 8.0879 4.125 5.6797 4.709-3.1387 3.4375c4.2607 2.3547 8.7041 4.3809 13.275 6.0547 4.368 1.5993 8.868 2.8801 13.473 3.5391 6.3125.63448 12.656.81615 18.506 0 4.6046-.65897 9.1047-1.9398 13.473-3.5391 4.5713-1.6738 9.0146-3.7 13.275-6.0547l-3.1367-3.4375 5.6777-4.709 8.0879-4.125-12.133-.30664c-3.8941 3.281-8.4789 5.734-13.367 7.1602-6.0487 1.7647-12.426 1.9428-18.717 2.2949-1.6602.1863-3.2822.0895-4.8262 0-6.291-.35214-12.668-.53026-18.717-2.2949-4.8882-1.4261-9.3989-3.8792-13.293-7.1602z"/></g></g><g fill="#930000" transform="translate(-187.76869 -381.8967)"><path d="m361.98 602.88c6.4495-5.4711-8.1956-32.826-27.525-32.69-15.747.65196-34.666 28.789-24.82 33.201 9.8462 4.412 18.767-17.019 29.171-14.516 6.9598 3.4816 18.386 18.066 23.174 14.005z"/><path d="m412.79 602.88c-6.4495-5.4711 8.1956-32.826 27.525-32.69 15.747.65196 34.666 28.789 24.82 33.201-9.8462 4.412-18.767-17.019-29.171-14.516-6.9598 3.4816-18.386 18.066-23.174 14.005z"/><path d="m361.98 602.88c6.4495-5.4711-8.1956-32.826-27.525-32.69-15.747.65196-34.666 28.789-24.82 33.201 9.8462 4.412 18.767-17.019 29.171-14.516 6.9598 3.4816 18.386 18.066 23.174 14.005z"/><path d="m412.79 602.88c-6.4495-5.4711 8.1956-32.826 27.525-32.69 15.747.65196 34.666 28.789 24.82 33.201-9.8462 4.412-18.767-17.019-29.171-14.516-6.9598 3.4816-18.386 18.066-23.174 14.005z"/><path d="m361.98 602.88c6.4495-5.4711-8.1956-32.826-27.525-32.69-15.747.65196-34.666 28.789-24.82 33.201 9.8462 4.412 18.767-17.019 29.171-14.516 6.9598 3.4816 18.386 18.066 23.174 14.005z"/><path d="m412.79 602.88c-6.4495-5.4711 8.1956-32.826 27.525-32.69 15.747.65196 34.666 28.789 24.82 33.201-9.8462 4.412-18.767-17.019-29.171-14.516-6.9598 3.4816-18.386 18.066-23.174 14.005z"/><path d="m361.98 602.88c6.4495-5.4711-8.1956-32.826-27.525-32.69-15.747.65196-34.666 28.789-24.82 33.201 9.8462 4.412 18.767-17.019 29.171-14.516 6.9598 3.4816 18.386 18.066 23.174 14.005z"/><path d="m412.79 602.88c-6.4495-5.4711 8.1956-32.826 27.525-32.69 15.747.65196 34.666 28.789 24.82 33.201-9.8462 4.412-18.767-17.019-29.171-14.516-6.9598 3.4816-18.386 18.066-23.174 14.005z"/></g></g><g transform="translate(-187.65326 -381.8967)"><ellipse cx="41.897999" cy="547.78998" opacity="0" rx="39.062" ry="25.781"/><ellipse cx="35.257" cy="569.27002" opacity="0" rx="34.765999" ry="27.733999"/><ellipse cx="114.45" cy="441.82001" opacity="0" rx="101.95" ry="37.890999"/><ellipse cx="-917.03003" cy="541.91998" opacity="0" rx="320.41" ry="311.57001"/><ellipse cx="-355.76001" cy="696.59998" opacity="0" rx="165.73" ry="227.60001"/><ellipse cx="-671.75" cy="183.95" opacity="0" rx="176.78" ry="236.44"/><ellipse cx="-155.78" cy="554.07001" opacity="0" rx="57.452" ry="111.59"/><path d="m367.23 502.62c3.9834-3.2546 7.2986-7.3233 9.6815-11.882 3.1428-6.0123 4.6424-12.873 4.2946-19.649-.34777-6.7752-2.542-13.447-6.2839-19.106 6.3635 2.0353 11.965 6.3674 15.536 12.014 2.5094 3.9688 4.0247 8.5608 4.3703 13.244 1.5093-1.9436 2.4769-4.3035 2.7664-6.7472.29102-2.4566-.10417-4.9908-1.1293-7.2421-1.0252-2.2513-2.6773-4.2132-4.7214-5.6064 5.4047 2.5686 10.041 6.7294 13.177 11.826 3.0525 4.9608 4.6754 10.79 4.6253 16.615-.05 5.8245-1.7728 11.625-4.9101 16.533h-37.406" fill="#e52e2e" fill-rule="evenodd"/><path d="m367.85 503.34c4.4742-5.0146 7.8772-10.98 9.9165-17.384 1.2771-4.0105 1.9846-8.2323 1.7284-12.433-.25623-4.2011-1.5438-8.2628-2.9777-12.22l-3.2595-8.9955c3.8659.78002 7.5795 2.3076 10.875 4.4735 4.3665 2.8696 7.9864 6.8648 10.413 11.492l-.15428-10.875c7.7807 5.4919 13.216 14.199 14.732 23.602.61314 3.8028.61006 7.6822.34871 11.525-.24535 3.6077-.71698 7.2001-1.4112 10.749" fill="none" stroke="#930000" stroke-width="6.981"/><path d="m398.03 468.1c.0729 1.7579-.1535 3.5279-.66651 5.2109-.80066 2.6266-2.3072 5.0344-4.3193 6.9031.28982-1.8497.2768-3.7464-.0384-5.5919-.28525-1.6702-.81752-3.2979-1.5741-4.814l6.5983-1.7081" fill="#930000" fill-rule="evenodd"/><ellipse cx="43.312" cy="664.46002" opacity="0" rx="39.062" ry="25.781"/><ellipse cx="36.671001" cy="685.95001" opacity="0" rx="34.765999" ry="27.733999"/></g><g fill-rule="evenodd" transform="translate(-187.65326 -381.8967)"><g fill="#d61616"><path d="m401.11 500.26c-.47061.59438-1.1376 1.0047-1.8319 1.3092-.69426.30458-1.4258.51463-2.134.78513-1.2348.47163-2.4198 1.133-3.7292 1.3143-1.2883.17839-2.6392-.14165-3.7105-.87906s-1.8526-1.885-2.146-3.152c-.29337-1.2671-.096-2.6413.54226-3.7745.63821-1.1332 1.711-2.0144 2.9466-2.4204 1.7872-.60393 3.7315-.73593 5.5838-.3791.83434.16072 1.6538.42054 2.4024.82252.74857.40199 1.4255.9495 1.9298 1.6333.50432.68382.83075 1.5071.87566 2.3556.0449.84849-.20153 1.7188-.72897 2.385"/><path d="m333.96 525.12-1.2206 1.4375c-.48862.14602-1.0265.12109-1.4996-.0695-.3607-.14533-.68287-.38509-.92565-.68887-.24279-.30378-.40562-.67088-.46787-1.0547-.0622-.38387-.0237-.78361.11062-1.1485.13435-.36493.36426-.69421.66055-.94607.32374-.55602.91713-.94638 1.5559-1.0236.42143-.0509.85787.0305 1.2326.22985.37476.19938.68613.51586.8794.8938.19326.37794.26755.81566.2098 1.2362-.0577.42055-.24727.82203-.53526 1.1339v.00007"/><path d="m385.06 487.45 1.9641 1.2689c.39152.71147 1.1546 1.2044 1.9641 1.2688.41235.0328.83146-.0399 1.2128-.20032.38129-.16039.72465-.40744 1.0056-.71103.56192-.60718.86288-1.4313.9041-2.2576.0412-.82627-.16568-1.6534-.51834-2.4018-.35266-.74836-.84747-1.4225-1.3954-2.0423-.81757-.92479-1.8156-1.7676-3.0217-2.0301-.90549-.19706-1.8833-.0396-2.6812.43172-.79786.47133-1.4077 1.2518-1.6721 2.1399-.2644.88817-.1807 1.875.22949 2.706.41019.83095 1.1427 1.4976 2.0086 1.8278"/><path d="m388.87 515.22 1.8716.84477c.47859.51476 1.169.82638 1.8716.8448.60653.0159 1.2165-.18435 1.6956-.55663.47911-.37228.82385-.9139.95829-1.5056.13444-.59166.0576-1.2291-.21357-1.7718-.27119-.54277-.73475-.98696-1.2886-1.2347-.30092-.47146-.73765-.85513-1.244-1.0928-.5063-.23767-1.0805-.32855-1.6354-.25886-.51334.0645-1.0089.26568-1.4218.57734-.41298.31166-.74238.73301-.94517 1.209-.20279.47598-.27848 1.0054-.21716 1.5192.0613.51373.25948 1.0105.5686 1.4254"/><path d="m367.52 519 2.5159 1.013c.63065.69028 1.5829 1.0737 2.5159 1.013.54343-.0354 1.0768-.21552 1.5303-.51694.45355-.30142.82621-.72336 1.0693-1.2107.24307-.48732.35595-1.0388.32389-1.5825-.0321-.54363-.20897-1.078-.50763-1.5334-.46159-.78772-1.1985-1.4105-2.0522-1.7342-.85365-.32379-1.8182-.34637-2.6861-.0629-.92672.30268-1.7352.95348-2.2288 1.7942-.4936.8407-.66795 1.8638-.48068 2.8205"/><path d="m425.76 524.43-.9817 1.7886c-.7045.22337-1.489.18396-2.1676-.1089-.92448-.39899-1.6276-1.2745-1.8178-2.2633-.19013-.98879.1382-2.0626.84878-2.776.2426-.41994.60102-.77219 1.0251-1.0074.4241-.23526.91268-.35287 1.3974-.33637.53392.0182 1.0612.19977 1.493.51425.43186.31447.76656.76052.94775 1.2631.1812.50256.20816 1.0596.0763 1.5773-.13182.51771-.42187.99399-.82135 1.3487v.00011"/><path d="m442.01 532.88-.64875 1.3591c-.32738.38745-.85716.59346-1.3603.52895-.31132-.0399-.60922-.17867-.84009-.3913-.23087-.21264-.39362-.49813-.45897-.80512-.0653-.30699-.033-.63402.0913-.92225.12425-.28822.33982-.53627.60789-.69952.0451-.41944.28753-.81341.64158-1.0428s.81268-.2896 1.2139-.15938c.41421.13442.7581.46954.90317.88014.14508.4106.0881.88737-.14978 1.2522"/></g><g fill="#c11616"><path d="m555.78 595.39c-.58443.61967-1.3144 1.1012-2.1141 1.3946-.49062.71288-1.2656 1.2241-2.114 1.3946-1.0787.21673-2.2393-.12572-3.0779-.83808-.83856-.71237-1.3572-1.7687-1.4852-2.8616-.12794-1.0928.12113-2.2149.63028-3.1903.50915-.97541 1.2702-1.8078 2.1498-2.4688.53681-.40346 1.1224-.7477 1.7544-.97476.63197-.22707 1.3121-.33464 1.98-.26534.8365.0868 1.6384.45459 2.2633 1.0175.62482.56291 1.0718 1.3164 1.2855 2.1298.21368.81339.19581 1.6837-.032 2.4932-.22781.80955-.6631 1.5574-1.2401 2.1692"/><path d="m539.27 622.54c.58187 1.5526 1.7381 2.9109 3.2455 3.6017.87959.40309 1.8595.57492 2.826.52999.96651-.0449 1.919-.30389 2.7911-.72301 1.8132-.87143 3.2718-2.4558 3.9907-4.3346.71891-1.8789.69043-4.0322-.0779-5.8914-.88109-1.2168-2.1461-2.1512-3.5681-2.6358-1.422-.48453-2.9944-.51686-4.4351-.0912-1.9134.56533-3.5703 1.9502-4.4635 3.7343-.89318 1.7841-1.0088 3.9417-.30868 5.81"/><path d="m535.92 574.3-1.0755.95239c-.29653.37936-.663.70388-1.0754.95234-1.0434.62854-2.3838.73642-3.5143.28285s-2.0246-1.458-2.3442-2.6334c-.31961-1.1754-.0572-2.4943.68791-3.4579.74513-.96358 1.9556-1.5494 3.1736-1.5357.94761-.40308 2.0731-.36313 2.9898.10611.92557.47381 1.6201 1.3766 1.8408 2.3927.22065 1.0161-.0369 2.1256-.68258 2.9407"/><path d="m528.42 596.99 2.8611 2.7748c1.3128.16192 2.6825-.19362 3.7508-.97363.82253-.60055 1.4646-1.445 1.8235-2.3981.35886-.95311.43314-2.0114.21095-3.0052-.62193-.6902-1.4415-1.2003-2.3354-1.4535-.8939-.25323-1.8592-.24878-2.7508.0127-1.0654.31245-2.0187.99401-2.6591 1.901-.64033.90702-.96343 2.0335-.9012 3.142"/><path d="m565.78 582.67 4.4313 1.7043c.51406.65231 1.2064 1.1627 1.9815 1.4608.77516.29814 1.6311.38321 2.4498.2435.98243-.16766 1.9064-.66137 2.5918-1.3849.68539-.72354 1.1284-1.6729 1.2426-2.6629.11424-.99006-.10091-2.0153-.6035-2.8759-.5026-.86062-1.2898-1.5518-2.2083-1.9388-.43155-.99264-1.1541-1.8567-2.0547-2.4571-.90059-.6004-1.9761-.93504-3.0583-.95162-1.032-.0158-2.0669.25698-2.957.77942-.8901.52245-1.6328 1.293-2.1221 2.2018-.48932.90873-.72381 1.953-.67002 2.9837.0538 1.0307.39571 2.0448.97697 2.8977"/><path d="m567.47 612.85 1.8932 2.9915c.65822.67934 1.6335 1.0378 2.575.94634.63002-.0612 1.2398-.31702 1.7248-.7237.48506-.40667.84335-.96245 1.0135-1.5721.17015-.60968.15144-1.2707-.0529-1.8698-.20437-.59908-.59353-1.1337-1.1008-1.5123-.36051-.68236-.97504-1.2267-1.6959-1.5022-.72088-.27553-1.5418-.27983-2.2656-.0119-.64864.24015-1.2154.69577-1.5894 1.2776-.37395.58187-.55295 1.2867-.50196 1.9765"/></g><g fill="#b31616"><path d="m440.01 719.11-1.6451 2.9148c-1.0396.35657-2.1964.36157-3.239.014-.86304-.2877-1.6454-.81344-2.2378-1.5038-.59244-.69039-.9933-1.5435-1.1466-2.4402-.15333-.89672-.0587-1.8345.27068-2.6826.32938-.84801.8926-1.6038 1.611-2.1619.36667-.67948.91279-1.2611 1.5679-1.6697.65509-.40865 1.4176-.64337 2.1891-.67388.96773-.0383 1.9455.24872 2.739.80393.79355.55522 1.3982 1.3754 1.6939 2.2977.29569.92225.28066 1.9412-.0421 2.8543-.32276.91313-.95138 1.7152-1.761 2.2467v.00076-.00004"/><path d="m488.6 712.35-2.506 2.954c-.61212.91227-1.519 1.6234-2.5509 2.0003-1.0319.37692-2.1836.41769-3.2396.1147-1.6718-.47967-3.0604-1.8473-3.5654-3.5116-.50503-1.6643-.11066-3.573 1.0126-4.9008.38825-1.3155 1.2713-2.4786 2.4342-3.2059 1.1628-.72738 2.595-1.0126 3.9478-.78608 1.6011.26805 3.0667 1.2596 3.9111 2.6461s1.0528 3.1437.55625 4.6893"/><path d="m506.51 708.59 3.3002-2.7082c1.0559-.4186 2.292-.35598 3.3002.16719 1.0727.55667 1.864 1.6268 2.0818 2.8156.21778 1.1888-.1427 2.4699-.94842 3.3707-.20415.9547-.7374 1.8358-1.4885 2.4595-.75109.62369-1.7152.98594-2.6911 1.0112-.82905.0214-1.6629-.19816-2.3739-.62516-.71095-.427-1.2966-1.06-1.6671-1.8019-.37057-.74193-.52483-1.5903-.43915-2.4152.0857-.82489.41102-1.6235.92616-2.2734v-.00028"/><path d="m516.61 684.76-4.2167-2.4191c-1.2694-.46096-2.7133-.4212-3.9554.1089-1.0253.43756-1.9039 1.1967-2.5227 2.124-.61878.92725-.98068 2.0177-1.0835 3.1277-.20572 2.22.62501 4.4556 1.9759 6.2293 1.0455 1.3726 2.4358 2.5255 4.0758 3.0617 1.5617.51064 3.3091.4298 4.817-.22284s2.7628-1.8712 3.4595-3.3593c.69664-1.4881.82876-3.2323.36421-4.8084-.46455-1.576-1.5216-2.9698-2.914-3.8421v.00014"/><path d="m462.69 721.77-2.4216-1.0929c-.77692-.11414-1.5892.0266-2.2824.39555-.84342.44886-1.5005 1.2362-1.7912 2.1463-.29073.91012-.21177 1.9325.21524 2.7872.45489.57408 1.0795 1.012 1.7742 1.244.69475.23198 1.4571.25718 2.1657.0716 1.1217-.29381 2.0876-1.1308 2.5379-2.1993.45037-1.0685.37507-2.3444-.19786-3.3524"/><path d="m264.74 678.43-2.4217-1.0929c-.7769-.11413-1.5891.0266-2.2823.39554-.84342.44886-1.5005 1.2362-1.7912 2.1463-.29074.91011-.21179 1.9325.21522 2.7872.45489.57409 1.0795 1.012 1.7742 1.244.69475.23198 1.4571.25718 2.1657.0716 1.1217-.29381 2.0876-1.1308 2.5379-2.1993.45036-1.0685.37506-2.3444-.19786-3.3524"/><path d="m326.37 719.34-1.8121 2.9148c-1.1385.42163-2.4261.42668-3.5678.014-.84451-.30525-1.6071-.83402-2.189-1.5179-.58197-.68387-.98194-1.5212-1.1482-2.4037-.16622-.88246-.0983-1.8079.19501-2.6567.29329-.84874.81124-1.6187 1.4868-2.2103.41245-.72263 1.0228-1.331 1.7469-1.741.72402-.41001 1.5597-.62057 2.3915-.6026.93718.0203 1.866.33221 2.6254.88178.75939.54957 1.346 1.3343 1.6582 2.2182.31216.88389.34847 1.863.10264 2.7676-.24583.90459-.77273 1.7307-1.4893 2.335v.00073"/><path d="m280.71 724.22 4.4313 2.8656c.40494.8309 1.0404 1.548 1.8166 2.0499.77617.50193 1.6908.78727 2.6147.81568 1.1243.0346 2.257-.3156 3.1656-.97869.90864-.66309 1.5876-1.635 1.8976-2.7163.31001-1.0813.24914-2.2653-.17013-3.3091-.41928-1.0438-1.1943-1.9409-2.1662-2.5073-.37314-1.4456-1.2971-2.7417-2.542-3.5659-1.2448-.82417-2.7989-1.1686-4.2754-.94764-1.8122.27122-3.4757 1.4059-4.3895 2.9941-.91386 1.5882-1.0589 3.5966-.38266 5.2996"/><path d="m344.79 709.92c-.47684.19223-.93942.41983-1.3827.6803-.44473.26134-.88098.56042-1.3827.6803-.54088.12924-1.1324.0305-1.602-.26743-.46957-.29791-.81093-.79105-.92441-1.3354-.11349-.54441.002-1.1329.31382-1.5936.31142-.46072.81426-.78762 1.3617-.88525.21728-.35862.53585-.65511.90912-.84611.37327-.19101.8001-.27594 1.2181-.24237.42243.0339.83446.18885 1.1746.44165.34013.2528.60728.60267.76156.99738s.19521.83299.11667 1.2494c-.0785.41645-.2763.80973-.56375 1.1211"/><path d="m252.89 705.24-4.4313 3.6326c-1.4176.56269-3.0777.47874-4.4313-.22409-1.4385-.74692-2.4996-2.1821-2.792-3.7764-.29239-1.5943.19032-3.3126 1.2702-4.5214.27471-1.2812.99105-2.4634 1.9996-3.2999 1.0085-.83655 2.3027-1.3221 3.6126-1.3553 1.1118-.0282 2.23.26662 3.1834.8393.95341.57268 1.7389 1.4213 2.2363 2.4161.49738.99476.705 2.1323.5911 3.2386s-.54894 2.1777-1.2386 3.0503v.00018"/><path d="m282.02 696.21 2.4052-1.7951c.44673-.9402 1.3768-1.6343 2.4053-1.7951.58593-.0916 1.1946-.0174 1.748.19576.55342.21316 1.0513.56333 1.4524 1.0002.80219.87367 1.1983 2.0759 1.209 3.262.0108 1.186-.34252 2.3558-.88527 3.4104s-1.2707 2.0031-2.044 2.9024c-1.0305 1.1982-2.2061 2.3575-3.7004 2.8723-1.3542.46648-2.9008.34117-4.1622-.33722-1.2614-.67838-2.2186-1.8997-2.576-3.2866-.35737-1.387-.10952-2.9188.66699-4.1223.7765-1.2035 2.07-2.0606 3.481-2.3066"/></g><g fill="#c11616"><path d="m232.95 602.37c.64351.54764 1.4195.91334 2.1141 1.3946.69615.48235 1.3242 1.0888 2.114 1.3946.54254.21008 1.1422.26549 1.7163.17168.57418-.0938 1.122-.33526 1.5869-.68502.92982-.69953 1.5022-1.8225 1.6238-2.9797.12164-1.1572-.18606-2.3388-.76726-3.3468s-1.4254-1.8491-2.3768-2.5189c-1.0941-.77018-2.3999-1.3362-3.7344-1.2401-.86384.0622-1.7037.40691-2.3681.96254-.66436.55562-1.1511 1.3185-1.3837 2.1528-.23268.83424-.21164 1.7361.0509 2.5615.26257.82532.76462 1.5716 1.4242 2.1329"/><path d="m227.7 621.35c-.62866.48827-1.3823.78877-2.143 1.0233-.76066.23456-1.5399.40978-2.2883.68101-1.4923.54083-2.8626 1.4623-4.4313 1.7043-1.2829.19797-2.6352-.0941-3.722-.8039-1.0868-.70978-1.8979-1.8306-2.2324-3.0849-.33446-1.2542-.18915-2.6301.39994-3.7868.58908-1.1567 1.6164-2.0834 2.8275-2.5505 1.7382-1.8314 4.2956-2.8544 6.8174-2.727 1.1532.0583 2.3004.34919 3.3148.90074 1.0144.55156 1.8918 1.3684 2.464 2.3713.57217 1.0029.82943 2.1925.66532 3.3354-.1641 1.1429-.76004 2.2286-1.6719 2.9368"/><path d="m239.09 571.22 1.0755.95239c.29654.37936.66301.70388 1.0755.95234 1.0434.62853 2.3838.73641 3.5143.28284s2.0246-1.458 2.3442-2.6334.0572-2.4943-.6879-3.4579c-.74512-.96358-1.9556-1.5494-3.1736-1.5357-.94761-.40307-2.0731-.36313-2.9898.10611-.92557.47381-1.6201 1.3766-1.8408 2.3927-.22066 1.0161.0369 2.1256.68255 2.9407"/><path d="m258.92 624.4-1.7626.68379c-.45047.46943-1.1134.7266-1.7626.68375-.46401-.0306-.91704-.21026-1.276-.50595-.3589-.29569-.62192-.70596-.74078-1.1555-.11886-.44958-.093-.93623.0729-1.3707.16588-.43444.47093-.8145.85917-1.0704.29613-.42168.71621-.75518 1.1941-.94797.47785-.19278 1.0118-.24415 1.5176-.14602.8083.15681 1.5307.70721 1.8964 1.4449.3657.7377.36638 1.6459.002 2.3841"/><path d="m256.49 591.13-1.9471 1.9832c-.86595.27319-1.834.20739-2.655-.18046-.96005-.45353-1.7014-1.3467-1.9703-2.3739-.26892-1.0272-.0604-2.1691.55429-3.0349.38544-.55238.93314-.99008 1.5569-1.2442.62378-.25415 1.3214-.32384 1.9831-.19811 1.0671.20275 2.0215.92998 2.5002 1.905.47864.97505.47021 2.1749-.0221 3.1432v.00014"/><path d="m208.98 582.67-4.4313 1.7043c-.51406.65231-1.2064 1.1627-1.9815 1.4608-.77516.29814-1.6311.38321-2.4498.2435-.98243-.16766-1.9064-.66137-2.5918-1.3849-.68539-.72354-1.1284-1.6729-1.2426-2.6629-.11424-.99006.10091-2.0153.6035-2.8759.5026-.86062 1.2898-1.5518 2.2083-1.9388.43155-.99264 1.1541-1.8567 2.0547-2.4571.90059-.6004 1.9761-.93504 3.0583-.95162 1.032-.0158 2.0669.25698 2.957.77942.8901.52245 1.6328 1.293 2.1221 2.2018.48932.90873.72381 1.953.67002 2.9837-.0538 1.0307-.39571 2.0448-.97697 2.8977"/><path d="m200.42 605.02-1.8932 2.9915c-.65822.67935-1.6335 1.0378-2.575.94635-.63002-.0612-1.2398-.31702-1.7248-.72369-.48507-.40668-.84336-.96246-1.0135-1.5721-.17016-.60969-.15145-1.2707.0529-1.8698.20437-.59908.59353-1.1337 1.1008-1.5123.36052-.68236.97505-1.2267 1.6959-1.5022.72088-.27553 1.5418-.27983 2.2656-.0119.64864.24016 1.2154.69577 1.5894 1.2776.37395.58186.55295 1.2867.50196 1.9765"/><path d="m210.29 594.74 3.8309 1.7043c.32987.68459.90856 1.2459 1.6029 1.5548.6943.30889 1.4987.36288 2.2281.14953.83614-.24458 1.5548-.83125 2.0195-1.5681.46469-.73689.68333-1.6153.68688-2.4865.007-1.7423-.8129-3.3877-1.8223-4.8079-.55139-.77579-1.1689-1.5117-1.9026-2.1179-.73371-.60626-1.5893-1.0807-2.5176-1.2908-1.1037-.24971-2.2914-.11022-3.3073.3884-1.0158.49863-1.8527 1.3529-2.3302 2.3788-.47756 1.0259-.59251 2.2163-.32008 3.3146s.93036 2.097 1.832 2.7808"/></g><g fill="#d61616"><path d="m350.43 513.77-1.9438.92429c-.4973.54179-1.2097.88051-1.9438.92424-.67703.0403-1.3661-.16905-1.9063-.5792-.54016-.41015-.92693-1.0177-1.0699-1.6807-.143-.66298-.041-1.376.28201-1.9723.32307-.59634.8646-1.0712 1.4981-1.3135.30816-.49834.75829-.9078 1.2835-1.1675.52521-.25974 1.1238-.36893 1.7069-.31135.56879.0562 1.1211.27068 1.5787.61314.4576.34245.81916.81187 1.0334 1.3417.21429.52987.28069 1.1186.18979 1.6829-.0909.56428-.33884 1.1024-.70868 1.5382"/><path d="m418.46 512.65-2.4316.96338c-.62143.65018-1.5335 1.0115-2.4316.96338-.65875-.0353-1.3043-.28536-1.8149-.703-.51067-.41764-.88382-1.0007-1.0492-1.6394-.16533-.63864-.12199-1.3295.12187-1.9425.24385-.61297.68695-1.1448 1.2458-1.4954.40594-.586.98385-1.0513 1.643-1.3229.65912-.27158 1.3971-.34844 2.098-.2185 1.1422.21174 2.1648.99088 2.6721 2.036.50729 1.0451.48686 2.3305-.0534 3.3589"/><path d="m389.46 527.5-1.2292 1.7912c-.35313.34678-.79614.60126-1.2736.73159-.47747.13034-.98833.13624-1.4687.017-.91204-.22644-1.6939-.9225-2.0244-1.8022-.33051-.87969-.20039-1.9184.33691-2.6894.38062-.72336 1.0664-1.2797 1.8528-1.503.78631-.22324 1.6622-.11028 2.3661.30515.52919.31231.9593.78978 1.2148 1.3486.25553.55882.33533 1.1965.22539 1.801"/></g><path d="m518.45 609.75 1.5254 2.1068c.72135-.0327 1.4306-.29491 1.9998-.73925.59872-.46738 1.0388-1.1344 1.233-1.8687.19414-.73431.14122-1.5317-.14827-2.2339-.29613-.42169-.71622-.75519-1.1941-.94798-.47786-.19278-1.0118-.24415-1.5176-.14601-.8083.15682-1.5307.70722-1.8964 1.4449-.3657.7377-.36639 1.6459-.002 2.3841" fill="#c11616"/><g fill="#d61616"><path d="m401.11 500.26c-.47061.59438-1.1376 1.0047-1.8319 1.3092-.69426.30458-1.4258.51463-2.134.78513-1.2348.47163-2.4198 1.133-3.7292 1.3143-1.2883.17839-2.6392-.14165-3.7105-.87906s-1.8526-1.885-2.146-3.152c-.29337-1.2671-.096-2.6413.54226-3.7745.63821-1.1332 1.711-2.0144 2.9466-2.4204 1.7872-.60393 3.7315-.73593 5.5838-.3791.83434.16072 1.6538.42054 2.4024.82252.74857.40199 1.4255.9495 1.9298 1.6333.50432.68382.83075 1.5071.87566 2.3556.0449.84849-.20153 1.7188-.72897 2.385"/><path d="m333.96 525.12-1.2206 1.4375c-.48862.14602-1.0265.12109-1.4996-.0695-.3607-.14533-.68287-.38509-.92565-.68887-.24279-.30378-.40562-.67088-.46787-1.0547-.0622-.38387-.0237-.78361.11062-1.1485.13435-.36493.36426-.69421.66055-.94607.32374-.55602.91713-.94638 1.5559-1.0236.42143-.0509.85787.0305 1.2326.22985.37476.19938.68613.51586.8794.8938.19326.37794.26755.81566.2098 1.2362-.0577.42055-.24727.82203-.53526 1.1339v.00007"/><path d="m385.06 487.45 1.9641 1.2689c.39152.71147 1.1546 1.2044 1.9641 1.2688.41235.0328.83146-.0399 1.2128-.20032.38129-.16039.72465-.40744 1.0056-.71103.56192-.60718.86288-1.4313.9041-2.2576.0412-.82627-.16568-1.6534-.51834-2.4018-.35266-.74836-.84747-1.4225-1.3954-2.0423-.81757-.92479-1.8156-1.7676-3.0217-2.0301-.90549-.19706-1.8833-.0396-2.6812.43172-.79786.47133-1.4077 1.2518-1.6721 2.1399-.2644.88817-.1807 1.875.22949 2.706.41019.83095 1.1427 1.4976 2.0086 1.8278"/><path d="m388.87 515.22 1.8716.84477c.47859.51476 1.169.82638 1.8716.8448.60653.0159 1.2165-.18435 1.6956-.55663.47911-.37228.82385-.9139.95829-1.5056.13444-.59166.0576-1.2291-.21357-1.7718-.27119-.54277-.73475-.98696-1.2886-1.2347-.30092-.47146-.73765-.85513-1.244-1.0928-.5063-.23767-1.0805-.32855-1.6354-.25886-.51334.0645-1.0089.26568-1.4218.57734-.41298.31166-.74238.73301-.94517 1.209-.20279.47598-.27848 1.0054-.21716 1.5192.0613.51373.25948 1.0105.5686 1.4254"/><path d="m367.52 519 2.5159 1.013c.63065.69028 1.5829 1.0737 2.5159 1.013.54343-.0354 1.0768-.21552 1.5303-.51694.45355-.30142.82621-.72336 1.0693-1.2107.24307-.48732.35595-1.0388.32389-1.5825-.0321-.54363-.20897-1.078-.50763-1.5334-.46159-.78772-1.1985-1.4105-2.0522-1.7342-.85365-.32379-1.8182-.34637-2.6861-.0629-.92672.30268-1.7352.95348-2.2288 1.7942-.4936.8407-.66795 1.8638-.48068 2.8205"/><path d="m425.76 524.43-.9817 1.7886c-.7045.22337-1.489.18396-2.1676-.1089-.92448-.39899-1.6276-1.2745-1.8178-2.2633-.19013-.98879.1382-2.0626.84878-2.776.2426-.41994.60102-.77219 1.0251-1.0074.4241-.23526.91268-.35287 1.3974-.33637.53392.0182 1.0612.19977 1.493.51425.43186.31447.76656.76052.94775 1.2631.1812.50256.20816 1.0596.0763 1.5773-.13182.51771-.42187.99399-.82135 1.3487v.00011"/><path d="m442.01 532.88-.64875 1.3591c-.32738.38745-.85716.59346-1.3603.52895-.31132-.0399-.60922-.17867-.84009-.3913-.23087-.21264-.39362-.49813-.45897-.80512-.0653-.30699-.033-.63402.0913-.92225.12425-.28822.33982-.53627.60789-.69952.0451-.41944.28753-.81341.64158-1.0428s.81268-.2896 1.2139-.15938c.41421.13442.7581.46954.90317.88014.14508.4106.0881.88737-.14978 1.2522"/></g><g fill="#c11616"><path d="m555.78 595.39c-.58443.61967-1.3144 1.1012-2.1141 1.3946-.49062.71288-1.2656 1.2241-2.114 1.3946-1.0787.21673-2.2393-.12572-3.0779-.83808-.83856-.71237-1.3572-1.7687-1.4852-2.8616-.12794-1.0928.12113-2.2149.63028-3.1903.50915-.97541 1.2702-1.8078 2.1498-2.4688.53681-.40346 1.1224-.7477 1.7544-.97476.63197-.22707 1.3121-.33464 1.98-.26534.8365.0868 1.6384.45459 2.2633 1.0175.62482.56291 1.0718 1.3164 1.2855 2.1298.21368.81339.19581 1.6837-.032 2.4932-.22781.80955-.6631 1.5574-1.2401 2.1692"/><path d="m539.27 622.54c.58187 1.5526 1.7381 2.9109 3.2455 3.6017.87959.40309 1.8595.57492 2.826.52999.96651-.0449 1.919-.30389 2.7911-.72301 1.8132-.87143 3.2718-2.4558 3.9907-4.3346.71891-1.8789.69043-4.0322-.0779-5.8914-.88109-1.2168-2.1461-2.1512-3.5681-2.6358-1.422-.48453-2.9944-.51686-4.4351-.0912-1.9134.56533-3.5703 1.9502-4.4635 3.7343-.89318 1.7841-1.0088 3.9417-.30868 5.81"/><path d="m535.92 574.3-1.0755.95239c-.29653.37936-.663.70388-1.0754.95234-1.0434.62854-2.3838.73642-3.5143.28285s-2.0246-1.458-2.3442-2.6334c-.31961-1.1754-.0572-2.4943.68791-3.4579.74513-.96358 1.9556-1.5494 3.1736-1.5357.94761-.40308 2.0731-.36313 2.9898.10611.92557.47381 1.6201 1.3766 1.8408 2.3927.22065 1.0161-.0369 2.1256-.68258 2.9407"/><path d="m528.42 596.99 2.8611 2.7748c1.3128.16192 2.6825-.19362 3.7508-.97363.82253-.60055 1.4646-1.445 1.8235-2.3981.35886-.95311.43314-2.0114.21095-3.0052-.62193-.6902-1.4415-1.2003-2.3354-1.4535-.8939-.25323-1.8592-.24878-2.7508.0127-1.0654.31245-2.0187.99401-2.6591 1.901-.64033.90702-.96343 2.0335-.9012 3.142"/><path d="m565.78 582.67 4.4313 1.7043c.51406.65231 1.2064 1.1627 1.9815 1.4608.77516.29814 1.6311.38321 2.4498.2435.98243-.16766 1.9064-.66137 2.5918-1.3849.68539-.72354 1.1284-1.6729 1.2426-2.6629.11424-.99006-.10091-2.0153-.6035-2.8759-.5026-.86062-1.2898-1.5518-2.2083-1.9388-.43155-.99264-1.1541-1.8567-2.0547-2.4571-.90059-.6004-1.9761-.93504-3.0583-.95162-1.032-.0158-2.0669.25698-2.957.77942-.8901.52245-1.6328 1.293-2.1221 2.2018-.48932.90873-.72381 1.953-.67002 2.9837.0538 1.0307.39571 2.0448.97697 2.8977"/><path d="m567.47 612.85 1.8932 2.9915c.65822.67934 1.6335 1.0378 2.575.94634.63002-.0612 1.2398-.31702 1.7248-.7237.48506-.40667.84335-.96245 1.0135-1.5721.17015-.60968.15144-1.2707-.0529-1.8698-.20437-.59908-.59353-1.1337-1.1008-1.5123-.36051-.68236-.97504-1.2267-1.6959-1.5022-.72088-.27553-1.5418-.27983-2.2656-.0119-.64864.24015-1.2154.69577-1.5894 1.2776-.37395.58187-.55295 1.2867-.50196 1.9765"/></g><g fill="#b31616"><path d="m440.01 719.11-1.6451 2.9148c-1.0396.35657-2.1964.36157-3.239.014-.86304-.2877-1.6454-.81344-2.2378-1.5038-.59244-.69039-.9933-1.5435-1.1466-2.4402-.15333-.89672-.0587-1.8345.27068-2.6826.32938-.84801.8926-1.6038 1.611-2.1619.36667-.67948.91279-1.2611 1.5679-1.6697.65509-.40865 1.4176-.64337 2.1891-.67388.96773-.0383 1.9455.24872 2.739.80393.79355.55522 1.3982 1.3754 1.6939 2.2977.29569.92225.28066 1.9412-.0421 2.8543-.32276.91313-.95138 1.7152-1.761 2.2467v.00076-.00004"/><path d="m488.6 712.35-2.506 2.954c-.61212.91227-1.519 1.6234-2.5509 2.0003-1.0319.37692-2.1836.41769-3.2396.1147-1.6718-.47967-3.0604-1.8473-3.5654-3.5116-.50503-1.6643-.11066-3.573 1.0126-4.9008.38825-1.3155 1.2713-2.4786 2.4342-3.2059 1.1628-.72738 2.595-1.0126 3.9478-.78608 1.6011.26805 3.0667 1.2596 3.9111 2.6461s1.0528 3.1437.55625 4.6893"/><path d="m506.51 708.59 3.3002-2.7082c1.0559-.4186 2.292-.35598 3.3002.16719 1.0727.55667 1.864 1.6268 2.0818 2.8156.21778 1.1888-.1427 2.4699-.94842 3.3707-.20415.9547-.7374 1.8358-1.4885 2.4595-.75109.62369-1.7152.98594-2.6911 1.0112-.82905.0214-1.6629-.19816-2.3739-.62516-.71095-.427-1.2966-1.06-1.6671-1.8019-.37057-.74193-.52483-1.5903-.43915-2.4152.0857-.82489.41102-1.6235.92616-2.2734v-.00028"/><path d="m516.61 684.76-4.2167-2.4191c-1.2694-.46096-2.7133-.4212-3.9554.1089-1.0253.43756-1.9039 1.1967-2.5227 2.124-.61878.92725-.98068 2.0177-1.0835 3.1277-.20572 2.22.62501 4.4556 1.9759 6.2293 1.0455 1.3726 2.4358 2.5255 4.0758 3.0617 1.5617.51064 3.3091.4298 4.817-.22284s2.7628-1.8712 3.4595-3.3593c.69664-1.4881.82876-3.2323.36421-4.8084-.46455-1.576-1.5216-2.9698-2.914-3.8421v.00014"/><path d="m462.69 721.77-2.4216-1.0929c-.77692-.11414-1.5892.0266-2.2824.39555-.84342.44886-1.5005 1.2362-1.7912 2.1463-.29073.91012-.21177 1.9325.21524 2.7872.45489.57408 1.0795 1.012 1.7742 1.244.69475.23198 1.4571.25718 2.1657.0716 1.1217-.29381 2.0876-1.1308 2.5379-2.1993.45037-1.0685.37507-2.3444-.19786-3.3524"/><path d="m264.74 678.43-2.4217-1.0929c-.7769-.11413-1.5891.0266-2.2823.39554-.84342.44886-1.5005 1.2362-1.7912 2.1463-.29074.91011-.21179 1.9325.21522 2.7872.45489.57409 1.0795 1.012 1.7742 1.244.69475.23198 1.4571.25718 2.1657.0716 1.1217-.29381 2.0876-1.1308 2.5379-2.1993.45036-1.0685.37506-2.3444-.19786-3.3524"/><path d="m326.37 719.34-1.8121 2.9148c-1.1385.42163-2.4261.42668-3.5678.014-.84451-.30525-1.6071-.83402-2.189-1.5179-.58197-.68387-.98194-1.5212-1.1482-2.4037-.16622-.88246-.0983-1.8079.19501-2.6567.29329-.84874.81124-1.6187 1.4868-2.2103.41245-.72263 1.0228-1.331 1.7469-1.741.72402-.41001 1.5597-.62057 2.3915-.6026.93718.0203 1.866.33221 2.6254.88178.75939.54957 1.346 1.3343 1.6582 2.2182.31216.88389.34847 1.863.10264 2.7676-.24583.90459-.77273 1.7307-1.4893 2.335v.00073"/><path d="m280.71 724.22 4.4313 2.8656c.40494.8309 1.0404 1.548 1.8166 2.0499.77617.50193 1.6908.78727 2.6147.81568 1.1243.0346 2.257-.3156 3.1656-.97869.90864-.66309 1.5876-1.635 1.8976-2.7163.31001-1.0813.24914-2.2653-.17013-3.3091-.41928-1.0438-1.1943-1.9409-2.1662-2.5073-.37314-1.4456-1.2971-2.7417-2.542-3.5659-1.2448-.82417-2.7989-1.1686-4.2754-.94764-1.8122.27122-3.4757 1.4059-4.3895 2.9941-.91386 1.5882-1.0589 3.5966-.38266 5.2996"/><path d="m344.79 709.92c-.47684.19223-.93942.41983-1.3827.6803-.44473.26134-.88098.56042-1.3827.6803-.54088.12924-1.1324.0305-1.602-.26743-.46957-.29791-.81093-.79105-.92441-1.3354-.11349-.54441.002-1.1329.31382-1.5936.31142-.46072.81426-.78762 1.3617-.88525.21728-.35862.53585-.65511.90912-.84611.37327-.19101.8001-.27594 1.2181-.24237.42243.0339.83446.18885 1.1746.44165.34013.2528.60728.60267.76156.99738s.19521.83299.11667 1.2494c-.0785.41645-.2763.80973-.56375 1.1211"/><path d="m252.89 705.24-4.4313 3.6326c-1.4176.56269-3.0777.47874-4.4313-.22409-1.4385-.74692-2.4996-2.1821-2.792-3.7764-.29239-1.5943.19032-3.3126 1.2702-4.5214.27471-1.2812.99105-2.4634 1.9996-3.2999 1.0085-.83655 2.3027-1.3221 3.6126-1.3553 1.1118-.0282 2.23.26662 3.1834.8393.95341.57268 1.7389 1.4213 2.2363 2.4161.49738.99476.705 2.1323.5911 3.2386s-.54894 2.1777-1.2386 3.0503v.00018"/><path d="m282.02 696.21 2.4052-1.7951c.44673-.9402 1.3768-1.6343 2.4053-1.7951.58593-.0916 1.1946-.0174 1.748.19576.55342.21316 1.0513.56333 1.4524 1.0002.80219.87367 1.1983 2.0759 1.209 3.262.0108 1.186-.34252 2.3558-.88527 3.4104s-1.2707 2.0031-2.044 2.9024c-1.0305 1.1982-2.2061 2.3575-3.7004 2.8723-1.3542.46648-2.9008.34117-4.1622-.33722-1.2614-.67838-2.2186-1.8997-2.576-3.2866-.35737-1.387-.10952-2.9188.66699-4.1223.7765-1.2035 2.07-2.0606 3.481-2.3066"/></g><g fill="#c11616"><path d="m232.95 602.37c.64351.54764 1.4195.91334 2.1141 1.3946.69615.48235 1.3242 1.0888 2.114 1.3946.54254.21008 1.1422.26549 1.7163.17168.57418-.0938 1.122-.33526 1.5869-.68502.92982-.69953 1.5022-1.8225 1.6238-2.9797.12164-1.1572-.18606-2.3388-.76726-3.3468s-1.4254-1.8491-2.3768-2.5189c-1.0941-.77018-2.3999-1.3362-3.7344-1.2401-.86384.0622-1.7037.40691-2.3681.96254-.66436.55562-1.1511 1.3185-1.3837 2.1528-.23268.83424-.21164 1.7361.0509 2.5615.26257.82532.76462 1.5716 1.4242 2.1329"/><path d="m227.7 621.35c-.62866.48827-1.3823.78877-2.143 1.0233-.76066.23456-1.5399.40978-2.2883.68101-1.4923.54083-2.8626 1.4623-4.4313 1.7043-1.2829.19797-2.6352-.0941-3.722-.8039-1.0868-.70978-1.8979-1.8306-2.2324-3.0849-.33446-1.2542-.18915-2.6301.39994-3.7868.58908-1.1567 1.6164-2.0834 2.8275-2.5505 1.7382-1.8314 4.2956-2.8544 6.8174-2.727 1.1532.0583 2.3004.34919 3.3148.90074 1.0144.55156 1.8918 1.3684 2.464 2.3713.57217 1.0029.82943 2.1925.66532 3.3354-.1641 1.1429-.76004 2.2286-1.6719 2.9368"/><path d="m239.09 571.22 1.0755.95239c.29654.37936.66301.70388 1.0755.95234 1.0434.62853 2.3838.73641 3.5143.28284s2.0246-1.458 2.3442-2.6334.0572-2.4943-.6879-3.4579c-.74512-.96358-1.9556-1.5494-3.1736-1.5357-.94761-.40307-2.0731-.36313-2.9898.10611-.92557.47381-1.6201 1.3766-1.8408 2.3927-.22066 1.0161.0369 2.1256.68255 2.9407"/><path d="m258.92 624.4-1.7626.68379c-.45047.46943-1.1134.7266-1.7626.68375-.46401-.0306-.91704-.21026-1.276-.50595-.3589-.29569-.62192-.70596-.74078-1.1555-.11886-.44958-.093-.93623.0729-1.3707.16588-.43444.47093-.8145.85917-1.0704.29613-.42168.71621-.75518 1.1941-.94797.47785-.19278 1.0118-.24415 1.5176-.14602.8083.15681 1.5307.70721 1.8964 1.4449.3657.7377.36638 1.6459.002 2.3841"/><path d="m256.49 591.13-1.9471 1.9832c-.86595.27319-1.834.20739-2.655-.18046-.96005-.45353-1.7014-1.3467-1.9703-2.3739-.26892-1.0272-.0604-2.1691.55429-3.0349.38544-.55238.93314-.99008 1.5569-1.2442.62378-.25415 1.3214-.32384 1.9831-.19811 1.0671.20275 2.0215.92998 2.5002 1.905.47864.97505.47021 2.1749-.0221 3.1432v.00014"/><path d="m208.98 582.67-4.4313 1.7043c-.51406.65231-1.2064 1.1627-1.9815 1.4608-.77516.29814-1.6311.38321-2.4498.2435-.98243-.16766-1.9064-.66137-2.5918-1.3849-.68539-.72354-1.1284-1.6729-1.2426-2.6629-.11424-.99006.10091-2.0153.6035-2.8759.5026-.86062 1.2898-1.5518 2.2083-1.9388.43155-.99264 1.1541-1.8567 2.0547-2.4571.90059-.6004 1.9761-.93504 3.0583-.95162 1.032-.0158 2.0669.25698 2.957.77942.8901.52245 1.6328 1.293 2.1221 2.2018.48932.90873.72381 1.953.67002 2.9837-.0538 1.0307-.39571 2.0448-.97697 2.8977"/><path d="m200.42 605.02-1.8932 2.9915c-.65822.67935-1.6335 1.0378-2.575.94635-.63002-.0612-1.2398-.31702-1.7248-.72369-.48507-.40668-.84336-.96246-1.0135-1.5721-.17016-.60969-.15145-1.2707.0529-1.8698.20437-.59908.59353-1.1337 1.1008-1.5123.36052-.68236.97505-1.2267 1.6959-1.5022.72088-.27553 1.5418-.27983 2.2656-.0119.64864.24016 1.2154.69577 1.5894 1.2776.37395.58186.55295 1.2867.50196 1.9765"/><path d="m210.29 594.74 3.8309 1.7043c.32987.68459.90856 1.2459 1.6029 1.5548.6943.30889 1.4987.36288 2.2281.14953.83614-.24458 1.5548-.83125 2.0195-1.5681.46469-.73689.68333-1.6153.68688-2.4865.007-1.7423-.8129-3.3877-1.8223-4.8079-.55139-.77579-1.1689-1.5117-1.9026-2.1179-.73371-.60626-1.5893-1.0807-2.5176-1.2908-1.1037-.24971-2.2914-.11022-3.3073.3884-1.0158.49863-1.8527 1.3529-2.3302 2.3788-.47756 1.0259-.59251 2.2163-.32008 3.3146s.93036 2.097 1.832 2.7808"/></g><g fill="#d61616"><path d="m350.43 513.77-1.9438.92429c-.4973.54179-1.2097.88051-1.9438.92424-.67703.0403-1.3661-.16905-1.9063-.5792-.54016-.41015-.92693-1.0177-1.0699-1.6807-.143-.66298-.041-1.376.28201-1.9723.32307-.59634.8646-1.0712 1.4981-1.3135.30816-.49834.75829-.9078 1.2835-1.1675.52521-.25974 1.1238-.36893 1.7069-.31135.56879.0562 1.1211.27068 1.5787.61314.4576.34245.81916.81187 1.0334 1.3417.21429.52987.28069 1.1186.18979 1.6829-.0909.56428-.33884 1.1024-.70868 1.5382"/><path d="m418.46 512.65-2.4316.96338c-.62143.65018-1.5335 1.0115-2.4316.96338-.65875-.0353-1.3043-.28536-1.8149-.703-.51067-.41764-.88382-1.0007-1.0492-1.6394-.16533-.63864-.12199-1.3295.12187-1.9425.24385-.61297.68695-1.1448 1.2458-1.4954.40594-.586.98385-1.0513 1.643-1.3229.65912-.27158 1.3971-.34844 2.098-.2185 1.1422.21174 2.1648.99088 2.6721 2.036.50729 1.0451.48686 2.3305-.0534 3.3589"/><path d="m389.46 527.5-1.2292 1.7912c-.35313.34678-.79614.60126-1.2736.73159-.47747.13034-.98833.13624-1.4687.017-.91204-.22644-1.6939-.9225-2.0244-1.8022-.33051-.87969-.20039-1.9184.33691-2.6894.38062-.72336 1.0664-1.2797 1.8528-1.503.78631-.22324 1.6622-.11028 2.3661.30515.52919.31231.9593.78978 1.2148 1.3486.25553.55882.33533 1.1965.22539 1.801"/></g><path d="m518.45 609.75 1.5254 2.1068c.72135-.0327 1.4306-.29491 1.9998-.73925.59872-.46738 1.0388-1.1344 1.233-1.8687.19414-.73431.14122-1.5317-.14827-2.2339-.29613-.42169-.71622-.75519-1.1941-.94798-.47786-.19278-1.0118-.24415-1.5176-.14601-.8083.15682-1.5307.70722-1.8964 1.4449-.3657.7377-.36639 1.6459-.002 2.3841" fill="#c11616"/></g><g fill="#f05959" transform="translate(-187.76869 -381.8967)"><path d="m411.93 511.91-4.043 11.731c6.8378 1.8752 13.559 4.1751 20.112 6.8822 7.4981 3.0974 14.776 6.728 21.76 10.855l5.1541-11.078c-6.4942-3.4907-13.135-6.7083-19.899-9.6416-7.5523-3.275-15.258-6.1954-23.084-8.7484" fill-rule="evenodd" opacity=".55"/><a transform="matrix(3.6223 .67417 -.029219 3.6732 47.869 -1146.1)"><path d="m117.18 435.36-1.3906 3.268 4.228 1.6907.8687-3.3565z" fill="#f05959" fill-rule="evenodd" opacity=".505"/></a></g><g fill-rule="evenodd"><path d="m62.438 465.01-12.207.30665 8.0879 4.125 5.6797 4.709-3.1387 3.4375c4.2607 2.3547 8.7041 4.3809 13.275 6.0547 4.368 1.5993 8.868 2.8801 13.473 3.5391 6.3125.63448 12.656.81615 18.506 0 4.6046-.65897 9.1047-1.9398 13.473-3.5391 4.5713-1.6738 9.0146-3.7 13.275-6.0547l-3.1367-3.4375 5.6777-4.709 8.0879-4.125-12.133-.30664c-3.8941 3.281-8.4789 5.734-13.367 7.1602-6.0487 1.7647-12.426 1.9428-18.717 2.2949-1.6602.1863-3.2822.0895-4.8262 0-6.291-.35214-12.668-.53026-18.717-2.2949-4.8882-1.4261-9.3989-3.8792-13.293-7.1602z" fill="#b00202" transform="matrix(3.4905 0 0 3.4905 -138.593595 -1376.403897)"/><g fill="#930000" transform="translate(-187.65326 -381.8967)"><path d="m373.67 498.3c-20.05.55223-45.856 9.6668-67.213 22.619-19.988 12.122-34.202 21.299-45.919 38.331-11.129.56065-23.726.59946-35.976 3.6293-12.773 3.159-25.176 9.8008-34.101 23.54l-.1651.25306-.11902.27959c-3.9747 9.4387-1.7936 18.243 3.8095 25.052 5.6032 6.8092 14.228 12.21 23.828 17.427 18.052 9.8099 39.342 19.166 50.62 31.005-5.2475 5.3506-13.333 10.41-20.395 16.375-3.9928 3.3727-7.5777 7.1423-9.5602 11.907-1.9825 4.7644-2.0866 10.472.42916 16.542 4.2734 10.31 13.047 17.752 23.92 22.568 10.873 4.8161 23.939 7.1202 37.521 7.2253 26.557.20489 55.009-8.0023 72.764-24.166 9.8536.95437 19.454.47715 28.628 0 17.755 16.164 46.208 24.372 72.765 24.166 13.582-.10506 26.648-2.4092 37.521-7.2253s19.647-12.258 23.92-22.568c2.5157-6.0697 2.4116-11.777.42915-16.542-1.9826-4.7644-5.5675-8.534-9.5602-11.907-7.0616-5.9649-15.147-11.024-20.395-16.375 11.278-11.84 32.568-21.196 50.62-31.005 9.6001-5.2168 18.225-10.618 23.828-17.427 5.6032-6.809 7.7842-15.613 3.8095-25.052l-.11833-.27959-.16475-.25306c-8.9255-13.74-21.328-20.381-34.101-23.54-12.25-3.0298-24.848-3.0686-35.976-3.6293-11.718-17.032-25.931-26.208-45.919-38.331-21.357-12.953-42.905-21.743-62.956-22.295-1.3626 6.2333-.66302 3.1291-1.3626 6.2333 24.298.42043 37.87 12.121 60.832 21.909 20.554 12.466 33.798 20.854 44.909 37.705l.93748 1.4184 1.6902.0998c11.761.65423 24.565.62857 36.24 3.5161 11.56 2.8591 21.903 8.39 29.796 20.337 2.9944 7.2998 1.6321 12.397-2.8192 17.807-4.5021 5.4711-12.492 10.706-21.834 15.782-18.683 10.153-42.583 19.56-55.037 34.881l-1.7232 2.1242 1.6902 2.1576c6.2742 7.9736 16.54 13.383 23.716 19.445 3.588 3.0309 6.3343 6.1243 7.6653 9.323 1.331 3.1986 1.5254 6.5517-.42912 11.267-3.4517 8.3279-10.639 14.635-20.401 18.959-9.7627 4.3243-22.012 6.5467-34.86 6.6459-25.698.19861-53.713-8.2371-69.417-23.287l-1.0498-1.0055c-11.296.59171-22.339.51736-33.117 0l-1.0498 1.0055c-15.704 15.05-43.719 23.486-69.417 23.287-12.849-.0991-25.098-2.3216-34.86-6.6459-9.7627-4.3243-16.95-10.631-20.401-18.959-1.9545-4.7157-1.7601-8.0688-.42912-11.267 1.331-3.1987 4.0773-6.2921 7.6653-9.323 7.176-6.0616 17.441-11.471 23.716-19.445l1.6902-2.1576-1.7232-2.1242c-12.455-15.321-36.354-24.728-55.037-34.881-9.3417-5.0764-17.332-10.311-21.834-15.782-4.4513-5.4094-5.8136-10.507-2.8192-17.807 7.8938-11.947 18.236-17.478 29.796-20.337 11.675-2.8876 24.48-2.8619 36.24-3.5161l1.6902-.0998.93751-1.4184c11.111-16.85 24.356-25.239 44.909-37.705 23.026-9.8116 36.099-20.683 60.52-21.089 0 0 .41432-2.9309 3.2063-7.377z"/><path d="m373.67 498.3c-20.05.55223-45.856 9.6668-67.213 22.619-19.988 12.122-34.202 21.299-45.919 38.331-11.129.56065-23.726.59946-35.976 3.6293-12.773 3.159-25.176 9.8008-34.101 23.54l-.1651.25306-.11902.27959c-3.9747 9.4387-1.7936 18.243 3.8095 25.052 5.6032 6.8092 14.228 12.21 23.828 17.427 18.052 9.8099 39.342 19.166 50.62 31.005-5.2475 5.3506-13.333 10.41-20.395 16.375-3.9928 3.3727-7.5777 7.1423-9.5602 11.907-1.9825 4.7644-2.0866 10.472.42916 16.542 4.2734 10.31 13.047 17.752 23.92 22.568 10.873 4.8161 23.939 7.1202 37.521 7.2253 26.557.20489 55.009-8.0023 72.764-24.166 9.8536.95437 19.454.47715 28.628 0 17.755 16.164 46.208 24.372 72.765 24.166 13.582-.10506 26.648-2.4092 37.521-7.2253s19.647-12.258 23.92-22.568c2.5157-6.0697 2.4116-11.777.42915-16.542-1.9826-4.7644-5.5675-8.534-9.5602-11.907-7.0616-5.9649-15.147-11.024-20.395-16.375 11.278-11.84 32.568-21.196 50.62-31.005 9.6001-5.2168 18.225-10.618 23.828-17.427 5.6032-6.809 7.7842-15.613 3.8095-25.052l-.11833-.27959-.16475-.25306c-8.9255-13.74-21.328-20.381-34.101-23.54-12.25-3.0298-24.848-3.0686-35.976-3.6293-11.718-17.032-25.931-26.208-45.919-38.331-21.357-12.953-42.905-21.743-62.956-22.295-1.3626 6.2333-.66302 3.1291-1.3626 6.2333 24.298.42043 37.87 12.121 60.832 21.909 20.554 12.466 33.798 20.854 44.909 37.705l.93748 1.4184 1.6902.0998c11.761.65423 24.565.62857 36.24 3.5161 11.56 2.8591 21.903 8.39 29.796 20.337 2.9944 7.2998 1.6321 12.397-2.8192 17.807-4.5021 5.4711-12.492 10.706-21.834 15.782-18.683 10.153-42.583 19.56-55.037 34.881l-1.7232 2.1242 1.6902 2.1576c6.2742 7.9736 16.54 13.383 23.716 19.445 3.588 3.0309 6.3343 6.1243 7.6653 9.323 1.331 3.1986 1.5254 6.5517-.42912 11.267-3.4517 8.3279-10.639 14.635-20.401 18.959-9.7627 4.3243-22.012 6.5467-34.86 6.6459-25.698.19861-53.713-8.2371-69.417-23.287l-1.0498-1.0055c-11.296.59171-22.339.51736-33.117 0l-1.0498 1.0055c-15.704 15.05-43.719 23.486-69.417 23.287-12.849-.0991-25.098-2.3216-34.86-6.6459-9.7627-4.3243-16.95-10.631-20.401-18.959-1.9545-4.7157-1.7601-8.0688-.42912-11.267 1.331-3.1987 4.0773-6.2921 7.6653-9.323 7.176-6.0616 17.441-11.471 23.716-19.445l1.6902-2.1576-1.7232-2.1242c-12.455-15.321-36.354-24.728-55.037-34.881-9.3417-5.0764-17.332-10.311-21.834-15.782-4.4513-5.4094-5.8136-10.507-2.8192-17.807 7.8938-11.947 18.236-17.478 29.796-20.337 11.675-2.8876 24.48-2.8619 36.24-3.5161l1.6902-.0998.93751-1.4184c11.111-16.85 24.356-25.239 44.909-37.705 23.026-9.8116 36.099-20.683 60.52-21.089 0 0 .41432-2.9309 3.2063-7.377z"/></g></g></svg>