<svg height="330.93661" width="330.93661" xmlns="http://www.w3.org/2000/svg" xmlns:xlink="http://www.w3.org/1999/xlink"><radialGradient id="a" cx="187.3833" cy="130.365535" gradientUnits="userSpaceOnUse" r="107.58125"><stop offset="0" stop-color="#a9a9a9"/><stop offset="1"/></radialGradient><linearGradient id="b" gradientUnits="userSpaceOnUse" x1="178.571432" x2="178.571432" y1="84.242855" y2="362.92506"><stop offset="0" stop-color="#fff"/><stop offset="1" stop-color="#fff" stop-opacity="0"/></linearGradient><filter id="c" color-interpolation-filters="sRGB" height="1.294188" width="1.25993" x="-.129965" y="-.147094"><feGaussianBlur stdDeviation="6.4759344"/></filter><g transform="translate(-61.719803 -7.162569)"><path d="m70.523181 17.465629c-7.11959 15.242893-10.17798 31.779192-8.22563 48.814566 5.01677 43.774135 41.675309 79.324505 91.536109 95.162895-6.62576-22.40752-5.34093-44.9362 2.6395-65.844312-47.73698-14.182689-81.645019-42.808385-85.949979-78.133149z"/><path d="m303.77876 18.809018c7.11959 15.242893 10.17798 31.779192 8.22563 48.814566-5.01677 43.774136-41.67531 79.324506-91.53611 95.162896 6.62576-22.40752 5.34093-44.9362-2.6395-65.844312 47.73698-14.18269 81.64502-42.808386 85.94998-78.13315z"/><path d="m192.26778 156.29407 12.07512-13.9057c4.0785-4.69679 19.95774 2.45971 35.60367 16.04598l130.50178 113.32219c15.64593 13.58626 24.95835 28.30512 20.87985 33.00192l-12.07512 13.9057c-4.0785 4.69679-19.95774-2.45971-35.60367-16.04598l-130.50178-113.32219c-15.64593-13.58626-24.95835-28.30512-20.87985-33.00192z"/><circle cx="187.3833" cy="130.36554" fill="url(#a)" r="107.58125"/><circle cx="187.13075" cy="130.11299" fill="url(#b)" r="78.034286"/><circle cx="188.34268" cy="131.80898" fill="#1a1a1a" r="27.274118"/><g fill="#fff"><circle cx="199.47467" cy="122.35938" r="5.555839"/><rect fill-opacity=".822115" filter="url(#c)" height="159.43797" rx="2.866662" ry="9.000706" transform="matrix(.74466525 -.84318084 .84318084 .74466525 -35.543204 -43.754959)" width="2.239297" x="19.525793" y="337.8396"/></g></g></svg>