<svg height="562.11633" width="562.11633" xmlns="http://www.w3.org/2000/svg" xmlns:xlink="http://www.w3.org/1999/xlink"><linearGradient id="a"><stop offset="0" stop-color="#fff"/><stop offset="1" stop-color="#e1e1e1"/></linearGradient><linearGradient id="b" gradientUnits="userSpaceOnUse" x1="239.28394" x2="239.28394" xlink:href="#a" y1="150.2835" y2="22.82693"/><linearGradient id="c" gradientUnits="userSpaceOnUse" x1="550.2101" x2="550.2101" y1="16.91961" y2="71.85516"><stop offset="0" stop-color="#8aea00"/><stop offset="1" stop-color="#ebff36"/></linearGradient><linearGradient id="d" gradientUnits="userSpaceOnUse" x1="146.60234" x2="146.60234" xlink:href="#a" y1="150.2835" y2="22.82693"/><linearGradient id="e" gradientUnits="userSpaceOnUse" x1="145.92065" x2="145.92065" xlink:href="#a" y1="150.2835" y2="22.82693"/><linearGradient id="f" gradientUnits="userSpaceOnUse" x1="142.5129" x2="142.5129" xlink:href="#a" y1="150.2835" y2="22.82693"/><linearGradient id="g" gradientUnits="userSpaceOnUse" x1="144.55755" x2="144.55755" xlink:href="#a" y1="150.2835" y2="22.82693"/><linearGradient id="h" gradientUnits="userSpaceOnUse" x1="146.6022" x2="146.6022" xlink:href="#a" y1="150.2835" y2="22.82693"/><linearGradient id="i" gradientUnits="userSpaceOnUse" x1="364.5699" x2="364.5699" y1="102.27549" y2="213.790135"><stop offset="0"/><stop offset="1" stop-color="#fff"/></linearGradient><mask id="j" maskUnits="userSpaceOnUse"><path d="m8.120846 11.978719h582.72266v153.34807h-582.72266z" fill="url(#i)"/></mask><g transform="translate(-20.388977 169.18612)"><g mask="url(#j)" transform="matrix(1 0 0 -1 0 323.7441)"><g fill="#484848" stroke="#484848" stroke-width="38"><path d="m549.36434 78.11349c-9.4946 1.99352-9.7027 14.03504-9.8352 21.77668.1121 11.0831-.2095 22.9628 4.1417 33.27264 2.0054 4.85047 9.7812 4.74809 10.3195-1.06753 4.7624-15.20498 4.7481-32.01281 1.4946-47.50541-.983-2.75668-3.069-6.35036-6.1206-6.47638z"/><path d="m499.48944 47.6175c-6.4927-.34021-9.3439 6.60543-8.1121 12.16941-.5858 24.07597-.3292 48.31194.034 72.30837 1.7508 6.96484 14.895 8.48808 15.0166-.0712 1.2169-13.27189-.274-26.75029.6639-40.10232.7817-11.41478-.5568-23.24296-.6994-34.37618 1.5849-5.10643-.4706-11.12871-6.9034-9.92811z"/><path d="m132.42293 35.23407c-7.6945 2.17125-5.9206 12.79289-6.2273 19.00216 1.6106 23.24538.8475 46.57408 2.1706 69.81693.068 7.09423 3.2021 16.90233 11.8853 16.22657 7.5709-1.76417 5.7778-11.8325 5.6557-17.71589-.047-7.84014-4.5559-19.23884 3.9165-24.30949 7.6405-5.37547 19.848.64078 18.6463 10.39069-.3251 8.83089-2.0837 22.16882 7.8287 26.47493 6.4024 2.92649 10.6176-5.21693 9.3943-10.71096-.3749-13.55442 1.2727-30.22607-10.711-39.6768-7.9735-4.05845-18.9828-5.54515-26.8307-.21351-1.0372 2.42576-6.9951 6.95054-6.4053 1.24546-1.6949-15.3749 2.056-31.45755-2.3485-46.40228-1.2024-2.63946-4.0324-4.45898-6.9746-4.12781z"/><path d="m442.14024 64.05759c-10.165-.2579-20.6562 1.86137-28.1474 9.18081-2.8958 2.05591-1.2663-4.94966-4.8395-5.01742-5.4074-2.93338-11.5829 2.98762-9.5367 8.75381.099 20.06919-1.977 40.97889 3.8787 60.387 3.1796 4.95849 13.7562 4.09337 12.7037-2.9891 1.546-15.53942-2.968-32.10549 3.167-46.86488 4.3319-8.66318 18.41-14.13659 25.3718-5.90704 3.521 6.12624-.9752 16.78774 6.8323 20.31879 7.6504 1.3481 9.6041-9.08157 8.825-14.7676-1.6539-6.72434-2.1565-14.5353-6.6544-19.99852-3.1376-2.78799-7.564-3.22067-11.6005-3.09585z"/></g><path d="m442.38294 54.04595c-.1827-.005-.3789.0345-.5625.0312-8.6942-.15632-18.301 1.16995-26.7813 5.96876-.368-.21564-.7676-.37654-1.1562-.5625l.031-.0625c-.2019-.10958-.4204-.1194-.625-.21875-.5569-.23563-1.1103-.37966-1.6874-.53125-6.0741-2.10894-12.7994-.4336-16.8438 3.34375-3.8577 3.60298-6.0063 9.29062-5.1562 15.125.085 19.31578-2.292 41.23535 4.3124 63.12499l.4063 1.3125.75 1.1875c4.4521 6.94297 11.5862 8.53059 18 7.46875 3.2069-.53092 6.701-1.89897 9.5-5.03125 2.2725-2.54317 3.5121-6.27514 3.5937-9.84375 0-.0435 0-.0816 0-.125 1.7478-17.81793-1.8544-32.72457 2.2813-43.375.6976-1.23208 3.1856-3.39065 5.4063-4.03125 1.1119-.32077 1.7363-.44325 2.1874-.40625.051.8996.2789 2.71568.5313 6.0625.1821 2.41445.4732 5.42185 2.0313 8.8125 1.558 3.39065 4.8419 6.94014 8.8437 8.75l1.1563.5 1.2187.21875c4.1545.73208 8.9361-.28467 12.2187-2.59375 3.2827-2.30908 5.1358-5.31163 6.3126-8.0625 2.3534-5.50175 2.5912-10.54096 1.9374-15.3125l-.062-.53125-.125-.5c-1.3372-5.43656-1.418-15.17693-8.6563-23.96874l-.4687-.59375-.5938-.53125c-6.0316-5.35952-13.0425-5.71213-18-5.59376v-.0312zm-20.9688 14.62501c.3103.61975.1924.76755.063.28125-.016-.0599-.046-.21107-.063-.28125zm-11.8437 14.15624c.271.10418.5347.22752.8125.3125l-.125.21875-.125.3125c-.2313.55649-.3535 1.10135-.5625 1.65625.01-.84699-.01-1.64903 0-2.5z" fill="url(#g)"/><path d="m334.93614 43.42895-1.125.0625c-11.4541.68757-31.1299 2.13948-42.5313 20.5l-.6875 1.15625-.5312 1.21875c-4.0155 9.09454-1.1737 19.34928 5 25.5-7.1006 9.03999-10.5361 20.69833-9.25 32.65625-.7932 13.71238 8.5163 26.58972 21.5624 30.34375l-.031.0625c14.5936 5.02387 28.3345 3.89176 40 1.875 1.1383.61027 2.377 1.24208 3.8438 1.84375 3.1932 1.30991 7.6804 2.60895 13.1874 1.96875 5.5071-.6402 11.3463-3.71585 15.0626-7.53125l.6562-.6875.5938-.75c7.375-9.27994 7.6766-20.19393 7.1874-26.8125-.4891-6.61857-1.0653-10.99648-1.0312-11.375l.125-1.46875-.094-1.5c-.9045-13.69999-.4438-31.50909-8.6874-49.71875-.8869-3.14352-2.6183-4.60975-5-6.625-14.193-12.04738-29.8012-10.22761-37.125-10.65625zm-5 69.25c-.6975.25422-.096-.059 3.5937.375 3.1757.3735 8.4922 1.29071 15.3437.34375-.042 1.60674-.047 3.10046.031 4.46875l-1.2187.25c-9.4296 1.92946-17.7526 2.70557-24.0626 1.71875.3089-2.61777 2.5558-6.11412 4.2813-6.53125l1.0313-.25 1-.375z" fill="#484848"/><path d="m242.86794 62.94328c-9.8451.59098-21.9234 2.57343-27.5069 11.56498-1.5225 3.44827 2.5155 7.16458 5.8003 4.55483 11.6876-3.18405 25.8772-8.64334 36.9368-1.03196 3.4255 4.6575 3.2712 13.73214-2.1351 16.8315-8.1137 1.83399-16.456-2.50178-24.589.4626-12.7407 3.08001-20.924 16.83116-18.6463 29.53519-1.221 6.03853 2.7535 11.58045 8.7182 12.59694 12.2603 4.22059 25.7141 2.25842 37.9688-.24909 3.9671 2.72001 9.7011 7.85911 14.3406 3.09585 6.2596-7.87653 1.273-19.02318 2.088-28.06851-.9577-14.50429-1.0481-29.91302-7.0343-43.1362-7.0905-6.01862-17.2216-5.6458-25.9411-6.15613z" fill="#484848" stroke="#484848" stroke-width="38"/><path d="m132.71733 24.19589c-.5004.0152-1.0205.0363-1.5312.0937l-.9063.0937-.8437.25c-4.2861 1.20943-8.1936 4.24904-10.375 7.56249-2.1816 3.31346-2.9841 6.56659-3.4063 9.375-.8444 5.61682-.3823 10.37282-.4687 12.125l-.031.65625.062.625c1.548 22.34205.8033 45.46456 2.125 69.1875.0005.0505.031.10568.031.15625.01.1151-.01.22862 0 .34375h.031c.099 4.98929.9665 10.43113 4.125 15.90625 3.2605 5.65198 11.0145 11.32149 19.5625 10.65625l.8438-.0625.8124-.1875c4.2384-.98762 8.3269-3.79564 10.625-7.09375 2.1728-3.63384 4.3342-6.89183 5.1872-10.22818 3.8402 7.13335 5.9507 8.04619 13.1566 11.44693v.0312c.059.0269.1281.0362.1875.0625 3.7423 1.65403 8.4312 1.97661 12.2813.65625 3.91101-1.34132 6.71761-3.90092 8.59371-6.5 3.336-4.62154 4.6441-9.64143 3.9063-15.25-.1718-6.20746.2238-14.23226-1.1563-22.8125s-5.0962-18.36284-13.75001-25.1875l-.8437-.6875-.9688-.5c-7.7653-3.95251-17.7087-6.355-27.4062-4.09375.4086-10.28331 1.089-21.96033-2.625-34.5625l-.2188-.75-.3125-.71875c-2.9167-6.40275-9.181-10.82231-16.6875-10.59374zm6.0625 53.99999c0 .0101.05.0315.062.0625l-.6245 1.46875c.3311-.86163.5542-1.56647.5625-1.53125zm36.0625 48.28125c.012-.004.019.005.031 0l.063.3125c-.043-.19086-.061-.25465-.094-.3125z" fill="url(#g)"/><path d="m133.3461 36.09636c-1.692.49428-2.8155 1.39846-3.625 2.625-.8214 1.24442-1.3243 2.85069-1.5938 4.625-.5342 3.51732-.1953 7.61208-.3438 10.8125v.0937c1.6063 23.27388.8692 46.5905 2.1876 69.75a.88388823.88388823 0 0 1 0 .0625c.033 3.4213.83 7.53419 2.5937 10.59375 1.7438 3.02495 4.2922 5.00636 8.2187 4.75.011-.00073.02.00077.031 0 1.6857-.39978 2.7542-1.19719 3.5313-2.3125.7819-1.12237 1.2391-2.59827 1.4687-4.25.4593-3.30346.0002-7.22907-.062-10.25a.88388823.88388823 0 0 1 0-.0312c-.023-3.75401-1.179-8.58343-1.25-13.1875-.071-4.59014 1.0512-9.12033 5.5625-11.84375.012-.008.019-.023.031-.0312 8.2411-5.75335 21.2001.72746 19.9687 11.1875v.0312c-.0004.01.0004.0216 0 .0312-.1662 4.44678-.6416 9.92071.094 14.71875.7386 4.81878 2.5857 8.83105 7.2188 10.84375a.88388823.88388823 0 0 1 .031 0c1.4264.65196 2.625.67804 3.6876.3125 1.0625-.36554 2.0152-1.15367 2.7812-2.21875 1.532-2.13016 2.2012-5.36524 1.6562-7.8125a.88388823.88388823 0 0 1 0-.15625c-.1887-6.82351.1073-14.35845-1-21.28125-1.1026-6.89383-3.5864-13.13587-9.3124-17.6875-7.7294-3.90433-18.3437-5.25802-25.7813-.25-.7734 1.48479-2.3237 3.00623-4 3.78125-.9043.41808-1.982.65336-2.875.0312-.8519-.59346-1.0866-1.72753-.9687-3.1875.01-.0705-.01-.11538 0-.1875-1.6634-15.48034 1.9617-31.38045-2.2813-45.9375-1.0363-2.2749-3.4784-3.85945-5.9687-3.625z" fill="#484848"/><path d="m500.00794 37.6397c-.47-.0246-.9099.13839-1.375.15625-.3182.036-.6564-.0583-.9688 0v.0937c-5.9486.59666-11.3199 4.27914-13.8124 8.625-2.5191 4.39212-3.1643 9.07388-2.4688 13.75001-.5691 24.07161-.3288 48.17845.031 71.96874l.031 1.1875.2813 1.125c2.2758 9.05358 10.1204 12.94327 17.2812 13.3125 3.5804.18461 7.6057-.50128 11.25-3.21875 3.4431-2.56742 5.753-7.21537 6.0625-11.6875h.062c.024-.26477.01-.51719.031-.78125 1.2169-14.32127-.1813-27.63851.6563-39.5625.8412-12.28307-.4559-23.97948-.6563-34.18749.9168-4.19732.7514-8.64033-1.75-13.09376-2.5398-4.52202-8.6787-7.57722-14.4374-7.5625-.073.00019-.1457-.001-.2188 0v-.125zm-.4375 10.46875 1.5625 8.375c-.089.0884-.5399.26586-.9688.50001-.4433-.17558-.588-.31717-1.125-.59376zm1.625 8.6875.125.65626c0-.00052-.146-.0578-.1563-.0625.013-.26164.01-.41632.031-.59376z" fill="url(#g)"/><path d="m499.48944 47.6175c-6.4927-.34021-9.3439 6.60543-8.1121 12.16941-.5858 24.07597-.3292 48.31194.034 72.30837 1.7508 6.96484 14.895 8.48808 15.0166-.0712 1.2169-13.27189-.274-26.75029.6639-40.10232.7817-11.41478-.5568-23.24296-.6994-34.37618 1.5849-5.10643-.4706-11.12871-6.9034-9.92811z" fill="#484848"/><path d="m544.51954 53.6313c-7.5784-.46784-10.6755 10.08558-4.626 14.19825 6.4831 5.13984 16.9776-2.57743 12.9884-10.24836-1.4384-3.20261-5.1136-4.25984-8.3624-3.94989z"/><path d="m66.312222 57.93009c-17.370703.62829-30.0641 20.09681-26.023403 36.39781 2.1928 10.05075 13.8541 12.09708 22.635103 11.4922 7.1377-.5151 17.6041 2.45346 16.7319 11.49222-1.8676 6.29718-10.9897 4.97438-16.0667 5.21679-7.019003.3042-14.551803-2.83467-21.309203-1.0251-5.546297 3.71601-.7698 11.63178 4.4362 13.09902 11.6204 3.85396 24.776703 2.98561 36.677203.52396 8.494404-1.78465 13.976704-9.66183 14.007304-18.12905.5362-8.45978-.1252-18.85777-9.082-22.63511-7.833304-4.5437-17.524404-2.59996-25.744004-4.64578-6.504303-3.75215-4.590203-15.08325 3.2137-15.54417 8.376-2.645 16.5844 3.54335 24.730904 1.74653 6.8027-2.75685 5.6777-13.26551-1.2924-15.19486-7.049504-3.53181-15.254704-2.74435-22.914604-2.79446z" fill="#484848" stroke="#484848" stroke-width="38"/><path d="m66.146122 46.92095-.2187.0312c-25.268203.91394-41.9786 26.29641-36.375 49.71875v.0312c.023.0937.039.18758.062.28125h.062c1.4158 6.03031 5.2241 10.72981 9.5937 13.9375l-1.5937.4375-1.5313 1c-3.4934 2.34058-6.2461 6.40677-7.0312 10.4375-.7852 4.03073.016 7.64447 1.2812 10.53125 2.4625 5.61698 6.4364 9.72109 12.843797 11.6875v.0312c.1235.0409.2514.0537.375.0937.044.0142.081.0484.125.0625 14.2876 4.59699 29.052403 3.33987 41.875007.6875h.031c13.703-2.87897 22.354804-15.23519 22.687504-28.1875h.031c.01-.1043-.01-.23849 0-.34375 0-.10511.031-.20733.031-.3125h-.031c.275-4.68022.3633-10.21921-1.4063-16.21875-1.6128-5.46789-5.6186-11.40935-11.718704-15.03125 15.051404-6.74017 13.339704-29.63818-1.6875-35.15625-10.474104-5.01096-20.429304-3.67474-27.156304-3.71875h-.25zm-16.218703 77.15625c.4736.11312.7429.17483.6875.1875-.1379-.0437-.3009-.0484-.4375-.0937l-.25-.0937z" fill="url(#h)"/><path d="m67.047 59.37761c-16.2905.63585-28.4267 19.25728-24.625 34.59375a1.4420115 1.4420115 0 0 1 0 .0312c.9874 4.52574 3.9833 7.14275 7.9688 8.71875 3.9854 1.576 8.921 1.948 13.1562 1.65625 3.8182-.27555 8.4163.35581 12.1562 2.34375 3.74 1.98794 6.6157 5.6345 6.125 10.71875a1.4420115 1.4420115 0 0 1 -.062.28125c-.5618 1.89409-1.746 3.32797-3.1876 4.25-1.4415.92203-3.0867 1.39395-4.7812 1.65625-3.3889.5246-7.0334.23046-9.4062.34375-7.4077.32104-14.726-2.60314-20.7813-1.09375-.9228.69289-1.3969 1.4625-1.5625 2.3125-.1806.92739-.017 2.01851.4688 3.125.9708 2.21298 3.281 4.32492 5.3437 4.90625a1.4420115 1.4420115 0 0 1 .062 0c11.2515 3.73156 24.1465 2.93253 35.9062.5 7.7821-1.63499 12.8466-8.87337 12.875-16.71875a1.4420115 1.4420115 0 0 1 0-.0937c.2634-4.15469.2008-8.71518-.9374-12.5625-1.1383-3.84732-3.227-6.9152-7.2813-8.625a1.4420115 1.4420115 0 0 1 -.1563-.0937c-7.233-4.1955-16.6908-2.33856-25.375-4.5a1.4420115 1.4420115 0 0 1 -.375-.15625c-7.593-4.38022-5.364-17.27483 3.5-18.15625v-.0312c.1153-.0364.2288-.0291.3438-.0625 4.5012-1.3064 8.8395-.37995 12.875.59375 4.0804.98454 7.88 1.92841 11.4688 1.1875 5.4755-2.31046 4.4951-10.8333-1.1876-12.40625a1.4420115 1.4420115 0 0 1 -.2812-.0937c-6.5535-3.28332-14.4405-2.57842-22.1875-2.625-.021-.00013-.042.00014-.062 0z" fill="#484848"/><path d="m334.91414 52.45217-.5624.0312c-10.692.64182-26.7608 2.35866-35.4063 16.28126l-.375.59375-.2813.625c-2.6168 5.92672-.4865 12.63582 3.8126 16.24999 2.47 2.0766 6.1544 2.97511 9.8124 2.75-12.1731 7.16212-18.9579 21.29295-17.0937 35.5-.9321 10.0329 5.7963 19.42583 15.4375 21.90625v.0312c13.5839 4.67628 27.0449 3.11875 38.7812.90625 1.4491.98507 3.2876 2.06677 5.5626 3 2.2748.93323 5.2583 1.74964 8.75 1.34375 3.4915-.40589 7.1195-2.30283 9.625-4.875l.375-.34375.3124-.40625c5.3642-6.74967 5.6479-14.75709 5.2188-20.5625s-1.211-10.50221-1-12.84375l.062-.78125-.062-.75c-.9297-14.08097-.732-30.77734-7.9062-46.62499-.4593-1.65783-1.3753-2.43205-2.625-3.4999-10.8288-9.19166-23.8588-8.03267-31.8438-8.50001l-.5938-.0312zm22.0626 47.46875c.2983 4.01025.663 7.89337.9374 12.09375-.3619 6.15055.7536 11.18085 1.0313 14.9375.091 1.23358-.0003 1.89681-.031 2.71875-.7261-.49389-.8804-.56988-1.7812-1.1875l-3.5-2.40625-4.1562.84375c-11.8502 2.42474-23.4896 3.77093-32.7188.59375l-.75-.25-.8125-.15625c-.7563-.12889-.7437-.008-.5937-.75l.375-1.875-.3438-1.875c-1.3223-7.37497 4.0726-16.31882 11.1562-18.03125l.5626-.15625.5312-.1875c1.5591-.56829 3.7957-.58273 7.6875-.125s9.2275 1.48444 15.6563.0312l1.4687-.34375 1.3125-.75c1.5458-.8862 2.8481-1.95265 3.9688-3.125z" fill="url(#g)"/><path d="m442.8461 65.50261c-9.9417-.25223-20.0112 1.83054-27.125 8.78125a1.4249747 1.4249747 0 0 1 -.1876.125c-.4923.34955-1.0141.64308-1.6874.65625-.6734.0132-1.3402-.39879-1.6876-.8125-.6947-.82743-.7686-1.5945-.9687-2.34375s-.4246-1.47139-.6563-1.84375c-.2316-.37236-.2624-.39819-.6874-.40625a1.4249747 1.4249747 0 0 1 -.6563-.1875c-2.1511-1.16691-4.3134-.58174-5.9063.90625-1.5928 1.48799-2.4145 3.81205-1.5937 6.125a1.4249747 1.4249747 0 0 1 .094.46875c.099 20.08519-1.9054 40.73856 3.75 59.71875 1.2377 1.74956 4.0539 2.66609 6.4063 2.28125 1.2075-.19755 2.2216-.71247 2.8437-1.40625.6222-.69378.9615-1.54589.75-2.96875a1.4249747 1.4249747 0 0 1 0-.375c1.5091-15.16756-3.1254-31.94343 3.25-47.28125a1.4249747 1.4249747 0 0 1 .031-.0625c2.3884-4.77662 7.2847-8.50018 12.5937-10.03125 5.3091-1.53107 11.2689-.75156 15.1563 3.84375a1.4249747 1.4249747 0 0 1 .1563.1875c2.0694 3.60071 1.6918 8.0153 1.9687 11.75.1385 1.86735.4194 3.54061 1.0313 4.875.5916 1.2904 1.4751 2.25734 3.0312 3 1.4606.20734 2.5297-.051 3.4375-.6875.9587-.67214 1.771-1.81376 2.375-3.21875 1.2079-2.80999 1.508-6.6831 1.1563-9.25-1.6601-6.82503-2.269-14.23556-6.2813-19.1875-2.6943-2.32961-6.6692-2.77567-10.5313-2.65625a1.4249747 1.4249747 0 0 1 -.062 0z" fill="#484848"/><path d="m548.52594 68.07721-1.2187.25c-8.6956 1.82574-14.1425 9.53796-15.9688 15.68749-1.8263 6.14954-1.7462 11.84707-1.8125 15.71875v.125.125c.1092 10.79916-.5536 24.0134 4.9063 37 .01.0225.022.0401.031.0625 2.7726 6.62078 9.3817 9.9621 15.5625 9.5625 5.6001-.36206 11.8353-5.2195 13.5-11.53125 5.3924-17.21633 5.3013-35.62075 1.75-52.53125l-.1563-.6875-.2187-.62499c-.7814-2.19128-1.853-4.62969-3.9375-7.1875s-5.8401-5.71667-11.1875-5.9375l-1.25-.0312z" fill="url(#f)"/><path d="m550.1139 78.59636c-4.5226.97522-6.7823 4.26272-8 8.375-1.2232 4.13111-1.3087 9.03503-1.375 12.90625.1123 11.09592-.2043 22.90976 4.0938 33.09375.9213 2.22841 3.1731 3.32073 5.25 3.1875s3.906-1.39 4.1562-4.09375a.46475483.46475483 0 0 1 .031-.0937c4.7332-15.11164 4.7084-31.85462 1.4687-47.28125-.4788-1.32581-1.2248-2.85305-2.1874-4.03125-.9629-1.17844-2.1146-1.98485-3.4376-2.0625z" fill="#484848"/><path d="m242.87094 52.92092-.5938.0312c-10.6919.64192-26.7607 2.35873-35.4062 16.28131l-.375.59375-.2813.65625c-2.6168 5.92671-.4864 12.60456 3.8125 16.21874 2.4771 2.0825 6.1757 2.98309 9.8438 2.75-12.176 7.14722-18.9659 21.26849-17.125 35.46875-.9665 10.0609 5.7999 19.48906 15.4687 21.96875l-.031.0312c13.5891 4.67806 27.073 3.12012 38.8125.90625 1.4445.97996 3.2715 2.07302 5.5313 3 2.2749.93323 5.2585 1.71839 8.75 1.3125s7.1509-2.27156 9.6562-4.84375l.3438-.375.3125-.40625c5.3641-6.74969 5.6478-14.72585 5.2187-20.53125s-1.2109-10.50221-1-12.84375l.062-.78125-.062-.78125c-.9297-14.081-.7006-30.74608-7.875-46.59374l-.9375-2.0625-1.7187-1.4375c-10.8287-9.19167-23.8276-8.06392-31.8125-8.53126l-.5938-.0312zm22.0312 47.5c.2974 4.00059.6637 7.87292.9375 12.0625-.3619 6.15055.7536 11.2121 1.0313 14.96875.091 1.22812 0 1.86766-.031 2.6875-.7261-.49388-.8805-.56989-1.7813-1.1875l-3.5-2.40625-4.1562.875c-11.8502 2.42475-23.4582 3.77094-32.6875.59375l-.7813-.28125-.8125-.125c-.7563-.12888-.7437-.0396-.5938-.78125l.375-1.84375-.3437-1.875c-1.3223-7.37494 4.0726-16.35008 11.1562-18.0625l.5625-.125.5313-.1875c1.5591-.56828 3.7957-.58273 7.6875-.125s9.2275 1.45313 15.6562 0l1.4688-.3125 1.3125-.75c1.5458-.8862 2.8482-1.95265 3.9687-3.125z" fill="url(#e)"/><path d="m243.6361 64.63031c-9.6363.58398-20.9336 2.59484-26.0312 10.625-.4035.99026-.045 1.9107.6562 2.5.717.60234 1.4896.85243 2.5626 0a1.684398 1.684398 0 0 1 .625-.3125c5.775-1.5733 12.3167-3.78461 18.9374-4.625 6.6208-.84039 13.4444-.25925 19.4063 3.84375a1.684398 1.684398 0 0 1 .375.375c2.0281 2.75755 2.9112 6.50666 2.5937 10.125-.3174 3.61834-1.9072 7.25777-5.2187 9.15625a1.684398 1.684398 0 0 1 -.4687.1875c-4.4561 1.00721-8.7953.29068-12.875-.1875-4.0798-.47818-7.8868-.73461-11.5313.59375a1.684398 1.684398 0 0 1 -.1563.0312c-11.7884 2.8498-19.5228 15.78804-17.4062 27.59375a1.684398 1.684398 0 0 1 0 .65625c-1.0407 5.14641 2.2557 9.72666 7.3438 10.59375a1.684398 1.684398 0 0 1 .2812.0625c11.7498 4.04484 24.8758 2.18109 37.0625-.3125a1.684398 1.684398 0 0 1 1.2813.28125c2.0816 1.42722 4.4575 3.29235 6.625 4.1875 1.0837.44757 2.0633.63094 2.9374.53125.8627-.0984 1.6764-.44585 2.5938-1.375.01-.0118.022-.0195.031-.0312 2.6608-3.43997 2.9705-7.61463 2.625-12.3125-.3431-4.66636-1.3766-9.66321-1-14.46875-.9524-14.4251-1.1073-29.45823-6.7187-42.15625-6.4124-5.22259-15.7954-5.06556-24.4687-5.5625-.021-.001-.042.001-.063 0z" fill="#484848" stroke="#484848" stroke-width="3"/><path d="m252.9376 106.30395c-3.4993.0307-6.9607-.0581-10.375.0312-4.1004.36044-9.0376 1.69024-12.625 4.09375-3.614 2.42133-5.8704 5.68864-5.2813 10.4375.4935 4.61527 3.5645 7.56447 7.6876 9.21875 4.123 1.65428 9.2633 1.8209 13.1562.65625a1.3611835 1.3611835 0 0 1 .1562-.0312c2.8688-.49834 6.5939-1.2529 9.2813-2.71875 1.3437-.73292 2.3836-1.63683 3.0313-2.6875.6476-1.05067.9604-2.26047.6874-3.96875a1.3611835 1.3611835 0 0 1 0-.28125c.1564-2.76724.3451-6.68524-.375-9.71875-.36-1.51676-.9264-2.77474-1.75-3.625-.8176-.8442-1.8698-1.36151-3.5624-1.40625-.012-.00032-.019.00027-.031 0z" fill="url(#d)"/><path d="m550.24144 11.97714c-4.7431.00008-9.3884 1.94508-12.1562 5.65625-2.3938 3.20927-3.2655 7.28209-3.5 11.84374-5.2417.10768-9.658.71067-13.2813 2.53125-3.7519 1.88519-6.5576 5.75636-6.9063 9.9375h-.062c-.013.1027.011.20947 0 .3125 0 .043-.03.0819-.031.125h.031c-.383 3.94189.8037 8.08581 3.625 10.84375 1.7434 1.70445 3.9242 2.79035 6.3124 3.59375l-.875 2.4375-.062.125-.031.125c-1.0239 3.32791-.9882 7.09444.8437 10.15625 1.8322 3.06181 4.9132 4.85334 8.3438 5.90625l.7188.21875h.75 2.2812c4.1038.00005 8.0184-1.11288 11.1562-3.5 1.388-1.05587 2.5677-2.38102 3.5938-3.8125 2.738 2.5559 6.0541 4.80834 10 6.78125l.5.25.5312.15625c3.235.79227 6.3972.95306 9.4063-.1875 2.9956-1.13542 5.3523-3.78973 6.4375-6.71875h.031v-.0312c1.3188-3.58119 1.0754-7.65809-.4687-11.1875-.3593-.82136-.9637-1.56048-1.4375-2.34375.7988-.35352 1.5774-.75006 2.3125-1.28125 3.1456-2.2731 4.4669-6.43958 4.1563-10.25h.031c0-.12851-.061-.24691-.062-.375-.017-.15367.023-.31671 0-.46875h-.062c-.2506-3.85862-2.6242-7.47641-5.875-9.5625-3.1968-2.05143-7.2278-3.19745-12.0625-4.03124-.5947-4.02941-1.4462-7.64148-3.125-10.53125-2.2702-3.9078-6.5646-6.71865-11.0625-6.71875zm18.3125 50.62499c.2654.97712.2969 1.7705-.031 2.65625v.0312c-.3181.86918-.3036.72198-.625.84375-.2585.098-1.2073.14918-2.5624-.0625.3313-.1475.7366-.14338 1.0312-.34375l.4375-.28125.375-.40625c.5814-.62017.9776-1.55372 1.375-2.4375z" fill="#305f00"/><path d="m550.24549 16.984496q8.54083 0 9.83001 16.920498h2.33664q15.22844 2.33664 15.0673 9.668855 1.28918 8.621397-11.03861 7.976806 9.42713 8.299101 6.7682 15.470169-2.09492 5.72074-9.99116 3.786969-8.70197-4.350985-12.32779-9.991151h-1.5309q-3.3841 9.991151-13.13353 9.991151h-2.25606q-8.13796-2.497788-5.88189-9.830003l2.82008-7.815659h-.80574q-11.92492-1.692049-10.79688-10.555167.32229-8.137954 16.35648-8.218527 4.43155-.483443 3.70639-2.820083 0-14.583858 10.87746-14.583858zm-4.5927 16.034186-.16115 4.512133q-.24172 3.384099-2.17549 3.384099l-12.73066.725164q-2.98123.08057-2.98123 2.417214 0 2.256067 3.22295 2.417214 11.19976-.564016 10.47459 1.530902l-2.25606 4.834428q-5.72074 8.621396-2.82009 10.152299 3.86754 2.33664 10.95804-12.08607 1.69205-1.530902 2.82008 0 4.99558 5.317871 8.21853 8.70197 3.30353 3.3841 5.31787 2.014345 2.41721-2.578361-1.28918-5.559592-3.62582-3.061804-8.2991-8.379675-.48344-1.772623.24172-1.772623 15.79246 1.047459 15.14787-2.014345.48345-3.3841-13.69754-3.3841-2.17549.402869-3.54525-1.047459v-7.896232q0-6.607052-3.14238-6.526478-3.3841-.805738-3.30352 7.976806z" fill="url(#c)"/><path d="m335.7911 64.63031c-9.6363.58398-20.9336 2.59484-26.0312 10.625-.4035.99026-.045 1.9107.6562 2.5.717.60234 1.4896.85243 2.5626 0a1.684398 1.684398 0 0 1 .625-.3125c5.775-1.5733 12.3167-3.78461 18.9374-4.625 6.6208-.84039 13.4444-.25925 19.4063 3.84375a1.684398 1.684398 0 0 1 .375.375c2.0281 2.75755 2.9112 6.50666 2.5937 10.125-.3174 3.61834-1.9072 7.25777-5.2187 9.15625a1.684398 1.684398 0 0 1 -.4687.1875c-4.4561 1.00721-8.7953.29068-12.875-.1875-4.0798-.47818-7.8868-.73461-11.5313.59375a1.684398 1.684398 0 0 1 -.1563.0312c-11.7884 2.8498-19.5228 15.78804-17.4062 27.59375a1.684398 1.684398 0 0 1 0 .65625c-1.0407 5.14641 2.2557 9.72666 7.3438 10.59375a1.684398 1.684398 0 0 1 .2812.0625c11.7498 4.04484 24.8758 2.18109 37.0625-.3125a1.684398 1.684398 0 0 1 1.2813.28125c2.0816 1.42722 4.4575 3.29235 6.625 4.1875 1.0837.44757 2.0633.63094 2.9374.53125.8627-.0984 1.6764-.44585 2.5938-1.375.01-.0118.022-.0195.031-.0312 2.6608-3.43997 2.9705-7.61463 2.625-12.3125-.3431-4.66636-1.3766-9.66321-1-14.46875-.9524-14.4251-1.1073-29.45823-6.7187-42.15625-6.4124-5.22259-15.7954-5.06556-24.4687-5.5625-.021-.001-.042.001-.063 0z" fill="#484848" stroke="#484848" stroke-width="3"/><path d="m345.6192 106.30395c-3.4993.0307-6.9607-.0581-10.375.0312-4.1004.36044-9.0376 1.69024-12.625 4.09375-3.614 2.42133-5.8704 5.68864-5.2813 10.4375.4935 4.61527 3.5645 7.56447 7.6876 9.21875 4.123 1.65428 9.2633 1.8209 13.1562.65625a1.3611835 1.3611835 0 0 1 .1562-.0312c2.8688-.49834 6.5939-1.2529 9.2813-2.71875 1.3437-.73292 2.3836-1.63683 3.0313-2.6875.6476-1.05067.9604-2.26047.6874-3.96875a1.3611835 1.3611835 0 0 1 0-.28125c.1564-2.76724.3451-6.68524-.375-9.71875-.36-1.51676-.9264-2.77474-1.75-3.625-.8176-.8442-1.8698-1.36151-3.5624-1.40625-.012-.00032-.019.00027-.031 0z" fill="url(#b)"/></g><g fill="#484848" stroke="#484848" stroke-width="38"><path d="m549.36434 78.11349c-9.4946 1.99352-9.7027 14.03504-9.8352 21.77668.1121 11.0831-.2095 22.9628 4.1417 33.27264 2.0054 4.85047 9.7812 4.74809 10.3195-1.06753 4.7624-15.20498 4.7481-32.01281 1.4946-47.50541-.983-2.75668-3.069-6.35036-6.1206-6.47638z"/><path d="m499.48944 47.6175c-6.4927-.34021-9.3439 6.60543-8.1121 12.16941-.5858 24.07597-.3292 48.31194.034 72.30837 1.7508 6.96484 14.895 8.48808 15.0166-.0712 1.2169-13.27189-.274-26.75029.6639-40.10232.7817-11.41478-.5568-23.24296-.6994-34.37618 1.5849-5.10643-.4706-11.12871-6.9034-9.92811z"/><path d="m132.42293 35.23407c-7.6945 2.17125-5.9206 12.79289-6.2273 19.00216 1.6106 23.24538.8475 46.57408 2.1706 69.81693.068 7.09423 3.2021 16.90233 11.8853 16.22657 7.5709-1.76417 5.7778-11.8325 5.6557-17.71589-.047-7.84014-4.5559-19.23884 3.9165-24.30949 7.6405-5.37547 19.848.64078 18.6463 10.39069-.3251 8.83089-2.0837 22.16882 7.8287 26.47493 6.4024 2.92649 10.6176-5.21693 9.3943-10.71096-.3749-13.55442 1.2727-30.22607-10.711-39.6768-7.9735-4.05845-18.9828-5.54515-26.8307-.21351-1.0372 2.42576-6.9951 6.95054-6.4053 1.24546-1.6949-15.3749 2.056-31.45755-2.3485-46.40228-1.2024-2.63946-4.0324-4.45898-6.9746-4.12781z"/><path d="m442.14024 64.05759c-10.165-.2579-20.6562 1.86137-28.1474 9.18081-2.8958 2.05591-1.2663-4.94966-4.8395-5.01742-5.4074-2.93338-11.5829 2.98762-9.5367 8.75381.099 20.06919-1.977 40.97889 3.8787 60.387 3.1796 4.95849 13.7562 4.09337 12.7037-2.9891 1.546-15.53942-2.968-32.10549 3.167-46.86488 4.3319-8.66318 18.41-14.13659 25.3718-5.90704 3.521 6.12624-.9752 16.78774 6.8323 20.31879 7.6504 1.3481 9.6041-9.08157 8.825-14.7676-1.6539-6.72434-2.1565-14.5353-6.6544-19.99852-3.1376-2.78799-7.564-3.22067-11.6005-3.09585z"/></g><path d="m442.38294 54.04595c-.1827-.005-.3789.0345-.5625.0312-8.6942-.15632-18.301 1.16995-26.7813 5.96876-.368-.21564-.7676-.37654-1.1562-.5625l.031-.0625c-.2019-.10958-.4204-.1194-.625-.21875-.5569-.23563-1.1103-.37966-1.6874-.53125-6.0741-2.10894-12.7994-.4336-16.8438 3.34375-3.8577 3.60298-6.0063 9.29062-5.1562 15.125.085 19.31578-2.292 41.23535 4.3124 63.12499l.4063 1.3125.75 1.1875c4.4521 6.94297 11.5862 8.53059 18 7.46875 3.2069-.53092 6.701-1.89897 9.5-5.03125 2.2725-2.54317 3.5121-6.27514 3.5937-9.84375 0-.0435 0-.0816 0-.125 1.7478-17.81793-1.8544-32.72457 2.2813-43.375.6976-1.23208 3.1856-3.39065 5.4063-4.03125 1.1119-.32077 1.7363-.44325 2.1874-.40625.051.8996.2789 2.71568.5313 6.0625.1821 2.41445.4732 5.42185 2.0313 8.8125 1.558 3.39065 4.8419 6.94014 8.8437 8.75l1.1563.5 1.2187.21875c4.1545.73208 8.9361-.28467 12.2187-2.59375 3.2827-2.30908 5.1358-5.31163 6.3126-8.0625 2.3534-5.50175 2.5912-10.54096 1.9374-15.3125l-.062-.53125-.125-.5c-1.3372-5.43656-1.418-15.17693-8.6563-23.96874l-.4687-.59375-.5938-.53125c-6.0316-5.35952-13.0425-5.71213-18-5.59376v-.0312zm-20.9688 14.62501c.3103.61975.1924.76755.063.28125-.016-.0599-.046-.21107-.063-.28125zm-11.8437 14.15624c.271.10418.5347.22752.8125.3125l-.125.21875-.125.3125c-.2313.55649-.3535 1.10135-.5625 1.65625.01-.84699-.01-1.64903 0-2.5z" fill="url(#g)"/><path d="m334.93614 43.42895-1.125.0625c-11.4541.68757-31.1299 2.13948-42.5313 20.5l-.6875 1.15625-.5312 1.21875c-4.0155 9.09454-1.1737 19.34928 5 25.5-7.1006 9.03999-10.5361 20.69833-9.25 32.65625-.7932 13.71238 8.5163 26.58972 21.5624 30.34375l-.031.0625c14.5936 5.02387 28.3345 3.89176 40 1.875 1.1383.61027 2.377 1.24208 3.8438 1.84375 3.1932 1.30991 7.6804 2.60895 13.1874 1.96875 5.5071-.6402 11.3463-3.71585 15.0626-7.53125l.6562-.6875.5938-.75c7.375-9.27994 7.6766-20.19393 7.1874-26.8125-.4891-6.61857-1.0653-10.99648-1.0312-11.375l.125-1.46875-.094-1.5c-.9045-13.69999-.4438-31.50909-8.6874-49.71875-.8869-3.14352-2.6183-4.60975-5-6.625-14.193-12.04738-29.8012-10.22761-37.125-10.65625zm-5 69.25c-.6975.25422-.096-.059 3.5937.375 3.1757.3735 8.4922 1.29071 15.3437.34375-.042 1.60674-.047 3.10046.031 4.46875l-1.2187.25c-9.4296 1.92946-17.7526 2.70557-24.0626 1.71875.3089-2.61777 2.5558-6.11412 4.2813-6.53125l1.0313-.25 1-.375z" fill="#484848"/><path d="m242.86794 62.94328c-9.8451.59098-21.9234 2.57343-27.5069 11.56498-1.5225 3.44827 2.5155 7.16458 5.8003 4.55483 11.6876-3.18405 25.8772-8.64334 36.9368-1.03196 3.4255 4.6575 3.2712 13.73214-2.1351 16.8315-8.1137 1.83399-16.456-2.50178-24.589.4626-12.7407 3.08001-20.924 16.83116-18.6463 29.53519-1.221 6.03853 2.7535 11.58045 8.7182 12.59694 12.2603 4.22059 25.7141 2.25842 37.9688-.24909 3.9671 2.72001 9.7011 7.85911 14.3406 3.09585 6.2596-7.87653 1.273-19.02318 2.088-28.06851-.9577-14.50429-1.0481-29.91302-7.0343-43.1362-7.0905-6.01862-17.2216-5.6458-25.9411-6.15613z" fill="#484848" stroke="#484848" stroke-width="38"/><path d="m132.71733 24.19589c-.5004.0152-1.0205.0363-1.5312.0937l-.9063.0937-.8437.25c-4.2861 1.20943-8.1936 4.24904-10.375 7.56249-2.1816 3.31346-2.9841 6.56659-3.4063 9.375-.8444 5.61682-.3823 10.37282-.4687 12.125l-.031.65625.062.625c1.548 22.34205.8033 45.46456 2.125 69.1875.0005.0505.031.10568.031.15625.01.1151-.01.22862 0 .34375h.031c.099 4.98929.9665 10.43113 4.125 15.90625 3.2605 5.65198 11.0145 11.32149 19.5625 10.65625l.8438-.0625.8124-.1875c4.2384-.98762 8.3269-3.79564 10.625-7.09375 2.1728-3.63384 4.3342-6.89183 5.1872-10.22818 3.8402 7.13335 5.9507 8.04619 13.1566 11.44693v.0312c.059.0269.1281.0362.1875.0625 3.7423 1.65403 8.4312 1.97661 12.2813.65625 3.91101-1.34132 6.71761-3.90092 8.59371-6.5 3.336-4.62154 4.6441-9.64143 3.9063-15.25-.1718-6.20746.2238-14.23226-1.1563-22.8125s-5.0962-18.36284-13.75001-25.1875l-.8437-.6875-.9688-.5c-7.7653-3.95251-17.7087-6.355-27.4062-4.09375.4086-10.28331 1.089-21.96033-2.625-34.5625l-.2188-.75-.3125-.71875c-2.9167-6.40275-9.181-10.82231-16.6875-10.59374zm6.0625 53.99999c0 .0101.05.0315.062.0625l-.6245 1.46875c.3311-.86163.5542-1.56647.5625-1.53125zm36.0625 48.28125c.012-.004.019.005.031 0l.063.3125c-.043-.19086-.061-.25465-.094-.3125z" fill="url(#g)"/><path d="m133.3461 36.09636c-1.692.49428-2.8155 1.39846-3.625 2.625-.8214 1.24442-1.3243 2.85069-1.5938 4.625-.5342 3.51732-.1953 7.61208-.3438 10.8125v.0937c1.6063 23.27388.8692 46.5905 2.1876 69.75a.88388823.88388823 0 0 1 0 .0625c.033 3.4213.83 7.53419 2.5937 10.59375 1.7438 3.02495 4.2922 5.00636 8.2187 4.75.011-.00073.02.00077.031 0 1.6857-.39978 2.7542-1.19719 3.5313-2.3125.7819-1.12237 1.2391-2.59827 1.4687-4.25.4593-3.30346.0002-7.22907-.062-10.25a.88388823.88388823 0 0 1 0-.0312c-.023-3.75401-1.179-8.58343-1.25-13.1875-.071-4.59014 1.0512-9.12033 5.5625-11.84375.012-.008.019-.023.031-.0312 8.2411-5.75335 21.2001.72746 19.9687 11.1875v.0312c-.0004.01.0004.0216 0 .0312-.1662 4.44678-.6416 9.92071.094 14.71875.7386 4.81878 2.5857 8.83105 7.2188 10.84375a.88388823.88388823 0 0 1 .031 0c1.4264.65196 2.625.67804 3.6876.3125 1.0625-.36554 2.0152-1.15367 2.7812-2.21875 1.532-2.13016 2.2012-5.36524 1.6562-7.8125a.88388823.88388823 0 0 1 0-.15625c-.1887-6.82351.1073-14.35845-1-21.28125-1.1026-6.89383-3.5864-13.13587-9.3124-17.6875-7.7294-3.90433-18.3437-5.25802-25.7813-.25-.7734 1.48479-2.3237 3.00623-4 3.78125-.9043.41808-1.982.65336-2.875.0312-.8519-.59346-1.0866-1.72753-.9687-3.1875.01-.0705-.01-.11538 0-.1875-1.6634-15.48034 1.9617-31.38045-2.2813-45.9375-1.0363-2.2749-3.4784-3.85945-5.9687-3.625z" fill="#484848"/><path d="m500.00794 37.6397c-.47-.0246-.9099.13839-1.375.15625-.3182.036-.6564-.0583-.9688 0v.0937c-5.9486.59666-11.3199 4.27914-13.8124 8.625-2.5191 4.39212-3.1643 9.07388-2.4688 13.75001-.5691 24.07161-.3288 48.17845.031 71.96874l.031 1.1875.2813 1.125c2.2758 9.05358 10.1204 12.94327 17.2812 13.3125 3.5804.18461 7.6057-.50128 11.25-3.21875 3.4431-2.56742 5.753-7.21537 6.0625-11.6875h.062c.024-.26477.01-.51719.031-.78125 1.2169-14.32127-.1813-27.63851.6563-39.5625.8412-12.28307-.4559-23.97948-.6563-34.18749.9168-4.19732.7514-8.64033-1.75-13.09376-2.5398-4.52202-8.6787-7.57722-14.4374-7.5625-.073.00019-.1457-.001-.2188 0v-.125zm-.4375 10.46875 1.5625 8.375c-.089.0884-.5399.26586-.9688.50001-.4433-.17558-.588-.31717-1.125-.59376zm1.625 8.6875.125.65626c0-.00052-.146-.0578-.1563-.0625.013-.26164.01-.41632.031-.59376z" fill="url(#g)"/><path d="m499.48944 47.6175c-6.4927-.34021-9.3439 6.60543-8.1121 12.16941-.5858 24.07597-.3292 48.31194.034 72.30837 1.7508 6.96484 14.895 8.48808 15.0166-.0712 1.2169-13.27189-.274-26.75029.6639-40.10232.7817-11.41478-.5568-23.24296-.6994-34.37618 1.5849-5.10643-.4706-11.12871-6.9034-9.92811z" fill="#484848"/><path d="m544.51954 53.6313c-7.5784-.46784-10.6755 10.08558-4.626 14.19825 6.4831 5.13984 16.9776-2.57743 12.9884-10.24836-1.4384-3.20261-5.1136-4.25984-8.3624-3.94989z"/><path d="m66.312222 57.93009c-17.370703.62829-30.0641 20.09681-26.023403 36.39781 2.1928 10.05075 13.8541 12.09708 22.635103 11.4922 7.1377-.5151 17.6041 2.45346 16.7319 11.49222-1.8676 6.29718-10.9897 4.97438-16.0667 5.21679-7.019003.3042-14.551803-2.83467-21.309203-1.0251-5.546297 3.71601-.7698 11.63178 4.4362 13.09902 11.6204 3.85396 24.776703 2.98561 36.677203.52396 8.494404-1.78465 13.976704-9.66183 14.007304-18.12905.5362-8.45978-.1252-18.85777-9.082-22.63511-7.833304-4.5437-17.524404-2.59996-25.744004-4.64578-6.504303-3.75215-4.590203-15.08325 3.2137-15.54417 8.376-2.645 16.5844 3.54335 24.730904 1.74653 6.8027-2.75685 5.6777-13.26551-1.2924-15.19486-7.049504-3.53181-15.254704-2.74435-22.914604-2.79446z" fill="#484848" stroke="#484848" stroke-width="38"/><path d="m66.146122 46.92095-.2187.0312c-25.268203.91394-41.9786 26.29641-36.375 49.71875v.0312c.023.0937.039.18758.062.28125h.062c1.4158 6.03031 5.2241 10.72981 9.5937 13.9375l-1.5937.4375-1.5313 1c-3.4934 2.34058-6.2461 6.40677-7.0312 10.4375-.7852 4.03073.016 7.64447 1.2812 10.53125 2.4625 5.61698 6.4364 9.72109 12.843797 11.6875v.0312c.1235.0409.2514.0537.375.0937.044.0142.081.0484.125.0625 14.2876 4.59699 29.052403 3.33987 41.875007.6875h.031c13.703-2.87897 22.354804-15.23519 22.687504-28.1875h.031c.01-.1043-.01-.23849 0-.34375 0-.10511.031-.20733.031-.3125h-.031c.275-4.68022.3633-10.21921-1.4063-16.21875-1.6128-5.46789-5.6186-11.40935-11.718704-15.03125 15.051404-6.74017 13.339704-29.63818-1.6875-35.15625-10.474104-5.01096-20.429304-3.67474-27.156304-3.71875h-.25zm-16.218703 77.15625c.4736.11312.7429.17483.6875.1875-.1379-.0437-.3009-.0484-.4375-.0937l-.25-.0937z" fill="url(#h)"/><path d="m67.047 59.37761c-16.2905.63585-28.4267 19.25728-24.625 34.59375a1.4420115 1.4420115 0 0 1 0 .0312c.9874 4.52574 3.9833 7.14275 7.9688 8.71875 3.9854 1.576 8.921 1.948 13.1562 1.65625 3.8182-.27555 8.4163.35581 12.1562 2.34375 3.74 1.98794 6.6157 5.6345 6.125 10.71875a1.4420115 1.4420115 0 0 1 -.062.28125c-.5618 1.89409-1.746 3.32797-3.1876 4.25-1.4415.92203-3.0867 1.39395-4.7812 1.65625-3.3889.5246-7.0334.23046-9.4062.34375-7.4077.32104-14.726-2.60314-20.7813-1.09375-.9228.69289-1.3969 1.4625-1.5625 2.3125-.1806.92739-.017 2.01851.4688 3.125.9708 2.21298 3.281 4.32492 5.3437 4.90625a1.4420115 1.4420115 0 0 1 .062 0c11.2515 3.73156 24.1465 2.93253 35.9062.5 7.7821-1.63499 12.8466-8.87337 12.875-16.71875a1.4420115 1.4420115 0 0 1 0-.0937c.2634-4.15469.2008-8.71518-.9374-12.5625-1.1383-3.84732-3.227-6.9152-7.2813-8.625a1.4420115 1.4420115 0 0 1 -.1563-.0937c-7.233-4.1955-16.6908-2.33856-25.375-4.5a1.4420115 1.4420115 0 0 1 -.375-.15625c-7.593-4.38022-5.364-17.27483 3.5-18.15625v-.0312c.1153-.0364.2288-.0291.3438-.0625 4.5012-1.3064 8.8395-.37995 12.875.59375 4.0804.98454 7.88 1.92841 11.4688 1.1875 5.4755-2.31046 4.4951-10.8333-1.1876-12.40625a1.4420115 1.4420115 0 0 1 -.2812-.0937c-6.5535-3.28332-14.4405-2.57842-22.1875-2.625-.021-.00013-.042.00014-.062 0z" fill="#484848"/><path d="m334.91414 52.45217-.5624.0312c-10.692.64182-26.7608 2.35866-35.4063 16.28126l-.375.59375-.2813.625c-2.6168 5.92672-.4865 12.63582 3.8126 16.24999 2.47 2.0766 6.1544 2.97511 9.8124 2.75-12.1731 7.16212-18.9579 21.29295-17.0937 35.5-.9321 10.0329 5.7963 19.42583 15.4375 21.90625v.0312c13.5839 4.67628 27.0449 3.11875 38.7812.90625 1.4491.98507 3.2876 2.06677 5.5626 3 2.2748.93323 5.2583 1.74964 8.75 1.34375 3.4915-.40589 7.1195-2.30283 9.625-4.875l.375-.34375.3124-.40625c5.3642-6.74967 5.6479-14.75709 5.2188-20.5625s-1.211-10.50221-1-12.84375l.062-.78125-.062-.75c-.9297-14.08097-.732-30.77734-7.9062-46.62499-.4593-1.65783-1.3753-2.43205-2.625-3.4999-10.8288-9.19166-23.8588-8.03267-31.8438-8.50001l-.5938-.0312zm22.0626 47.46875c.2983 4.01025.663 7.89337.9374 12.09375-.3619 6.15055.7536 11.18085 1.0313 14.9375.091 1.23358-.0003 1.89681-.031 2.71875-.7261-.49389-.8804-.56988-1.7812-1.1875l-3.5-2.40625-4.1562.84375c-11.8502 2.42474-23.4896 3.77093-32.7188.59375l-.75-.25-.8125-.15625c-.7563-.12889-.7437-.008-.5937-.75l.375-1.875-.3438-1.875c-1.3223-7.37497 4.0726-16.31882 11.1562-18.03125l.5626-.15625.5312-.1875c1.5591-.56829 3.7957-.58273 7.6875-.125s9.2275 1.48444 15.6563.0312l1.4687-.34375 1.3125-.75c1.5458-.8862 2.8481-1.95265 3.9688-3.125z" fill="url(#g)"/><path d="m442.8461 65.50261c-9.9417-.25223-20.0112 1.83054-27.125 8.78125a1.4249747 1.4249747 0 0 1 -.1876.125c-.4923.34955-1.0141.64308-1.6874.65625-.6734.0132-1.3402-.39879-1.6876-.8125-.6947-.82743-.7686-1.5945-.9687-2.34375s-.4246-1.47139-.6563-1.84375c-.2316-.37236-.2624-.39819-.6874-.40625a1.4249747 1.4249747 0 0 1 -.6563-.1875c-2.1511-1.16691-4.3134-.58174-5.9063.90625-1.5928 1.48799-2.4145 3.81205-1.5937 6.125a1.4249747 1.4249747 0 0 1 .094.46875c.099 20.08519-1.9054 40.73856 3.75 59.71875 1.2377 1.74956 4.0539 2.66609 6.4063 2.28125 1.2075-.19755 2.2216-.71247 2.8437-1.40625.6222-.69378.9615-1.54589.75-2.96875a1.4249747 1.4249747 0 0 1 0-.375c1.5091-15.16756-3.1254-31.94343 3.25-47.28125a1.4249747 1.4249747 0 0 1 .031-.0625c2.3884-4.77662 7.2847-8.50018 12.5937-10.03125 5.3091-1.53107 11.2689-.75156 15.1563 3.84375a1.4249747 1.4249747 0 0 1 .1563.1875c2.0694 3.60071 1.6918 8.0153 1.9687 11.75.1385 1.86735.4194 3.54061 1.0313 4.875.5916 1.2904 1.4751 2.25734 3.0312 3 1.4606.20734 2.5297-.051 3.4375-.6875.9587-.67214 1.771-1.81376 2.375-3.21875 1.2079-2.80999 1.508-6.6831 1.1563-9.25-1.6601-6.82503-2.269-14.23556-6.2813-19.1875-2.6943-2.32961-6.6692-2.77567-10.5313-2.65625a1.4249747 1.4249747 0 0 1 -.062 0z" fill="#484848"/><path d="m548.52594 68.07721-1.2187.25c-8.6956 1.82574-14.1425 9.53796-15.9688 15.68749-1.8263 6.14954-1.7462 11.84707-1.8125 15.71875v.125.125c.1092 10.79916-.5536 24.0134 4.9063 37 .01.0225.022.0401.031.0625 2.7726 6.62078 9.3817 9.9621 15.5625 9.5625 5.6001-.36206 11.8353-5.2195 13.5-11.53125 5.3924-17.21633 5.3013-35.62075 1.75-52.53125l-.1563-.6875-.2187-.62499c-.7814-2.19128-1.853-4.62969-3.9375-7.1875s-5.8401-5.71667-11.1875-5.9375l-1.25-.0312z" fill="url(#f)"/><path d="m550.1139 78.59636c-4.5226.97522-6.7823 4.26272-8 8.375-1.2232 4.13111-1.3087 9.03503-1.375 12.90625.1123 11.09592-.2043 22.90976 4.0938 33.09375.9213 2.22841 3.1731 3.32073 5.25 3.1875s3.906-1.39 4.1562-4.09375a.46475483.46475483 0 0 1 .031-.0937c4.7332-15.11164 4.7084-31.85462 1.4687-47.28125-.4788-1.32581-1.2248-2.85305-2.1874-4.03125-.9629-1.17844-2.1146-1.98485-3.4376-2.0625z" fill="#484848"/><path d="m242.87094 52.92092-.5938.0312c-10.6919.64192-26.7607 2.35873-35.4062 16.28131l-.375.59375-.2813.65625c-2.6168 5.92671-.4864 12.60456 3.8125 16.21874 2.4771 2.0825 6.1757 2.98309 9.8438 2.75-12.176 7.14722-18.9659 21.26849-17.125 35.46875-.9665 10.0609 5.7999 19.48906 15.4687 21.96875l-.031.0312c13.5891 4.67806 27.073 3.12012 38.8125.90625 1.4445.97996 3.2715 2.07302 5.5313 3 2.2749.93323 5.2585 1.71839 8.75 1.3125s7.1509-2.27156 9.6562-4.84375l.3438-.375.3125-.40625c5.3641-6.74969 5.6478-14.72585 5.2187-20.53125s-1.2109-10.50221-1-12.84375l.062-.78125-.062-.78125c-.9297-14.081-.7006-30.74608-7.875-46.59374l-.9375-2.0625-1.7187-1.4375c-10.8287-9.19167-23.8276-8.06392-31.8125-8.53126l-.5938-.0312zm22.0312 47.5c.2974 4.00059.6637 7.87292.9375 12.0625-.3619 6.15055.7536 11.2121 1.0313 14.96875.091 1.22812 0 1.86766-.031 2.6875-.7261-.49388-.8805-.56989-1.7813-1.1875l-3.5-2.40625-4.1562.875c-11.8502 2.42475-23.4582 3.77094-32.6875.59375l-.7813-.28125-.8125-.125c-.7563-.12888-.7437-.0396-.5938-.78125l.375-1.84375-.3437-1.875c-1.3223-7.37494 4.0726-16.35008 11.1562-18.0625l.5625-.125.5313-.1875c1.5591-.56828 3.7957-.58273 7.6875-.125s9.2275 1.45313 15.6562 0l1.4688-.3125 1.3125-.75c1.5458-.8862 2.8482-1.95265 3.9687-3.125z" fill="url(#e)"/><path d="m243.6361 64.63031c-9.6363.58398-20.9336 2.59484-26.0312 10.625-.4035.99026-.045 1.9107.6562 2.5.717.60234 1.4896.85243 2.5626 0a1.684398 1.684398 0 0 1 .625-.3125c5.775-1.5733 12.3167-3.78461 18.9374-4.625 6.6208-.84039 13.4444-.25925 19.4063 3.84375a1.684398 1.684398 0 0 1 .375.375c2.0281 2.75755 2.9112 6.50666 2.5937 10.125-.3174 3.61834-1.9072 7.25777-5.2187 9.15625a1.684398 1.684398 0 0 1 -.4687.1875c-4.4561 1.00721-8.7953.29068-12.875-.1875-4.0798-.47818-7.8868-.73461-11.5313.59375a1.684398 1.684398 0 0 1 -.1563.0312c-11.7884 2.8498-19.5228 15.78804-17.4062 27.59375a1.684398 1.684398 0 0 1 0 .65625c-1.0407 5.14641 2.2557 9.72666 7.3438 10.59375a1.684398 1.684398 0 0 1 .2812.0625c11.7498 4.04484 24.8758 2.18109 37.0625-.3125a1.684398 1.684398 0 0 1 1.2813.28125c2.0816 1.42722 4.4575 3.29235 6.625 4.1875 1.0837.44757 2.0633.63094 2.9374.53125.8627-.0984 1.6764-.44585 2.5938-1.375.01-.0118.022-.0195.031-.0312 2.6608-3.43997 2.9705-7.61463 2.625-12.3125-.3431-4.66636-1.3766-9.66321-1-14.46875-.9524-14.4251-1.1073-29.45823-6.7187-42.15625-6.4124-5.22259-15.7954-5.06556-24.4687-5.5625-.021-.001-.042.001-.063 0z" fill="#484848" stroke="#484848" stroke-width="3"/><path d="m252.9376 106.30395c-3.4993.0307-6.9607-.0581-10.375.0312-4.1004.36044-9.0376 1.69024-12.625 4.09375-3.614 2.42133-5.8704 5.68864-5.2813 10.4375.4935 4.61527 3.5645 7.56447 7.6876 9.21875 4.123 1.65428 9.2633 1.8209 13.1562.65625a1.3611835 1.3611835 0 0 1 .1562-.0312c2.8688-.49834 6.5939-1.2529 9.2813-2.71875 1.3437-.73292 2.3836-1.63683 3.0313-2.6875.6476-1.05067.9604-2.26047.6874-3.96875a1.3611835 1.3611835 0 0 1 0-.28125c.1564-2.76724.3451-6.68524-.375-9.71875-.36-1.51676-.9264-2.77474-1.75-3.625-.8176-.8442-1.8698-1.36151-3.5624-1.40625-.012-.00032-.019.00027-.031 0z" fill="url(#d)"/><path d="m550.24144 11.97714c-4.7431.00008-9.3884 1.94508-12.1562 5.65625-2.3938 3.20927-3.2655 7.28209-3.5 11.84374-5.2417.10768-9.658.71067-13.2813 2.53125-3.7519 1.88519-6.5576 5.75636-6.9063 9.9375h-.062c-.013.1027.011.20947 0 .3125 0 .043-.03.0819-.031.125h.031c-.383 3.94189.8037 8.08581 3.625 10.84375 1.7434 1.70445 3.9242 2.79035 6.3124 3.59375l-.875 2.4375-.062.125-.031.125c-1.0239 3.32791-.9882 7.09444.8437 10.15625 1.8322 3.06181 4.9132 4.85334 8.3438 5.90625l.7188.21875h.75 2.2812c4.1038.00005 8.0184-1.11288 11.1562-3.5 1.388-1.05587 2.5677-2.38102 3.5938-3.8125 2.738 2.5559 6.0541 4.80834 10 6.78125l.5.25.5312.15625c3.235.79227 6.3972.95306 9.4063-.1875 2.9956-1.13542 5.3523-3.78973 6.4375-6.71875h.031v-.0312c1.3188-3.58119 1.0754-7.65809-.4687-11.1875-.3593-.82136-.9637-1.56048-1.4375-2.34375.7988-.35352 1.5774-.75006 2.3125-1.28125 3.1456-2.2731 4.4669-6.43958 4.1563-10.25h.031c0-.12851-.061-.24691-.062-.375-.017-.15367.023-.31671 0-.46875h-.062c-.2506-3.85862-2.6242-7.47641-5.875-9.5625-3.1968-2.05143-7.2278-3.19745-12.0625-4.03124-.5947-4.02941-1.4462-7.64148-3.125-10.53125-2.2702-3.9078-6.5646-6.71865-11.0625-6.71875zm18.3125 50.62499c.2654.97712.2969 1.7705-.031 2.65625v.0312c-.3181.86918-.3036.72198-.625.84375-.2585.098-1.2073.14918-2.5624-.0625.3313-.1475.7366-.14338 1.0312-.34375l.4375-.28125.375-.40625c.5814-.62017.9776-1.55372 1.375-2.4375z" fill="#305f00"/><path d="m550.24549 16.984496q8.54083 0 9.83001 16.920498h2.33664q15.22844 2.33664 15.0673 9.668855 1.28918 8.621397-11.03861 7.976806 9.42713 8.299101 6.7682 15.470169-2.09492 5.72074-9.99116 3.786969-8.70197-4.350985-12.32779-9.991151h-1.5309q-3.3841 9.991151-13.13353 9.991151h-2.25606q-8.13796-2.497788-5.88189-9.830003l2.82008-7.815659h-.80574q-11.92492-1.692049-10.79688-10.555167.32229-8.137954 16.35648-8.218527 4.43155-.483443 3.70639-2.820083 0-14.583858 10.87746-14.583858zm-4.5927 16.034186-.16115 4.512133q-.24172 3.384099-2.17549 3.384099l-12.73066.725164q-2.98123.08057-2.98123 2.417214 0 2.256067 3.22295 2.417214 11.19976-.564016 10.47459 1.530902l-2.25606 4.834428q-5.72074 8.621396-2.82009 10.152299 3.86754 2.33664 10.95804-12.08607 1.69205-1.530902 2.82008 0 4.99558 5.317871 8.21853 8.70197 3.30353 3.3841 5.31787 2.014345 2.41721-2.578361-1.28918-5.559592-3.62582-3.061804-8.2991-8.379675-.48344-1.772623.24172-1.772623 15.79246 1.047459 15.14787-2.014345.48345-3.3841-13.69754-3.3841-2.17549.402869-3.54525-1.047459v-7.896232q0-6.607052-3.14238-6.526478-3.3841-.805738-3.30352 7.976806z" fill="url(#c)"/><path d="m335.7911 64.63031c-9.6363.58398-20.9336 2.59484-26.0312 10.625-.4035.99026-.045 1.9107.6562 2.5.717.60234 1.4896.85243 2.5626 0a1.684398 1.684398 0 0 1 .625-.3125c5.775-1.5733 12.3167-3.78461 18.9374-4.625 6.6208-.84039 13.4444-.25925 19.4063 3.84375a1.684398 1.684398 0 0 1 .375.375c2.0281 2.75755 2.9112 6.50666 2.5937 10.125-.3174 3.61834-1.9072 7.25777-5.2187 9.15625a1.684398 1.684398 0 0 1 -.4687.1875c-4.4561 1.00721-8.7953.29068-12.875-.1875-4.0798-.47818-7.8868-.73461-11.5313.59375a1.684398 1.684398 0 0 1 -.1563.0312c-11.7884 2.8498-19.5228 15.78804-17.4062 27.59375a1.684398 1.684398 0 0 1 0 .65625c-1.0407 5.14641 2.2557 9.72666 7.3438 10.59375a1.684398 1.684398 0 0 1 .2812.0625c11.7498 4.04484 24.8758 2.18109 37.0625-.3125a1.684398 1.684398 0 0 1 1.2813.28125c2.0816 1.42722 4.4575 3.29235 6.625 4.1875 1.0837.44757 2.0633.63094 2.9374.53125.8627-.0984 1.6764-.44585 2.5938-1.375.01-.0118.022-.0195.031-.0312 2.6608-3.43997 2.9705-7.61463 2.625-12.3125-.3431-4.66636-1.3766-9.66321-1-14.46875-.9524-14.4251-1.1073-29.45823-6.7187-42.15625-6.4124-5.22259-15.7954-5.06556-24.4687-5.5625-.021-.001-.042.001-.063 0z" fill="#484848" stroke="#484848" stroke-width="3"/><path d="m345.6192 106.30395c-3.4993.0307-6.9607-.0581-10.375.0312-4.1004.36044-9.0376 1.69024-12.625 4.09375-3.614 2.42133-5.8704 5.68864-5.2813 10.4375.4935 4.61527 3.5645 7.56447 7.6876 9.21875 4.123 1.65428 9.2633 1.8209 13.1562.65625a1.3611835 1.3611835 0 0 1 .1562-.0312c2.8688-.49834 6.5939-1.2529 9.2813-2.71875 1.3437-.73292 2.3836-1.63683 3.0313-2.6875.6476-1.05067.9604-2.26047.6874-3.96875a1.3611835 1.3611835 0 0 1 0-.28125c.1564-2.76724.3451-6.68524-.375-9.71875-.36-1.51676-.9264-2.77474-1.75-3.625-.8176-.8442-1.8698-1.36151-3.5624-1.40625-.012-.00032-.019.00027-.031 0z" fill="url(#b)"/></g></svg>