<svg height="521.74377mm" viewBox="0 0 521.76007 521.74377" width="521.76007mm" xmlns="http://www.w3.org/2000/svg"><g transform="matrix(1.2919108 0 0 1.2919108 -69.82527 -69.85447)"><path d="m316.58 256v60.58h-60.58a60.58 60.58 0 1 1 60.58-60.58m-59.81-101a101 101 0 1 0 -6 201.91c1.75 0 3.5.06 5.25 0h100.98v-99.7c0-55.67-44.53-101.81-100.2-102.23" fill="#20ee82"/><path d="m398.78 113.21c-69.09-69.09-175.78-77.64-254.2-25.67a40.48 40.48 0 0 1 5.8 8.29c74.43-49.11 175.81-40.94 241.26 24.52 74.79 74.79 74.79 196.5 0 271.29s-196.5 74.79-271.29 0c-65.45-65.45-73.63-166.83-24.53-241.25a40.14 40.14 0 0 1 -8.29-5.81c-52 78.41-43.42 185.11 25.67 254.2 78.86 78.86 206.71 78.86 285.57 0s78.86-206.71 0-285.57" fill="#7f8c8d"/><path d="m100.37 100.37a20.19 20.19 0 1 1 0 28.56 20.19 20.19 0 0 1 0-28.56" fill="#20ee82"/></g></svg>