<svg height="512" viewBox="0 0 512 512" width="512" xmlns="http://www.w3.org/2000/svg" xmlns:xlink="http://www.w3.org/1999/xlink"><clipPath id="a"><path d="m0 0h138v139h-138z"/></clipPath><clipPath id="b"><path clip-rule="evenodd" d="m-306 254h750v-1334h-750z"/></clipPath><clipPath id="c"><path clip-rule="evenodd" d="m25.67427 9.015628 2.47459-7.767814c.15369-.483907.50182-.8792559.966-1.088.23209-.10753493.483-.15813958.73705-.15813958.23836 0 .47986.05060465.70568.14865118l7.44573 3.2481864-1.42391 3.289302-5.62977-2.457488-1.87241 5.879624z"/></clipPath><clipPath id="d"><path d="m0 0h138v139h-138z"/></clipPath><clipPath id="e"><path d="m25 0h13v11h-13z"/></clipPath><clipPath id="f"><path clip-rule="evenodd" d="m38.00332 10.10995v-10.10827558l-12.32905.00000054v10.10827504z"/></clipPath><linearGradient id="g"><stop offset="0" stop-color="#9adaf4"/><stop offset="1" stop-color="#c1dff4"/></linearGradient><linearGradient id="h" gradientTransform="matrix(1 0 0 -1 25.67427 10.10995)" gradientUnits="userSpaceOnUse" spreadMethod="pad" x1="512.10419" x2="512.1037" xlink:href="#g" y1="-13054.61" y2="1024.2"/><clipPath id="i"><path clip-rule="evenodd" d="m38.00332 10.10995v-10.10827558l-12.32905.00000054v10.10827504z"/></clipPath><linearGradient id="j" gradientTransform="matrix(1 0 0 -1 25.67427 10.10995)" gradientUnits="userSpaceOnUse" spreadMethod="pad" x1="6.165778" x2="6.165772" xlink:href="#g" y1="-128.8669" y2="10.11025"/><clipPath id="k"><path clip-rule="evenodd" d="m-306 254h750v-1334h-750z"/></clipPath><clipPath id="l"><path clip-rule="evenodd" d="m59.28982 138.3643.46418-3.5582c5.13736.68 10.46605.7876 15.63477.3163l.32618 3.574c-2.22054.2024-4.46931.3036-6.72122.3036-3.25241 0-6.51423-.2119-9.70391-.6357zm22.30268-4.0927c5.16245-.9456 10.19005-2.4796 14.95732-4.5576l1.41763 3.2925c-5.01504 2.1887-10.30922 3.8017-15.72886 4.7948zm-44.31055-2.5144 1.55878-3.226c4.67318 2.2803 9.63491 4.0199 14.75032 5.1743l-.78723 3.5044c-5.37887-1.2177-10.60091-3.0521-15.52187-5.4527zm64.88505-4.8138c4.5948-2.5428 8.8634-5.6171 12.6772-9.1373l2.415 2.6473c-4.0239 3.7099-8.5277 6.9518-13.3734 9.6307zm-83.62795-8.5648 2.53104-2.5334c3.65386 3.6815 7.78446 6.9423 12.27573 9.6813l-1.85359 3.0679c-4.73278-2.8908-9.09232-6.3256-12.95318-10.2158zm100.69925-5.0383c3.5033-3.9409 6.4734-8.277 8.8257-12.8916l3.174 1.6415c-2.4871 4.8834-5.6298 9.4758-9.3401 13.6411zm-113.828073-13.95425 3.252409-1.48335c2.129594 4.7189 4.895864 9.1879 8.214134 13.2806l-2.76313 2.274c-3.519-4.3362-6.448367-9.0677-8.703413-14.07125zm125.197373-4.65563c1.8661-4.88968 3.0674-10.00391 3.566-15.20354l3.5504.34475c-.5238 5.51907-1.8003 10.95274-3.7856 16.14921zm-130.59505455-17.84763 3.56290955-.16763c.247772 5.22493 1.194954 10.38977 2.81959 15.35535l-3.390409 1.12279c-1.728136-5.27237-2.7380451-10.76297-2.99209055-16.31051zm132.13495455-19.05581 3.4281-1.00261c1.5399 5.32298 2.3585 10.84205 2.4244 16.4054l-3.5692.04428c-.0627-5.24075-.8311-10.43405-2.2833-15.44707zm-132.1475 12.45507c.1881818-6.08838.8562273-11.44298 2.032364-16.36112l3.471954.83814c-1.119682 4.68093-1.753227 9.79833-1.935136 15.63684zm122.3182-31.91256 2.8353-2.17284c3.3778 4.44372 6.1441 9.27647 8.2329 14.35591l-3.2994 1.36316c-1.9697-4.78846-4.5791-9.34605-7.7688-13.54623zm-118.375791 9.16893c1.991591-5.44316 4.695136-10.18102 8.273731-14.46028l2.73491 2.30251c-3.30887 3.96614-5.814823 8.34344-7.655868 13.39442zm102.374091-24.01823 1.9445-3.00782c4.6481 3.03312 8.8947 6.60391 12.6301 10.61749l-2.6063 2.45116c-3.5378-3.79851-7.5618-7.17953-11.9683-10.06083zm-89.47736 4.73469c1.16045-1.06269 2.39931-2.09693 3.69463-3.08055l3.13637-9.86159 3.39981 1.09749-3.312 10.40242c-.1129.3574-.33559.67051-.63354.89507-1.36746 1.02158-2.67532 2.09693-3.88596 3.20391zm69.48613-13.52093.88446-3.4759c5.34436 1.37265 10.50682 3.36204 15.35877 5.90493l-1.6529 3.18493c-4.60728-2.4227-9.51255-4.31089-14.59033-5.61396zm-32.52095-.52502-11.32855-4.943442 1.42391-3.295628 10.74832 4.69674c1.21691-.33525 2.20173-.58827 3.0705-.784367l.79036 3.501207c-.95345.21823-2.07.50289-3.519.90772-.15681.04428-.31677.06642-.47672.06642-.2415 0-.483-.0506-.70882-.14865zm15.17059-1.6573c-1.83791 0-3.22105.0095-4.44109.05377l-.13173-3.589772c1.2765-.044279 2.69727-.053768 4.57282-.053768 3.95495 0 7.92245.319442 11.78959.942512l-.57082 3.548648c-3.67895-.60093-7.45513-.90139-11.21877-.90139z"/></clipPath><clipPath id="m"><path d="m0 0h138v139h-138z"/></clipPath><clipPath id="n"><path d="m0 5h138v134h-138z"/></clipPath><clipPath id="o"><path clip-rule="evenodd" d="m138 139v-133.030142l-138.0000057.000006.0000057 133.030136z"/></clipPath><linearGradient id="p" gradientTransform="matrix(1 0 0 -1 -.000006 139)" gradientUnits="userSpaceOnUse" spreadMethod="pad" x1="511.9884" x2="511.98831" xlink:href="#g" y1=".000024" y2="1069.969"/><clipPath id="q"><path clip-rule="evenodd" d="m138 139v-133.030142l-138.0000057.000006.0000057 133.030136z"/></clipPath><linearGradient id="r" gradientTransform="matrix(1 0 0 -1 -.000006 139)" gradientUnits="userSpaceOnUse" spreadMethod="pad" x1="68.998444" x2="68.998428" xlink:href="#g" y1=".000003" y2="139.00211"/><clipPath id="s"><path clip-rule="evenodd" d="m-306 254h750v-1334h-750z"/></clipPath><clipPath id="t"><path clip-rule="evenodd" d="m36.9029 15.91929c-.28541 0-.57082.06958-.83114.20875-.54259.28781-.90014.83181-.94718 1.44856l-1.37373 17.74641c-5.82423 4.4374-10.35314 10.16205-13.46755 17.03163-3.07363 6.76837-4.6324 14.32428-4.6324 22.44316 0 27.7219 24.38209 50.2789 54.35004 50.2789 29.96482 0 54.35006-22.557 54.35006-50.2789 0-27.72502-24.38524-50.28204-54.35006-50.28204-4.98368 0-9.91718.62307-14.68132 1.85972l-17.51972-10.21265c-.27914-.1613-.5865-.24354-.897-.24354"/></clipPath><clipPath id="u"><path d="m0 0h138v139h-138z"/></clipPath><rect fill="#2090ea" height="504.64196071728" ry="47.1186414887" width="504.64196071728" x="3.67902257469" y="3.67901270802"/><g clip-path="url(#a)" transform="matrix(2.87773246139 0 0 -2.87773246139 57.43645989742 466.00481448321)"><g clip-path="url(#b)"><g clip-path="url(#c)"><g clip-path="url(#d)"><g clip-path="url(#e)"><g clip-path="url(#f)"><path d="m25.67427.00167442h12.32905v10.10827958h-12.32905z" fill="url(#h)"/></g><g clip-path="url(#i)"><path d="m25 0h14v11h-14z" fill="url(#j)"/></g></g></g></g></g><g clip-path="url(#k)"><g clip-path="url(#l)"><g clip-path="url(#m)"><g clip-path="url(#n)"><g clip-path="url(#o)"><path d="m0 5.969858h138v133.030102h-138z" fill="url(#p)"/></g><g clip-path="url(#q)"><path d="m0 5h138v134h-138z" fill="url(#r)"/></g></g></g></g></g><g clip-path="url(#s)"><g clip-path="url(#t)"><g clip-path="url(#u)"><path d="m10.6509 130.0767h118.7001v-119.15741h-118.7001z" fill="#f2f2f2"/></g></g></g></g></svg>