<svg height="256" viewBox="0 0 256 256" width="256" xmlns="http://www.w3.org/2000/svg"><path d="m97.279984 3.7299278 2.879996 11.6400062a115.68007 115.68007 0 0 0 -32.160013 13.300008l-6.160003-10.280006a127.52007 127.52007 0 0 1 35.44002-14.6600082zm61.440026 0-2.88 11.6400062a115.68007 115.68007 0 0 1 32.16002 13.300008l6.20001-10.280006a127.52007 127.52007 0 0 0 -35.48003-14.6600082zm-140.320071 58.1000332a127.52007 127.52007 0 0 0 -14.6600092 35.44002l11.6400072 2.879999a115.68007 115.68007 0 0 1 13.300008-32.160016zm-6.400004 66.160029a115.80007 115.80007 0 0 1 1.300001-17.38001l-11.8600076-1.8a128.46007 128.46007 0 0 0 0 38.36002l11.8600076-1.8a115.80007 115.80007 0 0 1 -1.300001-17.38001zm182.160105 109.60007-6.16001-10.28001a115.68007 115.68007 0 0 1 -32.12002 13.30001l2.88 11.64a127.52007 127.52007 0 0 0 35.40003-14.66zm49.84002-109.60007a115.80007 115.80007 0 0 1 -1.3 17.38001l11.86001 1.8a128.46007 128.46007 0 0 0 0-38.36002l-11.86001 1.8a115.80007 115.80007 0 0 1 1.3 17.38001zm8.26001 30.72002-11.64001-2.88a115.68007 115.68007 0 0 1 -13.30001 32.16002l10.28001 6.2a127.52007 127.52007 0 0 0 14.66001-35.48002zm-106.88006 84.00005a116.82007 116.82007 0 0 1 -34.76002 0l-1.8 11.86001a128.46007 128.46007 0 0 0 38.36002 0zm76.00004-45.90003a116.42007 116.42007 0 0 1 -24.58001 24.56002l7.12 9.66a128.20007 128.20007 0 0 0 27.12002-27.04001zm-24.58001-162.200085a116.42007 116.42007 0 0 1 24.58001 24.580014l9.66001-7.200004a128.20007 128.20007 0 0 0 -27.04002-27.040016zm-162.180092 24.580014a116.42007 116.42007 0 0 1 24.580014-24.580014l-7.200004-9.660006a128.20007 128.20007 0 0 0 -27.040016 27.040016zm202.980112 2.640002-10.28001 6.160003a115.68007 115.68007 0 0 1 13.30001 32.120016l11.64001-2.879999a127.52007 127.52007 0 0 0 -14.66001-35.40002zm-126.98007-48.540028a116.82007 116.82007 0 0 1 34.76002 0l1.8-11.8600065a128.46007 128.46007 0 0 0 -38.36002 0zm-69.840038 220.920117-24.780015 5.78001 5.780004-24.78002-11.680007-2.74-5.7800039 24.78002a12.000007 12.000007 0 0 0 14.4200089 14.42l24.760014-5.68zm-28.180017-32.44001 11.680007 2.72 4.000002-17.18001a115.50007 115.50007 0 0 1 -12.900007-31.48002l-11.6400072 2.88a127.04007 127.04007 0 0 0 11.8000072 30.42002zm56.000033 26.00001-17.18001 4 2.720001 11.68001 12.640008-2.94a127.04007 127.04007 0 0 0 30.420017 11.8l2.879996-11.64a115.50007 115.50007 0 0 1 -31.400012-12.98001zm59.400032-203.780111a104.00006 104.00006 0 0 0 -88.000049 159.340081l-10.000006 42.66003 42.660025-10.00001a104.00006 104.00006 0 1 0 55.34003-192.000101z" fill="#3a76f0" stroke-width="2.000001"/></svg>