<svg height="160" viewBox="0 0 160 160" width="160" xmlns="http://www.w3.org/2000/svg" xmlns:xlink="http://www.w3.org/1999/xlink"><filter id="a"><feGaussianBlur stdDeviation="1.52"/></filter><filter id="b"><feGaussianBlur stdDeviation="1.265"/></filter><path d="m50.995729 4.6462802c-8.31 0-15 6.6899998-15 14.9999998v89.99998c0 8.31 6.69 15 15 15h73.156251l-.15625.0625 32 12.9375-.0937-26-.0312.0312c.0899-.66659.125-1.33927.125-2.03125v-89.99998c0-8.31-6.69-14.9999998-15-14.9999998z" fill="#333" filter="url(#b)" opacity=".8"/><rect fill="#a59cca" height="120" ry="15" width="120" x="34.776978" y="3.30253"/><path d="m-47.651278 44.984287-31.991574 18.345344.108254-36.878188z" fill="#7568ae" transform="matrix(-1.0002634 0 0 .7050238 75.11315 91.653632)"/><rect fill="#333" filter="url(#a)" height="120" opacity=".8" ry="15" width="120" x="4.004159" y="36.653774"/><path d="m-47.651278 44.984287-31.991574 18.345344.108254-36.878188z" fill="#333" filter="url(#a)" opacity=".8" transform="matrix(1.0002634 0 0 .7050238 83.667989 5.004878)"/><rect fill="#7568ae" height="120" ry="15" width="120" x="2.776979" y="35.302528"/><path d="m-47.651278 44.984287-31.991574 18.345344.108254-36.878188z" fill="#5a4e91" transform="matrix(1.0002634 0 0 .7050238 82.440808 3.653633)"/><path d="m62.776979 61.67753c-10.49341 0-19 8.506589-19 19 0 7.13387 3.935339 13.345037 9.75 16.593737l-3.75 31.031243h26l-3.75-31.031243c5.814661-3.2487 9.75-9.459867 9.75-16.593737 0-10.493411-8.506589-19-19-19z" fill="#fff"/></svg>