<svg height="298" viewBox="0 0 298 298" width="298" xmlns="http://www.w3.org/2000/svg"><path d="m0 0c5.999 0 10.864-4.864 10.864-10.865v-46.453c0-5.999-4.865-10.864-10.864-10.864h-46.453c-6 0-10.865 4.865-10.865 10.864v46.453c0 6.001 4.865 10.865 10.865 10.865z" fill="#fffc00" transform="matrix(4.370655 0 0 -4.370655 250.517203 0)"/><path d="m0 0c-.129 0-.255.004-.382.01-.081-.007-.165-.01-.249-.01-2.959 0-4.858 1.342-6.695 2.641-1.268.896-2.465 1.742-3.875 1.977-.688.114-1.373.171-2.034.171-1.193 0-2.133-.184-2.82-.318-.417-.082-.777-.152-1.051-.152-.286 0-.595.062-.73.522-.117.399-.201.784-.283 1.158-.21.96-.359 1.551-.761 1.613-4.693.725-6.037 1.714-6.336 2.415-.042.1-.067.201-.072.3-.015.27.175.508.442.551 7.214 1.188 10.449 8.562 10.584 8.875.003.008.007.017.011.025.442.895.528 1.672.258 2.309-.495 1.166-2.11 1.679-3.179 2.018-.261.083-.509.161-.705.239-2.133.843-2.31 1.708-2.226 2.149.143.752 1.147 1.276 1.96 1.276.222 0 .418-.04.583-.117.96-.449 1.824-.677 2.571-.677 1.031 0 1.481.433 1.536.49-.027.488-.059.998-.092 1.525-.215 3.41-.482 7.649.598 10.068 3.234 7.251 10.092 7.815 12.117 7.815.052 0 .888.009.888.009h.12c2.029 0 8.903-.564 12.139-7.82 1.079-2.42.812-6.662.597-10.07l-.009-.149c-.03-.474-.059-.935-.083-1.377.052-.053.466-.451 1.4-.487h.001c.711.027 1.527.254 2.423.673.262.123.554.149.752.149.304 0 .611-.059.866-.165l.016-.007c.724-.257 1.199-.764 1.209-1.295.01-.5-.372-1.251-2.243-1.99-.194-.077-.442-.155-.705-.239-1.07-.339-2.684-.852-3.179-2.018-.27-.637-.184-1.413.258-2.308.004-.009.008-.017.012-.026.134-.313 3.366-7.685 10.584-8.874.266-.044.457-.282.442-.551-.006-.101-.031-.203-.074-.302-.298-.696-1.64-1.684-6.334-2.409-.384-.059-.533-.559-.762-1.607-.083-.381-.167-.756-.283-1.15-.1-.342-.313-.502-.672-.502h-.058c-.249 0-.602.045-1.05.133-.795.155-1.686.298-2.82.298-.662 0-1.347-.057-2.036-.171-1.408-.235-2.604-1.079-3.87-1.974-1.84-1.302-3.739-2.644-6.699-2.644" fill="#fff" transform="matrix(4.370655 0 0 -4.370655 150.095283 251.3319)"/><path d="m0 0c1.921 0 8.538-.516 11.656-7.507 1.027-2.301.764-6.471.553-9.821-.034-.532-.066-1.047-.092-1.539l-.012-.211.142-.158c.056-.063.59-.621 1.777-.667l.02-.001.019.001c.785.03 1.669.273 2.63.723.14.066.329.098.528.098.227 0 .468-.042.667-.126l.03-.012c.503-.176.859-.509.865-.81.003-.171-.125-.783-1.909-1.488-.175-.069-.405-.142-.671-.226-1.161-.369-2.915-.925-3.506-2.315-.332-.785-.242-1.71.271-2.75.211-.491 3.524-7.958 10.984-9.187-.002-.035-.011-.074-.031-.12-.126-.298-.93-1.326-5.93-2.097-.783-.121-.974-.998-1.197-2.018-.079-.364-.162-.732-.274-1.113-.034-.115-.04-.122-.164-.122h-.059c-.221 0-.559.046-.949.122-.709.139-1.68.309-2.921.309-.692 0-1.406-.061-2.122-.179-1.53-.255-2.775-1.135-4.093-2.066-1.769-1.252-3.599-2.545-6.39-2.545-.121 0-.24.004-.36.01l-.031.001-.032-.002c-.068-.006-.137-.009-.208-.009-2.791 0-4.621 1.293-6.39 2.544-1.318.932-2.563 1.812-4.092 2.067-.716.118-1.43.179-2.122.179-1.241 0-2.212-.189-2.922-.328-.39-.077-.727-.142-.949-.142-.18 0-.184.01-.222.141-.112.381-.195.759-.274 1.123-.223 1.02-.416 1.902-1.197 2.023-5.001.772-5.804 1.802-5.931 2.099-.02.046-.028.087-.03.122 7.459 1.229 10.773 8.695 10.984 9.188.512 1.04.603 1.964.27 2.749-.59 1.391-2.344 1.947-3.506 2.316-.266.084-.496.157-.67.226-1.508.596-1.971 1.195-1.901 1.559.079.419.806.845 1.44.845.142 0 .267-.022.359-.066 1.03-.482 1.971-.727 2.795-.727 1.296 0 1.874.603 1.935.672l.141.157-.012.21c-.026.492-.059 1.006-.092 1.537-.211 3.351-.474 7.518.553 9.82 3.106 6.965 9.69 7.502 11.634 7.502.048 0 .893.008.893.008.036.001.074.001.115.001m0 1.057h-.002-.125s-.817-.008-.882-.008c-2.104 0-9.235-.587-12.599-8.129-1.132-2.538-.861-6.848-.643-10.311.026-.408.053-.832.076-1.242-.174-.096-.492-.216-.992-.216-.668 0-1.457.21-2.346.627-.236.11-.508.166-.808.166-1.041 0-2.286-.685-2.479-1.705-.14-.735.189-1.807 2.551-2.74.213-.085.469-.166.74-.251.976-.31 2.451-.778 2.852-1.721.207-.489.124-1.118-.246-1.868-.008-.017-.016-.034-.023-.052-.13-.302-3.252-7.419-10.184-8.56-.533-.088-.914-.564-.884-1.103.009-.161.047-.32.112-.475.521-1.216 2.715-2.108 6.711-2.728.134-.18.273-.818.358-1.207.083-.384.169-.779.292-1.197.12-.41.433-.9 1.237-.9.325 0 .709.075 1.152.162.666.13 1.578.308 2.719.308.633 0 1.289-.055 1.949-.164 1.289-.215 2.385-.99 3.653-1.886 1.817-1.285 3.875-2.739 7.002-2.739.086 0 .172.002.258.009.101-.005.233-.009.373-.009 3.128 0 5.186 1.454 7.001 2.738 1.271.898 2.366 1.672 3.655 1.887.66.109 1.316.164 1.949.164 1.089 0 1.95-.138 2.718-.288.482-.095.869-.143 1.152-.143h.03.029c.594 0 1.013.314 1.179.883.121.409.207.794.292 1.184.085.388.223 1.023.356 1.203 3.997.62 6.191 1.51 6.711 2.721.066.155.105.316.114.478.03.54-.351 1.014-.884 1.102-6.935 1.143-10.055 8.259-10.184 8.561-.007.017-.015.034-.024.051-.37.751-.452 1.379-.245 1.868.4.943 1.875 1.411 2.851 1.72.273.087.529.169.74.252 1.729.683 2.596 1.521 2.578 2.492-.015.763-.609 1.443-1.553 1.78l-.003.001c-.317.132-.694.204-1.063.204-.253 0-.627-.034-.977-.198-.822-.385-1.561-.595-2.198-.623-.423.019-.699.126-.857.213.02.351.043.713.066 1.091l.009.147c.219 3.465.49 7.779-.642 10.318-3.366 7.546-10.512 8.133-12.622 8.133" fill="#030303" transform="matrix(4.370655 0 0 -4.370655 150.872393 48.73763)"/></svg>