<svg enable-background="new" height="277.82825" width="277.82825" xmlns="http://www.w3.org/2000/svg" xmlns:xlink="http://www.w3.org/1999/xlink"><radialGradient id="a" cx="147.01562" cy="525.86011" gradientTransform="matrix(1.5869209 .00000013 -.00000006 .7528981 -86.286523 85.899531)" gradientUnits="userSpaceOnUse" r="103.04688" xlink:href="#c"/><radialGradient id="b" cx="239" cy="51" gradientUnits="userSpaceOnUse" r="5" xlink:href="#c"/><linearGradient id="c"><stop offset="0" stop-color="#fff"/><stop offset="1" stop-color="#fff" stop-opacity="0"/></linearGradient><clipPath id="d"><path d="m52.09435 312c-2.33561 0-4.09435 1.27843-4.09435 3.94967v167.46562c0 3.95197 2.44676 6.58471 5.77179 6.58471h189.55521c3.34438 0 4.673-2.46074 4.673-5.90535v-147.52177c0-2.95096-2.01067-4.54661-4.51602-4.54661h-93.98741c-1.69284 0-4.43377-.2055-6.49302-2.5614l-13.0712-14.95423c-1.75748-2.01066-4.22518-2.51056-6.08975-2.51056z"/></clipPath><filter id="e" color-interpolation-filters="sRGB"><feGaussianBlur stdDeviation="1.91"/></filter><filter id="f" color-interpolation-filters="sRGB" height="1.737155" width="1.143333" x="-.071666" y="-.368578"><feGaussianBlur stdDeviation="6.4501067"/></filter><filter id="g" color-interpolation-filters="sRGB" height="4.714403" width="1.322992" x="-.161496" y="-1.857202"><feGaussianBlur stdDeviation="15.476679"/></filter><filter id="h" color-interpolation-filters="sRGB" height="2.238134" width="1.107664" x="-.053832" y="-.619067"><feGaussianBlur stdDeviation="5.158893"/></filter><filter id="i" color-interpolation-filters="sRGB" height="1.094135" width="3.837506" x="-1.418753" y="-.047068"><feGaussianBlur stdDeviation="1.0345072"/></filter><pattern id="j" height="256" patternTransform="translate(-523 -333)" patternUnits="userSpaceOnUse" width="256"/><pattern id="k" patternTransform="translate(-523 -583)" xlink:href="#l"/><pattern id="l" height="256" patternTransform="translate(-523 -333)" patternUnits="userSpaceOnUse" width="256"/><filter id="m" color-interpolation-filters="sRGB" height="1.712174" width="1.024837" x="-.012418" y="-.356087"><feGaussianBlur stdDeviation="1.0664062"/></filter><filter id="n" color-interpolation-filters="sRGB"><feGaussianBlur stdDeviation=".90031864"/></filter><clipPath id="o"><path d="m122.25371 334.00973h128.40625c3.19684 0 5.34037 2.0241 5.34375 5.0625l.125 121.71875c0 16.5-3.66218 25.21875-10.46875 25.21875h-197.25c-6.60581.59601-7.36487-12.58994-7.5-27.21875l-.90625-99.46875c-.01871-2.02557 2.11566-5.0625 5.3125-5.0625l52.28125-.0313c4.16844-.002 7.55716-1.94026 9.46875-4.78125l7.65625-11.34375c1.61572-2.40127 4.33318-4.09375 7.53125-4.09375z"/></clipPath><filter id="p" color-interpolation-filters="sRGB"><feGaussianBlur stdDeviation=".93036145"/></filter><linearGradient id="q" gradientTransform="matrix(5.3662019 0 0 5.0873708 24.876041 281.34659)" gradientUnits="userSpaceOnUse" x1="14.955535" x2="14.955535" y1="24.753948" y2="9.848648"><stop offset="0" stop-color="#ce5c00"/><stop offset="1" stop-color="#f57900"/></linearGradient><radialGradient id="r" cx="70.155602" cy="220.49879" gradientTransform="matrix(1.9941181 0 0 .7228514 -59.398554 163.61214)" gradientUnits="userSpaceOnUse" r="100"><stop offset="0" stop-color="#fff"/><stop offset=".73067844" stop-color="#fff" stop-opacity=".788235"/><stop offset="1" stop-color="#fff" stop-opacity="0"/></radialGradient><linearGradient id="s" gradientUnits="userSpaceOnUse" x1="107.5" x2="107.5" y1="357" y2="253.56741"><stop offset="0"/><stop offset="1" stop-color="#90937c"/></linearGradient><radialGradient id="t" cx="50.125" cy="82.961891" gradientTransform="matrix(16.00781 0 .00003475 43.857143 -752.26937 -3567.8465)" gradientUnits="userSpaceOnUse" r=".875" xlink:href="#c"/><linearGradient id="u" gradientUnits="userSpaceOnUse" x1="-132.00006" x2="-132.00006" y1="235.019457" y2="64.25305"><stop offset="0" stop-color="#f57900"/><stop offset=".06043659" stop-color="#fcaf3e"/><stop offset=".17753538" stop-color="#fcaf3e"/><stop offset=".89421868" stop-color="#f57900"/><stop offset="1" stop-color="#ce5c00"/></linearGradient><radialGradient id="v" cx="101.69793" cy="315.18689" gradientTransform="matrix(1.4307264 0 0 .4212967 -49.750565 212.94722)" gradientUnits="userSpaceOnUse" r="108.00213"><stop offset="0" stop-color="#fff"/><stop offset=".60000002" stop-color="#fff" stop-opacity=".805882"/><stop offset="1" stop-color="#fff" stop-opacity="0"/></radialGradient><radialGradient id="w" cx="44.937492" cy="410.125" gradientTransform="matrix(39.806771 0 0 18.279245 -1744.879 -7086.6502)" gradientUnits="userSpaceOnUse" r="3.468757"><stop offset="0" stop-color="#fff"/><stop offset=".71109551" stop-color="#fff" stop-opacity=".652941"/><stop offset="1" stop-color="#fff" stop-opacity="0"/></radialGradient><radialGradient id="x" cx="250.09497" cy="400" gradientTransform="matrix(19.019218 -.3897633 .3394152 16.562389 -4640.2818 -6129.4776)" gradientUnits="userSpaceOnUse" r="4.438721"><stop offset="0" stop-color="#fff"/><stop offset=".59644723" stop-color="#fff" stop-opacity=".447059"/><stop offset="1" stop-color="#fff" stop-opacity="0"/></radialGradient><linearGradient id="y" gradientUnits="userSpaceOnUse" x1="-103.85963" x2="-103.85963" y1="-46.176041" y2="262.25562"><stop offset="0" stop-color="#a1a184"/><stop offset=".85273892" stop-color="#4a4a3e"/><stop offset="1"/></linearGradient><radialGradient id="z" cx="179.52461" cy="178.16356" gradientTransform="matrix(1.30883 .778447 -.343019 .576472 -3.48119 -69.9836)" gradientUnits="userSpaceOnUse" r="68.868492" xlink:href="#c"/><filter id="A" color-interpolation-filters="sRGB" height="1.212222" width="1.202805" x="-.101403" y="-.106111"><feGaussianBlur stdDeviation="4.6353635"/></filter><filter id="B" color-interpolation-filters="sRGB" height="1" width="1" x="0" y="0"><feColorMatrix type="saturate" values="0"/></filter><g enable-background="new" filter="url(#B)" transform="matrix(1.0762712 0 0 1.0762712 23.753105 -3.157515)"/><g enable-background="new" fill-rule="evenodd" opacity=".8" transform="matrix(1.0762712 0 0 1.0762712 -19.297743 -4.233787)"><rect filter="url(#h)" height="20" opacity=".8" rx="8.153439" ry="10" transform="matrix(.9130435 0 0 .3000013 28.304348 171.69973)" width="230" x="15" y="201"/><rect filter="url(#g)" height="20" rx="8.153439" ry="10" transform="matrix(.9130435 0 0 .3000013 28.304348 171.69973)" width="230" x="15" y="201"/></g><g enable-background="new" transform="matrix(1.0762712 0 0 1.08203743 -19.297743 -263.146333)"><g clip-path="url(#d)" enable-background="new" transform="translate(0 -20)"><g fill-rule="evenodd"><path d="m52.094352 312c-2.335611 0-4.094352 1.27843-4.094352 3.94967v167.46562c0 3.95197 2.446761 6.58471 5.771787 6.58471h189.555213c3.34438 0 4.673-2.46074 4.673-5.90535v-147.52177c0-2.95096-2.01067-4.54661-4.51602-4.54661h-93.98741c-1.69284 0-4.43377-.2055-6.49302-2.5614l-13.0712-14.95423c-1.75748-2.01066-4.22518-2.51056-6.08975-2.51056z" fill="url(#q)"/><path d="m122.25 324c-3.19807 0-5.91553 1.72373-7.53125 4.125l-7.65625 11.34375c-1.91159 2.84099-5.30031 4.7797-9.46875 4.78125h-52.25c-3.196847 0-5.39241 3.03742-5.34375 5.0625l.40625 16.6875h214.3125l1.28125-36.9375c.10424-3.03661-2.14692-5.06249-5.34375-5.0625z" filter="url(#f)" opacity=".712329" transform="translate(0 20)"/><path d="m52.09375 313c-2.335612 0-4.09375 1.26626-4.09375 3.9375v2c0-2.67124 1.758138-3.9375 4.09375-3.9375h70.75c1.86457 0 4.33628.48933 6.09375 2.5l13.0625 14.96875c2.05925 2.3559 4.80716 2.56249 6.5 2.5625h94.96875c2.50535 0 4.53125 1.58029 4.53125 4.53125v-2c0-2.95096-2.0259-4.53125-4.53125-4.53125h-94.96875c-1.69284-.00001-4.44075-.2066-6.5-2.5625l-13.0625-14.96875c-1.75747-2.01067-4.22918-2.5-6.09375-2.5z" fill="url(#r)" opacity=".538813"/></g><path d="m51.094352 311c-2.335611 0-4.094352 1.27843-4.094352 3.94967v168.46562c0 3.95197 2.446761 6.58471 5.771787 6.58471h191.555213c3.34438 0 4.673-2.46074 4.673-5.90535v-148.52177c0-2.95096-2.01067-4.54661-4.51602-4.54661h-94.98741c-1.69284 0-4.43377-.2055-6.49302-2.5614l-13.0712-14.95423c-1.75748-2.01066-4.22518-2.51056-6.08975-2.51056z" fill="none" filter="url(#e)" stroke="url(#s)" stroke-width="1.994664"/><rect fill="url(#t)" filter="url(#i)" height="52.75" opacity=".45" rx=".875" transform="matrix(.7734591 0 0 1 10.90714 260)" width="1.75" x="49.25" y="57"/></g><path d="m52.094352 312c-2.335611 0-4.094352 1.27843-4.094352 3.94967v167.46562c0 3.95197 2.446761 6.58471 5.771787 6.58471h189.555213c3.34438 0 4.673-2.46074 4.673-5.90535v-147.52177c0-2.95096-2.01067-4.54661-4.51602-4.54661h-93.98741c-1.69284 0-4.43377-.2055-6.49302-2.5614l-13.0712-14.95423c-1.75748-2.01066-4.22518-2.51056-6.08975-2.51056z" fill="url(#j)" fill-rule="evenodd" opacity=".03" transform="translate(0 -20)"/><g clip-path="url(#o)" enable-background="new" transform="translate(-.06621 -11.009727)"><path d="m-157.8125 83h128.40625c3.19684 0 5.34037 2.0241 5.34375 5.0625l.125 121.71875c.000001 16.5-3.66218 25.21875-10.46875 25.21875h-197.25c-6.60581.59601-7.36487-12.58994-7.5-27.21875l-.90625-99.46875c-.0187-2.02557 2.11566-5.0625 5.3125-5.0625l52.28125-.0313c4.16844-.002 7.55716-1.94026 9.46875-4.78125l7.65625-11.34375c1.61572-2.40122 4.33318-4.0937 7.53125-4.0937z" fill="url(#u)" transform="translate(280.06621 251.00973)"/><g fill-rule="evenodd"><path d="m45.328878 104.25703 52.267458-.0193c4.168444-.002 7.570074-1.94184 9.481664-4.78283l7.62996-11.33956c1.61572-2.40127 4.3437-4.11535 7.54177-4.11535h128.41869c3.19684 0 5.43232 2.02764 5.32808 5.06425l-4.86477 141.72679c-.10721 3.1234-2.19213 5.20897-5.48031 5.20897h-197.251449c-3.288187 0-5.405233-2.08455-5.480311-5.20895l-2.918861-121.46977c-.04866-2.02507 2.131232-5.06425 5.328079-5.06425z" fill="url(#k)" opacity=".03" transform="translate(0 250)"/><path d="m123.25 335c-3.19807 0-5.91553 1.72373-7.53125 4.125l-7.65625 11.34375c-1.91159 2.84099-5.30031 4.7797-9.46875 4.78125h-53.25c-3.196847 0-5.39241 2.03742-5.34375 4.0625l.03125 1.65625c.181474-2.00765 2.290875-3.71875 5.3125-3.71875h53.25c4.16844-.002 7.55716-1.94026 9.46875-4.78125l7.65625-11.34375c1.61572-2.40127 4.33318-4.125 7.53125-4.125h127.40625c2.87974.00001 5.0005 1.64142 5.3125 4.1875l.03125-1.125c.10424-3.03661-2.14692-5.06249-5.34375-5.0625z" fill="url(#v)"/><path d="m250.0625 476.75c-.0458 1.33554-.49131 2.35705-1.21875 3.0625s-1.76871 1.125-3.1875 1.125h-197.25c-1.418904 0-2.480488-.44927-3.21875-1.15625s-1.186879-1.70494-1.21875-3.03125v3c.03187 1.32631.480488 2.32427 1.21875 3.03125s1.799846 1.15625 3.21875 1.15625h197.25c1.41879 0 2.46006-.41955 3.1875-1.125s1.17291-1.72696 1.21875-3.0625z" fill="url(#a)" filter="url(#m)" opacity=".34188" transform="matrix(1 0 0 2.3217391 0 -646.63913)"/><g enable-background="new" filter="url(#n)" transform="translate(0 10)"><path d="m43.34375 346.71875c-.813781 0-1.501984.39781-2.0625 1s-.81462 1.44302-.8125 1.53125l2.90625 121.46875c.0243 1.01121.33196 1.63225.78125 2.0625s1.131902.75 2.25.75h1c-1.118098 0-1.80071-.31975-2.25-.75s-.756951-1.05129-.78125-2.0625l-2.90625-121.46875c-.0021-.0882.251984-.92906.8125-1.53125s1.248719-1 2.0625-1z" fill="url(#w)"/><path d="m251.14956 324.47269c1.07486-.022 1.79597.31235 2.23365.70438.43769.39202.70426.84746.69197 1.73619l-1.97032 141.78888c-.0143 1.03395-.33847 1.67453-.76943 2.10996-.43097.43543-1.05407.77176-2.17168.79466l.99979-.0205c1.11761-.0229 1.74071-.35923 2.17168-.79466.43096-.43543.75514-1.07601.76943-2.10996l1.97032-141.78888c.0123-.88873-.25428-1.34417-.69197-1.73619-.43768-.39202-1.15879-.72641-2.23365-.70438z" fill="url(#x)"/></g></g><path d="m-157.8125 83h128.40625c3.19684 0 5.34037 2.0241 5.34375 5.0625l.125 121.71875c.000001 16.5-3.66218 25.21875-10.46875 25.21875h-197.25c-6.60581.59601-7.36487-12.58994-7.5-27.21875l-.90625-99.46875c-.0187-2.02557 2.11566-5.0625 5.3125-5.0625l52.28125-.0313c4.16844-.002 7.55716-1.94026 9.46875-4.78125l7.65625-11.34375c1.61572-2.40122 4.33318-4.0937 7.53125-4.0937z" style="fill:none;stroke-width:1.994664;stroke-linecap:round;stroke-linejoin:round;stroke:url(#y);filter:url(#p)" transform="translate(280.06621 251.00973)"/></g><path d="m250.0625 476.75c-.0458 1.33554-.49131 2.35705-1.21875 3.0625s-1.76871 1.125-3.1875 1.125h-197.25c-1.418904 0-2.480488-.44927-3.21875-1.15625s-1.186879-1.70494-1.21875-3.03125v3c.03187 1.32631.480488 2.32427 1.21875 3.03125s1.799846 1.15625 3.21875 1.15625h197.25c1.41879 0 2.46006-.41955 3.1875-1.125s1.17291-1.72696 1.21875-3.0625z" fill="url(#a)" fill-rule="evenodd" filter="url(#m)" opacity=".3" transform="matrix(1 0 0 .7217391 -.06621 122.65114)"/></g><g fill="none" stroke-linecap="round" stroke-linejoin="round" stroke-width="8" transform="matrix(1.0762712 0 0 1.0762712 -473.486343 -20.265567)"><path d="m569.6321 136.60228c-1.8678.24167-3.5157 1.71451-3.9769 3.54822l-7.9492 23.95046-1.7625.89368h-24.294c-1.3579 0-2.6831.70979-3.5342 1.77407-1.7911 2.01255-1.342 5.58346.8777 7.09649l19.8777 14.63704.4228 2.12898-7.5075 23.50619c-1.044 3.66885 3.8509 7.3561 7.0675 5.3223l19.8756-14.63571h2.5444l19.8777 14.63571c1.7284 1.13544 4.2055.93713 5.7406-.43994 1.3013-1.20646 1.8432-3.17782 1.3288-4.8796l-7.5094-23.50619c-.7113-.14154.2801-1.41925.4228-2.12888l19.8751-14.63715c2.2268-1.51287 2.6678-5.08382.8779-7.09637-.8444-1.06418-2.1756-1.7301-3.5328-1.77409h-24.7367l-1.7619-.89367-7.5096-23.95036c-.2213-.83794-.689-1.62085-1.3288-2.21836-.9333-.90818-2.2399-1.40516-3.5332-1.33413l.1573.00086v.00011l-.009.00034z" stroke="#d77711"/><path d="m569.6321 135.60228c-1.8678.24167-3.5157 1.71451-3.9769 3.54822l-7.9492 23.95046-1.7625.89368h-24.294c-1.3579 0-2.6831.70979-3.5342 1.77407-1.7911 2.01255-1.342 5.58346.8777 7.09649l19.8777 14.63704.4228 2.12898-7.5075 23.50619c-1.044 3.66885 3.8509 7.3561 7.0675 5.3223l19.8756-14.63571h2.5444l19.8777 14.63571c1.7284 1.13544 4.2055.93713 5.7406-.43994 1.3013-1.20646 1.8432-3.17782 1.3288-4.8796l-7.5094-23.50619c-.7113-.14154.2801-1.41925.4228-2.12888l19.8751-14.63715c2.2268-1.51287 2.6678-5.08382.8779-7.09637-.8444-1.06418-2.1756-1.7301-3.5328-1.77409h-24.7367l-1.7619-.89367-7.5096-23.95036c-.2213-.83794-.689-1.62085-1.3288-2.21836-.9333-.90818-2.2399-1.40516-3.5332-1.33413l.1573.00086v.00011l-.009.00034z" stroke="#fbc98d"/></g><g transform="matrix(1.0762712 0 0 1.0762712 -19.391432 230.810173)"><g fill-rule="evenodd"><circle cx="239" cy="51" fill="url(#b)" opacity=".457831" r="5" transform="matrix(2.7092 0 0 2.7092 -468.22285 -205.6789)"/><circle cx="179.95418" cy="-66.832169" fill="#fff" r="2.539875"/><circle cx="239" cy="51" fill="url(#b)" opacity=".457831" r="5" transform="matrix(3.8092 0 0 3.8092 -726.49787 -264.7792)"/><circle cx="184.85492" cy="-69.557426" fill="#fff" r="3.571125"/></g><path d="m206.67379 217.35364-40.25404-8.01083-22.18276 34.4648-4.82043-40.75934-39.632833-10.44685 37.274853-17.17984-2.31168-40.92131 27.85756 30.14162 38.20413-14.84391-20.05793 35.80838z" style="fill:none;stroke-width:11.4978;stroke-linecap:round;stroke-linejoin:round;stroke:url(#z);filter:url(#A)" transform="matrix(.795516 .351305 -.351384 .795695 88.379148 -256.9333)"/><path d="m135.06415-25.260715s6.625-3.125 12.625.125l21 15.25c3.875 2.125 9.5-1.25 10.375-4.875 0 0-6.25.75-8.5-2.75l-19.5-14.75c-1.625-1.25-4.25-1.25-6.25-.25z" fill="#fdeddd" opacity=".562232"/><path d="m126.76138-10.228385c-3.125-1-4.44279-3.02729-2.88943-8.81716l3.92665-12.82661c.46212-4.39519.2966-7.85179-5.25988-11.00768 0 0-.75133 6.08163-2.2258 10.03988l-4.31672 13.4356c-.30418 5.80015 4.7754 9.8299 10.76518 9.17597z" fill="#fde6cf" opacity=".562232"/><path d="m143.09007-80.304705s-3.59929 6.37976-10.37392 7.19639l-23.7013.19632c-5.89034.006-9.404132 7.38683-7.27253 12.85056 0 0 .66626-4.72505 7.77552-4.79485l24.5633-.48717c2.04857.0806 4.1905-1.43692 5.24435-3.40907z" fill="#fff" opacity=".562232"/><path d="m142.998-99.121645s2.26003 1.34292 5.63167 7.27542l3.70793 12.16311c2.16374 3.8535 4.09997 7.29893 10.45829 6.6619 0 0-4.81661-15.45027-7.5324-23.08512-3.10481-4.908615-7.96832-4.716455-12.26549-3.01531z" fill="#fff" opacity=".562232"/><g fill-rule="evenodd"><circle cx="239" cy="51" fill="url(#b)" opacity=".457831" r="5" transform="matrix(3.8092 0 0 3.8092 -735.36485 -212.41775)"/><circle cx="175.98793" cy="-17.196125" fill="#fff" r="3.571125"/><circle cx="239" cy="51" fill="url(#b)" opacity=".457831" r="5" transform="matrix(1.8092 0 0 1.8092 -261.44885 -109.6906)"/><circle cx="171.40292" cy="-16.969126" fill="#fff" r="1.696125"/></g></g></svg>