<svg height="631.11652" viewBox="0 0 631.11652 631.11651" width="631.11652" xmlns="http://www.w3.org/2000/svg"><g stroke-width="1.333333" transform="translate(-1098.2829 1281.3477)"><path d="m1422.4456-691.70433c-6.1826-2.29552-11.9772-7.59141-14.7883-13.5152-1.8341-3.86522-2.0615-28.84703-2.0615-226.52925 0-221.24192.013-222.20762 2.729-227.53402 1.6293-3.1939 5.1169-6.8635 8.6564-9.1081 11.0917-7.0342 23.0102-6.4385 32.1748 1.6081 7.842 6.8853 9.7101 12.6284 9.7438 29.9553.016 8.25.3863 15 .8226 15 .4361 0 5.9902-5.277 12.3425-11.7267 37.7317-38.311 90.6684-52.6017 144.1976-38.9273 30.3796 7.7607 58.1676 26.3566 77.2911 51.7238 45.9674 60.9757 48.0416 174.42706 4.3904 240.15479-9.0155 13.57491-25.6762 30.77254-37.518 38.727-39.1972 26.32974-92.9347 32.60883-136.2671 15.92246-18.5069-7.1266-32.5333-16.51816-48.9699-32.78819-8.2905-8.20645-15.3362-14.20795-15.6573-13.33667s-.738 38.23587-.9265 83.03243l-.3427 81.44827-3.6849 5.3165c-6.9156 9.97733-21.138 14.65886-32.132 10.57678zm156.4836-174.17734c45.6684-7.20526 77.5217-39.91895 89.5276-91.94582 3.718-16.11147 4.7241-49.68061 2.0181-67.33331-7.636-49.8144-34.2753-85.9279-72.7092-98.5679-30.6623-10.084-60.3809-7.4232-92.128 8.2486-17.3737 8.5764-36.5455 24.6125-44.2181 36.9859-2.3439 3.7799-2.4807 8.2687-2.4855 81.54698v77.54693l5.104 6.45307c26.9296 34.04763 74.3321 53.46545 114.896 47.06555z" fill="#6388c2"/><path d="m1213.5958-817.27663c-2.2-.31256-8.7887-1.21748-14.6416-2.01094-31.4301-4.26088-63.2949-17.54587-86.304-35.98162-4.6132-3.69629-9.7346-8.93402-11.3809-11.63941-7.4929-12.31369-.2491-28.3274 14.6257-32.33278 9.2185-2.48228 15.553-.63404 28.2934 8.25522 21.8707 15.25965 48.782 25.95076 73.6997 29.27879 14.2067 1.89744 39.2741.86101 50.3744-2.08278 29.978-7.95012 47.7632-26.03921 49.61-50.45758.471-6.22833.1485-12.34493-.8364-15.85919-3.71-13.23877-16.1681-24.39-36.8824-33.01336-5.5159-2.29629-28.448-8.89609-50.9601-14.66622-46.2724-11.86019-60.0554-16.36364-76.2644-24.9186-20.4857-10.812-31.7933-21.5316-40.1264-38.0395-10.7469-21.2894-10.5004-54.8154.5634-76.6217 20.3113-40.0329 68.9087-62.5852 129.2317-59.9719 39.3103 1.703 71.7723 12.5086 99.3363 33.0659 14.8617 11.0839 19.0443 20.0301 14.4762 30.9632-4.0642 9.7271-14.4671 14.8752-25.2994 12.5201-2.8334-.616-8.8334-3.7316-13.3334-6.9236-25.2379-17.9019-58.304-27.3313-90.0782-25.6875-17.1615.8879-27.4241 3.2229-39.6243 9.0155-27.4129 13.0156-39.0323 43.589-24.2968 63.9307 5.1588 7.1216 17.158 14.7452 31.2124 19.8307 6.2381 2.2572 27.0762 7.9688 46.3069 12.6924 39.6572 9.7409 52.8531 13.6918 68.2042 20.4206 32.4174 14.20937 51.7283 34.84948 58.9581 63.01604 2.9489 11.48876 2.9174 34.8856-.064 47.2965-9.5767 39.87062-44.4469 68.33885-94.8064 77.40053-11.4223 2.05533-51.4359 3.73641-59.9941 2.5205z" fill="#d44434"/></g></svg>