<svg height="2864" viewBox="0 0 2864 2864" width="2864" xmlns="http://www.w3.org/2000/svg"><g stroke-width="1.333333" transform="translate(-.130682 2293.8051)"><path d="m2265.0486-572.31133c-32.9923-3.74884-60.656-13.71526-84.1193-30.3057-13.2763-9.38735-17.542-14.18035-19.3582-21.75097-1.8309-7.63259-.3253-13.6915 4.965-19.97851 4.8961-5.81885 9.8868-7.91824 18.8228-7.91824 7.649 0 8.2637.27469 19.7084 8.80705 23.026 17.16687 43.2518 24.59406 74.7509 27.4495 30.1025 2.72884 59.3764-2.05755 81.0615-13.25386 13.5921-7.01784 30.4582-24.26728 37.0798-37.92262 8.4687-17.46472 10.3812-28.17795 11.1418-62.4134.4153-18.69748.1705-30.72036-.6498-31.91203-1.0469-1.52073-3.3156.23327-11.0858 8.5706-29.6426 31.80576-72.922 49.6809-113.1031 46.71354-29.9852-2.2144-56.0059-10.66787-77.3333-25.12374-15.0886-10.22709-34.328-32.00049-44.4004-50.24837-29.8826-54.13692-31.037-142.51227-2.6038-199.33332 8.8392-17.66454 17.8366-29.9086 31.6008-43.0046 28.5302-27.1448 67.8851-40.9961 109.4455-38.52 35.8281 2.1346 67.8032 17.1588 94.8067 44.5469 9.2706 9.4029 12.3776 11.8463 13 10.2243.4498-1.1722.8178-8.7062.8178-16.7421 0-17.6674 2.1859-23.2339 11.4248-29.093 14.2407-9.0312 30.6768-5.0075 38.5427 9.4356l3.3659 6.1804v165.18791c0 106.5113-.4938 169.20116-1.3902 176.48622-8.485 68.96297-47.9996 108.95059-120.6098 122.05386-14.1234 2.54869-59.9499 3.67477-75.8807 1.86458zm72.9317-185.8055c25.7622-7.69316 50.4002-23.95841 65.0494-42.94354l5.8996-7.64581.3765-73.82013c.3455-67.73265.1857-74.22909-1.9357-78.77928-3.5743-7.66605-23.7516-26.73516-36.0371-34.05775-22.8171-13.59976-40.4325-18.61366-65.7371-18.71066-14.7876-.057-19.9036.468-28.6666 2.9398-47.2106 13.31677-75.4252 52.30392-80.8975 111.78413-5.38 58.47806 18.49 112.81575 58.6351 133.47703 19.3112 9.93877 30.1317 12.30296 53.5957 11.71016 14.656-.37027 20.1769-1.10483 29.7177-3.95395zm-915.5346 181.30858c-6.1826-2.29552-11.9772-7.59141-14.7883-13.5152-1.8341-3.86522-2.0615-28.84703-2.0615-226.52925 0-221.2419.013-222.2076 2.729-227.534 1.6293-3.1939 5.1169-6.8635 8.6564-9.1081 11.0917-7.0342 23.0102-6.4385 32.1748 1.6081 7.842 6.8853 9.7101 12.6284 9.7438 29.9553.016 8.25.3863 15 .8226 15 .4361 0 5.9902-5.277 12.3425-11.7267 37.7317-38.311 90.6684-52.6017 144.1976-38.9273 30.3796 7.7607 58.1676 26.3566 77.2911 51.7238 45.9674 60.97566 48.0416 174.42704 4.3904 240.15477-9.0155 13.57491-25.6762 30.77254-37.518 38.727-39.1972 26.32974-92.9347 32.60883-136.2671 15.92246-18.5069-7.1266-32.5333-16.51816-48.9699-32.78819-8.2905-8.20645-15.3362-14.20795-15.6573-13.33667s-.738 38.23587-.9265 83.03243l-.3427 81.44827-3.6849 5.3165c-6.9156 9.97733-21.138 14.65886-32.132 10.57678zm156.4836-174.17734c45.6684-7.20526 77.5217-39.91895 89.5276-91.94582 3.718-16.11147 4.7241-49.68064 2.0181-67.33333-7.636-49.81442-34.2753-85.92789-72.7092-98.56786-30.6623-10.084-60.3809-7.4232-92.128 8.2486-17.3737 8.57638-36.5455 24.61245-44.2181 36.98593-2.3439 3.77981-2.4807 8.26864-2.4855 81.54693v77.54693l5.104 6.45307c26.9296 34.04763 74.3321 53.46545 114.896 47.06555zm307.4462 47.91202c-28.7345-4.19094-53.8356-16.76383-72.3225-36.2258-21.5484-22.6848-31.0128-49.23384-29.3387-82.29871.9807-19.36777 3.4607-29.57269 10.855-44.66666 10.9665-22.38629 26.1984-37.41893 49.36-48.71431 22.4229-10.93514 31.1049-12.63478 64-12.52888 25.7494.0829 29.026.36664 40.765 3.53027 24.6732 6.64933 44.1123 16.90501 60.594 31.96844 6.0564 5.53519 7.7799 6.50812 8.8192 4.97871.7867-1.15768 1.0764-15.19431.7411-35.9009-.4855-29.97091-.8828-35.02702-3.3539-42.66666-5.749-17.77459-17.9962-31.57268-35.5654-40.06893-16.6312-8.0427-25.9536-9.86-50-9.7472-17.7707.083-22.4802.5782-33.6078 3.5314-17.0257 4.5186-32.226 11.8417-47.5301 22.89881-6.8591 4.95568-14.5923 9.596-17.1848 10.31184-9.1303 2.52097-20.9205-2.10181-25.8097-10.11956-3.0623-5.02185-3.3474-15.36649-.5715-20.73439 2.3907-4.6232 18.0477-17.396 31.9312-26.0492 58.5605-36.4992 150.7088-36.1951 196.9759.65 16.6789 13.2825 28.434 31.554 34.737 53.9939 2.9882 10.6381 2.9974 10.9879 3.4427 130.66666.3161 84.97999.016 121.46561-1.0284 125.0221-1.7568 5.98235-8.1449 13.61516-13.8857 16.59133-6.1499 3.18822-17.6363 2.855-24.4674-.70977-8.6974-4.53875-12.6653-11.61487-13.593-24.24149-.4231-5.75708-1.1811-10.87926-1.6844-11.38262-.5034-.50334-5.2972 2.66218-10.653 7.03451-13.5666 11.07551-20.8794 15.81099-33.6794 21.80924-25.236 11.82599-60.5164 17.06835-87.9454 13.06787zm72.5538-41.66802c6.9666-1.77617 16.1753-4.78844 20.4637-6.69392 18.4428-8.19473 38.5143-25.33313 40.1899-34.31665.4628-2.48192.6552-17.41258.4273-33.17925l-.4143-28.66667-4-5.11342c-6.0722-7.76259-21.2028-19.09421-33.2297-24.88656-26.0047-12.52429-62.0772-16.06187-87.4369-8.5748-33.4628 9.87936-54.8632 37.4105-54.8591 70.57478 0 20.57859 5.4709 34.73402 19.0367 49.27979 11.9032 12.76302 28.0868 20.98801 48.702 24.75177 11.0894 2.02461 37.05.41223 51.1204-3.17507zm722.145 41.7269c-40.7005-4.72263-76.1416-21.80175-103.1285-49.69782-24.474-25.29841-38.4577-52.89975-45.9144-90.62613-4.232-21.41121-4.2367-55.42402-.013-76.6099 14.5848-73.11508 65.5782-126.13316 134.542-139.88396 15.8649-3.1633 49.8698-3.1557 65.9796.015 51.074 10.0517 90.9506 41.549 112.9856 89.24363 13.7541 29.77074 22.1422 73.00195 16.8521 86.85387-2.3543 6.1647-10.256 14.38255-16.5205 17.18163-2.6907 1.20225-35.8447 1.77512-131.597 2.27383l-128 .66666.3012 7.12006c.6035 14.26463 7.9147 36.40293 17.362 52.57206 27.6988 47.40652 85.7367 68.27669 145.4392 52.29926 15.7558-4.21653 29.648-10.63147 45.2083-20.8757 14.6201-9.62523 20.75-11.00951 29.3421-6.62613 10.7042 5.46086 14.9111 17.07905 10.4315 28.80873-10.9028 28.54837-93.9495 54.16857-153.2725 47.2851zm130.0456-209.91672c-.7496-12.60006-6.3288-32.25042-12.8713-45.33333-13.4077-26.8114-33.7121-44.62906-61.3472-53.83386-28.5883-9.5223-63.1395-7.6325-87.9721 4.8117-23.8027 11.92803-43.7126 34.6303-54.6859 62.3555-4.2043 10.62247-9.466 35.27725-8.2211 38.52143.7567 1.97174 10.6416 2.13062 113.2014 1.81948l112.3722-.34092z" fill="#6388c2"/><path d="m115.59594-702.38055c-2.2-.31256-8.78874-1.21748-14.64165-2.01094-31.430077-4.26088-63.294889-17.54587-86.303999-35.98162-4.613225-3.69629-9.7346086-8.93402-11.3808514-11.63941-7.4929401-12.31369-.2491732-28.3274 14.6256574-32.33278 9.218495-2.48228 15.553014-.63404 28.29342 8.25522 21.87065 15.25965 48.78201 25.95076 73.699703 29.27879 14.20668 1.89744 39.27407.86101 50.37439-2.08278 29.97799-7.95012 47.76321-26.03921 49.60997-50.45758.47104-6.22833.14848-12.34493-.83636-15.85919-3.71004-13.23877-16.16816-24.39-36.88241-33.01336-5.51593-2.29629-28.44797-8.89609-50.96008-14.66622-46.272443-11.86019-60.055457-16.36364-76.264455-24.91856-20.485638-10.81209-31.793254-21.53161-40.126418-38.03952-10.7468666-21.28942-10.5003291-54.81546.563447-76.6217 20.311343-40.0329 68.908696-62.5852 129.231656-59.9719 39.31036 1.703 71.77236 12.5086 99.3363 33.0659 14.86178 11.0839 19.04436 20.0301 14.47622 30.96321-4.06422 9.72703-14.46704 14.87513-25.2994 12.52005-2.83335-.616-8.83335-3.7316-13.33334-6.92356-25.23793-17.9019-58.30406-27.3313-90.07829-25.6875-17.16145.8879-27.42401 3.2229-39.624279 9.0155-27.412887 13.01558-39.032278 43.58894-24.296814 63.93066 5.158868 7.12159 17.158036 14.74523 31.212415 19.8307 6.238128 2.25723 27.076248 7.96879 46.306948 12.69239 39.65717 9.74089 52.85312 13.69181 68.20414 20.42058 32.4174 14.20942 51.72838 34.84953 58.9581 63.01609 2.9489 11.48876 2.91748 34.8856-.0636 47.2965-9.57667 39.87062-44.44682 68.33885-94.80632 77.40053-11.42235 2.05533-51.43593 3.73641-59.99416 2.5205zm310.66667-1.219c-26.44364-5.49466-44.37235-22.41729-52.26471-49.33186-2.13989-7.29747-2.4069-18.77208-3.0406-130.66666l-.69469-122.66663-22.66667-.6667c-20.65153-.6074-23.10277-.9378-27.57206-3.7169-10.01611-6.2283-13.72542-24.1113-6.89794-33.256 6.89771-9.2387 12.82011-10.8846 39.47-10.969l18.33334-.058.0293-38.3333c.0328-42.9425.58795-46.0209 9.49225-52.6373 12.40842-9.2202 27.24256-8.2224 37.39364 2.5152 6.59783 6.979 6.93566 9.241 7.466 49.9911l.4972 38.2023 28.22748.5004c31.5134.5587 33.70939 1.0974 40.4389 9.9203 2.90618 3.8102 3.77544 6.5513 4.12297 13.0014.57435 10.6595-3.08127 17.5289-11.6224 21.8399-5.59557 2.8243-7.56711 3-33.66117 3h-27.71754v113.18022c0 129.55089-.6251 122.12207 11.30484 134.34733 5.67807 5.81862 7.89103 7.12378 14.5672 8.59146 6.973 1.53294 9.181 1.43706 19.33334-.83953 21.23052-4.76077 30.97696-2.53175 37.17874 8.50284 6.81207 12.12043 1.57282 25.55376-12.79516 32.80653-14.2837 7.21026-49.90273 10.69503-68.92229 6.743zm227.08528.65996c-41.31545-6.58284-74.29964-29.1681-90.9096-62.24853-1.91196-3.80787-5.07779-12.20787-7.03517-18.66666-3.17992-10.49279-3.55759-13.87303-3.54663-31.7433.0143-23.34506 2.39732-34.60926 11.00089-51.99999 20.70444-41.85068 70.31555-65.8618 125.35719-60.6712 38.29488 3.61133 66.40071 15.10602 88.97468 36.38881 3.80965 3.59175 7.55965 6.13923 8.33333 5.66105 1.84548-1.14056 1.8741-58.25216.0351-70.04533-4.28117-27.45441-26.89471-49.54466-58.24589-56.89816-14.34488-3.3645-43.63158-3.3237-58.38251.081-20.10823 4.6419-39.31616 13.8192-55.71408 26.61958-9.29045 7.25223-15.34272 9.46212-22.69445 8.28654-15.74699-2.51806-24.30739-18.00427-17.23839-31.18522 4.88824-9.1146 33.62283-29.0879 55.09244-38.2944 47.18886-20.2354 112.34222-19.9802 153.88781.6029 23.09304 11.4411 37.32877 25.6567 47.33873 47.27198 10.48372 22.6383 9.86291 13.57282 10.33284 150.8859l.41994 122.70377-3.14927 5.9629c-6.99128 13.23742-24.07017 17.96762-37.16533 10.29334-8.63935-5.06298-13.11024-14.13156-13.11024-26.59222 0-9.90499-1.47458-11.41116-6.12668-6.25799-5.2854 5.85467-24.02895 18.90467-35.06614 24.41444-21.9009 10.93293-39.35234 15.12241-66.80718 16.03811-9.9.33018-21.41163.0568-25.58139-.60762zm72.32344-41.8084c22.91339-5.81246 40.71196-15.91774 54.38365-30.87674l6.8743-7.52157v-31.58304-31.58304l-3.39736-4.99967c-8.73298-12.85172-33.99516-28.43793-55.93598-34.51128-9.16788-2.53772-14.03893-2.95586-34.66666-2.97586-22.60736-.0219-24.5675.18086-33.7799 3.4948-21.08964 7.58646-36.83184 20.77302-44.7689 37.50093-19.71862 41.55834.17172 87.35094 44.37484 102.1621 4.67098 1.56512 11.87098 3.38419 16 4.04239 12.30774 1.96196 36.7198.45214 50.91601-3.14902zm527.05357 41.78382c-27.8763-5.03696-46.6719-21.82392-54.781-48.92658-2.0904-6.9865-2.3704-19.24212-2.9937-131.04066l-.6876-123.33329-22.6667-.6667c-25.0848-.7378-28.577-1.7175-34.1826-9.5898-2.1736-3.0525-3.2122-6.6939-3.5867-12.5749-.663-10.4129 2.8078-17.3864 10.9265-21.9536 4.9556-2.7877 7.7214-3.1722 27.5095-3.8238l22-.7246.6667-40.1068.6666-40.1069 3.6382-4.7667c9.8348-12.8859 27.9638-15.3529 39.7769-5.4128 8.3588 7.0334 8.5205 7.926 9.2516 51.0599l.6667 39.3333 28.6666.7383c29.9829.7721 33.4642 1.443 38.9523 7.5074 3.4534 3.8159 6.3811 11.7489 6.3811 17.2905 0 7.1489-4.6621 15.8282-10.428 19.4136-4.6206 2.8732-6.6079 3.0889-34.2387 3.7169l-29.3333.6667-.3413 108.65605c-.2139 68.12833.1556 111.39531.9907 116 3.1244 17.22704 12.3868 27.90573 26.8176 30.91844 6.571 1.37181 9.1618 1.18272 21.5887-1.57558 12.4863-2.77149 14.783-2.9363 19.8333-1.4232 7.458 2.23446 15.2749 10.05522 16.482 16.49012 3.94 21.00147-16.9496 33.72775-57.371 34.95148-9.5334.28863-20.4254-.0339-24.2044-.71678zm-307.49101-4.35216c-6.84939-2.19983-13.38975-7.70879-16.43685-13.8448-2.43892-4.91128-2.54835-10.83167-2.90371-157.10361-.25089-103.27048.0832-154.11466 1.04232-158.59626 4.30083-20.0974 28.33416-28.3887 43.55377-15.0257 8.07558 7.0904 9.71031 12.4516 9.74391 31.9553.022 12.7602.44495 16.9703 1.69595 16.881.91666-.066 5.30574-4.4155 9.75349-9.6667 23.97833-28.3099 54.88583-46.3297 80.12493-46.7149 10.0711-.1537 11.2991.1308 16.5479 3.8339 13.4603 9.4967 14.7157 28.235 2.7548 41.1191-5.501 5.9255-10.0833 7.6429-25.9292 9.7179-32.8278 4.2987-58.0475 17.77142-77.56919 41.43852l-7.3494 8.91003v113.11673c0 99.24861-.25387 113.72447-2.07073 118.0739-2.36567 5.66324-7.71488 11.7194-12.6135 14.28049-5.0892 2.66074-14.7237 3.43032-20.34449 1.6251z" fill="#d44434"/></g></svg>