<svg height="24.375" width="24.375" xmlns="http://www.w3.org/2000/svg"><path d="m23.234375 0v.75h.75v-.75zm0 1.5v.75h.75v-.75zm-2.25.75v.75h.75v-.75z" fill="#fdb511"/><path d="m11.171875 2.8125c-5.955261 0-10.78125 4.82599-10.78125 10.78125s4.825989 10.78125 10.78125 10.78125 10.78125-4.82599 10.78125-10.78125-4.825989-10.78125-10.78125-10.78125zm0 3.4375c4.052033 0 7.34375 3.29172 7.34375 7.34375s-3.291717 7.34375-7.34375 7.34375-7.3125-3.29172-7.3125-7.34375 3.260467-7.34375 7.3125-7.34375z" fill="#fdb511"/><path d="m14.234375 8.25c-1.95762 2.44669-2.450968 3.52102-3.230863 5.49922-.884861-1.78973-1.9408882-3.02489-3.769137-3.84297-.346336-.0884-.516645-.13968-.75.1875s-.09186.62155.1875.96875c.732065.90983 1.5547388 1.75045 2.1249998 2.78125.668542 1.20845 1.5009062 3.20015 1.7812502 3.71875.222965.41246.762201.59375.96875.59375 1.106413-.13093 1.106798-.69341 1.317703-1.66845.342006-1.59892.784957-3.25193 2.869797-5.2378v-3z"/><path d="m22.484375.75v.75h.75v-.75zm0 .75h-1.5v.75h1.5zm-1.5.75h-.75v1.5h.75zm0 1.5v.75h.75v-.75zm.75 0h.75v-.75h-.75zm-.75.75h-.75v.75h-.75v-.75h-1.5v.75h-.75v.75h.75v.75h-.75v-.75h-.75v.75h-.75v.75h-.75v3h1.5v-.75h.75v-.75h.75v-.75h-.75v-.75h.75v.75h.75v-.75h.75v-.75h.75v-.75h.75zm-1.5 0h.75v-.75h-.75zm0-.75v-.75h-.75v.75z"/></svg>