<svg height="126.107" viewBox="0 0 126.10701 126.107" width="126.107" xmlns="http://www.w3.org/2000/svg"><g fill="#56347c" transform="matrix(1.2550927 0 0 1.2550927 1.339297 -12.550923)"><path d="m88.342066 56.730068v16.662869c0 .510289-.341075.643984-.760689.296591l-8.504063-7.040412c-.419211-.34706-.760285-1.040116-.760285-1.550405v-2.097683l-2.657657-2.16078c-2.850156-2.317289-5.132376-7.0217-5.132376-10.464763 0-3.442323 2.29778-4.339449 5.132376-2.002743l2.657657 2.160782v-2.097681c0-.510046.341074-.643737.760285-.296677l8.503862 7.040243c.420546.346435.76089 1.040613.76089 1.550659zm-12.530756-5.297841c-1.50022-1.236708-2.716309-.761675-2.716309 1.060197 0 1.822367 1.216089 4.301887 2.716309 5.538595l2.505719 2.035532v-6.599035l-2.505719-2.035532z"/><path d="m97.976 37.8c-.004-.021-.008-.042-.013-.063-.016-.068-.036-.135-.062-.199-.003-.008-.005-.016-.008-.023-.03-.069-.067-.135-.107-.198-.011-.018-.024-.034-.036-.051-.035-.05-.074-.097-.116-.141-.011-.012-.021-.024-.033-.036-.053-.052-.111-.1-.173-.143-.015-.011-.032-.019-.048-.029-.031-.019-.06-.04-.092-.057l-.545-.284-24.905984 11.119585-46.585016-23.426585-.666.33c-.006.003-.01.007-.016.01-.047.024-.09.055-.134.084-.029.019-.06.036-.087.057-.034.027-.063.059-.094.09-.031.03-.065.059-.093.092-.022.026-.039.056-.06.084-.031.043-.063.086-.088.132-.003.005-.007.01-.01.015-.015.028-.022.057-.035.085-.02.046-.041.09-.056.138-.013.041-.02.082-.029.123-.009.043-.019.085-.024.128s-.004.085-.005.127c-.001.044-.003.087.001.13.002.023.005.046.009.069-.006.051-.015.1-.015.152l.004 15.559 3.36308-1.566581 36.40492 18.103581-25.084385 11.136048-18.939-9.469-16.9895518-8.493338c-.012-.006-.025-.009-.038-.014-.042-.02-.086-.035-.131-.05-.04-.014-.08-.028-.121-.038-.038-.009-.078-.014-.117-.019-.049-.007-.098-.014-.148-.015-.013 0-.024-.004-.037-.004-.025 0-.049.006-.074.007-.05.004-.099.007-.148.016-.04.007-.079.017-.118.027-.043.011-.085.024-.127.039-.039.015-.077.032-.114.051-.039.019-.077.039-.115.062-.035.022-.068.045-.1.07-.035.027-.07.054-.103.085-.031.029-.059.059-.087.09-.028.032-.056.064-.082.099-.028.038-.052.079-.076.12-.013.023-.03.042-.042.066-.006.012-.008.025-.014.037-.02.043-.036.089-.051.135-.013.039-.027.078-.036.117-.009.04-.014.081-.02.122-.007.048-.013.095-.014.142.001.014-.003.026-.003.039v19.531c0 .026.006.051.008.077.003.048.006.096.014.143.007.042.017.082.028.122.011.042.023.083.038.123s.033.079.052.117.038.076.061.112c.022.035.046.069.071.102.027.035.054.069.084.102.028.031.059.059.09.087.032.029.064.056.1.082.038.027.077.051.118.075.023.014.043.031.068.043l36.5205518 18.258338c.007.004.015.004.022.008.017.008.032.017.049.025.01.004.02.007.03.011.056.022.113.041.171.055l.036.009c.016.003.032.005.048.008.077.014.154.024.232.024h.003.001.001.003c.078 0 .156-.01.232-.024.016-.003.032-.005.048-.008l.036-.009c.058-.014.115-.033.17-.055.01-.004.021-.007.031-.011.017-.007.032-.017.049-.024.007-.003.015-.004.022-.008l22.616385-9.902048 9.462 5.221c.018.01.037.017.056.026.019.01.038.02.058.029.008.003.016.007.024.01.031.013.063.023.095.033.019.006.038.013.058.019.021.006.043.011.064.015.015.003.029.006.044.008.007.001.015.003.022.004.014.002.028.006.042.008.059.008.117.013.176.013h.001.001.003c.078 0 .155-.01.232-.024.013-.002.026-.003.039-.006.01-.002.019-.006.029-.008.07-.017.14-.037.207-.065.007-.003.014-.007.021-.01l.012-.006c.006-.003.012-.003.018-.006l24.828-11.586c.465-.219.762-.686.762-1.2v-36.083c0-.006-.002-.011-.002-.017-.001-.074-.009-.146-.022-.217zm-60.762385 40.617048-7.614 3.666 3.972 1.986 3.641-1.986v6.29l-33.8715518-16.935338v-9.829l8.6775518 4.241338-7.2569997 3.35 3.972 1.986 7.2689997-3.378 4.313 2.051-7.487 3.456 3.972 1.986 7.503-3.482 4.621 2.344-7.381 3.407 3.972 1.986 7.395-3.434 4.303 2.111zm28.014385-1.478048-25.366385 11.277048v-16.57l25.366385-11.276048zm-61.8869368-18.41129v-3.31l33.8725518 16.603338v3.31z" transform="matrix(.46410314 .9267926 -.9267926 .46410314 77.258376 -14.89278)"/><path d="m39.407 53.262 5.959 2.979-6.29 2.979-5.959-2.979z" transform="matrix(.44775907 .89415424 -.89415424 .44775907 70.463179 -16.30443)"/><path d="m22.855 50.613 6.29-2.979 5.958 2.979-6.289 2.98z" transform="matrix(.44775907 .89415424 -.89415424 .44775907 70.02568 -16.55443)"/><path d="m45.058193 34.347585c2.124399 2.704098 4.295157 7.985437 4.295157 12.865587 0 4.87818-2.170758 6.542025-4.295157 5.703941 0-1.998055 0-16.795084 0-18.569528z"/></g></svg>