<svg height="122.13062" viewBox="0 0 122.13062 122.13062" width="122.13062" xmlns="http://www.w3.org/2000/svg"><g fill="#2480c3" fill-opacity=".941176" transform="translate(-1 1.349138)"><path d="m1.2000053 63.733366c.2-1.9-.2-4.1.2-6.4.6-3.7 2.7-6.6 6-8.2.8-.4 1.2-.8 1.4-1.9 1.3999997-8 4.6999997-15.4 9.4999997-22 .6-.8 1-1.2.2-2.3-.8-1.2-.2-2.5.6-3.5 6.8-7.6 14.8-13.2000003 24.3-16.3000003 22.8-7.2 42.8-2.30000002 60.100005 14.6000003 1.6 1.6 3.7 3.1 1.6 5.8-.4.4.2.8.6 1.2 4.9 6.8 8.2 14.4 9.7 22.6.2.8.8 1.2 1.4 1.6 4.1 2.1 6.2 5.6 6.2 10.3 0 4.1.4 8.2-.2 12.3-1 6-7 10.1-12.8 8.8-1.6-.4-2.3-1.6-2.3-3.3 0-6.8.2-13.6 0-20.4-.6-18.3-8.600005-32.1-24.500005-40.9-26.2-14.4000003-60.2 1.9-65.9 31.7-1 5.1-.8 10.5-.8 15.6 0 4.9 0 9.7-.2 14.6 0 1.6-1 2.7-2.9 2.7-7.4999997.4-12.3999997-4.3-12.3999997-11.9.2-1.2.2-2.7.2-4.7"/><path d="m53.100005 87.733366c2.7-1 4.7-2.9 5.3-6s-2.9-7.4-7.6-11.9c-4.9-4.7-11.3-9.7-14.8-11.5-5.1-3.1-9.9-.4-10.9 5.6-1.2 6.6 0 12.8 3.5 18.3 2.5 3.9 6 5.6 10.3 6 2.4-.1 12.1.4 14.2-.5"/><path d="m75.100005 89.633366c3.1.4 6 1 9.1 1.2 4.1.2 7.2-1 9.5-3.5 2.9-3.1 4.3-7 4.1-11.1-.2-4.3-3.7-6.8-8.4-6-4.3.6-8 2.5-11.9 3.9-3.5 1.4-6.6 3.1-9.1 5.3-3.5 3.3-1.6 7.8 3.9 9.5.7.3 1.7.5 2.8.7"/><path d="m107.80001 85.933366c-.6-.6-1.6-.2-2.1.6-1.9 6-10.700005 26.100004-40.700005 28.200004-35.4 2.5 18.9 10.1 34.4-1.4 5.300005-4.1 11.300005-8.2 11.100005-20.000004 0-2.3-1.1-6.2-2.7-7.4"/></g></svg>