<svg height="256" viewBox="0 0 256 256" width="256" xmlns="http://www.w3.org/2000/svg"><path d="m5.9 1.4-1.3-1.5-4.6 3.8 1.3 1.5zm14.1 2.3-4.6-3.9-1.3 1.5 4.6 3.9zm-10-1.7c-5 0-9 4-9 9s4 9 9 9 9-4 9-9-4-9-9-9zm0 16c-3.9 0-7-3.1-7-7s3.1-7 7-7 7 3.1 7 7-3.1 7-7 7zm1-11h-2v3h-3v2h3v3h2v-3h3v-2h-3z" fill-rule="evenodd" transform="matrix(12.673267 0 0 12.673267 1.26733 2.534657)"/><path d="m113.44913 254.83771c-38.139985-4.90542-71.519142-29.01008-88.015296-63.56002-14.873853-31.15216-14.84891-67.75742.06723-98.66512 5.580686-11.56373 11.59172-20.26035 20.405282-29.5219 37.856926-39.78115 99.737354-46.34266 145.812614-15.46128 38.09662 25.53378 56.8744 71.68855 47.70863 117.26521-7.56409 37.61228-34.3327 69.2832-70.28632 83.15831-7.8108 3.01433-16.76042 5.32665-25.33249 6.54517-6.53894.92952-23.92851 1.06677-30.35965.2396zm32.30607-25.67352c44.23163-8.99666 74.27686-48.8334 70.85276-93.94314-.63793-8.40423-1.8036-14.27155-4.37169-22.00463-4.35601-13.11691-11.17998-24.04809-21.37184-34.23515-13.39028-13.38395-29.10668-21.5121-47.7546-24.69752-6.04803-1.03312-8.68056-1.16528-17.93488-.90042-11.93214.34148-18.42513 1.51076-28.247832 5.0869-42.6119 15.51372-66.283642 61.06488-55.015989 105.8664 8.78523 34.93112 38.022054 60.83428 74.387251 65.90543 6.18028.86184 22.93439.2488 29.45682-1.07787z"/></svg>