<svg height="1425.8491" viewBox="0 0 1425.8492 1425.8491" width="1425.8491" xmlns="http://www.w3.org/2000/svg"><g transform="translate(-.420449 -1.005111)"><path d="m379.42961 1425.9511c-54.17758-2.695-91.09384-8.2914-104.4427-15.833-6.82981-3.8586-9.0573-8.3144-9.0573-18.1181 0-9.1542 2.7819-15.5576 10.53749-24.2553 13.91851-15.6092 59.69047-39.1628 104.46251-53.7548 5.5-1.7925 10.83141-3.6879 11.84758-4.2119 389.57191 0 353.93866-.3596 640.52031-.3596.5691.3517 7.6519 2.895 15.7396 5.6517 45.8196 15.6181 83.3725 34.8257 99.4655 50.8748 9.0556 9.031 12.427 16.0995 12.427 26.0551 0 10.6431-2.1687 14.4868-10.5828 18.7562-15.5195 7.8748-50.2616 12.7236-109.9172 15.3406-34.7281 1.5235-156.62433.6118-202.49999-1.5146-40.41183-1.873-75.12579-4.0198-100.5-6.2151-19.7494-1.7086-30.34289-1.5275-61.5 1.0513-18.65518 1.5441-57.19954 3.7936-97 5.6611-29.34343 1.3768-176.42609 2.0195-199.5.8716z" fill="#f8a907"/><ellipse cx="710.42963" cy="1008" fill="#fff" rx="427" ry="368"/><path d="m201.90939 762.83219c14.36792-39.43297 16.25618-43.98398 51.0457-130.33747 210.75668-556.338145 907.14331-817.97174 906.35761-31.06667l31.5931 78.43569c34.8062 86.41323 19.6678 43.56014 34.024 82.96107-29.9103 403.06209-653.1806 1193.24089-1023.02041.007zm851.93121 51.73622c-.8071-5.46238-1.8916-10.44257-2.4099-11.06709-.6931-.83521-5.5121-.26928-18.2217 2.1399-71.78327 13.60695-148.04956 23.55899-221.77939 28.94013-25.87354 1.88837-136.65841 3.0508-163.8217 1.71894-8.97694-.44016-16.96444-.44043-17.75-.0006-1.22207.68423-1.4283 14.49367-1.4283 95.64159v94.84192l-2.25.5556c-1.2375.3056-10.125 1.3394-19.75 2.2972-21.25174 2.115-77.58953 2.4232-100.5.5499-25.70741-2.1021-61.5595-6.4836-71.25-8.7076l-2.25-.5164v-103.35851c0-81.47189-.26469-103.57618-1.25-104.38646-.6875-.56538-12.95-3.14217-27.25-5.72621s-26.28651-4.8716-26.63669-5.08347c-500.10597 486.47885 957.71498 1012.28445 676.54768 12.16116z" fill="#e81922"/><rect fill="#f8a907" height="186.67619" rx="15.6652" ry="9.92932" width="619.42554" x="396.27231" y="423.90839"/><ellipse cx="706.42963" cy="293" fill="#fff" rx="235" ry="141"/><path d="m683.92961 1415.4125c-37.16771-2.732-56.31719-5.0234-79.5-9.513-82.84522-16.0439-154.9357-50.3508-212.5-101.1259-64.32017-56.7341-108.88799-128.6719-128.41274-207.2736-5.02254-20.2195-9.08726-48.6742-9.08726-63.6147 0-3.172-.43459-6.0359-.96575-6.3641-.53117-.3283-4.23027 4.4826-8.22024 10.6909-19.42331 30.2224-43.47331 64.3458-60.46293 85.7879-15.08046 19.0327-36.94314 40.6795-45.2608 44.8139-7.74626 3.8505-10.02237 3.9556-13.95723.6446-3.7145-3.1255-6.37428-10.018-9.32692-24.1696-3.21458-15.407-3.17498-51.6323.085-77.7889 9.19194-73.7512 28.3966-147.85295 63.62527-245.5 8.32238-23.06802 16.93716-46.25455 22.0139-59.25.37601-.9625 1.51272-1.75 2.52604-1.75 1.01331 0 10.52767 2.49863 21.14301 5.55251 37.11726 10.67809 92.59493 24.20393 132.82603 32.38389 7.80876 1.58772 14.57011 3.26404 15.02522 3.72518.45511.46113.18393 5.11342-.60263 10.33842-10.40695 69.13205-11.83173 166.5785-3.38899 231.787 15.31633 118.2976 66.92453 210.0197 148.94099 264.7093 55.00213 36.6761 119.39892 54.7629 195 54.7686 92.9767.01 169.61577-27.4375 230.91975-82.6926 60.32147-54.3694 100.74927-138.6549 112.99317-235.5723 8.4798-67.12207 7.3626-157.89266-2.8246-229.5-1.0172-7.15-1.5563-13.32436-1.1981-13.72079.3583-.39644 8.292-2.32608 17.6306-4.2881 44.4944-9.3482 93.365-21.31758 130.3696-31.93014 10.6647-3.05853 20.1791-5.56097 21.143-5.56097.964 0 2.0603.7875 2.4363 1.75 57.6377 147.54114 87.9853 267.7195 87.9406 348.25-.011 20.3698-.3097 24.9371-2.2402 34.2889-2.9131 14.1109-5.5784 21.0354-9.3031 24.1696-3.9349 3.311-6.211 3.2059-13.9573-.6446-8.3176-4.1344-30.1803-25.7812-45.2608-44.8139-16.9896-21.4421-41.0396-55.5655-60.4629-85.7879-3.99-6.2083-7.6891-11.0192-8.2202-10.6909-.5312.3282-.9658 3.2226-.9658 6.4319 0 20.8475-6.3393 56.6147-15.1622 85.5469-7.9929 26.2105-26.246 65.9943-41.2925 90-32.4181 51.7208-75.7927 96.4841-125.01126 129.0137-63.77913 42.1529-136.94881 66.8239-222.53406 75.0328-15.37906 1.4751-72.62081 2.7391-84.5 1.866zm-17-754.48796c-103.88149-3.76844-210.67514-17.047-309.86165-38.52772-33.61427-7.2798-87.70629-21.13168-89.49215-22.91714-1.21133-1.21105-1.36439-69.56973-.20445-91.30956 4.90368-91.90596 22.95749-174.32818 53.81171-245.67012 73.67103-170.34406 210.43247-261.53128521 392.18668-261.4948804 86.26246.017278 163.56146 20.7194604 227.72884 60.9902324 95.27331 59.792508 163.05161 162.036238 196.76891 296.826268 9.7573 39.00621 16.2495 79.12772 20.0939 124.17838 1.8026 21.1239 3.1102 90.17466 2.0118 106.23603l-.7342 10.73603-7.0946 2.11288c-11.7739 3.50641-56.0307 14.56943-75.2148 18.80168-135.21911 29.83103-285.85732 44.54138-409.99999 40.03792zm80-76.00481c47.60612-3.56311 100.97898-16.53752 154.5-37.55742 30.18698-11.85566 71.78813-33.69002 81.20956-42.62282 5.46508-5.18164 4.91468-10.74957-1.6979-17.17627-20.6697-20.08864-93.79098-37.42362-192.51166-45.63904-20.06695-1.66995-105.86392-2.33603-130.19539-1.01077-63.38112 3.45217-119.87136 11.74276-161.75639 23.73959-44.07702 12.62467-64.39457 27.8087-52.79822 39.45799 14.86962 14.9375 77.82826 44.23583 127.32309 59.25088 64.01848 19.42102 117.27847 25.94743 175.92691 21.55786zm-138-180.42413c30.21943-6.34465 54.40174-37.37358 63.15198-81.03188 2.76397-13.7905 2.55349-44.27554-.40726-58.98735-4.96992-24.6953-14.58043-45.65408-27.71638-60.44446-15.36781-17.30334-30.87972-25.03191-50.24118-25.03191-15.67565 0-28.65693 5.59816-41.6052 17.94218-16.27255 15.51316-26.81341 36.54983-32.34806 64.55782-2.47617 12.53057-2.46366 43.16716.023 56.43343 7.26491 38.75764 27.13916 69.39417 53.09522 81.84728 12.37477 5.93713 23.37407 7.37579 36.04785 4.71489zm2-60.72286c-10.4961-3.74137-19.41822-14.77806-23.03326-28.49224-1.96998-7.47338-1.95136-22.1578.0377-29.70564 5.93562-22.52414 25.70782-34.57678 42.91333-26.15891 20.27102 9.91769 28.45192 43.31759 16.39761 66.94599-3.05798 5.99414-10.74986 13.66715-16.31535 16.27534-5.47436 2.56548-14.54371 3.08038-20 1.13546zm233.64231 59.80361c7.86376-2.39838 15.50715-6.46206 22.61464-12.02329 24.49812-19.16846 40.25772-55.0642 41.95145-95.55306 2.31465-55.33218-23.83652-104.29302-61.6399-115.40365-6.83705-2.00945-21.69051-2.06947-29.0685-.11747-32.36738 8.56348-58.41511 46.016-64.61697 92.909-1.92204 14.53276-1.40857 37.68894 1.12228 50.61212 9.82616 50.17495 41.46297 83.65543 76.99469 81.48164 4.4-.26919 10.08904-1.12657 12.64231-1.90529zm-68.03224-84.97186c-5.76108-3.19312-6.57608-10.04832-2.01356-16.93648 6.86165-10.35919 21.15921-20.62024 35.40349-25.4083 7.25373-2.43826 9.39926-2.691 23-2.70928 16.1059-.0217 23.47275 1.28927 34.5 6.13925 8.0813 3.5543 11 6.72037 11 11.93231 0 5.36305-1.41584 9.13229-4.73878 12.61556-4.34022 4.54963-7.88471 4.53751-17.952-.0614-12.00334-5.4833-16.24662-6.50533-27.30922-6.57771-15.02777-.0983-25.99186 4.59734-40.30819 17.26301-6.09961 5.39633-7.67828 5.90653-11.58174 3.743z" fill="#020101"/></g></svg>