<svg enable-background="new 0 0 174 144.5" height="144.5" viewBox="0 0 174 144.5" width="174" xmlns="http://www.w3.org/2000/svg"><path d="m51.8 15.2c.6.1 1.2.1 1.7.1.4 1.7 1.9 3.3 3.8 3.3 2.1.2 3.9-1.4 4.3-3.3h3.7c.4 1.8 2 3.4 4 3.4 2 .1 3.7-1.5 4.1-3.4h3.6c.4 1.8 1.9 3.3 3.8 3.4 2 .2 3.8-1.4 4.2-3.4h3.7c.4 1.9 2.1 3.4 4 3.4 2 .1 3.6-1.5 4-3.4h3.7c.4 1.7 1.7 3.2 3.5 3.3 2.1.3 4.1-1.3 4.5-3.3h3.7c.4 1.9 2.1 3.5 4.1 3.4 1.9 0 3.5-1.5 3.9-3.4h3.7c.4 1.8 2 3.4 3.9 3.4 2 .1 3.7-1.5 4.1-3.4h3.7c.4 1.9 2.2 3.5 4.2 3.4 1.9 0 3.5-1.5 3.9-3.4h3.7c.4 1.9 2.1 3.3 4 3.4v3.7c-1.2.2-2.5.6-3.2 1.7-1.3 1.6-.9 4.1.7 5.4.7.6 1.6.8 2.5 1v3.6c-.9.2-1.8.3-2.5 1-1.6 1.3-2 3.8-.7 5.4.7 1.1 2 1.5 3.2 1.7v3.6c-.9.2-1.9.4-2.6 1.1-1.4 1.2-1.8 3.4-.7 5 .7 1.2 2 1.8 3.4 2v3.6c-.9.3-2 .5-2.7 1.2-1.6 1.4-1.7 4.1-.2 5.6.7.8 1.8 1.1 2.9 1.3v3.6c-1 .2-2.1.5-2.9 1.3-1.4 1.4-1.5 3.8-.2 5.2.7 1 1.9 1.4 3.1 1.6v3.6c-1.3.2-2.7.8-3.4 2-1.1 1.6-.6 4 .9 5.1.7.6 1.6.8 2.5 1v3.6c-1.1.2-2.2.5-2.9 1.3-1.4 1.5-1.4 4 .1 5.5.7.8 1.8 1.1 2.9 1.3v3.6c-1.1.2-2.3.5-3 1.5-1.4 1.5-1.2 4.1.3 5.4.7.8 1.8 1 2.7 1.2v3.6c-1.1.2-2.2.5-3 1.4-1.3 1.4-1.3 3.9 0 5.3.7.9 1.9 1.2 3 1.4v3.6c-1.1.2-2.2.5-2.9 1.4-1.4 1.5-1.4 4 .1 5.4.7.8 1.8 1.1 2.9 1.3v4.1c-.2 0-.9.2-.9.2l-9-5c0-37.1 0-74.5 0-111.6-8.2-.1-16.4 0-24.5-.1-18.7 0-37.3 0-56 0-.7 0-1.4 0-2.1.1-2.4-2.9-4.7-5.7-7.3-8.3z" fill="#e4e4ef"/><path d="m26.7 15.4c.5-.1 1-.1 1.6 0 .2.8.5 1.6.7 2.4.5 2.6-.4 5.2-1.2 7.7-.5 1.1-1 2.1-1.7 3.1.5-1.2.7-2.5.1-3.7-.5-1.2-1.6-1.8-2.7-2.3-.5-1.2-1.1-2.4-.9-3.8 1.7-.1 3.5-1.2 3.9-3-.1-.2.1-.3.2-.4z" fill="#e4e4ef"/><path d="m26.4 49.8.1.2c.4 1.4.9 2.7 1 4.1.3 2.6-.3 5.2-1.1 7.7.3-2.3-1.8-4.2-4-4.3 0-1.2 0-2.4 0-3.6 2.1-.2 4.2-1.9 4-4.1z" fill="#e4e4ef"/><path d="m23.2 65.4c.8-.1 1.5-.5 2.1-1 0 .1-.1.4-.1.5-.7 1.5-1.7 2.9-2.4 4.4-.2-1.1-.4-2.4-.1-3.5.1-.1.4-.3.5-.4z" fill="#e4e4ef"/><path d="m31 23.2h111v112.9h-111z" fill="#f9f9f9" stroke="#d1d3d4" stroke-miterlimit="22.9256"/><path d="m35.7 29.1h99.1l-.1 100.8-8.9.1-90.1-49.1z" fill="#838495"/><path d="m74.1 72.4c-3.1-6.2-2.8-5.2-3.3-5.8-.5-.7.7-.8.6-2.4-.3-4.4-.6-5.8-.3-9.9.5-4.9.7-9.2.6-11.9-.1-2.3-.4-3.8-.7-4.7.8-.2 1.4-.5 1.6-1.6.1-.6.1-1.4 0-1.9-.3-.6-1-1.4-1.3-2.1 0-.2-1.1 9.7-7.3 0-1.9-3-3.4-6.1-5.5-8.9-.3-.4-.7-.9-1.2-1.4l.3-.2c-4.2-3.9-5.3-7.1-12.2-12.1-4-2.9-8.2-5.5-12.8-7.1-3.7-1.3-7.2-2-11.1-1.9-1.8 0-3.7.3-5.4.6-.7.1-4 .6-4.3 1.3-.1.1-.3.3-.4.3 4 .6 7.8 2.4 10.9 4.9 3.2 2.5 5.7 5.6 6.3 9.6.1.6.8 4.1-1 7.9-1.1 2.9-2.9 4.7-5.4 6.6-5.3 3.8-11.7 2.1-17.7 3.2 1.1.6 12.9 5.2 12.9 5.2 2 .7 5.5 4.2 6.6 5.8 1.6 2.4 2.8 4.9 3 7.8.5 4.1-.7 8.5-2.5 12.1-.9 1.8-1.9 3.5-3 5.2-.4.6-.8 1.2-1.1 1.8-1.2 1.3-5.1 6.6-1.4 6.2 2.4-.3 12.4-.1 21.5 1.3 7.3 1.1 18 4.2 21.5 7.8 0 0 .7.7 1.4 1.7 5.6-4 7.7-10.9 11.2-16.8-.2-.2-.4-.4-.5-.6z" fill="#435278"/><path d="m74.6 73c-3.5 5.8-5.5 12.8-11.2 16.8z" fill="#435278"/><path d="m71.2 79.5c-1.9 3.7-3.8 7.2-7 9.7z" fill="#758bb4"/><path d="m66.9 77.3c-3.6-1.8-5-3.3-4.6-6.2.7-5 8.5-16.4-3.6-18.8-17.8-3.7-39.3 15.9-27.7 22.1 15.8 8.5 26.3-.7 33 14.8 0 0 0 .1.1.1 3.2-2.5 5.2-6.1 7-9.7-1.2-.7-2.6-1.5-4.2-2.3z" fill="#758bb4"/><path d="m29.1 58.3c-.5 1.4-4 6.8 4.3-.2 10.2-8.5 15.7-9.8 18.4-10.5 4.4-1.2 2-2.9 1.1-3.6 0 0-1.5-1.4-10.3-3.2-4.2-.9-10.9-3-13.5-.2-5.5 5.9 2.2 11.9 0 17.7z" fill="#758bb4"/><path d="m62.1 38.4c.8-2.4-5.2-11.6-9.3-15.2-8.1-7.2-16.7-12.4-21-13.4-4.1-1-3.7 1.4-3.5 2.8.3 1.4 4.5 6.3 2.1 12.6-2.8 7.4-5.9 6.6-4.5 8.3 1.4 1.6 7.3 2.5 20.1 5.8 7.6 1.9 15 2.6 16.1-.9z" fill="#758bb4"/><path d="m70 71.3s.1-.6 0-.6c-.1.1-.1.6 0 .6z" fill="#758bb4"/><path d="m71.7 67.5s-.1-1.2-1-.2-1.3 2.2-1.2 3.5c.1 1.2.7.2 4.3 3.7.3-.6.6-1.1 1-1.7-1.7-2.6-3.1-5.3-3.1-5.3z" fill="#758bb4"/><path d="m74.7 72.8c-.3.6-.7 1.1-1 1.7" fill="none"/><path d="m71.2 38.8c-.1.2-.3.3-.5.4-.3.1-1.7-.3-2.3-1.4-.2-.3-2.7-2.9-2.7-2.9-.2-.2-.4-.5-.5-.7-7.1-13.4-25.9-39.4-50-32.7-.3.1 7.5-1 15.8 2.3 6.3 2.5 10.4 5.2 16.9 10.2 9.2 7.1 13.6 16 16.4 20.4.4 1.5 1.2 3.4.1 5.3-.4.6-1.5 1.8-3.1 2.3-2.2.6-3.6.5-5.3.3-7.1-.6-16.2-2.8-9.8-1.3s13.5 2.6 15.3 2.7c1.7.2 1.5 1.4 1.2 2.2-.4 1.1-1.4 2.3-3 2.7s2.9 1.6 5.7-1.6c2.1-2.4 2.5-4.7 2.8-6 .2-.9.4-1.2.8-1.2 3 .1 2.1 19.5.8 23.6-1.4 4.3-1.3 6.3-1.3 6.3s.4-1.6 1.5-2.9 1.6-1.1 1.6-2.2c-.1-1.7-1-5.1 0-15 .8-8.7-.4-10.8-.4-10.8z" fill="#758bb4"/><path d="m71.5 32.2c.7 1 1.3 1.9 1.4 2.7 0 .8-.8 3.4-1.8 3-1-.3-2.8.3 0-1.7 0 0 1-.9.7-2.7-.3-1.2-.3-1.3-.3-1.3z" fill="#758bb4"/><path d="m8.8 34.7c2.4-.2 7-.3 14.2 1.1 6.7 1.3 5.4 1.4 13.1 2.9 2.4.5-9-1.7-16.8-2.4-9.4-.8-9.4-.9-11.8-.8-2.3 0 1.3-.8 1.3-.8z" fill="#758bb4"/><path d="m71.3 66.6v.2c-.4.2-1 .9-.8 2.6.1.7 1.7 2.5 3.6 4.4.2-.4.4-.7.6-1.1-2.2-3.4-3.4-6.1-3.4-6.1z" fill="#8697bd"/><path d="m74.7 72.7c-.2.4-.4.7-.6 1.1" fill="none"/><path d="m73.3 70.1c-.6-1-1.1-2-1.7-3-.2-.4-.5-1-.9-1.3-.7-.4-1.7 3.2-1.8 3.5-.1.2 0 .6 0 .7.2-.4 1-3.7 1.8-3.4.4.2.7.9.9 1.3.6 1 1.1 2 1.7 3-.1-.1.1-.6 0-.8z" fill="#333"/><path d="m64.7 47.9c.6-.7 1.6-1.9 2.6-1.7 1.1.2 1.2 2.3 1.2 3 .4 4.4-.2 8.9-1.2 13.2-.6 2.7-2.1 5.5-2.2 8.3-.1 2 2.2 2.7 3.7 3.4 0 0 .1-.6 0-.7-1.1-.7-2.6-1.1-3.4-2.2-.6-.8.2-2.2.4-3 .3-1 .7-2.1 1-3.1 1-3.3 1.6-6.7 1.8-10.1.1-2.4.3-4.9-.1-7.3-.1-.7-.3-1.6-1-2-1-.6-2.4 1.2-2.8 1.8-.1 0 .1.4 0 .4z" fill="#333"/><path d="m38.4 9.4c8 2.7 13.9 8.7 18.9 15.3 1.5 2.1 3 4.2 4.2 6.5 1.2 2.2 2.4 4.9 1.8 7.5-.9 3.9-6.9 3.3-9.8 3.1-5.3-.4-10.4-1.6-15.5-2.9-4.5-1.2-9.1-2.5-13.7-3.4-3.9-.7-7.8-1-11.8-1.1-2.8-.1-5.7.2-8.4.9.1 0 .5.2.7.1 4.8-1.5 10.3-1 15.3-.5 5.4.6 10.6 2.1 15.8 3.5 7.3 1.9 15.1 4.2 22.7 3.5 2.6-.2 5.1-1.4 5.2-4.2.2-2.7-1.4-5.4-2.7-7.7-3.2-5.5-7.5-10.8-12.4-14.9-3-2.5-6.5-4.5-10.2-5.7z" fill="#333"/><path d="m13.8 82.1v-.5c-.1 0-.1.5 0 .5z" fill="#333"/><path d="m28.6 59c-.3.6-1.4 3.6.4 2.7 1.2-.6 2.3-1.6 3.4-2.4 1.9-1.4 3.8-2.8 5.8-4 5.1-3.2 10.6-5.6 16.6-6.5 2-.3 6.9-.4 5.7-3.5 0 .1-.1.5 0 .6.1.2.1.5.2.3-.2.5-.8.8-1.3 1-2.3 1-5 .9-7.4 1.4-4.6 1-9 3.1-13 5.6-2.9 1.8-5.6 3.9-8.4 5.9-.6.4-1.3 1-2 1.2-.8.2.1-1.6.2-1.9-.2 0-.2-.3-.2-.4z" fill="#333"/><path d="m68 41.5c-.9 3.7-3.2 6.6-6.7 8.1-2.8 1.2-6 .5-9 .9-5.4.7-10.7 3-15.2 5.9-3.8 2.4-7.8 5.7-9.4 10-1.5 4 1 7.2 4.5 8.9 2.1 1 4 1.7 6.3 2.1.1 0 .7 0 .4 0-4.3-.9-11-3-10.9-8.6.1-4.4 4.3-8.1 7.4-10.6 4.5-3.4 9.8-5.9 15.3-7.1 1.2-.3 2.5-.5 3.7-.6 1.4-.1 2.8.1 4.2 0 3.2-.3 6.1-1.9 8-4.6.9-1.3 1.5-2.8 1.7-4.4 0 0-.3-.1-.3 0z" fill="#333"/><path d="m20.7 41.7c-.9-.7-1.9-1.3-2.8-2.1-.5-.4-1.2-1-1.3-1.7-.4-1.8 6.2-.5 6.7-.4.2 0 .7 0 .2-.1-1.9-.3-3.8-.6-5.6-.6-.6 0-1.8 0-2 .7-.2.6.6 1.4 1 1.7.9.9 2 1.7 3.1 2.4.2.2.7.1.7.1z" fill="#333"/><path d="m25.1 29.3c.4-.3-1.7 1.9-4.6 3.2-2.5 1.1-5.4 1.3-9.9 1.7-4.2.4 1.1.2 5.9.4 3.5.1 6.7.7 6.7.7s-4.1-.7 1.9-6z" fill="#333"/><path d="m71.5 51.1c-.1 1.2-.2 2.4-.3 3.6.1-1.2.2-2.4.3-3.6z" fill="#333"/><path d="m71.2 59.1c0 1 .1 2 .1 2.9 0 .7.1 2 .1 2s.2 1 .2-.1c-.1-2.9-.4-5.7-.4-8.6 0-.2 0-.4 0-.6v.3c-.1 1.4 0 2.7 0 4.1z" fill="#333"/><path d="m71.8 47.4c.1-1.7.2-4.1 0-6 .2 2.1.1 4.5 0 6z" fill="#333"/><path d="m71.5 51.1c.1-.9.2-1.7.2-2.5 0-.2 0-.6.1-1.2-.1 1.1-.2 1.9-.2 2.3 0 .5-.1 1-.1 1.4z" fill="#333"/><path d="m71.3 31.6s-.1.4-.1.5c0 1.2-.7 2.6-1.4 3.4-.8 1.3-3.4.7-5.7-3.9-1-2-2.4-4-3.6-5.9-2.1-3.2-4.5-6.3-7.1-9.2-4.2-4.7-9.1-8.8-14.7-11.8-6.9-3.7-15.2-5.7-23-4.2-1.5.3-3.4.7-4.5 1.8-.2.2.2.8.2.8 7.2 1.2 14.5 5.5 16.9 12.7 1.5 4.4-.2 9.3-2.8 12.9-2.1 3-5.4 4.7-9 4.9-.1 0-.1.7 0 .7 7.9-.4 12.8-8.5 12.5-15.9-.3-6.2-5.1-11-10.7-13.7-1.2-.9-2-2 .3-2.4 4.6-.2 9.1.5 13.4 2.5 1.6.8 3.2 1.8 4.5 3 .6.5 1.6 1.5 1.5 2.3 0 .1.7.2.7.1.1-1-1.2-2.1-1.8-2.6-1.7-1.6-3.9-2.7-6-3.6-2.6-1-5.5-1.7-8.3-1.9-2-.3-6-.8-10 .4-.4.1-.6.2-.7.2h-.1c1.3-.9 3.1-1.2 4.5-1.5 3.3-.6 6.8-.5 10.2 0 11.2 1.8 20.8 9 28 17.4 2.6 3 4.9 6.2 7 9.6 1 1.6 2 3.2 2.9 4.9.4.8 2.5 3.7 4.2 3.6 2.4-.1 2.6-3.3 2.7-4.3.4.5.8 1 1 1.6.6 1.1.4 2.2-.5 3.1-.3.4-.8.5-1.3.4-.6 0-.9-.3-1-.4.1.1-.1.6 0 .7 0 .1.9.5 1.2.5.6.5 1 1.7 1.1 3.1-.1-1.3-.3-2.4-.7-3.2.9-.3 1.5-1.3 1.7-2.3.3-1.6-.5-3.1-1.5-4.3z" fill="#333"/><path d="m21.8 37.2c-22.7-2.8-8-2.6-12.4-2.9-3.2-.2-9.3 1-9.3 1s2.2-.2 4.5.2c8.6 1.7 16.5 6.6 16.5 6.6s-3.1-1.9-3.1-3.2c-.2-2 3.8-1.7 3.8-1.7z" fill="#333"/><path d="m79.7 95.8c-1-.2-.8-.1 0 0z" fill="#3b455f"/><path d="m109.2 87.3s-2.3.2-2.7.3c-2 .4-4.7.9-5.9 1.6 0 0-2.5 1.1-3.5 2.6-.4.7-1 1.2-.7 1.9 0 0 .8 1.4 2.7 2.4 1.3.7 3.9 1.6 6 2.5 1.6.7 3.3 1.6 3.1 1.7 0 0-3.4.3-3.6.4-1.3.2-3.9.9-4.1.9-.3.1-2.7.9-3.7 1.2-.8.3-2.9 1.6-3 1.8-1.1 1.7-.5 3.2-.6 3.2 0 0-2.6-1.2-2.9-1.4-.3-.1-4.7-1.8-4.7-1.8-.1 0-2.2-.6-4.6-.6-3.3 0-7.3.4-7.5.2 0 0 1.3-1.9 1.5-2.6.1-.3.2-.5.2-.7 0-.1 0-.2 0-.3 0-.2 0-.3 0-.4.2-1-.3-2.8-.3-2.8 0-.1-.3-.8-.3-.8 0-.1-.2-.2-.2-.3.1 0 .3.1.3.1s1.7.8 2 .9h.3.2c.1 0 .2 0 .3.1h.3.2c.3 0 .6.1.9.1h.4.1.6c.4 0 .7 0 1.1-.1.3 0 .5-.1.8-.1.2 0 .4-.1.6-.1h.1c.2 0 .3-.1.5-.1.6-.2 3.2-3 3.8-3.4.7-.5 1.3-1 1.9-1.7.1-.2.2-.3.4-.5.1-.1.1-.2.2-.3.1-.2.2-.3.3-.5.5-1 .9-2.2 1.2-3.6.1-.4.1-.7.2-1.1 0-.1 0-.2 0-.2 0-.1 0-.2 0-.3s0-.1 0-.2c0-.3.1-.6.1-.9v-.1c0-.1 0-.1 0-.2 0-.1 0-.2 0-.2v-.1-.1c0-.1 0-.2 0-.3v-.4c0-.3 0-.6-.1-.8 0-.2-.1-.4-.1-.5s0-.1-.1-.2c-.2-.7-.7-.8-1.2-.7-.2.1-.5.2-.7.4-.1.1-.2.2-.3.2s-.2.1-.2.2c-.1.1-.1.1-.2.2-.2.2-.4.4-.6.6-.3.3-.5.5-.7.8-.1.1-.1.1-.2.2-.1.1-.2.3-.4.4-.2.3-.4.5-.6.8v.1c-.5.6-.8 1.2-1 1.5-.1.2-.2.4-.3.6-.3.5-1.2 1.2-1.6.4-1.1-2 .3-5.6.3-5.6.1-.4 1.4-1.8 1.4-2.4 0-.6 0-1.1-.1-1.5-.2-.7-.5-1.2-.8-1.4-.1-.1-.1-.1-.2-.2 0 0 0 0-.1 0h-.1c-.1 0-.2 0-.2 0h.1.1.1c.2 0 .4 0 .6-.1.2 0 .4-.1.7-.1.2 0 .5-.1.7-.2.7-.2 1.3-.4 1.9-.7h.1.1s.2-.1.3-.2h.1c.2-.1.5-.2.7-.4h.1c.5-.3.9-.6 1.4-1h.1c.4-.3.8-.6 1.1-.9.1-.1.2-.2.2-.2l.1-.1c.4-.4.8-.8 1-1.1.2-.2.4-.5.6-.7 0 0 0 0 0-.1.2-.2.3-.4.5-.5 0 0 0 0 .1-.1l.6-.6.3-.3c.5-.6 1-1.1 1.3-1.4.2-.2.3-.3.4-.4.2-.1.3-.2.4-.3.1 0 .1-.1.1-.1.1-.1.2-.1.4-.3.1-.1.1-.1.2-.2 0-.1.1-.2 0-.3 0 0 0 0 0-.1-.1-.4-.5-.9-.1-1.9.2-.5.4-1 .5-1.4 0-.1 0-.1.1-.2.1-.4.3-.8.5-1.3.3-.8.6-1.6.8-2.3.1-.2.1-.3.2-.5.3-1 .5-2 .7-3.4 0-.1 0-.2.1-.3.3-1.8.6-3.5 1-5.1 0-.1 0-.2 0-.2.2-1.2.5-2.3.7-3.2.2-.8.4-1.6.6-2.4.1-.2.1-.4.2-.6 0-.1.1-.2.1-.4.1-.2.2-.5.2-.7.2-.4.6-1.5 1.2-2.2.5-.6 1.1-.8 1.1-.8-.2-.1-1.2-.6-1.5-1.5-.1-.4-.3-1.9.2-2.7.7-1.2 2.1-1.8 2.1-1.8s-.2 1.2-.2 1.4c0 0-.2 2.8 1.9 3.8.1 0 1.8.2 3.3-.9 3.2-2.3 7.8-7 9-8.1h7.1c2.6 0 5.3-.1 7.9-.2 0 .1-25.3 58.5-26 58.5z" fill="#3b455f"/><path d="m83.3 87.1c-.1.2-.1.4-.1.4.1-.1.1-.2.1-.4z" fill="#758bb4"/><path d="m135.7 49v19.2c0-.1-.1-.1-.1-.2-.1-.1-.2-.2-.3-.4-.5-.7-1-1.4-1.5-2.1-.9-1.2-1.7-2.3-2.5-3.2-.6-.7-1.2-1.4-1.8-2-.1-.1-.2-.2-.2-.3-1.1-1.2-2.1-2.1-3-2.9-.7-.6-1.3-1.1-1.8-1.5-.2-.1-.4-.3-.6-.4l-.1-.1c-.2-.2-.4-.3-.6-.4-.6-.4-1.1-.7-1.6-1-.3-.2-.7-.4-.9-.6-3.9-2.3-1.1-3.4-.1-3.8 0 0 .6-.3 2.7-.5h.5c.4 0 .8 0 1.3-.1h.4 3c.9 0 1.8.1 2.9.1 1.2.1 2.6.1 4 .2 0-.1.2-.1.3 0z" fill="#758bb4"/><path d="m124.2 46.3c-.1 0-2.5-.3-2.5-.3-1.7-.2-5.8-1.2-7.2-2.4-.1-.1-1.2-1-1.2-2.1 0-1.3 1.1-2.6 1.6-3.2.3-.4 1.2-1.4 1.2-1.4 2.8-2.9 7.1-6.2 10.1-7.7h.1 1.2c2.6 0 5.3-.1 7.9-.1h.5s-11.2 17.2-11.7 17.2z" fill="#758bb4"/><path d="m109.7 55.6c-5.5-.3-6.3 5.4-6.1 10 0 .4-1.2 10.2-1.2 10.2-.3.2-.7.5-1.1.7h-.1c-.3.1-.6.3-1 .4-.7.2-1.6.4-2.5.6-1.9.4-3.5.8-4.9 1.2-.5.1-5.6 1.4-8 4.6-1.3 1.7-1.8 3.9-2 3.6-.7-1.3.1-3.3.5-4.5s2.1-4 5.5-6.8c4-3.2 10.2-5.2 9.9-5.5-.2-.2.2-4.8-1.4-4.1-1.3.6-2.2 2.1-3.6 3.7-1.1 1.3-2.8 2.7-4.2 3.8-2.8 2.2-6.6 3-6.8 2.9-.3-.1-.4-.2-.6-.2.1 0 .4-.1.6-.4 1.2-1.9 2.1-4.1 2.4-6 .4-2.5 1.3-10-2.3-11-2.3-.6-5.9 3.9-7.1 5.4-1.8 2.1-1.5 5.5-1.6 8.2 0 .1-.2.1-.4.1l.2-.1c-.6-2-3.7-1.9-5.3-1.5s-3.2 1.2-4.4 2.3c-.9.8-1.4 2-2.2 3-.6.8-1.3 1.3-1.5 2.3-.3 2 1.1 3.6.7 5.5-.3 1.9-1.9 3.7-.9 5.7.8 1.8 3.7 2.3 5.4 1.8.9-.3 1.6-1 2.3-1.7 1-1.1 1.1-2.1 1.1-2.1 1-.7.9 2.9 1.3 3.5-1.3 1 3.4 5 4.1 5 0 0 8.9 2.5 9.4 2.4.2 0 .5-.1.7-.1 1-.2 1.9-.5 2.9-.8.2 0 3.9-1.7 4.3-2 1.5-.9 3-2.1 4.4-3.6.3-.4.7-.7 1-1.1.1-.2.3-.3.4-.5s.2-.3.3-.4l.1-.1c.2-.2.4-.5.6-.7.6-.7 1.2-1.3 1.8-1.9.6-.7 1.3-1.2 1.9-1.6.2-.2.5-.4.7-.5.5-.3 1-.6 1.5-.8.2-.1.3-.1.5-.2.4-.2.7-.3 1.1-.4.2-.1.5-.2.7-.2 1.9-.4 12.1-26.6 11.7-26.7-1.7-.7-3.3-1.1-8.8-1.4z" fill="#758bb4"/><path d="m118 46.8c-1.6-.3-3-.5-5-1.7-1.4-.8-2.2-2.3-2.4-3-.6-2.3.9-4 1.7-5.4 2-1.9 8.3-7.6 8.3-7.6s-.7 0-1.3 0c-1.8 1.5-5.1 4.8-7.9 7.2-2.1 1.7-4.1 2.8-4.3 2.9-2.1 1.5-2.7.5-2.8.2 0 0-1.7 1.7-3.2 10.3-1.6 9.8-3.4 12.8-3.9 14.4-.4 1.1.1 1.1.9 2.6s.7 3.2.7 3.2.6-1.9.3-6.4c-.2-3.9 3.1-16.1 4.8-20.3.9-1.6 1.9-2.2 2.4-2.2 1.7.3-.8 3.1 1.5 7.9 1.8 3.8 6.4 3.8 5 3s-2.1-2.2-2.2-3.4c0-.9 0-2.1 1.8-1.8s8.9 1 15.5 1.3c6.5.3-2.8.1-9.9-1.2z" fill="#758bb4"/><path d="m105.8 33c-.9.8-1.8 1.5-2 2.2-.3.8-.1 3.5.9 3.4 1.1-.1 2.6 1 .4-1.6 0 0-.8-1.1.1-2.8.5-1 .6-1.2.6-1.2z" fill="#758bb4"/><path d="m67.1 79.8c.9-.9 1.6-2.1 2.1-3.2-.9 2.3 4.3 2.6 3.9 4.9-1.1-2.3-3.9-2.5-6-1.7z" fill="#3b455f"/><path d="m66.4 86.6c.6-.4.8-1.1 1.1-1.8.2 1.1 2.3 1.2 3.2.9 1.1-.3 2.1-1.2 2.5-2.2-.6 1.4-1.9 2.4-3.3 2.7-1.3.3-2.4-.1-3.5.4z" fill="#3b455f"/><path d="m63 88.9c.6.5 0 1.9-.6 1.3-.1-.4.6-.7.6-1.3z" fill="#3b455f"/><path d="m60.8 88.7c-.1.5-.2 1 .5 1.1-.3-.3-.2-.9-.2-.9-.1-.4-.3-.2-.3-.2z" fill="#3b455f"/><path d="m69 87.9c0-.1.1-.3.1-.4h.7c.2 1.4.7 3.5-.5 4.6-.9.8-2.3.4-3.1-.4.6-.6 1.4-1 2-1.7.5-.7.8-1.5 1-2.4z" fill="#bf2200"/><path d="m76.1 78.3c-.9-.8.1-.9.5-2.4.3-1.3 0-4 0-5.3 0-3.5.4-5.9 3.3-8.3 2.6-2.1 3.8.1 3.8 2.7 0 3.2-.7 6.9-2.5 9.6-.8 1.1-1.8 2-2.8 2.9-.6.4-2.4 2.5-2.6.9z" fill="#3b455f"/><path d="m78.3 71.9c-.3 3.7-1.2 4.1-.6 4.8 1.3.6 3.6-3.5 4.3-5 .6-1.2 2-9.5-1-7.9-2.5 1.4-2.5 5.7-2.7 8.1z" fill="#758bb4"/><path d="m59.2 61c-2.3 1.1-2.9 4.3-2.8 6.4.1 2.8 2 4.6 3.6 6.7.4.4 1.4 2 2.1 2 .4-.1 2.1-2.1 2.4-2.5.8-.8.2-1.2 0-2.3s-.4-2.5-1-3.4c-.9-1.4-3-2.7-3.6-4.2-.4-1.2.7-2.8-.6-2.5v-.2z" fill="#77839a"/><path d="m61 64.9c-.7-.8-1.3-.7-1.5.3-.1 1.6 1 3.8 1.8 5.1 1.3 2.3 4.2 4.7 3.5 2.5-.3-1-1.2-4.3-1.8-5.2-.6-.8-1-.9-1.6-1.6-.4-.5-.8-1.3-1.3-1.6z" fill="#8697bd"/><path d="m81.9 94.1c-8 5.3-12.8-3.3-11.9-2.4 1.2 1.3 3.9 7 13.2 5.6 4.3-.6 7.9-2.8 5.7-7-2.4-4.6-3.5 1.5-7 3.8z" fill="#435278"/><path d="m118.6 29.2c-.6.6-1.3 1.2-2 1.9-.2.2-1.7 1.7-3.2 3.2-.1.1-.2.2-.3.3l-1.1 1.1c-.5.5-.9.9-1.2 1.2-.1.1-.2.1-.2.2-.1.1-.1.1-.1.1h.1c.1 0 .1-.1.2-.1 1.1-.8 3.6-4 8.4-7.8-.1-.1-.3-.1-.6-.1z" fill="#8697bd"/><path d="m72.5 70.9c-1.5-.6-3.8-.2-5.1.7-1.7 1.2 1.1-.2 1.8-.2 1 0 2.3-.2 3.5 1.1 1.1 1.1 1.5.4 1.5-.3s-1.5-1.3-2-1.5z" fill="#8697bd"/><path d="m66.8 83.7c1.3-.5.4-2.4 2.1-2.9 1.6-.4 2.3.8 3.4 1.5-.9.2-.9 2-2 2.4-1.3.5-2.3-1.1-3.5-1z" fill="#fff"/><ellipse cx="60.7" cy="81.6" fill="#fff" rx=".3" ry=".5"/><path d="m68.4 89.5c.3.1.5.3.6.6-.3.2-.6.3-1 .1z" fill="#fff"/><g fill="#333"><path d="m83.6 79.8c.1-.7.3-1.6 0-2.3-.2-.6-.5-1.1-.9-1.6-.2-.3-.3.6 0 .6 1.2.1 2.2-.1 3.3-.6 3.5-1.5 6.3-4.4 8.9-7 .7-.7 1.6-2.1 2.6-2.4.8-.2.8 3.3.8 3.7 0 .3.1-.4.1-.5-.1-1.1 0-2.6-.5-3.6-.3-.8-1.5.6-1.7.9-2.8 2.9-5.7 6-9.3 7.9-1.2.7-2.7 1.2-4.1 1-.3 0-.2.2-.2.5v.3c.6.9 1.1 1.4.9 2.6 0 0 .1.5.1.5z"/><path d="m118.7 29.2c-1.5 1.3-3.1 2.6-4.5 4-1.7 1.6-3.3 3.9-5.7 4.5-.7.1-1.4-.1-1.9-.9-.6-1-.8-2.5-.5-3.6v-.1c0-.1 0-.4 0-.6 0-.1 0-.1 0-.1-.7.5-1.4 1.1-1.9 1.8s-.6 1.5-.5 2.2c0-1.2 1.3-2.4 2.3-3.1-.3 2.5.5 6.6 3.5 4.7s.8-.4 1.6-1c.8-.7 1.6-1.5 1.9-1.9 1.7-1.8 3.5-3.4 5.4-5.1.4-.3 1.1-.9 1.1-.9s-.6.1-.8.1z"/><path d="m106.3 38.2c-.7.3-1.5.2-2-.3-.3-.3-.5-.6-.6-1 .1.7.4 1.4.9 1.8-2.1 1.9-3.4 9.7-3.6 10.8-.4 2.1-.7 4.1-1.2 6.2-.7 2.7-1.9 5.2-2.5 7.8-.3 1-.1 1.9.4 2.8 0-.1.1-.5 0-.6-.6-1.2-.2-2.1.3-3.3.4-1.3.9-2.5 1.2-3.8.3-1.2.7-2.3.9-3.5.4-2 .7-4 1.1-6 .3-1.5 1.9-11.4 4.9-9.9 0 0 .3-.3.3-.5.1-.2-.1-.5-.1-.5z"/><path d="m103.7 36.9v-.1c0-.1 0-.2 0-.4z"/><path d="m135.7 48v.2h-.4c-2.9 0-5.8-.1-8.7-.4-.4 0-.7 0-1.1-.1-.5 0-1-.1-1.5-.2-.2 0-.3 0-.5-.1-.2 0-.4 0-.6-.1-.2 0-.4-.1-.6-.1-1.9-.3-3.8-.6-5.5-1.2-.4-.1-.7-.2-1-.4-.4-.1-.7-.3-1.1-.5-.1 0-.1-.1-.2-.1-.2-.1-.5-.2-.7-.4-.2-.1-.4-.3-.6-.4s-.1 0-.1-.1c-1.1-.9-1.9-2.1-1.5-3.8.6-2.6 2.6-4.9 4.4-6.7 1.7-1.7 3.5-3.2 5.4-4.7h.4c-1.9 1.5-3.7 3.1-5.3 4.7-1.8 1.8-4 4.1-4.4 6.7-.2 1.5.3 2.6 1.2 3.5 0 0 0 .1.1.1h.1c.2.2.4.3.6.4.2.2.5.3.7.4.1 0 .2.1.2.1.6.3 1.3.6 2 .8.6.2 1.2.3 1.7.5 1.2.3 2.4.5 3.6.7.2 0 .5.1.7.1s.3 0 .5.1c.2 0 .3 0 .5.1.8.1 1.6.2 2.4.2 3 .3 6 .4 9 .4h.3z"/><path d="m121.5 55.4c-.5-.3-4.4-1.7-6.8-3-1.6-.9-2-1.9-2.1-2.2 0-.2-.1-.4 0-.7 0-.2.1-.4.3-.7 0-.1.1-.2.2-.2v.3s0 .2 0 .3c0 0-.1.1-.1.2-.1.1-.2.3-.2.4v.1c.2.4 1.1 1.3 2.5 2 .9.5 5.1 2.2 6.1 2.8.3.2.4.8.1.7z"/><path d="m135.7 83.2v.5c-.1.1-.3.1-.4.2-1.7.8-3.6 1.1-5.6 1.2-1.4.1-2.8 0-4.1-.1-.1 0-.2 0-.3-.1h.1.8.1c1.1 0 2.2.1 3.3 0 1.4-.1 2.8-.3 4.1-.8.5-.2 1-.4 1.5-.7 0 0 .1 0 .1-.1.2 0 .3 0 .4-.1z"/><path d="m128.9 88.2c-4.2-.7-8.5-1.1-12.8-1.1-3.8-.1-7.8 0-11.5.7-2.8.6-6.5 1.9-8 4.5-1 1.8 1.4 3.2 2.7 3.9 2.3 1.2 4.8 1.9 7.2 3 .2.1 1.4.9 1.5.9-.4.1-.7.1-1.1.1-1.1.2-2.2.3-3.3.5-2.4.4-4.9 1-7.2 1.9-1.6.6-3.7 1.7-4.1 3.6-.1.5 0 1 .2 1.5.3 0 .5.1.8.1-2.8-1.8-5.7-3.2-9-3.8-3.8-.7-7.8-.1-11.6.6.3 0 .6.1.8.1 2.3-2.3 2.6-4.9 1.6-7.9-.1-.2-.9-.1-.9-.1.9 3 .7 5.6-1.7 7.9 0 0 .7.2.8.1 3.7-.7 7.5-1.3 11.2-.5 2.9.6 5.4 2 7.9 3.5.1.1.8.1.8.1-1.1-3.3 3.1-4.9 5.5-5.6 3.2-1 6.5-1.4 9.9-1.9 0 0 .1 0 0 0-2.4-1.6-5.3-2.4-7.9-3.5-1.9-.8-5.4-2.4-3.5-5 2.8-3.7 8.6-4.3 12.8-4.5 6.6-.3 12.7.1 18.9.9.1.1.2.1 0 0z"/><path d="m69.9 91.8c2.3 5.8 9 7.1 14.5 5.7 1.9-.5 4-1.4 4.9-3.3.6-1.3.2-2.8-.5-3.9 0 .1-.1.5 0 .6 2.6 4.2-3.7 5.9-6.7 6.2-4.8.5-9.9-1.3-12.1-5.9 0 .2-.1.5-.1.6z"/><path d="m135.7 89.4v.6c-.1 0-.3-.1-.4-.1-.5-.1-.9-.2-1.3-.4-.6-.1-1.1-.3-1.6-.4-.4-.1-.8-.2-1.2-.3-.3-.1-.6-.1-.8-.2-1.8-.4-3-.6-3-.6h.7.1.5.1c.5 0 1 .1 1.6.2 1.7.2 3.4.6 5 .9 0 .2.2.2.3.3z"/><path d="m72.5 74.3c1.3.1 1.7-1.1 1.8-2.2.2-2.4-.3-4.8 1-7 1.2-2 3.2-3.5 4.9-5.1 1.8-1.6 3.5-1.4 4.6.8 1.4 2.7.7 6.1.2 9-.4 2.3-1.1 4.3-2.6 6.1-1.4 1.6-2.8 3-3.6 5-.4.9-.3 2.2-1.1 2.9-1 1-2-.8-2.1-1.6 0-.1-.1.5-.1.6.1 1.5 1.9 3 2.7 1 .5-1.3.7-2.5 1.4-3.8.8-1.4 2-2.5 3-3.7 1.5-1.8 2.1-4.1 2.5-6.3.3-1.8.6-3.7.6-5.6s-.3-3.8-1.5-5.4c-1.8-2.4-4.7 1-6 2.2-1.8 1.7-3.5 3.5-3.9 6-.3 2 .9 6.3-1.8 6.5-.1.1-.1.6 0 .6z"/><path d="m84.2 65.7v1.6c.1 2 0 3.7-1.2 5.3-.1.1-.1.1-.2.2.9-1.4 1.4-3.6 1.4-5.5-.2-3.9-.7-5.4-1.2-6 .4.3.7.8.9 1.4-.2-1.1-.6-2.3-1.7-2.5-1.1-.3-2.3 1.2-2.8 1.9-.9 1.2-1.6 2.4-2.2 3.7-.6 1.2-.6 2.7-.6 4.1 0 1.2.9 7.9-1.3 6.9 0 0-.1-.2-.6-.6-.4-.4-.9-.6-.9-.6 1.5 1.3 1.6 2.9 2.1 4.7 0 .1.3.9.3 1 1.7-2.2 3.5-4.4 5.4-6.5 1.4-1.6 2.4-3.2 2.6-5.3.1-1.2.1-2.5 0-3.8zm-7.9 12.1s-.5-.1-.5-.1c1.4-.2 1.1-4.5 1.1-5.4-.1-2.4-.2-4.6.9-6.8.6-1.2 1.3-2.2 2.2-3.1.4-.3.6-.5.6-.5 2.4-1.5 2.9 1.6 2.9 1.6.5 2.1.4 4.1-1.3 8.4-1.4 3.8-4.1 6.4-5.9 5.9z"/><path d="m84.2 65.7c0-1-.1-2.1-.3-3 .1.4.1.9.1 1.2.1.6.1 1.2.2 1.8z"/><path d="m68.3 87.2c.6.4 1.9.7 2.5.1l-.2-.1c-.1 0-.3-.1-.4 0-.2.1-.3.1-.5.2-.3.1-.4 0-.7-.2-.1-.1-.3-.1-.4-.1s-.4 0-.3.1z"/><path d="m69.7 87.7c-.2.4-.1.8 0 1.3.1.6.2 1.3.1 1.9s-.5 1.1-1 1.4c-.8.5-1.5-.1-2.2-.6-.1-.1-.8-.1-.8-.1.7 1 2.7 1.2 3.7.8 2-.8.8-3.3.4-4.7 0 0-.2-.1-.2 0z"/><path d="m78.8 86.4c-1.3 1.4-3.1 1.6-4.9 2.1s-2.6 1.8-3.8 3c0 0 .3.1.4 0 1.4-1.3 2.3-2.5 4.2-3.1 1.6-.5 3.2-.7 4.4-2-.1 0-.3-.1-.3 0z"/><path d="m80.7 78.5c.3 1.1.5 2.1 0 3.1-.1.2 0 .7 0 .8.7-1.2.6-3.2 0-4.4 0 0-.1.4 0 .5z"/><path d="m60.7 80.6c-.6.4-.6 1.4-.6 2 0 .9.2 1.9 1.1 2.4-.1 0 .2-.8 0-.9-1.2-.5-1.2-2.1-.5-3 .1 0 0-.4 0-.5z"/><path d="m66.9 83.7c1.1-.3 1.1-1.3 1.5-2.2s1.5-1 2.3-.4c.1.1 1.2 1.2 1.1 1.2-.9.3-1 2.8-2.3 2.3-1-.3-1.7-.9-2.6-.9-.7-.1-.2.1 0 0 .7.2 1.4.8 2 1 .4.1.8.2 1.2.2 1.7 0 1.4-1.9 2.7-2.5-1.3-.8-2-1.9-3.7-1.8-2 .1-1.2 2.4-2.4 3.1 0-.1.2 0 .2 0z"/><path d="m61.9 75.9c-2.9-3.4-6.8-6.9-4.9-11.8.4-1 1.2-2.7 2.5-2.6.3 0 .3.3.5 0-.2.4-.6.8-.9 1.1s-.6.7-.6 1.1c0 .1 0 .9 0 .6.2-1.3 1.9-1.7 1.6-3.3-.2-1-1.7.1-2 .3-.7.7-1.1 1.7-1.4 2.6-1.6 4.7 1.4 9.7 5.1 12.4 0 .1.2-.3.1-.4z"/><path d="m59.9 61.8c-.4 1.3.1 2.4.9 3.5.7.9 1.5 1.7 2.2 2.6 1.3 1.5 1.2 3.7 1.8 5.4 0-.1.1-.6.1-.9-.7-1.9-.7-4-2-5.6-.7-.8-3.5-3.1-3.1-4.2.2-.3 0-.7.1-.8z"/><path d="m71.8 83.1c-.2.4-.8 1.5-1.8 1.5s-1.7-.3-1.7-1.3.8-1.9 1.9-1.9c1 0 2.1.8 1.6 1.7z"/><path d="m61.3 82.8c0 1.5.2 1.5-.3 1.5-.3 0-.9-.8-.9-1.7s.3-.9.6-.9.6.6.6 1.1z"/></g><path d="m74 73.2c-.6 2.8-1.7 3.8-4.2 4.6-2.2.7-4.6 1.4-6.9 1.3-3.6-.1-.8-4.3 2.5-4.1 3.2.2 5.6.3 8.3-1.4z" fill="#3b455f"/><ellipse cx="70.9" cy="83.6" fill="#333" rx=".3" ry=".3"/><ellipse cx="71" cy="83.6" fill="#333" rx=".3" ry=".3"/><ellipse cx="70.7" cy="83.7" fill="#fff" rx=".5" ry=".4" transform="matrix(.7133 -.7009 .7009 .7133 -38.3935 73.5584)"/><path d="m62 71.3c-1.9-.7-4.1-2-5.3-3.7-1.1-1.5-.9-3.5 1-4.1 3.2-1.1 9.5.5 13.5 2.4.8.4 1.6.8 2.4 1.2.7.4.7.4.7 1.2 0 1.2.2 2.1-.2 3.2-.3.1-2.3-1.6-3.2-1.9-1.8-.6-3.7-.7-5.6-.7-.9 0-3.1-.3-3.7.8-.4.7.2.9.4 1.6z" fill="#1f5aff"/><path d="m61.6 69.8c.6-1.1 3.1-.8 4.1-.7 1.7.1 3.5.3 5.2.7 1.4.3 3.9 1.7 3.2 3.2-.3.7-1 1.1-1.7.9-2.3-.6-4.2-1.3-6.3-1.1-1.4.1-2.9-.2-3.8.8-.6.6-.4.6-.1-.3.4-1.4-.7-2.2-.6-3.5z" fill="#5a5a5a"/><path d="m70 69.3c.7.8.6 2.4.5 3.4 0 .4.1.4.4.7.2.2 1.7.4 1.9.3 3.2-1.1-1.2-3.7-2.6-4.1z" fill="#464646"/><path d="m62.8 69.2c.3.7.1-.7.5 3.8 0 .2.4 0 1-.1.7-.1 1.8 0 2-.1.5-.1-.3.2-.5-2.6-.2-1.8-1.8-1.3-3-1z" fill="#6e6e6e"/><path d="m65.2 63.8c3.3.1 6.9-.3 10 1.3-.6.8-.7 2.2-.9 3.1-.5-.3-.6-.8-1.1-1.1-1-.7-2.2-1.2-3.4-1.7-1.6-.7-2.1-.9-4.1-1.4z" fill="#3c78ff"/><path d="m63.2 63.4c-.1 0-.2 0-.4 0 2.2.3 4.2.9 6.2 1.6-1.8-.8-3.8-1.3-5.8-1.6z" fill="#333"/><path d="m65.4 63.8c3.2.1 6.6-.5 9.4 1.2.1.1.7.1.6 0-3.3-1.6-6.8-1.4-10.4-1.3-.1.1.4.1.4.1z" fill="#333"/><path d="m63.8 68.9c-.3-.8-.9-1.2-1.4-1-.5.3-.7 1.2-.5 2l.3.6c.2.2.5.3.8.3s.4 0 .5-.1c0 0 0-.1.1-.1 0 0 0 0-.1.1s-.3.2-.5.2c.1 0 .2 0 .3-.1.6-.2.8-1.1.5-1.9z" fill="none"/><path d="m64.4 70.2s-.1.1 0 0c-.1.6-.4 1-.8 1.2-.7.4-1.5-.1-1.9-1.1-.2-.2-.4-.5-.5-.8 0-.1-.1-.1-.1-.2-.6-1.2-.6-2.2-.6-2.2s-.2.6-.8 1c-.7.5-.7.2-.7.3.6 1.9 2.8 3.6 4.4 3.2.6-.3.9-.8 1-1.4z" fill="#5f5000"/><path d="m63.6 70.6s0 .1 0 0z" fill="#808080"/><path d="m63.7 68.7c-.3-.8-.9-1.2-1.4-1-.5.3-.7 1.2-.5 2l.3.6c.2.2.5.3.8.3s.4 0 .5-.1c0 0 0-.1.1-.1 0 0 0 0-.1.1s-.3.2-.5.2c.1 0 .2 0 .3-.1.6-.2.8-1 .5-1.9z" fill="none"/><path d="m136 129.8.1-6.5c-.6.1-1.1.2-1.7.2-1.6 0-3.3 0-4.8-.4-1.7-.4-3.3-1.1-4.8-1.8-4.1-1.8-8.1-4-12-6.2-1.9-1.1-17.6-10.2-17.8-10.3s-8.9-5.7-9.3-6c-.8-.5-12.7-9.4-12.8-9.5-.3.2-1.1.7-1.1.8.1.1 6.2 5.7 6.3 5.8s2.9 2 3.4 2.4c.4.3.9.7 1.3 1 1.2 1 7.8 6.3 8 6.5.1.1 9.2 7 11.4 8.5.2.1.3.2.4.3.1 0 .1.1.2.1 4.3 3.1 8.7 6.1 13.2 8.9 3.9 2.5 7.7 4.3 11.8 6.4.6-.2 5.9-.1 8.2-.2z" fill="#4d6fb7"/><path d="m136 115.8v7.5c-.6.1-1.1.2-1.7.2-1.6 0-3.3 0-4.8-.4-1.7-.4-3.5-1-5-1.7-4.1-1.8-18.1-9.7-18.1-9.7-3.3-1.9-11.8-7-11.9-7.1s-8.5-5.4-8.9-5.7c-.8-.5-10.5-7.9-10.9-8.2-.1-.1-1.7-1.4-1.8-1.5.1-.1.8-.4.8-.4s1.3 1 1.7 1.2c.5.4 1 .8 1.5 1.1.1.1.2.2.2.2l.2.2s.3.2.4.3c.2.2.4.3.5.4l.1.1c.6.4 1.1.8 1.7 1.2l.1.1c.1.1.2.2.3.2.1.1.2.2.3.2h.1c.1.1.2.2.3.2l.1.1c.1.1.2.1.2.2.1.1.1.1.2.1.1.1.3.2.4.3s.3.2.4.3.1.1.2.1c0 0 .1 0 .1.1.1.1.2.1.3.2.1.1.2.2.3.2.1 0 .1.1.2.1.4.2.7.5 1 .7 1.2.8 2.5 1.7 3.7 2.5.5.3.9.6 1.4 1 .3.2.6.4 1 .6.1 0 .1.1.2.1.4.3.9.6 1.3.9.2.1.4.2.5.3s.2.2.4.2c.1.1.2.1.3.2h.1c.1.1.3.2.4.3.2.1.3.2.4.3 0 0 .1.1.2.1 0 0 .1 0 .1.1.3.2.6.4.9.5.1.1.2.1.2.2 0 0 .1.1.2.1.1.1.2.1.3.2.5.3 1 .7 1.6 1 .4.3.9.6 1.3.8 2.8 1.7 5.5 3.5 8.3 5.1h.1c.1.1.3.2.4.2 1 .6 2.1 1.2 3.1 1.7 4.1 2.1 8.3 3.8 12.9 4.3 2 .2 4 .2 6 0 2.2-.2 4.2-.7 6.2-1.5z" fill="#334e87"/><path d="m103.5 83.4c-1-.4-8-3.2-8-3.2-.9-.4-6.3-2.4-6.3-2.4l.6-.6c.2.1 17.2 6.2 17.2 6.2l.4 1.4s-3.5-1.2-3.9-1.4z" fill="#4368b5"/><path d="m109.7 51.4s.1.1.1.1c-.1-.1-.1-.1-.1-.1z" fill="#333"/><path d="m116.8 54.9c-.4-.1-2.1-.5-3.6-1.2s-2.9-1.7-3.3-2.1c-.1-.1-.1-.1-.1-.1-.6-.5-1.1-1.1-1.5-1.7-.3-.4-.4-.7-.6-1.3-.6-1.6-.8-3.4-.7-5.1h-.1c-.1 0-.2 0-.2 0-.2 1.5 0 3.1.4 4.4-.6-.6-1.3-.9-1.9.1-1.2 1.7-1.6 4-2.1 6-.1.3-.1.6-.2.9.4-1.8.9-3.7 1.7-5.5 1.1-2.3 2.4-1.2 3.3.3.1.3.4.6.5.9 3.1 3.3 6 4.1 6.1 4.1 1 .3 2.1.5 3.2.9.7.2 1.8.6 2.5.8-1-.5-2.6-1.2-3.4-1.4z" fill="#333"/><path d="m120.1 56.1c.2.1.4.2.5.2 0 0-.2-.1-.5-.2z" fill="#333"/><path d="m102.5 56c-.2 1.1-.4 2.3-.5 3.4.2-1.6.5-3.2.9-4.8-.2.4-.3.9-.4 1.4z" fill="#333"/><path d="m102 59.4c-.1.8-.2 1.6-.3 2.4-.1 1.7-.1 3.3 0 4.9-.1-2.5 0-4.9.3-7.3z" fill="#333"/><path d="m89.4 77.7c.6-.4 1.1-.7 1.6-1 2.1-1.2 4.5-2 6.8-2.6 1.3-.3 3.6-.4 3.9-2 .3-1.5.1-3.3 0-4.8 0 1.1.1 2.3.1 3.4 0 2.8-3.9 2.7-5.9 3.2-2.7.8-5.3 2.1-7.6 3.8-2.7 2-5.1 4.9-5.1 8.4 0 .5.1 0 .1-.2.1-3.2 2.7-5.9 5.4-7.8 1.8.7 18 7.1 18.8 7.5.1 0 .1.1.2.1.3.1.5.3.8.4l.2-.9c-.4-.1-.7-.3-1.1-.5-.3-.2-15.5-6-18.2-7z" fill="#333"/><path d="m123 109.5s-5.9 2.4-7 2.9c-.8.4-1.6.7-2.4 1.2.2.1.2.2.3.2 2.1.9 4.2 1.5 6.4 2.1 1.1.3 2.3.4 3.4.5.9.1 1.7.2 2.6 0 1.4.1 2.8-.1 4.1-.4.8-.2 1.5-.4 2.2-.6h.2c.4-.1.7-.2 1.1-.3.7-.2 1.4-.5 2.2-.7v1.3c-2 .8-4.1 1.4-6.2 1.7-2 .3-4 .2-6 0-4.6-.5-8.9-2.1-12.9-4.2-1.1-.5-5.1-2.9-7.2-4.1-2.4-1.5-5.4-3.5-7.3-4.5-.7-.4-6.4-4.1-6.7-4.3 0 0-6.9-4.6-6.9-4.6s-2.5-1.7-4.6-3.3c-1.4-1.1-4.7-3.6-4.7-3.7l.4-.1 1.6 1.2c.3.2 14.2 9.4 24.8 16.1 6.2 3.9 11.4 7 11.8 7.2.2.1.4.2.7 0 2.9-1.5 10.2-3.8 9.5-4.2" fill="#3f4042"/><path d="m129.1 130.3c-.2-.1-.4-.2-.6-.3-4.1-2.1-8.2-4.3-12.1-6.7-7.3-4.6-14.2-9.6-21.1-14.7-4.6-3.4-9.1-7-13.6-10.6-3.3-2.6-6.6-5.3-9.8-8.1-.2.2-.4.4-.7.6 9.6 8.1 19.5 15.8 29.6 23.2 8.5 6.2 26.6 16.6 26.6 16.6s1.2 0 1.7 0z" fill="#404143"/><path d="m126.8 117.1s-1.9 0-2.7-.1c-1.1-.1-3.3-.5-4.4-.8-2.2-.5-6.9-2.7-7-2.8.8-.5 9.1-3.9 9.1-3.9z" fill="#44464f"/><path d="m130.3 38.6c-.1 0-.1.1-.2.1-.1-.3 0-.2.2-.1z" fill="#fefefe"/><path d="m124.1 41.7s.1 0 0 0c.1.1 0 .1 0 .2 0-.1 0-.2 0-.2z" fill="#fefefe"/><path d="m136.3 29.7v9.1l-1.8.1s-1.7-6.9-1.8-7.5c1-.6 3.4-1.7 3.6-1.7z" fill="#cbcbcb"/><path d="m136.1 114.4c-.9-5-10.7-61.5-10.7-61.5s-3.8 2.1-5.2 2.9c.1.7.4 1.3.3 2 0 0 2.1.6 3.1.8-.8.5-1.6 1-2.4 1.6-.1.2 0 .5.1.7 1.3 6 2.5 12 3.8 18 1 4.9 2 9.9 3 14.8 1.5 7.3 4.6 21.7 4.6 21.7s2.9-.8 3.4-1z" fill="#cbcbcb"/><path d="m125.2 40.9c-1.6-1-1.7-2.1-.9-3.5.8-1.6 4.5-5.1 5.3-5.4.1.4.4 1.4.4 1.4s-.5.9-.8 1.3c-.6 1 .1 5.8.4 7 0 .4-3.3-.1-4.4-.8z" fill="#7e7e7e"/><path d="m135.9 28.9h-1.8c-1.5.8-3.2 1.9-4.5 3 .1.4.3 1.4.4 1.8 0 0 .3-.2.5-.3-.2.2-.4.4-.5.7-.9 1.2-1.1 3.1.6 3.9 1.2.5 2.6.8 3.9.7 0-.4-1.2-4.7-1.7-6.8v-.1s1.2-.8 1.7-1.1c.6-.4 1.3-.7 1.3-.7z" fill="#a5a5a5"/><path d="m125.5 56.7c-1.4-.3-2.8-.6-4.3-1 .9-.6 1.7-1.1 2.5-1.5.4-.2.8-.6 1.3-.6.3 1.1.5 2.1.5 3.1z" fill="#c4711e"/><path d="m105.1 78.8c0 .1-.1.2-.1.2-.8-1.2-1.5-2.3-2.2-3.6.2 0 .3-.3.5 0-.3.2 0 .4.1.6.6.9 1.1 1.9 1.7 2.8z" fill="#cbcbcb"/><path d="m120.6 104.3c-.1 0-.2.1-.2.1-.8-1.1-1.5-2.3-2.1-3.5h.4c-.1.2.1.4.2.6.5.9 1.1 1.8 1.7 2.8z" fill="#cbcbcb"/><path d="m124.5 110.8c-.1 0-.2 0-.2 0-.8-1.1-1.5-2.3-2.2-3.5l.4.1c0 .2.1.4.2.6.7.9 1.3 1.8 1.8 2.8z" fill="#c6def1"/><path d="m112.9 91.7c0 .1-.1.2-.1.3-.8-1.1-1.5-2.3-2.1-3.5h.2c.8 1 1.4 2.1 2 3.2z" fill="#cbcbcb"/><path d="m109.1 85.3c0 .1-.1.2-.1.2-.8-1.1-1.5-2.3-2.2-3.5h.2c.8 1.1 1.4 2.2 2.1 3.3z" fill="#c6def1"/><path d="m116.6 97.8v.3c-.7-1-1.3-2.1-1.9-3.2l.2-.1c.5 1 1.2 1.9 1.7 3z" fill="#c6def1"/><path d="m101 72.2c-.1 0-.1.1-.2.1-.6-.9-1.2-1.8-1.7-2.7.1 0 .1-.1.1-.1.8.8 1.3 1.7 1.8 2.7z" fill="#c6def1"/><path d="m114.8 94.8-.2.1c-.1-.2-.2-.3-.3-.5.1 0 .3-.1.5 0-.1.1-.1.3 0 .4z" fill="#c6def1"/><path d="m99.3 69.3c-.1 0-.1.1-.2.1-.1-.1-.1-.2-.2-.4h.3c.1.1.1.2.1.3z" fill="#c6def1"/><path d="m101.2 72.4c0 .1-.1.1-.1.2-.1-.1-.2-.2-.2-.3.1 0 .1-.1.2-.1 0 .1 0 .1.1.2z" fill="#c6def1"/><path d="m130.3 38.6c-.1 0-.1.1-.2.1-.1-.3 0-.2.2-.1z" fill="#fefefe"/><path d="m124.2 41.8c-.1 0-.1 0 0 0-.1-.1 0-.1 0 0z" fill="#fefefe"/><path d="m99.4 69.4c-.1 0-.1.1 0 0-.1 0-.2 0-.2-.1.1 0 .1-.1.2-.1-.1.1-.1.2 0 .2z" fill="#c6def1"/><path d="m130.7 37.7c-.3-.1-1-.6-1.2-1.2-.2-.7 0-1.4.3-1.8.1-.2.6-.8.7-.9.7-.7 1.9-1.7 2.4-2 1-.6 3.3-1.7 3.4-1.8v-.6s-.1 0-.3.1c-.8.3-1.6.6-2.4 1.1-.3.2-1.2.7-1.9 1.3-.9.7-1.7 1.4-1.7 1.4s-.8 1-1 1.3c-.6 1-.7 1.9-.3 3.4.3 1.5.8 3.6.8 3.7s-.2.1-.3.1c-1-.2-1.9-.3-2.8-.6-.8-.3-1-.4-1.7-1.1-.5-.5-.5-1.2-.4-1.6 0-.1.2-.6.3-.8.6-1.2 1.4-2.2 2.4-3.1.3-.3 3.1-2.9 5.2-4.1.5-.3 1.8-1.1 2.3-1.4h-2.9c-1.2.7-2.8 2-3.9 2.9-1.7 1.3-3.2 2.8-4.3 4.6-.2.3-.3.6-.4.9-.2.7-.3 1.4-.2 2 0 .2 2.3 12.3 2.3 12.4.1.4 0 .6-.3.9-.4.2-5 2.9-5.2 3-2.1 1.2-8.4 4.9-9.4 5.5-.2.1-3.7 2.1-5.2 3-.7.4-7.1 4-7.5 4.3 0 0 21.7 36.6 24.4 41.2.1.2.2.4.4.6 1.2 2 3.6 6.1 3.7 6.3 0 0 1.6-.1 2.8-.3 1.9-.4 3.9-1 3.9-1l-12.1-58.6c.1-.1.3-.2.4-.2.2-.1.3-.2.5-.3.3-.2.5-.3.8-.5.1-.1.2-.1.2-.2 0 0 0 0 .1-.1 0 0 .1 0 .1-.1.1 0 .1-.1.2-.1.3-.2.6-.3.8-.5.1-.1.2-.1.4-.2.1 0 .1-.1.2-.1.3-.2.6-.3.8-.5h.1c.4-.2.1-.1.2.3.1 0 10.3 57.5 10.8 60.1 0 0 .5-5.5.7-25.9v-49.8s-1.7 0-3-.2c-1.6-.2-2.6-.6-3.2-.8z" fill="#fdfdfd"/><path d="m117.4 62.4c-1.2.7-3.5 2.2-3.5 2.2s-3.4-.8-5.2-1.2c.6-.4 3.8-2.2 3.8-2.2s3.8.9 4.9 1.2z" fill="#fd9827"/><path d="m101.8 67.2 4-2.1s3.4.9 5.1 1.3c-.7.4-4.4 2.1-4.4 2.1z" fill="#3998b8"/><path d="m99 69 5.3 1.2s1.5 2.6 2.2 3.6c-1.9-.5-5.3-1.4-5.3-1.4z" fill="#3998b8"/><path d="m124.5 110.8c-.6-.9-1.9-3.1-2.1-3.5 1.6.4 5.1 1.3 5.1 1.3s1.5 2.4 2.2 3.6c-1.8-.5-3.5-1-5.2-1.4z" fill="#3998b8"/><path d="m112.9 91.7-2.2-3.6 5.2 1.7s1.4 2.2 2.1 3.4c-1.7-.6-5.1-1.5-5.1-1.5z" fill="#fd9827"/><path d="m109.1 85.3-2.2-3.6 5.6 1.4 2 3.7z" fill="#3998b8"/><path d="m114.4 94.3 5.3 1.3s1.5 2.4 2.2 3.6c-1.9-.6-5.3-1.5-5.3-1.5z" fill="#3998b8"/><path d="m105.1 78.8-2.2-3.4 4.9 1.2s1.8 2.6 2.5 3.7c-1.8-.6-5.2-1.5-5.2-1.5z" fill="#fd9827"/><path d="m120.6 104.3c-.6-1-2.1-3.5-2.1-3.5l4.8 1.1s1.8 2.9 2.3 3.7c-1.7-.4-3.3-.9-5-1.3z" fill="#fd9827"/><path d="m131.8 115.5-.5-.6-5.1-1.3s1 1.8 1.5 2.5c1.3-.2 4.1-.6 4.1-.6z" fill="#fd9827"/><path d="m120.8 57.9.5 2.3-1.3.7-4.9-1.4 3.5-2.2z" fill="#3998b8"/><path d="m120.8 57.9s1.8.5 2.9.7c-.8.5-2.4 1.6-2.4 1.6z" fill="#297387"/><path d="m113.1 24h24.7v5.1h-24.7z" fill="#f9f9f9"/><path d="m22.4 44.1c.7.7 1.3 1.4 1.9 2.2-.6-.2-1.2-.3-1.9-.5 0-.6 0-1.2 0-1.7z" fill="#e4e4ef"/><path d="m22.6 79.6c2.9-.4 5.9-.4 8.8-.3-.1 10.6 0 21.2 0 31.8.1 8-.2 15.9 0 23.9.5 0 110.1.1 110.1.1s6.4 3.1 9.2 5c-1.9.4-3 2.1-3.3 3.9h-3.6c-.2-1-.4-2-1.2-2.7-1.4-1.5-4.1-1.6-5.5-.1-.8.7-1.1 1.8-1.3 2.9h-3.8c-.2-1.1-.6-2.2-1.5-3-1.5-1.4-4-1.3-5.4.2-.8.7-1 1.8-1.3 2.8h-3.6c-.2-1-.4-2-1.2-2.8-1.4-1.5-4.1-1.5-5.6-.1-.8.7-1.1 1.8-1.3 2.8h-3.7c-.2-1.1-.6-2.3-1.5-3-1.6-1.4-4.2-1.1-5.5.5-.6.7-.8 1.6-1 2.5h-3.7c-.3-1-.5-2.1-1.3-2.8-1.5-1.5-4.1-1.5-5.6 0-.8.7-1 1.8-1.3 2.8h-3.6c-.2-1-.5-2.2-1.3-2.9-1.5-1.4-4.1-1.3-5.5.2-.7.7-1 1.7-1.1 2.7h-3.7c-.2-1-.5-2.1-1.3-2.8-1.5-1.5-4.1-1.5-5.5.1-.8.7-1 1.8-1.2 2.8h-3.6c-.2-1-.4-2-1.2-2.7-1.4-1.5-3.9-1.6-5.4-.2-.9.7-1.2 1.9-1.5 2.9h-3.7c-.1-1.8-1.4-3.5-3.2-3.8-2.4-.6-4.8 1.4-4.8 3.8h-3.7c-.3-1-.6-2.2-1.5-2.9-1.5-1.4-4-1.3-5.4.1-.8.7-1 1.8-1.3 2.8h-3.6c-.2-1-.4-2-1.2-2.7-.7-.8-1.9-1.1-2.9-1.3 0-1.4 0-2.7 0-4.1 1.1-.2 2.2-.5 3-1.4 1.5-1.5 1.3-4.2-.3-5.6-.7-.7-1.8-.8-2.7-1.2-.1-1.2 0-2.3 0-3.5 1-.2 2.2-.5 2.9-1.4 1.4-1.4 1.4-4 0-5.4-.7-.9-1.9-1.1-3-1.4 0-1.2 0-2.4 0-3.6 2.2-.1 4.2-2 4-4.2 0-2.1-2-3.7-4-3.8 0-1.2 0-2.4 0-3.6 2.1-.1 4.1-1.9 4-4.1 0-2.2-1.9-3.8-4-3.9 0-1.2 0-2.4 0-3.6 1-.2 2.2-.5 2.9-1.4 1.5-1.5 1.4-4.2-.2-5.6-.7-.7-1.7-.9-2.6-1.1.3-.7.3-1.2.3-1.6z" fill="#95949b"/><path d="m31.4 79.3c1.2 0 2.4.1 3.6.2.7.5 2 1.3 2 1.3-.1 13.1.1 26.3.1 39.5 0 3.2-.1 6.3.1 9.5h95l9.3 5.3s-109.6-.1-110.1-.1c0-18.5 0-37.1 0-55.7z" fill="#a2a1a1"/><path d="m68.9 105.4c.4-.3.9-.2 1.3-.2.4.9.5 1.9.4 2.9-.2.1-.5.3-.6.3v1c-.4-.1-.7-.2-1.1-.3-.2-1.2-.2-2.5 0-3.7z" fill="#555660"/><path d="m76 108c.1-.9.1-1.8.4-2.7.1.9.3 1.8.5 2.6-.3 1.4 0 2.9.4 4.2-.5.5-1 1-1.8.9-.1-.8 0-1.6.1-2.3 0-.8-.1-1.5.1-2.3-.1-.1-.4-.2-.6-.2.4 0 .8-.2.9-.2z" fill="#555660"/><path d="m68.7 112.1c.5 0 1.1.1 1.6.2.2.7.6 1.3.8 2-.4 1.2-1.4 1.9-2 2.9-.5-.5-.8-1.1-1.1-1.7 1.3-.6.4-2.3.7-3.4z" fill="#555660"/><path d="m74.3 68.8c0-.2.1-.9-.1-1.1-.6-.7-1.6-1.1-2.3-1.5-.9-.5-1.9-.9-2.8-1.2 1.1.4 2.2 1 3.2 1.6.2.1 1.2.6 1.3 1 .1 1.2.1 2.4 0 3.5-1.6-1.5-3.8-2-5.9-2.3-1.2-.2-2.3-.2-3.5-.1-1 0-2.7 0-3.2 1 .4.3.6.8.7 1.4-2.2-.9-4-1.9-5.2-4-.9-1.5-.3-2.6 1.2-3.3 1.7-.7 3.4-.6 5.1-.4-.1 0-.2 0-.3-.1-2.1-.3-7-.6-7.2 2.5-.1 1.4 1.7 3.1 2.7 3.9s2.4 1.2 3.5 1.6c0 0 .1.1.3.1.1.4.1.7.1 1 .1 1.1-.8 1.7-1.5 2.4-.8.9-.5 1.5 0 1.9.1.2.3.4.6.5-.2.2-.3.5-.3.7-.2.9 0 1.9 0 2.9 0 .5.1.8.3 1.3.8 1.4-.1 3-.7 4.3-2.6-1.7-5.7-2.7-8.5-3.5-4.7-1.5-9.6-2.5-14.5-3.1-.9-.2-2.8-.5-2.8-.5-.6-.1-6-.6-6-.6-2.7-.2-5.2-.3-6.9-.9-.1-.1-.1-.1-.2-.1h-.1-.1c-.1 0-.1 0-.1 0-.6-.3-1.2-.7-1.5-1.2-.2-.5.4-2.2 1.4-4.1.1-.2.2-.4.3-.6 2.7-4.2 5-8.6 5.7-13.3-1.5 8.4-8.8 16.6-13.4 22.9-.1.2 0 .6 0 .7.1-.1.1-.2.2-.2 0 .1-.1.1-.1.1h.1s.1-.1.2-.1c1.7-.9 3.6-1.4 5.6-1.8.2-.1.3-.1.4-.1.1-.1.3-.1.4-.1h.1c.2 0 .5-.1.8-.1 2.6-.4 5.3-.5 7.7-.5h.1.6.6c.8 0 5.6.4 7.1.6 4.7.7 9.2 1.6 13.8 3 3.2.9 6.3 2.1 8.9 4 0 .1-.1.2-.1.3-.3 1-.2 2.1.2 3 .8 2 3.6 2.3 5.4 2 2-.3 3-2.4 3.6-4.1.1-.2 0-.6 0-.7-.5 1.7-1.4 3.4-3.2 4-1.7.6-3.8 0-5.1-1.2-1.9-1.8.3-4.3.5-6.4.1-.9 0-1.9-.5-2.7-.2-.3 0-.8 0-1.2 0-.1 0-.1 0-.2-.1-1 .1-1.6.7-2.3h.1c.7.3 1.8.3 2.7.3h.7c.8-.1 2.9-.3 4.8-1 .5-.2.9-.3 1.3-.5.9-.3 2.1-1 1.9-2 .5-.1.8-.4 1-1 .2-.5.2-1.1.2-1.7.1-.9.1-1.8 0-2.7zm-12.5 1.3c-.6-.9 3.6-1 3.9-1 2.5.2 4.5.2 6.4 1.5-2.2-.6-5 .5-6.8 1.8-1 0-2 .1-2.8.4 0-.2 0-.4-.1-.7 0-.6-.1-1.4-.6-2zm11.2 3.7s0-.1-.1-.1c-.3-.4-2.2-.6-2.7-.6-.9-.2-2.3-.5-3.7-.6 2.1-1.1 5.3-2 7.1-.4-.1.7-.3 1.4-.6 1.7z" fill="#333"/><path d="m27.2 53.9c.1 1.5 0 3.1-.2 4.6.3-1.5.4-3 .2-4.6z" fill="#333"/><path d="m4.6 35s-.1.5 0 .5c7.8 2.2 16.5 5 20.7 12.4 1.1 2 1.7 4 1.9 6-.1-1.2-.3-2.4-.6-3.6-2.6-9.3-13.3-13.4-22-15.3z" fill="#333"/><path d="m92 109.6c.1 1.6 0 3.1 0 4.7l-1.1-2.2c0-.9-.2-1.8.2-2.6-.2-.3-.3-.6-.4-.9-1.2-.6-2.3-1.2-3.5-1.8 0 .5 0 .9-.1 1.4l-1.8-.7c0-.7.2-1.5.2-2.3-.8-.4-2-.2-2.8 0-.1.4-.1.7-.1 1.1l-1-.4s-3.1-2.6-3.3-2.6c-.1 0-1.9.3-3.3.6 0-.3 0-.5 0-.8-.1.3-.2.6-.4.9-.8.1-1.3.3-1.3.3l-.2-.1c1-1.3 1.7-2.9 2.1-4.5-.8-.1-1.6-.4-2.4-.3 0 0 0 0-.1 0-.2-.3-.4-.6-.4-.6l-1.8-1.4-2.5-.4c-7-3.7-28-14.7-31-16.2-.1 13.2.1 26.4.2 39.6.1 3.2-.1 6.3.1 9.5 29.9 0 59.8-.2 89.7-.1-7.7-3.9-32.3-18.8-35-20.2z" fill="#555660"/><path d="m43.3 99.4c.2-.4.5-.9 1-.9 1.4 0 2.8-.1 4.2 0 .5.1.4 1 0 1.2-1 .3-2-.6-3-.2-.7.2-1.3.6-1.8 1.1.7 1.6.7 3.5 0 5 .8 0 .5.8.5 1.3-.2 1.8.3 3.7-.2 5.4-.3-.3-.7-.5-1-.9-.1-.6.1-1.3.3-1.9-.2-.4-.6-.8-.4-1.3.3-1.4-.2-2.9 0-4.3.1-1.4.2-3 .4-4.5z" fill="#ffca05"/><path d="m51.5 98.5c.8-.3 1.7 0 2.5.2 1.4-.5 2.8-.4 4.3-.4 1.7 0 3.3-.1 5 .3 1.4-.6 2.8-.2 4.2 0 1-.2 2.1-.4 3.1-.3 1.4.1 2.9 0 4.3 0 .7 0 1.5.1 2.2.1.6 0 1.3 0 1.9-.1h.5c.5 0 1-.1 1.5-.1h1.2c1.1 0 2.2.3 3.3.3.5-.1.9-.2 1.4-.2h.9c.3.2.6.3.9.5 1 0 2 0 3-.2.6.7.5 1.6.4 2.5v.6c0 .4.1.8.1 1.3v2.8c-.1.2-.4.5-.5.7.1.2.3.5.5.7-.1.7-.2 1.3-.3 2l.3.1c.1 2.9-.3 5.7 0 8.7-.1 1.5.4 3.1-.5 4.4.1.3.2.6.3.9-.4.3-.7.5-1.1.7-.3-.2-.6-.5-1-.7 1.4-1.1.5-3.1 1.2-4.5-.4-.9-.5-2 .1-2.8-.1-.1-.3-.4-.4-.6.2-.6.3-1.3 0-1.9.4-1.3-.2-2.7.3-4-.1-.3-.3-.6-.4-.9.2-.7.3-1.4.2-2.1-.1-.6-.1-1.2-.2-1.8 0-.9 0-1.8.2-2.7s-.1-1.8-.4-2.6c-.5 0-1 .1-1.5.1-.1.1-.4.2-.5.2-.4-.1-.8-.2-1.2-.3-1 .1-2 .2-3.1.2-.7-.2-1.4-.4-2.1-.2-2.1.3-4.2.1-6.3.2-.2 0-.5 0-.7 0-.8-.1-1.6-.3-2.4-.3-2 .2-4 .2-6 .2-4.9-.1-9.9.1-14.8-.1-1 0-2.5.6-2.8-.8.9.2 1.6.2 2.4-.1z" fill="#ffca05"/><path d="m55.9 100.8c.6.2 1.3.3 1.8.7.2.7 0 1.5.1 2.3.3 2.4-.1 4.9-.1 7.3-.2.9-.1 1.9 0 2.8-.1.9-.1 1.7.1 2.6-.1 1.1-.4 2.3-.2 3.4-1.5.7-2.4-1.5-1.4-2.5-.6-1.7-.6-3.5-.1-5.2-1-.5-1.8.2-2.3 1 .1 1.2.6 2.5-.2 3.6.6 1 .6 2.4.2 3.5-.5.1-1.1 0-1.6-.1-.5-.5 0-1.2.2-1.7.1-.5.1-1 .1-1.6-.2-.1-.5-.3-.6-.4.2-.7.6-1.3.7-1.9-.1-.6-.4-1.1-.5-1.7 0-3.5.2-6.9.2-10.4.7.1 1.3.6 1.8 1 .1 1.8 0 3.6 0 5.4.3.3.5.7.8 1 .4-.6 1.2-1.1 1.1-1.9-.3-2.4-.1-4.8-.1-7.2z" fill="#ffca05"/><path d="m49.6 102.2c.6.2 1-.6 1.5-.4.9.9.5 2.2.4 3.3-.5.1-.9.2-1.4.3.2 1.7-.7 3.5-.2 5.2 0 1.6.2 3.1 0 4.7-.2 1.7.2 3.5.2 5.2-.7-.1-1.6 0-2.1-.7-.2-1.5.2-3 0-4.5-.2-1.1.4-2.2 0-3.4-.2-.8 0-1.5.1-2.3-.3-1.2-.1-2.4-.2-3.7-.3 0-.9.1-1.2.1-.3-.7-.1-1.4.2-2.1-.3-.4-1-1.4-.1-1.4 1.1.3 1.8-.5 2.8-.3z" fill="#ffca05"/><path d="m75.1 103.2c.1-.6.3-1.1.6-1.6.4.3.8.6 1.2.9.4-.1.8-.1 1.3-.2.2.5.3 1 .4 1.5 0 2.8.2 5.5.6 8.3 0 2.6.6 5.2.8 7.8-.6.3-1.3.5-1.9.8-.3-1.7-.4-3.5-.7-5.2-1 .3-1.9.7-2.6 1.4.2.3.3.6.5.9-.2 1.3 0 2.6-.6 3.7-.2-.1-.5-.4-.6-.6-.2 0-.6-.1-.8-.1.2-1.2.3-2.5.4-3.7 0-2 .8-3.9.7-6-.1-1 .4-1.9.8-2.7-.7-1.6 0-3.4-.1-5.2m1.2 5c-.2.1-.5.2-.7.2.1.1.4.2.6.2-.2.7-.1 1.5-.1 2.3-.1.8-.2 1.5-.1 2.3.7 0 1.3-.4 1.7-.9-.4-1.4-.7-2.8-.4-4.2-.3-.8-.4-1.7-.5-2.6-.4.9-.4 1.8-.5 2.7z" fill="#ffca05"/><path d="m83.2 101.7c.3.2.6.5.9.7 0 .8.2 1.7.5 2.5 1.1-.4.6-1.8 1-2.6.3-.5.9-.3 1.4-.3.2.2.5.4.7.6-.1.8-.2 1.6-.3 2.4-.1.7-.1 1.4-.1 2 .1 1.5-.6 2.9-.4 4.3.1 1.4.1 2.8-.1 4.1-.5-.4-1.5-.7-1.5-1.5-.2-2.8-.1-5.7-.1-8.7-.8-.4-1.6-.2-2.4 0-.5 2.2.1 4.3 0 6.5-.3.2-.5.4-.8.6.3.4.5.8.8 1.2-.1 2.2-.1 4.5 0 6.7-.7 0-1.6.1-2-.6-.2-1.7 0-3.5.2-5.2 0-1.3-.4-2.7-.2-4 .3-1.5 0-3 0-4.5-.4-.2-1-.2-1.3-.6-.2-.4-.2-.9-.3-1.4 0-.5 0-.9 0-1.4.5-.1 1-.2 1.5-.4.4-.1.9-.3 1.3-.4.1.2.4.5.5.7.3 0 .5-.4.7-.7z" fill="#ffca05"/><path d="m59.2 102.4c.5.1.9.3 1.4.4.5-.3 1.1-.4 1.7-.2.2-.1.5-.3.6-.3.3 1 .5 1.9.3 2.9-.9.3-1.9.5-2.6 1.2-.3.7-.2 1.5-.1 2.2.5 1 1.7.4 2.5.3.3 1.1.4 2.3.4 3.4-.9.2-1.9.2-2.8.2.7 1.4.2 3 .2 4.5.7-.2 1.5-.4 2.2-.6.2.5.4 1 .7 1.5-.2 0-.6.1-.8.1.2.4.4.9.3 1.4-.7.1-1.5.2-1.9.9-.9.9-2.5-.2-2.3-1.4.1-2.2-.1-4.4.1-6.6 0-.9 0-1.8.4-2.7-.1-.3-.3-.6-.4-1 .7-.7.2-1.5.3-2.3.2-1.3-.7-2.6-.2-3.9z" fill="#ffca05"/><path d="m67.5 102.7c1.1-.2 2.3-.6 3.4-.1 1.2 1.2 2.1 3 1.7 4.7 0 .2.1.5.2.7-.1 1.2-.8 2.2-1.8 2.8 2.2.8 2.3 3.5 2.3 5.5.1.9-.7 1.2-1.3 1.7.5 1.3-1 1.9-2 2.2-.9.2-2.2.8-2.8-.2-.2-1.5-.1-3.2.4-4.7-.6-1.2-.8-2.8-.1-3.9-.1-.5-.6-1.2.1-1.5-.6-1.9-.4-3.9-.4-5.8-.3-.6 0-1 .3-1.4m1.7 2.9c-.2 1.2-.2 2.4-.1 3.7.4.1.7.2 1.1.3 0-.2 0-.7 0-1 .2-.1.5-.3.6-.3.1-1 0-2-.4-2.9-.3.1-.8 0-1.2.2m-.3 6.7c-.3 1.1.6 2.7-.7 3.4.3.6.6 1.2 1.1 1.6.6-1 1.6-1.7 2-2.9-.2-.7-.6-1.3-.8-2-.5 0-1 0-1.6-.1z" fill="#ffca05"/><path d="m42.9 112.6h1c.7 1.4.1 3 0 4.5-.2 0-.7-.1-1-.1.2-1.5 0-3 0-4.4z" fill="#ffca05"/><path d="m85.5 116.6c.5.1 1 .2 1.3.7.8.7.4 1.8.3 2.7-.5.2-1 .4-1.5.6-.9-1.1-.3-2.7-.1-4z" fill="#ffca05"/><path d="m43 117.9c.3-.2.6-.4.9-.5.4.6.4 1.2 0 1.8.7 1.1.3 2.5.1 3.6 2.2.4 4.4-.2 6.6.3 1.6-.1 3.5-.8 4.9.2.5-.3 1.1-.4 1.7-.2 1.8-.5 3.7-.1 5.6-.2.9-.1 1.7.2 2.5.5.5-.5 1.5-.8 1.8 0-.6.8-1.8.6-2.7.7-1.5.1-3.1.2-4.7-.1-.2.1-.5.2-.6.2-.2-.1-.5-.3-.7-.3-1.9.7-3.9 0-5.9.3-1.8-.2-3.7.3-5.5-.1-1.1.3-2.4.3-3.5-.2-.6-.4-.1-1.2-.5-1.8 0-1.3-.2-2.8 0-4.2z" fill="#ffca05"/><path d="m67.2 123.9c.1-1.4 1.6-.8 2.5-.8 1 .2 2-.4 3-.1.5.5-.2.9-.6 1.2-.9.3-1.9 0-2.9-.1-.6.2-1.3.3-2-.2z" fill="#ffca05"/><path d="m74.2 123c1.2.2 2.4-.3 3.6.2 1.2-.5 2.5.1 3.7-.1 1.1 0 2.1 0 3.2.1.6-.3 1.3-.1 1.9.2.1-.1.2-.3.2-.4.9 0 1.7.1 2.6 0 .2.3.4.5.6.8-.6.1-1.3.3-1.9.4-.9-.2-1.8-.1-2.7.1-.7-.8-1.8-.7-2.6 0-.5 0-.9 0-1.4 0-.1-.1-.4-.3-.6-.3-.7.5-1.5.2-2.3 0-1.6.5-3.4.1-5.1.3-.1-.6.3-1.1.8-1.3z" fill="#ffca05"/><path d="m90.6 76.8c.1-.1 14.7 5.2 14.7 5.2l.7 1-16.1-5.8z" fill="#38496f"/><path d="m64.4 70.9c1.1-1.3 1-3.8 1-4.2h-.8c.4 1.2.3 2.3 0 3 0 .4 0 .8-.2 1.2z" fill="#5f5000"/><path d="m62.2 70.5c-.1-.2-.2-.3-.3-.6-.3-.8-.1-1.7.5-2 .5-.3 1.2.1 1.4 1 .3.8.1 1.7-.5 2-.1.1-.2.1-.3.1-.4 0-.9-.1-1.3-.6.4 1 1.2 1.5 1.9 1.1.4-.2.6-.6.7-1.2.1-.5.1-1-.1-1.6-.4-1.1-1.3-1.7-2-1.4-.6.3-.9 1.3-.7 2.2.2.4.4.7.7 1z" fill="#5f5000"/><path d="m64.3 70.8c1.1-1.3 1-3.8 1-4.2h-.8c.4 1.2.3 2.3 0 3 0 .4-.1.8-.2 1.2z" fill="#dfd000"/><path d="m64.2 70.1c-.1.6-.4 1-.8 1.2-.7.4-1.5-.1-1.9-1.1-.2-.2-.4-.5-.5-.8 0-.1-.1-.1-.1-.2-.5-1.2-.5-2.2-.5-2.2s-.2.6-.8 1c-.7.4-.7.2-.7.3.6 1.9 2.8 3.6 4.4 3.2.6-.3.8-.8.9-1.4z" fill="#dfd000"/><path d="m62.1 70.3c-.1-.2-.2-.3-.3-.6-.3-.8-.1-1.7.5-2 .5-.3 1.2.1 1.4 1 .3.8.1 1.7-.5 2-.1.1-.2.1-.3.1-.4 0-.9-.1-1.3-.6.4 1 1.2 1.5 1.9 1.1.4-.2.6-.6.7-1.2.1-.5.1-1-.1-1.6-.4-1.1-1.3-1.7-2-1.4-.6.3-.9 1.3-.7 2.2.2.5.4.8.7 1z" fill="#dfd000"/></svg>