<svg height="512" viewBox="0 0 512 512" width="512" xmlns="http://www.w3.org/2000/svg" xmlns:xlink="http://www.w3.org/1999/xlink"><defs><linearGradient id="a" x1="50%" x2="50%" y1="100%" y2="0%"><stop offset="0" stop-color="#420c5d"/><stop offset="1" stop-color="#951ad1"/></linearGradient><path id="b" d="m25 29c127.577777 0 231 102.974508 231 230s-103.422223 230-231 230z"/><filter id="c" height="114.8%" width="129.4%" x="-18.2%" y="-7.4%"><feOffset dx="-8" dy="0" in="SourceAlpha" result="shadowOffsetOuter1"/><feGaussianBlur in="shadowOffsetOuter1" result="shadowBlurOuter1" stdDeviation="10"/><feColorMatrix in="shadowBlurOuter1" type="matrix" values="0 0 0 0 0.250980392   0 0 0 0 0.250980392   0 0 0 0 0.250980392  0 0 0 0.2 0"/></filter></defs><g fill="none" fill-rule="evenodd"><circle cx="256" cy="256" fill="#f2e4ff" fill-rule="nonzero" r="246"/><path d="m256.525143 465.439707v-31.033098c98.301048-.283861 177.895659-80.041692 177.895659-178.413706 0-98.364916-79.594611-178.1227472-177.895659-178.4066082v-31.0330986c115.439153.2909575 208.921661 93.9366858 208.921661 209.4397068 0 115.510119-93.482508 209.162943-208.921661 209.446804zm0-108.619393c55.44514-.290958 100.323557-45.304208 100.323557-100.827411 0-55.516105-44.878417-100.529356-100.323557-100.820313v-31.026002c72.590342.283861 131.356656 59.192105 131.356656 131.846315 0 72.661308-58.766314 131.569552-131.356656 131.853413zm0-155.101625c29.741531.283861 53.777457 24.461718 53.777457 54.274214 0 29.819594-24.035926 53.99745-53.777457 54.281311zm-256.525143 54.274214c0 141.391141 114.60886 256.007097 256 256.007097 141.384044 0 256-114.615956 256-256.007097 0-141.384043-114.615956-255.992903-256-255.992903-141.39114 0-256 114.60886-256 255.992903z" fill="url(#a)"/><g transform="matrix(-1 0 0 1 281 0)"><use fill="#000" filter="url(#c)" xlink:href="#b"/><use fill="url(#a)" fill-rule="evenodd" xlink:href="#b"/></g></g></svg>