<svg enable-background="new 102.6 59.2 594.9 481.6" height="594.86456" viewBox="102.6 59.2 594.86454 594.86456" width="594.86456" xmlns="http://www.w3.org/2000/svg" xmlns:xlink="http://www.w3.org/1999/xlink"><linearGradient id="a" gradientUnits="userSpaceOnUse" x1="469.541854" x2="469.541854" y1="516.858622" y2="237.560482"><stop offset="0" stop-color="#482957"/><stop offset="1" stop-color="#c19ed3"/></linearGradient><g transform="translate(.182281 56.601775)"><g><path d="m376.8 517.1c-2.8-.3-5.6-.8-8.4-1.5-.6.2-1.3.4-2.1.4-8.3-.2-15.7-2.5-23.4-5.1-7.2-2.4-14.2-4.9-20.1-9.7-1.2-1-1.7-2.1-1.7-3.2-2-1.5-4-3-6.1-4.4-4.5-2.9-9.1-5.7-13.3-8.9-4.4-3.3-8.2-7-11.3-11.6-3.3-4.9-5.2-10.6-8.3-15.7-5.4-8.7-10.6-18.2-13.7-28.1-5.1-7.9-7.3-19.7-3.3-24.4.1-3.7.4-7.4 1-11.1v-18.3c0-1.8.7-3 1.8-3.8-.8-.8-1.3-2-1.2-3.5.6-6.8 3.6-12.2 7.7-17.5.3-.4.6-.7 1-1.1.2-.4.4-.8.7-1.3.4-.8.9-1.7 1.4-2.4-4.8-3.8-10.5-7.1-13.7-9.6-4.9-4-9.4-15.2-11-23.9-1.6-8.8 2.9-13.3 6.6-19.2 3.8-5.9-9.7-1.3-12.9.9s-4 2.8-5.9 4.3c-4.6-8.6-12.4-24.3-14.7-44.5s-.9-53.5 1.6-60.6c2.6-7.1 14.3-46.8 15.7-52s-.2-1.1-4.1.4-23.2 28.5-31.5 54.6c-1.7 5.3-3.4 11.5-4.8 18.3-.2.8 3.4 6.2 3.3 7-.2.8-4.1-2.9-4.3-2-.5 2.7-1 5.6-1.5 8.5-.1.5 5.6 4.9 5.6 5.4-.1.5-5.9-3.1-6-2.6-2.1 15.3-2.8 32-.6 47.5.1.5 5.9 2.3 6 2.8s-5.6-.4-5.6-.1c1.2 6.6 3 12.9 5.4 18.9-.2.3-.6.8-.7 1s-.1.1-.1.1c-4.9-8.7-22.6-44.7-22.8-89.7s13.8-104.2 20.6-120.6c7.1-17 10.4-24 14.4-30.3 2-3.3-4.7.5-9.2 5.1-4.7 4.7-9.9 9-17.2 22.9-6.3 12.5-15.1 30.9-22.4 53.5-.2.5 4.7 5.8 4.5 6.4-.2.5-5.4-3.7-5.6-3.2-8 26.8-14.2 59.4-12.6 95.2.2 5.4.8 10.5 1.4 15.4.1.6 8.6 2.4 8.7 2.9.1.6-8.3-.1-8.2.4 8.2 44.8 27.8 70.6 34.6 78-.5-.1-.6-.2-1.2.1s-.4 2.6.5 5.2c-8-8.3-23.5-24.6-34.4-51.3-5-12.2-10.7-28.1-14.3-44.9-5-26.3-6.5-54-4.9-67.9 2.9-22.8 7.1-34.2 2.8-28.9-3.8 4.7-14.5 21.9-18.7 51.7 0 .3 4.3 4.6 4.2 4.9 0 .3-4.4-3.5-4.5-3.2-.2 1.7-.4 3.4-.6 5.2 0 .3 4.5 3 4.5 3.3 0 .4-4.7-1.6-4.7-1.2-.1.7-.2 1.4-.2 2.1-1.5 21.7-.4 52.9 10.9 89.2.1.2 7.8 1.2 7.9 1.5.2.5-7.3.3-7.1.8 3.3 8.9 7.5 17.9 12.5 27.2.2.3 7.1.6 7.3 1 .3.5-6.2 1-5.9 1.5 1.2 2 2.5 4.1 3.8 6.2.2.3 9.1 0 9.3.3.3.4-8.2 1.4-7.9 1.9 7.5 11 16.5 22.2 27.1 33.4.5 1.6 1.1 3.3 1.6 4.9-12.3-7.9-34.7-24.9-45-43.4-10.4-18.5-21-52.3-21.5-61.9-.6-9.6-7-.2-9.2 13.8-1.4 8.8 1.1 27 6.6 45.9.1.4 6.4 1.3 6.5 1.7s-5.9.3-5.8.7c3.7 10.2 8.2 20.6 13.7 29.6 5.9 9.6 15.3 19.4 25.7 28.4.4.3 9.3-1 9.7-.8.4.3-7.9 2.2-7.6 2.5 6.9 5.6 14.1 10.9 21.1 15.4-2.2 1.7 1.4 2.7 5.4 3.4 7.1 4.2 13.7 7.7 19.3 10.1-6.9-1-12.5-.8-34.7-11-12.8-5.9-45.2-36.7-48.5-42.6s-6.2-6.2-4.8-.5 9.7 26.5 23.5 42.4c5.8 6.7 13.5 13.2 21.4 18.8.3.2 6.3-.8 6.6-.5.3.2-5.1 1.6-4.8 1.8 1.7 1.1 3.4 2.2 5.1 3.3.3.2 8-2 8.3-1.8s-6.7 2.8-6.4 3c7.7 4.6 15.2 8.1 21.2 9.6-.1.9-.2 1.7-.4 2.4-.1.2-.1.3-.2.5 0 .2-.1.3-.1.5-.5 0-1.1-.1-1.7-.1s-4.2-.5-5.7-.8c-7.3-1.3-16-3-20.2-5.4s-10.3-5.5-14.1-8.5c-3.8-2.9-6.2-2-3.7 1.6s17.3 25.9 37.3 33.2c7.8 2.9 15.8 4.3 22.4 5 .4 0 4.5-4.6 4.9-4.6.6.1-2.6 4.8-2 4.9 5 .4 9.1.4 11.6.3.7 3.6 1.3 5.7 1.5 7.5.2 1.7 1.4 5.4 3.5 4.7 2.1-.6 12.1-4.4 13.1-5.5s4.1-.7 6.8-.5c-.1 3.4.5 7.8 1.2 11.3.1.2 6.6.3 6.7.5.1.4-6.3 1.1-6.2 1.5.3 1.5.7 2.8 1.1 3.6 1.5 3.7 5.2 11.5 7 14.6 1.8 3.2 5.2 1.8 4.8.2s1.8-5.9 5.9-9c4-3.1 10.3-9.2 12.9-12.5.1 1.4.3 2.9.5 4.3.9 5.1 8.3 19.6 11.3 23 2.9 3.4 5.9 5.5 7.3 7.8s6 .8 6-.8c0-1.7-1.3-6-.6-7.4.7-1.5 5.1-5.3 8.2-8.4.8 1.9.1 1.6 3.7 5.9s8.3 8.8 9.5 10.1c1.2 1.4 4.6-5.1 4.6-5.1s-1.9 5.4-1.6 7c.4 1.6 2.5 2.3 4.5 5s4.6 6.6 6.7 6 3.3-3.1 2.9-5.2 3.6-12.1 5.1-13.8 1.3-2.8 1.3-4.4c.5.8 1.1 1.6 1.8 2.2 5.5 5.1 13.9 8.5 18.5 10.3s10.4 3.2 11.4 5.5 2.7-1.2 3.5-3.1c.7-1.5 1.7-9.3 1.5-15.2z" fill="#231f20"/><g fill="#662d91"><path d="m211.5 343.6c-.8-.1-1.4-.1-2.1.1-.2.1-.9 0-1.8 0 1.8 1.3 3.1.6 8.4.6-.2-.2-.4-.3-.6-.5-.7-.1-1.4-.2-2.2-.3-.4-.1-.9.3-1.7.1z"/><path d="m209.2 337.1s-.8.5-2.1-.1c-1.4-.6-1.5-.2-2.6-.3-1-.1-2.9-.4-5.1-.8 1 1.2 1.9 2.2 2.7 3.1 1.4 0 2.6-.2 3.5.2s.9.1 2.1-.2 2.4-.2 2.4-.2c.5-.1.9-.3 1.4-.4-.1-.3-.3-.7-.5-1.1-.6 0-1.2-.1-1.8-.2z"/><path d="m228.4 357.4c0-.2.1-.3.1-.5.1-.2 0-.7 0-1.2-.1-.2-.3-.4-.4-.6-.5-.6-.8-1.7-.9-2.8-1.1-.6-2.5-1.2-4.1-1.7.1.3.3.7.6 1.2 1.1 2.3 1.1 3.3 1.3 3.9s-.1 1-.1 1.2c0 .1.1.7.3 1.2.2.1.5.3.7.5 0-.3 0-.6 0-.9.1-.6 0-1.6.2-2.1.3-.5-1.1-3.5-1.3-4.1s1.7 2.3 2 2.9-.1.1.2 1.6 0 1.2.2 1.8v.1c.3-1 .6-1 1.2-.5z"/><path d="m235.5 303.4c.2-.1.4-.3.6-.4.4-.4.8-.7 1.1-1.1 0 0 .4-.8 1-1.3.7-.6.8-.4.9-1.1s1-1.5 1.7-2.5c-.5-.8-1-1.5-1.4-2.3-.5 1.3-1.1 2.3-1.5 3-.3.6-.8.5-.9 1.6s-.7 1.3-.7 1.3l-1.1 2.5z"/><path d="m235.3 340c-.1-.2-.2-.3-.2-.5-.6 0-1.2 0-1.3-.1-.3-.4-.5.9-2.1.5s-.5.2-2.9.1-1.8.2-2.7-.1-6.1-.8-5.1-1c1-.3 2.3.1 4 .3 1.6.2 2.9.1 3.7-.2.7-.3 2.8-.6 3.9-.8.5-.1 1.3-.2 1.9-.3-.1-.2-.2-.4-.3-.7-1-.1-2.2-.3-2.5-.3-.3.1-1.2.6-2.1.4-.4 0-1.1 0-2.2 0s-1.7-.4-4.6-.9c-3-.5-3.2-.8-2.5-.8s1.8.1 3.3.3 2.7.6 4.3.4c1.7-.2 4.3-1.1 4.5-1.1h.1c-.3-.2-.7-.4-1-.6-.4 0-.9 0-1.4 0-1.1-.1-3.9-.5-6.5-1.2-2.5-.7-4.6-.4-4.6-.4s.9-.3 1.5-.6c.3-.1 4.5.6 5.4 1.2.9.5 2.5.3 2.7.1.1-.1.4-.2.9-.4-1.9-1.3-3-1.4-4.1-4.5s-5.4-9.3-7.1-14.5 3.8 6 5.5 8.5c1.6 2.6 1.3 1.8 2.1 2.7.2-.7.5-1.5.6-1.6.1-.2.3-1.3.1-2s-.1-3.8 0-4c.1-.4.2-1.2.2-1.2s-.1 1.7 0 3.7c.1 1.9.2 4 .4 4.9 0 .8.1 1.4 0 1.8.1.2.3.3.5.5 0-.1 0-.1 0-.3 0-.1.5-1.7.5-3.3s0-4.7-.1-5.4.1-1 .4 2c.4 3 .3 4.3.5 5s-.1 1.3-.1 1.5.1 1.1.2 1.9l.5.5c.1-.5.1-1 .2-1.5.1-.8.1-2.2.2-2.9.2-.7-.3-4.4-.2-5.3.1-.8.5 2.9.7 3.6.3.7-.1.2.3 2 .4 1.9-.2.9.2 2.3.4 1.3-.7 1.3-.4 1.6.1.1.1.6 0 1.1l.3.3c.1-.4.2-1 .3-1.3.2-.4.8-2.4.9-3 .2-.6-.1-2.2-.2-3.5-2.1-3.4-3.8-6.9-7.2-8.1s-8-8.1-9.3-11c-1.4-2.9-2.5-.9-2.4 4.9s.6 16.1 1.2 23.3 6.5 10.8 11.4 13.7c.7.2 1.3.5 1.8.8.1-.6.2-1.1.3-1.5-1.6 0-2.9-.1-2.4-.2.3 0 1.3-.1 2.5-.3.1-.3.1-.5.2-1s.4-1.2.6-1.5c-.4 0-.8.1-1.1.2-1.3.1-5.4-.1-5-.3.4-.3 1.8 0 3.4 0s2.9-.2 3.7-.5c.7-.3 3.6-1.2 4.2-1.4.4.2.9.1 1.5 0z"/><path d="m237.1 297c.2 0 1.3-1.5 2.1-3-.6-1-1.2-2-1.7-3.1-.1.5-.2 1-.3 1.3-.3.9-1 2.5-1.2 3.4s-1.2 2.4-1.3 2.8c0 .1-.5 1.1-.9 1.9l.2.4c.6-.9 1.5-2.4 1.5-2.4s1.2-1.3 1.6-1.3z"/><path d="m229.1 358.3c.4.4.8.9 1.1 1.2.1-.2.2-.4.3-.5.1 0 .1-.3.1-.6-.5-.5-1.1-1.2-1.7-2 .1.7.1 1.5.2 1.9z"/><path d="m221.4 350.3c.1.4.2.8.4 1.3.5 1.5.9 3.1 1.1 3.8.1.6.2 1.2.2 1.5.2.1.3.2.5.3 0-.1 0-.1 0-.2 0-.2.5-1.3.5-2.5s-.9-3.1-1.3-3.9c-.4-.1-.9-.2-1.4-.3z"/><path d="m202.7 362.9c0 .5-.3.7-.4 1l-.1.9c1.1.2 2.1.4 3.2.7-1.6-1.5-2.3-2.7-2.4-3.7-.2.2-.3.6-.3 1.1z"/><path d="m201 359c-.1.3-.4.7-.4 1.8-.1 1.2-.2 1.4-.2 1.4v2.1l.3.1v-.1c.1-.5.2-1 .4-1.6 0 0 .2-.2.4-.4s.5-.2.4-.8c-.1-.3.6-1.3 1-2.5.2-.6.4-1.2.6-1.7-.6-.4-1.2-1-1.9-1.6-.3 1.6-.5 3-.6 3.3z"/><path d="m211.4 340.7s-.4 0-2.3-.2-2.7-.1-3.1-.1-1.5-.1-2.9-.3c.5.5.9.9 1.2 1.3.7.5 1.4.9 2 1.3 1.8-.1 3.4-.5 3.7-.4.9.3 1-.1 1.4-.3s.8-.3.8-.3h1.4c-.2-.2-.4-.5-.5-.7-.6-.1-1.1-.2-1.7-.3z"/><path d="m198.1 359.1c.2.9-.2 1.2-.2 1.2-.1 1-.2 2-.3 3l-.1.1.3.2.2-.7c.1-.2.2-.3.3-.5.2-.4.5-.8.7-1.2 0 0 .1-.8.6-1.4.4-.7.6-.5.5-1.2s.6-2 1.2-3c-1.1-1.1-2.1-2.4-2.6-3.6-.1 1.5-.2 4.7-.3 5.5-.2.8-.6.6-.3 1.6z"/><path d="m190.1 362.6c.7 0 1.4.1 2.1.2.4 0 .8 0 1.3.1l-.2-.2-.1-.1c-.3 0-.5 0-.8 0-1-.2-2-.5-2.9-.7 0 0-.6-.1-1.9-.3s-1.5-.2-1.9-.2l.8.4c.9.4 2 .7 3.3 1 .1-.2.3-.2.3-.2z"/><path d="m213.5 379.3c0-.3.2-2.3.2-3.5s0-1.6 0-2.6c-.6-.3-1.3-.5-1.9-.8.2 1.9.3 3.9.6 4.8.2.7.3 1.2.4 1.7.2.2.5.3.7.4z"/><path d="m216.1 374.4c-.6-.3-1.1-.5-1.7-.8.2 2.1.2 3.2.5 3.8.4.7.1 1.4.1 1.6v.2c.2-.3.6-.5 1.1-.5 0-.7-.1-1.5 0-1.9 0-.4 0-1.3 0-2.4z"/><path d="m204.6 335.4c.5-.4 3-.6 3-.6h2.6c-.1-.2-.1-.4-.2-.7-.8-.1-1.4-.2-1.5-.2-.6-.1-3.2-.2-4.5-.6s-4.5-.9-5.6-.9c-1-.1-1.2-.1-2-.3.9 1.1 1.6 2.1 2.4 3 2.7.4 5.5.5 5.8.3z"/><path d="m201.2 332.1c1-.1 4.7-.4 5.5-.5.7-.1 1.8-.1 2.6-.1 0-.2 0-.3-.1-.4-1.1-.2-2.3-.4-2.4-.5-.4-.6-.7 1.1-2.7.2-1.9-.9-.8 0-3.6-.8s-2.3-.3-3-.7-2.9-.7-4.2-1c.9 1.2 1.8 2.3 2.6 3.4.2 0 .5.1.7.1 2 .2 3.7.4 4.6.3z"/><path d="m216.6 374.6c0 .2 0 .3.1.4.3.8-.1.2.4 2.1.4 1.6.1 1.3.2 1.8.4.1.8.2 1.2.3.1-.5.1-1.1.2-1.3 0-.3 0-1.2 0-2.2-.7-.4-1.4-.7-2.1-1.1z"/><path d="m207.3 309.7.2-.3c.1-1.3.3-2.6.5-3.7-.2-.3-.5-.7-.7-1-.2.7-1.1 2.8-1.6 3.6s-1.2 2.6-1.4 3.5-.8 2.3-.9 2.7c0 .1-.2.9-.4 1.6l.3.4c.3-.9.9-2.1.9-2.1s.8-1.4 1.2-1.4c.2-.1 1.1-1.7 1.9-3.3z"/><path d="m205.2 318.3c.2-.3.5-.6.7-1 0 0 .2-.7.7-1.2s.6-.2.7-1.1c0-.1 0-.2.1-.4 0-1.3 0-2.7 0-4.2-.5 1.2-1 2.3-1.2 2.9s-.6.5-.6 1.5-.4 1.3-.4 1.3c-.2.8-.4 1.5-.5 2.2l.2.3c.1 0 .2-.1.3-.3z"/><path d="m216.4 227.3c-.2.8-6.1-3.2-6.3-2.3-.3 1.4-.4 1.4-.7 2.7-.2.9 7.8 8.5 7.7 9.3s-8.4-3.5-8.5-2.7c-2.2 17.3-1.3 32.5.3 43.7.1.9 9.8 4.3 10 5.1s-9.3-1.1-9.2-.3c1.3 6.7 2.7 11.4 3.5 13.8 1-.8 1.7-.8 2.2 2s3.8 6.5 7.2 9.3c.5.1 1.1.2 1.7.3 2.3.3 4.8.4 5 .2.4-.3 2.7-.4 2.7-.4s2.8.2 4.1.2l-.2-.3h-.1c-1.1-.2-2.9-.6-3-.6-.5-.2-2.8-.3-3.8-.7s-3.3-.9-4.7-1.1-5.7-2-5.1-2.1c.6 0 2 1 3.7 1.4 1.6.4 3 .6 3.9.5.8-.1 4.1-.2 4.8-.2.7-.1 1.8 0 2.6.1l-.3-.4c-.9-.2-2.1-.5-2.2-.7-.3-.5-.7 1-2.3.1s-.7 0-3.1-.9-1.9-.3-2.7-.8-5.5-2.4-4.6-2.4c1 0 2.1.9 3.6 1.3s2.8.7 3.5.7c.7-.1 2.9.3 3.9.5.7 0 1.7.2 2.4.3-.1-.3-.3-.5-.4-.8-1.1-.5-2.5-1.1-2.8-1.1s-1.2.3-2-.2c-.4-.3-1.1-.4-2-.7-1-.2-1.6-.3-3.9-1.5-2.4-1.3-2.5-1.7-2-1.4.6.3 1.5.7 2.7 1.1 1.3.4 2.2.6 3.7.9 1.5.2 3.9.2 4.1.3h.7c-.1-.2-.2-.4-.3-.6-.5-.1-1.4-.4-2.6-.9-1-.4-3.4-1.1-5.4-2-2.1-.9-3.9-1.7-3.9-1.7s.9.2 1.3.3c.1 0 1.1.3 2.1.6 1 .4 2.1.8 2.4 1 .7.5 2.1.6 2.3.5.2-.2 1.5-.3 2.5-.4-.6-1.2.1.9-1.5-3.6-1.5-4.5-5.9-17.9-7.3-23.7s-2.2-14-2.3-18 0-2.5.4 1.1 5.3 25.1 7.6 32c2.3 7 1.4 3.9 2.2 5.7.5-.8 1.4-1.8 1.6-1.9.2 0 .6-1.1.5-1.9s.5-3.7.6-3.8c.2-.3.4-1 .4-1s-.3 1.6-.5 3.5-.6 4-.7 5c-.3 1.5-.6 2.3-.7 2.7l.2.4c.3-.2.5-.4.6-.7.1-.2 1.2-1.9 1.6-3.1s.5-1.9.6-2.9.1-1.7.1-2.2.2-.1.3 2.1-.1 2.5-.2 3.3-.3 1.3-.3 1.7c0 .9-.6 1.3-.7 1.6-.1.2-.4 2.1-.6 3.1l.2.5c.3-.5.8-1.5 1.1-2.1.4-.8.9-2.5 1.3-2.9s.6-1.3.7-2.5c.1-1.1.1-2 .2-2.6.2-.5.2 3 .3 3.8s0 .1-.2 2.1-.6.8-.6 2.4-1.4 1-1.1 1.5c.1.1-.4 1.1-.7 1.8v.1l.1.4c.4-.5.8-1.3 1.3-1.8.4-.4 2-2.3 2.4-2.8s.7-1.5 1-2.6c0-.2.1-.4.1-.6-9.4-18.9-14.9-42-11.6-71.9 3.3-30 12.4-51 15.5-61 3.1-10.1 6.3-15.4 3.6-12.9-2.6 2.5-5.7 6.7-10.4 14.7-4.4 7.6-13.9 19.8-22.4 56.9 0 1 5 9.9 4.8 11.1z"/><path d="m238.7 345.6c.5-.2.9-.4 1.4-.6-.3-.2-.5-.4-.8-.6l-2 .1s-.6.4-1.8.2c-1.1-.2-1.1-.1-1.5.1 1 .4 2.1.8 3.3 1.2.7-.4 1.4-.4 1.4-.4z"/><path d="m139.3 299.7c.2.6 9.5 2.6 9.7 3.3.3.8-7.8 1.9-7.5 2.7 3.3 8.4 7.1 15.6 11.5 23.4.3.5 9.2 2.4 9.6 2.9.6.9-6.9 1.6-6.4 2.4.7 1.1 1 1.6 1.7 2.7.3.4 11.2 1.6 11.5 2.1.5.8-8.1 3-7.6 3.8 7.8 11.1 14.4 19 18.3 23.7-.2-1-.5-1.8-.7-2.7-.2-.8-.4-1.7-.4-2.3-.6.1-1 .1-1 .1s.4-.1 1-.2c-.1-2.5 1.9-2.1 4.7-1h.9c1.1.3.7.1 1.6-.1s1.9 0 1.9 0c.5 0 1.1-.1 1.6-.1.3 0 .5-.1.8-.1h.1l-.3-.3c-1.1-.2-2.1-.4-3.2-.6 0 0-.5.3-1.7-.1s-1.2-.1-2.1-.1c-.9-.1-2.9 0-4.8.1-2 .1-3.7.2-3.2.1.4-.1 1.9-.4 3.4-.6 2-.3 4.2-.4 4.4-.6.3-.2 2.3-.4 2.3-.4s1.5.1 2.7.1l-.5-.4c-.8-.1-1.6-.2-1.7-.3-.5-.1-2.6-.2-3.6-.4s-3.1-.2-4.4 0c-1.2.2-5.2.7-4.7.4s1.8-.4 3.2-.6c1.5-.2 2.8-.3 3.5-.4.7-.2 3.6-.5 4.2-.6.4-.1.9-.1 1.4 0l-.5-.4c-.5-.1-.9-.2-1-.2-.4-.4-.5.7-2.1.1-1.6-.5-.6 0-2.9-.2s-1.7.1-2.5 0c-.8-.2-5.3.3-4.3 0 .9-.3 2-.4 3.4-.5s2.6-.2 3.2-.4c.7-.2 2.6-.1 3.5-.2.3 0 .8.1 1.2.1-.3-.3-.6-.6-.9-.9-.5-.1-1-.2-1.2-.2s-1.1.3-1.8.1c-.3-.1-.9-.1-1.8-.1s-1.4.2-3.5.1-2.2-.4-1.7-.4 1.4-.1 2.4-.2c1.2-.1 2.2-.2 3.3-.3s2.1-.2 2.8-.3c-.2-.3-.6-.6-.9-.9h-.1c-.8-.2-2.6-.3-4.2-.3-1.5-.1-2.8-.1-2.8-.1s.7-.1 1.2-.3c.3-.1 2.9-.3 3.3-.1.4.3 1.6.1 1.8 0-3.3-3.7-6.7-7.9-9.9-12.5-7.8-11.9-18.8-31.9-21.6-39.9-2.9-8-5.5-17.4-6.5-21.4-.9-4 .3-1.4 1.6 3.3 1.8 4 8.1 23.7 13.5 34 3.8 6.9 18.6 26.9 30.6 40.3.2-.3.4-.6.5-.7.2-.1.4-1.3.1-2s0-3.9.1-4.2c.2-.4.4-1.2.4-1.2s-.3 1.7-.2 3.7c.1 1.9.3 3.9.4 4.9v.9c.2.3.5.5.7.8.3-.6.7-1.5.8-3 .1-1.4 0-4.9-.1-5.7 0-.8.1-1 .5 2.1.4 3 .3 4.4.6 5.1.2.8-.3 1.4-.4 1.6s0 .7.1 1.4c.2.3.4.5.7.7.1-.4.2-.9.3-1.2.2-.8.3-2.3.7-3 .3-.7-.2-4.7-.1-5.6.2-.9.7 3.1 1 3.8s0 .2.2 2.1c.2 2-.4 1-.1 2.4.3 1.3-1 1.3-.6 1.6.1.1.1.7 0 1.2l.3.3c.1-.5.3-1 .5-1.4.3-.5 1.1-2.5 1.5-3.2.3-.8 0-4.8.3-5.2.2-.4.6 2.6.5 3.6s-.4 2.6-.3 3.4c0 .8-.3 2.3-.3 2.7 0 .2-.1 1.2-.2 2l.3.3c.3-.9.7-2.6.7-2.6s.6-1.5 1-1.7c.2-.1.8-1.8 1.1-3.4.2-.7.2-1.5.2-2-.1-.3-.2-.7-.3-1 0-.2-.1-.3-.1-.5-6.8-5.6-24.2-21.5-40.2-54-9.6-19.5-18.6-49.1-20.1-88.9-1.5-40 6.5-54.3 3.3-48.4-2.9 5.5-9.3 26.9-12 43.7-.1.6 3.7 5.3 3.6 5.8-.1.6-4.1-2.2-4.2-1.7-.1.4-.1.9-.2 1.3-.1.5 4.9 4.5 4.8 5s-5.3-.9-5.3-.4c-1.6 15.3-1.5 26 5.8 67.1 1.7 6.7 3.5 12.6 5.9 19.4z"/><path d="m165.9 254.9c.1.7 10.2 4.7 10.3 5.4s-9.6 0-9.5.7c5.8 31.5 17.3 53.8 26.4 67 1 0 2.1.2 3.5.4 1.7.2 3.1.5 4 .3s3.3.2 4.5.2 3.4.3 3.7.1h.1l-.1-.4c-.2 0-.3 0-.5 0-1.1-.5-3.6-1.5-4-1.5s-1.4.4-2.3-.1c-.4-.3-1.2-.4-2.3-.6-1-.2-1.7-.2-4.2-.9s-2.5-1.1-2-1c.6.2 1.6.3 2.9.4 1.4.1 2.4.2 4.1.3s4.5-.1 4.7-.1c.3 0 .5-.1.8-.1-.2-.2-.4-.5-.6-.7-.6-.1-1.5-.4-2.6-.7-1.1-.4-3.6-.9-5.9-1.4-2.3-.4-4.4-.7-4.4-.7s1 0 1.5-.1c.1 0 1.2 0 2.3.2 1.1.1 2.3.3 2.8.5.8.4 2.3.4 2.5.2.1-.2 1-.4 1.8-.5-4.5-6-11.5-15.4-16.3-28.1s-11-35.5-11.9-44.1c-.9-8.5-1.2-18.4-1.2-22.6s.7-1.3.9 3.6c1 4.3 2.3 25.2 5.3 36.7 2 6.9 9.7 25.2 17.3 39.5.5-.8 1.2-1.7 1.5-1.8.2-.1.8-1.3.7-2.1s.5-4 .6-4.2c.2-.4.3-1 .3-1s.1 1.7-.1 3.6c-.2 2-.9 4.2-1 5.2-.3 1.1-.5 1.9-.7 2.3l.3.5c.1-.2.3-.4.4-.5.1-.2 1.2-2.1 1.8-3.3s.9-2 1.1-3.1c.3-1.1.3-1.8.3-2.4 0-.5.5-1 .3 2.1-.2 3-1.4 4.5-1.4 5.3-.1.9-.6 1.4-.8 1.6-.1.2-.4 1.4-.5 2.4l.3.6c.2-.5.5-1.2.8-1.7.4-.8 1-2.5 1.4-3s.9-1.5 1.3-2.7c.5-1.2.6-2.2.9-2.9.3-.6-.7 3.2-.8 4s-.2.1-.8 2.2-.7 1-.8 2.5-1.2 1.1-1 1.5c.1.1-.1.8-.3 1.5l.2.4c.2-.5.4-1.1.7-1.4.3-.4 1.7-2.4 2.1-2.9s.9-1.6 1.5-2.8c.5-1.1.9-2.1 1.2-2.4-7.5-11.8-25.7-38.9-24.8-94.8s14.8-103.6 19.9-116.4c5.1-12.9 9.3-20.1 12.8-26.1s-11.5 14.2-16.8 23.1c-2.7 4.5-12.4 24.4-21.1 53.2-.3.9 5 7.3 4.8 8.2-.2.7-6.6-1.9-6.8-1.2-6.9 26.1-12.2 57.3-10.6 89.1.3 5.8.8 10.1 1.5 15.5z"/><path d="m232.5 344c.2-.1.5-.2.5-.2.2-.4 2.1-.9 2.1-.9s1.1-.1 2.2-.3c-.1-.2-.3-.3-.5-.5-.7 0-1.2 0-1.3 0-.5 0-2.5.3-3.6.2-.4 0-1 0-1.6 0 .4.3.9.8 1.2 1.1.3.2.5.4 1 .6z"/><path d="m206.6 321.1c.2-.4.3-.9.5-1.4 0 0 .1-.2.3-.3s.2-.1.3-.2c-.1-.8-.3-1.8-.3-2.8-.1.2-.1.2-.4 1-.2.8-.4 1.4-.4 1.4-.1.7-.2 1.3-.3 2 .2.2.3.3.3.3z"/><path d="m164.3 430.6c.5.3 6.3.1 6.8.3.5.3-3.4 1.7-2.9 1.9 1.1.6 1.7.9 2.7 1.5.7.3 8.4-.9 9-.5.6.3-4.2 2.7-3.6 3 6.6 3.2 11.3 5.1 14.4 6.3 0-.2.1-.5.1-.7l-.7.3s.5-.4.7-.5c0 0 .1 0 .1-.1.2-.7.4-1.4.6-2.1-.3.2-.7.3-1.1.5-1.2.5-2.2.9-1.9.7s1.1-.6 2.1-1.1c.4-.2.8-.4 1.1-.6.2-.6.5-1.2.8-1.8h-.1c-.7.2-2 .7-2.7 1.1s-3.2 1.5-3 1.1c.3-.4 3.5-1.6 4-2s1.8-1.3 2.1-1.6c.1-.2.4-.3.7-.4.1-.1.2-.3.3-.4h-.1c-.5.2-1.2.4-1.4.3-.4-.2.2.7-1 .7-1.2.1-.3.2-1.9.6s-1 .5-1.7.6-3.8 1.4-3.2.8c.6-.5 3.8-1.5 4.2-1.9s1.5-.9 2.1-1.2c.5-.3 1.6-.7 1.6-.9h.1l-.2-.1-.2.1c-.7.1-2.3.3-2.5.4s-.4.6-1.2.6c-.7.1-1.6.5-4 1.3-2.4.7-2.4.6-1.8.3.6-.2 3-1.2 4.2-1.8s2.3-1.4 2.5-1.5.4-.3.6-.5l-.3-.1c-.3.1-.9.4-2.1.7-.8.1-2.7.5-4.3 1s-2.8 1.2-2.8 1.2.5-.4.7-.7c.1-.1 2.6-1.3 3.3-1.2.7 0 1.7-.4 1.8-.5.1-.2.9-.9 1.4-1.3-3.5-1.6-6-2.7-8.9-4.2s-7.4-4-10.6-5-8.2-5.8-11.1-8.6 1 .5 5.5 3.5c4.5 2.9 17.8 9.3 20.8 10.5.9.3 1.3.5 1.5.6-.1 0-.1 0 0 0 .3.1.1 0 0 0-.1-.7-.1-1.5 0-1.6s-.1-1.2-.5-1.8c-.1-.2-.3-.7-.5-1.2-4.1-1.6-.9.4-14-6.2-13.1-6.5-44.9-35.2-47.8-39.5-2.9-4.2-3.2-5.3-2-1.1 1.3 4.3 18.9 32.4 33 44.8 3.6 3.2 7 5.5 11.3 8z"/><path d="m232.3 324c0 .5.1.7.1 1.3s.1 2.5.2 3.2c.1.8-.2 2.3-.2 2.7v1.2c0 .1 0 .1.1.1l.3.2c0-.1 0-.2 0-.3-.3-2.7-.1-5.2.1-7.4-.2-.3-.4-.6-.6-1z"/><path d="m182.1 385.2c-.1-1-.1-2-.1-2.5-.8-.4-1.6-.9-2.4-1.4.1.9.2 2.8.3 3.7s.4 2.8.7 3.5c.3.8.5 2.3.6 2.7 0 .1.2 1 .4 1.7l.4.2c-.1-1-.3-2.5-.3-2.5s.1-1.6.3-1.9c.3 0 .2-1.8.1-3.5z"/><path d="m235.3 316.8c1.5.5 1.7 1.9 1.1-.7-.6-.2-1-.1-1.6 0-.2.1-1.5 0-3.1-.1.7.8 1.3 1.7 1.9 2.6.3-2 .2-2.3 1.7-1.8z"/><path d="m127.7 336.7c.2.6-7.2 1.1-7 1.7 3.6 9.8 7.8 18.9 12.7 26.2 7.4 11.2 16.9 20.4 25.8 28.1.7.6 14.5-.7 15.1-.1.9.7-11.4 3.1-10.6 3.8 7.1 5.6 13.6 10.1 18.2 13.5 1.4-1 2.9-2.1 4.3-3.2-.8.1-1.7.2-2.5.4-1.8.2-3.4.4-3 .3s1.7-.4 3.1-.8c1.8-.4 3.8-.9 3.9-1.1.1-.1.2-.2.5-.4.6-.4 1.1-.9 1.6-1.4-.6 0-2.3.3-3.2.3-1 0-3 .2-4.1.5s-4.9 1.1-4.6.7c.3-.3 1.6-.5 3-.8s2.6-.6 3.3-.9c.6-.3 3.1-1.2 3.5-1.4s1.2-.4 1.8-.5l-.4-.3c-.7 0-1.7.1-1.8 0-.5-.4 0 .9-1.7.6s-.5.1-2.8.2-1.6.4-2.4.3-5.4 1-4.5.6 2-.7 3.3-1c1.4-.3 2.5-.5 3-.8s2.3-.6 3.1-.7c.5-.2 1.4-.2 1.9-.3l-.7-.5c-1-.2-2.3-.3-2.5-.3-.2.1-.8.6-1.6.4-.4-.1-.9 0-1.7.2s-1.2.3-3.5.7-2.5.1-2 0 1.4-.4 2.5-.7 1.9-.6 3.1-.9c1.1-.3 2.8-1.1 3-1.1.1 0 .2-.1.3-.1l-.6-.5c-.4.1-.9.1-1.6.1-.8 0-2.6.3-4.2.6-1.7.3-3.2.7-3.2.7s.7-.3 1.1-.6c.2-.1 2.9-1.1 3.5-1 .6.2 1.6-.3 1.6-.5.1-.1.5-.5.9-.8-11.7-9.2-24.8-20.2-30.5-26.3-5.6-6-12.6-14.5-15.2-18-2.6-3.4-.4-1.3 2.9 2.6 3.4 3.2 17.7 19.7 27.5 27.9 1.2 1 2.8 2.3 4.8 3.8.2-.5.5-.9.7-1s.4-.9.1-1.4c-.3-.6 0-3.3 0-3.5.1-.5.3-1.3.3-1.3s0 1.7.1 3.4c.1 1.5.2 3.1.4 3.7.2.7.3 1.2.4 1.5l.6.4c.1-.1.1-.1.1-.2s.5-.9.5-2.2c.1-1.3 0-4.7 0-5.5-.1-.8.1-1 .6 2 .4 3.1.4 4.2.8 4.9s0 1.1 0 1.2c0 .2.4.9.7 1.6l.8.6c0-.4-.1-.8-.1-1.1 0-.7-.3-2-.1-2.7s-.4-4.9-.2-6.1c.2-1.1.4 3.4.7 4.1s-.1.2.5 2.1-.1 1.1.6 2.3c.8 1.2-.5 1.2-.1 1.5.1.1.3.5.4 1l.4.3c0-.4-.1-.9 0-1.2.1-.5.1-2.6.2-3.4s-.4-4.6-.3-5.7c-15.6-9.3-32.9-21.5-43.7-41.9-10.8-20.5-19.5-51-20.3-57.9s-2-3.3-3.5 7.7c-.9 6.8 1.5 25 7 44.1.4.5 8.8 2.9 9 3.5z"/><path d="m235.1 314.8c.8.3.8 0 1.1-.2h.1c-.1-.4-.1-.7-.1-1.1l-.2-.1s-.3 0-2-.3-2.4-.2-2.7-.2-1 0-2-.1c.7.7 1.4 1.4 2 2.2h.4c1.7.1 3-.3 3.4-.2z"/><path d="m231.5 309.9c-1.3-.6-1.3-.2-2.4-.3-1-.1-3.3-.4-5.5-.9-.1 0-.2-.1-.2-.1 1.4 1 3.3 2.3 4 2.8.7.4.4.2.5.4 1-.1 1.8-.2 2.6.1s.8.1 1.8-.1c1-.3 2.1-.1 2.1-.1.6-.1 1.2-.2 1.9-.3 0-.3.1-.5.1-.7-1-.2-2-.3-3-.5.1-.1-.6.3-1.9-.3z"/><path d="m239.9 300.2c-.2.3-.6.7-1.1 2s-.8 1.5-.8 1.5c-.3.8-.6 1.6-.9 2.4l.2.3.1-.2c.3-.5.7-1 1-1.5 0 0 .2-.2.5-.3.3-.2.6 0 .7-.7.1-.3 1-1.2 1.9-2.5.4-.5.8-1.1 1.1-1.6-.4-.6-.9-1.3-1.3-1.9-.7 1.1-1.2 2.3-1.4 2.5z"/><path d="m234 435.5-.2-.1c-.2-.2-.4-.5-.7-.7-.5-.4-1-.9-1.5-1.3 0 0-.1 0-.2-.1-.8 0-1.6 0-2.4.1.8.3 1 .7 1 .7 1.1.5 2.2 1 3.4 1.5.2-.1.4-.1.6-.1z"/><path d="m225.9 433.6c-1.2.1-2.3.3-3.2.4.5.1.7.2 1.4.4s3.1 1.2 3.6 1.4c.1 0 .8.3 1.6.6.2 0 .5-.1.8-.1-1.2-.7-2.5-1.4-2.5-1.4s-1.1-.8-1.7-1.3z"/><path d="m210.2 423.6c.9-.2.6-.3 1-.8-.8-.2-1.7-.4-2.4-.6-.1.1-.2.3-.6.4l-1 .5c.8.4 1.5.7 2.1 1 .3-.3.7-.5.9-.5z"/><path d="m229.3 441.5c0-.7-.1-1.4-.1-1.7s0-.6 0-.9l-.7.2c-.1.2-.2.4-.3.5-.5.2.8.8 0 1.8s-.4.7-.5 1.3c.6-.5 1.1-.9 1.6-1.2z"/><path d="m226.8 404.1.3-.1c-.2-.1-.4-.2-.6-.3-.1-.1-.3-.3-.4-.5-.3-.3-.6-.5-.9-.9 0 0-.6-.4-1.1-.9-.2-.2-.3-.4-.4-.5s-.1-.1-.1-.2c-.1-.1-.2-.1-.3-.2-.6 0-1.2.1-2 .2.2.2.2.2.6.4s.4.6 1.2.9 1.1.7 1.1.7c.8.5 1.7.9 2.6 1.4z"/><path d="m207.4 421.8c0-.1 0-.1 0-.2-.2 0-.4-.1-.5-.2-.4-.2-.8-.4-1.2-.6-.4.1-1 .4-1.6.7.7.3 1.4.7 2.2 1.1.7-.3 1.1-.6 1.1-.8z"/><path d="m226.9 439.4c-.4.1-.7.2-1.1.2-.3.6-.6 1.1-.6 1.3s.2 1-.3 1.6c-.2.3-.4.8-.6 1.5-.2.6-.1 1.1-.5 2.3.8-.8 1.6-1.7 2.5-2.5 0-.2.1-.1 0-.4-.1-.4.3-2.2.4-3.1 0-.1.1-.5.2-.9z"/><path d="m224 414.7c-.1-1.6 0-3.3-.2-3.5-.3-.3-.5-1.9-.5-1.9s.1-1.4.1-2.4l-.4.1c-.2.7-.3 1.5-.4 1.6-.1.3-.2 1.9-.4 2.6-.3.7-.5 2.4-.5 3.3 0 1 .7 3.8.4 3.4s-.7-1.3-.8-2.4c-.1-1.2 0-2.1-.1-2.7s-.5-3-.6-3.5 0-1.3 0-1.8c-.1 0-.2 0-.3.1-.1.7-.3 1.5-.4 1.6-.5.2.9.6.2 1.7s0 .5-.6 2.2c-.6 1.6-.1 1.2-.5 1.7s.3 3.4.1 2.8c-.3-.7-.7-1.4-.9-2.3-.1-1 .2-1.8 0-2.4s.1-2.1.1-2.9c0-.6.2-1.8.2-2.2l-.3.1v.1c-.4.7-1.2 2.2-1.2 2.5 0 .2.3.9-.1 1.5-.2.2-.3.7-.4 1.3-.1.7-.2 1-.2 2.5s-.1 1.6-.1 1.2c.1-.4-.5-1-.8-1.8s-.1-1.4 0-2.5c.1-1 0-2.9 0-3 0-.2-.1-.5-.2-.9v-.3h-.3v.3c-.1 0-.1.8-.9 2.3-.3.6-1.3 2.2-1.1 3.7.1.6.2 1.1.3 1.6-.2-.2-.7-.8-.9-1.4-.2-.7 0-1.4.2-1.6.4-.5.4-1.5.2-1.6-.3-.2-.5-2-.6-2.6-2.5.5-3.8.6-.4-.4 1.1-.1 2.7-.6 4.5-1.1l-1-.8c-.5-.4-1-.8-1-.9 0-.2-.8-.6-1.3-.6-.3 0-.8-.2-1.3-.5-.4-.2-.9-.5-.9-.6-.2-.2-.6-.5-.6-.5s1 .5 2.1.9 2.6.9 3.4 1c1.6.6 2.4 1.1 2.5 1.1l.3.2.2-.1c-.1-.1-.2-.2-.4-.3-.2-.2-.4-.5-.6-.6s-1.6-1.3-2.4-1.8-1.2-.6-1.7-.8c-.6-.2-1-.3-1.4-.4s0-.2 1.4-.1 1.5.4 2.1.6c.5.3.9.5 1.2.6.7.2 1 .7 1.2.9s1.9.8 2.7 1c.1 0 .1.1.2.1l.2-.1c-.1-.2-1.4-.9-2-1.3-.7-.5-1.9-1.3-2.2-1.7s-.9-.8-1.6-1.1-1.3-.3-1.6-.5c-5.3.4-10.2.6-11.9 1-1.6.5 3.9 6.1 3.9 6.1l-9.3-3.3s-3.4 4.5-6.7 6-1.8 1.9 2.9 2.3 11.8 3.5 16.1 4.9 10.9.5 14.8 0c.2-1.1.4-2.1.7-2.9-.1-.3-.2-.5-.2-.8z"/><path d="m220.5 400.9c-.7 0-1.4.1-2.2.1.7.5 1.4 1.1 2 1.4s1.9 1.2 2.3 1.4c.1 0 1.2.6 1.9.9l.1.1.2-.1c-.7-.5-2.3-1.6-2.3-1.6s-1.1-1-1.1-1.4c0-.1-.4-.4-.9-.8z"/><path d="m227.3 369.6c1.1-.1 3.9-.4 4.6-.6-.2-.3-.4-.6-.6-.9-.2.2-.3.8-1.9.2s-.6.1-3.4-.5-2-.1-3.1-.4-6.7-.6-5.7-.8 2.5 0 4.2.1 3.2.2 4 .1 3.1 0 4.3 0h.6c-.2-.4-.4-.8-.6-1.1-.5-.1-.8-.2-1.1-.2s-1.3.4-2.3 0-3.2-.3-7.6-.8c-4.4-.6-3.7-.8-2.9-.7s2 .1 3.7.2c1.6.1 3.1.1 4.8.2 1.7 0 3.6-.2 4.6-.3-.1-.2-.2-.5-.4-.8-.5-.1-1.1-.1-1.8-.3-1.3-.2-4.5-.6-7.3-.9-2.8-.4-5.4-.6-5.4-.6s1.2 0 1.9-.2c.3-.1 5.1.2 6.1.6.9.3 2.8.3 3 .1s1.2-.4 2.2-.6c-4.2-3-9.4-6.8-11.5-7.6s-4-2.7-.8-1.4c1.4.7 3.7 1.9 6.4 3.6.2-.6.5-1.4.7-1.5s.2-1-.1-1.5c-.3-.4-.6-1.8-.7-2.5-5.1-1.3-11.8-2.7-14-4.3-2.1-1.6-3.3-2.3-4.7-3-1-.2-1.9-.4-2.7-.6-.3.3-1.2-.7.5 2.5 1.7 3.1 3.2 9.1 6.1 11.7 2.9 2.5 7.2 4.6 7.2 4.6s-4.3-2-5.4-.2c-1.1 1.7 1.6 4.3 4.7 7.3 3.8 1.9 8.8 5 12.9 7.5h.8c.6.1 4.7-.6 5.8-.1 1.1.4.8.1 1.7-.2 1-.3 2.1-.1 2.1-.1.1-.1.2-.1.3-.1-.4-.4-.7-.8-1.1-1.3h-.3s-.6.4-1.9-.1-1.3-.1-2.3-.2-3.2-.3-5.3-.7c-2.2-.3-4.1-.5-3.5-.6.5 0 2.1 0 3.8.1 2.2.1 4.7.2 4.8 0 .3-.3 2.5-.5 2.5-.5h.5c-.2-.3-.4-.6-.6-.9-.9-.1-2.3-.1-3.3-.4s-3.5-.5-4.9-.6c-1.4 0-6-.3-5.4-.5.7-.6 6.7-.1 7.8-.2z"/><path d="m265.7 366.8c-.6-1-1.6-5.4-1.6-5.6 0-.6-.4-1.7-.4-1.7s1.1 2.5 2 5.1c.8 2.4 1.5 4.9 2.2 6.3.4-1.6.8-3.3 1.4-4.9.7-3.3 1.6-6.6 2.8-9.8.2-.8.5-1.5.8-2.2-1.4-1-4.8-4.7-6-6s-1.6-1.7-2.6-2.8l-3.9-.9c-.4-.1-.8.1-1.4-.1s-1.1-.3-1.8-.3c-.6 0-8-1.4-8.7-1.6s.7.1 1.1.1c.2 0 2.5.4 4.5.5 1.8.2 3.3.2 3.6.3.7.3.8.1 1.2 0s.7-.1.7-.1l2.2.3 1.3.2c-.6-.7-1.2-1.5-1.8-2.5l-3.7-.9s-.7.2-1.7-.3c-1.1-.5-.9-.1-2.1-.4-1.2-.2-9.2-1.8-8.1-1.7.5.1 2 .3 3.7.5 2.1.3 4.4.6 4.7.5.4-.1 2.5 0 2.5 0s2.4.4 3.7.6l-.1-.2c-1.1-.3-2.6-.7-2.8-.7-.5-.2-2.6-.5-3.6-.9-1-.3-3.2-.8-4.5-.9-1.3-.2-5.8-.8-5.1-1 .7-.1 6.3.9 7.4.9s3.9.3 4.6.3c.8 0 2.1.3 2.8.4-1.9-2.9-3.6-4.8-4.5-8.4-.3-1.3-.7-2.9-1-4.4l-.7-.4c-.6-.4-1.3-1.1-1.4-1.1-.1-.4-.7.2-1.7-.8-1-1.1-.4-.3-2.1-1.6-1.6-1.3-1.3-.8-1.9-1.4s-4.6-2.8-3.6-2.5c1 .4 4.8 2.8 5.6 3.1s2.1 1.2 2.9 1.7c.7.5 2 1.3 2.2 1.3l.2.1c-.1-.5-.2-.9-.3-1.3-.6-.6-2.1-1.9-2.3-2.1-.3-.2-1-.3-1.5-.9-.6-.5-2.1-1.3-4.9-3.2s-2.4-1.8-1.8-1.4c.7.4 4 2.2 5.6 3.2 1.7 1 3.2 1.7 3.5 1.8.1.1.6.2.9.4-.4-2.2-.7-3.4-.7-5.1 0-1.8 1-.2 1 1.8.2 2.2.7 9.4 3.7 15s5.4 7.6 6.5 10.6c1 3.1 4.1 4.4 5.9 6.3 1.3 1.3 3.6 4.4 4.3 5.7.8-1.9 1.8-3.7 2.9-5.5-2.6-2.4-5.2-4.6-7.8-6.6-6.9-5.3-15.6-23.3-14.5-32.8s3.3-8.8 3.4-11.5-1.3-.7-3.4.1c-2.1.9-5.4 3.4-8.6 8.8-3.1 5.4-7.9 10.6-4.7 13.5s7.3 8.3 7.3 8.3l-8.5-5.8s-1.7 4.2-.6 8.4 2.4 10.6 6.9 14.9c4.5 4.2 8.5 4.5 10.2 5.9.2.2.4.4.5.5 1.6.4 2.5.5 4.3 3.4 1.8 3 4.2 10.1 5.8 14.3.4-.3.3-1.8-.4-2.8z"/><path d="m224.6 413.9c.5-1.2 1.2-2.6 2.1-3.9v-.1c-.2-.8-.1-1.5-.1-1.5-.1-.4-.2-.9-.3-1.4-.1-.2-.1-.4-.2-.6l-.4.1c-.2.7-.3 1.5-.5 2.2 0 0 .4.5-.1 1.3-.5.7-.1 1-.2 1.6-.1.5-.2 1.3-.3 2.3z"/><path d="m237.9 376.9s-.4.1-2.1-.1-2.2-.1-2.6-.1-2.3-.2-4.2-.4c-1.1-.1-2.2-.3-2.9-.4 1.7 1 3.1 2 4.3 2.7.9 0 2.1.1 3.2.1 1.7-.1 3.1-.4 3.4-.3.8.2.8-.1 1.1-.3s.6-.3.6-.3h.4c-.2-.3-.5-.5-.8-.8-.2-.1-.3-.1-.4-.1z"/><path d="m237 379.6c-.3.1-2.3 0-4.3-.3-.5-.1-1-.2-1.4-.2.4.3.7.5 1 .6 3.2 0 6.6.1 9.2.3-.2-.2-.4-.3-.6-.5-.3 0-.5 0-.7 0-.4 0-.7.3-1.4.2-.8-.3-1.3-.2-1.8-.1z"/><path d="m219.1 376.2c0 .5.2 2.4.5 3.2.6.1 1.1.3 1.6.3.1-.5 0-1.6 0-2.7-.7-.4-1.4-.8-2.2-1.2.1.2.1-.1.1.4z"/><path d="m187.5 386.7c-.3-.4-.6-.9-.9-1.5-.5-.2-.9-.5-1.4-.7.2 1.5.6 5.1.6 5.4 0 .4-.1.8.2 2s.2 1.4.2 1.4c.3.8.5 1.5.7 2.3 0 .3 0 .6.1.9l.3.2c-.1-.5-.1-.9-.1-1.3 0-.6-.1-1.1-.1-1.7 0 0 .1-.2.2-.4.1-.3.4-.3.1-.9-.1-.2.2-1.3.2-2.7 0-1.1 0-2.4-.1-3z"/><path d="m206.2 395.9c.1.3.1.8.2 1.3.9-.1 1.9-.3 2.9-.4-.9-.2-1.9-.5-3.1-.9z"/><path d="m197.3 396.4c.1-.5 0-2.2 0-3.7-.8-.3-1.6-.6-2.3-1 .1.7 0 1 .2 1.5s-.1.3.4 2.4-.2 1.2.6 2.6c.2.4.2.6.2.8 0-.1.1-.1.1-.1.1 0 .2-.1.5-.2.1-.8.3-1.8.3-2.3z"/><path d="m203.4 395c-1-.4-2-.7-3-1.1.2 1.3.4 3 .5 4 .6-.1 1.3-.2 2.1-.3.2-1 .4-2.2.4-2.6z"/><path d="m196 400.1c.2.1.4 1 .6 1.8v.3l.4.3c0-.3-.1-.9-.1-1.4-.3-.6-.5-1.3-.5-1.7-.2.4-.6.5-.4.7z"/><path d="m198.4 398.5c.5-.1 1.1-.2 1.7-.3 0-.7 0-1.9 0-3.1 0-.4 0-.8 0-1.2-.8-.3-1.5-.6-2.3-.9v1.7c0 .7.2 2.8.6 3.8 0-.1 0-.1 0 0z"/><path d="m188.9 397c.2-1 .5-2.1.7-2.2.2-.2.3-1.6 0-2.4-.2-.6-.2-2.4-.2-3.7-.5-.4-1-.9-1.4-1.5.1.5.1 1.1.2 1.7.2 1.6.3 3.1.3 3.3-.1.5-.1.9.1 1.4s-.1.8 0 1.1c0 .8.1 1.6.3 2.3z"/><path d="m185.1 385c0-.2 0-.4 0-.6-1-.5-2-1.1-3-1.6.1.5.2 1.3.3 2.1.3 1.6.5 3.2.6 3.9s-.2.7.3 1.6.2 1.3.2 1.3c.2 1 .4 1.9.7 2.9l.2.2c0-.2 0-.4 0-.6s.1-.4.1-.6c.1-.4.2-.9.2-1.3 0 0-.2-.8 0-1.5s.5-.5.1-1.3c-.3-.7.3-3.9.3-4.5z"/><path d="m214.9 394.2c-.5.2.5-.4.7-.7.1-.1 1.2-.7 2.4-1.5-.3-.6-.6-1.2-.8-1.9-1.6.9-5.2 2.5-5.2 2.5s.5-.4 1.1-.7 2.6-2.2 3.7-2.8c-.2-.6-.5-1.2-.6-1.9-.1.1 0 .2-.7.5s-7.5 2.9-6.7 2.5c.3-.2 1.6-.7 2.8-1.4 1.6-.8 3.3-1.8 3.4-2 0-.2.5-.6.8-.9-.1-.3-.2-.6-.2-1-.6.2-1.1.5-1.8.6s-2.6.8-3.7 1.3c-1 .5-4.5 1.9-4.1 1.4s4.9-2.1 5.6-2.6c.7-.6 2.4-1.9 2.8-2.2.1-.1.4-.3.7-.5 0-.1-.1-.4-.1-.5-.5.2-1.1.3-1.2.2-.5-.3.3 1-1.2 1-1.6 0-.3.2-2.4.7s-1.4.6-2.3.7c-.9 0-5.3 1.9-4.3 1.2.9-.7 5.2-2.2 5.7-2.8.5-.5 1.9-1.1 2.6-1.5.3-.1.8-.4 1.1-.6-.4-.2-.8-.3-1.2-.5-.7 0-1.4.1-1.5.2-.2.1-.5.7-1.3.8-.9 0-1.9.7-5.1 1.9s-3 .9-2.2.5c.8-.3 4.1-2.1 5.4-2.9 1.2-.7 1.8-1.3 2.3-1.7-.4-.1-.8-.3-1.1-.5-.3.1-.5.2-.8.2-.9.2-2.8 1-4.5 1.8-1.8.9-3.6 1.8-3.6 1.8s.8-.5 1.1-.9c.2-.2 3-2 3.7-2.1.8 0 1.7-.8 1.6-1 0-.2.2-.4.4-.8-1.5-.8-2.4-1-2.8-1.8s-4.1-2.5-7.7-3.8-3.8-2.4-2-1.6c1.8.7 8.2 2 10.7 3.3 2.6 1.3 4.3 2.3 6.7 3.7.2-.9.4-1.8.5-1.9.2-.2.3-1.4 0-2.1-.2-.3-.2-1-.2-1.7-5.7-2.5-9.3-3.7-13.9-4.8s-13.6-4.4-13-2.6 1.3 10 6.2 16.5c4.8 6.6 22.9 13.5 29.4 14.3-.5-1-1.1-2-1.6-3.1-1.7.8-3.1 1.5-3.6 1.7z"/><path d="m217.6 402.4c1.5.7.5.7 1.8 1.1s.8 1.1 1.2 1c.1 0 .9.4 1.6.7.1.1.2.1.3.2l.3-.1c-.4-.3-1.3-.8-1.8-1.3-.3-.3-1.9-1.9-2.2-2.3-.3-.3-.5-.5-.9-.8-1.3.1-2.6.2-4 .3.6.1 1.7.3 2.2.4s0 .1 1.5.8z"/><path d="m197.6 431.7c.1.1.1.2.2.3.3-.2.6-.4.9-.6-.1-.4-.2-1-.3-1.5 0-.2-.1-.4-.2-.6-.5-.1-1.2-.3-1.8-.4.3.7.5 1.1.5 1.3.2.1.2.5.7 1.5z"/><path d="m194.5 391.6c-.7-.3-1.3-.6-1.9-.9.3 3.1.2 4.7.5 5.4.4.8.1 1.5 0 1.8.1.2.5 1.3.9 2.3l.7.6c-.1-.6-.2-1.4-.2-2 0-.9-.3-2.5-.1-3.3.2-.6.1-2.3.1-3.9z"/><path d="m196.1 432.9.3.1c.1-.1.2-.2.3-.3v-.5s-.3-.6-.3-1.2.3-.5-.2-1c-.2-.2-.3-.8-.4-1.4-.6-.2-1.2-.3-1.9-.5.3.7.6 1.3.6 1.5.3.7 0 .6.6 1.3.6.6.5 1 .5 1z"/><path d="m188.4 429.6c0 .1.4.7.8 1.2.3.1.6.2.8.3-.2-.4-.3-.7-.4-1-.2-.7-.8-2.1-.8-2.5s-.2-.7-.4-1.3c-.5-.2-1-.4-1.5-.6.5 1.3.8 2.1 1.1 2.5.4.6.3 1.1.4 1.4z"/><path d="m191 431c.1 0 .2.2.4.6.2.1.3.1.5.2-.1-.3-.2-.6-.2-.8 0-.4-.4-2.1-.5-2.8 0-.2-.1-.5-.3-1-.6-.2-1.2-.4-1.7-.6 0 .2.2.5.6 1.2.9 1.5.1.9 1 1.9.8.9-.2 1.1.2 1.3z"/><path d="m192.1 390.4c-.9-.5-1.6-.9-2.2-1.3.1 2.4.4 5.8.7 7 .6 2.1.6 3.2.7 3.2v.2l.3.2v-.3c.1-.4.2-.8.2-1s.2-2.4.2-3.9 0-2.7.1-4.1z"/><path d="m215.1 423.1c-.3 0-1.1 0-2-.1h-.1c-1.2.6-1.6.9-1.8 1.1s-.4.3-.9.6c.3.1.5.2.5.2 1-.4 3.4-1.4 4.3-1.8z"/><path d="m186.2 425.5c-.6-.2-1.2-.4-1.8-.6.6 1.5 1.2 3 1.6 3.7.3.6.6 1 .8 1.4.2.1.4.2.6.2 0 0 .1.1 0-.1-.1-.1-.5-2-.8-3s-.2-1-.4-1.6z"/><path d="m193.4 431.6c0 .1.1.3.3.6.1.1.3.1.5.1-.2-.6-.5-1.2-.5-1.2s-.3-1.3-.2-1.5c.1-.1-.1-.9-.4-1.8-.6-.2-1.3-.4-2-.6.4.8.7 1.7 1.1 2.2.5.6 1 1.9 1.2 2.2z"/><path d="m199.1 455.8c-.6 0-1.2 0-1.8-.1 0 .1.1.1.1.2.2.4.4.7.9 1 .4.3.4.6.6.8l2.3 2.3h1c-.6-.9-1.6-2.4-1.6-2.7 0 0-.8-.9-1.5-1.5z"/><path d="m303.6 503.9.2.4c.3.5.8 1.6 1.1 2.4.6-.5 1.2-1 1.7-1.4-.2-.5-.5-1.1-.9-1.7-.9.2-1.6.3-2.1.3z"/><path d="m331.8 504.3c.3 0 .9-.1 1.5 0-.9-.5-1.7-1.1-2.6-1.7-.9-.1-2.2-.4-2.9-.5.1.2.2.4.3.6 1.2.6 3.3 1.5 3.7 1.6z"/><path d="m337.3 506.6c-.6-.1-1.3-.2-2.2-.4-1.4-.2-4-.2-4.2-.3-.3-.1-.8 0-1.2.1h-.1c0 .1.1.2.2.4.1.1 1.3.3 3.2 1.2.9.5 3.1 1.1 5 1.7s3.6 1.2 3.6 1.2-.8-.2-1.2-.1c-.1 0-1-.1-1.9-.3s-1.9-.5-2.2-.7c-.7-.5-1.9-.5-2.1-.4-.2.3-2.3.3-3.2.4.9 2.5 1.5 4.6.6 2.7-.7-1.4-2.2-4.1-4-6.9-.4.2-.8.6-1.4 1-.8.6-1.8 1-2.1 1-.3-.1-1.4.7-1.4 1.5-.1.3-.6 1-1.3 1.4-.7.5-1.5.8-1.6.8-.6.1-1.2.5-1.2.5s1.3-1 2.4-2.2 2.3-3 2.6-3.9c1-2.1 1.9-2.9 1.8-3.1h.1l-.2-.4-.1.1c-.4.2-.9.5-1.1.7-.1.2-2.4 1.6-3.5 2.5s-1.6 1.2-2.2 1.8c-.7.6-1.1 1.1-1.3 1.5s-.5-.1.2-1.8c.8-1.7 1.2-1.8 1.8-2.3.7-.6 1.1-1 1.2-1.4.3-.8 1.4-1 1.6-1.3.2-.2.9-2 1.2-3.1l-.3-.5s-.1 0-.1-.1c-.5.5-1.2 1.4-1.6 1.9-.8.6-2.2 1.9-3 2.1s-1.6.8-2.6 1.6c-.8.7-1.2 1.4-1.7 1.8s1.3-2.3 1.5-3 .3.1 1.6-1.6c1.3-1.6 1.3-.5 1.7-2.1s2.1-.6 1.8-1.2c0-.1.1-.4.3-.7-.2-.1-.5-.3-.7-.4-.2.2-.4.4-.6.5-.6.3-3.4 1.8-3.9 2s-.5.2-.9.4c-.3.3-.7.5-1.1.7-.3.2-.6.4-.9.6-.1.1-.1 0-.2.1.3 2.9.9 7.5 2.3 10.3 1.5 2.9 7.1 11.3 8 11.1s4.6-5.1 5.7-6.5c1.2-1.4 1.8-.3 1.6 1.1-.2 1.3-1.7 8.3-1.7 9.7s2.1 2.6 3.4 4.2c1.4 1.6 3.1 5.1 3.4 3.9.4-1.2.7-6.3 1.7-8.1s3.6-10.4 4-12.7c.4-2.2 1-3 1.7-4-.1-.3-.1-.6-.2-.9-1.5-.4-3.2-1.2-5-2.1z"/><path d="m302.3 502.7c-.4-.4-2.4-2.6-2.8-3-.5-.4-.9-1.2-1.2-1.7l-.2.2.1.1c.3.6.8 1.5.7 1.6-.2.4 1 0 1.3 1.4s.4.4 1.2 2.3c.9 2 .9 1.4 1 2.2.1.4.5 1.3.9 2.3.2-.2.5-.5.7-.7s.5-.4.8-.6c-.5-1-1.1-2.2-1.7-3.2-.6 0-.8-.3-.8-.9z"/><path d="m302.2 507c-.6-1.2-1.2-2.2-1.8-2.7-.5-.5-1.5-2-2.1-2.7-.5-.5-1-1.5-1.3-1.9 0 .3-.1.7 0 1.1.2.8.6 1.8.7 1.9.2.2.9.7 1.1 1.4.2.8 2 3.5 2.7 5.1.1.1.1.2.1.3.4-.4.7-.8 1.1-1.2 0-.3-.2-.8-.5-1.3z"/><path d="m301.2 498.4s-.8-1.2-1.4-2.1c-.1.1-.2.2-.3.3.4.7.8 1.4.8 1.5.2.4 1.3 2.1 1.6 2.7.2.6.3.7.5 1.1.1-.1.1-.2.1-.5 0-.4-.1-1.2-.6-2.3-.4-.3-.7-.7-.7-.7z"/><path d="m312.6 495.3c.5-.4 1-1 1.6-1.7-.1-.2-.4-.4-.5-.5s-1.3-1.4-2.5-2.5c-1-1-2-1.6-2.2-1.9-.3-.5-.5-.4-.7-.6-.3-.1-.5-.3-.5-.3l-.2-.3c-.1 2.1-.2 4.3-.5 5.5s-1 2.7-1.7 3.9c.1.4.4-.3 0 1.1-.4 1.6 3.9 0 7.2-2.7z"/><path d="m296.7 476.4c-.4 0-.7.1-.9.1.6 1.9 1.3 3.9 2.2 6.1.9-.4 1.9-.8 2.8-1.2-1.5-1.4-2.9-3.1-4.1-5z"/><path d="m305.2 485.3c-1.4-1.1-2.8-2.3-4.1-3.6-.2.1-.4.2-.6.3-.3.2-1.3.6-2.3 1 .1.3.2.6.4.8 2.7 5.9 5.9 9.9 6.7 12.5.9-2.1.7-4.9.2-8.7-.2-.9-.3-1.7-.3-2.3z"/><path d="m298.9 505.8c-.9-1.1-2.5-2.6-2.6-2.8s-.4-.4-.7-.6c-.1-.1-.1-.1-.2-.2 0 .1 0 .2-.1.3 0 .1.6.8 1.4 2.4.4.8 1.7 2.7 2.7 4.4.4.6.7 1.2 1 1.7.4-.5.7-1 1.1-1.4-.2-.3-.4-.7-.6-1-.6-.9-1.1-1.7-2-2.8z"/><path d="m298.2 508.2c-.2-.7-1.2-1.6-1.4-1.7-.3 0-1.2-.5-1.9-.9-.1 1.5-.1 2.3-.2 3.8s-.7-2.2-.7-4.2.3-2.5.8-4.2c-.7-.2-1.3-.4-1.5-.6-.2-.3-1.5-.6-2.2-.3-.8.4-5 .3-5.3.2-.4 0-.9-.1-1.3 0 1.2 4.9 2.3 9.3 3.9 12.2 1.7 2.9 7.3 9.5 8.1 11.8.8 2.4.1-1.2-.4-3.5-.4-2.3 1.8-5.9 4.1-9.2-.5-.9-1.9-2.9-2-3.4z"/><path d="m212.8 455.8c-.6 0-1.3.1-2 .1.7.8.3.7 1.3 1.3 1 .5 1.1 1 1.1 1l2.1 1.8h.4l-.3-.6-.8-1.2s-.7-.6-1-1.3c-.4-.7-.1-.7-.8-1.1z"/><path d="m377.5 518.8c-.1 0-.1 0-.2 0-1.7-.3-3.4-.7-5-1.1.9 1.5.1 1.9.1 1.9s-.9-1-2.3-2.4c-3.8-1-7.6-2.2-11.4-3.3-.1.2-.2.4-.2.5-.1.4-.8 1.1-1.5 1.8-.7.6-1.4 1.2-1.5 1.2-.5.2-1.2.7-1.2.7s1.2-1.3 2.5-2.8c.4-.5.8-1 1.2-1.6-1.1-.3-2.1-.6-3.2-.9-.1.1-.2.2-.3.3-.8.8-1.3 1.4-1.6 1.9s-.5 0 .6-2c.1-.2.2-.3.3-.5-.1 0-.3-.1-.4-.1-.9-.2-1.8-.5-2.6-.7-.1.2-.3.3-.5.4s-.1-.1.1-.5c-1.3-.4-2.6-.8-3.9-1.2 1.2 4 4 6.4 6.9 8.5 3.8 2.8 14.1 5.5 18 7.6s3.8 3.4 4.9 3.1 1.6-4.8 1.2-9.1c.1-.5 0-1.1 0-1.7z"/><path d="m281.5 458.4c-.2-.4-.4-.7-.6-1.1.2 1 .5 2.5.5 2.7.2.4.7 1 .8 1.8s.9 2.5 2.2 5.9c1.3 3.5 1 3.1.7 2.3s-2.1-4.6-3-6.5-1.8-3.6-1.9-3.9c0-.1-.3-.5-.5-.8l-.1.3c.2.5.5 1.4.9 2.8.6 2.1 3.8 10 3.8 10s-.5-.9-.8-1.4c-.2-.3-1.9-4-2-4.8-.2-.8-.9-2.3-1.1-2.4-.3-.3-1.6-2.6-2.1-3.4-1.3 1.7-1.2 4.1-1.6 6.6l.6 1.4s.3.2.3.7.2.4.4.8c.1.3.7 1.4 1.1 2.2.6-1.8 2-4.3 2.3-2.8.4 1.5 1.2 4.7 1.2 4.7s1.9-.7 3.7-1.6c1.8-1 2.4-1.3 3.7-2.1.2-.3.4-.6.5-.9-3.1-3.3-6.6-6.4-9-10.5z"/><path d="m278.3 458.5h.3c.3-.3.7-.7 1.1-.9l.4-.6c.1-.2.2-.3.3-.4-3.2-5.9-6.1-11.9-9.9-17.5-3.8-5.8-6.6-11.8-5.9-18.9 0-.1 0-.1 0-.2-.7-2.2-1.2-4.4-1.4-6.6-.4-3.4-.4-6.8-.3-10.2 0-.7.1-1.3.3-1.9-.1-.9-.1-1.9-.1-2.8-.6-.7-1.2-1.5-1.7-2.6-1.2-2.2-.1-1.7 1.9-.4.5-5 1.8-10.1 2.6-14.8.1-2.1.3-4.3.8-6.4v-.1c-.8-.3-1.9-1.3-2.3-2.7-.5-1.9-4.8-10.4-13.8-16.1-.9-.6-1.9-1.2-2.9-1.7-2.1-.3-3.1-.3-4.9-1s-10.5-4.7-11.9-5.6-1 .8.5 4.1 1.6 7.3 4.7 9.4 7.2 5.5 3.8 3.8-6.3-1.7-5.3-.5c1.1 1.3 6.5 10.5 9.7 13.1s3.8 4.7 3.1 5c.4.5.1 1.1-1.8.8s-5.9.9-11.9 1.4-11.6-.5-13.4-1.8-2-.9-1.1 4.2 9.9 12 13.8 14.2c3.8 2.2 10.6 2.8 12.4 3 1.7.3.3 2.1-1.8 2-.1 0-.3 0-.4 0 .8.2.9.4-.5.5-4.7.5-10 3.9-11.4 6.7 1 .2 3.7.8 4.2.9.7.2.5.3 1.1.3s1 .2 1 .2l2.1.4.4.1-.2-.2-.8-.5s-.6-.1-1-.5c-.4-.3-.2-.4-.8-.4s-2.6-1.2-3-1.4-.8-.3-.8-.3 3.9 1.1 4.1 1.2c.3.2.5.3 1.4.5s1.1.3 1.1.3l1.7.2.8.3c1.2-.4 2.3-.8 3.4-1.1l-.7-.3-1.3-.6s-.1-.1-.3-.3-.1-.3-.6-.4c-.2-.1-1-.7-1.9-1.2-1.2-.7-2.6-1.3-2.6-1.4-.2-.2-1.1-.6-.6-.4s5 2.1 5.2 2.3c.3.3.6.4 1 .5s.5.4.8.5l2.8 1c.5-.1.9-.1 1.3-.2 1.5-.2.6.8-1 .8-.5 0-1.2.2-1.9.4v.2l-.4 3.4s.2.7-.1 1.5c-.3.9 0 .8-.1 1.8-.1 1.1-.5 8.1-.6 7.1 0-.4-.1-1.8-.1-3.3 0-1.9 0-3.9-.1-4.2-.2-.4-.3-2.3-.3-2.3s.1-2.4.1-3.5v-.3c-1.1.4-2.4.9-3.7 1.4-.2.1-.5.2-.7.3v.1c-.3.7-.6 2.3-.6 2.5 0 .3.4.8.1 1.5-.2.6 0 1.9.1 4.7 0 2.7-.5 4-.5 3.3s-.2-5.2-.4-6.7-.5-2.9-.6-3.2c.1-.1 0-.4-.1-.6-.3.3-.6.6-.8.9v.1c-.3.5-.7 1.6-.7 1.8s.4.8.1 1.3c-.3.4 0 1.6-.1 3.9s-.3 2-.3 1.4-.4-3.3-.5-4.6c-.1-.6-.2-1.2-.2-1.7-.9 1.2-1.1 1.5-2.2 3.7s-4.7 4.2-3.1 3.1c1.6-1 3.5-6.6 4.9-9.1v-.2h.1c.2-.3.2-.4.5-.7.3-.4 1.7-1.3 3.2-2-.6-.2-2-.6-2-.6s-1.1-.4-1.3-.6c-.1-.1-1.3-.5-2.5-.8-.7-.2-1.3-.4-1.7-.6-.1.2.2-1-.2.6-.5 1.6-3.4 13.5-5.5 15.7-2.2 2.2-2.4 2.7-.1 2.3s8.9-.8 14.4-1.8c5.4-1 6.2-1 7.7-1.2 1.1-.8 2.3-1.5 3.4-2 1.4-.6 2.4.2 1.5.8-.8.6-1.4 1.5-3.8 4.8s-5.3 7.8-5.6 9.3c-.3 1.6 5.2 2.2 6.6 2.6s1.7 1.5.7 1.6-6 .5-8.2 1-.3 5.3-.1 8-.8 4.5.7 3.3 17.6-3.6 20.5-4.1c3-.4 5.9 0 7.7.3.6-.5 1.3-.8 2.1-1.3 1.3-.5 3.3.2 2 .9s-3 3.1-3.4 4.5c-.5 1.4-.1.6-.2 1 .4 0 2.3 0 2.7-.1.5-.2.2 0 1.4-.1 1.3-.2.8.1 1.6-.2.4-.6.7.1.8-.1zm-32.1-66.4c-1.7-.2-1.3-.2-1.9-.3l-.3.4c-.6.3-1.5.7-1.6.7-.5-.1.4.8-1.1 1.2-1.5.3-.3.2-2.1 1.1s-1.1.9-1.9 1.1-3.9 3-3.4 2.1c.5-.8 3.8-3.2 4.2-3.8s1.7-1.5 2.3-1.9l1.6-1.2c-.9-.2-1.8-.4-2.7-.6l-2.8 1.1c-.3.1-.3.5-.8.6-.4.1-.8.4-1.1.7-.2.3-5.1 2.6-5.7 2.9-.6.2.4-.3.5-.5.1-.1 1.6-.9 2.7-1.7 1-.7 1.7-1.5 2-1.5.6-.1.5-.3.6-.6.1-.2.3-.3.3-.3l1.4-.8.5-.3-.3-.1h-.1l-2.1.9s-.1.4-.9.4c-.7.1-.4.2-1 .5s-4.6 2.3-4.2 1.9c.2-.2.9-.6 1.6-1.1 1-.6 2.1-1.3 2.1-1.4 0-.3.9-1 .9-1s1-.6 1.6-1c-3.5-.9-7.8-1-10-3s-.6-.9 1.8.5c2.5 1.4 8.4 1.9 13.4 2.7-.2-.2-.5-.5-.7-.6-.5-.5-1.4-1.3-1.7-1.7-.3-.5-2.6-2.8-3-3.4s1.9 1.8 2.4 2.2 0 .1 1.3 1.2c1.3 1 .5.6 1.5 1.3 1.1.6.4.9.8 1 .1 0 .3.2.7.4.9.1 1.7.4 2.4.5-.3-.2-.7-.6-.8-.9-.2-.3-1.2-1.6-1.6-2.2-.4-.5-2.8-3.1-2.9-3.4s1.7 1.7 2.3 2.3c.5.6 1.6 1.7 2.2 2.1s1.4 1.3 1.7 1.5c.1.1.8.7 1.3 1.2 2.5.6 2.3 1 .6.8zm13.5-17.9c-.5-1.3-.3-.9-.5-1.3h-.1c0-.1-1.4-.3-3.8-1.3-2.4-.9-12-3.2-12-3.2s1.1.2 1.8.2c.4 0 5 .9 5.9 1.3.9.5 2.7.7 3 .6.4-.1 2.6.2 4 .3-.3-.4-.6-.9-.9-1.3l-.6-.2c-.5-.2-1.2-.5-1.2-.6-.1-.3-.4.4-1.3-.3-.9-.6-.3-.1-1.8-.7-1.4-.7-1.1-.3-1.6-.6s-3.8-1.2-3-1.1c.9.1 4 1.1 4.6 1.1.6.1 1.8.5 2.4.7.5.2 1.3.5 1.7.6-1.2-1.7-4.5-5-8.1-8.3h-.1c-.5-.2-1.2-.4-1.3-.5-.2-.3-.3.4-1.4-.2-1-.6-.4 0-1.9-.6-1.6-.6-1.2-.3-1.8-.5-.6-.3-4.1-1-3.3-1 .9 0 4.3.9 4.9.9s1.9.4 2.6.5c.3.1.7.2 1 .3-3.2-2.7-6.1-3.7-8.1-4.7s-3.8-3.1-2-1.6c3.6 1.5 9.3 4.6 13.2 7.8.1-.4.3-.8.3-.9.1 0 .2-.8.2-1.2-.1-.5.1-2.4.2-2.5.1-.2.1-.5.2-.6 0 .6-.2 4.1-.1 5.2.1.3.1.5.1.8.6.5 1.2 1.1 1.7 1.7 0-.2 0-.4-.1-.6.1-.5 0-1.4.1-1.7.1-.4.1-2.8.4-3.4.2-.5 0 1.9.1 2.4.1.4-.1.1.1 1.2.2 1.2-.1.6.2 1.4s-.4.7-.1.9c0 0 .1.3.1.7.1.1.1.2.2.3 0-.3 0-.6.1-.8 0-.3.2-1.4.4-1.8.1-.4.1-2.9.3-3.1s.1 1.7 0 2.2c0 .6 0 1.5.1 2s.1 1.4.1 1.6c0 .1.1.8.2 1.3v.1c2.4 3 4.1 4.5 5.3 6.5.9 1.7.1 3.4-.4 2z"/><path d="m188.5 457.5c.1 0 .4.2.8.5l.7.2c-.3-.3-.7-.7-.9-.9-.3-.4-1.7-2.4-2-3-.6-.1-1.3-.1-2-.2l.4.4c.9.8.5.9 1.9 1.7 1.3.7.6 1.2 1.1 1.3z"/><path d="m192.8 458.7.5.1c-.8-.8-2-2-2-2s-1-1.3-1-1.6c-.3-.2-.6-.5-.7-.8-.6 0-1.2-.1-1.9-.2.4.4.7.7 1.2 1.1s2 1.9 2.4 2.2c.1.1.8.7 1.5 1.2z"/><path d="m181.3 453.5c-.6-.1-1.3-.2-2-.4.6 1.2 1.9 2.4 2.7 3 .3.2.5.4.8.5l1.1.2c-.4-.5-1.3-1.6-1.8-2.1-.4-.5-.6-.9-.8-1.2z"/><path d="m215.6 471.9c-.2.3.1-.5.1-.8 0-.2.5-1.3.9-2.5-.2-1.4-.4-2.8-.5-4-.1.2-.1.2-.5.8-.4.7-.6 1.3-.7 1.6s-.6 1.4-1.1 2.5c-.5 1.2-1 2.2-1 2.2s.1-.6.3-1 .2-1.1.3-2 .1-1.6.5-2 .2-.5.1-1.2c0-.7.4-1.3.4-1.3 0-.4.1-.9.1-1.3v-.2h-.7c-.3.5-.6 1-1 1.5 0 0 .2.6-.5 1.1s-.4 1-.6 1.3-.1.2-.2.4c.3-.1.4-.2.5-.2.9.1-2.8 6.2-1.9 6.2 3.6.2 5.2.2 7.2 0-.2-1.1-.4-2.2-.6-3.3-.4 1.1-.9 1.9-1.1 2.2z"/><path d="m223.3 443.6c.1-.7.3-1.5.3-2.1s.1-1.1.1-1.2 0-.1 0-.1l-.8.2c-.1.4-.4 1-.7 1.6-.5.7-1.4 2.4-1.7 3.8-.3 1.3-.5 2.5-.5 2.5s.1-.6 0-.9c-.1-.1-.2-.7-.2-1.4 0-.6.3-1.3.5-1.6.5-.5.6-1.5.5-1.6-.1-.2-.3-.9-.2-1.6v-.3c-2.6.7-2.5.7-6.9 1.9s-6 1-5 .5c1-.4 4.7-1.5 8.5-2.8-.3-.2-.8-.4-1.2-.7-.8-.5-1.6-.9-1.7-1.1 0-.1-1.4-.7-2.4-.8-.5 0-1.7-.4-2.8-.7s-2.1-.7-2.2-.8c-.4-.2-1.3-.6-1.3-.6s2.1.6 4.5 1.2c2.3.6 5.1 1.4 6.3 1.6 1.7.4 2.8.7 3.4.9.2-.1.3-.1.5-.2-.2-.2-.5-.4-.7-.5s-2.5-1.3-4-1.8-2.4-.8-3.7-1.2-2.2-.7-2.9-.8c-.7-.2-.1-.2 2.7.3s3.2.7 4.2 1 1.6.5 2.2.5c1.1.1 1.7.7 2 .8s1.5.4 2.6.6c.3-.2.6-.3.8-.4-.6-.2-1.2-.5-1.6-.7-1-.5-3.1-1.1-3.6-1.5s-1.8-.7-3.2-1.1-2.6-.6-3.3-.9 3.8.7 4.8.7.1.1 2.7.6c2.5.5 1.1.6 3.1.7 2 .2 1.3 1.3 1.9 1.1.1 0 .4.1.9.2.2-.1.4-.1.7-.2-.4-.2-.8-.5-1.1-.7-.6-.4-3-1.8-3.7-2.2-.4.1-.3 0-.9.2-.5.1-1.2-.2-1.3-1-.4-.1-.8-.2-1.2-.3-1.4-.4-2.6-.6-2.8-.8s2.5.3 4 .7c0-.7.3-1.6.7-2.2-.7-.2-1.3-.4-1.5-.5-.3-.1.5 0 1.6.2.2-.3.4-.5.7-.8.3-.2.7-1.2 1-2.4-4.1 1.6-11.5 4.3-15.6 6.7-4 2.4-9.5 11.2-11.2 13.6s-1.5 5.4.5 4.6 14.9-.8 16.4-1 6.5-1.6 10.3-2.6c.2-.4.5-.7.8-1.1 0-.3 0-.7 0-1.2.4-.6.6-1.5.7-2.3z"/><path d="m245 469.1c-.1-.3-.2-.8-.2-1.2l-.5.2c-.1.5-.2.8-.3.9-.5.2 1.1.5.3 1.6s0 .4-.5 2.1 0 1.3-.3 1.8-.3 3.6-.6 3-.2-1.4-.2-2.3c0-1 0-1.9-.2-2.4s-.1-2-.1-2.8c0-.3 0-.8 0-1.2l-.9.3c-.3.7-.6 1.4-.6 1.6s.4.8.1 1.5c-.2.3-.3.7-.3 1.4s0 1.1-.3 2.7c-.4 1.6-.8 1.7-.7 1.3s.1-.9.1-1.8c0-.8-.1-1.4-.1-2.5 0-1-.4-2.7-.4-2.8 0-.2 0-.3-.1-.5-.2.1-.4.2-.5.2-.1.4-.2 1-.5 1.9-.3.7-.6 2.3-.8 3.7s-.4 2.5-.4 2.5 0-.5-.2-.8c0-.1 0-.7 0-1.3s.1-1.4.3-1.6c.3-.5.2-1.4 0-1.5s-.6-1.1-.8-1.8c-2.3 1-4.2 1.7-3.2.9s4.8-3.5 6.9-3.8c2.1-.2 2-.7 3.1-1.5-1.7-.6-4-1.5-4.4-1.9-.2-.2-2.5-.8-3.6-.6-1.2.2-6.6-.2-7-.2-.1 0-.1 0-.2 0 1-.3 2.4-.7 4.1-.6 3.3 0 7 .5 8.6.5 3.2.1 4.9.6 5 .5h.2l.3-.2c-.1 0-.3-.1-.4-.1-.6-.3-1.3-.7-1.6-.7s-1-.3-2.1-.6c-.1 0-.2 0-.5.1-.3 0-.9-.2-1.3-.6-.7-.2-1.6-.4-2.4-.5-3-.5-8.8-.9-10-.6-1.1.3-1.3-.1 3.3-.6 4.5-.5 6.6.1 8.1.2-.3-.6-.6-1.2-.8-1.9-1.9-.4-8-.3-9.7-.6s5.4-.5 6.5-.7.5 0 2.8.1c-.3-.8-.5-1.6-.7-2.2-2.7-.3-6.4-.4-7.1-.7s5.5-.2 6.4-.1.2 0 .4 0c-.3-.7-.4-1.7-.4-2.8-2.1-.3-4.1-.6-4.6-.6-.7-.1 1.8.1 4.7.3 0-1.2.1-2.5.3-3.6-.4-.1-.7-.2-.9-.2-1-.1-1.9-.4-1.9-.4s1.3.2 2.9.4c.1-1 .4-1.8.5-2s.6-.4 1.4-.6c-.6-.1-1.1-.2-1.2-.2-.5-.2-2.1-.5-1.5-.5s2 .2 3.8.5c2.5-.6 5.9-1.1 5.9-1.1s-4.8-.6-6.3-.4-1.7-.2-2-.9c-4.1 3.1-8.9 8.9-11 13-2 4.1-3.9 17.9-2.9 22.2s-.6 6.9 1.3 6.5c2-.4 7.7-2.1 8.6-3.8s6.7-2.4 10.7-3c.5-1.3 1.2-2.9 1.9-4.7 0-.2-.1-.4-.1-.5-.5-.6-1-2.8-1.2-3.4z"/><path d="m210.7 466.2c-.2-.3 0-1.8 0-1.8s.4-.9.7-1.8h-.5c-.3.5-.7 1-.7 1-.2.3-.8 1.7-1.2 2.2-.5.6-1 1.9-1.3 2.7-.2.8-1.5 2.8-1.6 2.5s.4-.9.8-1.8.7-1.7.7-2.3.3-2.7.3-3.2c.1-.4.3-.9.5-1.3l-.5-.1c-.3.5-.7 1-.8 1-.5 0 .7.8-.3 1.5-1 .8-.1.4-1.1 1.7s-.4 1.1-1 1.4-2.3 2.4-2.1 1.9c.1-.5.7-1 1.1-1.7.4-.8.7-1.5.7-2s.6-1.8.9-2.5c.1-.4.5-1.1.7-1.6h-.7c-.7.6-1.6 1.4-1.7 1.6s.1.9-.5 1.3c-.3.2-.5.6-.8 1.1s-.3.8-1.5 1.9-1.6 1.1-1.3.8.6-.7 1-1.4c.4-.6.5-1.2.9-2.1s.8-2.6.9-2.8.1-.5.1-.8h-.4c-.2.3-.6 1-1.5 1.9-.6.6-1.6 1.8-2.4 3-.8 1.1-1.4 2.2-1.4 2.2s.2-.5.2-.9c0-.1.2-.6.5-1.3.2-.5.6-1.1.9-1.3.5-.3.8-1.2.7-1.4s0-.9.1-1.6c.1-.3.1-.7.2-.9-1.8-.2-3.3-.4-4.2-.5s-2.1-.4-3.5-.7c-.4.4-1 .7-1.6 1-.3.1-1.2.8-1.9.9-.7.2-2 .8-2.7 1.3s-3.2 2.1-3.1 1.7 1-.8 1.9-1.4 1.8-1.2 2-1.4.6-.6 1-1 .7-.7.8-.9c.3-.3.7-.7 1.1-.9l-.4-.1c-.5.3-1.1.5-1.3.5-.5-.2.4.8-.9.9s-.3.1-1.9.7-1.2.7-1.7.8-1.3.7-2.1 1.2c-.9.5-1.6.9-1.3.5s1.4-1 2.3-1.6 1.7-1 1.9-1.4c.3-.4 1.4-1 1.9-1.4.2-.2.7-.4 1-.6-1.4-.4-2.7-.8-3.9-1.2-.2 0-.3 0-.5-.1l-.1-.1c-2.1-.7-3-1-4.6-1.3-1.6-.4-2.9-1.7-1.1-1.1 1.8.5 2.4.6 4.4 1-.2-.3-.4-.6-.4-.6.1-.1-.5-.9-1-1.3-.2-.1-.5-.7-.7-1.3-4.5-.8-9.7-2.1-14.6-4-5-1.9-14.7-7.9-11.7-4.2 3.1 3.7 15 17.7 28.1 22.1 9.7 3.3 17.1 4.9 23.3 5.6.5.1 4.1-3 6.4-4.7.4-.7.6-1.3.5-1.5z"/><path d="m204.2 455.9c-.6 0-1.1 0-1.7 0 .6.6 1 .9 1.3 1.1.8.5 1.1 1.1 1.3 1.4.2.2 1.9 1.3 2.8 1.8h.4c-.3-.4-1.3-1.2-1.7-1.7-.6-.7-2-1.9-2.4-2.6z"/><path d="m290.1 478.7c-.7.8-1.3 1.7-2 2.6.9.1 3.1.3 5 .5-.4-.9-.8-1.8-1.3-2.6-.8-.2-1.5-.3-1.6-.4 0 0-.1 0-.1-.1z"/><path d="m205.3 455.8c1.5 1.3.5.9 1.9 1.7 1.5.7.7 1.4 1.2 1.4.1 0 1 .7 1.6 1.2l.1.1h.4c-.4-.4-1.2-1.1-1.5-1.6-.3-.4-1.4-1.9-2-2.7-.6 0-1.1 0-1.7-.1z"/><path d="m185 456.6c.2.1.5.3.9.7l1.3.3c-.3-.2-.5-.5-.7-.6-.7-.7-1.9-2.1-2.1-2.4-.2-.4-.3-.4-.4-.7-.6-.1-1.2-.2-1.8-.3.1.2.3.4.5.6.5.6.9 1 1.3 1.2.6.5.9 1.1 1 1.2z"/><path d="m216.3 458.2.6.4c.1-.2.2-.4.2-.6 0-.1 0 0-.1-.2s0-.4-.5-.8c-.2-.1-.5-.6-1-1.3-.5 0-1.1.1-1.7.1.2.3.4.6 1.3 1.4s1.2 1 1.2 1z"/><path d="m193.8 456c-.1 0 0 0 0 0-.7 0-1.3-.1-1.9-.2.1.1-.1 0 .4.3.6.3 1.1 1 1.1 1 .9.8 1.7 1.6 2.6 2.3.1 0 .2.1.4.1-.2-.2-.4-.4-.5-.5-.1-.2-.2-.3-.3-.5-.3-.4-.5-.8-.8-1.2 0 0-.7-.6-1-1.3z"/><path d="m196.8 456.5c-.1-.1-.3-.3-.5-.7-.6 0-1.1 0-1.5.1.1.2 0 0 .6.6s1.1 1.1 1.1 1.1c.7.6 1.3 1.1 1.9 1.6.2.3.4.5.6.8h.3c-.3-.3-.5-.6-.8-1-.4-.5-.7-.9-1.1-1.3 0 0-.2-.2-.2-.5 0-.2.2-.3-.4-.7z"/><path d="m201.5 455.8c-.7 0-1.3 0-1.9 0 1 1 2 1.8 2.6 2.2 1.5 1.2 2.3 2 2.6 2.1h.3c-.2-.4-.4-.8-.6-.9-.2-.2-1.3-1.7-2.6-3.1-.1 0-.2-.1-.4-.3z"/><path d="m209.8 455.9c-.7 0-1.4 0-2.1 0 .4.3.4.4.9.8s2.1 1.8 2.4 2.1c.1.1 1 .8 1.7 1.4h.4c-.7-.8-2-2.1-2-2.1s-1.1-1.4-1.1-1.7c.1-.1 0-.3-.2-.5z"/><path d="m275.4 460.1c.3-.3.7-.2.7-.2l1.4-.5h.1l.3-.3c-.1 0-.1 0-.2 0-.6 0-1.5.1-2.1 0s-3.4 0-4.1-.2c-.1.7 0 1.5 0 2.3 0-.1 2.7-.8 3.1-.9.5-.1.5.1.8-.2z"/><path d="m275.7 476.3c1.3-.1 3-2.9 3.2-3.9s.1-.4.1-.7c-.1-.2-.2-.4-.3-.6-.5-.8-1-1.7-1.2-1.8s-.8-.9-.8-.9-.2-.3-.4-.6c-.7 2.7-2.1 5.7-3.4 6.4s.7-1.4 1.7-3c.9-1.6.8-6.4.9-7.5.1-1 0-.5 0-.4h-.6s-.1 0-.3-.1c-.1-.1-.2-.2-.5-.1-.1.1-.8-.1-1.5 0-.3 0-.7 0-1 0 .3 2.7.9 5 .7 7s-1.9 6.4-2.9 7.4c-.9 1.2 5.1-1.1 6.3-1.2z"/><path d="m273.8 481.3c-.2-.1-.6-.5-.9-1-.4 0-.8.1-1.2.2.2.5.4.8.4 1.5s.9 3.3 1.2 4 .3.7.5 1.2c.8-.4 1.7-.9 2.6-1.3-.2-.3-.3-.6-.4-.8-.9-1.8-1.9-3.7-2.2-3.8z"/><path d="m273.8 462.8c.3.1.5 0 .7 0 .3-.1.4 0 .6 0l.5-.1c.2-.7.5-1.4 1-2.1-.4.1-.8.1-.8.1s-.9.1-1.1 0c-.1 0-1 .1-1.9.3-.7.1-1.3.2-1.5.3 0 .6.1 1.2.1 1.8 1.2-.2 2.3-.3 2.4-.3z"/><path d="m281.7 477.8-.8-5s-.3 1.9-.9 3.6c.2.2.9 1.6 1.6 3.1.5-.7 1.1-1.4 1.6-2.1-.9.3-1.5.4-1.5.4z"/><path d="m271.8 484.1c-.4-.6-1.6-2.5-2.2-3.3-.1.2-.3.4-.5.6.2.1.5 0 .4 1.1s.3.4.5 2.7c.3 2.3.5 1.9.5 2.5-.1.6.1.8.2 1.5.6-.5 1.5-1.1 2.5-1.6-.5-1.6-1-2.9-1.4-3.5z"/><path d="m277 479.4c-.7.2-1.6.4-2.5.5.1.4.4.4.7 1.1.2.7 1 2.5 1.6 4.3 0 .1.1.2.1.4l.4-.2c.1-.3.2-.4.5-.8s.8-1.1 1.3-1.7c-.9-1.1-2-2.8-2-3.2-.1-.4-.1-.3-.1-.4z"/><path d="m294.5 498.9c.4-.1.8-.3 1.1-.4.1-.5.3-.9.5-1.3-.6-.2-1.4-.5-3.2-.5s-7 .2-8 .5c-.9.3-1.5-.1 2.6-1.1s6.2-.6 7-1.2c.9-.5 1.8-.1 2-.1s.2-.1.5-.2c.3-.6.6-1.3.9-1.8-.2.1-.4.1-.5.1-1.1 0-3 .5-4.1.2-1.1-.2-6.8.6-8.2.4-1.4-.1 4.3-.9 5.2-1.4s.3.1 2.9-.6 2.2-.1 3.2-.7.6-.3.9-.3c-.1-.3-.3-.6-.4-.8-1.1-.1-2.4-.3-3.4-.4-1-.2-7.1.4-7.8.1s3.8-.7 5.2-.6c1.4 0 4.2-.3 4.8-.5s.2-.1.3-.1c-.3-.5-.5-1-.7-1.6l-.2-.4c-.9-.1-2.8-.3-4.6-.4s-3.5-.2-3.9-.2c-.5 0 1.2-.3 3.4-.4 1.7-.1 3.5-.1 4.7 0-.4-.8-.8-1.6-1.1-2.4-1.7-.5-3.8-1.1-4.3-1.2-.5 0-1-.1-1.3-.2-2.7 3.6-5.4 7.7-5.4 9.3 0 1.5.8 5.3 1.9 9.5.8-.1 2.5-.5 4.5-.7 2.3-.2 4.6-.3 5.5-.6z"/><path d="m279.4 477.6c-.3.6-.7 1.1-1 1.2-.3.2-.3.2-.5.3.1.1 0 0 .1.2s.8 1.7 1.5 3.1c.5-.7 1.1-1.5 1.6-2.3-.2-.3-.4-.7-.7-1.1-.3-.5-.6-1-1-1.4z"/><path d="m247.5 466.8c-.1.7-.3 1.6-.3 1.6-.1.3 0 1.3-.2 2 .4-.8.7-1.6 1.1-2.3-.1-.5-.1-1.1-.2-1.5-.1.1-.2.2-.4.2z"/><path d="m246.3 460.8c-.7.2-1.2.6-1.3.7s-.1.1-.1.2c1 0 2.1-.1 2.8-.2l.8.2.3-.3c-.2 0-.4-.1-.6-.1-.2-.2-1-.3-1.9-.5z"/><path d="m264.9 494c-.2-.2-1.5-2.6-1.3-3.3s-.2-1.6-.5-1.6-.9-.6-1.3-1.1c-.5.8-.6.6-1.2 2.6-.6 1.9-2.6 1.2-1.3-1.5 1.4-2.7 4-5.7 6.4-7.9-1 0-1.6-.2-1.9-.4-.8-.2-1.5-.3-1.7-.4-.2-.2-2-.3-2.8-.1-.8.3-5.5-.1-5.9-.2-.7-.2-1.9-.3-1.9-.3s2.6.1 5.3.1c2.6 0 5.3-.3 6.4-.6.4-.1.8-.3 1.2-.3.2-.2.4-.4.6-.6s.3-.3.4-.4h-.1c-.2.1-2.1-.2-4.3-.2s-6.9 0-8 0c-1 .1-1.5-.1 2.7-.5s6-.5 6.8-.9c.9-.5 1.8-.1 2-.2.3 0 1-.4 1.9-.8.1-.3.1-.7.2-1.1-.5.1-.9.1-1.3.2-1 .1-2.8.5-3.8.4-1.1-.1-6.5.7-7.9.4s4.3-.6 5.2-1 .3.2 2.7-.7c2.3-.9 1.5 0 2.9-1s1.9.6 2.1-.1c0-.1.2-.1.4-.2 0-.3 0-.5 0-.8-.3 0-.5 0-.7 0-.7 0-3.5.1-4.6.1s-6.3 1.1-6.9.8c-.7-.3 3.4-.8 4.6-1s3.3-.8 4.2-1.3 2.9-.9 3.3-1.1c0 0 .1-.1.2-.1 0-.3 0-.5 0-.9-.7.1-1.3.3-1.3.3s-2.1.2-2.6-.1c-.3-.2-2.4.3-4.3.7-1.5.3-2.8.5-3.2.5-.5 0 1-.4 2.7-1s3.4-1.2 4.2-1.4c.8-.3 1.1.2 1.9-.6s1.6-.5 1.6-.5c.3-.2.7-.3 1-.4v-1.3c-.4 0-.7 0-1.1-.1 0 0-.9.4-1.9.3-.9-.1-.9-.5-1.6.1s-4.6.5-5 .7c-.4.1-.6.1-.8.1-4.8 6.9-6.5 15.3-7 18.7-.3 2.2 0 4.9.6 8.6.1.5 5.2 1.7 5.3 2.1.1.7-4.6 1.6-4.5 2.2.7 3.2 1.4 6 1.9 7.3 1.2 3 2.4 4.9 3.3 3.7 1-1.2 2.7-4.1 3.5-5.8s3.3-4.5 5.9-7.4c-.1-.2-.4-.5-.7-.7z"/><path d="m265.7 458.7c.4-.2.9-.3 1.3-.5-1.2.2-2.6.4-4.1.6-.5.3-.9.7-1.3 1 .8-.2 1.3-.5 1.4-.4.5 0 1-.1 1.4-.4.5-.4 1.1-.1 1.3-.3z"/><path d="m268.8 485.9c-.4-.5-.9-2.2-1.3-3-.4.3-.8.6-1.2.9.1.4.1.6.1.8.1.2.7.6.6 1.5 0 .4.1 1 .3 1.8s.1 1.2.7 3.5c0 .2.1.4.1.6.8-1 1.5-1.8 2-2.3-.1-.2-.1-.5-.2-.8-.4-1.4-.7-2.5-1.1-3z"/><path d="m266.2 488c-.4-1.1-1.5-2.6-1.5-2.7s0-.1-.2-.2c-.2.2-.4.3-.6.5.1.4.2 1 .2 2-.1.9.1 2.7.5 4.3.3 1.2.9 2.4 1.2 2.8.7-.8 1.4-1.6 2.1-2.3-.2-.4-.4-.9-.6-1.4-.6-1.1-.7-1.9-1.1-3z"/><path d="m260 461.1c-1.2 1.3-2.3 2.6-3.4 4 1.3-.5 5.1-1.9 5.5-1.9.5 0 .9 0 2.2-.7 1.3-.6 1.6-.6 1.6-.6.4-.2.7-.4 1.1-.6 0-.3 0-.5.1-.8-.4.1-.8.2-1.3.3 0 0-.3 0-.7-.2s-.7-.5-1.1 0c-.2.2-1.6.1-3.1.4-.2 0-.6.1-.9.1z"/><path d="m238.2 434.8h.5c-.5-.3-1-.6-1.5-1l-.6-.3c-.4-.1-.9-.1-1.4-.2.7.3 1.4.6 2 .8.3.3.6.5 1 .7z"/><path d="m231.4 359.5c0 .2-.1.3-.1.4.2-.1.2-.3.1-.4z"/></g><path d="m685.6 371.8c-3.3 5.9-35.7 36.7-48.5 42.6-22.2 10.2-27.7 10-34.7 11 5.6-2.4 12.2-5.8 19.3-10.1 4-.7 7.6-1.7 5.4-3.4 7-4.5 14.3-9.8 21.1-15.4.3-.3-7.9-2.2-7.6-2.5s9.3 1.1 9.7.8c10.4-9 19.8-18.7 25.6-28.4 5.5-9 10-19.4 13.7-29.6.2-.4-5.9-.3-5.8-.7s6.4-1.3 6.5-1.7c5.5-19 8-37.2 6.6-45.9-2.2-13.9-8.6-23.3-9.2-13.8-.6 9.6-11.2 43.4-21.5 61.9-10.4 18.5-32.8 35.5-45 43.4.6-1.6 1.1-3.2 1.7-4.9 10.6-11.2 19.6-22.4 27.1-33.4.3-.5-8.2-1.5-7.9-1.9.2-.3 9.1-.1 9.3-.3 1.3-2.1 2.6-4.2 3.8-6.2.3-.5-6.2-1-5.9-1.5.2-.3 7.2-.6 7.3-1 5.1-9.3 9.2-18.4 12.5-27.2.2-.5-7.3-.3-7.1-.8.1-.3 7.9-1.2 7.9-1.5 11.3-36.3 12.4-67.5 10.9-89.2 0-.7-.1-1.4-.2-2.1 0-.3-4.7 1.6-4.7 1.2 0-.3 4.5-3 4.5-3.3-.2-1.8-.4-3.5-.6-5.2 0-.3-4.4 3.5-4.5 3.2 0-.3 4.3-4.6 4.2-4.9-4.1-29.7-14.9-47-18.7-51.7-4.3-5.3-.1 6 2.8 28.9 1.6 13.9.1 41.6-4.9 67.9-3.6 16.8-9.3 32.7-14.3 44.9-10.9 26.7-26.4 43-34.4 51.3.9-2.5 1.1-4.9.5-5.2s-.7-.1-1.2-.1c6.9-7.4 26.4-33.2 34.6-78 .1-.5-8.3.2-8.2-.4s8.6-2.4 8.7-2.9c.7-4.9 1.2-10 1.4-15.4 1.6-35.8-4.6-68.4-12.6-95.2-.1-.5-5.4 3.7-5.6 3.2s4.7-5.9 4.6-6.4c-7.4-22.6-16.2-41-22.4-53.5-7.4-14-12.6-18.2-17.2-22.9-4.5-4.6-11.2-8.3-9.2-5.1 4 6.2 7.3 13.3 14.4 30.3 6.9 16.4 20.9 75.5 20.6 120.6-.2 45.1-17.9 81-22.8 89.7 0-.1 0 .1-.1-.1s-.5-.7-.7-1c2.4-5.9 4.2-12.3 5.4-18.9.1-.4-5.6.5-5.5.1.1-.5 5.9-2.3 6-2.8 2.2-15.5 1.5-32.2-.6-47.5-.1-.4-6 3.1-6 2.6-.1-.5 5.7-4.9 5.6-5.4-.5-2.9-1-5.7-1.5-8.5-.2-.8-4.1 2.8-4.3 2-.1-.8 3.4-6.1 3.3-7-1.5-6.8-3.1-13-4.8-18.3-8.3-26-27.6-53-31.5-54.6-3.9-1.5-5.5-5.6-4.1-.4s13.1 44.8 15.7 52c2.6 7.1 3.9 40.4 1.6 60.6s-10.1 35.9-14.7 44.5c-1.9-1.5-2.7-2-5.9-4.3-3.2-2.2-16.6-6.8-12.9-.9 3.8 5.9 8.2 10.4 6.6 19.2s-6.2 20-11 23.9c-3 2.5-8.4 5.6-13.1 9.2.2.4.3.8.3 1.2 1.1.5 2.1 1.5 2.4 3.3.3 1.3.5 2.7.8 4 .4.7.7 1.6.7 2.7v.1c1 4 2.1 8.1 3.2 12.3 1.9 4.3 4.1 8.6 4.8 13.3.9 6.7 1.1 13.7.9 20.6 2.3 4 1.6 9.8.7 14.3-1 4.8-2.8 9.3-4.5 13.9-1 2.8-2.1 5.8-3.8 8.4-4.2 9.9-9.8 19.2-16.2 28-5.4 7.5-11 15.6-18 21.7s-15 11-23.5 14.8c-8.4 3.7-17.1 7.5-26.1 9.3-7.2 1.4-14.8 2.3-21.7 4.9-.1 5.8.9 12.7 1.5 14.1.8 1.9 2.6 5.4 3.5 3.1 1-2.3 6.8-3.7 11.4-5.5s13-5.2 18.5-10.3c.7-.6 1.3-1.4 1.8-2.2 0 1.6-.3 2.7 1.3 4.4 1.5 1.7 5.5 11.6 5.1 13.8-.4 2.1.8 4.6 2.9 5.2s4.7-3.2 6.7-6c2-2.7 4.2-3.5 4.5-5 .4-1.6-1.6-7-1.6-7s3.4 6.5 4.6 5.1 5.9-5.8 9.5-10.1 2.9-4 3.7-5.9c3.1 3.1 7.5 6.9 8.2 8.4s-.7 5.8-.6 7.4c0 1.7 4.6 3.2 6 .8 1.4-2.3 4.3-4.4 7.3-7.8 2.9-3.4 10.3-17.9 11.3-23 .2-1.4.4-2.9.5-4.3 2.6 3.2 8.9 9.4 12.9 12.5s6.3 7.4 5.9 9 3 3 4.8-.2 5.5-10.9 7-14.6c.3-.8.7-2.1 1.1-3.6.1-.4-6.3-1.1-6.2-1.5.1-.2 6.6-.3 6.7-.5.7-3.5 1.3-7.9 1.2-11.3 2.8-.2 5.8-.6 6.8.5s11 4.9 13.1 5.5 3.3-3 3.5-4.7.7-3.9 1.5-7.5c2.6.1 6.7.1 11.6-.3.6-.1-2.6-4.8-2-4.9.4 0 4.5 4.6 4.9 4.6 6.7-.7 14.6-2.2 22.4-5 20-7.3 34.8-29.6 37.3-33.2 2.4-3.6.1-4.6-3.7-1.6-3.8 2.9-9.9 6.1-14.1 8.5s-12.9 4.2-20.2 5.4c-1.5.2-5.1.7-5.7.8s-1.2.1-1.7.1c0-.2-.1-.3-.1-.5-.1-.2-.1-.3-.2-.5-.2-.7-.3-1.5-.4-2.4 6-1.5 13.5-5 21.2-9.6.3-.2-6.7-2.8-6.4-3s8 2 8.3 1.8c1.7-1.1 3.4-2.2 5.1-3.3.3-.2-5-1.6-4.8-1.8.3-.2 6.3.8 6.6.5 7.9-5.6 15.6-12.1 21.4-18.8 13.7-15.9 22.1-36.7 23.5-42.4 1.3-5.9-1.6-5.6-4.9.4z" fill="#231f20"/><g fill="#662d91"><path d="m589.3 342.5c-.8.2-1.2-.2-1.7-.2-.7.1-1.4.2-2.1.3-.2.2-.4.4-.6.5 5.3.1 6.5.7 8.4-.6-.9.1-1.7.1-1.8 0-.9-.1-1.5-.2-2.2 0z"/><path d="m563.7 295.9c.4 0 1.6 1.4 1.6 1.4s.9 1.5 1.5 2.4l.2-.4c-.3-.8-.8-1.8-.9-1.9-.1-.4-1.1-1.9-1.3-2.8s-.9-2.5-1.2-3.4c-.1-.3-.2-.8-.3-1.3-.6 1-1.1 2.1-1.7 3.1.8 1.4 1.9 2.9 2.1 2.9z"/><path d="m587.3 340.5h1.4s.3.1.8.3c.4.2.5.6 1.4.3.4-.1 1.9.2 3.7.4.6-.4 1.3-.9 2-1.3.3-.4.7-.7 1.2-1.3-1.5.2-2.5.3-2.9.3s-1.2-.1-3.1.1-2.3.2-2.3.2c-.5.1-1.1.2-1.6.2-.3.4-.4.6-.6.8z"/><path d="m577.2 356.1c.2-.1.3-.2.5-.3 0-.4.1-.9.2-1.5.2-.7.6-2.4 1.1-3.8.2-.5.3-.9.4-1.3-.5.2-1 .3-1.4.4-.4.8-1.2 2.7-1.3 3.9 0 1.2.5 2.3.5 2.5z"/><path d="m577.1 350.9c.3-.5.5-.9.6-1.2-1.6.5-3 1-4.1 1.7-.1 1.1-.4 2.2-.9 2.8-.1.2-.3.4-.4.6-.1.6-.1 1.1 0 1.2.1.2.1.3.1.5.5-.5.9-.5 1 .6 0 0 0 0 0-.1.3-.6-.1-.3.2-1.8s-.1-1 .2-1.6 2.2-3.5 2-2.9-1.6 3.7-1.3 4.1c.3.5.2 1.5.2 2.1v.9c.2-.2.5-.4.7-.5.2-.6.3-1.1.3-1.2s-.3-.5-.1-1.2c.4-.7.3-1.7 1.5-4z"/><path d="m589.3 337.3c.5.1.9.3 1.4.4 0 0 1.2-.1 2.4.2s1.2.6 2.1.2c.9-.3 2.1-.2 3.5-.2.8-.9 1.7-1.9 2.7-3.1-2.1.4-4 .7-5.1.8-1 .1-1.2-.3-2.6.3s-2.1.1-2.1.1c-.6.1-1.3.2-1.9.2-.1.4-.3.8-.4 1.1z"/><path d="m599.6 331c1 .1 2.7-.1 4.6-.3.3 0 .5-.1.7-.1.8-1.1 1.7-2.2 2.6-3.4-1.3.3-3.5.6-4.2 1s-.3-.1-3 .7-1.6-.1-3.6.8c-1.9.9-2.3-.7-2.7-.2-.1.1-1.4.4-2.4.5 0 .1 0 .2-.1.4.8 0 1.9 0 2.6.1s4.5.4 5.5.5z"/><path d="m568.3 342.9c.5-.3.7-.4 1-.7s.8-.8 1.2-1.1c-.6 0-1.2-.1-1.6 0-1 .1-3.1-.2-3.6-.2-.1 0-.7 0-1.3 0-.2.2-.3.3-.5.5 1.1.2 2.2.3 2.2.3s1.9.6 2.1.9c0 .1.2.2.5.3z"/><path d="m573.4 310.3c.7-.4 2.6-1.7 4-2.8-.1 0-.2.1-.2.1-2.2.5-4.4.8-5.5.9-1 .1-1.1-.3-2.4.3s-1.9.2-1.9.2c-1 .2-2 .4-3 .5 0 .2.1.5.1.7.6.1 1.2.2 1.9.3 0 0 1.1-.2 2.1.1 1 .2 1 .4 1.8.1s1.6-.1 2.6-.1c.1-.1-.2.1.5-.3z"/><path d="m560.7 343.8c.5.2.9.4 1.4.6 0 0 .7.1 1.3.3 1.2-.4 2.3-.8 3.3-1.2-.4-.1-.4-.3-1.5-.1s-1.8-.2-1.8-.2l-2-.1c-.2.3-.4.6-.7.7z"/><path d="m570.3 357.9c.1.1.2.3.3.5.4-.3.8-.8 1.1-1.2.1-.5.2-1.3.1-2-.6.8-1.2 1.5-1.7 2 .1.4.1.7.2.7z"/><path d="m574.9 341.1c1.6 0 2.9-.2 3.4 0 .4.2-3.7.4-5 .3-.4-.1-.7-.1-1.1-.2.3.4.5 1 .6 1.5s.1.6.2 1c1.2.2 2.2.2 2.5.3.4.1-.8.2-2.4.2.1.4.2.9.3 1.5.5-.3 1.1-.6 1.8-.8 4.9-2.9 10.8-6.5 11.4-13.7s1.1-17.5 1.2-23.3-1-7.8-2.4-4.9-5.9 9.8-9.3 11-5.1 4.7-7.2 8.1c-.1 1.3-.3 2.9-.2 3.5s.7 2.6.9 3c.1.4.2.9.3 1.3l.3-.3c0-.5 0-1 .1-1.1.3-.3-.8-.3-.4-1.6s-.1-.4.2-2.3 0-1.3.3-2 .6-4.4.8-3.6c.1.8-.4 4.6-.2 5.3s.1 2.1.2 2.9c.1.4.1 1 .2 1.5.2-.2.4-.3.5-.5.1-.8.2-1.7.2-1.9s-.4-.8-.1-1.5c.2-.7.1-2.1.5-5 .4-3 .5-2.7.4-2s-.1 3.8-.1 5.4.5 3.2.5 3.3v.3c.1-.2.3-.3.5-.5 0-.4 0-1.1 0-1.8.1-.9.3-3 .4-4.9s0-3.7 0-3.7.1.8.2 1.2c.1.2.2 3.4 0 4-.2.7-.1 1.9.1 2 .1.1.4.9.6 1.6.8-.9.5-.1 2.1-2.7s7.2-13.7 5.5-8.5-6.1 11.3-7.1 14.5c-1.1 3.1-2.2 3.2-4.1 4.5.4.2.8.4.9.4.2.2 1.8.4 2.7-.1.9-.6 5.1-1.3 5.4-1.2.6.2 1.5.6 1.5.6s-2.2-.3-4.6.4c-2.6.7-5.3 1.1-6.5 1.2-.5 0-1 0-1.4 0-.3.2-.7.4-1.1.6h.1c.1 0 2.8.9 4.5 1.1s2.8-.1 4.3-.4 2.6-.3 3.3-.3.5.3-2.5.8-3.5.9-4.6.9-1.8-.1-2.2 0c-.9.2-1.8-.4-2.1-.4s-1.5.1-2.5.3c-.1.2-.2.5-.3.7.6.1 1.4.2 1.9.3 1.1.2 3.1.5 3.9.8.7.3 2.1.4 3.7.2 1.7-.2 3-.6 4-.3s-4.2.7-5.1 1-.3 0-2.7.1-1.3-.5-2.9-.1-1.8-1-2.1-.5c-.1.1-.6.1-1.3.1-.1.1-.1.3-.2.5.5.1 1.1.1 1.5.3.6.2 3.5 1.1 4.2 1.4.7 0 2 .2 3.6.2z"/><path d="m569.5 314c.7-.8 1.3-1.5 2-2.2-1 0-1.7.1-2 .1s-1-.1-2.7.2-2 .3-2 .3l-.2.1c0 .4 0 .7-.1 1.1h.1c.3.2.3.5 1.1.2.4-.1 1.7.2 3.4.3.2-.1.3-.1.4-.1z"/><path d="m590.6 333.8h2.6s2.6.2 3 .6c.2.2 3.1 0 5.8-.3.7-.9 1.5-1.8 2.4-3-.8.1-1 .2-2 .3-1.1.1-4.3.6-5.6.9-1.3.4-3.8.5-4.5.6-.1 0-.7.1-1.5.2 0 .2-.1.5-.2.7z"/><path d="m568.4 324.2c0-.6.1-.8.1-1.3-.2.4-.4.7-.6 1 .3 2.2.4 4.7.1 7.4 0 .1.1.2.1.3l.3-.2s.1-.1.1-.1c0-.6 0-1.1 0-1.2 0-.4-.3-1.9-.2-2.7 0-.7 0-2.6.1-3.2z"/><path d="m565.9 314.9c-.5-.1-1-.2-1.6 0-.5 2.6-.3 1.3 1.2.7 1.5-.5 1.4-.2 1.6 1.7.5-.8 1.2-1.7 1.9-2.6-1.6.2-2.9.3-3.1.2z"/><path d="m407 484.6c-1.3 1.1-2.6 2.2-3.9 3.3 1.3-.2 2.6-.3 3.4-.6s.2.2 2.7-.2 1.6.3 3-.3 1.3-.1 1.4.2l.4-.3c.1-.2.2-.4.3-.6-.8-.2-3.1-.8-3.7-1s-2-.4-3.5-.5z"/><path d="m597.4 315.4.3-.4c-.1-.7-.4-1.5-.4-1.6-.1-.4-.7-1.9-.9-2.7s-.9-2.6-1.4-3.5c-.5-.8-1.4-3-1.6-3.6-.2.4-.4.7-.7 1 .2 1.1.4 2.4.5 3.7l.2.3c.9 1.5 1.7 3.2 1.9 3.2.3.1 1.2 1.4 1.2 1.4s.6 1.3.9 2.2z"/><path d="m575.3 217.3c3.3 30-2.2 53-11.6 71.9 0 .2.1.4.1.6.3 1.1.6 2.1 1 2.6s2 2.4 2.4 2.8c.4.5.9 1.2 1.3 1.8l.1-.4v-.1c-.3-.7-.7-1.7-.7-1.8.2-.5-1.1.1-1.1-1.5-.1-1.6-.4-.4-.6-2.4s-.4-1.3-.2-2.1.2-4.3.3-3.8c.2.5.1 1.5.2 2.6.1 1.2.3 2 .7 2.5.4.4.9 2 1.3 2.9.3.5.8 1.6 1.1 2.1l.2-.5c-.2-1-.5-2.9-.6-3.1s-.7-.7-.7-1.6c0-.4-.2-.9-.3-1.7s-.3-1.1-.2-3.3.3-2.6.3-2.1 0 1.2.1 2.2.2 1.7.6 2.9 1.5 2.9 1.6 3.1.3.5.6.7l.2-.4c-.1-.4-.5-1.3-.7-2.7-.1-1-.5-3.1-.7-5-.2-1.8-.5-3.5-.5-3.5s.2.7.4 1c.1.1.7 3 .6 3.8s.4 1.9.5 1.9c.2.1 1.1 1.1 1.6 1.9.8-1.8-.1 1.2 2.2-5.7 2.3-7 7.2-28.4 7.6-32s.5-5.2.4-1.1c-.1 4-.9 12.2-2.3 18s-5.8 19.2-7.3 23.7-.9 2.4-1.5 3.6c1 .1 2.3.2 2.5.4s1.6 0 2.3-.5c.4-.3 1.4-.7 2.4-1 1-.4 2-.6 2.1-.6.5 0 1.3-.3 1.3-.3s-1.8.8-3.9 1.7c-2 .8-4.4 1.6-5.4 2-1.2.5-2 .8-2.6.9-.1.2-.2.4-.3.6h.7c.2 0 2.7 0 4.1-.3 1.5-.2 2.4-.4 3.7-.9 1.3-.4 2.2-.9 2.7-1.1.6-.3.4.2-2 1.4s-2.9 1.3-3.9 1.5c-.9.2-1.6.4-2 .7-.8.5-1.7.2-2 .2s-1.8.6-2.8 1.1c-.1.3-.3.5-.4.8.7-.1 1.7-.3 2.4-.3 1.1-.1 3.2-.6 3.9-.5s2-.2 3.5-.7c1.5-.4 2.7-1.3 3.6-1.3 1 0-3.8 1.9-4.6 2.4s-.2-.1-2.7.8c-2.4.9-1.5 0-3.1.9s-2-.6-2.3-.1c-.1.2-1.2.5-2.2.7l-.2.4c.8-.1 1.9-.2 2.6-.1s3.9.2 4.7.2c.8.1 2.3-.1 3.9-.5 1.7-.4 3.1-1.4 3.7-1.4s-3.7 1.9-5.1 2.1-3.7.7-4.7 1.1-3.3.5-3.8.7c-.1 0-1.9.4-3 .6h-.1l-.2.3c1.3 0 4.1-.2 4.1-.2s2.3.1 2.7.4c.2.2 2.7 0 5-.2.6-.1 1.2-.1 1.7-.3 3.4-2.7 6.7-6.5 7.2-9.3s1.2-2.8 2.2-2c.7-2.3 2.2-7 3.5-13.8.1-.8-9.3 1.2-9.2.3.2-.8 9.8-4.2 10-5.1 1.6-11.2 2.4-26.4.3-43.7-.1-.8-8.4 3.5-8.5 2.7s7.9-8.4 7.7-9.3c-.2-1.4-.4-1.3-.7-2.7-.2-.9-6.1 3.1-6.3 2.3-.2-1.2 4.8-10 4.5-11.2-8.6-37.1-18-49.3-22.4-56.9-4.6-8-7.7-12.2-10.4-14.7-2.6-2.5.6 2.8 3.6 12.9 3.3 10.1 12.5 31.1 15.8 61.1z"/><path d="m599.3 361.4c.2.2.4.4.4.4.1.5.3 1 .4 1.6v.1l.3-.1c0-.7 0-1.4 0-2.1 0 0-.1-.3-.2-1.4-.1-1.2-.3-1.6-.5-1.8-.1-.3-.4-1.7-.6-3.1-.6.6-1.3 1.2-1.9 1.6.1.5.3 1.1.6 1.7.4 1.2 1.1 2.2 1 2.5.1.3.3.3.5.6z"/><path d="m416.5 481c1.1-.4 1.4 0 1.5.1l1.4-1.4h-.1s-1 0-1.6-.4c-.4-.2-.5-.4-.6-.5-.1 0-.3 0-.4 0s-.2 0-.4 0-.5 0-.8-.1c-1 .6-2.2 1.3-3.4 2.1 1.1 0 1.8.1 2.5.1.6 0 .8.5 1.9.1z"/><path d="m402.2 504.2c.3-.7-.3-1.7-.5-1.8-.3 0-.9-.7-1.5-1.4-.5.5.1 0-1.2 1.1-1.2 1.1-2.6.4-.8-1.2 1.7-1.6 3.8-3.1 5.8-4.8-.4-.3-.8-.7-.8-.9 0-.3-.7-.7-1.3-.3-.6.3-2.9-.1-3-.2-.3-.2-1-.3-1-.3s1.4-.1 3-.2c1.5 0 3.1 0 3.9-.3.9-.3 1.5-.4 1.9-.4.1-.2.2-.4.3-.5 0-.1.1-.2.2-.4-.4-.1-1.2-.5-2.1-.7s-1.7-.4-2.8-.4c-1.1-.1-2 .1-2.6.2s-.2-.3 2.4-.9 2.9-.2 3.8-.2 1.4 0 1.9-.2c1.1-.4 1.2.2 1.4.2.6-.5 1.3-1.2 2.1-1.7-.9-.1-2.5 0-2.9-.3-.5-.3-1.7-.4-3.2-.4-.8 0-1.6.1-2.3.1-3.7 3.3-5.9 5.2-8.5 8.9s-4.7 14.7-4.7 17 .2 2.1 1.4-.1c1.2-2.1 6.2-3.4 12.1-4.5-.1-.4-.2-.8-.4-1.1-.1-.3-.9-3.6-.6-4.3z"/><path d="m559.9 295.8c.8.9 1.6 1.7 1.7 2.5.1.7.2.6.9 1.1s1 1.3 1 1.3c.4.4.7.7 1.1 1.1.2.1.4.3.6.4v.1l.2-.4-1.1-2.5s-.6-.2-.7-1.3-.5-1-.9-1.6c-.3-.6-1-1.7-1.5-3-.3.8-.8 1.6-1.3 2.3z"/><path d="m407.6 484.2c.5 0 .4-.1 1.1 0 .8.1 3.5.1 4.3 0 .9-.2 1.7-.1 2.5-.1.2-.3.4-.6.7-.9h-.2s-1.8-.5-2-.9c-.1-.2-1.5-.4-3.1-.7-1 .7-2.2 1.6-3.3 2.6z"/><path d="m561.5 321-8.5 5.8s4-5.4 7.3-8.3c3.2-2.9-1.5-8.1-4.7-13.5-3.1-5.4-6.5-7.9-8.6-8.8s-3.5-2.9-3.4-.1c.1 2.7 2.4 2 3.4 11.5 1.1 9.5-7.6 27.5-14.5 32.8-2.8 2.2-5.7 4.6-8.5 7.2.5.8.8 1.7 1.1 2.6.2.7.2 1.3.1 1.9 2.1 6.1 4.1 12.2 6.5 18.1.1.3.2.6.3.9.1-.3.3-.5.5-.8.7-1.3 1.6-4.2 2.5-6.9s2-5.1 2-5.1-.4 1.1-.4 1.7c0 .3-1 4.7-1.6 5.6-.6 1-.8 2.5-.6 2.7 1.6-4.2 4-11.3 5.8-14.3s2.7-3.1 4.3-3.4c.1-.1.3-.3.5-.5 1.6-1.4 5.7-1.7 10.2-5.9s5.8-10.7 6.9-14.9c1.1-4.1-.6-8.3-.6-8.3zm-10 14.6c-1.4.1-3.6.6-4.5.9-1 .3-3.1.7-3.6.9-.2.1-1.8.4-2.8.7l-.1.2c1.3-.2 3.7-.6 3.7-.6s2.1-.2 2.5 0c.3.1 2.5-.2 4.7-.5 1.7-.2 3.2-.4 3.7-.5 1.1-.1-6.9 1.5-8.1 1.7-1.2.3-1.1-.1-2.1.4-1.1.5-1.7.3-1.7.3l-3.7.9c-.6 1-1.2 1.8-1.8 2.5l1.3-.2 2.2-.3s.3 0 .7.1.4.3 1.2 0c.3-.1 1.8-.1 3.6-.3 2-.1 4.3-.5 4.5-.5.4 0 1.9-.2 1.1-.1-.7.2-8.1 1.6-8.7 1.6s-1.2.1-1.8.3-1 0-1.4.1l-3.9.9c-1 1.1-1.4 1.5-2.6 2.8s-4.7 5.1-6 6c-1.4.9 2.4-4.3 4.2-6.1s4.9-3.2 5.9-6.3 3.5-5 6.5-10.6 3.5-12.8 3.7-15c0-2 1-3.6 1-1.8s-.3 2.9-.7 5.1c.4-.1.8-.3.9-.4.2-.2 1.8-.8 3.5-1.8 1.7-.9 5-2.7 5.6-3.2.7-.4 1.1-.5-1.8 1.4-2.8 1.9-4.3 2.6-4.9 3.2s-1.3.8-1.5.9c-.3.2-1.7 1.5-2.3 2.1-.1.4-.2.9-.3 1.3l.2-.1c.2 0 1.5-.9 2.2-1.3.8-.5 2.1-1.4 2.9-1.7s4.5-2.7 5.6-3.1c1-.4-3 1.9-3.6 2.5s-.3.1-1.9 1.4c-1.7 1.3-1.1.5-2.1 1.6s-1.6.4-1.7.8c0 .1-.8.7-1.4 1.1l-.7.4c-.4 1.6-.8 3.2-1 4.4-.9 3.6-2.6 5.5-4.5 8.4.8-.1 2-.4 2.8-.4.7 0 3.5-.2 4.6-.3 1.1 0 6.7-1.1 7.4-.9.8.3-3.6.9-5 1.1z"/><path d="m586.4 372.5c-.6.3-1.1.5-1.7.8 0 1.1-.1 2 0 2.4s.1 1.2 0 1.9c.5 0 .9.1 1.1.5 0-.1 0 0 0-.2s-.3-.9.1-1.6.3-1.8.5-3.8z"/><path d="m587.3 378.2c.2-.1.4-.2.6-.4.1-.4.2-1 .4-1.7.3-.9.5-2.9.6-4.8-.6.3-1.3.5-1.9.8v2.6c.1 1.2.3 3.3.3 3.5z"/><path d="m598.5 363.6-.1-.9c-.1-.3-.4-.5-.4-1s-.1-.8-.3-1.2c-.2 1-.8 2.2-2.4 3.7 1.1-.2 2.2-.4 3.2-.6z"/><path d="m595.6 317.2c.1.2.2.3.3.4l.2-.3c-.2-.7-.3-1.4-.5-2.2 0 0-.4-.2-.4-1.3 0-1-.4-.9-.6-1.5s-.7-1.7-1.2-2.9c.1 1.4.1 2.8 0 4.2.1.2.1.3.1.4.1.9.2.6.7 1.1s.7 1.2.7 1.2c.2.3.4.6.7.9z"/><path d="m582.3 378.1c.4-.1.8-.2 1.2-.3.2-.5-.2-.2.2-1.8.5-1.9.1-1.4.4-2.1 0-.1.1-.2.1-.4-.7.4-1.3.7-2 1v2.2c0 .3 0 .9.1 1.4z"/><path d="m598.5 92.2c5.1 12.9 19 60.6 19.9 116.4.9 55.9-17.4 83-24.8 94.8.3.3.7 1.3 1.2 2.4.6 1.2 1.1 2.2 1.5 2.8.4.5 1.7 2.5 2.1 2.9.3.4.5 1 .7 1.4l.2-.4c-.1-.6-.3-1.3-.3-1.5.2-.4-.9 0-1-1.5s-.2-.4-.8-2.5c-.5-2.1-.7-1.4-.8-2.2s-1.1-4.6-.8-4 .5 1.7.9 2.9c.5 1.2.9 2.2 1.3 2.7s1.1 2.1 1.4 3c.2.4.5 1.2.8 1.7l.3-.6c-.1-.9-.3-2.1-.5-2.4-.1-.3-.7-.8-.8-1.6-.1-.9-1.2-2.3-1.4-5.3s.3-2.6.3-2.1 0 1.3.3 2.4.6 1.9 1.1 3.1c.6 1.2 1.7 3.1 1.8 3.3s.2.3.3.5l.3-.5c-.2-.5-.4-1.2-.7-2.3-.1-1-.8-3.2-1.1-5.2-.2-1.9-.1-3.6-.1-3.6s.1.7.3 1c.1.2.6 3.3.6 4.2-.1.8.5 2 .7 2.1.3.1.9 1 1.5 1.8 7.6-14.3 15.3-32.6 17.3-39.5 3-11.4 4.3-32.4 5.3-36.7.3-5 .9-7.8.9-3.6s-.3 14.1-1.2 22.6-7.1 31.4-11.9 44.1-11.8 22-16.3 28.1c.8.2 1.7.3 1.8.5.2.2 1.8.3 2.5-.2.4-.2 1.6-.4 2.8-.5 1.1-.1 2.2-.1 2.3-.2.6.1 1.5.1 1.5.1s-2.1.3-4.4.7-4.9.9-5.9 1.4c-1.1.4-2 .6-2.6.7-.2.2-.4.5-.6.7.3.1.6.2.8.1s3.1.2 4.7.1c1.7-.1 2.6-.2 4.1-.3 1.4-.1 2.3-.2 2.9-.4s.6.3-1.9 1-3.2.7-4.2.9c-1.1.2-1.8.3-2.3.6-.9.5-2 .1-2.3.1-.4 0-2.9 1-4 1.5-.2 0-.3 0-.5 0l-.1.4h.1c.3.2 2.5-.1 3.7-.1 1.3-.1 3.6-.4 4.5-.2s2.3-.1 4-.3c1.4-.2 2.5-.4 3.5-.4 9.1-13.1 20.6-35.4 26.4-67 .1-.7-9.6 0-9.5-.7s10.2-4.7 10.3-5.4c.7-5.4 1.3-9.7 1.5-15.5 1.5-31.7-3.8-62.9-10.6-89.1-.2-.8-6.6 1.9-6.8 1.2-.2-.9 5-7.2 4.8-8.2-8.7-28.8-18.4-48.7-21.1-53.2-5.3-8.8-20.3-29-16.8-23.1 3.6 6 7.8 13.2 12.9 26.1z"/><path d="m593.7 316.5c-.2-.8-.2-.8-.3-1 0 1-.2 2-.3 2.8.1.1.2 0 .3.2.2.1.3.3.3.3.2.5.3 1 .5 1.4 0-.1.1-.2.2-.3-.1-.7-.2-1.3-.3-2 0-.1-.2-.6-.4-1.4z"/><path d="m611.1 361.6c1.3-.3 2.4-.6 3.3-1l.8-.4c-.4 0-.7 0-1.9.2-1.3.2-1.9.3-1.9.3-1 .3-2 .5-2.9.7-.3 0-.5 0-.8 0l-.1.1-.2.2c.4 0 .8-.1 1.3-.1.7-.1 1.4-.2 2.1-.2-.1.1.1.1.3.2z"/><path d="m611.2 410c-3.3-1.5-6.7-6-6.7-6l-9.3 3.3s5.5-5.6 3.9-6.1-6.5-.7-11.9-1c-.4.1-1 .2-1.6.5-.7.3-1.3.8-1.6 1.1-.3.4-1.5 1.2-2.2 1.7-.6.4-1.9 1.1-2 1.3l.2.1c.1 0 .1-.1.2-.1.8-.2 2.5-.8 2.7-1s.5-.7 1.2-.9c.4 0 .7-.3 1.2-.6s.6-.5 2-.6 1.7 0 1.4.1c-.4.1-.8.2-1.4.4s-.9.3-1.7.8-2.2 1.7-2.4 1.8-.4.3-.6.6c-.1.1-.3.2-.4.3l.2.1.3-.2c.1 0 .8-.5 2.5-1.1.8-.2 2.3-.6 3.4-1s2.1-.9 2.1-.9-.4.2-.6.5c-.1.1-.5.4-.9.6-.5.3-1 .5-1.3.5-.5 0-1.3.4-1.3.6 0 .1-.6.6-1 .9l-1 .8c1.8.6 3.4 1 4.5 1.1 3.4 1 2.1.9-.4.4-.1.6-.3 2.4-.6 2.6-.1.2-.2 1.2.2 1.6.2.2.5.9.2 1.6-.2.6-.7 1.2-.9 1.4.1-.5.3-1 .3-1.6.2-1.5-.8-3-1.1-3.7-.7-1.4-.8-2.2-.9-2.3v-.3h-.3v.3c-.1.3-.2.7-.2.9.1.2-.1 2 0 3s.3 1.6 0 2.5-.8 1.5-.8 1.8c.1.4-.1.3-.1-1.2s-.1-1.8-.2-2.5c-.1-.6-.2-1.1-.4-1.3-.4-.6-.1-1.2-.1-1.5 0-.2-.8-1.8-1.2-2.5v-.1l-.3-.1c-.1.4.1 1.5.2 2.2 0 .8.3 2.3.1 2.9s.1 1.4 0 2.4-.6 1.7-.8 2.3c-.3.7.4-2.3.1-2.8-.4-.5.1-.1-.5-1.7s.2-1.1-.6-2.2c-.7-1.1.7-1.5.2-1.7-.1 0-.3-.9-.4-1.6-.1 0-.2-.1-.3-.1 0 .5.1 1.3 0 1.8s-.4 2.9-.6 3.5c-.1.6 0 1.6-.1 2.7s-.5 2-.8 2.4.4-2.4.4-3.4c.1-1-.2-2.6-.5-3.3s-.3-2.3-.4-2.6c0-.1-.2-.9-.4-1.6l-.4-.1c0 1 .1 2.4.1 2.4s-.2 1.6-.5 1.9c-.2.2-.1 1.9-.2 3.5 0 .2 0 .4-.1.6.2.8.5 1.8.7 2.9 3.9.5 10.5 1.4 14.8 0s11.4-4.5 16.1-4.9c4.6-.2 6.1-.6 2.8-2.1z"/><path d="m591.6 423.1c.6-.3 1.3-.6 2.1-1l-1-.5c-.4-.2-.5-.3-.6-.4-.8.2-1.7.4-2.4.6.4.6.1.7 1 .8.1-.1.5.1.9.5z"/><path d="m607.4 430.5c.3-.3.7-1.6 1.1-2.1s.8-1.5 1.1-2.2c-.7.2-1.4.5-2 .6-.3.9-.5 1.7-.4 1.8.1.3-.2 1.5-.2 1.5s-.2.6-.5 1.2c.2 0 .4-.1.5-.1.2-.4.3-.7.4-.7z"/><path d="m602.5 428.1c-.1.2-.1.4-.2.6-.1.5-.2 1.1-.3 1.5.3.2.6.4.9.6 0-.1.1-.2.2-.3.5-1 .5-1.3.6-1.6.1-.2.3-.7.5-1.3-.5.3-1.1.4-1.7.5z"/><path d="m575.6 439.8c0-.2-.3-.7-.6-1.3-.4-.1-.7-.2-1.1-.2.1.4.1.7.2 1 .1.8.5 2.7.4 3.1s0 .3 0 .4c.9.8 1.7 1.7 2.5 2.5-.4-1.2-.3-1.7-.5-2.3-.2-.7-.4-1.2-.6-1.5-.5-.6-.2-1.5-.3-1.7z"/><path d="m572.5 440.2c-.8-1 .5-1.6 0-1.8-.1 0-.1-.2-.3-.5l-.7-.2c0 .3.1.6 0 .9 0 .3-.1.9-.1 1.7.5.3 1 .7 1.5 1.1 0-.5.4-.2-.4-1.2z"/><path d="m587.8 422h-.1c-.9.1-1.6.1-2 .1.9.4 3.3 1.4 4.3 1.8.1 0 .3-.1.5-.2-.5-.3-.7-.4-.9-.6-.2-.3-.6-.6-1.8-1.1z"/><path d="m596.7 420.5c-.6-.3-1.2-.6-1.6-.7-.4.1-.8.3-1.2.6-.1.1-.3.2-.5.2v.2c0 .1.4.5 1.1.9.7-.5 1.5-.9 2.2-1.2z"/><path d="m606.3 428.4c.1-.2.3-.8.6-1.5-.7.2-1.3.4-1.9.5-.1.6-.2 1.2-.4 1.4-.5.6-.2.5-.2 1 0 .6-.3 1.2-.3 1.2v.5c.2.1.3.2.3.3l.3-.1.6-1s-.1-.4.5-1c.5-.7.2-.6.5-1.3z"/><path d="m599.6 354.4c.5 1 1.3 2.4 1.2 3-.1.7.1.5.5 1.2.4.6.6 1.4.6 1.4.2.4.4.8.7 1.2.1.2.2.3.3.5l.2.7.3-.2-.1-.1c-.1-1-.1-2-.3-3 0 0-.5-.3-.2-1.2.2-.9-.2-.8-.3-1.6s-.3-4-.3-5.5c0 0 0 0 0-.1-.6 1.3-1.6 2.6-2.6 3.7z"/><path d="m619.1 391.9c.2-.7.4-1.6.4-1.7.1-.4.3-2 .6-2.7.3-.8.7-2.6.7-3.5.1-.9.2-2.8.3-3.7-.8.4-1.6.9-2.4 1.4 0 .5 0 1.5-.1 2.5-.1 1.7-.2 3.5 0 3.7.3.2.3 1.9.3 1.9s-.2 1.5-.3 2.5z"/><path d="m618.3 383.8c.1-.8.2-1.6.4-2.1-1 .6-2 1.1-3 1.6v.6c0 .6.5 3.8.2 4.6-.4.8-.1.6.1 1.3s0 1.5 0 1.5c.1.4.2.9.2 1.3.1.2.1.4.2.6v.6l.2-.2c.3-1 .4-1.9.7-2.9 0 0-.3-.5.2-1.3.5-.9.2-.9.3-1.6 0-.8.3-2.4.5-4z"/><path d="m614.2 384.1c-.3.5-.6 1-.9 1.5-.1.7-.1 2-.1 3.2.1 1.3.3 2.4.2 2.7-.3.6 0 .6.1.9s.2.4.2.4c0 .6-.1 1.1-.1 1.7 0 .4-.1.8-.1 1.3l.3-.2c0-.3 0-.6.1-.9.2-.8.4-1.6.7-2.3 0 0 0-.2.2-1.4.3-1.2.2-1.6.2-2s.5-3.9.6-5.4c-.5 0-.9.3-1.4.5z"/><path d="m611.1 426.6c.4-.7.6-1 .6-1.2-.6.2-1.2.4-1.7.6-.2.4-.3.8-.3 1-.1.7-.4 2.4-.5 2.8-.1.2-.1.5-.2.8.2 0 .3-.1.5-.2.2-.3.3-.5.4-.6.4-.2-.6-.4.3-1.4.8-.9 0-.3.9-1.8z"/><path d="m576.7 433.2c.7-.2.8-.2 1.4-.4-.9-.1-2-.3-3.2-.4-.6.6-1.6 1.2-1.6 1.2s-1.3.7-2.5 1.4c.3 0 .5.1.8.1.8-.3 1.4-.6 1.6-.6.4-.1 2.8-1.1 3.5-1.3z"/><path d="m613.4 429c.2 0 .4-.1.6-.2.2-.4.4-.8.8-1.4.4-.7 1.1-2.2 1.6-3.7-.6.2-1.2.5-1.8.6-.2.6-.2.7-.4 1.6-.3 1-.8 2.9-.8 3.1-.1.1 0 0 0 0z"/><path d="m603.4 366.2c-4.6 1.1-8.2 2.4-13.9 4.8 0 .7-.1 1.4-.2 1.7-.3.7-.1 2 0 2.1.1.2.4 1.1.5 1.9 2.4-1.4 4.1-2.4 6.7-3.7s9-2.5 10.7-3.3c1.8-.7 1.6.3-2 1.6-3.7 1.3-7.3 3-7.7 3.8s-1.3 1.1-2.8 1.8c.2.3.4.6.4.8s.9 1 1.6 1c.8.1 3.6 1.9 3.7 2.1.4.4 1.1.9 1.1.9s-1.7-.9-3.6-1.8c-1.7-.8-3.6-1.7-4.5-1.8-.3-.1-.6-.1-.8-.2-.3.2-.8.4-1.1.5.4.4 1 1 2.3 1.7 1.2.7 4.6 2.5 5.4 2.9.8.3.9.6-2.2-.5-3.2-1.2-4.3-1.9-5.1-1.9-.9 0-1.2-.6-1.3-.8-.2-.1-.8-.2-1.5-.2-.4.1-.8.3-1.2.5.4.2.8.4 1.1.6.7.4 2 .9 2.6 1.5s4.8 2 5.7 2.8c.9.7-3.5-1.2-4.3-1.2-.9 0-.2-.2-2.3-.7s-.9-.7-2.4-.7c-1.6 0-.7-1.2-1.2-1-.1.1-.7-.1-1.2-.2 0 .2-.1.4-.1.5.2.2.5.3.7.5.3.3 2.1 1.6 2.8 2.2s5.2 2.1 5.6 2.6-3.1-.9-4.1-1.4-3-1.2-3.7-1.3-1.2-.4-1.8-.6c-.1.4-.1.6-.2 1 .3.3.8.7.8.9.1.2 1.7 1.2 3.4 2 1.2.6 2.5 1.2 2.8 1.4.8.4-6.1-2.2-6.7-2.5-.7-.3-.6-.4-.7-.5-.2.6-.4 1.2-.6 1.9 1.1.6 3.1 2.5 3.7 2.8s1.1.7 1.1.7-3.5-1.6-5.2-2.5c-.3.6-.5 1.3-.8 1.9 1.2.8 2.3 1.4 2.4 1.5.3.3 1.2.8.7.7-.5-.2-1.9-.9-3.4-1.7-.5 1.1-1 2.2-1.6 3.1 6.5-.8 24.5-7.7 29.4-14.3 4.8-6.6 5.6-14.7 6.2-16.5.4-1.8-8.6 1.5-13.2 2.6z"/><path d="m612 426.5c0 .4-.6 1.8-.8 2.5-.1.3-.2.6-.4 1 .3-.1.5-.2.8-.3.4-.5.7-1 .8-1.2s0-.8.4-1.3c.3-.4.6-1.2 1.1-2.5-.5.2-1 .4-1.5.6-.2.5-.4.7-.4 1.2z"/><path d="m612.9 386.1c-.5.6-.9 1.1-1.4 1.5.1 1.2 0 3.1-.2 3.7-.3.8-.1 2.2 0 2.4.2.2.5 1.3.7 2.2.1-.7.2-1.5.4-2.3 0-.3-.2-.6-.1-1.1s.2-.9.1-1.4c-.1-.2.1-1.7.3-3.3 0-.6.1-1.2.2-1.7z"/><path d="m642.7 295.3c-16 32.5-33.4 48.4-40.2 54 0 .2-.1.3-.1.5s-.1.6-.3 1v.1c0 .5.1 1.2.2 1.9.3 1.6.9 3.3 1.1 3.4.4.2 1 1.7 1 1.7s.4 1.7.7 2.6c.1-.1.2-.2.2-.3-.1-.8-.2-1.8-.2-2 0-.4-.4-1.9-.3-2.7 0-.8-.2-2.4-.3-3.4s.3-4 .5-3.6-.1 4.4.3 5.2c.3.7 1.2 2.8 1.5 3.2.2.4.4 1 .5 1.4l.3-.3c-.1-.6-.1-1.1 0-1.2.4-.3-1-.3-.6-1.6.3-1.3-.3-.4-.1-2.4s-.1-1.4.2-2.1.8-4.7 1-3.8-.4 4.8-.1 5.6c.3.7.4 2.2.7 3 .1.4.2.8.3 1.2.3-.2.5-.5.7-.7.1-.6.1-1.2.1-1.4-.1-.2-.6-.8-.4-1.6.2-.7.1-2.1.6-5.1.4-3 .6-2.8.5-2.1 0 .8-.2 4.2-.1 5.7.1 1.4.5 2.4.8 3 .2-.2.5-.5.7-.8 0-.3 0-.5 0-.9.1-.9.3-3 .4-4.9.1-2-.2-3.7-.2-3.7s.2.8.4 1.2c.1.3.4 3.5.1 4.2s-.1 1.8.1 2c.1.1.3.3.5.7 12-13.4 26.8-33.4 30.6-40.3 5.5-10.3 11.7-30 13.5-34 1.3-4.7 2.5-7.4 1.6-3.3-.9 4-3.6 13.4-6.5 21.4s-13.8 28-21.6 39.9c-3.2 4.6-6.6 8.8-9.9 12.5.2.1 1.3.3 1.8 0 .4-.2 3.1 0 3.3.1.5.2 1.2.3 1.2.3s-1.3 0-2.8.1c-1.6.1-3.4.2-4.2.3h-.1c-.3.3-.6.7-.9.9.8.1 1.7.2 2.8.3s2.1.2 3.3.3c1.1.1 2 .2 2.4.2.5 0 .5.3-1.7.4-2.1.1-2.6-.1-3.5-.1s-1.5 0-1.8.1c-.8.3-1.6-.1-1.8-.1s-.6.1-1.2.2c-.3.3-.6.6-.9.9.4 0 .9-.1 1.2-.1 1 0 2.9 0 3.5.2.7.2 1.8.2 3.2.4 1.4.1 2.5.2 3.4.5s-3.6-.1-4.3 0c-.8.2-.2-.2-2.5 0s-1.3-.3-2.9.2-1.7-.6-2.1-.1c0 0-.5.1-1 .2l-.5.4h1.4c.6.1 3.5.5 4.2.6.7.2 2.1.2 3.5.4 1.5.2 2.8.3 3.2.6.5.3-3.5-.2-4.7-.4s-3.3-.2-4.4 0c-1 .2-3.1.3-3.6.4-.1 0-.8.2-1.7.3l-.5.4c1.2 0 2.7-.1 2.7-.1s2 .1 2.3.4c.2.2 2.4.3 4.4.6 1.6.2 3 .5 3.4.6.5.1-1.2 0-3.2-.1-1.9-.1-3.9-.2-4.8-.1s-.9-.3-2.1.1-1.7.1-1.7.1c-1 .2-2.1.4-3.2.6l-.3.3h.1c.2.1.5.1.8.1.5.1 1.1.1 1.6.1 0 0 1-.1 1.9 0 .8.2.5.4 1.6.1h.9c2.8-1.1 4.8-1.5 4.7 1 .6.1 1 .2 1 .2s-.4 0-1-.1c0 .6-.2 1.4-.4 2.3s-.5 1.7-.7 2.7c4-4.7 10.6-12.5 18.3-23.7.5-.7-8.1-3-7.6-3.8.3-.5 11.2-1.6 11.5-2.1.7-1.1 1-1.6 1.7-2.7.6-.9-6.9-1.6-6.4-2.4.3-.5 9.3-2.4 9.6-2.9 4.3-7.7 8.1-15 11.5-23.4.3-.8-7.8-1.9-7.5-2.7.2-.6 9.5-2.6 9.7-3.3 2.4-6.8 4.2-12.7 5.4-19.8 7.3-41.1 7.4-51.8 5.8-67.1-.1-.5-5.3 1-5.3.4-.1-.5 4.9-4.4 4.8-5 0-.4-.1-.9-.2-1.3-.1-.6-4.1 2.3-4.2 1.7s3.7-5.2 3.6-5.8c-2.7-16.8-9.2-38.2-12-43.7-3.2-5.9 4.8 8.4 3.3 48.4-.9 40.2-9.9 69.8-19.5 89.3z"/><path d="m592.6 359.7c-1.1-1.7-5.4.2-5.4.2s4.3-2 7.2-4.6c2.9-2.5 4.4-8.5 6.1-11.7 1.7-3.1.8-2.2.5-2.5-.7.2-1.6.4-2.7.6-1.4.7-2.6 1.4-4.7 3-2.2 1.6-8.9 2.9-14 4.3-.1.8-.4 2.1-.7 2.5-.3.6-.3 1.5-.1 1.5.2.1.4.9.7 1.5 2.7-1.6 5-2.9 6.4-3.6 3.1-1.3 1.3.6-.8 1.4s-7.3 4.5-11.5 7.6c1 .2 2 .4 2.2.6.2.1 2.1.2 3-.1 1-.4 5.8-.7 6.1-.6.7.2 1.9.2 1.9.2s-2.6.2-5.4.6-6 .7-7.3.9c-.7.1-1.4.2-1.8.3-.1.3-.3.5-.4.8 1 .1 2.9.3 4.6.3s3.1-.1 4.8-.2 2.9-.1 3.7-.2 1.5.1-2.9.7-6.5.5-7.6.8c-1 .4-2.1 0-2.3 0-.3 0-.6.1-1.1.2-.2.4-.4.8-.6 1.1h.6c1.2 0 3.5-.1 4.3 0s2.2 0 4-.1c1.7-.1 3.2-.3 4.2-.1s-4.6.5-5.7.8-.2-.1-3.1.4c-2.8.5-1.8-.1-3.4.5s-1.7 0-1.9-.2c-.2.3-.4.6-.6.9.7.2 3.5.4 4.6.6 1.1.1 7.1-.4 7.7-.1s-4 .5-5.4.5-3.9.3-5 .6c-1 .3-2.4.3-3.3.4-.2.3-.4.6-.6.9h.5s2.2.2 2.5.5c.2.2 2.6.1 4.8 0 1.7-.1 3.3-.1 3.8-.1s-1.3.2-3.5.6c-2.2.3-4.4.6-5.4.7s-.9-.4-2.3.2c-1.3.5-1.9.1-1.9.1h-.3c-.4.5-.7.9-1.1 1.3.1 0 .2.1.3.1 0 0 1.1-.1 2.1.1.9.3.6.6 1.7.2s5.3.2 5.8.1c.6-.1.6 0 .9 0 4.1-2.6 9.1-5.6 12.9-7.5 3.3-2.7 6-5.3 4.9-7z"/><path d="m571.8 432.2c-.8 0-1.6-.1-2.4-.1-.1.1-.2.1-.2.1-.6.5-1 .9-1.5 1.3-.2.2-.4.4-.7.7l-.2.1c.2 0 .4.1.6.1 1.2-.5 2.3-1 3.4-1.5 0 0 .2-.4 1-.7z"/><path d="m603.9 399.9c0 .5-.1 1.1-.1 1.4l.4-.3v-.3c.2-.7.4-1.7.5-1.8.3-.2-.2-.3-.3-.8.1.5-.1 1.1-.5 1.8z"/><path d="m606 399.6.7-.6c.4-.9.8-2.1.9-2.3 0-.3-.4-1 0-1.8.3-.7.3-2.3.5-5.4-.6.3-1.2.6-1.9.9 0 1.6-.1 3.3 0 3.8.2.8 0 2.4-.1 3.3.1.7 0 1.5-.1 2.1z"/><path d="m608.9 393.3c0 1.5.3 3.7.2 3.9 0 .2.1.7.2 1v.3l.3-.2v-.2c.1 0 .1-1.1.7-3.2.4-1.3.6-4.6.7-7-.6.4-1.3.9-2.2 1.3 0 1.5 0 2.7.1 4.1z"/><path d="m563.8 378.5c-.5-.1-1-.2-1.7 0s-1-.2-1.4-.2c-.2 0-.5 0-.7 0-.2.2-.4.4-.6.5 2.6-.2 6-.3 9.2-.3.3-.2.6-.4 1-.6-.4.1-.9.2-1.4.2-2.1.3-4.1.5-4.4.4z"/><path d="m561.2 302.4c.1.7.4.6.7.7.3.2.5.3.5.3.3.5.7 1 1 1.5l.1.2.2-.3c-.3-.8-.6-1.6-.9-2.4 0 0-.2-.2-.8-1.5-.5-1.3-.9-1.7-1.1-2s-.8-1.4-1.4-2.7c-.4.6-.8 1.3-1.3 1.9.3.5.6 1.1 1.1 1.6.8 1.5 1.8 2.4 1.9 2.7z"/><path d="m574.8 374.7c-.8.1-1.8.3-3 .4-1.9.2-3.8.5-4.2.4-.4 0-.9-.1-2.6.1s-2.1.1-2.1.1c-.1 0-.3 0-.4.1-.3.3-.5.5-.8.8h.4s.3.1.6.3.3.5 1.1.3c.4-.1 1.7.2 3.4.3 1.1 0 2.3-.1 3.2-.1 1.2-.7 2.7-1.7 4.4-2.7z"/><path d="m406.1 508.7c0-.6-.5-5.2-.8-6.9-.4-1.7-1.3-2.7-1.3-2.8 0-.2-.3-.4-.6-.5 0-.1-.1-.1-.1-.2l-.3.3v.1c-.1.1.2.8-.1 2.4-.1.9.1 2.8.2 4.7.1 1.5.2 3 .2 3.7.9-.2 1.9-.3 2.8-.5 0 0 0 .3 0-.3z"/><path d="m579.6 378.7c.5 0 1.1-.2 1.6-.3.3-.8.5-2.7.5-3.2s0-.2 0-.3c-.7.3-1.5.8-2.2 1.2.1 1 0 2.1.1 2.6z"/><path d="m577.7 400.9c.8-.3.9-.7 1.2-.9.4-.2.3-.2.6-.4-.7 0-1.4-.1-2-.2-.1.1-.2.1-.3.2 0 0-.1.1-.1.2-.1.1-.2.3-.4.5-.4.6-1.1.9-1.1.9-.3.3-.6.6-.9.9-.1.2-.3.3-.4.5-.2.2-.4.2-.6.3l.2.1c.9-.5 1.8-1 2.6-1.4.1 0 .4-.4 1.2-.7z"/><path d="m578.1 402.6c.4-.1 1.7-1.1 2.3-1.4s1.4-.9 2-1.4c-.8 0-1.5-.1-2.2-.1-.5.4-.9.8-.9.9 0 .4-1.1 1.4-1.1 1.4s-1.7 1-2.3 1.6l.2.1.1-.1c.8-.4 1.9-.9 1.9-1z"/><path d="m579.9 403c-.5.4-1.4 1-1.8 1.3l.3.1c.1-.1.2-.1.3-.2.6-.3 1.4-.8 1.6-.7.4.1-.1-.7 1.2-1 1.3-.4.3-.3 1.8-1.1 1.5-.7 1-.7 1.5-.8s1.6-.3 2.2-.4c-1.4-.1-2.7-.2-4-.3-.4.3-.6.5-.9.8s-1.9 2-2.2 2.3z"/><path d="m575.9 410.4c-.1-.6.3-.8-.2-1.6s-.1-1.3-.1-1.3c-.2-.7-.3-1.5-.5-2.2l-.4-.1c0 .2-.1.4-.2.6-.1.4-.2.9-.3 1.4 0 0 .1.7-.1 1.5v.1c.9 1.2 1.6 2.6 2.1 3.9-.1-.9-.2-1.7-.3-2.3z"/><path d="m600.4 392.9c-1 .4-2 .7-3 1 0 .4.2 1.6.3 2.7.7.1 1.5.2 2.1.3.1-1 .4-2.7.6-4z"/><path d="m602.4 397.3c.3-.9.6-3 .6-3.7s0-1 0-1.7c-.8.3-1.5.6-2.3.9v1.2c0 1.2-.1 2.4 0 3.1.6.1 1.2.2 1.7.2z"/><path d="m605.6 392.2c.2-.5.1-.9.2-1.5-.7.4-1.5.6-2.3 1 0 1.5-.1 3.2 0 3.7s.2 1.5.3 2.3c.3.1.5.2.5.2.1 0 .1.1.1.1 0-.2.1-.5.2-.8.8-1.4.1-.5.6-2.6s.2-1.8.4-2.4z"/><path d="m591.5 395.8c1 .1 2 .2 2.9.4.1-.5.1-1 .2-1.3-1.2.3-2.2.6-3.1.9z"/><path d="m505.1 475.4c-1.2-.2-4.3-.5-5.9-.6-1.8-.2-3.6-.3-3.9-.3-.1 0-.7 0-1 0l-.2-.1c.2 1 .5 2 .8 3.1l.3.2c0 .1.9.4 2.4 1.4.8.5 3.2 1.6 5.2 2.4 1-2.2 1.7-4.2 2.3-6.1z"/><path d="m555.9 460.6c0-.1 0-.1-.1-.2s-.6-.5-1.3-.7c-.9.2-1.7.4-1.9.5s-.4.1-.6.1l.3.3.8-.2c.7.1 1.8.1 2.8.2z"/><path d="m553.3 465.7c-.2-.1-.3-.1-.5-.2-.1.5-.1 1-.2 1.5.4.8.7 1.6 1.1 2.3-.1-.7-.1-1.7-.2-2 0 0-.1-.9-.2-1.6z"/><path d="m544.2 464.1c-.2 0-.3 0-.8-.1-.4-.1-4.3-.1-5-.7s-.6-.2-1.6-.1-1.9-.3-1.9-.3c-.4 0-.7 0-1.1.1v1.3c.4.1.7.2 1 .4 0 0 .8-.3 1.6.5s1.1.3 1.9.6 2.5.9 4.2 1.4c1.7.6 3.1 1 2.7 1s-1.8-.2-3.2-.5c-1.9-.4-4-.8-4.3-.7-.5.3-2.6.1-2.6.1s-.6-.1-1.3-.3v.9c.1 0 .2.1.2.1.4.2 2.4.6 3.3 1.1s2.9 1.1 4.2 1.3c1.2.2 5.3.7 4.6 1-.7.2-5.9-.8-6.9-.8-1.1 0-3.9-.1-4.6-.1-.2 0-.4 0-.7 0v.8c.2.1.4.2.4.2.2.6.8-1 2.1.1 1.4 1 .5.1 2.9 1 2.3.9 1.8.3 2.7.7s6.6.7 5.2 1-6.8-.6-7.9-.4c-1.1.1-2.8-.3-3.8-.4-.4 0-.9-.1-1.3-.2 0 .3.1.7.2 1.1.8.4 1.6.7 1.9.8.3 0 1.2-.3 2 .2.9.4 2.6.5 6.8.9s3.8.6 2.7.5c-1.1 0-5.8 0-8 0-2.2-.1-4.1.3-4.3.2h-.1c.1.1.2.2.4.4s.5.4.6.6c.3.1.7.2 1.2.3 1.1.3 3.8.5 6.4.6 2.7 0 5.3-.1 5.3-.1s-1.2.1-1.9.3c-.4.1-5 .4-5.9.2-.8-.3-2.5-.1-2.8.1-.2.2-.9.3-1.7.4-.3.3-.9.4-1.9.4 2.4 2.3 5 5.3 6.4 7.9 1.4 2.7-.7 3.4-1.3 1.5s-.7-1.8-1.2-2.6c-.5.5-1.1 1.1-1.3 1.1-.3 0-.7.9-.5 1.6.3.7-1.1 3.2-1.3 3.3-.3.2-.6.6-.8.8 2.6 2.9 5.1 5.7 5.9 7.4s2.6 4.6 3.5 5.8c1 1.2 2.1-.7 3.3-3.7.5-1.3 1.2-4.1 1.9-7.3.1-.7-4.6-1.6-4.5-2.2.1-.4 5.2-1.7 5.3-2.1.6-3.7.9-6.3.6-8.6-.4-3.5-2.1-11.9-6.9-18.8z"/><path d="m563.4 441.5c-.3.7-.5 1.1-2 .9s-6.3.4-6.3.4 3.4.5 5.9 1.1c1.8-.3 3.2-.5 3.8-.5s-.9.3-1.5.5c-.1 0-.5.1-1.1.2.8.2 1.3.4 1.4.6s.3 1 .5 2c1.6-.2 2.9-.4 2.9-.4s-.9.2-1.9.4c-.2 0-.5.2-.9.2.2 1.1.3 2.4.3 3.6 2.8-.2 5.3-.4 4.7-.3s-2.5.3-4.6.6c0 1.1-.1 2.1-.4 2.8.2 0-.6.1.4 0 .9-.1 7.2-.2 6.4.1-.7.3-4.4.4-7.1.7-.2.6-.5 1.4-.7 2.2 2.2-.1 1.6-.3 2.8-.1 1.1.2 8.2.4 6.5.7s-7.7.2-9.7.6c-.2.7-.5 1.3-.8 1.9 1.5-.1 3.6-.7 8.1-.2s4.4.9 3.3.6-6.9.1-9.9.6c-.8.1-1.7.3-2.4.5-.4.4-1 .6-1.3.6s-.4 0-.5-.1c-1.1.3-1.8.6-2.1.6s-1 .4-1.6.7c-.1 0-.2.1-.4.1l.3.2h.2c.1.1 1.8-.4 5-.5 1.6 0 5.3-.4 8.6-.5 1.7 0 3.1.3 4.1.6-.1 0-.1 0-.2 0-.4 0-5.8.4-7 .2-1.1-.2-3.4.3-3.6.6-.4.4-2.7 1.3-4.4 1.9 1.1.9 1.1 1.3 3.1 1.5 2.1.2 5.9 3 6.9 3.8s-.9 0-3.2-.9c-.2.7-.6 1.7-.8 1.8s-.3 1 0 1.5c.2.3.2 1 .3 1.6v1.3c-.2.3-.2.8-.2.8s-.2-1.2-.4-2.5-.5-3-.8-3.7c-.3-.9-.5-1.5-.5-1.9-.2-.1-.3-.2-.5-.2-.1.2-.1.3-.1.5s-.4 1.8-.4 2.8-.1 1.6-.1 2.5c0 .8 0 1.4.1 1.8s-.3.3-.7-1.3-.3-2-.3-2.7-.1-1.1-.3-1.4c-.4-.6.1-1.3.1-1.5s-.3-.9-.6-1.6l-.9-.3v1.2c0 .8.1 2.3-.1 2.8s-.2 1.4-.2 2.4.1 1.7-.2 2.3-.2-2.5-.6-3c-.3-.5.1-.1-.3-1.8-.5-1.7.3-1-.5-2.1-.7-1.1.8-1.4.3-1.6-.1 0-.2-.4-.3-.9l-.5-.2c0 .4 0 .9-.2 1.2-.2.5-.7 2.8-.9 3.4-.1.1-.1.3-.1.5.8 1.8 1.4 3.4 1.9 4.7 3.9.6 9.8 1.3 10.7 3 .9 1.6 6.6 3.3 8.6 3.8 2 .4.3-2.2 1.3-6.5s-.9-18.2-2.9-22.2c-2.5-4.1-7.4-9.9-11.5-13zm11 22.2c-.1 0-.1 0 0 0z"/><path d="m605.2 450.9c2 .8 2.2-2.1.5-4.6-1.7-2.4-7.2-11.2-11.2-13.6s-11.4-5.2-15.6-6.7c.3 1.2.7 2.2 1 2.4s.5.4.7.8c1.2-.2 1.9-.3 1.6-.2-.2.1-.8.3-1.5.5.4.7.7 1.5.7 2.2 1.4-.4 4.2-1 4-.7-.2.2-1.5.4-2.8.8-.4.1-.8.2-1.2.3 0 .8-.7 1.2-1.3 1-.5-.2-.5-.1-.9-.2-.7.4-3.1 1.8-3.7 2.2-.2.2-.6.4-1.1.7.3.1.5.2.7.2.5-.2.8-.3.9-.2.7.2-.1-1 1.9-1.1 2-.2.5-.3 3.1-.7 2.5-.5 1.7-.5 2.7-.6 1 0 5.5-1.1 4.8-.7-.7.3-1.9.5-3.3.9s-2.7.7-3.2 1.1-2.6 1-3.6 1.5c-.4.2-1 .5-1.6.7.2.1.5.3.8.4 1.2-.3 2.3-.5 2.6-.6s.9-.7 2-.8c.6 0 1.2-.2 2.2-.5s1.4-.4 4.2-1c2.8-.5 3.4-.5 2.7-.3s-1.6.4-2.9.8-2.2.7-3.7 1.2-3.7 1.7-4 1.8c-.2.1-.5.3-.7.5.2.1.3.1.5.2.6-.2 1.7-.5 3.4-.9 1.2-.2 4-1 6.3-1.6 2.4-.6 4.5-1.2 4.5-1.2s-.9.4-1.3.6c-.1.1-1.1.4-2.2.8-1.1.3-2.3.7-2.8.7-1 .1-2.4.7-2.4.8-.1.2-.9.7-1.7 1.1-.4.2-.9.5-1.2.7 3.8 1.3 7.5 2.4 8.5 2.8s-.6.7-5-.5-4.3-1.2-6.9-1.9v.3c.1.7-.1 1.4-.2 1.6s0 1.2.5 1.6c.3.2.5.9.5 1.6 0 .6-.1 1.3-.2 1.4-.1.3 0 .9 0 .9s-.2-1.2-.5-2.5c-.3-1.4-1.2-3.1-1.7-3.8-.3-.6-.6-1.2-.7-1.6l-.8-.2v.1c0 .1 0 .6.1 1.2 0 .6.2 1.4.3 2.1s.4 1.7.3 2.6v1.2c.3.4.5.7.8 1.1 3.8 1 8.8 2.4 10.3 2.6 2-.1 14.8-.1 16.8.7z"/><path d="m618 455.5c.2-.2.5-.4.8-.5.8-.5 2-1.8 2.7-3-.7.1-1.3.3-2 .4-.2.4-.4.7-.8 1.3-.5.6-1.3 1.6-1.8 2.1z"/><path d="m616.3 453.4c-.2.3-1.4 1.7-2.1 2.4-.2.1-.5.4-.7.6l1.3-.3c.4-.3.8-.5.9-.7.2-.1.4-.8 1.1-1.2.3-.2.7-.6 1.2-1.2.2-.2.3-.4.5-.6-.6.1-1.2.2-1.8.3-.1.3-.2.4-.4.7z"/><path d="m515 499.2c-.4.1-4.6.2-5.3-.2-.7-.3-2 0-2.2.3-.1.2-.8.4-1.5.6.5 1.8.8 2.3.8 4.2 0 2-.6 5.6-.7 4.2-.1-1.5 0-2.2-.2-3.8-.7.4-1.7.8-1.9.9-.2 0-1.2.9-1.4 1.7-.1.5-1.5 2.5-2.1 3.4 2.3 3.3 4.6 6.8 4.1 9.2-.4 2.3-1.1 5.8-.4 3.5.8-2.3 6.4-9 8.1-11.8 1.7-2.9 2.7-7.2 3.9-12.2-.2-.1-.8-.1-1.2 0z"/><path d="m520.8 475.3c-.6-1.7-.9-3.6-.9-3.6l-.8 5s-.7-.1-1.6-.4c.6.7 1.1 1.4 1.6 2.1.8-1.5 1.5-2.9 1.7-3.1z"/><path d="m511.5 480.5c-.5 0-2.6.7-4.3 1.2-.4.8-.7 1.6-1.1 2.4h4.7c2.1.1 3.9.4 3.4.4s-2.1.1-3.9.2-3.7.3-4.6.4l-.2.4c-.2.6-.5 1.1-.7 1.6.1 0-.2 0 .3.1.6.2 3.4.5 4.8.5 1.5 0 6 .3 5.2.6-.7.3-6.9-.2-7.8-.1-1 .2-2.2.3-3.4.4-.1.3-.3.6-.4.8.3 0-.1-.3.9.3s.6 0 3.2.7 2 .1 2.9.6 6.6 1.3 5.2 1.4-7.1-.7-8.2-.4c-1.1.2-3-.2-4.1-.2-.2 0-.3 0-.5-.1.3.5.6 1.1.9 1.8.3.1.3.2.5.2s1.1-.4 2 .1c.8.5 3 .2 7 1.2 4.1 1 3.5 1.4 2.6 1.1s-6.2-.5-8-.5-2.6.3-3.2.5c.2.4.4.9.5 1.3.3.1.7.2 1.1.4.9.3 3.2.4 5.5.6 1.9.2 3.7.5 4.5.7 1.1-4.2 1.9-7.9 1.9-9.5 0-1.5-2.8-5.7-5.4-9.3-.3.1-.8.2-1.3.2z"/><path d="m501.8 503c.2-.7 1-1.2 1.1-1.4.2-.2.5-1.1.7-1.9.1-.4 0-.8 0-1.1-.3.4-.8 1.4-1.3 1.9-.5.7-1.5 2.3-2.1 2.7-.5.5-1.1 1.4-1.8 2.7-.3.5-.5 1-.7 1.4.3.4.7.8 1.1 1.2 0-.1.1-.2.1-.3.9-1.6 2.8-4.4 2.9-5.2z"/><path d="m504 504c.8-1.6 1.4-2.4 1.4-2.4 0-.1-.1-.2-.1-.3-.1.1-.1.1-.2.2-.3.2-.6.4-.7.6s-1.8 1.7-2.6 2.8c-.9 1.1-1.4 1.9-2 3-.2.4-.4.7-.6 1 .4.4.7.9 1.1 1.4.3-.5.6-1.1 1-1.7 1-1.9 2.3-3.8 2.7-4.6z"/><path d="m526.3 478.9c-.9-.1-1.8-.4-2.5-.5 0 0 0 0-.1.4 0 .4-1.1 2-2 3.2.4.6 1 1.4 1.3 1.7.3.4.4.5.5.8l.4.2c.1-.1.1-.3.1-.4.6-1.8 1.3-3.6 1.6-4.3s.6-.7.7-1.1z"/><path d="m522.9 478c-.2-.1-.2-.1-.5-.3s-.7-.7-1-1.2c-.3.4-.7.9-1.1 1.5-.2.4-.4.7-.7 1.1.6.8 1.1 1.5 1.6 2.3.7-1.4 1.3-3 1.5-3.1.2-.3.1-.3.2-.3z"/><path d="m530.8 484c.3-2.3.7-1.6.5-2.7-.1-1.1.1-1 .4-1.1-.2-.2-.4-.4-.5-.6-.6.9-1.7 2.7-2.2 3.3-.4.6-.9 1.9-1.4 3.3 1 .5 1.9 1.1 2.5 1.6.2-.6.3-.9.2-1.5-.1-.4.2 0 .5-2.3z"/><path d="m529.1 479.4c-.4-.1-.8-.2-1.2-.2-.3.4-.7.9-.9 1-.3.1-1.3 2-2.1 3.8-.1.3-.2.6-.4.8.9.4 1.8.9 2.6 1.3.2-.5.2-.5.5-1.2s1.1-3.3 1.2-4c0-.7.2-1 .3-1.5z"/><path d="m533.8 484.9c-.1-.9.6-1.3.6-1.5.1-.2.1-.4.1-.8-.4-.3-.8-.6-1.2-.9-.3.8-.9 2.5-1.3 3s-.7 1.6-1.1 3c-.1.3-.2.5-.2.8.5.5 1.1 1.3 2 2.3 0-.2.1-.4.1-.6.7-2.3.5-2.7.7-3.5.2-.9.3-1.4.3-1.8z"/><path d="m613.8 453.1c-.3.5-1.7 2.5-2 3-.2.3-.6.6-.9.9l.7-.2c.4-.3.7-.5.8-.5.5 0-.2-.6 1.2-1.4s1.1-1 1.9-1.7c.2-.2.4-.3.4-.4-.8.1-1.5.2-2.1.3z"/><path d="m601.9 456.7c.2-.2.2-.5.6-.8s.7-.7.9-1c0-.1.1-.1.1-.2-.5 0-1.2 0-1.8.1-.7.5-1.4 1.4-1.5 1.6 0 .3-1 1.9-1.6 2.7h1c.7-.9 1.5-1.6 2.3-2.4z"/><path d="m602.3 458.1c.6-.5 1.2-1 1.9-1.6 0 0 .5-.6 1.1-1.1.6-.6.5-.4.6-.6-.4 0-1 0-1.5-.1-.2.4-.4.6-.5.7-.6.4-.4.5-.4.8-.1.3-.2.5-.2.5-.4.4-.7.8-1.1 1.3-.3.3-.5.6-.8 1h.3c.2-.4.4-.7.6-.9z"/><path d="m588.7 465.7c.1 0 .2.1.5.2-.1-.1 0 0-.2-.4-.2-.3.2-.8-.6-1.3-.7-.5-.5-1.1-.5-1.1-.3-.5-.7-1-1-1.5h-.7v.2c0 .4.1.9.1 1.3 0 0 .4.6.4 1.3s-.3.8.1 1.2.4 1.1.5 2 .1 1.6.3 2 .3 1 .3 1-.5-1.1-1-2.2-1-2.2-1.1-2.5-.3-.9-.7-1.6-.4-.7-.5-.8c-.1 1.2-.3 2.6-.5 4 .3 1.2.9 2.3.9 2.5 0 .3.3 1.1.1.8s-.6-1.1-1.1-2.2c-.2 1.1-.4 2.2-.6 3.3 1.9.1 3.6.2 7.2 0 .9 0-2.8-6.1-1.9-6.2z"/><path d="m688.9 287.9c-1.5-11-2.8-14.6-3.5-7.7-.8 6.9-9.4 37.5-20.3 57.9-10.8 20.5-28.1 32.6-43.7 41.9.1 1-.3 4.9-.3 5.7.1.8.1 2.9.2 3.4.1.3 0 .8 0 1.2l.5-.3c.1-.4.3-.9.4-1 .5-.3-.8-.3-.1-1.5.8-1.2 0-.4.6-2.3s.2-1.4.5-2.1.5-5.2.7-4.1-.3 5.4-.2 6.1c.2.7-.1 2-.1 2.7 0 .3-.1.7-.1 1.1l.8-.6c.4-.7.7-1.5.7-1.6 0-.2-.4-.6 0-1.2.4-.7.3-1.8.8-4.9s.7-2.8.6-2-.1 4.1 0 5.5c.1 1.3.5 2.1.5 2.2s0 .2.1.2l.6-.4c.1-.3.2-.8.4-1.5s.4-2.2.4-3.7c.1-1.7.1-3.4.1-3.4s.1.8.3 1.3c.1.2.4 2.9 0 3.5-.3.5 0 1.4.1 1.4.2.1.4.5.7 1 2-1.5 3.6-2.8 4.8-3.8 9.8-8.2 24.1-24.7 27.5-27.9 3.3-3.9 5.5-6 2.9-2.6s-9.6 11.9-15.2 18c-5.6 6-18.8 17.1-30.5 26.3.4.4.8.7.9.8.1.2 1 .7 1.6.5.6-.1 3.3.8 3.5 1 .4.3 1.1.6 1.1.6s-1.5-.4-3.2-.7-3.5-.7-4.2-.6c-.7 0-1.3 0-1.6-.1l-.6.5c.1.1.1.1.3.1.1 0 1.8.8 3 1.1 1.1.3 2 .6 3.1.9 1.2.3 2 .6 2.6.7.5.1.4.4-2 0-2.3-.4-2.7-.5-3.5-.7s-1.4-.3-1.7-.2c-.8.2-1.4-.3-1.6-.4s-1.5.1-2.5.3l-.7.5c.5.1 1.4.2 1.9.3.8.2 2.5.4 3.1.7s1.7.5 3 .8 2.5.6 3.3 1c.9.4-3.7-.7-4.5-.6s-.2-.2-2.4-.3c-2.2 0-1.1-.5-2.8-.2s-1.2-1-1.7-.6c-.2.1-1.1.1-1.8 0l-.4.3c.6.1 1.4.2 1.8.5.5.2 2.9 1.1 3.5 1.4s1.9.5 3.3.9c1.4.3 2.7.5 3 .8s-3.4-.4-4.5-.7-3.2-.5-4.1-.5c-1 0-2.6-.3-3.2-.3.5.4 1.1.9 1.6 1.4.2.1.4.2.5.4s2.1.7 3.9 1.1c1.4.4 2.7.7 3.1.8s-1.2 0-3-.3c-.9-.1-1.8-.3-2.5-.4 1.4 1.1 2.9 2.2 4.3 3.2 4.7-3.4 11.1-7.9 18.2-13.5.8-.6-11.5-3.1-10.6-3.8.7-.5 14.4.7 15.1.1 8.9-7.6 18.4-16.9 25.8-28.1 4.8-7.3 9-16.4 12.7-26.2.2-.6-7.2-1.1-7-1.7s8.6-2.9 8.8-3.6c5.5-19 7.9-37.2 6.9-44z"/><path d="m678.7 377.8c-2.9 4.2-34.7 32.9-47.8 39.5-13.1 6.5-9.9 4.6-14 6.2-.2.5-.4 1-.5 1.2-.4.6-.7 1.6-.5 1.8.1.1 0 .9 0 1.6-.1 0-.3.1 0 0h.1c.2-.1.7-.3 1.5-.6 3-1.2 16.4-7.5 20.9-10.5s8.4-6.2 5.5-3.5c-2.9 2.8-8 7.6-11.1 8.6-3.2 1-7.7 3.5-10.6 5s-5.4 2.6-8.9 4.2c.6.5 1.3 1.1 1.4 1.3.1.1 1.1.6 1.7.5.7 0 3.2 1.1 3.3 1.2.2.3.7.7.7.7s-1.2-.7-2.8-1.2c-1.5-.5-3.4-.8-4.3-1-1.2-.3-1.8-.6-2.1-.7l-.3.1c.1.2.4.5.6.5.2.1 1.2.9 2.5 1.5 1.2.6 3.6 1.5 4.2 1.8.6.2.6.4-1.8-.3s-3.3-1.2-4-1.3-1-.5-1.2-.6-1.8-.4-2.5-.4l-.2-.1-.2.1h.1c0 .2 1.1.6 1.6.9.6.3 1.7.8 2.1 1.2s3.6 1.4 4.2 1.9-2.5-.8-3.2-.8c-.7-.1-.1-.1-1.7-.6-1.6-.4-.7-.5-1.9-.6s-.6-.9-1-.7c-.1.1-.8-.2-1.4-.3h-.1c.1.1.2.3.3.4.3.1.6.3.7.4.3.3 1.6 1.2 2.1 1.6s3.8 1.7 4 2c.3.4-2.3-.7-3-1.1s-2-.9-2.7-1.1h-.1c.3.6.5 1.2.8 1.8.3.2.7.4 1.1.6 1 .5 1.9 1 2.1 1.1.3.2-.8-.2-1.9-.7-.4-.2-.8-.3-1.1-.5.2.7.4 1.4.6 2.1 0 0 0 0 .1.1.2.1.7.5.7.5l-.7-.3c0 .2.1.5.1.7 3.1-1.2 7.8-3.1 14.4-6.3.6-.3-4.2-2.7-3.6-3s8.3.9 9 .5c1.1-.6 1.7-.9 2.7-1.5.4-.2-3.4-1.6-2.9-1.9.4-.2 6.3 0 6.8-.3 4.2-2.5 7.6-4.8 11.1-7.9 14.1-12.4 31.8-40.6 33-44.8 1.4-4.3 1-3.2-1.9 1z"/><path d="m636.6 448c-5 1.9-10.1 3.1-14.6 4-.1.5-.4 1.1-.7 1.3-.5.4-1.1 1.1-1 1.3 0 .1-.1.3-.4.6 2-.4 2.5-.5 4.4-1 1.8-.6.5.8-1.1 1.1-1.6.4-2.5.7-4.6 1.3l-.1.1c-.2 0-.3.1-.5.1-1.2.4-2.6.8-3.9 1.2.3.2.7.4 1 .6.5.3 1.6 1 1.9 1.4s1 .8 1.9 1.4 2 1.3 2.3 1.6c.3.4-.4 0-1.3-.5s-1.6-1.1-2.1-1.2-.1-.2-1.7-.8-.6-.6-1.9-.7-.4-1.1-.9-.9c-.1.1-.8-.2-1.3-.5l-.4.1c.3.2.8.6 1.1.9.1.1.4.5.8.9.3.3.7.7 1 1 .2.2 1.1.8 2 1.4s1.8 1.1 1.9 1.4c.1.4-2.4-1.2-3.1-1.7s-2-1.1-2.7-1.3-1.6-.9-1.9-.9c-.7-.2-1.2-.6-1.6-1-1.4.4-2.5.6-3.5.7-.9.1-2.4.3-4.2.5.1.2.2.6.2.9.2.7.2 1.4.1 1.6s.2 1.1.7 1.4c.3.2.7.7.9 1.3.3.6.5 1.2.5 1.3 0 .3.2.9.2.9s-.7-1.1-1.4-2.2c-.8-1.1-1.8-2.4-2.4-3-.9-.9-1.3-1.6-1.5-1.9h-.4c0 .3 0 .7.1.8.1.2.5 1.9.9 2.8s.6 1.4.9 2.1c.4.7.7 1.1 1 1.4s-.1.3-1.3-.8-1.2-1.4-1.5-1.9-.6-.9-.8-1.1c-.6-.4-.4-1.1-.5-1.3s-1-1-1.7-1.6h-.7c.2.5.6 1.1.7 1.6.3.7 1 2 .9 2.5 0 .5.3 1.2.7 2 .4.7 1 1.2 1.1 1.7s-1.6-1.6-2.1-1.9c-.6-.3 0-.1-1-1.4s0-1-1.1-1.7c-1.1-.8.2-1.5-.3-1.5-.2 0-.5-.5-.8-1l-.5.1c.2.4.4.9.5 1.3 0 .5.3 2.6.3 3.2s.3 1.4.7 2.3.9 1.5.8 1.8-1.4-1.7-1.6-2.5-.8-2.1-1.3-2.7-1-1.9-1.2-2.2c0 0-.4-.6-.7-1h-.5c.3.8.7 1.8.7 1.8s.3 1.5 0 1.8c-.1.2 0 .9.3 1.7 2.2 1.7 5.9 4.8 6.4 4.7 6.2-.7 13.6-2.3 23.3-5.6 13.1-4.5 25.1-18.4 28.1-22.1 3.2-3.9-6.5 2-11.5 4z"/><path d="m587.6 457s.1-.5 1.1-1 .6-.5 1.3-1.3c-.7 0-1.4 0-2-.1-.7.4-.4.4-.7 1-.3.7-1 1.3-1 1.3l-.8 1.2-.3.6h.4z"/><path d="m607 454.8c0 .1.1.1 0 0-.4.8-1.1 1.4-1.1 1.4-.2.4-.5.8-.8 1.2-.1.2-.2.3-.3.5s-.3.3-.5.5c.1 0 .2-.1.4-.1.8-.7 1.7-1.5 2.6-2.3 0 0 .5-.7 1.1-1s.3-.2.4-.3c-.5.1-1.1.2-1.8.1z"/><path d="m610.5 454.1c0 .3-1 1.6-1 1.6s-1.2 1.2-2 2l.5-.1c.7-.6 1.5-1.2 1.6-1.2.4-.2 1.8-1.7 2.4-2.2.5-.4.8-.6 1.2-1.1-.7.1-1.3.1-1.9.2-.3.3-.5.6-.8.8z"/><path d="m587.1 454.6c-.6 0-1.2-.1-1.7-.1-.5.7-.8 1.2-1 1.3-.6.3-.5.6-.5.8-.1.2-.1.1-.1.2.1.2.2.4.2.6l.6-.4s.3-.3 1.2-1.1c.9-.7 1-1 1.3-1.3z"/><path d="m590.8 459c.6-.5 1.4-1.2 1.6-1.2.5 0-.3-.7 1.2-1.4 1.4-.8.4-.4 1.9-1.7-.5 0-1.1 0-1.7 0-.6.8-1.7 2.3-2 2.7-.3.5-1.1 1.1-1.5 1.6z"/><path d="m595.7 457.3c.2-.3.5-1 1.3-1.4.3-.2.7-.6 1.3-1.1-.6 0-1.1 0-1.7 0 0 0 0 0-.1 0-.4.7-1.7 1.9-2.4 2.6-.5.5-1.4 1.3-1.7 1.7h.4c.9-.5 2.7-1.6 2.9-1.8z"/><path d="m589.7 457.6c.3-.3 1.9-1.7 2.4-2.1s.6-.5.9-.8c-.7 0-1.4 0-2.1 0-.1.2-.3.4-.3.4 0 .4-1.1 1.7-1.1 1.7s-1.2 1.2-2 2.1h.4c.8-.5 1.7-1.2 1.8-1.3z"/><path d="m598.6 457c.6-.5 1.5-1.3 2.6-2.2-.6 0-1.2 0-1.9 0-.1.2-.3.3-.4.4-1.3 1.4-2.3 2.9-2.5 3.1-.1.1-.4.5-.6.9h.3c.2-.3 1-1 2.5-2.2z"/><path d="m536.7 486.5c0-1 .2-1.6.2-2-.2-.2-.4-.3-.6-.5-.1.1-.1.1-.2.2 0 .1-1.1 1.6-1.5 2.7s-.6 1.9-1 3c-.2.5-.4 1-.6 1.4.7.7 1.3 1.5 2.1 2.3.2-.5.8-1.6 1.2-2.8.3-1.6.5-3.5.4-4.3z"/><path d="m564.2 432.4-.6.3c-.5.3-1 .6-1.5 1h.4c.3-.2.7-.4 1.1-.7.6-.3 1.3-.6 2-.8-.4.1-1 .1-1.4.2z"/><path d="m536.3 457.8c.4.3.9.4 1.4.4.2 0 .7.2 1.4.4-.4-.3-.8-.6-1.3-1-1.5-.2-2.9-.4-4.1-.6.4.2.8.3 1.3.5.3.2.9 0 1.3.3z"/><path d="m533.8 460.2c.4.2.7.4 1.1.6 0 0 .3 0 1.6.6s1.7.6 2.2.7c.4 0 4.2 1.4 5.5 1.9-1-1.4-2.1-2.7-3.4-4-.3-.1-.7-.1-1-.2-1.4-.3-2.8-.2-3.1-.4-.5-.5-.7-.2-1.1 0s-.7.2-.7.2c-.4-.1-.8-.2-1.3-.3.1.3.1.6.2.9z"/><path d="m529.3 457.8c-.8.2-3.6.1-4.1.2-.6.1-1.5 0-2.1 0-.1 0-.1 0-.2 0 .1.1.2.2.3.3h.1l1.4.5s.3-.1.7.2c.3.3.3.1.8.2.4.1 3.1.9 3.1.9.1-.8.1-1.6 0-2.3z"/><path d="m521.9 471.3c.2 1 2 3.7 3.2 3.9 1.3.1 7.3 2.4 6.3 1.4s-2.7-5.4-2.9-7.4.4-4.3.7-7c-.3 0-.7 0-1 0-.7 0-1.4.1-1.5 0-.3-.1-.4 0-.5.1-.2.1-.3.1-.3.1h-.6c0-.1-.1-.6 0 .4.1 1.1 0 5.9.9 7.5s3 3.7 1.7 3c-1.4-.7-2.8-3.7-3.4-6.4-.2.4-.4.6-.4.6s-.6.8-.8.9c-.1.1-.7 1-1.2 1.8-.1.2-.3.4-.3.6 0 .1-.1-.5.1.5z"/><path d="m425.9 498.1c-.9 0-1.7 0-2.4.1.1 1.7.1 3.2 0 3.8 1-1.2 1.8-2.6 2.4-3.9z"/><path d="m453.1 506.9c.5.5.7 1 .5.9-.2 0-.5-.3-.8-.6-1.3.6-2.8-1.5-3.9-3.4 0-.1.3.1-.1-.1s-3.3-2-3.9-2.3c-.4-.2-.7-.5-1-.9-.1.2-.2.5-.3.8.2.4.4.7.3.8-.2.6 1.4-.4 1.8 1.3.5 1.7.5.4 1.7 2.3s1.3 1.1 1.5 1.9 2.4 3.9 1.7 3.5c-.6-.4-1.1-1.3-1.9-2.2-.9-.9-1.7-1.8-2.4-2-.7-.3-2.1-1.7-2.8-2.5-.3-.3-.6-.6-.9-1-.2.4-.4.8-.6 1.2.3.7.5 1.3.7 1.5s1.3.5 1.5 1.4c.1.4.5.9 1.1 1.6s1 .8 2 2.8.9 2.5.6 2-.8-1.1-1.6-1.9-1.4-1.3-2.4-2.3c-1.1-1-3.2-2.5-3.3-2.7-.1 0-.1-.1-.2-.2-.2.3-.4.5-.6.7.3.5.8 1.2 1.3 2.2s1.8 3 3 4.4c1.2 1.5 2.5 2.8 2.5 2.8s-.7-.5-1.2-.7c-.1 0-.8-.6-1.5-1.2-.7-.7-1.4-1.3-1.5-1.8-.2-.8-1.3-1.7-1.6-1.6-.3 0-1.2-.5-2.1-1.1-.5-.3-1-.7-1.3-1-4.1 3.6-9.1 8.8-9.1 8.8s-1.1-.4.8-2.8c1.9-2.3 1.5-1.7 2.2-2.5-.7-.1-1.4-.1-1.5-.2s-1.2.1-1.8.6c-.3.3-1.1.6-1.8.9s-1.4.6-1.4.6c-.3 0-.9.2-.9.2s1.3-.7 2.8-1.5c1.6-.8 3.6-1.6 4.5-2.1 1.4-.6 2.4-.9 2.7-1 .1-.2.3-.3.4-.4-.3-.1-.6-.1-.9-.1-.2.1-2.3.2-3.5.5s-2 .6-3 1c-.9.4-1.6.7-2 1s-.2-.1 1.6-1.3 2.4-1.2 3.2-1.5 1.4-.5 1.8-.8c.8-.5 1.5-.3 1.8-.4s2.2-1 3.4-1.6c.1-.1.2-.3.3-.4-.6.1-1.8.4-2.5.5-1 .2-2.8.8-3.4.8s-1.6.3-2.8.8-2.3 1.1-2.7 1.2.2-.3 1.1-.9 2-1 2.5-1.4.1 0 2.2-1 1.2-.1 2.8-1.1 1.6.4 2-.2c.1-.1 1-.4 1.8-.7 0-.1.2-.3.2-.5-.7.1-1.4.3-2 .3s-3.5.3-4.2.3-1.9.3-3.3.8c-1 .4-1.9.9-2.4 1.1-.2.3-.3.3-.6.7s-1 1.1-1.6 1.5c-.4 3.2-.8 6-1.2 10.4s.1 8.8 1.2 9.1 1-1 4.9-3.1 14.2-4.8 18-7.6 7.5-6 7.6-12.7v-1c-.4.7-.8 1.4-1.2 2.1.1.6-.1.8-.3 1z"/><path d="m423.2 501.1c-.1-.2-.2-1.4-.4-2.8-1.1 0-2.2.1-2.5.2s-.2 0-.2.1v5.5s-.2-.9-.2-1.5c0-.7-.4-2-.8-3.6-1 .6-1.8 1.4-2.8 2.6 0 .3 0 .5-.1.7-.1 2.2-.3 4.1-.4 3.5 0-.4-.1-1.9-.2-3.5-.1.1-.2.3-.5.6-1 1.2-2.2-4.5-1.8-7.3.1-.9.1-1.6 0-2.5v.2c-.1.5.1 2.6-.2 3.7-.3 1-.4 3.4-.3 4.8s.1 6.2-.3 5.4-.2-6.8-.5-7.9c-.2-1.1-.8-3.9-1.1-4.4-.3-.6-.3-1.7-.4-2.3-.1.1-.3.2-.4.3v.2c0 .8-.1 1.8-.3 1.9-.6.5 1.3.2.5 1.9-.8 1.6 0 .5-.4 3-.5 2.5 0 2-.3 2.9s-.1 6.9-.5 5.4-.2-7-.6-7.9-.3-2.5-.5-3.3c-.1-.7-.2-2.1-.5-2.1v-.1c-.1.1-.3.2-.4.3l.1.2c-.5.9-1.1 2.9-1 3.1.1.3.7.7.4 1.5-.4.9.1 3.4-.1 6.2-.1 2.8-.2 2.5-.3 2.9 1.8-.3 1.5-.3 5.3-.7s9.5-3.1 11.9-6.2c0-.2-.1-.8-.2-1z"/><path d="m429.7 502.6c-.9 1.3-1.9 2.6-2.8 3.8.9-.5 2.4-1.3 3.3-1.5s3.1-.9 4.1-1.4 3.1-1 3.6-1.2c.1 0 .9-.3 1.7-.6l.3-.6c-1.3.2-2.8.6-2.8.6s-2.1.2-2.5-.1c-.2-.1-2.5.3-4.4.8-.1.1-.3.2-.5.2z"/><path d="m439 495.9c.8-.4 1.7-.8 2.6-1.3.3-.1.6-.1.9-.2 0-.1-.1-.2-.1-.3-.4.1-.7.2-1.1.2-.7.2-1.4.3-2.1.6 0 0-.2 0-.5-.1l-.3.1c-1.5.9-3.2 1.6-5 2l-.3.5c.8-.2 1.3-.4 1.6-.4s1-.1 2.4-.6c1.6-.5 1.9-.5 1.9-.5z"/><path d="m430.3 501.9c1.7-.7 3.3-1.1 4.1-1.4s1 .2 2-.6 1.7-.5 1.7-.5c1.1-.4 2.1-.8 3.1-1.2l.2-.5-.3.1c-.3 0-.6 0-.8-.1-.6 0-1.2 0-1.8 0 0 0-1 .4-2 .3s-1.1-.3-1.7.1-1.4.4-2.4.5c-.6 1.1-1.4 2.2-2.1 3.3z"/><path d="m555.3 402.2c1.7-.3 8.5-.8 12.4-3 3.8-2.2 12.8-9.1 13.8-14.2s.7-5.5-1.1-4.2-7.4 2.3-13.4 1.8-10-1.6-11.9-1.4c-1.9.3-2.2-.3-1.8-.8-.7-.2-.1-2.4 3.1-5s8.6-11.8 9.7-13.1-1.9-1.2-5.3.5.7-1.7 3.8-3.8 3.2-6.1 4.7-9.4 2-5 .5-4.1c-1.4.9-10.1 4.9-11.9 5.6s-2.8.7-4.9 1c-1 .5-2 1.1-2.9 1.7-9 5.7-13.3 14.2-13.8 16.1s-2.2 2.9-3 2.9c-.3.2-.8 1.2-1.2 2.3 2.5 6.2 4.1 12.7 4.7 19.4 2.4-1.7 4-2.5 2.6-.1-.8 1.5-1.7 2.5-2.4 3.3 0 .8.1 1.6.1 2.4 0 1.1-.3 2-.7 2.7 2.5 5.4 1.2 13-1.6 19.7v.2c0 3.6.2 7.1-.5 10.7-.3 1.8-1.8 3-3.5 3.5-.4 1.9-1 3.9-2 5.7-.9 1.7-2.4 2.5-3.8 2.5.4.7.6 1.5.5 2.3-.4 3.6-1.5 6.7-3.2 9.7h.3c.1.2.4-.4 1.1-.1.8.3.3 0 1.6.2s1 0 1.4.1 2.3.1 2.7.1c0-.3.3.5-.2-1-.5-1.4-2.2-3.8-3.4-4.5-1.3-.7.7-1.4 2-.9.8.4 1.4.8 2.1 1.3 1.9-.2 4.7-.7 7.7-.3s19 2.9 20.5 4.1.5-.5.7-3.3c.2-2.7 2.1-7.5-.1-8s-7.2-.9-8.2-1-.7-1.2.7-1.6 6.9-1.1 6.6-2.6c-.3-1.6-3.2-6-5.6-9.3s-3-4.2-3.8-4.8.1-1.4 1.5-.8c1.2.5 2.3 1.2 3.4 2 1.5.2 2.3.2 7.8 1.2 5.4 1 12.1 1.4 14.3 1.8 2.3.4 2.1-.1-.1-2.3s-5.1-14.2-5.5-15.7c-.5-1.6-.2-.4-.2-.6-.4.1-1 .4-1.7.6-1.1.3-2.4.7-2.5.8-.2.2-1.3.6-1.3.6s-1.4.4-2 .6c1.6.7 3 1.7 3.2 2 .3.4.3.4.5.7h.1v.2c1.3 2.5 3.3 8 4.9 9.1 1.6 1-2.1-.9-3.1-3.1-1.1-2.2-1.3-2.4-2.2-3.7-.1.5-.2 1.1-.2 1.7-.1 1.3-.5 4-.5 4.6s-.2.9-.3-1.4.2-3.5-.1-3.9c-.3-.5.1-1.1.1-1.3s-.4-1.4-.7-1.8v-.1c-.2-.3-.5-.6-.8-.9-.1.2-.2.5-.1.6 0 .2-.4 1.6-.6 3.2-.2 1.5-.4 6.1-.4 6.7 0 .7-.6-.6-.5-3.3 0-2.8.3-4 .1-4.7s.1-1.2.1-1.5c0-.2-.4-1.8-.6-2.5v-.1c-.2-.1-.5-.2-.7-.3-1.3-.5-2.6-1-3.7-1.4v.3c0 1.1.1 3.5.1 3.5s-.1 1.9-.3 2.3c-.1.3-.1 2.3-.1 4.2 0 1.5 0 2.9-.1 3.3-.1.9-.5-6.1-.6-7.1s.2-.9-.1-1.8-.1-1.5-.1-1.5l-.4-3.4v-.2c-.8-.2-1.4-.4-1.9-.4-1.6 0-2.6-1-1-.8.4 0 .8.1 1.3.2l2.8-1c.2-.1.4-.4.8-.5s.7-.2 1-.5c.3-.2 4.8-2.2 5.2-2.3.5-.2-.4.2-.6.4-.1.1-1.5.7-2.6 1.4-.9.5-1.7 1.1-1.9 1.2-.5.1-.5.2-.6.4-.2.2-.3.3-.3.3l-1.3.6-.7.3c1.1.3 2.2.6 3.4 1.1l.8-.3 1.7-.2s.2-.1 1.1-.3 1.1-.3 1.4-.5c.3-.1 4.1-1.2 4.1-1.2s-.3.2-.8.3c-.4.1-2.4 1.4-3 1.4s-.4.1-.8.4c-.5.3-1.1.5-1.1.5l-.8.5-.2.2.4-.1 2.1-.4s.3-.3 1-.2c.6.1.5-.1 1.1-.3.5-.1 3.2-.7 4.2-.9-1.4-2.8-6.7-6.2-11.4-6.7-1.4-.1-1.3-.3-.5-.5-.2 0-.3 0-.4 0-2.4.1-3.9-1.7-2.2-2zm-9.8-31.6c-2.4.9-3.7 1.2-3.8 1.3h-.1c-.2.4 0-.1-.5 1.3-.5 1.3-1.3-.4-.1-2.4s3-3.5 5.3-6.5v-.1c.1-.5.1-1.2.2-1.3 0-.2 0-1.1.1-1.6s.1-1.4.1-2-.1-2.4 0-2.2c.2.2.2 2.7.3 3.1s.3 1.5.4 1.8c.1.2.1.6.1.8.1-.1.1-.2.2-.3 0-.3.1-.6.1-.7.2-.2-.4-.1-.1-.9s0-.3.2-1.4c.2-1.2 0-.8.1-1.2s-.1-2.9.1-2.4c.2.6.2 3 .4 3.4.1.4.1 1.3.1 1.7 0 .2 0 .4-.1.6.5-.6 1.1-1.1 1.7-1.7 0-.2.1-.5.1-.8.1-1.1 0-4.6-.1-5.2.1.1.1.4.2.6.1.1.3 2 .2 2.5s0 1.2.2 1.2c0 .1.2.5.3.9 3.8-3.3 9.6-6.3 13.2-7.8 1.8-1.4 0 .7-2 1.6-2 1-4.8 2-8.1 4.7.3-.1.7-.2 1-.3.7-.1 1.9-.5 2.6-.5.6 0 4-.9 4.9-.9.8 0-2.7.7-3.3 1s-.2-.1-1.8.5-.9.1-1.9.6c-1 .6-1.2-.1-1.4.2-.1.1-.8.3-1.3.5h-.1c-3.6 3.4-6.9 6.6-8.1 8.3.4-.1 1.2-.4 1.7-.6.6-.2 1.8-.6 2.4-.7s3.8-1.1 4.6-1.1c.8-.1-2.5.9-3 1.1-.6.3-.2-.1-1.6.6-1.5.7-.9.1-1.8.7-.9.7-1.2 0-1.3.3-.1.1-.7.4-1.2.6l-.6.2c-.3.4-.6.9-.9 1.3 1.4-.1 3.7-.4 4-.3s2.1-.2 3-.6 5.5-1.3 5.9-1.3c.7 0 1.8-.2 1.8-.2s-9.9 2.6-12.3 3.6zm9.1 20.3c-1.7.2-1.8-.1.4-.8.5-.5 1.2-1.1 1.3-1.2.3-.2 1.2-1.1 1.7-1.5.6-.4 1.6-1.4 2.2-2.1.5-.6 2.4-2.6 2.3-2.3s-2.6 2.9-2.9 3.4c-.4.5-1.4 1.8-1.6 2.2-.2.3-.6.7-.9.9.8-.1 1.6-.3 2.4-.5.3-.2.6-.4.7-.4.4-.1-.3-.4.8-1s.2-.2 1.5-1.3c1.3-1 .8-.8 1.3-1.2s2.8-2.8 2.4-2.2-2.7 2.9-3 3.4c-.3.4-1.2 1.3-1.7 1.7-.2.2-.5.4-.7.6 5.1-.9 11-1.3 13.4-2.7s3.9-2.5 1.8-.5c-2.2 2-6.4 2.2-10 3 .6.4 1.6 1 1.6 1s.9.7.9 1c0 .1 1.1.8 2.1 1.4.7.5 1.4.9 1.6 1.1.4.4-3.6-1.6-4.2-1.9-.6-.4-.3-.5-1-.5-.7-.1-.9-.4-.9-.4l-2.1-.9h-.1l-.3.1.5.3 1.4.8s.1.1.3.3c.1.2 0 .4.6.6.3 0 1 .8 2 1.5 1.2.8 2.6 1.6 2.7 1.7.2.2 1.1.7.6.5s-5.4-2.6-5.7-2.9-.6-.5-1.1-.7c-.5-.1-.5-.4-.8-.6l-2.8-1.1c-.9.2-1.8.4-2.7.6.4.3 1.2.8 1.6 1.2.7.5 1.9 1.3 2.3 1.9s3.7 3 4.2 3.8-2.7-1.9-3.4-2.1c-.8-.3-.1-.3-1.9-1.1-1.8-.9-.6-.8-2.1-1.1s-.6-1.3-1.1-1.2c-.2 0-1-.4-1.6-.7l-.3-.4c-.4.2-.1.1-1.7.3z"/><path d="m520.4 462.2c-.2.1-.9 1.6-1.1 2.4s-1.9 4.5-2 4.8c-.3.5-.8 1.4-.8 1.4s3.2-7.9 3.8-10c-.2.2-.4.5-.6.6-1 2.1-2.1 4-3.3 5.9-.3.8-.6 1.4-.7 1.6-.3.7-.5 1 .1-.8-.6.8-1.3 1.6-2 2.3l.6.3c1.8 1 3.7 1.6 3.7 1.6s.9-3.3 1.2-4.7c.4-1.5 1.8.9 2.3 2.8.4-.9 1-2 1.1-2.2.2-.5.4-.4.4-.8 0-.5.3-.7.3-.7l.6-1.4c-.4-2.5-.3-4.9-1.6-6.6-.4.9-1.7 3.2-2 3.5z"/><path d="m527.8 459.9c-.8-.2-1.7-.3-1.9-.3-.2.1-1.1 0-1.1 0s-.4-.1-.8-.1c.5.7.8 1.4 1 2.1l.5.1c.2 0 .4-.1.6 0s.5.1.7 0c.1 0 1.2.1 2.2.2.1-.6.1-1.2.1-1.8s-.6-.1-1.3-.2z"/><path d="m474 488.8c-.6.8-1.4 1.5-2.2 2.1.5-.1.6-.1 2-.4s2.3-.5 2.3-.5l.9-.3c-.1-.2-.2-.5-.2-.7h-.1s-.3 0-.8-.1c-.4-.1-.5-.4-1.4 0 0-.1-.2-.1-.5-.1z"/><path d="m465.6 500.8c2.6-.8 1.5.1 3.4-.9s2.3.4 2.6-.1c.1-.2 1.4-.5 2.5-.8l.2-.4c-.8.1-2 .3-2.8.3s-4.4 0-5.3 0-2.5.2-4.3.4c-1.4.2-2.6.4-3.3.4.1 1 .1 2.2.1 3.5.2-.2 3.5-1.1 4.1-1.5.8-.6.2-.1 2.8-.9z"/><path d="m487.2 499c-.4-.2-.8-.5-1.1-.7-.4-.2-.4-.2-.9-.4s-3.3-1.7-4-2c-.5-.3-1.1-1-1.6-1.5l-.3.4c.4.7.9 1.6.9 1.7-.3.6 1.4-.4 1.8 1.2s.5.4 1.7 2.1c1.3 1.6 1.4.9 1.6 1.6s2.1 3.4 1.5 3c-.5-.4-.8-1.1-1.7-1.8-.9-.8-1.8-1.4-2.6-1.6s-2.2-1.5-3-2.1c-.5-.5-1.2-1.5-1.7-2l-.4.6c.2 1.1 1 2.9 1.2 3.1s1.3.4 1.6 1.3c.1.5.6.8 1.2 1.4.6.5 1 .6 1.8 2.3s.5 2.2.2 1.8c-.2-.4-.7-.9-1.3-1.5s-1.1-.9-2.2-1.8-3.4-2.2-3.5-2.5c-.1-.2-.7-.5-1.1-.7l-.1-.1-.2.4h.1c0 .1.8 1 1.8 3.1.4 1 1.5 2.8 2.6 3.9 1.1 1.2 2.4 2.2 2.4 2.2s-.7-.4-1.2-.5c-.1 0-.9-.4-1.6-.8s-1.2-1.1-1.3-1.4c0-.8-1.1-1.5-1.4-1.5s-1.2-.5-2.1-1c-.5-.4-1-.8-1.4-1-1.7 2.8-3.3 5.5-4 6.9-.9 1.8-.3-.2.6-2.7-.9 0-3-.1-3.2-.4-.2-.2-1.5-.1-2.1.4-.3.2-1.3.5-2.2.7s-1.8.4-1.9.3c-.5 0-1.2.1-1.2.1s1.7-.6 3.6-1.2 4-1.2 5-1.7c2-1 3.2-1.2 3.2-1.2 0-.1.1-.2.2-.4h-.1c-.4 0-.9-.1-1.2-.1-.3.1-2.8.1-4.3.3-1.4.2-2.2.4-3.3.6s-1.9.4-2.3.7c-.5.2-.4-.3 1.5-1.2s2.5-.9 3.4-1.1 1.6-.4 2-.7c.8-.5 1.8-.2 2.2-.3.3 0 2.5-1 3.7-1.6.1-.2.2-.4.3-.6-.8.1-2.2.4-3.2.6-1.2.1-3.5.6-4.3.5s-2.1.2-3.5.5-2.4.6-3.3.6c-.1 0-.1 0-.1-.1-.1 1.7-.2 3.7-.6 5.7.7 1 1.3 1.8 1.7 4s3 10.8 4 12.7c1 1.8 1.3 6.9 1.7 8.1s2.1-2.3 3.4-3.9c1.4-1.6 3.4-2.8 3.4-4.2s-1.5-8.4-1.7-9.7.5-2.5 1.6-1.1c1.2 1.4 4.9 6.3 5.7 6.5s6.5-8.2 8-11.1 2-7.5 2.3-10.3c0-.1-.1 0-.2-.1.1-.3-.2-.5-.5-.7z"/><path d="m499.6 502.6c.9-1.9 1-.9 1.2-2.3.3-1.4 1.5-1 1.3-1.4-.1-.1.4-1 .7-1.6l.1-.1-.2-.2c-.3.5-.7 1.2-1.2 1.7-.4.4-2.4 2.6-2.8 2.9 0 .5-.2.8-.6 1-.5.9-1.2 2.2-1.7 3.2.2.2.5.4.8.6.2.2.5.4.7.7.4-.9.8-1.9.9-2.3-.1-.8-.1-.2.8-2.2z"/><path d="m497.2 502.7c-.5 0-1.2-.1-2.2-.3-.4.6-.7 1.2-.9 1.7.5.4 1.1 1 1.7 1.4.4-.9.9-1.9 1.1-2.4z"/><path d="m502.6 481.9c-1-.3-2.1-.7-2.3-1-.6-.5-1.9-.8-2.1-.7-.3.1-2-.2-3-.3.3 2.2.7 2.9.2 6.7s-.8 6.6.2 8.7c.8-2.6 4-6.6 6.7-12.5.1-.4.2-.7.3-.9z"/><path d="m507.7 480.7c1.9-.2 4.1-.4 5-.5-.7-.9-1.4-1.8-2-2.6 0 0-.1 0-.1.1-.1.1-.7.2-1.6.4-.5.8-.8 1.7-1.3 2.6z"/><path d="m498.9 498c-.5 1-.6 1.9-.6 2.3.1.4.1.4.1.5.2-.4.3-.5.5-1.1s1.4-2.3 1.6-2.7c0-.1.4-.8.8-1.5-.1-.1-.2-.2-.3-.3-.6.9-1.4 2.1-1.4 2.1s-.3.4-.7.7z"/><path d="m495.4 495.9c-.6-1.2-1.3-2.7-1.7-3.9-.3-1.2-.4-3.4-.5-5.5l-.2.3s-.2.1-.5.3c-.3.1-.5.1-.7.6-.1.3-1.2.9-2.2 1.9-1.2 1.1-2.4 2.4-2.5 2.5-.2.1-.4.3-.5.5.6.7 1.1 1.3 1.6 1.7 3.3 2.7 7.6 4.3 7.2 2.9-.4-1.6-.1-.8 0-1.3z"/><path d="m458.5 499c0 .1 0 .2.1.4 1-.3 3.7-.7 5-.9 1.3-.1 4.1-.6 5.3-1s3.7-.8 4.3-1c.1 0 1.4-.4 2.5-.7.1-.2.2-.4.2-.6-1.5.2-3.6.6-3.6.6s-2.5.1-2.9-.2c-.3-.2-3 .1-5.5.3-.5.1-1 .1-1.4.2-.4.3-.7.5-.9.5s-.4-.2-.6-.3c-.5 0-.9.1-1.2.1.2.6.3 1.2-.1 1.4-.3.2-.7.7-1.2 1.2z"/><path d="m477.5 492.1h-.6c-.7 0-1.4 0-2.1 0 0 0-1.2.2-2.4.1-1.1-.1-1.3-.2-2 .1s-1.1.3-1.7.3c-2.2.8-4.1 2.2-5.4 3.1h.2c2.4-.5 4.8-.9 5.8-1.1 1.1-.2 1.1.3 2.5-.5 1.3-.7 2.1-.4 2.1-.4 1.1-.3 2.2-.6 3.2-.9.2-.3.3-.5.4-.7z"/><path d="m505.5 473.4h-.1c-1.2.1-5.3-.7-6.2-.7-.9.1-2.4-.3-3.2-.5-.8-.1-2.2-.5-2.4-.4h-.3c0 .1.1.1.1.2h.4c.6.4 2.2 1.2 2.5 1.2s1.1-.1 1.7.2c.6.4 3.5.7 5.4 1.1s1.2.3 1.6.4c.2-.3.4-.9.5-1.5z"/><path d="m569.4 358.4c0 .2.1.3.1.4-.2-.1-.2-.3-.1-.4z"/></g></g><g><path d="m368.2 213.3 37.1 15.4c0 9.4-.8 38.2 5.1 46.7 61.7 79.5 51.3 238.7-12.5 242.8-97.2 0-134.2-66-134.2-126.7 0-55.3 66.3-92.1 105.9-124.8 10.1-8.8 8.4-28.2-1.4-53.4z" fill="#fffcdb"/><path d="m405.3 228.2 13.4 6.8c-1.3 8.8.6 28.3 9.4 33.3 39 24.2 75.8 50.6 90.2 77 51.5 93-36.1 179.2-111.9 171 41.2-30.5 53.1-93 37.7-161.3-6.3-26.7-16-50.9-33.3-78.3-7.5-13.3-4.9-30-5.5-48.5z" fill="url(#a)"/><path d="m420.2 127.8-11.3 44.9c16-31.7 41.5-55.6 70.7-76.7-21.4 24.8-40.9 49.7-52.8 74.5 20.1-28.3 47.1-44 77.6-54.4-40.5 36.2-72.7 74.9-97.3 113.9l-19.5-8.5c3.6-31 15.4-62.9 32.6-93.7z" fill="#abcd03"/><path d="m479.7 96c-14.5 15.5-39.7 42.7-53.2 66.5-11.5 20.3-19.4 38.3-23.8 50.5-2.8 7.8-14.2 7.7-10.9-5.2 0-.1.1-.2.1-.4 4.4-10.3 11-24.8 17.7-37.5l10.5-42.3c-5.2 17.8-12.6 34.1-17.2 52.6 0 0-8 18.5-10.2 23.2-.7 1.6-1.3 3.1-1.9 4.6 0 .1-.1.1-.1.2-.9 2-1.5 4.2-2 6.2-.1.3-.1.5-.1.8-.6 2.8-.9 4.9-.9 4.9 3.3 2.8 19.5 9.8 19.5 9.8 24.5-39 56.8-77.8 97.3-114-30.5 10.4-57.5 26.1-77.7 54.4 12-24.6 31.5-49.4 52.9-74.3z" fill="#437202"/><path d="m403.7 227.5 3.5 2.7c24.5-39 56.8-77.8 97.3-114-23.3 19-54.5 45.2-67.7 62.6-16.7 21.9-6.9 1.3-6.9 1.3s8.9-22.9 24.4-37.3c-9.1 4.3-24.8 23.9-27.5 27.7 0 0-11.8 22.9-18.4 43.6-1.6 5.5-4.7 13.4-4.7 13.4z" fill="#153902"/><path d="m394.7 224.3v293.9h3.3c63.8-4.1 74.2-163.4 12.5-242.8-5.9-8.5-5.2-37.2-5.2-46.6z" fill="#f3ecaa"/><g transform="matrix(.6140245 0 0 .6140245 35.343477 26.159943)"><path d="m592 325.3 45 6.1c-13.3 44 26.1 74.7 38.9 81.9 28.7 15.9 56.3 32.2 78.3 52.2 41.5 37.9 65 91.1 65 147.4 0 55.8-25.6 109.6-68.6 145.4-40.4 33.8-96.2 48.1-150.5 48.1-33.8 0-64-1.5-96.8-12.3-74.7-25.1-130.5-89.1-135.1-165.9-4.1-59.9 9.2-105.5 55.8-153.1 24.1-25.1 72.7-53.8 106-76.8 16.4-11.3 33.8-43 .5-102.9l6.7-5.1 49.3 33-41.5-17c3.6 5.1 13.3 28.2 15.4 34.8 4.6 18.9 2.6 37.4-1.5 45.6-21 37.9-56.8 48.1-82.9 69.6-46.1 37.9-96.2 68.1-90.6 172 2.6 51.2 42.5 113.7 102.4 142.8 33.8 16.4 72.7 23 112.1 25.1 35.3 1.5 102.9-19.5 139.8-50.2 39.4-32.8 61.4-82.4 61.4-133.1 0-51.2-20.5-99.8-58.9-134.1-22-20-58.4-44-80.9-56.8s-50.7-48.6-41.5-82.9z"/><path d="m578.2 401c-4.6 23.6-9.7 66-30.2 81.9-8.7 6.1-17.4 12.3-26.6 18.4-36.9 25.1-73.7 48.6-90.6 109-3.6 12.8-.5 26.6 2.6 39.4 9.2 36.9 35.3 76.8 55.8 100.3 0 1 4.1 3.6 4.1 4.6 16.9 20 22 25.6 86 39.9l-1.5 7.2c-38.4-10.2-70.1-19.5-90.1-42.5 0-.5-3.6-4.1-3.6-4.1-21.5-24.6-47.6-65.5-57.3-103.9-3.6-15.4-6.7-27.1-2.6-43 17.4-62.5 55.3-87 93.7-113.1 8.7-5.6 18.9-10.8 27.1-17.4 15.8-11.7 24.5-47.5 33.2-76.7z"/><path d="m594.6 498.3c.5 26.6-2.1 40 4.6 58.9 4.1 11.3 17.9 26.6 22 41.5 5.6 20 11.8 42 11.2 55.3 0 15.4-1 44-7.6 74.7-5.1 25.4-16.8 47.2-36.4 59.5-20.1-4.1-43.8-11.2-57.8-23.2-27.1-23.6-51.2-62.9-54.2-97.2-2.6-28.2 23.5-69.7 59.9-90.7 30.7-17.9 37.9-38.3 44.5-71.1-9.2 28.7-17.9 52.7-47.6 68.1-43 22.5-65.1 60.3-63 96.2 3.1 46.1 21.5 77.3 57.9 102.4 15.4 10.7 44.1 22.1 62 25.2v-2.3c13.6-2.5 31.2-24.9 39.9-55.1 7.7-27.1 10.7-61.9 10.2-83.9-.5-12.8-6.2-40.5-16.4-65.6-5.6-13.8-14.3-27.6-19.9-37.4-6.2-9.8-6.2-30.7-9.3-55.3z"/><path d="m591.6 598.7c.5 17.9 7.7 40.9 10.8 64.4 2.6 17.4 1.5 34.9.9 50.3-.5 17.8-6.4 49.6-14.5 65.1-7.6-3.5-10.6-7.5-15.6-13.9-6.1-8.7-10.3-17.4-14.4-27.6-3.1-7.7-6.7-16.5-8.2-26.7-2-15.4-1.5-39.4 15.9-64 13.3-19.5 16.4-20.9 21-43.5-6.1 20-10.7 22-25.1 38.9-15.9 18.4-18.5 45.6-18.5 67.6 0 9.2 3.7 19.4 7.3 29.2 4.1 10.2 7.6 20.4 13.2 28.1 8.5 12.5 19.3 19.5 24.6 20.9h.1c.1 0 .2.1.4.1v-.6c9.9-11.1 15.9-22.1 17.9-33.1 2.6-13.3 3.1-26.7 4.7-42.5 1.5-13.3.4-31.2-3.2-49.7-5.1-23.2-13.8-46.7-17.3-63z"/><path d="m593.1 379.5c.5 26.6 2.6 76.3 9.7 95.7 2 6.7 21 35.8 34.3 71.2 9.2 24.6 11.3 47.1 12.8 53.8 6.1 29.2-1.5 78.3-11.8 124.9-5.1 25.1-22.5 56.3-42.5 68.6l-4.1 7.2c11.3-.5 38.9-27.6 48.6-61.4 16.4-57.3 23-84 15.4-147.4-1-6.2-3.6-27.1-13.3-49.7-14.3-34.3-34.8-67.1-37.4-73.7-4.6-10.9-10.7-57.4-11.7-89.2z"/><path d="m602.7 343.1c-1.5 27.4-1.9 37.4 3.2 57.4 5.6 22 34.3 53.8 46.1 90.1 22.5 69.6 16.9 160.8.5 231.9-6.1 25.1-35.3 61.4-64.5 73.2l21.5 5.1c11.8-.5 42-28.7 53.7-60.9 18.9-50.7 22.5-111.1 14.8-174.6-.5-6.1-10.8-60.9-20.5-84-13.8-34.3-38.4-65-41-71.7-4.5-11.1-14.6-34.5-13.8-66.5z"/><path d="m586.4 323.9c.2 0 .4 12.2.6 35.8s.3 58.5.4 102.1.1 95.9.1 152.9-.1 118.8-.2 180.6h.4c0-58.2 0-116.4.1-170.7 0-54.3.1-104.6.2-147.7s.2-78.9.2-105c.1-26.1.2-42.5.3-48-1.4.1-2.1 0-2.1 0 0-.1.7-.1 2.1-.1.1 5.3.2 21.6.3 47.6s.2 61.9.3 105.2.1 93.9.2 148.6c0 54.7.1 113.3.1 171.9-1.2 0-2.5 0-3.8 0-.1-62.1-.2-124.1-.2-181.3 0-57.3 0-109.8.1-153.6s.2-78.8.4-102.5c.1-23.6.3-35.9.5-35.8z"/></g></g></g></svg>