<svg height="35.477051" viewBox="0 0 35.47705 35.477051" width="35.477051" xmlns="http://www.w3.org/2000/svg"><path d="m34.38 28.79c2.5-3.6.79-10.45-7.05-13.7-3-1.26-7.3-.92-9.63-1a28.93 28.93 0 0 1 -4.94-.32c-4.26-.77-7.27-2.83-8.65-5.83a5.19 5.19 0 0 1 .7-5.56c2.01-2 4.75-1.88 6.49-1.62-2.43.3-3.94 1.55-4.3 3.68s1.1 4.17 3.44 5.44c2.56 1.36 6.34 1.12 7.34-1.35a14.73 14.73 0 0 1 -1.62 4.92l1.8.06c2.2-5.59.88-10-2.49-11.87-2.87-1.57-9.37-2.89-13.27.36a6.3 6.3 0 0 0 -1.72 7.29c1.31 3.37 4.6 5.56 7.31 6.55a15.37 15.37 0 0 0 6.57 1c1.87-.07 4.61-.68 7-1a4.11 4.11 0 0 0 -1.68 2.64c-.29 2.2 1.3 4.5 3.71 5.65s5.07 1.34 6.61 0a3.87 3.87 0 0 0 1.3-4.16 7.42 7.42 0 0 0 -1.49-2.85c2 1.36 5.35 5.69 2.63 9.19-2.25 2.88-7.15 3-11.35.43s-5.31-6-4.3-9.58c0 .07-2.48.39-2.48.39a6 6 0 0 0 -.7 2.53c-.31 2.84 1.53 6.85 5.2 9.4 4.7 3.23 12.48 3.73 15.57-.69zm-17.21-22.79c-.56 1.22-2.61 1.55-4.39.65s-2.69-2.65-2-3.91 2.56-1.55 4.39-.66 2.56 2.73 2 3.92zm12.53 13.8c-.65 1.26-2.61 1.55-4.39.65s-2.69-2.65-2-3.91a2.69 2.69 0 0 1 3-1.12 4.9 4.9 0 0 1 1.42.46c1.7.9 2.61 2.65 1.97 3.92z" fill="#0080e0" transform="translate(.029379 1.738891)"/></svg>