<svg height="656.34998" viewBox="0 0 656.34997 656.34998" width="656.34998" xmlns="http://www.w3.org/2000/svg"><path d="m520.27167 615.77c-22.21 23.72-73.68 39.82-119.77 40.58h-5.06c-154.84 0-188.47-113.84-188.47-180.29v-184.61h-61a12.79 12.79 0 0 1 -12.79-12.79v-87.18a21.72 21.72 0 0 1 14.47-20.46c79.49-28 104.42-97.369992 108.11-150.099992 1-14.0899992 8.37-20.91999917 20.6-20.91999917h90.92a12.79 12.79 0 0 1 12.79 12.78999917v147.649992h106.43a12.79 12.79 0 0 1 12.8 12.75v104.77a12.79 12.79 0 0 1 -12.8 12.78h-106.92v170.73c0 42.87 28.25 54.7 45.7 54.7 16.74-.4 33.22-5.5 41.48-8.82 6.13-2.46 11.52-4.09 16.34-2.88 4.49 1.12 7.44 4.3 9.43 10.1l28.21 82.4c2.29 6.6 4.26 13.75-.47 18.8z" fill="#39475d"/></svg>