<svg height="40" viewBox="0 0 283.46444 283.46" width="40" xmlns="http://www.w3.org/2000/svg"><path d="m29.361274 42.210421 110.594136-27.89321 118.4238 28.871919-3.91484 125.27477-73.40318 95.42414-76.33931 1.95742-73.403188-92.48801z" fill="#70bf44"/><g fill="#30404a"><path d="m141.73172 22.688s46.624 25.211 104.881 25.211v70.033c0 62.341-47.94 142.866-104.881 142.866-56.942 0-104.882-80.524-104.882-142.866 0-15.997 0-70.033 0-70.033 58.259.001 104.882-25.211 104.882-25.211m-.032-22.704c-3.687 0-7.37.91-10.729 2.744-1.259.664-43.228 22.495-94.12 22.495-12.524 0-22.677 10.153-22.677 22.677v70.033c0 35.305 13.102 75.535 35.048 107.615 11.587 16.938 24.818 30.541 39.326 40.432 17.029 11.61 34.923 17.496 53.185 17.496 18.261 0 36.155-5.886 53.183-17.496 14.509-9.891 27.74-23.494 39.327-40.432 21.946-32.08 35.048-72.31 35.048-107.615v-70.033c0-12.524-10.152-22.677-22.677-22.677-51.919 0-93.68-22.257-94.096-22.482-3.391-1.834-7.106-2.757-10.818-2.757z"/><path d="m187.55972 117.058h-8.151v-28.829c0-18.483-13.606-37.195-39.612-37.195-15.438 0-24.022 7.185-28.506 13.213-4.734 6.364-7.236 14.657-7.236 23.982v28.829h-8.15c-7.795 0-14.173 6.378-14.173 14.173v51.988c0 7.795 6.378 14.173 14.173 14.173h91.655c7.795 0 14.173-6.378 14.173-14.173v-51.988c0-7.795-6.378-14.173-14.173-14.173zm-68.505-28.829c0-10.486 4.476-22.195 20.742-22.195 17.615 0 24.612 12.022 24.612 22.195v28.829h-45.354zm51.024 51.506c0 3.118-2.551 5.67-5.669 5.67h-15.591v35.977c0 3.118-2.551 5.669-5.669 5.669h-2.835c-3.118 0-5.669-2.551-5.669-5.669v-35.977h-15.591c-3.118 0-5.669-2.552-5.669-5.67v-2.834c0-3.118 2.551-5.669 5.669-5.669h45.355c3.118 0 5.669 2.551 5.669 5.669z"/></g></svg>