<svg height="52.711609mm" viewBox="0 0 52.711609 52.711609" width="52.711609mm" xmlns="http://www.w3.org/2000/svg"><rect fill="#fff" height="18.315052" rx="0" ry="6.964882" width="16.974926" x="17.868343" y="24.122263"/><path d="m39.584838 124.08248c-5.7938-.92412-11.0379-3.57411-15.08836-7.62456-3.48623-3.48624-5.69993-7.3733-7.05937-12.39563-.8457-3.12436-.8457-9.404858 0-12.529218 1.35944-5.02233 3.57314-8.90939 7.05937-12.39563 3.48624-3.48624 7.3733-5.69994 12.39563-7.05937 3.12436-.845699 9.40486-.845699 12.52922 0 5.02233 1.35943 8.90939 3.57313 12.39563 7.05937 3.48623 3.48624 5.69993 7.3733 7.05937 12.39563.84569 3.12436.84569 9.404858 0 12.529218-1.35944 5.02233-3.57314 8.90939-7.05937 12.39563-4.99127 4.99126-10.93705 7.52762-17.99878 7.67795-1.89177.0403-3.79677.0162-4.23334-.0534zm7.40834-1.80987c5.43927-.89947 9.48161-2.9173 13.41847-6.69814 8.71846-8.37295 10.04356-21.888908 3.12689-31.894218-8.71486-12.606497-26.51801-14.33747-37.63675-3.65937-8.71846 8.37295-10.04356 21.888918-3.12689 31.894228 5.4204 7.84089 14.90567 11.89749 24.21828 10.3575zm-7.74441-5.71726c-4.21126-.48968-9.37964-2.00308-9.85147-2.88469-.16078-.30042-.2635-4.16078-.2635-9.90246 0-9.057328.0198-9.429938.52917-9.939268.34591-.34592.88194-.52917 1.54786-.52917h1.0187l.15044-2.84427c.10212-1.93075.32881-3.3206.70578-4.32733 1.68867-4.50972 5.31179-7.17618 9.80639-7.21708 2.58419-.0235 4.56363.59661 6.5337 2.0469 2.91276 2.14424 4.23551 4.92889 4.49491 9.46263l.16474 2.87915h1.0179c.66514 0 1.20131.1834 1.54708.52917.50933.50933.52917.88194.52917 9.939268 0 5.57891-.10458 9.60551-.25687 9.89006-.48939.91442-4.76223 2.17401-9.52689 2.80841-3.05356.40658-5.21127.43006-8.14711.0887zm7.30023-4.28089c.15514-.18693.31855-1.05013.36313-1.91822l.0811-1.57835 1.79899-.0785c1.27902-.0558 1.84187-.19025 1.94732-.46506.12854-.33498-.94018-2.15482-6.32325-10.767348-.4621-.73932-.98068-1.25677-1.25952-1.25677s-.79743.51745-1.25952 1.25677c-5.38307 8.612528-6.45179 10.432368-6.32325 10.767348.10545.27481.6683.40922 1.94732.46506l1.79899.0785.081 1.57835c.0446.86809.20799 1.73129.36313 1.91822.20043.24152 1.18223.33989 3.39228.33989s3.19185-.0984 3.39228-.33989zm2.12191-21.708628c-.0822-2.49134-.16078-2.84939-.88527-4.0349-.91805-1.50226-3.02397-2.75617-4.62892-2.75617s-3.71087 1.25391-4.62892 2.75617c-.72449 1.18551-.80305 1.54356-.88527 4.0349l-.0902 2.73393h5.60442 5.60442z" stroke-width=".264583" transform="translate(-16.800909 -71.443797)"/></svg>