<svg height="368.13751" viewBox="0 0 368.13751 368.13748" width="368.13751" xmlns="http://www.w3.org/2000/svg"><path d="m0 0-24.56 42.513 49.098.013z" fill="#20acd9" transform="matrix(1.25 0 0 -1.25 30.70000625 130.943875)"/><path d="m0 0 24.549 42.52 24.549-42.52z" fill="#27a7d4" transform="matrix(1.25 0 0 -1.25 30.68600625 130.940125)"/><path d="m0 0-24.56 42.513 49.098.013z" fill="#259ed2" transform="matrix(1.25 0 0 -1.25 61.38663125 184.0975)"/><path d="m0 0 24.549 42.52 24.549-42.52z" fill="#2a8ece" transform="matrix(1.25 0 0 -1.25 61.37263125 184.093875)"/><path d="m0 0-24.56 42.513 49.098.013z" fill="#3088c8" transform="matrix(1.25 0 0 -1.25 92.07263125 237.254875)"/><path d="m0 0 24.549 42.52 24.549-42.52z" fill="#357abe" transform="matrix(1.25 0 0 -1.25 92.05863125 237.25125)"/><path d="m0 0-24.56 42.513 49.098.013z" fill="#3a6db3" transform="matrix(1.25 0 0 -1.25 122.75875 290.41225)"/><path d="m0 0 24.549 42.52 24.549-42.52z" fill="#22697d" transform="matrix(1.25 0 0 -1.25 122.744625 290.4085)"/><path d="m0 0-24.56 42.513 49.098.013z" fill="#3a9ab1" transform="matrix(1.25 0 0 -1.25 184.131375 290.41225)"/><path d="m0 0 24.549 42.52 24.549-42.52z" fill="#3aa6ae" transform="matrix(1.25 0 0 -1.25 153.430125 237.25125)"/><path d="m0 0-24.56 42.513 49.098.013z" fill="#3bacac" transform="matrix(1.25 0 0 -1.25 214.818625 237.249375)"/><path d="m0 0 24.549 42.52 24.55-42.52z" fill="#3daaa0" transform="matrix(1.25 0 0 -1.25 184.117375 184.088375)"/><path d="m0 0-24.56 42.513 49.099.013z" fill="#3faa8d" transform="matrix(1.25 0 0 -1.25 245.50525 184.099375)"/><path d="m0 0 24.549 42.52 24.549-42.52z" fill="#40ab86" transform="matrix(1.25 0 0 -1.25 214.804625 130.938375)"/><path d="m0 0-24.561 42.513 49.099.013z" fill="#2f6b54" transform="matrix(1.25 0 0 -1.25 214.94075 237.193875)"/><path d="m0 0 24.549 42.52 24.549-42.52z" fill="#44b496" transform="matrix(1.25 0 0 -1.25 184.24 184.03275)"/><path d="m0 0-24.559 42.513 49.098.013z" fill="#52b89b" transform="matrix(1.25 0 0 -1.25 245.627375 184.03825)"/><path d="m0 0 24.549 42.52 24.549-42.52z" fill="#5cba9d" transform="matrix(1.25 0 0 -1.25 214.926125 130.87725)"/><path d="m0 0-24.561 42.513 49.098.013z" fill="#6fc0a6" transform="matrix(1.25 0 0 -1.25 276.315875 130.88275)"/><path d="m0 0 24.549 42.52 24.551-42.52z" fill="#88c9b2" transform="matrix(1.25 0 0 -1.25 276.076625 130.940125)"/><path d="m0 0-24.543 42.522 49.098-.006z" fill="#99d0bb" transform="matrix(1.25 0 0 -1.25 337.44375 130.880375)"/><path d="m0 0 24.786 42.383 24.312-42.656z" fill="#37a084" transform="matrix(1.25 0 0 -1.25 214.782 237.017375)"/><path d="m0 0 24.549 42.52 24.551-42.52z" fill="#35896c" transform="matrix(1.25 0 0 -1.25 245.393 290.340125)"/><path d="m0 0-24.559 42.513 49.098.013z" fill="#379b7f" transform="matrix(1.25 0 0 -1.25 306.77975 290.345625)"/><path d="m0 0 24.549 42.52 24.549-42.52z" fill="#3bad91" transform="matrix(1.25 0 0 -1.25 306.765 290.33475)"/><path d="m0 0-24.56 42.513 49.097.013z" fill="#368f74" transform="matrix(1.25 0 0 -1.25 245.407625 290.345625)"/></svg>