<svg height="530" viewBox="0 0 530.00001 530" width="530" xmlns="http://www.w3.org/2000/svg" xmlns:xlink="http://www.w3.org/1999/xlink"><filter id="a" color-interpolation-filters="sRGB"><feFlood flood-opacity=".498039" result="flood"/><feComposite in="flood" in2="SourceGraphic" operator="in" result="composite1"/><feGaussianBlur in="composite1" result="blur" stdDeviation="3"/><feOffset dx="0" dy="-7.6" result="offset"/><feComposite in="SourceGraphic" in2="offset" operator="over" result="composite2"/></filter><path d="m193.96766 377.79158 121.60168-20.07018 45.62811-63.31792-7.08358-168.82562-61.39114-55.488143-116.87928-7.083593-61.37083-57.0461462s-1.66994 37.6302262-10.16185 55.5055482c-7.736999 16.286236-55.97198 58.209344-55.97198 58.209344l-18.889579 126.32406 30.695566 102.71209z" fill="#7d3899" transform="matrix(1.3333333 0 0 -1.3333333 .000061 529.99978)"/><g fill="#fff"><g filter="url(#a)" transform="matrix(.13333333 0 0 -.13333333 21.666571 527.688821)"><path d="m3237.95 3556.28c-95.63 90.08-482.16 377.32-1343.06 381.22 0 0-1015.128 62.73-1510.019-402.09-275.449-282.06-372.3749-694.65-382.63272-1206.52-10.14062-511.86-23.46488-1470.749 879.52772-1730.87l.828-.231-.473-396.789s-5.66-160.7187 97.516-193.37891c124.993-39.73049 198.333 82.41801 317.663 214.01991 65.56 72.16 155.88 178.289 224.04 259.41 617.64-52.949 1092.6 68.508 1146.49 86.429 124.75 41.5 830.36 133.95 945.09 1092.84 118.39 988.72-57.42 1613.9-374.97 1895.96m106.71-1824.5c-97.04-800.768-669.17-851.35-774.58-886.01-44.93-14.739-462.23-120.989-986.72-85.848l-568.58-630.141-.59 726.129-4.48 1.168c-763.858 217.202-738.155 1031.532-729.546 1458.972s87.024 777.65 320.141 1013.12c418.485 388.18 1280.795 330.16 1280.795 330.16 728.24-3.3 1077.27-227.69 1158.16-302.92 268.61-235.6 405.51-799.11 305.4-1624.63"/><path d="m2208.82 2310.79c-12.15 0-22.29 9.78-22.88 22.28-4.01 82.66-26.29 145.98-66.27 188.31-39.73 41.98-99.28 65.44-176.87 69.69-12.62.71-22.4 11.79-21.69 24.76.7 12.97 11.43 22.87 24.17 22.28 89.61-4.95 159.3-33.25 207.41-84.07 47.87-50.7 74.52-124.16 79.12-218.61.59-12.97-9.2-23.94-21.81-24.64z"/><path d="m2436.16 2232.76h-.59c-12.62.36-22.64 11.09-22.4 24.06 3.53 158.71-42.81 292.9-137.85 399.02-47.28 52.95-104.71 94.8-170.86 124.4-66.26 29.6-143.5 47.87-229.34 54.36-12.62.95-22.17 12.26-21.23 25.11.95 12.97 11.91 22.76 24.53 21.82 183.24-13.8 328.16-79 430.86-193.97 103.18-115.21 153.65-260.59 149.87-431.81-.35-12.84-10.61-22.99-22.99-22.99"/><path d="m2668.95 2139.56c-12.62 0-22.87 10.37-22.99 23.35-1.06 140.31-22.17 267.2-62.97 377.32-40.57 109.31-101.76 205.41-181.94 285.59-80.3 80.07-171.57 141.15-271.33 181.6-99.99 40.56-211.42 61.54-331.22 62.37-12.62.12-22.88 10.73-22.76 23.7s10.38 23.35 23 23.35h.11c251.52-1.89 464.82-88.44 634.27-257.41 85.01-84.9 149.87-186.66 192.79-302.57 42.68-115.2 64.86-247.74 66.03-393.6.12-12.97-10.14-23.58-22.75-23.7z"/></g><path d="m283.23466 161.233c-.036.035-11.579 9.881-17.216 14.126-5.318 3.997-13.796 9.374-18.536 12.11-8.502 4.846-17.192 1.804-20.777-2.96l-7.452-9.587c-3.82-4.858-9.704-4.044-11.249-3.726-11.013 2.76-22.722 9.646-34.703 21.249-12.121 11.708-19.456 23.936-22.073 36.647l-.189.838c-.708 5.224.165 7.641 2.299 11.201l.401.331c5.035 4.681 14.363 10.376 15.612 15.801 3.667 9.421-12.251 29.065-14.527 32.532 0 0-11.579 15.329-15.694 18.254-4.446 3.702-11.332 5.813-18.277 1.544l-.354-.259c-19.951-13.501-27.179501-21.26-25.210301-32.84l1.0257-4.657c10.117201-31.896 29.655601-65.903 58.792601-96.184 28.818-29.903 59.995-47.814 90.724-60.219 7.983-2.653 16.26-.365 24.75 6.886l.142.107c6.509 6.084 11.662 12.593 15.506 19.562l.035.141c3.738 7.37 2.477 14.351-3.03 19.103" transform="matrix(1.3333333 0 0 -1.3333333 .000061 529.99978)"/></g></svg>