<svg enable-background="new 0 0 200 237" height="168.33334" viewBox="0 0 168.33334 168.33334" width="168.33334" xmlns="http://www.w3.org/2000/svg"><g transform="translate(-.001872 .000737)"><g transform="translate(5.908192 .000007)"><path d="m78.59 49.445c2.014-1.237 12.868-7.004 30.379.224 18.012 7.434 29.188.978 30.574.099-4.354-7.159-9.533-13.389-15.259-17.578.381-.104.771-.209 1.183-.332 7.594-2.196 9.522-8.625 9.929-14.131.458-6.245.776-6.341 2.133-11.96 1.302-5.396-.149-6.476-1.488-5.386-.722.586-6.998 2.037-10.721 4.94-6.011 4.69-9.716 13.608-11.396 18.538-.032.076-.258.761-.334.999-.783 1.889-2.342 1.883-2.342 1.883v.001c-.755-.083-1.515-.126-2.279-.126-.682 0-1.359.037-2.037.102-.015.003-.023 0-.039.001-1.993.293-3.09-2.14-3.318-2.72-2.328-6.687-8.593-19.872-22.671-23.419 0 0-2.557-1.959-1.777 1.354.74 3.166 2.273 6.366 1.933 11.02-.156 2.148-1.489 13.164 8.636 18.896.961.544 1.817 1.002 2.585 1.387-5.097 4.082-9.729 9.761-13.691 16.208z"/><path d="m145.06 150.186c-12.406-7.687-16.582-10.39-16.321-13.33 0 0 .003-.478.126-1.207.3-1.56 1.254-4.221 4.294-5.738.101-.049.185-.105.263-.162 9.666-5.61 16.729-14.642 19.22-25.917-2.511 6.228-21.098 11.068-43.675 11.068-22.569 0-41.161-4.84-43.669-11.068.558 2.531 1.353 4.944 2.35 7.238.839 4.722 1.968 15.838-3.37 25.569-4.704 8.571-27.923 20.258-62.382 13.548 0 0-1.383-.964-1.8-.17-.618 1.174 1.912 2.123 4.519 2.811 23.991 6.353 60.202 3.769 71.574-5.601 5.188-4.271 7.19-10.026 7.699-16.22l.004.01s.139-1.622 2.167-.403c.581.35 2.678 1.716 3.013 3.259.292 2.197.312 4.895-.822 6.785-1.622 2.701-1.64 3.09.495 4.616 1.311.936 6.666 4.871 14.116 9.347.02.013.029.023.048.034 1.577.949 3.767 3.274 3.767 3.274 3.354 3.881 10.654 11.691 13.832 10.222 1.501-.694-.064-3.823-.064-3.823s2.496 3.241 3.837 2.137c1.019-.843-.597-4.069-.597-4.069s2.179 1.889 3.475 1.189c1.586-.855-.234-5.817-12.705-13.397-12.475-7.585-15.856-8.748-16.154-12.134 0 0-.005-.171.005-.462.098-.747.522-2.327 2.335-2.158 2.699.437 5.481.67 8.331.67 3.262 0 6.437-.3 9.5-.871l.001.005s.159-.032.206-.04c.358-.045 1.057-.021 1.06.846-.113 1.101-.418 2.207-1.065 3.176-1.825 2.733-1.225 3.107.68 4.864 1.177 1.083 6.569 5.827 13.957 10.417.014.011.021.021.039.03 1.575.947 4.299 3.551 4.299 3.551v-.001c3.061 3.107 8.689 8.314 11.758 8.001 2.073-.213.385-3.785.385-3.785s2.62 2.528 3.905 1.785c1.439-.831-.596-3.473-.596-3.473s1.687.893 2.879.596c1.189-.301 1.485-3.336-10.919-11.019z"/></g><path d="m137.10619 63.329007c-1.488 0-2.725.448-3.671 1.333-.957.896-1.441 1.93-1.441 3.073v20.24c0 2.717-.481 4.718-1.431 5.952-.918 1.193-2.384 1.773-4.482 1.773-2.146 0-3.609-.576-4.473-1.759-.903-1.235-1.36-3.241-1.36-5.965v-20.321c0-1.384-.63-2.516-1.825-3.273-1.624-1.023-3.24-1.394-5.206-.74-.6.201-1.164.461-1.679.776-.548.333-1.011.752-1.378 1.241-.406.544-.612 1.136-.612 1.759v20.556c0 2.721-.457 4.728-1.36 5.964-.867 1.185-2.33 1.761-4.473 1.761-2.149 0-3.627-.579-4.517998-1.766-.926-1.235-1.396-3.24-1.396-5.958v-20.24c0-1.144-.484-2.178-1.443-3.073-.947-.884-2.208-1.333-3.748-1.333-1.586 0-2.895.444-3.89 1.317-1.021.896-1.54 1.936-1.54 3.089v19.925c0 2.506.245 4.877.726 7.044.494 2.215 1.357 4.16 2.565 5.781003 1.22 1.637 2.876 2.929 4.923 3.845 2.026.902 4.56 1.36 7.531998 1.36 3.097 0 5.691-.575 7.709-1.706 1.692-.95 3.117-2.199 4.249-3.721 1.092 1.522 2.484 2.771 4.153 3.719 1.991 1.133 4.626 1.708 7.829 1.708 2.973 0 5.495-.459 7.498-1.363 2.018-.915 3.659-2.207 4.881-3.842 1.21-1.626003 2.073-3.571003 2.564-5.781003.481-2.167.726-4.538.726-7.044v-19.926c0-1.148-.503-2.185-1.491-3.082-.971-.878-2.296-1.323-3.938-1.323z"/></g></svg>