<svg enable-background="new 0 0 321.1 258.9" height="321" viewBox="0 0 320.99999 321.00001" width="321" xmlns="http://www.w3.org/2000/svg" xmlns:xlink="http://www.w3.org/1999/xlink"><linearGradient id="a" gradientUnits="userSpaceOnUse" x1="116.2903" x2="116.2903" y1="236.1076" y2="31"><stop offset="0" stop-color="#74cd2f"/><stop offset=".0328571" stop-color="#74cd2f"/><stop offset=".9554" stop-color="#9eee69"/><stop offset="1" stop-color="#9eee69"/></linearGradient><linearGradient id="b" gradientUnits="userSpaceOnUse" x1="224.25101" x2="224.25101" y1="289.91171" y2="119.114403"><stop offset="0" stop-color="#e4e9ea"/><stop offset=".00401099" stop-color="#e4e9ea"/><stop offset=".1785" stop-color="#e9edee"/><stop offset=".9631" stop-color="#fff"/><stop offset="1" stop-color="#fff"/></linearGradient><path d="m0 127.9c0 29.2 15.7 55.5 40.2 73.2 2 1.4 3.3 3.7 3.3 6.3 0 .9-.2 1.6-.4 2.5-2 7.3-5.1 19-5.2 19.5-.2.9-.6 1.9-.6 2.8 0 2.1 1.7 3.9 3.9 3.9.8 0 1.5-.3 2.2-.7l25.5-14.7c1.9-1.1 3.9-1.8 6.2-1.8 1.2 0 2.3.2 3.4.5 11.9 3.4 24.7 5.3 38 5.3 64.2 0 116.3-43.4 116.3-96.9-.2-53.4-52.3-96.8-116.5-96.8s-116.3 43.4-116.3 96.9" fill="url(#a)"/><path d="m127.4 199.8c0 44.6 43.4 80.7 96.8 80.7 11 0 21.7-1.6 31.6-4.4.9-.3 1.9-.4 2.8-.4 1.9 0 3.6.6 5.1 1.5l21.2 12.2c.6.3 1.2.6 1.9.6 1.8 0 3.2-1.4 3.2-3.2 0-.8-.3-1.6-.5-2.4-.1-.5-2.7-10.2-4.4-16.3-.2-.7-.3-1.3-.3-2.1 0-2.2 1.1-4.1 2.7-5.3 20.4-14.8 33.5-36.7 33.5-61 0-44.5-43.4-80.7-96.8-80.7s-96.8 36.2-96.8 80.8" fill="url(#b)"/><path d="m93 96.7c0 8.6-7 15.6-15.6 15.6s-15.6-7-15.6-15.6 7-15.6 15.6-15.6c8.6.1 15.6 7 15.6 15.6" fill="#116f20"/><path d="m170.7 96.7c0 8.6-7 15.6-15.6 15.6s-15.6-7-15.6-15.6 7-15.6 15.6-15.6c8.7.1 15.6 7 15.6 15.6" fill="#116f20"/><g fill="#7b7f7f"><path d="m244.6 175.2c0 7.2 5.8 13 13 13s13-5.8 13-13-5.8-13-13-13-13 5.8-13 13"/><path d="m179.8 175.2c0 7.2 5.8 13 13 13s13-5.8 13-13-5.8-13-13-13-13 5.8-13 13"/></g></svg>