<svg height="440" viewBox="0 0 440 440.00001" width="440" xmlns="http://www.w3.org/2000/svg" xmlns:xlink="http://www.w3.org/1999/xlink"><linearGradient id="a" gradientTransform="matrix(0 293.21115 293.21115 0 626.46807 467.1472)" gradientUnits="userSpaceOnUse" spreadMethod="pad" x1="0" x2="1" y1="0" y2="0"><stop offset="0" stop-color="#20b038"/><stop offset="1" stop-color="#60d66a"/></linearGradient><linearGradient id="b"><stop offset="0" stop-color="#f9f9f9"/><stop offset="1" stop-color="#fff"/></linearGradient><linearGradient id="c" gradientTransform="matrix(0 303.7258 303.7258 0 626.46905 461.89183)" gradientUnits="userSpaceOnUse" spreadMethod="pad" x1="0" x2="1" xlink:href="#b" y1="0" y2="0"/><linearGradient id="d" gradientTransform="matrix(0 303.7258 303.7258 0 626.46909 461.89183)" gradientUnits="userSpaceOnUse" spreadMethod="pad" x1="0" x2="1" xlink:href="#b" y1="0" y2="0"/><filter id="e" color-interpolation-filters="sRGB"><feFlood flood-opacity=".196078" result="flood"/><feComposite in="flood" in2="SourceGraphic" operator="in" result="composite1"/><feGaussianBlur in="composite1" result="blur" stdDeviation="5"/><feOffset dx="0" dy="0" result="offset"/><feComposite in="SourceGraphic" in2="offset" operator="over" result="composite2"/></filter><g transform="matrix(1.3333333 0 0 -1.3333333 -615.29198 1038.3393)"><path d="m476.54799 615.122c-.009-26.526 6.921-52.418 20.095-75.243l-21.359-77.98701 79.81 20.92701c21.99-11.992 46.748-18.31101 71.943-18.321h.065c82.973 0 150.516 67.524 150.552 150.503.014 40.217-15.633 78.031-44.056 106.47897-28.426 28.446-66.224 44.12-106.496 44.137-82.987 0-150.521-67.51197-150.554-150.49497m47.528-71.313-2.978 4.732c-12.528 19.91799-19.142 42.936-19.132 66.571.028 68.973 56.15899 125.08497 125.183 125.08497 33.425-.014 64.84-13.042 88.467-36.686 23.626-23.64298 36.627-55.07398 36.618-88.50097-.03-68.974-56.164-125.093-125.132-125.093h-.049c-22.458.011-44.481 6.041-63.69 17.439l-4.571 2.71-47.361-12.41701zm103.026-79.311h.00075s0 0-.00075 0m0 0c-.00075 0-.004 0 0 0" fill="url(#c)" filter="url(#e)"/><path d="m481.73699 615.073c-.008-25.603 6.682-50.601 19.403-72.636l-20.62-75.29 77.047 20.203c21.228-11.569 45.127-17.675 69.451-17.683h.064c80.099 0 145.301 65.18 145.334 145.293.016 38.822-15.088 75.325-42.531 102.787-27.437 27.462-63.928 42.594-102.809 42.612-80.108 0-145.306-65.176-145.339-145.286m145.345-145.406h.001s0 0-.001 0m0 0c-.001 0-.004 0 0 0" fill="url(#a)"/><path d="m589.47379 678.0379c-2.818 6.265-5.784 6.39-8.465 6.5-2.193.094-4.703.088-7.209.088-2.508 0-6.584-.943-10.031-4.707-3.448-3.764-13.167-12.864-13.167-31.371 0-18.51 13.481-36.394 15.36-38.906 1.881-2.508 26.024-41.702 64.26-56.781 31.777-12.53 38.243-10.038 45.141-9.411 6.897.627 22.256 9.098 25.391 17.882 3.135 8.783 3.135 16.311 2.194 17.885-.94 1.567-3.448 2.508-7.211 4.389-3.762 1.881-22.255 10.983-25.704 12.237s-5.957 1.881-8.465-1.885c-2.508-3.762-9.714-12.233-11.908-14.741-2.195-2.514-4.389-2.828-8.152-.947-3.762 1.887-15.877 5.855-30.25 18.67-11.183 9.97-18.733 22.284-20.928 26.05-2.194 3.762-.235 5.8 1.652 7.675 1.689 1.685 3.762 4.391 5.643 6.588 1.878 2.197 2.505 3.764 3.759 6.272 1.254 2.513.627 4.709-.314 6.59-.94 1.881-8.251 20.485-11.596 27.923" fill="#fff" fill-rule="evenodd"/><path d="m476.54802 615.12201c-.009-26.526 6.921-52.41801 20.095-75.24301l-21.359-77.98701 79.80997 20.92701c21.99-11.99199 46.748-18.31101 71.943-18.321h.065c82.973 0 150.5161 67.524 150.5521 150.503.014 40.21701-15.6331 78.031-44.0561 106.47897-28.426 28.446-66.224 44.12-106.496 44.137-82.987 0-150.52097-67.51197-150.55397-150.49496m47.52797-71.313-2.978 4.73199c-12.52797 19.91799-19.14197 42.936-19.13197 66.571.028 68.973 56.15897 125.08497 125.18297 125.08497 33.425-.014 64.84-13.042 88.467-36.686 23.626-23.64298 36.627-55.07398 36.618-88.50097-.03-68.974-56.164-125.093-125.132-125.093h-.049c-22.458.011-44.481 6.04101-63.69 17.439l-4.571 2.71-47.36098-12.41701zm103.026-79.31101h.0008s0 0-.0008 0m0 0c-.0007 0 0 0 0 0" fill="url(#d)"/></g></svg>