<svg enable-background="new 0 0 321 321" height="252.54498" viewBox="0 0 252.54498 252.54498" width="252.54498" xmlns="http://www.w3.org/2000/svg"><path d="m163.499 34h-4.67c-30.923 0-56.829 24.663-56.829 55.591v74.661c0 30.927 25.906 55.748 56.829 55.748h4.67c30.923 0 55.501-24.821 55.501-55.748v-74.661c0-30.928-24.578-55.591-55.501-55.591zm30.501 102.893c0 19.035-14.938 35.107-33.978 35.107h-1.562c-19.04 0-34.46-16.072-34.46-35.107v-48.268c0-19.04 15.42-34.625 34.46-34.625h1.562c19.04 0 33.978 15.585 33.978 34.625z" fill="#c3c3d1" transform="translate(-34.227509 -34.000004)"/><circle cx="126.272491" cy="161.343986" fill="#c3c3d1" r="91.200996"/><g transform="translate(-34.227509 -34.000004)"><path d="m196.302 169.235-.814-.868c-.2-.209-.408-.425-.599-.63h-.017l-34.896-36.765-34.885 36.765c-.039.039-.092.087-.131.126l-.62.659-.665.713-.031.026c-8.389 9.149-13.006 20.988-13.006 33.344 0 27.215 22.13 49.341 49.341 49.341 27.218 0 49.361-22.126 49.361-49.341 0-12.356-4.617-24.195-13.011-33.344z" fill="#20aae6"/><g clip-rule="evenodd" fill-rule="evenodd"><path d="m196.352 202.61c0 20.085-16.274 36.365-36.364 36.365-20.086 0-36.361-16.279-36.361-36.365s16.274-36.361 36.361-36.361c20.089 0 36.364 16.274 36.364 36.361z" fill="#fff"/><path d="m182.338 202.61c0 12.347-10.005 22.351-22.351 22.351-12.343 0-22.347-10.004-22.347-22.351 0-12.344 10.004-22.347 22.347-22.347 12.347-.001 22.351 10.003 22.351 22.347z" fill="#d8e620"/><circle cx="159.989" cy="202.61" fill="#fff" r="10.008"/></g></g></svg>