<svg height="215.53395" viewBox="0 0 215.53395 215.53395" width="215.53395" xmlns="http://www.w3.org/2000/svg"><g transform="translate(-164.46287 115.2262)"><path d="m173.3341-24.310647c-6.4964-6.357069-8.87123-9.352419-8.87123-11.189189 0-3.450102 16.57215-20.129844 20-20.129844 3.32647 0 20 16.673529 20 20 0 3.278766-16.67072 19.999995-19.93958 19.999995-1.56466 0-5.20098-2.821185-11.18919-8.680962z" fill="#214c9c"/><path d="m201.27368 3.5595089c-6.4964-6.357069-8.87123-9.352419-8.87123-11.189189 0-3.4501019 16.57215-20.1298439 20-20.1298439 3.32647 0 20 16.673529 20 19.9999999 0 3.278766-16.67072 19.9999951-19.93958 19.9999951-1.56466 0-5.20098-2.8211851-11.18919-8.6809621z" fill="#1aaf96"/><path d="m230.27368 32.559509c-6.4964-6.357069-8.87123-9.352419-8.87123-11.189189 0-3.450102 16.57215-20.1298441 20-20.1298441 3.32647 0 20 16.6735291 20 20.0000001 0 3.278766-16.67072 19.999997-19.93958 19.999997-1.56466 0-5.20098-2.821187-11.18919-8.680964z" fill="#2788c9"/><path d="m260.77056 2.0626279c-6.4964-6.357069-8.87123-9.352419-8.87123-11.189189 0-3.4501019 16.57215-20.1298439 20-20.1298439 3.32647 0 20 16.673529 20 19.9999999 0 3.278766-16.67072 19.9999941-19.93958 19.9999941-1.56466 0-5.20098-2.8211841-11.18919-8.6809611z" fill="#13a4d8"/><path d="m288.19202 30.600537c-6.4964-6.357069-8.87123-9.352419-8.87123-11.189189 0-3.450102 16.57215-20.1298441 20-20.1298441 3.32647 0 20 16.6735291 20 20.0000001 0 3.278766-16.67072 19.999995-19.93958 19.999995-1.56466 0-5.20098-2.821185-11.18919-8.680962z" fill="#1f9ba0"/><path d="m319.81601 5.2004369c-6.4964-6.357069-8.87123-9.352419-8.87123-11.189189 0-3.450102 16.57215-20.1298439 20-20.1298439 3.32647 0 20 16.6735289 20 19.9999999 0 3.278766-16.67072 19.9999951-19.93958 19.9999951-1.56466 0-5.20098-2.821185-11.18919-8.6809621z" fill="#7c479b"/><path d="m348.86805-24.839889c-6.4964-6.357069-8.87123-9.352419-8.87123-11.189189 0-3.450102 16.57215-20.129844 20-20.129844 3.32647 0 20 16.673529 20 20 0 3.278766-16.67072 19.999995-19.93958 19.999995-1.56466 0-5.20098-2.821185-11.18919-8.680962z" fill="#13a4d8"/></g></svg>