<svg height="300.00378" viewBox="0 0 300.00378 300.00377" width="300.00378" xmlns="http://www.w3.org/2000/svg"><g fill="#88171a"><path d="m299.74526 145.56189s6.9396-145.55999791-153.04-145.55999791c-141.4800011 0-145.90000106 139.62999791-145.90000106 139.62999791s-20.81099994 160.37 149.16000106 160.37c163.02 0 149.78-154.44 149.78-154.44zm-197.8-50.862998c30.017-18.364 68.366-7.1401 82.735 20.475998 2.7233 5.2338 3.0694 13.291 1.3447 18.782-5.9546 18.956-20.014 29.587-39.312 34.103 5.6892-4.8707 10.218-10.394 11.659-18.025a26.402 26.402 0 0 0 -4.5425-20.956 26.76 26.76 0 0 0 -30.811-9.3892c-11.881 4.5111-18.389 15.354-17.216 28.683 1.0898 12.381 10.484 20.405 28.061 23.453-2.627 1.3904-4.6503 2.4144-6.6299 3.5172a63.918 63.918 0 0 0 -20.544 17.868c-1.7839 2.4084-3.0104 2.6024-5.727.94116-35.338001-21.61-37.609001-75.844.98226-99.452998zm-26.449001 133.529998c-5.6769 1.441-11.178 3.5742-16.981 5.4775 2.8385-19.151 25.265-36.788 44.230001-34.776a48.881 48.881 0 0 0 -9.242001 25.893c-6.302 1.1606-12.241 1.9414-18.007 3.405zm120.790001-186.979998c5.6099.20612 11.23.12091 16.844.25378a29.052 29.052 0 0 1 4.1674.58069 40.607 40.607 0 0 1 -4.2357 5.4332c-2.007 1.8701-4.2745 3.6986-7.1661.856-.6955-.68372-2.3386-.52679-3.5487-.54272-5.5823-.07336-11.172-.25177-16.746-.04132a104.04 104.04 0 0 0 -14.425 1.473c-.89368.16046-2.2299 3.1315-1.8191 4.227.9693 2.5853 2.3833 5.4363 4.4779 7.0898 7.7403 6.11 15.972 11.596 23.748 17.664 7.556 5.8966 14.589 12.358 18.875 21.253 5.5843 11.589998 5.747 23.742998 3.3388 35.949998-4.0203 20.378-14.333 37.261-31.032 49.524-6.7288 4.941-15.06 7.7451-22.767 11.295-6.778 3.1225-13.755 5.8115-20.549 8.9008-12.249 5.5695-19.133 18.865-17.108 32.688 1.8585 12.685 12.987 23.271 25.735 25.456 15.292 2.6216 31.071-7.3163 34.812-22.86 4.2067-17.478-5.2898-33.083-23.065-37.813-.78271-.20831-1.5684-.40552-3.2012-.8269 4.7549-2.1245 8.8614-3.6381 12.653-5.7244q9.9213-5.4594 19.481-11.562c1.8742-1.199 2.8868-1.1996 4.4852.18225 12.225 10.57 19.518 23.718 21.563 39.839 3.3845 26.684-9.2471 51.198-33.072 63.762-36.86 19.439-81.965-2.6864-90.106001-43.552-6.9738-35.003 17.730001-66.754 47.462001-72.884 12.787-2.6364 24.48-7.9596 33.57-17.807 5.8652-6.3541 8.7084-11.806 9.6772-14.266a39.565 39.565 0 0 0 2.7211-14.469 33.867 33.867 0 0 0 -2.9654-12.398c-3.104-7.075-14.995-18.329998-17.939-20.703998l-28-21.921c-.98761-.81256-2.0994-.75366-4.5079-.59045-2.8611.19391-10.175.59888-13.331-.22815 2.553-1.9321 9.5132-4.7451 12.502-7.007-9.0734-6.1297-19.43-3.9158-28.941-5.7461 2.1992-4.0959 13.081-10.39 19.27-11.091a91.533 91.533 0 0 0 -1.6876-10.281c-.37781-1.3917-1.9312-2.7408-3.2864-3.5355-3.286-1.9267-6.7694-3.5167-10.549-5.4327a21.936 21.936 0 0 1 11.332-3.5055 42.316 42.316 0 0 1 11.348 1.1056c6.7422 1.5405 12.124.53491 17.488-4.048-4.222-1.7002-8.4435-3.2535-12.538-5.0907a123.04 123.04 0 0 1 -11.779-6.1582999c10.622 1.4754999 20.896 5.4584999 31.757 4.0033999q.1387-.74048.27728-1.4809c-8.1194-1.8898999-16.239-3.7797999-25.229-5.8723999 15.04-1.3769 29.042-1.604 42.301 4.8540999 3.731 1.8173 7.6348 3.3215 11.211 5.3972 1.7443 1.0124 2.9186 3.0078 4.3496 4.5594 1.1366 1.2325 2.0495 2.8837 3.446 3.6264 5.3 2.8184 11.134 2.9291 17.078 2.7879.0444-.67694.0861-1.3114.1308-1.9933 5.9821 1.8693 12.715 8.7679 12.704 13.806-9.6911 0-19.374-.037-29.056.05389-1.0348.0097-2.0626.76563-3.0936 1.1754.97986.57067 1.9428 1.5994 2.9423 1.6362z"/><path d="m183.78526 26.907892a1.4806 1.4806 0 0 0 -.18927 2.3686 2.2326 2.2326 0 0 0 3.0724.8219c.9328-.47052 1.8478-.97137 2.975-1.5665-.9079-.775-1.6362-1.4148-2.3857-2.0324-1.318-1.086-2.411-.40386-3.4724.40833z"/></g></svg>