<svg fill-rule="evenodd" height="499.98489" viewBox="0 0 5.5553879 5.5553877" width="499.98489" xmlns="http://www.w3.org/2000/svg"><path d="m5.8465 1.9131c.57932 0 1.1068.222 1.5022.58547-.1938-.0052-.3872.11-.3952.3738-.0163.5333.6377.6469.2853 1.7196l-.2915.8873-.7939-2.3386c-.0123-.0362.002-.0568.0465-.0568h.22445c.011665 0 .021201-.00996.021201-.022158v-.13294c0-.012193-.00956-.022657-.021201-.022153-.42505.018587-.8476.018713-1.2676 0-.0117-.0005-.0212.01-.0212.0222v.13294c0 .012185.00954.022158.021201.022158h.22568c.050201 0 .064256.016728.076091.049087l.3262.8921-.4907 1.4817-.8066-2.3758c-.01-.0298.0021-.0471.0308-.0471h.25715c.011661 0 .021197-.00996.021197-.022158v-.13294c0-.012193-.00957-.022764-.021197-.022153-.2698.014331-.54063.017213-.79291.019803.39589-.60984 1.0828-1.0134 1.8639-1.0134l-.0000029-.0000062zm1.9532 1.1633c.17065.31441.26755.67464.26755 1.0574 0 .84005-.46675 1.5712-1.1549 1.9486l.6926-1.9617c.1073-.3036.2069-.7139.1947-1.0443h-.000004zm-1.2097 3.1504c-.2325.0827-.4827.1278-.7435.1278-.2247 0-.4415-.0335-.6459-.0955l.68415-1.9606.70524 1.9284v-.0000001zm-1.6938-.0854c-.75101-.35617-1.2705-1.1213-1.2705-2.0075 0-.32852.071465-.64038.19955-.92096l1.071 2.9285.000003-.000003zm.95023-4.4367c1.3413 0 2.4291 1.0878 2.4291 2.4291s-1.0878 2.4291-2.4291 2.4291-2.4291-1.0878-2.4291-2.4291 1.0878-2.4291 2.4291-2.4291zm0-.15354c1.4261 0 2.5827 1.1566 2.5827 2.5827s-1.1566 2.5827-2.5827 2.5827-2.5827-1.1566-2.5827-2.5827 1.1566-2.5827 2.5827-2.5827z" fill="#464342" transform="matrix(1.0755 0 0 1.0755 -3.510142 -1.668273)"/></svg>