<svg height="500" viewBox="0 0 468.75001 468.74998" width="500" xmlns="http://www.w3.org/2000/svg"><path d="m220.8231 344.31534q-.66406 1.79687-1.67968 3.33984-1.01563 1.54297-2.32422 2.69531-1.3086 1.15235-2.85156 1.81641-1.52344.64453-3.22266.64453-.70313 0-1.44531-.21484-.72266-.21485-1.32813-.76172-.58594-.56641-.95703-1.50391-.37109-.95703-.37109-2.40234 0-.52734.0586-1.15234h-.0781q-.41016 1.17187-1.13282 2.26562-.70312 1.09375-1.62109 1.93359-.91797.83985-1.99219 1.34766-1.05469.48828-2.14844.48828-1.17187 0-1.97265-.41015-.78125-.41016-1.26953-1.11329-.48828-.72265-.70313-1.66015-.21484-.95703-.21484-2.03125 0-1.58203.15625-3.30078.17578-1.71875.37109-3.32032.19531-1.60156.35156-2.94921.17579-1.36719.17579-2.22657 0-.37109-.0391-.70312-.0195-.35156-.13672-.60547-.11718-.25391-.33203-.41016-.21484-.15625-.58593-.15625-.33204 0-.70313.21485-.37109.19531-.74219.66406-.35156.44922-.70312 1.19141-.35156.74218-.64453 1.79687l-1.11328-.23437q.13671-.70313.48828-1.66016.37109-.97656.97656-1.85547.625-.89844 1.50391-1.50391.89843-.625 2.10937-.625 1.58203 0 2.40234.9961.83985.99609.83985 2.89062 0 .87891-.0781 1.99219-.0781 1.09375-.21484 2.28516-.11719 1.1914-.25391 2.42187-.13672 1.21094-.27343 2.32422-.11719 1.09375-.19532 1.99219-.0781.89844-.0781 1.46484 0 .44922.0781.87891.0781.42969.27344.76172.19531.33203.52734.54687.33204.21485.83985.21485 1.28906 0 2.53906-.9375 1.25-.9375 2.22656-2.71485.9961-1.77734 1.60157-4.35547.625-2.59765.625-5.89843 0-1.03516-.0586-2.12891-.0586-1.11328-.21484-2.28516h3.41797q.0391.17578.0586.42969.0391.23438.0586.48828.0195.25391.0195.50781.0195.23438.0195.3711 0 2.01172-.21485 3.86719-.19531 1.83593-.44922 3.51562-.2539 1.66016-.46875 3.18359-.19531 1.52344-.19531 2.89063 0 .58594.0781 1.15234.0977.56641.33203.9961.2539.42968.68359.70312.44922.25391 1.15235.25391.97656 0 1.95312-.41016.99609-.42969 1.89453-1.1914.89844-.76172 1.66016-1.81641.78125-1.05469 1.34765-2.32422.58594-1.28906.89844-2.73437.33203-1.46485.33203-3.02735 0-.76172-.0977-1.48437-.0977-.72266-.3125-1.34766-.21485-.625-.60547-1.07422-.3711-.46875-.91797-.70312-.23438.52734-.68359.76172-.44922.23437-.95704.23437-.27343 0-.5664-.0977-.29297-.0976-.54688-.3125-.23437-.21484-.39062-.52734-.15625-.33203-.15625-.78125 0-.33203.11719-.68359.13671-.35157.41015-.625.27344-.29297.72266-.46875.46875-.19532 1.15234-.19532 1.21094 0 2.10938.56641.89843.56641 1.48437 1.52344.58594.95703.87891 2.22656.29297 1.26953.29297 2.69531 0 1.32813-.25391 2.71485-.23437 1.36718-.72266 2.67578z" fill="#292929" transform="matrix(15.534033 0 0 15.534033 -2976.69179 -5083.89053)"/></svg>