<svg height="115.568" viewBox="0 0 115.568 115.568" width="115.568" xmlns="http://www.w3.org/2000/svg" xmlns:xlink="http://www.w3.org/1999/xlink"><linearGradient id="a" gradientUnits="userSpaceOnUse" x1="-1169.760502" x2="-1169.760502" y1="410.604968" y2="513.18342"><stop offset="0" stop-color="#210045"/><stop offset=".25" stop-color="#25004d"/><stop offset=".5" stop-color="#2b005c"/><stop offset=".74854" stop-color="#340071"/><stop offset="1" stop-color="#3e0088"/></linearGradient><linearGradient id="b" gradientUnits="userSpaceOnUse" x1="-1166.845371" x2="-1153.678488" y1="409.629192" y2="513.366378"><stop offset="0" stop-color="#5500bd"/><stop offset="1" stop-color="#5300b5"/></linearGradient><linearGradient id="c" gradientUnits="userSpaceOnUse" x1="-1192.624147" x2="-1181.646667" y1="393.467902" y2="386.149582"><stop offset="0" stop-color="#27005d" stop-opacity=".98039"/><stop offset=".31767" stop-color="#2b005d"/><stop offset=".59756" stop-color="#280055"/><stop offset=".80878" stop-color="#24004d"/><stop offset="1" stop-color="#230049"/></linearGradient><linearGradient id="d" gradientUnits="userSpaceOnUse" x1="-1228.514408" x2="-1167.766254" y1="283.083242" y2="409.873136"><stop offset="0" stop-color="#5100b2"/><stop offset="1" stop-color="#5500bd"/></linearGradient><linearGradient id="e" gradientUnits="userSpaceOnUse" x1="-1106.396042" x2="-1167.473527" y1="281.924508" y2="409.629192"><stop offset="0" stop-color="#5500bd"/><stop offset="1" stop-color="#47008d"/></linearGradient><linearGradient id="f" gradientUnits="userSpaceOnUse" x1="-1142.822974" x2="-1131.388099" y1="367.853782" y2="374.623228"><stop offset="0" stop-color="#1b0041"/><stop offset="1" stop-color="#21004f"/></linearGradient><radialGradient id="g" cx="1159.1" cy="2013.9" gradientTransform="matrix(-.21925 .74474 -.78219 -.23028 741.98382 419.05339)" gradientUnits="userSpaceOnUse" r="24.948"><stop offset="0" stop-color="#6000d8"/><stop offset=".20886" stop-color="#5c00cd"/><stop offset=".37415" stop-color="#5500be"/><stop offset=".721" stop-color="#2d0062"/><stop offset="1" stop-color="#210045"/></radialGradient><linearGradient id="h" gradientUnits="userSpaceOnUse" x1="-296.806892" x2="-268.0215" y1="461.467292" y2="302.720734"><stop offset="0" stop-color="#210045"/><stop offset=".59416" stop-color="#430085"/><stop offset="1" stop-color="#5000b2"/></linearGradient><linearGradient id="i" gradientUnits="userSpaceOnUse" x1="-1088.846768" x2="-1066.038004" y1="789.963584" y2="632.192802"><stop offset="0" stop-color="#47008d"/><stop offset="1" stop-color="#5100b3"/></linearGradient><g transform="matrix(.5 0 0 .5 630.3272 -141.012)"><path d="m-1106.6 282.03 6.7084 15.246 17.076-7.9282 6.9443-7.3183c-10.985 2.4918-20.893 2.5746-30.729 0z" fill="#6700e8"/><path d="m-1154.8 414.97-11.587 4.269-7.3183-12.807 72.573-115.87 5.1886-1.7772c7.1618-1.6184 14.973-3.354 20.061-6.7608-11.525 15.569-53.493 88.344-78.917 132.95z" fill="url(#f)"/><path d="m-1170.6 413.15 3.0493-3.0493 71.795-121.34-10.809-6.7347c-8.6682 16.146-40.638 68.392-60.986 101.85l-9.7578 18.296z" fill="url(#e)"/><path d="m-1228.5 282.03c15.916 28.207 40.349 67.667 60.986 101.85v26.224l-4.8789 4.8789-71.354-126.85z" fill="url(#d)"/><path d="m-1240.3 289.7 11.761-7.6717c-12.62 2.6914-17.899 2.8627-30.493 0l4.8789 5.4887z" fill="#6700e8"/><path d="m-1167.6 410.1-5.4887 7.9282-7.3184-3.0493c-13.625-23.55-53.678-95.287-78.672-132.95 5.0665 3.6714 11.911 5.686 19.817 6.9699z" fill="url(#c)"/><path d="m-1152.9 513.16-20.735-9.7578 1.8296-86.6 4.269-6.7085 12.807 4.8789z" fill="url(#b)"/><path d="m-1167.6 506.45-14.637 6.7085 1.8295-98.187 12.807-4.8789z" fill="url(#a)"/></g><g transform="matrix(.5 0 0 .5 635.75843 -305.668777)"><path d="m-272.82 284.69c7.6616 1.281 12.78 5.9708 12.78 14.045 0 2.6723-1.101 6.435-1.8373 9.6153-5.1337 22.63-25.182 102.59-33.623 155.96l-7.7668-7.7668 24.719-164.16z" fill="url(#h)" transform="translate(-781.91618 328.06939)"/><path d="m-1104.1162 827.90939c0-7.8687 4.7851-15.186 14.378-15.186 9.1817 0 16.052 5.4912 16.052 14.262 0 10.928-7.2317 14.955-13.858 14.955-9.1617 0-16.572-4.7539-16.572-14.031z" fill="url(#g)"/><path d="m-1088.7962 790.63939c7.4355-52.557 11.958-107.79 16.301-162.87 0-10.977 7.2554-15.27 14.576-15.27 1.283 0 3.1753.2673 3.1753.2673l-1.9912 13.166-26.08 163.25z" fill="url(#i)"/></g></svg>