<svg height="514.16699" viewBox="0 0 564.893 514.16366" width="514.16699" xmlns="http://www.w3.org/2000/svg"><g transform="matrix(1.0986567 0 0 1.0986567 -.00001 171.53987)"><g fill="#0063db"><path d="m20.591 73.837h-20.591v-25.351h21.173v-6.436c0-31.185 14.18-42.05 42.151-42.05 7.576 0 13.403 1.207 17.87 2.013l-2.136 24.947c-2.913-1.006-5.827-1.61-11.071-1.61-8.935 0-12.432 6.438-12.432 16.7v6.437h24.863v25.351h-24.863v79.467h-34.964z"/><path d="m98.675003 2.415h34.964001v150.88901h-34.964001z"/><path d="m163.552 4.829h34.965v26.556999h-34.965z"/><path d="m163.552 48.486h34.965v104.817h-34.965z"/><path d="m303.604 78.462c-6.41-4.021-12.82-5.833-21.173-5.833-15.151 0-26.806 10.864-26.806 28.972 0 16.699 13.598 27.561 28.749 27.561 7.965 0 15.93-1.809 21.756-5.029l.777 26.959c-8.742 3.02-19.23 4.629-28.554 4.629-33.412 0-58.857-20.119-58.857-54.723 0-34.806 25.445-54.924 58.857-54.924 10.49 0 19.812 1.811 27.777 5.834z"/><path d="m356.829 101.399h-.389v51.905h-34.963v-150.889h34.963v90.133h.389l29.136-44.062h38.266l-35.158 48.083 38.072 56.735h-42.346z"/></g><path d="m512.417 77.456c-3.885-1.205-7.771-1.205-11.848-1.205-16.316 0-25.447 12.271-25.447 32.793v44.26h-34.963v-104.818h31.855v19.314h.389c6.02-13.279 14.762-21.728 29.914-21.728 4.076 0 8.35.603 11.85 1.206z" fill="#ff0084"/></g></svg>