<svg height="50.47094" width="50.47094" xmlns="http://www.w3.org/2000/svg"><path d="m185.55211 354.19158h-3.41473c-.30244 0-.49129-.14862-.53497-.36406-.0433-.21628-5.12093-15.71012-5.48993-17.00069-.26166-.91504-1.11487-4.14063-1.31955-4.91518l-1.7659 4.82505c-.4291 1.32803-4.54187 12.82654-4.66252 13.28594-.0665.2525-.1824.56639-.62461.56639h-3.3338c-.32593 0-.51044-.35782-.40518-.57971.0838-.17776 6.1058-16.21031 8.53856-22.33509v-13.4664c0-.24563.0982-.393.34298-.393h3.15743c.19574 0 .34257.14737.34257.393v12.76554.59471c2.028 5.66807 9.43567 25.83147 9.51617 26.05711.0984.2758.0695.56639-.34652.56639z" fill="#e52620" transform="matrix(1.25 0 0 -1.25 -193.46271 442.73947)"/></svg>