<svg height="500" viewBox="0 0 500 500" width="500" xmlns="http://www.w3.org/2000/svg"><g fill="none" fill-rule="evenodd" transform="matrix(-2.0981673 0 0 2.0981673 500.00342936504 85.34254424677)"><path d="m197.207 91.489335c-11.73987 24.506465-51.22355 30.265765-88.18173 12.865445-36.962757-17.400321-57.40917-51.366541-45.669297-75.87301 2.008498-4.190225-2.369935-19.6178726 2.671897-19.2868267 12.673207.8344167 20.158177-2.5486002 29.450337-5.4917346 17.728763-5.6232461 39.675833-5.3012699 59.774533 4.163016 17.38105 8.1763813 30.28759 21.7356603 37.86407 36.3515653 5.68235 10.960794 10.45882 23.758214 17.81111 31.032155 3.71504 3.677784-11.63922 11.894979-13.72092 16.23939" fill="#000"/><path d="m235.90832 138.27565c-16.20066 33.81657-249.794859-76.140566-233.5896239-109.957135 10.5045789-21.9215901 78.3451269-29.7714602 142.8503739.594068 64.50526 30.365529 103.44906 82.838577 90.73925 109.363067" fill="#000"/><path d="m235.29754 139.5504c-10.4634 21.83996-76.55166 26.01659-141.05234-4.34894-64.505252-30.361-103.000691-83.76823-92.5372885-105.608192 10.4634025-21.8399617 72.0542745-16.642994 136.5595285 13.722535 64.50525 30.365528 107.4935 74.394637 97.0301 96.234597" fill="#07f"/><path d="m165.45765 128.45084c-4.96863 10.37126-33.83335 7.09255-64.46866-7.32836-30.635302-14.4209-51.438577-34.519473-46.469948-44.895269 4.968629-10.371262 33.833346-7.088011 64.468648 7.332894 30.63531 14.420905 51.43858 34.519475 46.46996 44.890735" fill="#fff"/></g></svg>