<svg height="211.66666mm" width="211.66666mm" xmlns="http://www.w3.org/2000/svg" xmlns:xlink="http://www.w3.org/1999/xlink"><linearGradient id="a" gradientUnits="userSpaceOnUse" x1="128" x2="128" y1="0" y2="256"><stop offset=".0000001" stop-color="#f5f5f6"/><stop offset="1" stop-color="#ededee"/></linearGradient><g fill-rule="evenodd"><g transform="matrix(11.267595 0 0 11.267595 -6140.8393 -811.26684)"><path d="m256 128c0 70.692-57.308 128-128 128-70.6924 0-128-57.308-128-128 0-70.6924 57.3076-128 128-128 70.692 0 128 57.3076 128 128" fill="url(#a)" transform="matrix(.277344 0 0 .277344 545 72)"/><path d="m614.28053 107.50003c0 18.65638-15.12412 33.7805-33.7805 33.7805-18.65646 0-33.7805-15.12412-33.7805-33.7805 0-18.656457 15.12404-33.780497 33.7805-33.780497 18.65638 0 33.7805 15.12404 33.7805 33.780497" fill="#fff"/><path d="m603.35318 92.856269-18.99807 18.582051v23.10275c0 .41602-1.80273.74883-3.85508.77657-1.96914-.0277-3.85508-.36055-3.85508-.77657v-23.10275l-18.99806-18.582051c-.30508-.305079.66562-1.747267 2.16328-3.244925s2.96758-2.468362 3.24492-2.163283l17.41721 17.001189 17.4172-17.001189c.30508-.305079 1.74727.665625 3.24493 2.163283 1.49765 1.497658 2.49609 2.939846 2.21875 3.244925" fill="#ec1c24"/></g><text fill="#fff" transform="translate(-374.00486 421.48166)"/></g></svg>