<svg enable-background="new 0 0 170.08 170.08" height="109" viewBox="0 0 109 109" width="109" xmlns="http://www.w3.org/2000/svg"><circle clip-rule="evenodd" cx="54.5" cy="54.5" fill="#f7f7f4" fill-rule="evenodd" r="54" stroke="#000" stroke-miterlimit="10"/><g transform="translate(-28.5 -31)"><path d="m92.959 114.238h-45.259v-2.85l41.04-53.466h-37.961v-2.28h40.356v2.85l-41.041 53.466h42.865z"/><path d="m97.328 78.539h15.75c2.533 0 4.6.367 6.199 1.1 1.6.734 2.834 1.65 3.701 2.75.865 1.1 1.457 2.3 1.773 3.6s.477 2.5.477 3.6-.16 2.292-.477 3.575-.908 2.475-1.773 3.574c-.867 1.101-2.102 2.01-3.701 2.726-1.6.718-3.666 1.075-6.199 1.075h-9.5v13.699h-6.25zm6.25 16.9h9.15c.699 0 1.416-.101 2.148-.301.734-.199 1.408-.525 2.025-.975s1.117-1.051 1.5-1.801.576-1.691.576-2.824c0-1.166-.168-2.133-.5-2.9-.334-.766-.785-1.375-1.352-1.825-.566-.45-1.217-.758-1.949-.925-.734-.167-1.518-.25-2.35-.25h-9.25v11.801z"/></g></svg>