<svg height="90.485893" viewBox="0 0 90.48589 90.485893" width="90.485893" xmlns="http://www.w3.org/2000/svg" xmlns:xlink="http://www.w3.org/1999/xlink"><linearGradient id="a" gradientTransform="matrix(24.754 -149.44 -149.44 -24.754 99.010998 163.10999)" gradientUnits="userSpaceOnUse" x2="1"><stop offset="0" stop-color="#d92231"/><stop offset="1" stop-color="#ba2234"/></linearGradient><g transform="matrix(.39169687 0 0 -.39169687 .001175 91.147857)"><path d="m176.925 177.49999 23.047-151.580002-154.530002-24.23-24.82 151.870002 156.300002 23.932" fill="url(#a)"/><path d="m0 0 10.852 54.119 156.027 25.01-10.575-55.197z" fill="#ef463d" transform="translate(20.624998 153.56999)"/><path d="m0 0 22.877-153.042-10.405-53.731-23.047 151.576z" fill="#761116" transform="translate(187.505 232.69999)"/><path d="m-360.772-97.703c-1.218 1.455-2.858 2.53-4.856 3.229-2.055.717-4.538 1.062-7.463 1.062-2.756 0-5.906-.307-9.46-.916l-40.787-6.971c.431 3.143 1.992 7.274 4.744 12.308 3.074 5.64 7.605 12.414 13.591 20.3l.003.004c2.054 2.745 3.624 4.842 4.709 6.29.779.965 1.864 2.384 3.27 4.26 9.33 12.24 15.105 22.206 17.319 30.028 1.267 4.435 2.038 8.904 2.317 13.405.076 1.232.111 2.455.111 3.669 0 3.225-.264 6.401-.798 9.526-.486 2.848-1.187 5.217-2.127 7.118-.94 1.897-2.133 3.34-3.606 4.25-1.661 1.011-3.998 1.44-7.055 1.445-2.524 0-5.551-.306-9.094-.91l-47.135-8.065c-5.708-.978-9.923-2.658-12.612-5.19-2.137-2.005-3.241-4.602-3.23-7.583 0-.778.071-1.583.215-2.416.663-4.005 2.75-6.942 6.115-8.436 1.986-.896 4.386-1.324 7.187-1.324 1.908 0 4.004.199 6.294.589l39.451 6.653c.067-.697.113-1.393.113-2.083 0-2.465-.427-4.872-1.282-7.242-1.171-3.265-4.097-7.933-8.76-13.867-1.321-1.62-3.345-4.144-6.072-7.564-10.639-12.888-18.259-23.876-22.87-33.016 0-.004 0-.004-.003-.008 0 0 0-.004-.001-.004-3.273-6.291-5.545-12.488-6.791-18.588-.726-3.558-1.093-6.974-1.093-10.252 0-2.347.188-4.619.565-6.818.54-3.155 1.319-5.758 2.368-7.82 1.049-2.053 2.387-3.588 4.039-4.496 1.538-.834 3.798-1.165 6.909-1.174 3.949 0 9.265.582 15.994 1.73l42.768 7.313c7.574 1.303 12.841 3.109 15.902 5.623 2.446 2.009 3.713 4.767 3.7 8.016 0 .822-.076 1.671-.229 2.554-.359 2.109-1.142 3.918-2.36 5.371zm-36.248 39.569.003.002c-.003-.002-.003-.004-.004-.005h-.003z" fill="#fff" transform="translate(521.095 147.75999)"/></g></svg>